<svg xmlns="http://www.w3.org/2000/svg" width="570.031" height="334.88" viewBox="0 0 570.031 334.88">
  <g id="Grupo_83502" data-name="Grupo 83502" transform="translate(-849.969 -124.999)">
    <g id="Grupo_55152" data-name="Grupo 55152" transform="translate(32.285)">
      <g id="Grupo_55074" data-name="Grupo 55074" transform="translate(913.432 181.933)">
        <g id="Grupo_55073" data-name="Grupo 55073" transform="translate(0 0)">
          <path id="Trazado_102178" data-name="Trazado 102178" d="M702.963,172.675c-.372,2.773-.844,5.546-1.4,8.277a125.411,125.411,0,0,1-12.3,34.94q-2.328,4.287-4.976,8.263c-6.63,9.9-2.947,33.692-12.63,39.281-62.048,35.77-336.025,29.444-342,23.687a271.163,271.163,0,0,1-45.937-62.968c-1.384-2.689-2.75-5.448-4.049-8.263a173.551,173.551,0,0,1-12.147-34.94c-.624-2.731-1.147-5.49-1.6-8.277a116.214,116.214,0,0,1-.337-36.685q.633-4.139,1.619-8.277a109.153,109.153,0,0,1,17.545-38.065c.557-.788,1.131-1.591,1.721-2.379a27.419,27.419,0,0,1,6.242-5.9c47.945-34.1,261.622-21.186,343.948-17.1,17.224.859,30.974,7.208,41.45,17.1a68.078,68.078,0,0,1,7.406,8.277c8.081,10.614,13.462,23.8,16.33,38.065.54,2.717,1,5.49,1.366,8.277A139.2,139.2,0,0,1,702.963,172.675Z" transform="translate(-264.291 -58.457)" fill="#ffebad"/>
          <path id="Trazado_102179" data-name="Trazado 102179" d="M714.611,122.224H313.844c.557-.788,1.131-1.591,1.721-2.379a27.423,27.423,0,0,1,6.242-5.9H707.2A68.083,68.083,0,0,1,714.611,122.224Z" transform="translate(-293.382 -91.034)" fill="#ffcb80"/>
          <path id="Trazado_102180" data-name="Trazado 102180" d="M705.061,234.454H267.433q.633-4.139,1.619-8.277H703.694C704.234,228.894,704.689,231.667,705.061,234.454Z" transform="translate(-266.136 -156.922)" fill="#ffcb80"/>
          <path id="Trazado_102181" data-name="Trazado 102181" d="M705.288,335.065c-.372,2.773-.844,5.546-1.4,8.277H269.853c-.624-2.731-1.147-5.49-1.6-8.277Z" transform="translate(-266.615 -220.847)" fill="#ffcb80"/>
          <path id="Trazado_102182" data-name="Trazado 102182" d="M711.136,439.726q-2.328,4.287-4.977,8.263H305.6c-1.384-2.689-2.75-5.448-4.049-8.263Z" transform="translate(-286.163 -282.291)" fill="#ffcb80"/>
        </g>
      </g>
      <g id="Grupo_55086" data-name="Grupo 55086" transform="translate(1224.877 142.046)">
        <g id="Grupo_55076" data-name="Grupo 55076" transform="translate(0 0)">
          <g id="Grupo_55075" data-name="Grupo 55075">
            <path id="Trazado_102414" data-name="Trazado 102414" d="M57.572,0A57.572,57.572,0,1,1,0,57.572,57.572,57.572,0,0,1,57.572,0Z" transform="translate(0 81.419) rotate(-45)" fill="#ffb74d"/>
          </g>
        </g>
        <g id="Grupo_55078" data-name="Grupo 55078" transform="translate(27.467 39.745)">
          <g id="Grupo_55077" data-name="Grupo 55077">
            <path id="Trazado_102184" data-name="Trazado 102184" d="M1165.158,166.176a57.58,57.58,0,0,1-93.764,61.682,57.577,57.577,0,1,0,93.764-61.682Z" transform="translate(-1071.394 -166.176)" fill="#ce8d2e"/>
          </g>
        </g>
        <g id="Grupo_55084" data-name="Grupo 55084" transform="translate(53.481 24.884)">
          <g id="Grupo_55079" data-name="Grupo 55079" transform="translate(53.16 4.772)">
            <path id="Trazado_102185" data-name="Trazado 102185" d="M1241.1,144.551q1.425.693,2.8,1.458Z" transform="translate(-1241.101 -144.551)" fill="#8c6df2"/>
          </g>
          <g id="Grupo_55080" data-name="Grupo 55080">
            <path id="Trazado_102186" data-name="Trazado 102186" d="M1186.245,142.428a16.738,16.738,0,0,0-4.795-.962,6.867,6.867,0,0,0,1.665-.914q-1.375-.766-2.8-1.458c-.078.007-.155.015-.23.024-1.463.183-1.672.189-1.635,1.1a10.224,10.224,0,0,1-1.339-1.068l-6.515-1.407c3.142,5.456-4.793,3.427-7.717,2.805-.535-.114-.428-1.212-.063-1.427a17.363,17.363,0,0,1,2.738.591c2.748.593,2.443.332,3.034-2.4-3.065,1.379-2.552-.551-5.551-1.2a13.8,13.8,0,0,0-6.933-.174l1.967,2.574c-.962-.448-3.982-2.454-4.967-2.265-.459.088-.808,1.184-1.327,1.072-2.1-.453-8.046-.537-7.527-2.941,0-.011-.033-.029-.1-.052a57.559,57.559,0,0,0-16.078,5.7,34.585,34.585,0,0,1,6.184,1.032c.25.054,1.013,4.873.955,5.22-.326,1.961-1.815,2.442-3.194,4.075a23.687,23.687,0,0,0-4.865,11.018c-.022.138,1.784,2.64,1.612,3.44-.723,3.348-.384,3.478,1.384,6.442l.887-4.107c.6,3.892,1.954,5.634,2.433,9.419.544,4.3,6.761,2.429,8.08,5.466.581,1.338,2.246,1.141,2.743,2.432l1.347,3.5c.813,2.11,2.428,1.788,4.593,2.256,2.079.449-3.443,6.775-3.574,7.38-.538,2.491,1.638,8.895,1.4,9.888-.7,2.943,2.9,4.155,4.513,6.41,1.289,1.816-.754,5.729-1.2,7.564-1.045,4.274,1.036,7.957.866,12.169-.063,1.571-1,3.078-.974,4.6.024,1.565,1.1,2.768.729,4.412-.579,2.538,6.472,4.56,7.857,4.859-.006-.006-4.637-3.836-4.707-3.512.521-2.414,1.727-1.978,2.046-3.45.378-1.749-.9-3.533.627-5.794,1.65-2.445,1.511-2.39,4.412-1.764a17.68,17.68,0,0,0,.222-3.754c3.464-3.48,10.332-6.065,12.163-6.81,2.488-1.014,2.138-5.274,3.535-7.2,1.229-1.695,4.1-2.885,4.718-5.163.471-1.738-.99-2.5-2.283-2.736s-.955-2.4-1.923-2.612a13.108,13.108,0,0,1-7.349-3.875c-.324-.37-.015-3.9-.491-4.893-.682-1.424-4.167.066-4.983-1.847-.309-.723-.827-3.409-1.544-3.563-.976-.211-6.126-2.417-7.478-1.638.208-.12-1.669-1.163-1.955-1.225.123.026-7.7,2.151-7.288.259.53-2.452,2.41-5.363-.5-5.991-4.675-1.009-.435-1.366.027-3.507.594-2.747-4.689-.223-7.075-.736.063.014-1.713-5.088-.395-4.8.946.2,1.51-1.691,2.389-2.36,2.313-1.76,5.515-1.305,7.646-.42.863.359,3.305,4.841,3.146,5.623.038-.186,1.552-.749,1.791-.986.855-.846.584-1.35.957-2.3,1.253-3.194,1.531-3.82,4.607-5.262,2.26-1.059,5.338-2.172,7.274-3.756a10.457,10.457,0,0,1,4.6-2.2c-.191.048,1.37,1.429,1.742,1.509,1.526.33,2.174-.881,3.26-1.859l-2.651-.572c3.487-1.642-1.674-4,4.325-2.7,2.947.636,3.21.735,5.464-.969-2.867-.619-2.165-.488-1.535-3.406.1-.486-.321-2.443-1.258-1.85-2.563,1.622-1.956-.82-2.583-2.4-.811-2.046-2.5-.485-3.233.491-.909,1.21-6.449,2.213-6.817,3.97-.215,1.029-1.886.625-1.607-.515.418-1.71-5.172-4.637-5.125-5.33.061-.914,3.649-2.641,6.32-2.064,1.228.265.934-1.286,1.312-1.2,2.545.549,5.717.406,7.552-1.346-.348-.075-3.62-.757-3.612-.8.252-1.166-.093-1.986,1.245-1.7,3.139.678,3.541,3.327,6.987,4.071l-4.275,1.888c1.73.373,3.7,3.806,5.223,3.2,2.81-1.115,1.48-2.977,3.6-2.876a2.488,2.488,0,0,0,.867.839c.59.363,2.8,1.27,3.064,1.937.318.8.616,5.225-.341,5.4-1.553.279-6.708,3.9-3.756,5.724,2.281,1.406,3.152.442,5.647-.459,2.318-.837,2.773-.247,4.9,1.062a14.54,14.54,0,0,1,3.225.942c1.792,1.1,1.915-.151,2.1-.035a5.461,5.461,0,0,0,3.374.779A57.682,57.682,0,0,0,1186.245,142.428Z" transform="translate(-1127.152 -134.322)" fill="#5038a1"/>
          </g>
          <g id="Grupo_55081" data-name="Grupo 55081" transform="translate(25.89 42.242)">
            <path id="Trazado_102187" data-name="Trazado 102187" d="M1184.034,224.867l-1.387.9c3.545.765,5.456,2.375,8.6,3.053C1189.852,225.055,1187.977,225.718,1184.034,224.867Z" transform="translate(-1182.647 -224.867)" fill="#8c6df2"/>
          </g>
          <g id="Grupo_55082" data-name="Grupo 55082" transform="translate(33.142 47.3)">
            <path id="Trazado_102188" data-name="Trazado 102188" d="M1203.408,236.04c-2.827-.7-3.052-.3-5.216,1.274q2.249.486,4.5.977C1203.99,238.574,1204.3,236.261,1203.408,236.04Z" transform="translate(-1198.192 -235.709)" fill="#8c6df2"/>
          </g>
          <g id="Grupo_55083" data-name="Grupo 55083" transform="translate(40.127 49.485)">
            <path id="Trazado_102189" data-name="Trazado 102189" d="M1214.792,242.376c.861-3.99-4.058-.876,0,0Z" transform="translate(-1213.165 -240.391)" fill="#8c6df2"/>
          </g>
        </g>
        <g id="Grupo_55085" data-name="Grupo 55085" transform="translate(77.538 99.324)">
          <path id="Trazado_102190" data-name="Trazado 102190" d="M1178.77,323.348c.024,1.565,1.1,2.768.728,4.412-.578,2.538,6.472,4.56,7.857,4.859-.005-.006-4.637-3.836-4.707-3.512.521-2.414,1.727-1.978,2.046-3.45.378-1.749-.9-3.533.628-5.794,1.65-2.445,1.511-2.39,4.411-1.764a17.672,17.672,0,0,0,.222-3.754c3.464-3.48,10.332-6.065,12.163-6.81,2.488-1.014,2.137-5.274,3.535-7.2,1.228-1.695,4.1-2.885,4.718-5.163a1.989,1.989,0,0,0-.035-1.288,57.79,57.79,0,0,1-31.618,17.155c.327,2.548,1.133,5.021,1.024,7.709C1179.68,320.318,1178.746,321.825,1178.77,323.348Z" transform="translate(-1178.719 -293.883)" fill="#3a2c69"/>
        </g>
      </g>
      <g id="Grupo_55087" data-name="Grupo 55087" transform="translate(1257.961 125)">
        <path id="Trazado_102191" data-name="Trazado 102191" d="M1117.026,57.333a22.143,22.143,0,0,0-13.9,28.062c3.912,11.587,33.411,32.292,34.183,32.032.574-.194,11.688-34.609,7.777-46.2A22.142,22.142,0,0,0,1117.026,57.333Zm9.91,29.358a10.434,10.434,0,1,1,6.548-13.223A10.434,10.434,0,0,1,1126.936,86.691Z" transform="translate(-1101.959 -56.164)" fill="#8c6df2"/>
      </g>
      <g id="Grupo_55094" data-name="Grupo 55094" transform="translate(1257.961 336.74)">
        <g id="Grupo_55089" data-name="Grupo 55089" transform="translate(7.2 34.357)">
          <path id="Trazado_102192" data-name="Trazado 102192" d="M1173.243,524.509s6.02-7.023.371-11.485c0,0-4.126-2.5-7.491-2.295,0,0,4.768,7.995,3.226,8.79s-4.671-9.291-4.671-9.291-9.39-.911-12.41.542c0,0,8.027,6.569,6.337,6.96s-10.362-6.056-10.362-6.056-8.74,1.487-8.273,6.819,3.477,6.978,4.8,6.836,9.066-3.1,9.235-2.013-4.492,4.629-7.756,4.794c0,0,6.162,6.8,10.257,4.834s4.444-5.07,7-6.236,4.731-1.163,3.678.026-5.673,2.345-7.133,4.927-2.77,4.324,1.467,3.686,11.124-3.738,11.426-7.288Z" transform="translate(-1139.951 -509.946)" fill="#8c6df2"/>
          <g id="Grupo_55088" data-name="Grupo 55088" transform="translate(4.312 8.648)">
            <path id="Trazado_102193" data-name="Trazado 102193" d="M1150.394,530.931s23.738-.915,28.98,5.874a17.166,17.166,0,0,0,4.726,6.634l.556,1.515s-4.113-4.337-5.585-4.6C1179.071,540.355,1181.373,531.945,1150.394,530.931Z" transform="translate(-1150.394 -530.89)" fill="#8c6df2"/>
            <path id="Trazado_102194" data-name="Trazado 102194" d="M1230.117,560.432a14.9,14.9,0,0,1,5.449,10.5l-.925.083s-1.627-6.962-4.569-9.684S1230.117,560.432,1230.117,560.432Z" transform="translate(-1196.411 -547.883)" fill="#8c6df2"/>
          </g>
        </g>
        <g id="Grupo_55091" data-name="Grupo 55091" transform="translate(55.245 15.287)">
          <path id="Trazado_102195" data-name="Trazado 102195" d="M1262.6,488.565s-9.577-5.363-5.107-12.641c0,0,3.575-4.469,7.406-5.618,0,0-2.043,10.853,0,11.109s1.4-12.259,1.4-12.259,10.088-4.852,14.046-4.469c0,0-6.257,10.6-4.214,10.343s9.066-10.981,9.066-10.981,10.343-1.916,12,4.214-1.021,9.194-2.553,9.577-11.365.256-11.109,1.532,6.9,3.32,10.6,2.171c0,0-4.086,10.088-9.449,9.577s-7.023-3.831-10.343-4.086-5.746.639-4.086,1.532,7.278.293,9.96,2.573,4.852,3.685-.128,4.706-13.918.383-15.706-3.448Z" transform="translate(-1256.304 -463.765)" fill="#d8ccff"/>
          <g id="Grupo_55090" data-name="Grupo 55090" transform="translate(1.238 6.412)">
            <path id="Trazado_102196" data-name="Trazado 102196" d="M1297.8,479.294s-26.815,8.683-29.88,18.387a20.37,20.37,0,0,1-2.554,9.321v1.916s2.809-6.512,4.341-7.406C1269.708,501.512,1263.707,493.085,1297.8,479.294Z" transform="translate(-1262.863 -479.294)" fill="#8c6df2"/>
            <path id="Trazado_102197" data-name="Trazado 102197" d="M1261.806,544.7a17.687,17.687,0,0,0-1.778,13.924l1.064-.286s-1.033-8.419,1.131-12.654S1261.806,544.7,1261.806,544.7Z" transform="translate(-1259.302 -516.994)" fill="#8c6df2"/>
          </g>
        </g>
        <g id="Grupo_55093" data-name="Grupo 55093">
          <path id="Trazado_102198" data-name="Trazado 102198" d="M1168.819,459.434s12.624-7.069,6.733-16.664c0,0-4.713-5.891-9.763-7.406,0,0,2.693,14.307,0,14.644s-1.851-16.159-1.851-16.159-13.3-6.4-18.515-5.891c0,0,8.248,13.97,5.555,13.634s-11.951-14.475-11.951-14.475-13.634-2.525-15.822,5.555,1.347,12.119,3.366,12.624,14.981.337,14.644,2.02-9.089,4.376-13.97,2.861c0,0,5.386,13.3,12.456,12.624s9.257-5.049,13.634-5.386,7.575.842,5.387,2.02-9.594.386-13.129,3.391-6.4,4.856.168,6.2,18.347.5,20.7-4.545Z" transform="translate(-1122.514 -426.743)" fill="#d8ccff"/>
          <g id="Grupo_55092" data-name="Grupo 55092" transform="translate(6.918 8.453)">
            <path id="Trazado_102199" data-name="Trazado 102199" d="M1139.268,447.213s35.347,11.446,39.387,24.238a26.85,26.85,0,0,0,3.366,12.287v2.525s-3.7-8.584-5.723-9.763C1176.3,476.5,1184.209,465.392,1139.268,447.213Z" transform="translate(-1139.268 -447.213)" fill="#8c6df2"/>
            <path id="Trazado_102200" data-name="Trazado 102200" d="M1240.4,533.435a23.315,23.315,0,0,1,2.344,18.354l-1.4-.377s1.361-11.1-1.491-16.68S1240.4,533.435,1240.4,533.435Z" transform="translate(-1197.651 -496.909)" fill="#8c6df2"/>
          </g>
        </g>
        <path id="Trazado_102201" data-name="Trazado 102201" d="M1200.526,597.878A24.728,24.728,0,0,1,1175.8,573.15h49.457A24.728,24.728,0,0,1,1200.526,597.878Z" transform="translate(-1153.795 -512.695)" fill="#debc56"/>
        <path id="Trazado_102202" data-name="Trazado 102202" d="M1220.947,597.689a24.745,24.745,0,0,0,27.8-24.539H1242.6A24.732,24.732,0,0,1,1220.947,597.689Z" transform="translate(-1180.302 -512.695)" fill="#fff" opacity="0.4"/>
        <path id="Trazado_102203" data-name="Trazado 102203" d="M1174.97,631.746h50.14a3.051,3.051,0,0,0-3.051-3.051h-44.038a3.051,3.051,0,0,0-3.051,3.051Z" transform="translate(-1153.31 -545.304)" fill="#ce8d2e"/>
        <rect id="Rectángulo_31217" data-name="Rectángulo 31217" width="50.833" height="0.759" transform="translate(72.272 61.214) rotate(180)" fill="#ce8d2e"/>
      </g>
      <g id="Grupo_55100" data-name="Grupo 55100" transform="translate(1221.381 169.485)">
        <g id="Grupo_55097" data-name="Grupo 55097" transform="translate(0 9.689)">
          <g id="Grupo_55095" data-name="Grupo 55095">
            <path id="Trazado_102204" data-name="Trazado 102204" d="M1143.555,162.795a.85.85,0,0,1-.815.367c-2.2-.289-4.472-.511-6.748-.661a.851.851,0,0,1,.111-1.7c2.313.152,4.62.378,6.859.672a.851.851,0,0,1,.733.955A.839.839,0,0,1,1143.555,162.795Zm-47.837,64.977a19.4,19.4,0,0,1-5.174,4.905.851.851,0,1,1-.927-1.428,17.658,17.658,0,0,0,4.706-4.454.851.851,0,0,1,1.394.977Zm2.922-6.132a.851.851,0,0,1-1.525-.706,21.68,21.68,0,0,0,.75-6.507.851.851,0,1,1,1.7-.055,23.391,23.391,0,0,1-.81,7.017A.851.851,0,0,1,1098.639,221.639Zm-14.072,13.57a.849.849,0,0,1-.473.341,32.562,32.562,0,0,1-6.911,1.122.851.851,0,0,1-.1-1.7,30.848,30.848,0,0,0,6.548-1.061.851.851,0,0,1,.935,1.3Zm45.353-73.316a.851.851,0,0,1-.708.374c-2.25-.008-4.532.053-6.779.183a.851.851,0,1,1-.1-1.7c2.282-.132,4.6-.194,6.882-.185a.852.852,0,0,1,.7,1.328Zm-31.641,46.266a.852.852,0,0,1-1.517-.227,23.815,23.815,0,0,0-2.781-5.959.851.851,0,1,1,1.426-.931,25.523,25.523,0,0,1,2.981,6.386A.852.852,0,0,1,1098.279,208.16Zm-27.25,27.865a.851.851,0,0,1-.868.357,16.45,16.45,0,0,1-6.108-2.535c-.15-.1-.3-.205-.445-.313a.84.84,0,0,1-.186-1.189.851.851,0,0,1,1.189-.185q.2.143.4.279a14.765,14.765,0,0,0,5.48,2.272.851.851,0,0,1,.54,1.313Zm45.253-73.345a.85.85,0,0,1-.6.367c-2.245.269-4.5.611-6.7,1.015a.852.852,0,0,1-.307-1.676c2.239-.41,4.529-.757,6.809-1.03a.851.851,0,0,1,.806,1.324Zm-25.461,34.276-.031.043a.852.852,0,0,1-1.194.153q-.411-.318-.84-.61a15.1,15.1,0,0,0-4.933-2.21.851.851,0,1,1,.4-1.654,16.779,16.779,0,0,1,5.487,2.456q.473.32.925.671A.85.85,0,0,1,1090.82,196.956Zm-30.586,31.363a.85.85,0,0,1-1.426-.028,25.386,25.386,0,0,1-2.815-6.46.851.851,0,0,1,1.637-.468,23.637,23.637,0,0,0,2.622,6.026A.852.852,0,0,1,1060.234,228.319Zm42.613-63.172a.852.852,0,0,1-.5.348c-2.182.544-4.376,1.166-6.52,1.849a.851.851,0,1,1-.516-1.623c2.179-.693,4.407-1.325,6.625-1.878a.851.851,0,0,1,.91,1.3Zm-24.894,28.718a.85.85,0,0,1-.54.357,29.1,29.1,0,0,0-6.265,2.127.851.851,0,1,1-.7-1.549,30.754,30.754,0,0,1,6.64-2.248.851.851,0,0,1,.869,1.313Zm11.881-24.573a.848.848,0,0,1-.394.314c-2.087.814-4.183,1.711-6.23,2.666a.851.851,0,1,1-.721-1.542c2.08-.97,4.21-1.883,6.331-2.71a.851.851,0,0,1,1.013,1.272Zm-33.481,46.06a.851.851,0,0,1-1.554-.416,41.307,41.307,0,0,1,.106-6.971.852.852,0,0,1,1.695.168,39.321,39.321,0,0,0-.1,6.681A.849.849,0,0,1,1056.354,215.352Zm9.109-16.1a.851.851,0,0,1-.269.253c-1.772,1.051-3.694,2.28-5.715,3.655a.851.851,0,0,1-.957-1.408c2.05-1.394,4-2.643,5.8-3.711a.851.851,0,0,1,1.138,1.211Zm12.006-24.171a.847.847,0,0,1-.278.258,39.819,39.819,0,0,0-5.48,3.82.851.851,0,1,1-1.088-1.31,41.478,41.478,0,0,1,5.715-3.984.851.851,0,0,1,1.13,1.215Zm-19.815,26.727a.851.851,0,0,1-1.529-.69,46.888,46.888,0,0,1,2.231-6.587.851.851,0,1,1,1.567.664,45.252,45.252,0,0,0-2.148,6.347A.847.847,0,0,1,1057.653,201.806Zm-3.521,5.088a.842.842,0,0,1-.2.207c-1.7,1.258-3.529,2.646-5.427,4.124a.851.851,0,0,1-1.045-1.343c1.907-1.487,3.744-2.884,5.46-4.152a.851.851,0,0,1,1.209,1.163ZM1067,183.763a.775.775,0,0,1-.061.078,42.811,42.811,0,0,0-3.951,5.4.851.851,0,0,1-1.448-.895,44.246,44.246,0,0,1,4.111-5.617.851.851,0,0,1,1.349,1.034Zm-23.67,31.521a.851.851,0,0,1-.169.184q-2.6,2.1-5.286,4.322a.851.851,0,1,1-1.085-1.311q2.686-2.221,5.3-4.335a.851.851,0,0,1,1.239,1.14Zm-10.546,8.7a.832.832,0,0,1-.158.175q-2.593,2.171-5.229,4.4a.851.851,0,0,1-1.1-1.3q2.639-2.228,5.235-4.4a.851.851,0,0,1,1.251,1.129Zm-10.456,8.814a.837.837,0,0,1-.155.173q-2.6,2.2-5.23,4.408a.851.851,0,0,1-1.095-1.3q2.625-2.208,5.227-4.406a.851.851,0,0,1,1.254,1.128Zm-10.475,8.8a.852.852,0,0,1-.16.176q-2.633,2.19-5.278,4.355a.852.852,0,1,1-1.078-1.319q2.639-2.157,5.268-4.346a.851.851,0,0,1,1.249,1.133Z" transform="translate(-1005.027 -160.564)" fill="#fff"/>
          </g>
          <g id="Grupo_55096" data-name="Grupo 55096" transform="translate(143.747 2.048)">
            <path id="Trazado_102205" data-name="Trazado 102205" d="M1318.008,167.082a.851.851,0,0,1-.946.338c-.012,0-1.168-.344-3.24-.781a.852.852,0,0,1,.352-1.666c2.148.454,3.323.8,3.373.815a.852.852,0,0,1,.574,1.058A.874.874,0,0,1,1318.008,167.082Z" transform="translate(-1313.146 -164.954)" fill="#fff"/>
          </g>
        </g>
        <g id="Grupo_55098" data-name="Grupo 55098" transform="translate(17.017 59.905)">
          <path id="Trazado_102206" data-name="Trazado 102206" d="M1060.385,276.655l1.553,2.5L1076.8,268.2Z" transform="translate(-1051.576 -268.2)" fill="#e8e8e8"/>
          <path id="Trazado_102207" data-name="Trazado 102207" d="M1063.715,279.158l.549,10.1,14.308-21.059Z" transform="translate(-1053.353 -268.2)" fill="#fff"/>
          <path id="Trazado_102208" data-name="Trazado 102208" d="M1050.312,276.655l-8.809-4.973,25.221-3.483Z" transform="translate(-1041.503 -268.2)" fill="#fff"/>
        </g>
        <g id="Grupo_55099" data-name="Grupo 55099" transform="translate(118.752)">
          <path id="Trazado_102209" data-name="Trazado 102209" d="M1271.6,159.535l-.22,2.938,18.461-.095Z" transform="translate(-1265.869 -150.326)" fill="#e8e8e8"/>
          <path id="Trazado_102210" data-name="Trazado 102210" d="M1265.078,165.723l-5.51,8.484,23.971-8.578Z" transform="translate(-1259.569 -153.576)" fill="#fff"/>
          <path id="Trazado_102211" data-name="Trazado 102211" d="M1267.064,149l-4.185-9.209,22.427,12.052Z" transform="translate(-1261.334 -139.795)" fill="#fff"/>
        </g>
      </g>
      <g id="Grupo_55102" data-name="Grupo 55102" transform="translate(850.53 386.232)">
        <g id="Grupo_55101" data-name="Grupo 55101" transform="translate(0 0.02)">
          <path id="Trazado_102212" data-name="Trazado 102212" d="M490.239,593.169h0l-.392.037c-.12.012-.244.021-.372.033h0c-11.806,1.028-40.12,2.882-80.244,4.241-.314.012-.628.021-.941.033q-12.344.415-26.122.756c-13.379.326-33.633,2.767-55.489,5.632h0l-1.2.161h0c-33.905,4.459-71.411,9.873-92.966,10-1.342.008-2.667.012-3.976.021h-.929s0,0,0,0c-32.555.091-55.381-.9-71.547-2.626h0c-.244-.029-.479-.054-.718-.078h0c-27.55-3.018-35.412-8.192-39.385-13.709-.07-.1-.145-.206-.219-.31a31.717,31.717,0,0,1-1.743-2.886c-14.308-26.13,52.173-40.8,58.8-41.206H517.542s.421.607,1.036,1.689c.161.322.355.681.566,1.082a47.11,47.11,0,0,1,4.435,11.673v0c.033.149.058.3.087.446v0C525.478,578.333,521.217,590.344,490.239,593.169Z" transform="translate(-111.959 -553.268)" fill="#ce8d2e"/>
        </g>
        <path id="Trazado_102213" data-name="Trazado 102213" d="M172.513,597.625c-.508.244-1.012.491-1.515.739q-6.008,2.936-11.991,5.909-6.014,2.985-12.012,6.012-5.965,3.016-11.913,6.074-5.971,3.066-11.921,6.186-.948.5-1.891,1c-.07-.1-.145-.206-.219-.31q1.71-.9,3.415-1.792,5.952-3.116,11.925-6.182,5.946-3.048,11.921-6.058,6-3.023,12.02-5.992,6-2.954,12.02-5.855C172.533,597.261,172.694,597.534,172.513,597.625Z" transform="translate(-117.296 -579.118)" fill="#fff5e9"/>
        <path id="Trazado_102214" data-name="Trazado 102214" d="M319.012,553.52c-.908.578-1.821,1.152-2.738,1.73q-11.05,6.956-22.244,13.684-11.149,6.7-22.426,13.172-11.322,6.5-22.777,12.78T225.8,607.217q-4.045,2.112-8.106,4.212h0c-.244-.029-.479-.054-.718-.078q5.76-2.967,11.5-5.979,11.508-6.057,22.9-12.334Q262.8,586.732,274.11,580.2t22.5-13.271q11.186-6.739,22.244-13.688a.015.015,0,0,1,.012,0,.132.132,0,0,1,.14,0A.164.164,0,0,1,319.012,553.52Z" transform="translate(-173.608 -553.219)" fill="#fff5e9"/>
        <path id="Trazado_102215" data-name="Trazado 102215" d="M498.208,553.268q-10.87,7.34-21.959,14.337-12.134,7.656-24.519,14.915t-24.99,14.11q-12.6,6.85-25.432,13.292-4.181,2.1-8.378,4.162H392q6.182-3.016,12.309-6.124,12.79-6.5,25.37-13.408t24.932-14.213q12.351-7.309,24.462-15.006,9.322-5.921,18.5-12.066Z" transform="translate(-276.364 -553.248)" fill="#fff5e9"/>
        <path id="Trazado_102216" data-name="Trazado 102216" d="M707.845,574.609q-1.35.756-2.7,1.5-10.833,6.027-21.728,11.954t-21.84,11.748q-10.895,5.8-21.844,11.508-4.751,2.471-9.506,4.93s0,0,0,0l-1.2.161q6.627-3.425,13.234-6.879Q653.2,603.811,664.1,598q10.938-5.835,21.831-11.76t21.753-11.913C707.862,574.229,708.027,574.51,707.845,574.609Z" transform="translate(-415.519 -565.6)" fill="#fff5e9"/>
        <path id="Trazado_102217" data-name="Trazado 102217" d="M903.436,553.268c-.24.157-.479.31-.719.467q-10.282,6.658-20.683,13.139T861.123,579.65q-10.511,6.3-21.129,12.412-4.726,2.719-9.473,5.418c-.314.012-.628.021-.942.033q6.454-3.648,12.875-7.367,10.6-6.144,21.092-12.47t20.882-12.826q9.136-5.723,18.185-11.582Z" transform="translate(-533.257 -553.248)" fill="#fff5e9"/>
        <path id="Trazado_102218" data-name="Trazado 102218" d="M1060.394,588.7v0q-7.786,5.952-15.642,11.818-8.87,6.627-17.785,13.185h0l-.392.037c-.12.012-.243.021-.371.033q10.412-7.68,20.77-15.427,6.7-5.017,13.338-10.1C1060.34,588.407,1060.365,588.559,1060.394,588.7Z" transform="translate(-648.687 -573.79)" fill="#fff5e9"/>
      </g>
      <g id="Grupo_55103" data-name="Grupo 55103" transform="translate(827.129 236.317)">
        <path id="Trazado_102219" data-name="Trazado 102219" d="M178.82,558.469c-3.664,4.1-26.513,6.384-27.9,0L144.5,524.152H178.82Z" transform="translate(-107.663 -386.24)" fill="#debc56"/>
        <path id="Trazado_102220" data-name="Trazado 102220" d="M180.033,519.657c0,1.253-4.1,2.337-10.037,2.843-1.267.113-2.6.183-4.012.24-.239.014-.479.014-.732.028-.69.028-1.394.028-2.1.042h-.887c-.76,0-1.506-.014-2.224-.028-1.211-.028-2.365-.07-3.477-.141-.1,0-.2-.014-.3-.014a.086.086,0,0,1-.057-.014,55.2,55.2,0,0,1-7.095-.83c-.225-.042-.436-.085-.647-.141-2.492-.535-3.97-1.239-3.97-1.985,0-.549.788-1.07,2.182-1.52.2-.056.408-.127.633-.183a39.844,39.844,0,0,1,6.391-1.084q.781-.064,1.6-.127c.31-.028.633-.056.958-.071l1.506-.084c1.436-.071,2.942-.1,4.491-.1h.549c.479,0,.957,0,1.422.014.507.014,1,.028,1.478.056,2.14.07,4.139.211,5.926.408C176.682,517.532,180.033,518.531,180.033,519.657Z" transform="translate(-107.662 -381.741)" fill="#ce8d2e"/>
        <path id="Trazado_102221" data-name="Trazado 102221" d="M197.639,373.222q-.844,3.02-1.647,5.532c-1.267.113-2.6.183-4.012.239-.929.042-1.872.056-2.829.07-.169-1.928-.282-4.054-.338-6.321a207.572,207.572,0,0,1,1-23.044c.563-6.109,1.337-12.29,2.281-18.047,7.4-45.512,16.935-73.117,20.947-53.733C215.9,291.772,205.283,346.279,197.639,373.222Z" transform="translate(-133.658 -237.995)" fill="#8c6df2"/>
        <path id="Trazado_102222" data-name="Trazado 102222" d="M144.84,380.07c-.69.028-1.394.028-2.1.042h-.887c-.76,0-1.506-.014-2.224-.028-1.211-.028-2.365-.07-3.477-.141-.1,0-.2-.014-.3-.014.014.057.014.113.028.169-.028-.056-.056-.112-.084-.183-.845-1.816-1.675-3.744-2.506-5.743-2.126-5.054-4.223-10.628-6.18-16.344-2.125-6.194-4.1-12.543-5.729-18.554q-1.689-6.166-3.139-11.938c-10.262-40.5-12.022-64.854-1-49.045,8.249,11.853,21.369,65.192,26.578,95.514.225,1.323.436,2.6.633,3.829C144.6,378.479,144.727,379.281,144.84,380.07Z" transform="translate(-87.25 -239.043)" fill="#8c6df2"/>
        <path id="Trazado_102223" data-name="Trazado 102223" d="M102.963,401.775c-.028-.056-.056-.112-.084-.183a55.219,55.219,0,0,1-7.095-.83c-.225-.042-.436-.085-.648-.141-.239-.436-.45-.873-.661-1.281-.45-.858-.83-1.633-1.126-2.224-.38-.746-.591-1.211-.591-1.211-.113-.183-1.408-2.351-3.449-5.9-.239-.408-.493-.845-.76-1.3-3.632-6.335-9.164-16.175-14.682-26.775-.225-.436-.436-.859-.662-1.281-3.689-7.137-7.334-14.57-10.375-21.454-.2-.479-.408-.943-.605-1.408-5.208-12.064-8.376-22.27-6.293-26.029,2.759-4.984,10.558,3.688,19.033,17.85.254.436.521.873.788,1.309,3.182,5.434,6.461,11.614,9.573,18.089,1.464,3.027,2.886,6.138,4.237,9.263.282.633.563,1.267.831,1.915v.014c.887,2.027,1.717,4.054,2.534,6.081a187.688,187.688,0,0,1,7.686,23.157.052.052,0,0,0,.014.042c.479,1.9.887,3.745,1.211,5.5.042.254.1.493.141.732.1.535.2,1.056.281,1.548.282,1.619.507,3.069.676,4.336C102.949,401.663,102.949,401.719,102.963,401.775Z" transform="translate(-55.284 -260.72)" fill="#d8ccff"/>
        <path id="Trazado_102224" data-name="Trazado 102224" d="M160.229,331.162c-.929.042-1.872.056-2.829.07h-.887c-.76,0-1.506-.014-2.224-.028-.76-1.872-1.506-3.941-2.267-6.194-.817-2.421-1.647-5.054-2.449-7.827a.052.052,0,0,1-.014-.042c-1.45-4.955-2.886-10.389-4.223-16.034-.112-.451-.211-.9-.324-1.351a.014.014,0,0,0-.014-.014c-.479-2.111-.971-4.251-1.436-6.4-1.633-7.419-3.083-15.007-4.266-22.172q-1.33-8.024-2.421-15.513c-.1-.591-.183-1.183-.267-1.76-1.718-11.754-3.013-22.34-3.843-31.35-.057-.479-.1-.957-.141-1.422-2.407-27.113-.535-39.247,6.673-24.832,2.337,4.674,4.871,14.429,7.348,26.775.112.549.225,1.1.324,1.647,2.1,10.741,4.167,23.284,6.011,36.066.084.633.183,1.267.268,1.9,1.914,13.486,3.576,27.169,4.814,39.191.9,8.827,1.563,16.78,1.9,23.115C160.1,327.262,160.187,329.331,160.229,331.162Z" transform="translate(-100.105 -190.163)" fill="#d8ccff"/>
        <path id="Trazado_102225" data-name="Trazado 102225" d="M158.291,333.232c.056.282-.366.408-.436.127-1.647-7.742-3.2-15.5-4.7-23.27a24.607,24.607,0,0,1-2.351-2.182c-.8-.8-1.605-1.591-2.421-2.379-.549-.535-1.1-1.084-1.633-1.633-.112-.45-.211-.9-.324-1.351.859.746,1.675,1.52,2.492,2.323s1.647,1.633,2.449,2.463c.549.535,1.07,1.1,1.577,1.675-.38-1.957-.774-3.914-1.141-5.871q-3.294-17.378-6.152-34.827a.137.137,0,0,1-.183-.042,33.826,33.826,0,0,1-2.914-3.857l-2.872-4.026-1.394-1.942c-.1-.591-.183-1.183-.267-1.76.718,1.014,1.408,2.041,2.125,3.069.929,1.351,1.873,2.7,2.816,4.054a44.96,44.96,0,0,1,2.576,3.858c-1.014-6.152-2-12.289-2.928-18.455q-1.373-9.122-2.632-18.258a37.779,37.779,0,0,1-4.237-3.984c-.521-.535-1.056-1.084-1.563-1.633-.057-.479-.1-.957-.141-1.422.789.873,1.591,1.731,2.407,2.59,1.155,1.239,2.365,2.435,3.435,3.758q-2.408-17.484-4.448-35.038c-.043-.408.619-.408.661,0q1.774,15.373,3.843,30.674,1.351,10.094,2.886,20.173a12.559,12.559,0,0,0,.619-2.154c.254-1.084.535-2.154.8-3.238.535-2.154,1.07-4.308,1.633-6.447.577-2.21,1.154-4.406,1.731-6.6.155-.591.31-1.183.451-1.773.112.549.225,1.1.324,1.647-.07.268-.141.549-.211.817-.577,2.21-1.154,4.406-1.731,6.616-.591,2.252-1.211,4.5-1.83,6.757q-.443,1.689-.929,3.379a4.171,4.171,0,0,1-.774,1.633q2.471,16.492,5.279,32.927Q152.807,306.528,158.291,333.232Z" transform="translate(-101.517 -192.951)" fill="#8c6df2"/>
        <path id="Trazado_102226" data-name="Trazado 102226" d="M105.611,410.244a27.131,27.131,0,0,1-2.815-4.1c-.943-1.478-1.858-2.984-2.745-4.477a.58.58,0,0,1-.07-.127,7.356,7.356,0,0,1-2.168-.76c-.76-.324-1.534-.647-2.28-1-.535-.239-1.056-.479-1.577-.732-.239-.408-.493-.845-.76-1.3.9.465,1.816.915,2.731,1.337q1.161.549,2.323,1.056c.366.155.789.3,1.183.465-1.548-2.618-3.083-5.237-4.561-7.9-3.6-6.433-7-12.993-10.262-19.6,0,.1-.042.2-.155.2a2.131,2.131,0,0,1-.732-.028c-.268-.084-.549-.225-.816-.338-.479-.2-.958-.408-1.436-.605-1-.422-1.971-.887-2.956-1.366-.225-.436-.436-.859-.662-1.281.31.155.633.31.943.451,1,.479,2.013.943,3.026,1.394.465.211.944.422,1.422.619.268.113.549.211.816.352a1.547,1.547,0,0,1,.451.394q-3.231-6.546-6.307-13.162c-1.211-2.6-2.393-5.209-3.576-7.827-.647.2-1.45-.422-2-.7-.788-.408-1.563-.831-2.337-1.267-.943-.549-1.886-1.112-2.815-1.7-.2-.479-.408-.943-.605-1.408,1.309.859,2.646,1.661,4,2.435.816.465,1.633.915,2.464,1.366.281.155.633.3.929.479-1.253-2.773-2.492-5.532-3.716-8.306q-1.9-4.287-3.787-8.587c-1.2-2.717-2.464-5.42-3.547-8.193a.224.224,0,0,1,.408-.169c1.534,3.139,2.843,6.4,4.237,9.615,1.366,3.111,2.731,6.222,4.125,9.333q2.724,6.166,5.589,12.261a5.582,5.582,0,0,1,.1-.648c.1-.6.2-1.225.3-1.83.2-1.169.38-2.351.549-3.519.38-2.52.7-5.068.9-7.616.127-1.591.2-3.2.2-4.8.254.436.521.873.788,1.309-.042,1.225-.112,2.449-.2,3.66-.183,2.449-.493,4.9-.845,7.334q-.3,1.921-.633,3.843c-.169.943-.154,2.337-.76,3.125,3.154,6.771,6.391,13.486,9.784,20.145,1.732,3.379,3.505,6.715,5.321,10.051.183-1.732.8-3.463,1.1-5.181a43.681,43.681,0,0,0,.591-5.743,59.485,59.485,0,0,0-.549-9.882c.282.633.563,1.267.831,1.915v.014a38.538,38.538,0,0,1,.436,7.954,46.477,46.477,0,0,1-.62,5.757,19.26,19.26,0,0,1-1.408,5.406.189.189,0,0,1-.2.085c1.056,1.942,2.112,3.885,3.21,5.814q2.26,3.991,4.645,7.925c.788,1.309,1.591,2.618,2.393,3.928a31,31,0,0,1,2.309,3.97C105.85,410.216,105.709,410.356,105.611,410.244Z" transform="translate(-59.93 -269.766)" fill="#8c6df2"/>
        <path id="Trazado_102227" data-name="Trazado 102227" d="M175.567,363.069c-.338,1.534-.732,3.069-1.155,4.589-.633,2.295-1.323,4.561-2.1,6.814-.38,1.1-.775,2.182-1.183,3.28-.282.732-.479,2.112-1.225,2.492a.145.145,0,0,1-.2-.085c-.183-.507.084-.872.268-1.365.2-.521.38-1.028.577-1.549.394-1.1.774-2.182,1.155-3.28.718-2.154,1.394-4.308,2-6.49.591-2.084,1.126-4.195,1.591-6.307C175.384,361.8,175.482,362.436,175.567,363.069Z" transform="translate(-122.425 -290.556)" fill="#3e6a6b"/>
      </g>
      <path id="Trazado_102228" data-name="Trazado 102228" d="M443.082,497.48H222.722V404.418l220.36,2.753Z" transform="translate(673.546 -79.63)" fill="#3a2c69"/>
      <path id="Trazado_102229" data-name="Trazado 102229" d="M755.4,391.851l55.511-13.529v76.308l-56.2,27.531Z" transform="translate(361.226 -64.31)" fill="#5038a1"/>
      <path id="Trazado_102230" data-name="Trazado 102230" d="M195.527,390.775l74.206-9.152,212.895-1.346-43.29,10.5Z" transform="translate(689.511 -65.458)" fill="#debc56"/>
      <g id="Grupo_55104" data-name="Grupo 55104" transform="translate(1056.561 291.258)">
        <path id="Trazado_102231" data-name="Trazado 102231" d="M651.061,348.282H613.952l-3.038-22.705,38.682.1Z" transform="translate(-610.914 -324.603)" fill="#5038a1"/>
        <rect id="Rectángulo_31218" data-name="Rectángulo 31218" width="26.224" height="1.277" transform="translate(6.933 28.941)" fill="#5038a1"/>
        <path id="Trazado_102232" data-name="Trazado 102232" d="M610.914,324.193l2.939-.909,37.208-.064,1.248,21.312s-1.248,2.982-1.248,2.367-1.466-22.605-1.466-22.605Z" transform="translate(-610.914 -323.219)" fill="#5038a1"/>
        <path id="Trazado_102233" data-name="Trazado 102233" d="M627.7,392.009l5.727-.913h22.908v.913l-2.411,1.277v-1.277Z" transform="translate(-620.771 -363.068)" fill="#5038a1"/>
        <path id="Trazado_102234" data-name="Trazado 102234" d="M649.932,380.368h9.189c-2.222-3.24-1.4-5.942,0-8.54h-9.189A9.133,9.133,0,0,0,649.932,380.368Z" transform="translate(-633.198 -351.756)" fill="#5038a1"/>
      </g>
      <g id="Grupo_55105" data-name="Grupo 55105" transform="translate(966.851 291.258)">
        <path id="Trazado_102235" data-name="Trazado 102235" d="M433.809,348.282H396.7l-3.038-22.705,38.682.1Z" transform="translate(-393.661 -324.603)" fill="#5038a1"/>
        <rect id="Rectángulo_31219" data-name="Rectángulo 31219" width="26.224" height="1.277" transform="translate(6.933 28.941)" fill="#5038a1"/>
        <path id="Trazado_102236" data-name="Trazado 102236" d="M393.661,324.193l2.939-.909,37.209-.064,1.248,21.312s-1.248,2.982-1.248,2.367-1.466-22.605-1.466-22.605Z" transform="translate(-393.661 -323.219)" fill="#5038a1"/>
        <path id="Trazado_102237" data-name="Trazado 102237" d="M410.451,392.009l5.727-.913h22.908v.913l-2.411,1.277v-1.277Z" transform="translate(-403.518 -363.068)" fill="#5038a1"/>
        <path id="Trazado_102238" data-name="Trazado 102238" d="M432.68,380.368h9.189c-2.223-3.24-1.4-5.942,0-8.54H432.68A9.132,9.132,0,0,0,432.68,380.368Z" transform="translate(-415.946 -351.756)" fill="#5038a1"/>
      </g>
      <g id="Grupo_55106" data-name="Grupo 55106" transform="translate(908.954 340.015)">
        <rect id="Rectángulo_31220" data-name="Rectángulo 31220" width="89.048" height="16.179" transform="translate(109.539)" fill="#ffebad"/>
        <rect id="Rectángulo_31221" data-name="Rectángulo 31221" width="89.048" height="16.179" transform="translate(0.634)" fill="#ffebad"/>
        <rect id="Rectángulo_31222" data-name="Rectángulo 31222" width="89.048" height="16.179" transform="translate(108.905 21.034)" fill="#ffebad"/>
        <rect id="Rectángulo_31223" data-name="Rectángulo 31223" width="89.048" height="16.179" transform="translate(0 21.034)" fill="#ffebad"/>
      </g>
      <path id="Trazado_102239" data-name="Trazado 102239" d="M437.215,156.047V258.726h-54.62c-.169-24.381-15.133-27.9-21.82-27.9-24.1,0-25.353,24.044-25.268,27.9H292.514c-.169-24.381-15.133-27.9-21.82-27.9-24.1,0-25.367,24.044-25.282,27.9H196.606l-.957-102.679Z" transform="translate(689.44 66.182)" fill="#d8ccff"/>
      <path id="Trazado_102240" data-name="Trazado 102240" d="M581.437,404.711v.408H534.363a3.113,3.113,0,0,1-.014-.408Z" transform="translate(490.597 -79.802)" fill="#684239"/>
      <path id="Trazado_102241" data-name="Trazado 102241" d="M363.265,404.711v.408H316.177a3.189,3.189,0,0,1-.014-.408Z" transform="translate(618.688 -79.802)" fill="#684239"/>
      <path id="Trazado_102242" data-name="Trazado 102242" d="M780.661,258.727l45.485-10.9V169.347l-45.485-13.3Z" transform="translate(345.993 66.182)" fill="#d8ccff"/>
      <path id="Trazado_102243" data-name="Trazado 102243" d="M656.109,382.053l45.486-.086v8.339l-54.62.97a38.255,38.255,0,0,0-.991-9.45Z" transform="translate(425.058 -66.366)" fill="#eabd9b"/>
      <path id="Trazado_102244" data-name="Trazado 102244" d="M195.647,388.483v7.909L437.219,398.3,482.7,387.647v-9.325l-46.432,10.162Z" transform="translate(689.44 -64.31)" fill="#ce8d2e"/>
      <path id="Trazado_102245" data-name="Trazado 102245" d="M611.719,331.6l-.805-6.019,38.682.1,1.466,22.606-15.522-.118-.094,4.382,11.037.085-2.412,2.19-17.807.088S626.387,338.482,611.719,331.6Z" transform="translate(445.647 -33.344)" fill="#a59bce"/>
      <path id="Trazado_102246" data-name="Trazado 102246" d="M428.191,383.189h44.982a35.926,35.926,0,0,0-1.147,8.887H429.034A47.538,47.538,0,0,0,428.191,383.189Z" transform="translate(552.919 -67.167)" fill="#eabd9b"/>
      <path id="Trazado_102247" data-name="Trazado 102247" d="M780.661,379.91l45.485-1.589-45.485,9.927Z" transform="translate(345.993 -64.31)" fill="#edb388"/>
      <path id="Trazado_102248" data-name="Trazado 102248" d="M261.8,390.675l-39.077,5.061h38.644A26.67,26.67,0,0,1,261.8,390.675Z" transform="translate(673.546 -71.562)" fill="#eabd9b"/>
      <path id="Trazado_102249" data-name="Trazado 102249" d="M393.128,331.6l-.805-6.019,38.682.1,1.465,22.606-15.522-.118-.094,4.382,11.037.085-2.412,2.19-17.807.088S407.8,338.482,393.128,331.6Z" transform="translate(573.976 -33.344)" fill="#a59bce"/>
      <path id="Trazado_102250" data-name="Trazado 102250" d="M196.291,255.524c-.01-1.094,59.738-49.02,58.78-47.582s-29.707,45.047-29.707,45.047,21.005-10.323,20.047-8.886-30.6,44.1-30.6,44.1l-19.169.234Z" transform="translate(689.44 35.736)" fill="#fdfcff"/>
      <path id="Trazado_102251" data-name="Trazado 102251" d="M418.477,240.716l84.343-84.669h18.69c-1.437,0-100.706,89.1-100.706,89.1Z" transform="translate(558.622 66.182)" fill="#fdfcff"/>
      <path id="Trazado_102252" data-name="Trazado 102252" d="M631.254,236.957l61.694-80.91v19.291s-24.478,27.177-22.56,25.26,22.56-13.04,22.56-13.04V196.5Z" transform="translate(433.706 66.182)" fill="#fff2e1"/>
      <path id="Trazado_102253" data-name="Trazado 102253" d="M237.427,175.338l26.837-19.291H249.892Z" transform="translate(664.911 66.182)" fill="#fdfcff"/>
      <path id="Trazado_102254" data-name="Trazado 102254" d="M433.022,325.642l9.1-.065-21.316,19.1-2.326-4.432Z" transform="translate(558.622 -33.344)" fill="#b9b3e0"/>
      <path id="Trazado_102255" data-name="Trazado 102255" d="M639.538,325.681l8.252.021-16.536,10.844Z" transform="translate(433.706 -33.405)" fill="#b9b3e0"/>
      <rect id="Rectángulo_31224" data-name="Rectángulo 31224" width="99.2" height="21.565" transform="translate(956.73 230.738)" fill="#3a2c69"/>
      <g id="Grupo_55108" data-name="Grupo 55108" transform="translate(1188.316 195.149)">
        <g id="Grupo_55107" data-name="Grupo 55107" transform="translate(0 0)">
          <path id="Trazado_102415" data-name="Trazado 102415" d="M19.662,0A19.662,19.662,0,1,1,0,19.662,19.662,19.662,0,0,1,19.662,0Z" transform="matrix(0.211, -0.977, 0.977, 0.211, 0, 38.437)" fill="#fff"/>
          <path id="Trazado_102256" data-name="Trazado 102256" d="M958.345,138.686a19.868,19.868,0,1,1,19.869-19.868A19.891,19.891,0,0,1,958.345,138.686Zm0-39.324A19.456,19.456,0,1,0,977.8,118.818,19.478,19.478,0,0,0,958.345,99.362Z" transform="translate(-934.974 -95.446)" fill="#8c6df2"/>
        </g>
        <path id="Trazado_102257" data-name="Trazado 102257" d="M973.865,115.088a9.212,9.212,0,0,0-.921,1.622q-.426.807-.856,1.612-.921,1.725-1.859,3.441t-1.9,3.417q-.39.691-.773,1.385c-.206-2.526-.545-5.02-.9-7.536-.21-1.5-.5-2.991-.606-4.5-.089-1.253.11-2.792-.407-3.953-.071-.159-.282-.085-.332.043-.465,1.2-.106,2.813-.062,4.077.05,1.455-.019,2.906-.006,4.36.023,2.544.063,5.064.242,7.6a1.49,1.49,0,0,0-.312.254,2.167,2.167,0,0,0-.571,1.374,24.909,24.909,0,0,0-2.563,1.224c-1.021.5-2.021,1.032-3.067,1.484l-6.4,2.769c-.513.222-.141,1.124.384.912l6.463-2.609c1.057-.427,2.135-.768,3.211-1.141a21.7,21.7,0,0,0,2.813-1.042l.119.092a1.938,1.938,0,0,0,.985.266,2.005,2.005,0,0,0,1.951-1.951q-.035-.26-.07-.519a1.943,1.943,0,0,0-.5-.861l-.063-.049q.421-.725.83-1.455.954-1.708,1.892-3.424t1.867-3.437q.432-.8.859-1.61a8.885,8.885,0,0,0,.821-1.681C974.18,115.1,973.973,114.958,973.865,115.088Z" transform="translate(-943.108 -102.217)" fill="#5038a1"/>
        <path id="Trazado_102258" data-name="Trazado 102258" d="M982.73,101.484a5.066,5.066,0,0,1-.04-.564c0-.092,0-.186,0-.279,0-.047,0-.093,0-.14a.674.674,0,0,0-.327-.574.6.6,0,0,0-.621,0,.672.672,0,0,0-.327.588c0,.056.007.112.012.168a4.45,4.45,0,0,0,.066.454c.02.1.048.208.078.31.016.054.033.107.051.159s.03.079.047.119a.565.565,0,0,0,.244.275.543.543,0,0,0,.732-.192.576.576,0,0,0,.076-.223.888.888,0,0,0-.014-.249Z" transform="translate(-960.184 -95.97)" fill="#5038a1"/>
        <path id="Trazado_102259" data-name="Trazado 102259" d="M989.436,188.328a.655.655,0,0,0-.474-.31.613.613,0,0,0-.546.178.824.824,0,0,0-.219.5c0,.059-.007.118-.007.178q0,.179,0,.357c0,.119.007.238.012.357,0,.059,0,.119.01.178a.74.74,0,0,0,.147.384c.036.087.071.175.114.258s.105.187.15.285a.339.339,0,0,0,.614-.081c.045-.173.113-.342.172-.512a.674.674,0,0,0,.109-.334c0-.059,0-.119,0-.178,0-.111,0-.223.006-.334A1.57,1.57,0,0,0,989.436,188.328Z" transform="translate(-964.159 -147.733)" fill="#5038a1"/>
        <path id="Trazado_102260" data-name="Trazado 102260" d="M1028.65,139.216a2.785,2.785,0,0,0-.7-.2,4.809,4.809,0,0,0-.775-.051c-.422-.012-.846-.007-1.269-.008l.019.014a.815.815,0,0,0-.751.406.854.854,0,0,0,.732,1.275c.423-.026.847-.046,1.269-.083a4.945,4.945,0,0,0,.775-.085,2.91,2.91,0,0,0,.7-.231A.609.609,0,0,0,1028.65,139.216Z" transform="translate(-985.808 -118.936)" fill="#5038a1"/>
        <path id="Trazado_102261" data-name="Trazado 102261" d="M942.52,148.113a1.285,1.285,0,0,0-.507-.148,2.13,2.13,0,0,0-.388.056l-.448.073c-.312.051-.617.112-.925.185a6.112,6.112,0,0,0-.949.337c-.039.019-.043.019-.012,0l-.106.04c-.082.031-.165.061-.245.1s-.15.071-.226.109c-.04.02-.042.021,0,0a.614.614,0,0,0-.143.065.438.438,0,0,0-.155.594c.22.317.622.317.975.342a7.645,7.645,0,0,0,.976.063c.327-.018.65-.041.976-.083l.451-.058.225-.029a1.1,1.1,0,0,0,.68-.3A.861.861,0,0,0,942.52,148.113Z" transform="translate(-934.899 -124.222)" fill="#5038a1"/>
      </g>
      <g id="Grupo_55115" data-name="Grupo 55115" transform="translate(1049.983 203.437)">
        <g id="Grupo_55112" data-name="Grupo 55112">
          <path id="Trazado_102262" data-name="Trazado 102262" d="M689.758,148.034c-1.109-.956-.838-11.289-.854-18.48s2.507-15.454,9.38-16.282,12.427-.837,15.135,10.569c2.928,12.332,1.707,24.065,1.192,23.753-1.151-.7-2.077-1.395-3.123-1.986-.268-.152-.545-2.809-.835-2.945s.076,2.412-.246,2.3a20.821,20.821,0,0,0-7.221-.957c-4.558.133-8.48,2.361-10.943,3.508-.158.074-.338-1.779-.484-1.715-.211.092-.38,2.1-.565,2.163C690.523,148.205,690.033,148.272,689.758,148.034Z" transform="translate(-650.111 -111.957)" fill="#12263f"/>
          <path id="Trazado_102263" data-name="Trazado 102263" d="M715.236,708.617c0-.2-1.166-.766-1.166-.766l.185-3.565a5.287,5.287,0,0,1,.981-.372A38.266,38.266,0,0,1,715.236,708.617Z" transform="translate(-664.896 -458.893)" fill="#364456"/>
          <path id="Trazado_102264" data-name="Trazado 102264" d="M732.952,707.173l1.088-1.267-.544-3.812s-.855,2.959-.9,3.193A13.635,13.635,0,0,0,732.952,707.173Z" transform="translate(-675.769 -457.825)" fill="#364456"/>
          <path id="Trazado_102265" data-name="Trazado 102265" d="M671.086,373.405a34.115,34.115,0,0,0-6.151,25.28c2.018,13.027,7.769,42.473,11.562,42.589s6.751-1.01,8.559-8.336,3.158-28.309,3.234-34.253-.3-26.043-4.808-29.424S672.281,371.925,671.086,373.405Z" transform="translate(-635.815 -261.832)" fill="#f4a690"/>
          <path id="Trazado_102266" data-name="Trazado 102266" d="M670.669,206.286s-11.792,3.287-13.856,9.051-8.723,32.967-7.168,36.816c2.04,5.05,5.157,3.541,7.8-.141,2.468-3.442,4.487-8.792,5.668-12.146,2.446-6.94,3.48-19.364,4.855-23.784S670.669,206.286,670.669,206.286Z" transform="translate(-626.937 -166.748)" fill="#ffb89f"/>
          <path id="Trazado_102267" data-name="Trazado 102267" d="M658.8,256.964c-.212.233-8.452-11.958-6.88-14.464s2.818-29.913,13.433-27.624c9.869,2.128.376,24.08-1.057,30.026S661.781,253.676,658.8,256.964Z" transform="translate(-628.292 -171.711)" fill="#ffebad"/>
          <g id="Grupo_55109" data-name="Grupo 55109" transform="translate(9.929 53.232)">
            <path id="Trazado_102268" data-name="Trazado 102268" d="M621.176,239.451c1.371,2.205,5.864,10.135,8.1,12.583.7.758,1.6,1.812,2.557,3.057a46.429,46.429,0,0,1,4.658,7.149c2.091,3.351,3.462,6.936,2.625,9.494-.159.488-2.382,4.258-5.092,2.858-3.4-1.755-6.556-6.4-8.351-10.146-.284-.593-5.956-14.711-6.64-19.748C619.567,243.406,619.392,240.435,621.176,239.451Z" transform="translate(-619.029 -239.451)" fill="#ffb89f"/>
          </g>
          <g id="Grupo_55110" data-name="Grupo 55110" transform="translate(0 40.426)">
            <path id="Trazado_102269" data-name="Trazado 102269" d="M611.25,228.2a19.746,19.746,0,0,1-1.359-4.268,24.262,24.262,0,0,0-2.518-6.489,38.218,38.218,0,0,0-9.647-8.04c-1.277-.659-2.262-1.192-2.569-.866-.393.416-.059,1.33.34,1.762.248.268,4.153,3.627,4.153,3.627s-.4-.454-.958.418-.147,1.2-.147,1.2-1.027.265-.638,1.6c.234.8,1.368,1.48,1.368,1.48s-.974.142-1.018.893.487,2.533,1.111,2.875a51.249,51.249,0,0,1,4.866,4.049c.315.424,2.047,5.45,2.047,5.45Z" transform="translate(-594.983 -208.438)" fill="#ffb89f"/>
            <path id="Trazado_102270" data-name="Trazado 102270" d="M614.047,228.361c-1.952.425-3.133-1.482-4.53-2.115a8.292,8.292,0,0,1-2.731-1.925c-.577-.9-1.219-2.258-.579-2.038s3,.9,3.59,1.093,2.844.065,4.116,2.181C614.295,226.192,614.888,228.177,614.047,228.361Z" transform="translate(-601.416 -216.551)" fill="#ffb89f"/>
            <path id="Trazado_102271" data-name="Trazado 102271" d="M604.409,233.144c1.443-.254,3.64.308,3.537.716s-.474,1.153-1.809,1.2a16.8,16.8,0,0,1-2.5.193,1.022,1.022,0,0,1-.581-1.536C603.48,233.278,603.709,233.268,604.409,233.144Z" transform="translate(-599.619 -222.905)" fill="#ffb89f"/>
            <path id="Trazado_102272" data-name="Trazado 102272" d="M607.214,227.634c.635.612,1.14,1.3.262,1.48a10.352,10.352,0,0,1-4.058-.836c-1.056-.639-1.214-1.084-1.208-1.992C602.218,225.3,604.315,224.843,607.214,227.634Z" transform="translate(-599.226 -218.469)" fill="#ffb89f"/>
            <path id="Trazado_102273" data-name="Trazado 102273" d="M612.784,227.489a.919.919,0,0,1-.907.515,2.427,2.427,0,0,1-1.188-.552c-1.2-.837-2.5-1.544-3.659-2.441a9.16,9.16,0,0,1-1.591-1.527,2.729,2.729,0,0,1-.752-1.968,3.1,3.1,0,0,1,1.42.484,6.583,6.583,0,0,0,1.367.618c.509.142,1.036.2,1.555.3a8,8,0,0,1,1.5.433.03.03,0,0,0,.03-.05,3.008,3.008,0,0,0-1.447-.555c-.527-.1-1.063-.153-1.582-.3a7.329,7.329,0,0,1-1.464-.671,2.834,2.834,0,0,0-1.451-.408.075.075,0,0,0-.064.062,2.868,2.868,0,0,0,.833,2.211,1.6,1.6,0,0,0-.585-.321,3.654,3.654,0,0,0-.575-.133,2.518,2.518,0,0,0-.646-.045c-.012,0-.018.021,0,.024.2.032.4.034.6.065a3.881,3.881,0,0,1,.552.124,1.741,1.741,0,0,1,.837.543c.006.007.016,0,.013-.01a.783.783,0,0,0-.07-.1,13.225,13.225,0,0,0,2.956,2.395c0,.16.16.327.082.481-.087.171-.377.166-.538.177a4.433,4.433,0,0,1-1.319-.124,7.409,7.409,0,0,1-1.3-.459,10.952,10.952,0,0,0-1.209-.548c-.028-.009-.055.026-.029.047a6.135,6.135,0,0,0,1.39.728,6.562,6.562,0,0,0,1.43.437,3.335,3.335,0,0,0,1.381.01.418.418,0,0,0,.325-.268.609.609,0,0,0-.081-.394l.633.4c.34.216.679.432,1.013.657a7.761,7.761,0,0,0,1.029.656,1.4,1.4,0,0,0,.989.113.8.8,0,0,0,.6-.587A.038.038,0,0,0,612.784,227.489Z" transform="translate(-600.02 -216.029)" fill="#e08970"/>
            <path id="Trazado_102274" data-name="Trazado 102274" d="M604.019,236.361a2.772,2.772,0,0,1,.608.041q.31.025.621.035a12.465,12.465,0,0,0,1.291-.022,2.8,2.8,0,0,0,1.082-.249,1.426,1.426,0,0,0,.444-.349c.067-.081.327-.446.209-.554-.06-.055.018-.155.08-.1.117.1.066.259.02.389a1.275,1.275,0,0,1-.326.487,1.977,1.977,0,0,1-1.074.482,8.668,8.668,0,0,1-1.46.075q-.366,0-.731-.027a2.588,2.588,0,0,1-.78-.095A.06.06,0,0,1,604.019,236.361Z" transform="translate(-600.258 -224.118)" fill="#e08970"/>
          </g>
          <path id="Trazado_102275" data-name="Trazado 102275" d="M695.707,148.656c-.362-1.074-1.69-2.077-2.077-1.394-.787,1.394,1.217,6.6,2.077,6.611S695.987,149.489,695.707,148.656Z" transform="translate(-652.791 -131.965)" fill="#f4a690"/>
          <path id="Trazado_102276" data-name="Trazado 102276" d="M728.063,428.892c.1,2.474.191,5.077.227,7.779.322,24.344,2.092,30.451,4.835,32.986,2.081,1.931,8.524-9.947,11.142-18.029.548-1.678,3.04-12.6,4.761-23.31,1.1-6.845,1.787-12.957,1.441-18.429-.727-11.542-2.725-17.228-2.725-17.228s-6.94,7.384-10,8.588c-4.334,1.7-8.215,1.487-9.527,5.922a15.736,15.736,0,0,0-.441,2.128C727.157,413.778,727.706,420.632,728.063,428.892Z" transform="translate(-672.777 -276.164)" fill="#e08970"/>
          <path id="Trazado_102277" data-name="Trazado 102277" d="M736.33,567.156c-1.464,9.243-3.326,15.436-4.465,25.1-.434,3.682-3.932,2.137-5.274-4.9-.448-2.347-1.329-30.088-1.089-41.181.413-19.075,11.245-34.573,13.984-19.85S738.349,554.406,736.33,567.156Z" transform="translate(-671.584 -351.204)" fill="#f4a690"/>
          <path id="Trazado_102278" data-name="Trazado 102278" d="M661.213,273.575a7.17,7.17,0,0,0,.137.975c1.813,9.025,18.339,6.644,20.688,1.486a5.6,5.6,0,0,1,1.4-2.023c1.508-1.277,3.345-.457,5.359,1.425a36.719,36.719,0,0,1,3.6,4.047c4.108,5.2,20.091-.944,19.054-9.365a54.756,54.756,0,0,0-2.677-11.32c-1.312-3.831-2.951-7.545-4.7-11.462-3.393-7.582-3.178-15.552-.143-24.01.632-1.758,8.5-28.742,3.535-33.023-5.24-4.516-9.98-7.68-12.484-10.049-.161-.154-.316-.308-.459-.457a7.051,7.051,0,0,1-1.067-1.345c-.131-.228-.25-.462-.363-.7v-.012c-.125-.241-.239-.481-.34-.728a18.442,18.442,0,0,1-1.055-10.136c.912-4.066-12.168-2.289-11.334,2.986.572,3.578.525,5.959-.066,7.964a11.174,11.174,0,0,1-.984,2.326.918.918,0,0,1-.107.148,4.459,4.459,0,0,1-.584.617c-1.932,1.8-6.987,5.3-6.987,5.3s-3.212,29.24-1.381,36.8c1.108,4.589,2.4,5.277,2.319,10.608-.05,3.448-1.755,9.292-3.6,11.929C664.266,252.28,660.426,263.421,661.213,273.575Z" transform="translate(-633.804 -142.303)" fill="#f4a690"/>
          <path id="Trazado_102279" data-name="Trazado 102279" d="M720.641,171.722s-1.75,4.9-3.979,6.547c-5.091,3.76-7.568-2.6-7.568-2.6Z" transform="translate(-661.975 -146.456)" fill="#e08970"/>
          <path id="Trazado_102280" data-name="Trazado 102280" d="M750.261,207.228s11.792,3.287,13.856,9.05,8.722,32.967,7.168,36.816c-3.946,9.771-11.019-5.346-13.465-12.287s-3.48-19.364-4.855-23.784S750.261,207.228,750.261,207.228Z" transform="translate(-686.143 -167.301)" fill="#ffb89f"/>
          <path id="Trazado_102281" data-name="Trazado 102281" d="M715.008,129a19.636,19.636,0,0,1-2.525,8.114c-.928,1.645-6.2,8.364-11.017,3.721a20.105,20.105,0,0,1-6.169-10.694c-.122-.7.26-1.78.129-2.591-.379-2.337-.958-5.5-.332-7.825,1.21-4.489,3.046-5.641,4.889-6.812,3.811-2.421,9.726-3.182,13.757,2.51,2.024,2.858,1.809,7.843,1.656,10.98C715.352,127.308,715.07,128.368,715.008,129Z" transform="translate(-653.593 -110.859)" fill="#f4a690"/>
          <path id="Trazado_102282" data-name="Trazado 102282" d="M717.743,274.909a18.742,18.742,0,0,1-.479-2.777,26.174,26.174,0,0,1,.178-5.424c.01-.089-.125-.1-.15-.02a13.876,13.876,0,0,0-.49,5.6c.053.54.138,1.076.241,1.608-.178.619-.4,1.224-.624,1.826-.131.353-.277.7-.433,1.045a3.464,3.464,0,0,0-.417.979.11.11,0,0,0,.164.094,2.4,2.4,0,0,0,.618-.9,9.4,9.4,0,0,0,.48-1.064,6.929,6.929,0,0,0,.349-1.351c.034.145.057.291.1.434a9.866,9.866,0,0,0,1,2.669.156.156,0,0,0,.284-.12C718.324,276.63,717.963,275.793,717.743,274.909Z" transform="translate(-665.775 -202.178)" fill="#ba7261"/>
          <g id="Grupo_55111" data-name="Grupo 55111" transform="translate(49.241 97.787)">
            <path id="Trazado_102283" data-name="Trazado 102283" d="M716.146,348.39a.987.987,0,0,0-.043-.249c0-.006-.008-.033-.014-.036s.013.11,0-.011a.44.44,0,0,0-.077-.186,1.337,1.337,0,0,0-.379-.375,1.063,1.063,0,0,0-.423-.166,1.111,1.111,0,0,0-.362,0,.67.67,0,0,0-.085.017l-.046.015-.018.007-.023.01-.012,0h.005c-.07.03-.082.035-.009,0a.421.421,0,0,0-.092.016.747.747,0,0,0-.2.141.427.427,0,0,0-.112.423,2.527,2.527,0,0,0,.239.56,1.515,1.515,0,0,0,.119.168.507.507,0,0,0,.038.042c-.052-.05-.008-.009.006.009a.858.858,0,0,0,.128.142c-.024-.021-.009-.01,0,.008s.03.041.045.061a1.218,1.218,0,0,0,.146.146c.015.009.014.01,0,0l.019.023c.011.016.026.031.038.045.059.069.13.121.19.19a2.829,2.829,0,0,0,.4.37c.1.079.276-.021.193-.149s-.18-.288-.268-.432a2.074,2.074,0,0,1-.107-.235l-.026-.055c-.005-.012-.013-.042-.015-.039l0-.017a.367.367,0,0,0-.025-.094.509.509,0,0,0-.044-.11c.008.012,0,.048,0,0s-.009-.081-.019-.121a.37.37,0,0,0-.021-.071c-.006-.021-.006-.019,0,.007s0,.028,0-.03a1.212,1.212,0,0,0-.031-.153c-.01-.038-.024-.076-.035-.114l.038.01c-.005,0,0,0-.01-.006a.072.072,0,0,0,.013.007h0l.048.024c.021.011.041.024.061.037s.042.05-.007-.008c.029.035.072.062.1.1.014.016.059.073,0-.008a.649.649,0,0,0,.049.045c.015.022.029.044.041.067s.014.042.015.046a.312.312,0,0,0,.112.152c-.04.161.2.28.279.117.013-.028.021-.058.031-.088A.3.3,0,0,0,716.146,348.39Z" transform="translate(-714.233 -347.352)" fill="#ba7261"/>
            <path id="Trazado_102284" data-name="Trazado 102284" d="M716.7,349.327c.038.026.042.016.005,0l0,0Z" transform="translate(-715.678 -348.511)" fill="#ba7261"/>
            <path id="Trazado_102285" data-name="Trazado 102285" d="M715.263,347.509h0Z" transform="translate(-714.837 -347.444)" fill="#ba7261"/>
          </g>
          <path id="Trazado_102286" data-name="Trazado 102286" d="M691.851,566.127c1.463,9.243,3.325,15.436,4.465,25.1.434,3.682,3.932,2.137,5.274-4.9.448-2.347,1.329-30.088,1.089-41.181-.413-19.076-11.244-34.573-13.985-19.85S689.831,553.377,691.851,566.127Z" transform="translate(-649.442 -350.6)" fill="#f4a690"/>
          <path id="Trazado_102287" data-name="Trazado 102287" d="M690.451,694.967c3.056.733,8.407-3.521,9.741-9.858.163-.772,1.719-3.255,2.362-6.461.621-3.094.346-6.917-.486-7.561-1.308-1.015-4.422-.6-5.338,4.239-.214,1.131-.894,3.048-1.211,4.193C692.9,688.979,687.361,694.226,690.451,694.967Z" transform="translate(-650.495 -439.357)" fill="#f4a58c"/>
          <path id="Trazado_102288" data-name="Trazado 102288" d="M665.627,367.11c-.431,1.455-1.4,2.139-4.6,15.908s6.647,61.252,7.438,61.308a24.47,24.47,0,0,0,3.087-.043c.51-.034-.249-18.941.352-18.983.993-.069,2.139,19.139,3.323,19.055,9.476-.666,26.853-2.137,28.125-.709,1.839,2.064,6.824-26.508,7.166-30.43s3.316-24.713-1.65-35.715-5.147-12.346-5.147-12.346Z" transform="translate(-633.379 -260.017)" fill="#ffb74d"/>
          <path id="Trazado_102289" data-name="Trazado 102289" d="M674.331,428.1l-.992-4.715c-.648-3.085-1.309-6.168-1.9-9.264a86.853,86.853,0,0,1-1.925-18.52,49.028,49.028,0,0,1,1.163-9.345,11.641,11.641,0,0,0,1.833-1.294,10.585,10.585,0,0,0,2.345-2.813,8.471,8.471,0,0,0,.808-3.452c.009-.138-.192-.153-.231-.031a6.191,6.191,0,0,1-.717,1.6c-.3.445-.61.9-.89,1.36a10.815,10.815,0,0,1-2.114,2.541,12.024,12.024,0,0,1-5.964,2.691c-.389.068-.266.632.089.655a8.438,8.438,0,0,0,4.283-.948,50.915,50.915,0,0,0-.864,16.995,168.569,168.569,0,0,0,3.194,18.57q.56,2.669,1.12,5.338.289,1.38.579,2.758a11,11,0,0,0,.674,2.595c.088.181.352.081.359-.1a9.5,9.5,0,0,0-.36-2.307Q674.574,429.261,674.331,428.1Z" transform="translate(-636.384 -267.903)" fill="#3b3348"/>
          <path id="Trazado_102290" data-name="Trazado 102290" d="M762.448,386.844c-.548-.2-.911-.663-1.465-.851-.519-.176-1.052-.306-1.568-.494a14.426,14.426,0,0,1-2.842-1.421,17.717,17.717,0,0,1-4.825-4.5.038.038,0,0,0-.069.009,1.992,1.992,0,0,0,.359,1.584,11.8,11.8,0,0,0,3.633,3.885,16.036,16.036,0,0,0,3.173,1.71c.173.071.353.136.531.2a55.014,55.014,0,0,1,1.717,11.414,86.752,86.752,0,0,1-.457,12.289c-.415,4.142-1.028,8.26-1.655,12.374q-.986,6.461-2.045,12.91c-.792,4.842-1.638,9.675-2.41,14.52-.055.349.475.5.538.148,1.539-8.667,2.945-17.366,4.27-26.068,1.253-8.229,2.553-16.54,2.314-24.891a49.411,49.411,0,0,0-1.8-12.532,6.669,6.669,0,0,0,.694.2,6.334,6.334,0,0,0,1.869-.2A.145.145,0,0,0,762.448,386.844Z" transform="translate(-686.944 -268.472)" fill="#3b3348"/>
          <path id="Trazado_102291" data-name="Trazado 102291" d="M712.246,115.63a9.967,9.967,0,0,0-11.311-4.742,9.05,9.05,0,0,0-6.4,3.164c-2.651,3.174-3.563,8.964-3.477,10.426.9,15.284,4,19.881,4,19.881,1.354.609-3.616-13.178-.31-18.92,2.2-3.83,6.957-8.524,7.324-9.085a5.282,5.282,0,0,0-.064,1.182,4.633,4.633,0,0,0,.639,2.16c.855,1.415,2.526,2,4.02,2.479.036.011.049-.042.015-.055a7.023,7.023,0,0,1-3.747-2.534,4.548,4.548,0,0,1-.64-2.05,5.4,5.4,0,0,1,.02-.964c.2.3.415.6.617.889q.56.794,1.157,1.56a31.316,31.316,0,0,0,2.451,2.84,43.552,43.552,0,0,0,3.349,3.581c2.306,2.226,3.487.74,3.828-.763A12.118,12.118,0,0,0,712.246,115.63Z" transform="translate(-651.384 -110.535)" fill="#12263f"/>
          <path id="Trazado_102292" data-name="Trazado 102292" d="M742.052,147.8c.361-1.074,1.69-2.077,2.076-1.394.787,1.394-1.217,6.6-2.076,6.61S741.772,148.634,742.052,147.8Z" transform="translate(-681.058 -131.463)" fill="#f4a690"/>
          <path id="Trazado_102293" data-name="Trazado 102293" d="M702.245,682.787c-.03-.765.086-3.221-.434-3.821a76.5,76.5,0,0,1-4.011,9.926c-1.241,2.25-3.663,5.228-5.98,4.508-1.055-.328,1.19-4.1,1.68-5.988.141-.544-.588,1.166-1.586,3.076-1.677,3.21-4.073,7.638-4.073,7.638a5.36,5.36,0,0,0,0,1.858c.211.4,2.339,1.161,4.52.335a15.884,15.884,0,0,0,5.445-3.983c.679-.8,1.164-6.006,1.371-6.341s.618,2.157.605,3.976a6.5,6.5,0,0,0,1.4-.415c.162-.592.574-5.576.659-6.2A43.394,43.394,0,0,0,702.245,682.787Z" transform="translate(-649.443 -444.247)" fill="#3a2c69"/>
          <path id="Trazado_102294" data-name="Trazado 102294" d="M740.924,694.244c-3.056.733-8.407-3.521-9.741-9.858-.163-.772-1.719-3.255-2.362-6.461-.621-3.094-.346-6.917.486-7.561,1.189-.922,3.643.129,4.82,3.364,1.032,2.835,1.313,3.565,1.729,5.068C738.472,688.256,744.014,693.5,740.924,694.244Z" transform="translate(-673.357 -439.008)" fill="#f4a58c"/>
          <path id="Trazado_102295" data-name="Trazado 102295" d="M726.872,682.348c.03-.765,0-2.818.4-3.383,0,0,2.432,6.154,4.3,9.551,1.24,2.25,3.663,5.228,5.98,4.508,1.055-.328-1.19-4.1-1.68-5.988-.141-.544.588,1.165,1.586,3.076,1.677,3.21,4.073,7.638,4.073,7.638a5.36,5.36,0,0,1,0,1.858c-.211.405-2.339,1.161-4.52.335a15.888,15.888,0,0,1-5.445-3.983c-.679-.8-1.191-6.021-1.4-6.356s-.59,2.172-.578,3.991a6.517,6.517,0,0,1-1.4-.414c-.162-.592-.574-5.577-.659-6.2A39.137,39.137,0,0,1,726.872,682.348Z" transform="translate(-672.411 -444.247)" fill="#3a2c69"/>
          <path id="Trazado_102296" data-name="Trazado 102296" d="M744.011,159.243a.744.744,0,1,1-.721-.928A.844.844,0,0,1,744.011,159.243Z" transform="translate(-681.626 -138.586)" fill="#f2e7e1"/>
          <path id="Trazado_102297" data-name="Trazado 102297" d="M766.952,259.915a22.422,22.422,0,0,1,6.826-10.473c1.885-1.623,1.416-2.531-.156-5.037s-2.786-30.809-13.5-28.551c-9.879,2.081-.377,24.08,1.057,30.026S765.345,261.672,766.952,259.915Z" transform="translate(-689.326 -172.29)" fill="#ffebad"/>
          <path id="Trazado_102298" data-name="Trazado 102298" d="M683.238,202.37c-.231.6,6.844,19.038,6.844,19.038l8.679-20.069s15.445,5.933,14.131,7.006c-1.42,1.16-5.454,7.043-4.627,11.713.755,4.265,2.944,9.389,1.191,20.181a58.631,58.631,0,0,0,.433,22.117c1.383,6.627,3.887,12.782,1.951,14.058-3.637,2.4-14.816,3.893-20.817,1.546-2.459-.962-.836-9.559-.836-9.559s-.513,9.167-2.024,9.559-14.985.025-17.767-1.564-2.975-2.131-2.453-4.185c1.327-5.218,4.809-13.178,5.674-18.031,1.463-8.2-.793-14.11-1.542-19.379s.07-9.908,1.543-15.2c1.129-4.052-2.833-11.935-2.833-11.935Z" transform="translate(-637.682 -163.844)" fill="#3a2c69"/>
          <path id="Trazado_102299" data-name="Trazado 102299" d="M721.884,219.855s7.486-18.808,7.826-19.476-.582-2.3-.582-2.3a64.531,64.531,0,0,1,5.759,3.344c.736.688-1.112,5.216-1.675,5.629s-5.527,1.352-5.158,1.4,4.48-.7,4.255,0S721.884,219.855,721.884,219.855Z" transform="translate(-669.483 -161.932)" fill="#ffebad"/>
          <path id="Trazado_102300" data-name="Trazado 102300" d="M704.062,220.368s-6.552-18.437-6.859-19.1.694-2.175.694-2.175-5.338,3.243-6.106,3.867,1.044,4.113,1.587,4.538,5.453,1.581,5.082,1.607-4.439-.905-4.25-.218S704.062,220.368,704.062,220.368Z" transform="translate(-651.707 -162.528)" fill="#ffebad"/>
          <rect id="Rectángulo_31225" data-name="Rectángulo 31225" width="9.645" height="3.506" transform="translate(37.824 57.276)" fill="#ffb74d"/>
          <path id="Trazado_102413" data-name="Trazado 102413" d="M0,0H8.781V2.347H0Z" transform="translate(38.276 57.84)" fill="#ffdc72"/>
          <path id="Trazado_102301" data-name="Trazado 102301" d="M697.548,251.728c-.2-.148-.448-.069-.678-.052q-.466.035-.933.043c-.6.009-1.208,0-1.812,0s-1.211,0-1.817,0a13.247,13.247,0,0,0-1.829.068.047.047,0,0,0,0,.09,15.349,15.349,0,0,0,1.829.069c.629.012,1.258.024,1.887.04s1.254.048,1.881.041c.308,0,.617-.015.924-.04.21-.017.416,0,.558-.175A.053.053,0,0,0,697.548,251.728Z" transform="translate(-651.027 -193.375)" fill="#3a2c69"/>
          <path id="Trazado_102302" data-name="Trazado 102302" d="M698.23,253.718a2.387,2.387,0,0,1-.644.04l-.591.021-1.28.047a16.475,16.475,0,0,0-2.484.176c-.1.019-.061.148.021.158a18.2,18.2,0,0,0,2.758-.011l1.379-.047c.23-.008.46-.012.689-.024.14-.008.249,0,.323-.138C698.46,253.833,698.361,253.671,698.23,253.718Z" transform="translate(-652.627 -194.59)" fill="#3a2c69"/>
        </g>
        <path id="Trazado_102303" data-name="Trazado 102303" d="M617.78,240.544a9.732,9.732,0,0,0-1.552-1.186c-.015-.009-.033.014-.019.025.5.394,1.017.756,1.481,1.191a5.624,5.624,0,0,1,1.16,1.5c.005.01.023,0,.019-.008A4.289,4.289,0,0,0,617.78,240.544Z" transform="translate(-607.441 -186.163)" fill="#e08970"/>
        <g id="Grupo_55114" data-name="Grupo 55114" transform="translate(77.136 27.33)">
          <g id="Grupo_55113" data-name="Grupo 55113" transform="translate(0 25.255)">
            <path id="Trazado_102304" data-name="Trazado 102304" d="M791.943,248.859a30.087,30.087,0,0,0,4.1-10.384c.57.054,4.887-.61,5.2-.591-.439,6.321-4.15,23.614-4.49,24.346-2.42,5.164-6.449,10.987-9.872,12.142-1.106.373-2.723-.041-4.047-1.586-1.417-1.653-1.619-4.469.813-8.922,1.694-3.1,4.445-8,5.921-10.8C790.453,251.367,791.291,249.913,791.943,248.859Z" transform="translate(-781.787 -237.883)" fill="#ffb89f"/>
          </g>
          <path id="Trazado_102305" data-name="Trazado 102305" d="M816.288,198.71c.29.247,2.253,1.223,2.253,1.223a7.63,7.63,0,0,0,.66,1.24c.9,1.373-.8,3.009-1.4,3.311s-2.329-.217-2.329-.217a14.868,14.868,0,0,0-.724,1.682c-.454,1.373.109,3.564.378,5.387a25.6,25.6,0,0,1,.132,4.24l4.615.946s.929-3.464,1.2-4.455c.625-2.27,3.527-5.827,3.325-6.534s-.628-3.975-.793-5.043-3.283-2.888-4.587-3.37c-.8-.3-1.62-.145-1.658.087-.049.3.45.645.45.645a3.884,3.884,0,0,0-1.482-.141C815.441,197.894,815.74,198.243,816.288,198.71Z" transform="translate(-801.035 -188.602)" fill="#ffb89f"/>
          <path id="Trazado_102306" data-name="Trazado 102306" d="M802.73,180.689c2.018.168,3.176-4.79,4.394-3.847s9.375,16.642,9.922,17.837-1.533,2.431-3.176,5.265.087-2.236-2.881-8.371C807.238,183.819,799.761,180.443,802.73,180.689Z" transform="translate(-793.682 -176.722)" fill="#ffb74d"/>
          <path id="Trazado_102307" data-name="Trazado 102307" d="M804.906,188.722c2.105.118,3.442-4.942,4.691-4.017s9.37,16.645,9.911,17.844-1.664,2.506-3.454,5.425.149-2.271-2.8-8.42C809.537,191.783,801.81,188.549,804.906,188.722Z" transform="translate(-794.94 -181.342)" fill="#ffdc72"/>
          <path id="Trazado_102308" data-name="Trazado 102308" d="M814.081,191.454c-.171-.024-.268.106-.347.234a9.9,9.9,0,0,1-.647,1.009,3.838,3.838,0,0,1-.822.763,3.667,3.667,0,0,1-.516.3,4.992,4.992,0,0,0-.523.234c-.143.089-.042.305.11.3a2.214,2.214,0,0,0,.875-.351,4.1,4.1,0,0,0,.777-.576,4.045,4.045,0,0,0,.6-.711c.094-.142.181-.287.267-.434l.125-.211.064-.105.036-.057,0-.005a.163.163,0,0,0,.155-.092A.2.2,0,0,0,814.081,191.454Z" transform="translate(-799.029 -185.369)" fill="#5038a1"/>
          <path id="Trazado_102309" data-name="Trazado 102309" d="M815.055,195.973a5.778,5.778,0,0,0-.48.473l-.493.5a5.168,5.168,0,0,1-.939.869c-.162.1-.015.327.149.279a1.282,1.282,0,0,0,.51-.36c.165-.162.327-.327.491-.491l.493-.5a6.106,6.106,0,0,0,.505-.519C815.409,196.075,815.214,195.847,815.055,195.973Z" transform="translate(-800.154 -188.002)" fill="#5038a1"/>
          <path id="Trazado_102310" data-name="Trazado 102310" d="M825.1,205.852c-.241-.445-.512-.875-.772-1.308q-1.592-2.655-3.264-5.263c-.174-.27-.377-.671-.766-.555-.253.076-.5.539-.761.49-.208-.039-.249.26-.056.316a.628.628,0,0,0,.6-.219,1.066,1.066,0,0,1,.275-.23c.178-.069.284.2.362.323.494.778.987,1.557,1.473,2.339s.968,1.568,1.444,2.357q.357.592.711,1.186a5.429,5.429,0,0,1,.644,1.227,2.615,2.615,0,0,1-.6,2.081q-1.717-3.086-3.148-6.319c-.1-.225-.46-.093-.36.134q1.508,3.409,3.336,6.663a.192.192,0,0,0,.3.01,4.166,4.166,0,0,0,.9-2.055A2.209,2.209,0,0,0,825.1,205.852Z" transform="translate(-803.84 -189.628)" fill="#5038a1"/>
          <path id="Trazado_102311" data-name="Trazado 102311" d="M817.174,203.531a11.372,11.372,0,0,1,.53-1.731c.175-.245.434-.15.669.069a4.715,4.715,0,0,1,.78,1.708,5.9,5.9,0,0,1-.279,1.864,1.549,1.549,0,0,0-.021.7,13.086,13.086,0,0,1-.31,3.21c-.69,1.09-1.518.842-2.238,1.057-.493.147-1.489.572-1.479-1.451a3.63,3.63,0,0,1,.831-2.353A14.739,14.739,0,0,0,817.174,203.531Z" transform="translate(-801.183 -191.359)" fill="#ffb89f"/>
        </g>
      </g>
      <g id="Grupo_55116" data-name="Grupo 55116" transform="translate(964.102 234.37)">
        <path id="Trazado_102312" data-name="Trazado 102312" d="M391.746,185.906a6,6,0,0,1,3.98,1.078q1.239,1.078,1.238,3.744,0,2.987-2.136,4.009l1.985,3.763a.629.629,0,0,1,.066.558.451.451,0,0,1-.463.237h-2.534a.917.917,0,0,1-.889-.53l-1.645-3.422h-.567v3.309a.568.568,0,0,1-.643.643h-2.5a.568.568,0,0,1-.643-.643v-12.1a.568.568,0,0,1,.643-.643Zm-.038,6.353a1.431,1.431,0,0,0,1.116-.35,1.812,1.812,0,0,0,.3-1.182,1.84,1.84,0,0,0-.3-1.22,1.483,1.483,0,0,0-1.116-.331h-.926v3.082Z" transform="translate(-387 -185.717)" fill="#fff"/>
        <path id="Trazado_102313" data-name="Trazado 102313" d="M418.033,194.074V196h3.914a.568.568,0,0,1,.643.643v2a.568.568,0,0,1-.643.643h-7.015a.568.568,0,0,1-.643-.643v-12.1a.568.568,0,0,1,.643-.643h6.921a.568.568,0,0,1,.643.643v2a.568.568,0,0,1-.643.643h-3.82v1.721h3.574a.568.568,0,0,1,.643.643v1.872a.568.568,0,0,1-.643.643Z" transform="translate(-403.021 -185.717)" fill="#fff"/>
        <path id="Trazado_102314" data-name="Trazado 102314" d="M444.658,198.24a5.571,5.571,0,0,1-3.375.974,9.769,9.769,0,0,1-3.63-.605,1.068,1.068,0,0,1-.463-.293.6.6,0,0,1-.047-.5l.321-1.8q.133-.681.832-.416a5.853,5.853,0,0,0,2.117.378q1.7,0,1.7-.813a.827.827,0,0,0-.34-.643,8.861,8.861,0,0,0-1.343-.813,10.227,10.227,0,0,1-1.21-.662,6.35,6.35,0,0,1-1-.832,3.232,3.232,0,0,1-.766-1.248,5.129,5.129,0,0,1-.255-1.683,3.534,3.534,0,0,1,1.134-2.931,5.559,5.559,0,0,1,3.5-.908,8.219,8.219,0,0,1,3.1.511.682.682,0,0,1,.491.794l-.321,1.777q-.113.624-.813.435a6.456,6.456,0,0,0-1.967-.283,2.226,2.226,0,0,0-.945.151.575.575,0,0,0-.3.567q0,.737,1.645,1.569.889.473,1.352.785a7,7,0,0,1,.974.813,2.882,2.882,0,0,1,.728,1.144,4.731,4.731,0,0,1,.218,1.513A3.486,3.486,0,0,1,444.658,198.24Z" transform="translate(-416.42 -185.448)" fill="#fff"/>
        <path id="Trazado_102315" data-name="Trazado 102315" d="M465.469,194.074V196h3.914a.568.568,0,0,1,.642.643v2a.568.568,0,0,1-.642.643h-7.015a.568.568,0,0,1-.643-.643v-12.1a.568.568,0,0,1,.643-.643h6.921a.568.568,0,0,1,.642.643v2a.568.568,0,0,1-.642.643h-3.82v1.721h3.573a.568.568,0,0,1,.643.643v1.872a.568.568,0,0,1-.643.643Z" transform="translate(-430.869 -185.717)" fill="#fff"/>
        <path id="Trazado_102316" data-name="Trazado 102316" d="M489.959,185.906a6,6,0,0,1,3.98,1.078q1.239,1.078,1.238,3.744,0,2.987-2.136,4.009l1.985,3.763a.628.628,0,0,1,.066.558.45.45,0,0,1-.463.237H492.1a.917.917,0,0,1-.889-.53l-1.645-3.422h-.567v3.309a.568.568,0,0,1-.643.643h-2.5a.568.568,0,0,1-.643-.643v-12.1a.568.568,0,0,1,.643-.643Zm-.038,6.353a1.431,1.431,0,0,0,1.116-.35,1.812,1.812,0,0,0,.3-1.182,1.84,1.84,0,0,0-.3-1.22,1.483,1.483,0,0,0-1.116-.331h-.926v3.082Z" transform="translate(-444.658 -185.717)" fill="#fff"/>
        <path id="Trazado_102317" data-name="Trazado 102317" d="M514.662,199.293a.784.784,0,0,1-.813-.681l-2.912-11.969a.616.616,0,0,1,.047-.539.529.529,0,0,1,.463-.2h2.723a.674.674,0,0,1,.737.605l1.078,6.221.416,2.685h.076l.4-2.685,1.1-6.221a.674.674,0,0,1,.738-.605h2.7a.53.53,0,0,1,.463.2.614.614,0,0,1,.047.539l-2.912,11.969a.784.784,0,0,1-.813.681Z" transform="translate(-459.739 -185.717)" fill="#fff"/>
        <path id="Trazado_102318" data-name="Trazado 102318" d="M542.7,185.906a.779.779,0,0,1,.851.643l2.95,12.007a.616.616,0,0,1-.047.539.53.53,0,0,1-.463.2h-2.609a.664.664,0,0,1-.719-.605l-.34-1.551h-2.742l-.321,1.551a.705.705,0,0,1-.738.605h-2.591a.529.529,0,0,1-.463-.2.655.655,0,0,1-.066-.539l2.968-12.007a.768.768,0,0,1,.832-.643Zm-.832,8.036-.87-4.33h-.076l-.927,4.33Z" transform="translate(-474.109 -185.717)" fill="#fff"/>
        <path id="Trazado_102319" data-name="Trazado 102319" d="M571.992,198.24a5.57,5.57,0,0,1-3.375.974,9.771,9.771,0,0,1-3.63-.605,1.062,1.062,0,0,1-.463-.293.6.6,0,0,1-.048-.5l.322-1.8q.132-.681.832-.416a5.851,5.851,0,0,0,2.117.378q1.7,0,1.7-.813a.826.826,0,0,0-.341-.643,8.846,8.846,0,0,0-1.342-.813,10.241,10.241,0,0,1-1.21-.662,6.39,6.39,0,0,1-1-.832,3.228,3.228,0,0,1-.766-1.248,5.131,5.131,0,0,1-.255-1.683,3.533,3.533,0,0,1,1.134-2.931,5.558,5.558,0,0,1,3.5-.908,8.216,8.216,0,0,1,3.1.511.682.682,0,0,1,.492.794l-.322,1.777q-.113.624-.813.435a6.458,6.458,0,0,0-1.967-.283,2.226,2.226,0,0,0-.946.151.575.575,0,0,0-.3.567q0,.737,1.645,1.569.888.473,1.352.785a6.991,6.991,0,0,1,.974.813,2.881,2.881,0,0,1,.728,1.144,4.73,4.73,0,0,1,.218,1.513A3.485,3.485,0,0,1,571.992,198.24Z" transform="translate(-491.175 -185.448)" fill="#fff"/>
      </g>
      <g id="man_2" data-name="man 2" transform="translate(1132.663 268.825)">
        <path id="Trazado_102320" data-name="Trazado 102320" d="M861.844,646.431s.537,8.9-1.083,9.024c-.216.017-8.219.017-8.219.017l-10.216-.064a3.491,3.491,0,0,1,3.053-3.2c2.986-.559,8.232-2.608,9.12-7.173S861.844,646.431,861.844,646.431Z" transform="translate(-822.873 -488.706)" fill="#3a2c69"/>
        <path id="Trazado_102321" data-name="Trazado 102321" d="M814.734,646.431s.537,8.9-1.083,9.024c-.216.017-8.218.017-8.218.017l-10.216-.064a3.49,3.49,0,0,1,3.053-3.2c2.986-.559,8.233-2.608,9.12-7.173S814.734,646.431,814.734,646.431Z" transform="translate(-795.216 -488.706)" fill="#3a2c69"/>
        <path id="Trazado_102322" data-name="Trazado 102322" d="M945.839,410.742l8.954,3.087s5.7-11.6,7.084-13.172c1.583-1.8,2.721-15.623,3.437-28.129.626-10.937.93-20.865.93-20.865s-3.047.693-5.037,5.838c-3.41,8.82-3.386,26.042-5.283,34.922C954.832,397.536,947.683,410.015,945.839,410.742Z" transform="translate(-883.643 -317.485)" fill="#f6f6f6"/>
        <path id="Trazado_102323" data-name="Trazado 102323" d="M967.522,443.589c3.413-3.971,5.7-11.6,7.084-13.172,1.583-1.8,9.073-12.007,2.075-28.061-3.43,10.154-.568,15.687-1.646,21.68C973.964,429.981,967.834,439.618,967.522,443.589Z" transform="translate(-896.373 -347.245)" fill="#e8e8e8"/>
        <path id="Trazado_102324" data-name="Trazado 102324" d="M1030.122,618.33a4.4,4.4,0,0,0,2.821.743c2.248,0,2.821-.743,2.821-.743V586.764h-5.641Z" transform="translate(-933.124 -455.507)" fill="#3a2c69"/>
        <path id="Trazado_102325" data-name="Trazado 102325" d="M954.563,491.133c0,.022.006.047.01.071a29.528,29.528,0,0,0,.81,3.91,23.227,23.227,0,0,0,2.279,5.545c3.055,5.153,8.849,10.887,22.742,12.759.673.089,1.368.174,2.08.245q1.944.2,4.09.3c.091,0,.182.008.273.01s.182.008.275.01a67.34,67.34,0,0,0,13.606-2.038c10.351-2.456,17.095-7.511,21.359-13.662a0,0,0,0,0,0,0q.543-.783,1.035-1.589a33.976,33.976,0,0,0,2.218-4.318,45.22,45.22,0,0,0,3.36-17.027,56.2,56.2,0,0,0-1.8-13.357,24.255,24.255,0,0,0-3.291-7.326,19.8,19.8,0,0,0-1.259-1.672,18.6,18.6,0,0,0-5.105-4.3c-4.945-2.818-21.209-5.626-34.985,1.644C956.906,463.713,953.089,480.242,954.563,491.133Z" transform="translate(-888.604 -372.702)" fill="#5038a1"/>
        <path id="Trazado_102326" data-name="Trazado 102326" d="M960.349,569.041c4.045,4.707,7.686,9.53,21.579,11.075.673.073,1.368.143,2.08.2q1.944.166,4.09.245c.091,0,.182.008.273.008s.182.008.275.01a67.344,67.344,0,0,0,13.606-2.038c10.351-2.456,17.095-7.512,21.359-13.662a0,0,0,0,0,0,0q.543-.784,1.035-1.589c-7.854-1.874-24.628-5.159-41.294-3.817-9.041.728-18.419,1.533-26.448,2.242C956.635,561.737,959.016,567.49,960.349,569.041Z" transform="translate(-890.128 -439.3)" fill="#3a2c69"/>
        <path id="Trazado_102327" data-name="Trazado 102327" d="M1026.247,362.561q-.194-.8-.414-1.573c-1.986-7.023-5.222-12.115-10.306-12.948-.638,1.737-6.862,4.623-12.308,4.341a3.578,3.578,0,0,1-1.5-.85c-4.3-.607-6.348-2.913-6.146-3.223-.181.014-4.516,1.228-4.516,1.228-3.763,16.454-4.213,25.6.315,49.061,1.653,8.57-.875,13.226-.315,13.788.98.981,11.819,1.264,20.533,1.6,1.046.039,2.078.076,3.083.109,6.37.208,11.617.282,11.617.282.432-.539,1.229-5.512,1.772-12.514C1028.935,390.683,1029.163,374.328,1026.247,362.561Z" transform="translate(-908.458 -315.358)" fill="#f6f6f6"/>
        <path id="Trazado_102328" data-name="Trazado 102328" d="M1028.683,332.982l-5.181,4.292-7.889-1.219c.074-.76.467-4.053.8-6.862.278-2.3.519-4.265.519-4.265l9.425-3.771.285-.113c0,.048-.007.095-.009.142-.027.377-.043.745-.051,1.107A23.372,23.372,0,0,0,1028.683,332.982Z" transform="translate(-924.605 -299.509)" fill="#e49963"/>
        <path id="Trazado_102329" data-name="Trazado 102329" d="M889.155,528.5c-26.373,1.893-34.584,1.552-35.51,2.819-5.822,7.978-6.411,9.355-18.22,25.341-2.254,3.05-4.914,6.632-8.1,10.892H815s13.3-25.385,23.939-42.581c4.2-6.788,7.981-12.3,10.367-14.474,8.243-7.512,41.081-7.338,41.081-7.338s28.512-.69,30.757,3.534C921.625,507.613,909.012,527.071,889.155,528.5Z" transform="translate(-806.828 -406.401)" fill="#debc56"/>
        <path id="Trazado_102330" data-name="Trazado 102330" d="M918.2,528.5c-26.374,1.893-34.584,1.552-35.51,2.819-5.822,7.978-6.411,9.355-18.22,25.341l3.509-31.689c4.2-6.788,7.981-12.3,10.367-14.474,8.243-7.512,41.081-7.338,41.081-7.338s28.512-.69,30.757,3.534C950.672,507.613,938.059,527.071,918.2,528.5Z" transform="translate(-835.875 -406.401)" fill="#debc56"/>
        <path id="Trazado_102331" data-name="Trazado 102331" d="M950.688,510.979s-.88,15.971-20.738,17.4c-26.374,1.9-31.815,1.269-33.539,2.881-8.478,7.924-2.875,9.605-22.749,36.2H861.178s15.236-50.47,22.136-56.507c8.381-7.334,41.971-7.4,41.971-7.4s23.461-2.242,25.7,1.981C951.477,506.449,950.688,510.979,950.688,510.979Z" transform="translate(-833.941 -406.304)" fill="#ffdc72"/>
        <g id="Grupo_55117" data-name="Grupo 55117" transform="translate(91.8 80.287)">
          <path id="Trazado_102332" data-name="Trazado 102332" d="M1017.532,523.759a28.178,28.178,0,0,0,4.228.538c.6.028,1.217.038,1.844.031.053,0,.106,0,.16,0l.485-.009a67.364,67.364,0,0,0,13.606-2.039c13.521-3.208,20.886-10.854,24.615-19.57a45.234,45.234,0,0,0,3.36-17.028,56.231,56.231,0,0,0-1.8-13.357,24.274,24.274,0,0,0-3.291-7.326c-.293-.435-.6-.861-.934-1.272-.105-.135-.214-.267-.325-.4C1050.166,473.072,1022.014,504.048,1017.532,523.759Z" transform="translate(-1017.532 -463.328)" fill="#5038a1"/>
          <path id="Trazado_102333" data-name="Trazado 102333" d="M1019.242,524.327a28.194,28.194,0,0,0,4.229.539c.376.018.754.028,1.138.031q.08,0,.16,0l.485-.01a67.36,67.36,0,0,0,13.606-2.039c13.521-3.208,20.886-10.854,24.615-19.57a45.226,45.226,0,0,0,3.36-17.028,56.217,56.217,0,0,0-1.8-13.357,24.268,24.268,0,0,0-3.291-7.326c-.293-.435-.6-.861-.933-1.272C1051.132,474.461,1023.665,504.877,1019.242,524.327Z" transform="translate(-1018.536 -463.896)" fill="#5038a1"/>
        </g>
        <g id="Grupo_55118" data-name="Grupo 55118" transform="translate(87.116 31.097)">
          <path id="Trazado_102334" data-name="Trazado 102334" d="M1010.692,344.7s.658,3.926,2.936,5.792l-3.375,3.858s-3.7-4.306-4.062-8A28.453,28.453,0,0,1,1010.692,344.7Z" transform="translate(-1006.19 -344.492)" fill="#ffcb80"/>
          <path id="Trazado_102335" data-name="Trazado 102335" d="M1032.7,344.2s-4.989,5.591-8.5,6l1.947,5.236s10.539-5.933,10.57-9.647C1036.719,345.787,1033.839,344.235,1032.7,344.2Z" transform="translate(-1016.765 -344.202)" fill="#ffcb80"/>
        </g>
        <path id="Trazado_102336" data-name="Trazado 102336" d="M1057.295,434.288c-.544,7-.4,10.662-2.559,12.72,0,0-4.374,1.647-10.831-.488a9.51,9.51,0,0,1-4.777-4.8c-4.254-10.565,3.841-19.347,4.253-26.345s6.826-12.109,6.826-12.109S1058.165,423.107,1057.295,434.288Z" transform="translate(-937.687 -347.782)" fill="#e8e8e8"/>
        <path id="Trazado_102337" data-name="Trazado 102337" d="M1026.537,656.688h-61.7c2.937-6.422,15.633-11.253,30.851-11.253S1023.6,650.266,1026.537,656.688Z" transform="translate(-894.795 -489.951)" fill="#8c6df2"/>
        <path id="Trazado_102338" data-name="Trazado 102338" d="M1024.375,481.777a39.019,39.019,0,0,0-5.557,1.852c-1.373.755-4.125,4.374-3.508,4.94,3.1,2.84,3.576-.309,7.384-1.338.692-.187,3.877-3.739,3.877-3.739Z" transform="translate(-924.375 -393.872)" fill="#e49963"/>
        <path id="Trazado_102339" data-name="Trazado 102339" d="M969.169,472.1l-6.283-21.726h-35.9l6.483,22.607H980.6V472.1Z" transform="translate(-872.572 -375.435)" fill="#d8ccff"/>
        <path id="Trazado_102340" data-name="Trazado 102340" d="M1043.193,348.04s7.13,1.16,10.7,4.865,9.605,34.03,8.1,38.283-13.584,12.9-22.229,16.466c0,0-4.254-1.921-4.528-5.214,0,0,14.682-12.35,15.368-15.643S1043.193,348.04,1043.193,348.04Z" transform="translate(-936.122 -315.358)" fill="#f6f6f6"/>
        <path id="Trazado_102341" data-name="Trazado 102341" d="M1027.781,321.347c-.027.377-.043.745-.051,1.107-1.824,1.966-6.111,6.156-10.168,6.9.278-2.3.519-4.265.519-4.265l9.425-3.771Z" transform="translate(-925.75 -299.67)" fill="#d68d5d"/>
        <path id="Trazado_102342" data-name="Trazado 102342" d="M1011.6,305.32s11.3.517,11.516-6.527,1.816-11.72-5.392-12.348-8.691,2.018-9.334,4.351S1008.662,305,1011.6,305.32Z" transform="translate(-920.249 -279.142)" fill="#e49963"/>
        <path id="Trazado_102343" data-name="Trazado 102343" d="M1020.551,288.543s-.844-9.4-10.913-9.062-5.713-9.186,2.939-10.589c0,0-.9,3.355,4.54,3.886C1028.539,273.89,1021.566,287.052,1020.551,288.543Z" transform="translate(-917.688 -268.892)" fill="#12263f"/>
      </g>
      <g id="Grupo_55127" data-name="Grupo 55127" transform="translate(837.325 127.205)">
        <path id="Trazado_102346" data-name="Trazado 102346" d="M16.053,34.865,39.381,86.514l.643-.13,69.634-14.017s-32.681-1.614-36.2-4.2c-3.319-2.439-38.719-31.808-48.748-34.272a4.094,4.094,0,0,0-1.547-.137Z" transform="translate(-16.053 -33.73)" fill="#8c6df2"/>
        <path id="Trazado_102347" data-name="Trazado 102347" d="M58.45,123.733c1.628.243,6.492.873,13.159,1.616,19.168,2.135,53.224,5.208,68.053,2.771,13.3-2.186,83.642-13.9,132.276-22.425a78.693,78.693,0,0,0-41.553-24.885C173.71,90.492,99.6,103.31,90.212,105.72c-15.443,3.966-35.993,8.055-35.993,8.055s-.115.495-.207,1.27C53.7,117.561,53.621,123,58.45,123.733Z" transform="translate(-37.276 -60.136)" fill="#e58638"/>
        <path id="Trazado_102348" data-name="Trazado 102348" d="M58.45,107.9c1.628.243,6.492.873,13.159,1.616,19.168,2.135,53.224,5.208,68.053,2.771,13.3-2.186,83.642-13.9,132.276-22.425,24.42-4.278,43.367-7.754,46.866-8.812,10.46-3.166,31.957-12.839,29.231-17.228s-11.33-4.265-13.981-5.764c-.036-.021-.072-.041-.112-.065-.62-.35-1.644-.933-3.109-1.59-5.238-2.345-16.142-5.623-34.574-2.612,0,0-29.308,4.941-65.874,11.187C173.71,74.659,99.6,87.476,90.212,89.886,74.769,93.853,54.22,97.941,54.22,97.941s-.115.495-.207,1.27C53.7,101.727,53.621,107.17,58.45,107.9Z" transform="translate(-37.276 -44.302)" fill="#f6f6f6"/>
        <path id="Trazado_102349" data-name="Trazado 102349" d="M58.449,166.678c1.628.246,6.492.875,13.157,1.617,1.831-7.23,8.766-10.916,8.766-10.916l-26.363.611C53.7,160.507,53.619,165.951,58.449,166.678Z" transform="translate(-37.275 -103.083)" fill="#8c6df2"/>
        <g id="Grupo_55125" data-name="Grupo 55125" transform="translate(80.764 12.098)">
          <g id="Grupo_55123" data-name="Grupo 55123" transform="translate(91.549)">
            <g id="Grupo_55120" data-name="Grupo 55120" transform="translate(29.845 8.031)">
              <path id="Trazado_102350" data-name="Trazado 102350" d="M495.292,97.361a.807.807,0,0,1,.931.655l.146.839a.8.8,0,1,1-1.585.276l-.146-.839A.807.807,0,0,1,495.292,97.361Z" transform="translate(-486.632 -89.541)" fill="#5038a1"/>
              <path id="Trazado_102351" data-name="Trazado 102351" d="M477.09,100.527a.807.807,0,0,1,.93.655l.146.839a.8.8,0,0,1-1.585.276l-.146-.839A.807.807,0,0,1,477.09,100.527Z" transform="translate(-476.424 -91.317)" fill="#5038a1"/>
              <path id="Trazado_102352" data-name="Trazado 102352" d="M504.6,95.742a.806.806,0,0,1,.93.655l.146.839a.8.8,0,1,1-1.585.276l-.146-.839A.807.807,0,0,1,504.6,95.742Z" transform="translate(-491.853 -88.633)" fill="#5038a1"/>
              <path id="Trazado_102353" data-name="Trazado 102353" d="M513.909,94.122a.807.807,0,0,1,.93.655l.146.839a.8.8,0,0,1-1.585.276l-.146-.839A.807.807,0,0,1,513.909,94.122Z" transform="translate(-497.075 -87.725)" fill="#5038a1"/>
              <path id="Trazado_102354" data-name="Trazado 102354" d="M523.218,92.5a.807.807,0,0,1,.931.655l.146.839a.8.8,0,1,1-1.585.276l-.146-.839A.806.806,0,0,1,523.218,92.5Z" transform="translate(-502.296 -86.817)" fill="#5038a1"/>
              <path id="Trazado_102355" data-name="Trazado 102355" d="M532.527,90.884h0a.807.807,0,0,1,.931.655l.146.839a.807.807,0,0,1-.655.93h0a.807.807,0,0,1-.93-.655l-.146-.839A.807.807,0,0,1,532.527,90.884Z" transform="translate(-507.517 -85.908)" fill="#5038a1"/>
              <path id="Trazado_102356" data-name="Trazado 102356" d="M541.835,89.264a.807.807,0,0,1,.93.655l.146.839a.8.8,0,1,1-1.584.276l-.146-.839A.807.807,0,0,1,541.835,89.264Z" transform="translate(-512.738 -85)" fill="#5038a1"/>
              <path id="Trazado_102357" data-name="Trazado 102357" d="M551.144,87.645a.807.807,0,0,1,.93.655l.146.839a.8.8,0,1,1-1.585.276l-.146-.839A.806.806,0,0,1,551.144,87.645Z" transform="translate(-517.959 -84.092)" fill="#5038a1"/>
              <path id="Trazado_102358" data-name="Trazado 102358" d="M560.453,86.026a.806.806,0,0,1,.93.654l.146.839a.8.8,0,1,1-1.585.276l-.146-.839A.806.806,0,0,1,560.453,86.026Z" transform="translate(-523.18 -83.184)" fill="#5038a1"/>
              <path id="Trazado_102359" data-name="Trazado 102359" d="M569.762,84.406a.807.807,0,0,1,.93.655l.146.839a.8.8,0,0,1-1.585.276l-.146-.839A.807.807,0,0,1,569.762,84.406Z" transform="translate(-528.401 -82.275)" fill="#5038a1"/>
              <path id="Trazado_102360" data-name="Trazado 102360" d="M578.885,82.82a.806.806,0,0,1,.93.654l.146.839a.8.8,0,1,1-1.585.275l-.146-.839A.806.806,0,0,1,578.885,82.82Z" transform="translate(-533.518 -81.386)" fill="#5038a1"/>
              <path id="Trazado_102361" data-name="Trazado 102361" d="M588.193,81.2a.807.807,0,0,1,.93.655l.146.839a.8.8,0,1,1-1.585.276l-.146-.839A.807.807,0,0,1,588.193,81.2Z" transform="translate(-538.739 -80.477)" fill="#5038a1"/>
              <path id="Trazado_102362" data-name="Trazado 102362" d="M597.5,79.581a.807.807,0,0,1,.931.654l.146.839a.8.8,0,1,1-1.585.276l-.146-.839A.807.807,0,0,1,597.5,79.581Z" transform="translate(-543.96 -79.569)" fill="#5038a1"/>
            </g>
            <path id="Trazado_102363" data-name="Trazado 102363" d="M673.351,62.694l4.444-1.413c1.465.657,2.489,1.241,3.109,1.59L674.1,65.038a1.221,1.221,0,0,1-.391.057,1.23,1.23,0,0,1-.357-2.4Z" transform="translate(-556.551 -61.281)" fill="#5038a1"/>
            <g id="Grupo_55121" data-name="Grupo 55121" transform="translate(8.121 18.374)">
              <path id="Trazado_102364" data-name="Trazado 102364" d="M429.43,111.673a1.586,1.586,0,0,0,.271-.023l1.243-.216a1.582,1.582,0,0,0,1.284-1.824l-.9-5.179a1.578,1.578,0,0,0-1.824-1.284l-1.243.216a1.581,1.581,0,0,0-1.283,1.824l.9,5.179A1.579,1.579,0,0,0,429.43,111.673Zm.249-.148A1.454,1.454,0,0,1,428,110.345l-.9-5.179a1.456,1.456,0,0,1,1.181-1.678l1.243-.216a1.453,1.453,0,0,1,1.678,1.181l.9,5.179a1.456,1.456,0,0,1-1.181,1.678Z" transform="translate(-426.952 -103.123)" fill="#5038a1"/>
            </g>
            <g id="Grupo_55122" data-name="Grupo 55122" transform="translate(0 19.786)">
              <path id="Trazado_102365" data-name="Trazado 102365" d="M410.936,114.89a1.574,1.574,0,0,0,.27-.024l1.244-.216a1.579,1.579,0,0,0,1.284-1.824l-.9-5.179a1.577,1.577,0,0,0-1.824-1.284l-1.243.216a1.579,1.579,0,0,0-1.284,1.824l.9,5.179A1.58,1.58,0,0,0,410.936,114.89Zm.249-.148a1.452,1.452,0,0,1-1.678-1.181l-.9-5.179a1.452,1.452,0,0,1,1.181-1.678l1.243-.216a1.453,1.453,0,0,1,1.678,1.181l.9,5.179a1.453,1.453,0,0,1-1.18,1.678Z" transform="translate(-408.458 -106.339)" fill="#5038a1"/>
            </g>
          </g>
          <g id="Grupo_55124" data-name="Grupo 55124" transform="translate(0 18.59)">
            <path id="Trazado_102366" data-name="Trazado 102366" d="M200.642,148.618a.807.807,0,0,1,.93.655l.146.839a.8.8,0,0,1-1.585.276l-.146-.839A.807.807,0,0,1,200.642,148.618Z" transform="translate(-199.975 -128.85)" fill="#5038a1"/>
            <path id="Trazado_102367" data-name="Trazado 102367" d="M209.95,147a.807.807,0,0,1,.93.655l.146.839a.8.8,0,1,1-1.585.276l-.146-.839A.807.807,0,0,1,209.95,147Z" transform="translate(-205.196 -127.942)" fill="#5038a1"/>
            <path id="Trazado_102368" data-name="Trazado 102368" d="M219.259,145.38a.807.807,0,0,1,.931.655l.146.839a.8.8,0,0,1-1.585.276l-.146-.839A.807.807,0,0,1,219.259,145.38Z" transform="translate(-210.417 -127.034)" fill="#5038a1"/>
            <path id="Trazado_102369" data-name="Trazado 102369" d="M228.567,143.76a.806.806,0,0,1,.93.655l.146.839a.8.8,0,0,1-1.585.275l-.146-.839A.807.807,0,0,1,228.567,143.76Z" transform="translate(-215.638 -126.125)" fill="#5038a1"/>
            <path id="Trazado_102370" data-name="Trazado 102370" d="M237.876,142.141a.806.806,0,0,1,.93.655l.146.839a.8.8,0,1,1-1.585.276l-.146-.839A.806.806,0,0,1,237.876,142.141Z" transform="translate(-220.859 -125.217)" fill="#5038a1"/>
            <path id="Trazado_102371" data-name="Trazado 102371" d="M247.185,140.522a.807.807,0,0,1,.93.655l.146.839a.8.8,0,0,1-1.585.276l-.146-.839A.806.806,0,0,1,247.185,140.522Z" transform="translate(-226.081 -124.309)" fill="#5038a1"/>
            <path id="Trazado_102372" data-name="Trazado 102372" d="M256.494,138.9a.807.807,0,0,1,.93.655l.145.839a.8.8,0,1,1-1.584.276l-.146-.839A.806.806,0,0,1,256.494,138.9Z" transform="translate(-231.302 -123.4)" fill="#5038a1"/>
            <path id="Trazado_102373" data-name="Trazado 102373" d="M265.8,137.283a.807.807,0,0,1,.93.654l.146.839a.8.8,0,1,1-1.584.276l-.146-.839A.807.807,0,0,1,265.8,137.283Z" transform="translate(-236.523 -122.492)" fill="#5038a1"/>
            <path id="Trazado_102374" data-name="Trazado 102374" d="M275.111,135.664a.807.807,0,0,1,.93.654l.146.839a.8.8,0,1,1-1.585.276l-.146-.839A.807.807,0,0,1,275.111,135.664Z" transform="translate(-241.744 -121.584)" fill="#5038a1"/>
            <path id="Trazado_102375" data-name="Trazado 102375" d="M384.8,116.583a.806.806,0,0,1,.93.654l.146.839a.8.8,0,0,1-1.584.276l-.146-.839A.806.806,0,0,1,384.8,116.583Z" transform="translate(-303.265 -110.882)" fill="#5038a1"/>
            <path id="Trazado_102376" data-name="Trazado 102376" d="M394.108,114.963a.807.807,0,0,1,.93.655l.146.839a.807.807,0,0,1-.655.931h0a.807.807,0,0,1-.931-.655l-.145-.839A.807.807,0,0,1,394.108,114.963Z" transform="translate(-308.487 -109.974)" fill="#5038a1"/>
            <path id="Trazado_102377" data-name="Trazado 102377" d="M403.416,113.344a.807.807,0,0,1,.93.654l.146.839a.8.8,0,1,1-1.585.276l-.146-.839A.807.807,0,0,1,403.416,113.344Z" transform="translate(-313.707 -109.065)" fill="#5038a1"/>
            <path id="Trazado_102378" data-name="Trazado 102378" d="M412.725,111.725a.807.807,0,0,1,.93.654l.146.839a.8.8,0,0,1-1.585.276l-.146-.839A.807.807,0,0,1,412.725,111.725Z" transform="translate(-318.928 -108.157)" fill="#5038a1"/>
            <path id="Trazado_102379" data-name="Trazado 102379" d="M422.034,110.1a.806.806,0,0,1,.93.655l.146.839a.8.8,0,1,1-1.585.276l-.146-.839A.807.807,0,0,1,422.034,110.1Z" transform="translate(-324.149 -107.249)" fill="#5038a1"/>
            <path id="Trazado_102380" data-name="Trazado 102380" d="M431.343,108.485a.807.807,0,0,1,.93.655l.146.839a.8.8,0,0,1-1.585.276l-.146-.839A.807.807,0,0,1,431.343,108.485Z" transform="translate(-329.37 -106.34)" fill="#5038a1"/>
            <path id="Trazado_102381" data-name="Trazado 102381" d="M440.651,106.866a.807.807,0,0,1,.93.655l.146.839a.8.8,0,1,1-1.585.276L440,107.8A.807.807,0,0,1,440.651,106.866Z" transform="translate(-334.592 -105.432)" fill="#5038a1"/>
            <path id="Trazado_102382" data-name="Trazado 102382" d="M449.96,105.247a.807.807,0,0,1,.931.655l.146.839a.8.8,0,1,1-1.585.276l-.146-.839A.806.806,0,0,1,449.96,105.247Z" transform="translate(-339.813 -104.524)" fill="#5038a1"/>
            <path id="Trazado_102383" data-name="Trazado 102383" d="M459.269,103.628a.806.806,0,0,1,.93.654l.146.839a.8.8,0,0,1-1.585.276l-.146-.839A.807.807,0,0,1,459.269,103.628Z" transform="translate(-345.034 -103.616)" fill="#5038a1"/>
            <path id="Trazado_102384" data-name="Trazado 102384" d="M302.474,130.9a.807.807,0,0,1,.93.654l.146.839a.8.8,0,0,1-1.585.275l-.146-.839A.806.806,0,0,1,302.474,130.9Z" transform="translate(-257.091 -118.914)" fill="#5038a1"/>
            <path id="Trazado_102385" data-name="Trazado 102385" d="M311.783,129.284a.807.807,0,0,1,.931.655l.146.839a.8.8,0,1,1-1.585.275l-.146-.839A.806.806,0,0,1,311.783,129.284Z" transform="translate(-262.312 -118.006)" fill="#5038a1"/>
            <path id="Trazado_102386" data-name="Trazado 102386" d="M321.092,127.665a.807.807,0,0,1,.93.655l.145.839a.8.8,0,1,1-1.584.276l-.146-.839A.807.807,0,0,1,321.092,127.665Z" transform="translate(-267.533 -117.098)" fill="#5038a1"/>
            <path id="Trazado_102387" data-name="Trazado 102387" d="M330.4,126.046a.807.807,0,0,1,.93.655l.146.839a.8.8,0,0,1-1.584.276l-.146-.839A.807.807,0,0,1,330.4,126.046Z" transform="translate(-272.754 -116.19)" fill="#5038a1"/>
            <path id="Trazado_102388" data-name="Trazado 102388" d="M339.709,124.426a.807.807,0,0,1,.93.655l.146.839a.8.8,0,1,1-1.585.275l-.146-.839A.807.807,0,0,1,339.709,124.426Z" transform="translate(-277.975 -115.281)" fill="#5038a1"/>
            <path id="Trazado_102389" data-name="Trazado 102389" d="M349.018,122.807a.806.806,0,0,1,.93.654l.146.839a.8.8,0,0,1-1.585.276l-.145-.839A.807.807,0,0,1,349.018,122.807Z" transform="translate(-283.197 -114.373)" fill="#5038a1"/>
            <path id="Trazado_102390" data-name="Trazado 102390" d="M358.327,121.188a.806.806,0,0,1,.93.654l.146.839a.8.8,0,0,1-1.585.276l-.146-.839A.806.806,0,0,1,358.327,121.188Z" transform="translate(-288.417 -113.465)" fill="#5038a1"/>
            <path id="Trazado_102391" data-name="Trazado 102391" d="M367.635,119.568a.807.807,0,0,1,.93.655l.146.839a.8.8,0,0,1-1.585.275l-.146-.839A.806.806,0,0,1,367.635,119.568Z" transform="translate(-293.638 -112.556)" fill="#5038a1"/>
            <path id="Trazado_102392" data-name="Trazado 102392" d="M376.944,117.949a.807.807,0,0,1,.931.654l.146.839a.8.8,0,1,1-1.585.276l-.146-.839A.806.806,0,0,1,376.944,117.949Z" transform="translate(-298.86 -111.648)" fill="#5038a1"/>
          </g>
        </g>
        <path id="Trazado_102393" data-name="Trazado 102393" d="M419.3,150.057a2.878,2.878,0,0,1-1.3-5.048,16.3,16.3,0,0,1,7.482-3.672c6.163-1.008,4.159,8.817,2.119,9.236A31.313,31.313,0,0,1,419.3,150.057Z" transform="translate(-240.909 -94.044)" fill="#3a2c69"/>
        <path id="Trazado_102394" data-name="Trazado 102394" d="M432.922,128.652l2.238,12.865a60.366,60.366,0,0,0,16.892-.441,48.185,48.185,0,0,0,12.654-3.451,16.223,16.223,0,0,0,2.113-1.1l-2.346-13.486a6.574,6.574,0,0,0-2.406-.579c-8.193-.7-27.915,5.533-27.915,5.533Z" transform="translate(-249.866 -83.464)" fill="#8c6df2"/>
        <path id="Trazado_102395" data-name="Trazado 102395" d="M499.292,122.527l2.639,15.168a16.218,16.218,0,0,0,2.114-1.1L501.7,123.106A6.574,6.574,0,0,0,499.292,122.527Z" transform="translate(-287.092 -83.534)" fill="#3a2c69"/>
        <g id="Grupo_55126" data-name="Grupo 55126" transform="translate(103.535 26.105)">
          <path id="Trazado_102396" data-name="Trazado 102396" d="M251.832,93.227S261.66,107.4,263.5,109.51s5.675,3.175,5.675,3.175l.022,0,24.311,4.791s29.742-5.013,36.206-6.257h0c.586-.114.981-.2,1.144-.24,1.956-.532,2.842-1.327,2.434-1.832s-46.5.278-51.6.4l-.146,0c-4.967.092-5.494-1.136-5.494-1.136l-19.8-14.421a2.372,2.372,0,0,0-1.134-.588A11.243,11.243,0,0,0,251.832,93.227Z" transform="translate(-251.832 -93.179)" fill="#8c6df2"/>
          <path id="Trazado_102397" data-name="Trazado 102397" d="M259.322,93.7c5.341,4.142,20.113,15.561,21.5,16.3,1.489.792,42.918,1.365,53.1,1.519h0c.586-.114.981-.2,1.144-.24,1.956-.532,2.842-1.327,2.434-1.832s-46.5.278-51.6.4-5.64-1.132-5.64-1.132l-19.8-14.421A2.371,2.371,0,0,0,259.322,93.7Z" transform="translate(-256.033 -93.47)" fill="#2b478b"/>
          <path id="Trazado_102398" data-name="Trazado 102398" d="M251.832,93.227S261.66,107.4,263.5,109.51s5.675,3.175,5.675,3.175l.022,0a52.863,52.863,0,0,0,12.348-3.138c-4.967.092-5.494-1.136-5.494-1.136l-19.8-14.421a2.372,2.372,0,0,0-1.134-.588A11.243,11.243,0,0,0,251.832,93.227Z" transform="translate(-251.832 -93.179)" fill="#5038a1"/>
        </g>
        <path id="Trazado_102399" data-name="Trazado 102399" d="M51.076,86.594l69.634-14.017s-32.681-1.614-36.2-4.2C81.187,65.935,45.788,36.567,35.759,34.1,44.982,42.768,66.4,63.672,65.9,70.478,65.422,76.96,55.865,83.638,51.076,86.594Z" transform="translate(-27.106 -33.939)" fill="#5038a1"/>
        <path id="Trazado_102400" data-name="Trazado 102400" d="M66.028,151.088c-.261-.228-23.574-3.5-38.479.632L42.4,157.077l23.2-4.036S67.336,152.227,66.028,151.088Z" transform="translate(-22.501 -98.744)" fill="#5038a1"/>
      </g>
      <path id="Trazado_102401" data-name="Trazado 102401" d="M-28.675,43.95h224.15L298.581,28.71,313.793,75.6,211.131,98.5l21.39,81.781H4.384Z" transform="translate(846.359 96.289)" fill="none"/>
      <g id="Grupo_55151" data-name="Grupo 55151" transform="translate(1237.018 329.447)">
        <g id="Grupo_55130" data-name="Grupo 55130" transform="translate(11.4 1.159)">
          <path id="Trazado_102402" data-name="Trazado 102402" d="M1100.084,467.974h-2.319V420.826h-19.9v47.147h-2.318V418.508h24.54Z" transform="translate(-1075.545 -418.508)" fill="#3a2c69"/>
        </g>
        <g id="Grupo_55131" data-name="Grupo 55131" transform="translate(0 47.455)">
          <rect id="Rectángulo_31227" data-name="Rectángulo 31227" width="48.113" height="64.502" rx="2" fill="#debc56"/>
        </g>
        <g id="Grupo_55132" data-name="Grupo 55132" transform="translate(6.376 113.617)">
          <rect id="Rectángulo_31228" data-name="Rectángulo 31228" width="6.57" height="1.159" fill="#40403e"/>
        </g>
        <g id="Grupo_55133" data-name="Grupo 55133" transform="translate(9.275 44.635)">
          <rect id="Rectángulo_31229" data-name="Rectángulo 31229" width="6.57" height="1.159" fill="#71716e"/>
        </g>
        <g id="Grupo_55134" data-name="Grupo 55134" transform="translate(20.289)">
          <rect id="Rectángulo_31230" data-name="Rectángulo 31230" width="6.57" height="1.159" fill="#40403e"/>
        </g>
        <g id="Grupo_55136" data-name="Grupo 55136" transform="translate(7.407 114.777)">
          <g id="Grupo_55135" data-name="Grupo 55135">
            <path id="Trazado_102403" data-name="Trazado 102403" d="M1065.874,693.66l.708,4.251h1.546l1.9.005.709-4.251Z" transform="translate(-1065.874 -693.66)" fill="#3a2c69"/>
          </g>
        </g>
        <g id="Grupo_55137" data-name="Grupo 55137" transform="translate(34.201 113.617)">
          <rect id="Rectángulo_31231" data-name="Rectángulo 31231" width="6.57" height="1.159" transform="translate(6.57 1.159) rotate(180)" fill="#40403e"/>
        </g>
        <g id="Grupo_55138" data-name="Grupo 55138" transform="translate(31.689 44.635)">
          <rect id="Rectángulo_31232" data-name="Rectángulo 31232" width="6.57" height="1.159" transform="translate(6.57 1.159) rotate(180)" fill="#3a2c69"/>
        </g>
        <g id="Grupo_55140" data-name="Grupo 55140" transform="translate(35.232 114.777)">
          <g id="Grupo_55139" data-name="Grupo 55139">
            <path id="Trazado_102404" data-name="Trazado 102404" d="M1137.766,693.66l-.709,4.251h-3.091l-.709-4.251Z" transform="translate(-1133.258 -693.66)" fill="#3a2c69"/>
          </g>
        </g>
        <g id="Grupo_55141" data-name="Grupo 55141" transform="translate(10.434 1.159)">
          <rect id="Rectángulo_31233" data-name="Rectángulo 31233" width="26.472" height="4.058" fill="#5038a1"/>
        </g>
        <g id="Grupo_55143" data-name="Grupo 55143" transform="translate(17.004 41.737)">
          <g id="Grupo_55142" data-name="Grupo 55142">
            <path id="Trazado_102405" data-name="Trazado 102405" d="M1089.115,516.777v4.058h1.947v-2.117h9.439v2.117h1.947v-4.058Z" transform="translate(-1089.115 -516.777)" fill="#3a2c69"/>
          </g>
        </g>
        <g id="Grupo_55144" data-name="Grupo 55144" transform="translate(5.797 53.483)">
          <path id="Trazado_102406" data-name="Trazado 102406" d="M1064.276,535.387a1.2,1.2,0,0,0-2.284,0h-.017v51.2a1.173,1.173,0,0,0,2.319,0v-51.2Z" transform="translate(-1061.974 -534.559)" fill="#ce8d2e"/>
        </g>
        <g id="Grupo_55145" data-name="Grupo 55145" transform="translate(11.401 53.483)">
          <path id="Trazado_102407" data-name="Trazado 102407" d="M1077.846,535.387a1.2,1.2,0,0,0-2.284,0h-.017v51.2a1.173,1.173,0,0,0,2.319,0v-51.2Z" transform="translate(-1075.545 -534.559)" fill="#ce8d2e"/>
        </g>
        <g id="Grupo_55146" data-name="Grupo 55146" transform="translate(17.004 53.483)">
          <path id="Trazado_102408" data-name="Trazado 102408" d="M1091.416,535.387a1.2,1.2,0,0,0-2.284,0h-.017v51.2a1.173,1.173,0,0,0,2.319,0v-51.2Z" transform="translate(-1089.115 -534.559)" fill="#ce8d2e"/>
        </g>
        <g id="Grupo_55147" data-name="Grupo 55147" transform="translate(22.608 53.483)">
          <path id="Trazado_102409" data-name="Trazado 102409" d="M1104.987,535.387a1.2,1.2,0,0,0-2.284,0h-.017v51.2a1.173,1.173,0,0,0,2.318,0v-51.2Z" transform="translate(-1102.686 -534.559)" fill="#ce8d2e"/>
        </g>
        <g id="Grupo_55148" data-name="Grupo 55148" transform="translate(28.211 53.483)">
          <path id="Trazado_102410" data-name="Trazado 102410" d="M1118.557,535.387a1.2,1.2,0,0,0-2.284,0h-.017v51.2a1.173,1.173,0,0,0,2.318,0v-51.2Z" transform="translate(-1116.256 -534.559)" fill="#ce8d2e"/>
        </g>
        <g id="Grupo_55149" data-name="Grupo 55149" transform="translate(33.815 53.483)">
          <path id="Trazado_102411" data-name="Trazado 102411" d="M1132.128,535.387a1.2,1.2,0,0,0-2.284,0h-.018v51.2a1.173,1.173,0,0,0,2.319,0v-51.2Z" transform="translate(-1129.826 -534.559)" fill="#ce8d2e"/>
        </g>
        <g id="Grupo_55150" data-name="Grupo 55150" transform="translate(39.419 53.483)">
          <path id="Trazado_102412" data-name="Trazado 102412" d="M1145.7,535.387a1.2,1.2,0,0,0-2.284,0h-.017v51.2a1.173,1.173,0,0,0,2.318,0v-51.2Z" transform="translate(-1143.397 -534.559)" fill="#ce8d2e"/>
        </g>
      </g>
    </g>
  </g>
</svg>
