<svg xmlns="http://www.w3.org/2000/svg" width="520.164" height="295.333" viewBox="0 0 520.164 295.333">
  <g id="Grupo_53784" data-name="Grupo 53784" transform="translate(-82.341 -863.005)">
    <path id="Trazado_100469" data-name="Trazado 100469" d="M669.281,900.278v220.438c0,20.5-12.161,37.273-27.024,37.273H208.626c-10.54,0-19.705-8.418-24.164-20.625a48.829,48.829,0,0,1-2.86-16.648V900.278c0-20.5,12.161-37.273,27.024-37.273H642.257C657.12,863,669.281,879.778,669.281,900.278Z" transform="translate(-71.271 0)" fill="#d8ccff" opacity="0.544"/>
    <g id="Grupo_53762" data-name="Grupo 53762" transform="translate(360.264 933.221)">
      <path id="Trazado_100470" data-name="Trazado 100470" d="M1473.182,1112.548l-10.934,24.208-.3-.061-32.638-6.57s15.318-.756,16.969-1.97c1.556-1.143,18.148-14.909,22.849-16.063a1.912,1.912,0,0,1,.725-.064Z" transform="translate(-1327.417 -1112.017)" fill="#8c6df2"/>
      <path id="Trazado_100471" data-name="Trazado 100471" d="M1294.907,1166.5c-.763.114-3.043.409-6.168.758-8.984,1-24.946,2.441-31.9,1.3-6.235-1.025-39.2-6.516-62-10.511a36.883,36.883,0,0,1,19.476-11.664c26.564,4.539,61.3,10.546,65.7,11.676,7.239,1.859,16.87,3.776,16.87,3.776s.054.232.1.595C1297.131,1163.6,1297.17,1166.156,1294.907,1166.5Z" transform="translate(-1159.066 -1136.69)" fill="#629baf"/>
      <path id="Trazado_100472" data-name="Trazado 100472" d="M1203.8,1151.7c-.763.114-3.043.409-6.168.758-8.984,1-24.946,2.441-31.9,1.3-6.234-1.025-39.2-6.516-62-10.511-11.446-2.005-20.326-3.634-21.967-4.13-4.9-1.484-14.978-6.018-13.7-8.075s5.311-2,6.553-2.7l.052-.03c.291-.164.771-.437,1.457-.745,2.455-1.1,7.566-2.636,16.205-1.224,0,0,13.737,2.316,30.875,5.243,26.564,4.539,61.3,10.546,65.7,11.676,7.239,1.859,16.87,3.776,16.87,3.776s.054.232.1.595C1206.026,1148.811,1206.065,1151.361,1203.8,1151.7Z" transform="translate(-1067.961 -1121.895)" fill="#fff"/>
      <path id="Trazado_100473" data-name="Trazado 100473" d="M1523.537,1206.628c-.763.115-3.043.41-6.167.758a8.927,8.927,0,0,0-4.109-5.116l12.356.286C1525.762,1203.735,1525.8,1206.287,1523.537,1206.628Z" transform="translate(-1387.697 -1176.821)" fill="#8c6df2"/>
      <g id="Grupo_53760" data-name="Grupo 53760" transform="translate(6.716 5.67)">
        <g id="Grupo_53758" data-name="Grupo 53758">
          <g id="Grupo_53755" data-name="Grupo 53755" transform="translate(18.691 3.764)">
            <path id="Trazado_100474" data-name="Trazado 100474" d="M1233.179,1158.459a.378.378,0,0,0-.436.307l-.068.393a.377.377,0,1,0,.743.129l.068-.393A.378.378,0,0,0,1233.179,1158.459Z" transform="translate(-1211.633 -1154.793)" fill="#5038a1"/>
            <path id="Trazado_100475" data-name="Trazado 100475" d="M1246.465,1160.769a.378.378,0,0,0-.436.307l-.068.393a.377.377,0,1,0,.743.129l.069-.393A.379.379,0,0,0,1246.465,1160.769Z" transform="translate(-1221.172 -1156.452)" fill="#5038a1"/>
            <path id="Trazado_100476" data-name="Trazado 100476" d="M1226.385,1157.276a.378.378,0,0,0-.436.307l-.068.393a.377.377,0,1,0,.742.129l.069-.393A.379.379,0,0,0,1226.385,1157.276Z" transform="translate(-1206.754 -1153.944)" fill="#5038a1"/>
            <path id="Trazado_100477" data-name="Trazado 100477" d="M1219.59,1156.094a.378.378,0,0,0-.436.307l-.068.393a.377.377,0,1,0,.743.129l.068-.393A.378.378,0,0,0,1219.59,1156.094Z" transform="translate(-1201.875 -1153.096)" fill="#5038a1"/>
            <path id="Trazado_100478" data-name="Trazado 100478" d="M1212.8,1154.912a.378.378,0,0,0-.436.307l-.068.393a.377.377,0,1,0,.743.129l.068-.393A.378.378,0,0,0,1212.8,1154.912Z" transform="translate(-1196.997 -1152.247)" fill="#5038a1"/>
            <path id="Trazado_100479" data-name="Trazado 100479" d="M1206,1153.73h0a.379.379,0,0,0-.436.307l-.068.393a.378.378,0,0,0,.307.436h0a.378.378,0,0,0,.436-.307l.069-.393A.378.378,0,0,0,1206,1153.73Z" transform="translate(-1192.118 -1151.398)" fill="#5038a1"/>
            <path id="Trazado_100480" data-name="Trazado 100480" d="M1199.207,1152.549a.378.378,0,0,0-.436.307l-.068.393a.377.377,0,0,0,.743.129l.069-.393A.378.378,0,0,0,1199.207,1152.549Z" transform="translate(-1187.24 -1150.55)" fill="#5038a1"/>
            <path id="Trazado_100481" data-name="Trazado 100481" d="M1192.412,1151.366a.378.378,0,0,0-.436.307l-.068.393a.377.377,0,0,0,.743.129l.068-.393A.378.378,0,0,0,1192.412,1151.366Z" transform="translate(-1182.361 -1149.7)" fill="#5038a1"/>
            <path id="Trazado_100482" data-name="Trazado 100482" d="M1185.617,1150.184a.378.378,0,0,0-.436.307l-.069.393a.377.377,0,1,0,.743.129l.068-.393A.378.378,0,0,0,1185.617,1150.184Z" transform="translate(-1177.482 -1148.852)" fill="#5038a1"/>
            <path id="Trazado_100483" data-name="Trazado 100483" d="M1178.823,1149a.378.378,0,0,0-.436.307l-.068.393a.377.377,0,0,0,.743.129l.068-.393A.378.378,0,0,0,1178.823,1149Z" transform="translate(-1172.603 -1148.003)" fill="#5038a1"/>
            <path id="Trazado_100484" data-name="Trazado 100484" d="M1172.164,1147.844a.378.378,0,0,0-.436.307l-.068.393a.377.377,0,0,0,.743.129l.068-.394A.378.378,0,0,0,1172.164,1147.844Z" transform="translate(-1167.823 -1147.172)" fill="#5038a1"/>
            <path id="Trazado_100485" data-name="Trazado 100485" d="M1165.369,1146.662a.378.378,0,0,0-.436.307l-.068.393a.377.377,0,0,0,.743.129l.068-.393A.378.378,0,0,0,1165.369,1146.662Z" transform="translate(-1162.944 -1146.323)" fill="#5038a1"/>
            <path id="Trazado_100486" data-name="Trazado 100486" d="M1158.575,1145.48a.378.378,0,0,0-.436.307l-.068.393a.377.377,0,0,0,.743.129l.068-.393A.378.378,0,0,0,1158.575,1145.48Z" transform="translate(-1158.065 -1145.474)" fill="#5038a1"/>
          </g>
          <path id="Trazado_100487" data-name="Trazado 100487" d="M1095.319,1132.788l-2.083-.662c-.687.308-1.166.581-1.457.745l3.19,1.016a.577.577,0,0,0,.35-1.1Z" transform="translate(-1091.779 -1132.126)" fill="#5038a1"/>
          <g id="Grupo_53756" data-name="Grupo 53756" transform="translate(51.995 8.612)">
            <path id="Trazado_100488" data-name="Trazado 100488" d="M1277.5,1166.675a.752.752,0,0,1-.127-.011l-.583-.1a.741.741,0,0,1-.6-.855l.422-2.428a.739.739,0,0,1,.855-.6l.583.1a.741.741,0,0,1,.6.855l-.422,2.427A.74.74,0,0,1,1277.5,1166.675Zm-.117-.069a.681.681,0,0,0,.787-.554l.422-2.427a.682.682,0,0,0-.553-.787l-.583-.1a.681.681,0,0,0-.786.554l-.422,2.427a.682.682,0,0,0,.554.787Z" transform="translate(-1276.174 -1162.667)" fill="#5038a1"/>
          </g>
          <g id="Grupo_53757" data-name="Grupo 53757" transform="translate(55.801 9.274)">
            <path id="Trazado_100489" data-name="Trazado 100489" d="M1290.994,1169.023a.751.751,0,0,1-.127-.011l-.583-.1a.74.74,0,0,1-.6-.855l.422-2.427a.739.739,0,0,1,.854-.6l.583.1a.741.741,0,0,1,.6.855l-.422,2.427A.741.741,0,0,1,1290.994,1169.023Zm-.117-.069a.68.68,0,0,0,.786-.554l.422-2.427a.681.681,0,0,0-.553-.787l-.583-.1a.681.681,0,0,0-.786.553l-.422,2.428a.681.681,0,0,0,.553.786Z" transform="translate(-1289.672 -1165.015)" fill="#5038a1"/>
          </g>
        </g>
        <g id="Grupo_53759" data-name="Grupo 53759" transform="translate(47.142 8.713)">
          <path id="Trazado_100490" data-name="Trazado 100490" d="M1448.247,1195.871a.378.378,0,0,0-.436.307l-.068.393a.377.377,0,0,0,.743.129l.069-.393A.378.378,0,0,0,1448.247,1195.871Z" transform="translate(-1394.507 -1186.605)" fill="#5038a1"/>
          <path id="Trazado_100491" data-name="Trazado 100491" d="M1441.453,1194.69a.378.378,0,0,0-.436.307l-.068.393a.377.377,0,1,0,.743.129l.068-.393A.378.378,0,0,0,1441.453,1194.69Z" transform="translate(-1389.629 -1185.757)" fill="#5038a1"/>
          <path id="Trazado_100492" data-name="Trazado 100492" d="M1434.658,1193.507a.378.378,0,0,0-.436.307l-.068.393a.377.377,0,0,0,.743.129l.068-.393A.378.378,0,0,0,1434.658,1193.507Z" transform="translate(-1384.749 -1184.908)" fill="#5038a1"/>
          <path id="Trazado_100493" data-name="Trazado 100493" d="M1427.863,1192.325a.378.378,0,0,0-.436.307l-.068.393a.377.377,0,0,0,.743.129l.068-.393A.378.378,0,0,0,1427.863,1192.325Z" transform="translate(-1379.871 -1184.059)" fill="#5038a1"/>
          <path id="Trazado_100494" data-name="Trazado 100494" d="M1421.068,1191.143a.378.378,0,0,0-.436.307l-.068.393a.377.377,0,1,0,.743.129l.068-.393A.378.378,0,0,0,1421.068,1191.143Z" transform="translate(-1374.992 -1183.211)" fill="#5038a1"/>
          <path id="Trazado_100495" data-name="Trazado 100495" d="M1414.274,1189.962a.378.378,0,0,0-.436.307l-.068.393a.377.377,0,1,0,.743.129l.068-.393A.378.378,0,0,0,1414.274,1189.962Z" transform="translate(-1370.114 -1182.363)" fill="#5038a1"/>
          <path id="Trazado_100496" data-name="Trazado 100496" d="M1407.48,1188.779a.379.379,0,0,0-.436.307l-.068.393a.377.377,0,0,0,.743.129l.068-.393A.378.378,0,0,0,1407.48,1188.779Z" transform="translate(-1365.235 -1181.513)" fill="#5038a1"/>
          <path id="Trazado_100497" data-name="Trazado 100497" d="M1400.685,1187.6a.378.378,0,0,0-.436.307l-.069.393a.377.377,0,0,0,.743.129l.068-.393A.378.378,0,0,0,1400.685,1187.6Z" transform="translate(-1360.356 -1180.664)" fill="#5038a1"/>
          <path id="Trazado_100498" data-name="Trazado 100498" d="M1393.891,1186.416a.378.378,0,0,0-.436.307l-.068.393a.377.377,0,0,0,.743.129l.068-.393A.378.378,0,0,0,1393.891,1186.416Z" transform="translate(-1355.477 -1179.816)" fill="#5038a1"/>
          <path id="Trazado_100499" data-name="Trazado 100499" d="M1313.829,1172.488a.378.378,0,0,0-.436.307l-.068.393a.377.377,0,1,0,.743.129l.068-.393A.378.378,0,0,0,1313.829,1172.488Z" transform="translate(-1297.992 -1169.816)" fill="#5038a1"/>
          <path id="Trazado_100500" data-name="Trazado 100500" d="M1307.034,1171.306a.378.378,0,0,0-.436.307l-.068.393a.378.378,0,0,0,.307.436h0a.378.378,0,0,0,.436-.307l.068-.393A.378.378,0,0,0,1307.034,1171.306Z" transform="translate(-1293.113 -1168.967)" fill="#5038a1"/>
          <path id="Trazado_100501" data-name="Trazado 100501" d="M1300.24,1170.124a.378.378,0,0,0-.436.307l-.068.393a.377.377,0,0,0,.743.129l.068-.393A.378.378,0,0,0,1300.24,1170.124Z" transform="translate(-1288.234 -1168.118)" fill="#5038a1"/>
          <path id="Trazado_100502" data-name="Trazado 100502" d="M1293.445,1168.942a.378.378,0,0,0-.436.307l-.068.394a.377.377,0,0,0,.743.129l.068-.393A.378.378,0,0,0,1293.445,1168.942Z" transform="translate(-1283.355 -1167.27)" fill="#5038a1"/>
          <path id="Trazado_100503" data-name="Trazado 100503" d="M1286.65,1167.76a.378.378,0,0,0-.436.307l-.068.393a.377.377,0,0,0,.743.129l.068-.393A.378.378,0,0,0,1286.65,1167.76Z" transform="translate(-1278.477 -1166.421)" fill="#5038a1"/>
          <path id="Trazado_100504" data-name="Trazado 100504" d="M1279.856,1166.578a.379.379,0,0,0-.436.307l-.068.393a.377.377,0,0,0,.743.129l.069-.393A.378.378,0,0,0,1279.856,1166.578Z" transform="translate(-1273.598 -1165.573)" fill="#5038a1"/>
          <path id="Trazado_100505" data-name="Trazado 100505" d="M1273.061,1165.4a.378.378,0,0,0-.436.307l-.069.393a.377.377,0,0,0,.743.129l.068-.393A.378.378,0,0,0,1273.061,1165.4Z" transform="translate(-1268.719 -1164.724)" fill="#5038a1"/>
          <path id="Trazado_100506" data-name="Trazado 100506" d="M1266.267,1164.215a.378.378,0,0,0-.436.307l-.069.393a.377.377,0,1,0,.743.129l.068-.393A.378.378,0,0,0,1266.267,1164.215Z" transform="translate(-1263.841 -1163.876)" fill="#5038a1"/>
          <path id="Trazado_100507" data-name="Trazado 100507" d="M1259.473,1163.032a.378.378,0,0,0-.436.307l-.069.393a.377.377,0,1,0,.743.129l.068-.393A.378.378,0,0,0,1259.473,1163.032Z" transform="translate(-1258.962 -1163.026)" fill="#5038a1"/>
          <path id="Trazado_100508" data-name="Trazado 100508" d="M1373.918,1182.941a.378.378,0,0,0-.436.307l-.068.393a.377.377,0,0,0,.743.129l.068-.393A.378.378,0,0,0,1373.918,1182.941Z" transform="translate(-1341.137 -1177.322)" fill="#5038a1"/>
          <path id="Trazado_100509" data-name="Trazado 100509" d="M1367.124,1181.759a.379.379,0,0,0-.436.307l-.068.393a.377.377,0,1,0,.743.129l.068-.393A.378.378,0,0,0,1367.124,1181.759Z" transform="translate(-1336.259 -1176.473)" fill="#5038a1"/>
          <path id="Trazado_100510" data-name="Trazado 100510" d="M1360.33,1180.577a.378.378,0,0,0-.436.307l-.068.393a.377.377,0,1,0,.743.129l.068-.393A.378.378,0,0,0,1360.33,1180.577Z" transform="translate(-1331.38 -1175.624)" fill="#5038a1"/>
          <path id="Trazado_100511" data-name="Trazado 100511" d="M1353.535,1179.4a.378.378,0,0,0-.436.307l-.068.393a.377.377,0,0,0,.743.129l.069-.393A.378.378,0,0,0,1353.535,1179.4Z" transform="translate(-1326.501 -1174.775)" fill="#5038a1"/>
          <path id="Trazado_100512" data-name="Trazado 100512" d="M1346.74,1178.213a.378.378,0,0,0-.436.307l-.068.393a.377.377,0,0,0,.743.129l.069-.393A.378.378,0,0,0,1346.74,1178.213Z" transform="translate(-1321.623 -1173.926)" fill="#5038a1"/>
          <path id="Trazado_100513" data-name="Trazado 100513" d="M1339.945,1177.031a.378.378,0,0,0-.436.307l-.069.393a.377.377,0,0,0,.743.129l.068-.393A.378.378,0,0,0,1339.945,1177.031Z" transform="translate(-1316.743 -1173.078)" fill="#5038a1"/>
          <path id="Trazado_100514" data-name="Trazado 100514" d="M1333.151,1175.849a.378.378,0,0,0-.436.307l-.069.393a.377.377,0,1,0,.743.129l.068-.393A.378.378,0,0,0,1333.151,1175.849Z" transform="translate(-1311.865 -1172.229)" fill="#5038a1"/>
          <path id="Trazado_100515" data-name="Trazado 100515" d="M1326.356,1174.667a.379.379,0,0,0-.436.307l-.068.393a.377.377,0,0,0,.743.129l.068-.393A.379.379,0,0,0,1326.356,1174.667Z" transform="translate(-1306.986 -1171.38)" fill="#5038a1"/>
          <path id="Trazado_100516" data-name="Trazado 100516" d="M1319.562,1173.486a.378.378,0,0,0-.436.307l-.068.393a.377.377,0,0,0,.743.129l.068-.393A.377.377,0,0,0,1319.562,1173.486Z" transform="translate(-1302.108 -1170.532)" fill="#5038a1"/>
        </g>
      </g>
      <path id="Trazado_100517" data-name="Trazado 100517" d="M1279.546,1195.519a1.348,1.348,0,0,0,.609-2.366,7.635,7.635,0,0,0-3.507-1.721c-2.889-.473-1.949,4.132-.993,4.329A14.684,14.684,0,0,0,1279.546,1195.519Z" transform="translate(-1216.411 -1169.015)" fill="#d8ccff"/>
      <path id="Trazado_100518" data-name="Trazado 100518" d="M1243.652,1180.559l-1.049,6.03a28.286,28.286,0,0,1-7.917-.207,22.6,22.6,0,0,1-5.931-1.618,7.577,7.577,0,0,1-.99-.517l1.1-6.321a3.086,3.086,0,0,1,1.128-.271c3.84-.329,13.084,2.594,13.084,2.594Z" transform="translate(-1182.704 -1159.128)" fill="#5038a1"/>
      <path id="Trazado_100519" data-name="Trazado 100519" d="M1229.992,1177.721l-1.237,7.109a7.589,7.589,0,0,1-.99-.517l1.1-6.321A3.089,3.089,0,0,1,1229.992,1177.721Z" transform="translate(-1182.704 -1159.194)" fill="#8c6df2"/>
      <g id="Grupo_53761" data-name="Grupo 53761" transform="translate(59.01 12.236)">
        <path id="Trazado_100520" data-name="Trazado 100520" d="M1315.46,1155.431s-4.607,6.642-5.469,7.632a6.438,6.438,0,0,1-2.66,1.488l-.01,0-11.4,2.246s-13.94-2.349-16.97-2.933h0c-.275-.053-.46-.092-.536-.113-.917-.25-1.332-.622-1.141-.859s21.8.13,24.187.186l.068,0c2.328.043,2.575-.532,2.575-.532l9.279-6.759a1.108,1.108,0,0,1,.532-.276A5.265,5.265,0,0,1,1315.46,1155.431Z" transform="translate(-1277.232 -1155.409)" fill="#8c6df2"/>
        <path id="Trazado_100521" data-name="Trazado 100521" d="M1313.918,1155.787c-2.5,1.941-9.427,7.293-10.076,7.639-.7.371-20.116.64-24.887.712h0c-.275-.053-.46-.092-.536-.113-.917-.25-1.332-.622-1.141-.859s21.8.13,24.187.186,2.643-.53,2.643-.53l9.279-6.759A1.106,1.106,0,0,1,1313.918,1155.787Z" transform="translate(-1277.232 -1155.68)" fill="#5038a1"/>
        <path id="Trazado_100522" data-name="Trazado 100522" d="M1377.338,1155.431s-4.607,6.642-5.469,7.632a6.438,6.438,0,0,1-2.66,1.488l-.01,0a24.783,24.783,0,0,1-5.788-1.471c2.328.043,2.575-.532,2.575-.532l9.279-6.759a1.109,1.109,0,0,1,.532-.276A5.265,5.265,0,0,1,1377.338,1155.431Z" transform="translate(-1339.11 -1155.409)" fill="#5038a1"/>
      </g>
      <path id="Trazado_100523" data-name="Trazado 100523" d="M1461.947,1136.891l-32.638-6.57s15.318-.756,16.969-1.97c1.556-1.143,18.148-14.908,22.849-16.063-4.323,4.061-14.363,13.859-14.128,17.049C1455.223,1132.376,1459.7,1135.506,1461.947,1136.891Z" transform="translate(-1327.417 -1112.212)" fill="#5038a1"/>
      <path id="Trazado_100524" data-name="Trazado 100524" d="M1511.967,1197.3c.122-.107,11.049-1.639,18.035.3l-6.96,2.511-10.875-1.892S1511.354,1197.833,1511.967,1197.3Z" transform="translate(-1386.603 -1172.766)" fill="#5038a1"/>
    </g>
    <g id="Grupo_53763" data-name="Grupo 53763" transform="translate(110.331 863.005)" opacity="0.8">
      <path id="Trazado_100525" data-name="Trazado 100525" d="M1344.953,863l-145.775,294.818h-36.663L1313.988,863Z" transform="translate(-885.92 -863.005)" fill="#f8fbff" opacity="0.7"/>
      <path id="Trazado_100526" data-name="Trazado 100526" d="M1119.019,863,973.245,1157.823h-8.558L1110.131,863Z" transform="translate(-743.875 -863.005)" fill="#f8fbff" opacity="0.7"/>
      <path id="Trazado_100527" data-name="Trazado 100527" d="M454.448,863,308.673,1157.823H272.01L423.482,863Z" transform="translate(-246.517 -863.005)" fill="#f8fbff" opacity="0.7"/>
      <path id="Trazado_100528" data-name="Trazado 100528" d="M321.409,863,184.462,1139.951a49.71,49.71,0,0,1-2.86-16.806V985.88L251.528,863Z" transform="translate(-181.602 -863.005)" fill="#f8fbff" opacity="0.7"/>
    </g>
    <rect id="Rectángulo_5159" data-name="Rectángulo 5159" width="11.561" height="293.318" transform="translate(261.467 863.005)" fill="#ffb74d"/>
    <rect id="Rectángulo_5160" data-name="Rectángulo 5160" width="11.561" height="293.318" transform="translate(527.936 863.005)" fill="#ffb74d"/>
    <path id="Rectángulo_5161" data-name="Rectángulo 5161" d="M123.949,0h0a0,0,0,0,1,0,0V203.149a0,0,0,0,1,0,0H0a0,0,0,0,1,0,0v-79.2A123.949,123.949,0,0,1,123.949,0Z" transform="translate(91.395 954.84)" fill="#5038a1"/>
    <g id="Grupo_53764" data-name="Grupo 53764" transform="translate(329.198 1060.901)">
      <rect id="Rectángulo_5162" data-name="Rectángulo 5162" width="48.625" height="97.397" fill="#ffebad"/>
      <path id="Trazado_100653" data-name="Trazado 100653" d="M0,0H48.625V19.972H0Z" transform="translate(0 20.022)" fill="#d8ccff"/>
      <rect id="Rectángulo_5164" data-name="Rectángulo 5164" width="48.625" height="19.972" transform="translate(0 57.511)" fill="#d8ccff"/>
    </g>
    <path id="Trazado_100529" data-name="Trazado 100529" d="M655.032,1188.46H577.239v203.154H699.334V1232.762A44.3,44.3,0,0,0,655.032,1188.46Z" transform="translate(-355.348 -233.684)" fill="#8c6df2"/>
    <path id="Trazado_100530" data-name="Trazado 100530" d="M355.327,1188.445v203.161H248.678V1232.744c0-24.468,17.321-44.3,38.693-44.3Z" transform="translate(-119.433 -233.673)" fill="#8c6df2"/>
    <path id="Rectángulo_5165" data-name="Rectángulo 5165" d="M0,0H56.011A25.439,25.439,0,0,1,81.45,25.439v159.2a0,0,0,0,1,0,0H0a0,0,0,0,1,0,0V0A0,0,0,0,1,0,0Z" transform="translate(221.889 972.968)" fill="#6bdbad"/>
    <path id="Trazado_100531" data-name="Trazado 100531" d="M550.138,1252.976a7.173,7.173,0,0,0-7.173,7.173v177.47h81.45V1252.976Z" transform="translate(-330.738 -280.008)" fill="#5038a1"/>
    <path id="Trazado_100532" data-name="Trazado 100532" d="M297.582,1600.268v86.81h-48.9v-72.414c5.7-3.719,21.815-14.2,23.334-14.71Z" transform="translate(-119.433 -529.146)" fill="#8c6df2"/>
    <path id="Trazado_100533" data-name="Trazado 100533" d="M824.3,1252.919h-7.033V1437.6h13.766V1259.653A6.734,6.734,0,0,0,824.3,1252.919Z" transform="translate(-527.692 -279.967)" fill="#5038a1"/>
    <g id="Grupo_53766" data-name="Grupo 53766" transform="translate(552.645 1024.914)">
      <path id="Trazado_100534" data-name="Trazado 100534" d="M1771.347,1630.649s-1.117,1.275-.464,2.069a2.16,2.16,0,0,0,2.913.718c1.1-.76,1.393-3.588.76-3.588A23.3,23.3,0,0,0,1771.347,1630.649Z" transform="translate(-1764.908 -1575.524)" fill="#cb8757"/>
      <path id="Trazado_100535" data-name="Trazado 100535" d="M1774,1590.02s-3.209,10.471-2.534,11.99,2.861,1.241,4.091-.561S1774,1590.02,1774,1590.02Z" transform="translate(-1765.406 -1546.927)" fill="#8c6df2"/>
      <path id="Trazado_100536" data-name="Trazado 100536" d="M1782.136,1507.155s-4.946.9-6.781,2.73-6.163,7.246-3.44,25.29a6.452,6.452,0,0,0,6.333,5.962C1784.363,1541.661,1782.136,1507.155,1782.136,1507.155Z" transform="translate(-1765.167 -1487.428)" fill="#5038a1"/>
      <path id="Trazado_100537" data-name="Trazado 100537" d="M1799.636,1493.26a12.66,12.66,0,0,0,.014-2.31h0c-.033-.387-.072-.617-.072-.617l.072-.023,5.941-1.81.147-.044c.088,1.934.2,3.367.32,4.431a15.959,15.959,0,0,0,.4,2.378h-7.225A9.78,9.78,0,0,0,1799.636,1493.26Z" transform="translate(-1785.411 -1474.001)" fill="#ffb48d"/>
      <path id="Trazado_100538" data-name="Trazado 100538" d="M1792.475,1444.077s.683-9.731,13.319-6.047c2.867.836,2.495,9.493-4.45,12.789Z" transform="translate(-1780.559 -1437.198)" fill="#4a2009"/>
      <path id="Trazado_100539" data-name="Trazado 100539" d="M1802.024,1634.777c-.851,5.921-6.557,21.311-6.391,26.631.131,4.191.062,13.875-.491,20.308a39.661,39.661,0,0,1-.56,4.344c-.491,2.372-1.121,5.1-1.459,6.827-.754,3.867-.36,6.122-.975,8.2-.678,2.269-8.459,1.854-6.115.477a6.879,6.879,0,0,0,2.656-2.884c2.186-4.9-.878-26.014-1.791-34.156-.117-1.017-.2-1.826-.235-2.379-.3-5.029-3.756-38.53-3.756-38.53C1791.288,1618.949,1802.868,1628.856,1802.024,1634.777Z" transform="translate(-1773.687 -1570.178)" fill="#ffb48d"/>
      <path id="Trazado_100540" data-name="Trazado 100540" d="M1801.8,1634.747c-.851,5.921-6.557,21.311-6.391,26.63.132,4.192.062,13.875-.491,20.308l-8.245-17.2c-.117-1.017-.2-1.826-.235-2.379-.3-5.029-3.843-38.542-3.843-38.542C1790.982,1618.907,1802.648,1628.827,1801.8,1634.747Z" transform="translate(-1773.468 -1570.149)" fill="#cb8757"/>
      <path id="Trazado_100541" data-name="Trazado 100541" d="M1786.21,1624.3s7.2,33.1,8.018,38.065,7.375,28.366,5.945,34.229c-.843,3.458-2.313,4.481-2.313,4.481-.345.634,5.349,1.893,5.809-.533.584-3.081.707-7.406,1.562-14.738,1.473-12.624-1.448-19.808-2.157-25.084s2.378-22.046.665-27.777C1800.743,1622.917,1794.067,1618.805,1786.21,1624.3Z" transform="translate(-1776.06 -1569.782)" fill="#ffb48d"/>
      <path id="Trazado_100542" data-name="Trazado 100542" d="M1800.488,1655.039s-1.875.291-4.635.484l-1.5-6.018-.526,6.128c-4.434.18-10.223-.042-14.491-1.805l.92-30.3a24.128,24.128,0,0,0,13.617-1.226S1803.543,1629.849,1800.488,1655.039Z" transform="translate(-1771.125 -1570.104)" fill="#ffb74d"/>
      <path id="Trazado_100543" data-name="Trazado 100543" d="M1833.086,1875.9a50.71,50.71,0,0,0-.424,6.326h-.61l-.056-4.608c-.043.055-.085.1-.123.146-.545.609-1.262,3.568-1.793,4.462h-6.754a.628.628,0,0,1,.094-.561v0a3.139,3.139,0,0,1,1.076-.86,12.274,12.274,0,0,0,4.311-.206c.9-.226,2.427-8.235,2.427-8.235s2.126,1.294,2.362,1.884A2.874,2.874,0,0,1,1833.086,1875.9Z" transform="translate(-1802.688 -1749.658)" fill="#8c6df2"/>
      <path id="Trazado_100544" data-name="Trazado 100544" d="M1800.585,1876.279a51.625,51.625,0,0,0-.355,5.389v0c0,.236-.008.426-.01.561h-.61l-.053-4.436c-.543.656-1.25,3.554-1.773,4.436h-6.754c-.257-.729,1.169-1.422,1.169-1.422a12.275,12.275,0,0,0,4.311-.206c.9-.226,2.427-8.235,2.427-8.235s2.126,1.294,2.361,1.884C1801.433,1874.587,1801.049,1875.463,1800.585,1876.279Z" transform="translate(-1779.499 -1749.658)" fill="#8c6df2"/>
      <path id="Trazado_100545" data-name="Trazado 100545" d="M1790.878,1541.2s-5.677,3.919-14.252,1.052c0,0-2.93-10.023-2.007-19.672.62-6.475,4.293-11.572,7.022-13.577.43.382,1.186,1.04,6.785-.318,0,0,2.568,1.077,3.026,2.07C1792.427,1512.879,1789.154,1536.995,1790.878,1541.2Z" transform="translate(-1767.609 -1488.53)" fill="#e7f0fd"/>
      <path id="Trazado_100546" data-name="Trazado 100546" d="M1806.488,1544.372c-2.531.519-4.482-1.266-7.477-2.124a10.4,10.4,0,0,1-2.539-1.045c-2.677-1.646-3.977-13.834-3.514-18.448s8.7-14.067,8.7-14.067c1.9,1.411,2.257,4.695,3.4,9C1807.8,1528.062,1806.488,1544.372,1806.488,1544.372Z" transform="translate(-1780.84 -1488.53)" fill="#5038a1"/>
      <path id="Trazado_100547" data-name="Trazado 100547" d="M1815.351,1567.3a9.412,9.412,0,0,1-7.477-2.124,15.17,15.17,0,0,1-2.448-5.8c-1.363-6.724,4.011-14.021,8.494-18.752C1816.666,1550.989,1815.351,1567.3,1815.351,1567.3Z" transform="translate(-1789.703 -1511.458)" fill="#3a2c69"/>
      <path id="Trazado_100548" data-name="Trazado 100548" d="M1806.472,1488.612c-.677,1.135-2.815,4.272-5.955,4.761a12.671,12.671,0,0,0,.014-2.31h0c-.033-.387-.072-.617-.072-.617l.072-.023Z" transform="translate(-1786.292 -1474.114)" fill="#f6a071"/>
      <path id="Trazado_100549" data-name="Trazado 100549" d="M1791.5,1465.594s7.375,1.481,8.227-3.126,2.377-7.519-2.3-8.659-5.915.448-6.574,1.917S1789.6,1465.09,1791.5,1465.594Z" transform="translate(-1778.937 -1448.845)" fill="#ffb48d"/>
      <path id="Trazado_100550" data-name="Trazado 100550" d="M1801.856,1450.824a6.277,6.277,0,0,0-7.179-2.172,10.5,10.5,0,0,0-1.405-.105c-4.814-.112-3.484,5.449-3.484,5.449a3.859,3.859,0,0,1,3.212-3.881l.1-.031c-.268.977-.174,2.543,2.185,4.024,3.8,2.389,3.512,7.166,2.5,8.51C1797.791,1462.618,1805.363,1455.228,1801.856,1450.824Z" transform="translate(-1778.508 -1445.166)" fill="#4a2009"/>
      <path id="Trazado_100551" data-name="Trazado 100551" d="M1771.149,1644.346c-.6-2.539-1.277-3.863-2.073-4.046a.81.81,0,0,0-.665.148c-.617.441-1.139,1.793-1.6,4.135-.328,1.682-.495,3.268-.5,3.284l.5.052c0-.016.166-1.579.49-3.239.557-2.855,1.113-3.619,1.394-3.82a.3.3,0,0,1,.256-.067c1.074.248,2,4.557,2.339,7.215l.5-.063C1771.8,1647.927,1771.575,1646.149,1771.149,1644.346Z" transform="translate(-1761.777 -1583.015)" fill="#2c3f4e"/>
      <g id="Grupo_53765" data-name="Grupo 53765" transform="translate(0 64.117)">
        <path id="Trazado_100552" data-name="Trazado 100552" d="M1770.444,1674.6l-1.1-7.314a3.174,3.174,0,0,0-3.139-2.7h-7.812a1.277,1.277,0,0,0-1.277,1.277v8.929a1.277,1.277,0,0,0,1.277,1.277h10.791A1.277,1.277,0,0,0,1770.444,1674.6Z" transform="translate(-1755.168 -1664.582)" fill="#2c3f4e"/>
        <path id="Trazado_100553" data-name="Trazado 100553" d="M1760.168,1664.582h-6.878a1.371,1.371,0,0,0-1.346,1.109l-1.7,8.741a1.371,1.371,0,0,0,1.346,1.633h7.36a1.371,1.371,0,0,0,1.358-1.182l1.221-8.741A1.371,1.371,0,0,0,1760.168,1664.582Z" transform="translate(-1750.216 -1664.582)" fill="#284663"/>
      </g>
      <path id="Trazado_100554" data-name="Trazado 100554" d="M1777.042,1637.542s-3.189.835-3.376,1.495a2.22,2.22,0,0,0,2.71,2.1c1.8-.436,3.245-2.586,3.245-2.586Z" transform="translate(-1767.039 -1581.049)" fill="#da935b"/>
      <path id="Trazado_100555" data-name="Trazado 100555" d="M1794.411,1508.689a9.671,9.671,0,0,1,6.948,5.279c2.248,4.669-1.935,21.343-2.54,22.467s-7.628,10.114-13.594,10.893c0,0-2.535-.894-2.449-2.364,0,0,9.779-9.678,10.47-11.061s-.274-16.562-.187-18.551A47.329,47.329,0,0,1,1794.411,1508.689Z" transform="translate(-1773.594 -1488.53)" fill="#5038a1"/>
    </g>
    <g id="Grupo_53768" data-name="Grupo 53768" transform="translate(226.024 1006.539)">
      <path id="Trazado_100556" data-name="Trazado 100556" d="M687.773,1373.642s-6.107-4.984-7.7,2.588c-1.2,5.692,5.494,5.479,5.494,5.479Z" transform="translate(-655.105 -1372.033)" fill="#3a2c69"/>
      <path id="Trazado_100557" data-name="Trazado 100557" d="M697.606,1374.944a8.049,8.049,0,0,0-8.995-.453c-4.853,2.912-.929,14.378,2.059,15.019s10.624-10.748,10.624-10.748S701.077,1377.758,697.606,1374.944Z" transform="translate(-659.696 -1372.946)" fill="#3a2c69"/>
      <path id="Trazado_100558" data-name="Trazado 100558" d="M810.446,1591.092a8.243,8.243,0,0,1,2.956-.463,13.77,13.77,0,0,1,4.018,1.892,1.09,1.09,0,0,1,0,.514h-6.974s-1.559-.3-1.825-1.222S810.446,1591.092,810.446,1591.092Z" transform="translate(-747.492 -1528.963)" fill="#ffb48d"/>
      <path id="Trazado_100559" data-name="Trazado 100559" d="M721.56,1869.839a1.337,1.337,0,0,0,.872,1.159.011.011,0,0,0,.008,0,8.891,8.891,0,0,0,4.17.088c.215-.029.409-.052.583-.068.045,0,.091-.008.135-.011l.1-.008c1.676-.11,1.545.406,4.747.39,3.651-.019,4.885-1.249,5.053-1.773.141-.444-1.458-.789-3.245-1.187l-.261-.058c-.238-.053-.477-.108-.715-.162-2.13-.5-4.24-1.13-4.938-3.178-.74-2.171-.565-8.613-.565-8.613h-6.466s1.7,7.117,1.52,9.168c-.1,1.095-.62,1.406-.822,2.355-.015.067-.028.133-.04.2A6.36,6.36,0,0,0,721.56,1869.839Z" transform="translate(-684.626 -1719.834)" fill="#ffb48d"/>
      <g id="Grupo_53767" data-name="Grupo 53767" transform="translate(28.667 57.122)">
        <path id="Trazado_100560" data-name="Trazado 100560" d="M694.3,1597.866c.546,3.063,1.324,6.229,2,9.521,1.086,5.294,1.906,10.917,1.067,16.973a21.165,21.165,0,0,0-.178,2.564c-.163,10.7,4.62,30.1,4.62,30.1a8.446,8.446,0,0,0,3.475.452,11.041,11.041,0,0,0,2.841-.778s.453-12.026.48-28.2c.02-11.723,2.321-27.158,2.786-36.229a116.1,116.1,0,0,0-.33-12.8s-9.533-7.666-12.957-3.744C694.723,1579.6,692.26,1586.407,694.3,1597.866Z" transform="translate(-693.559 -1574.609)" fill="#415da5"/>
      </g>
      <path id="Trazado_100561" data-name="Trazado 100561" d="M704.354,1673.8a21.15,21.15,0,0,0-.179,2.564c7.139-10.343,8.718-32.9,8.718-32.9l-7.841,3.806s-.86,4.23-1.765,9.556C704.373,1662.124,705.193,1667.748,704.354,1673.8Z" transform="translate(-671.877 -1566.93)" fill="#355493"/>
      <path id="Trazado_100562" data-name="Trazado 100562" d="M649.691,1868.817a1.337,1.337,0,0,0,.872,1.158.011.011,0,0,0,.008,0,8.89,8.89,0,0,0,4.169.088c.216-.029.409-.052.583-.068l.136-.011.1-.008c1.676-.11,1.545.406,4.747.39,3.651-.019,4.885-1.249,5.053-1.773.141-.445-1.458-.789-3.245-1.187-.086-.019-.173-.04-.26-.058-.238-.053-.477-.108-.715-.162-2.13-.5-4.24-1.13-4.938-3.178-.74-2.171.317-8.513.317-8.513l-5.99-.5s.372,7.227.194,9.278a17.739,17.739,0,0,1-.855,2.646q-.022.1-.04.2A6.378,6.378,0,0,0,649.691,1868.817Z" transform="translate(-633.383 -1718.813)" fill="#ffb48d"/>
      <path id="Trazado_100563" data-name="Trazado 100563" d="M651.691,1677.73a14.534,14.534,0,0,0,2.648.95,12.715,12.715,0,0,0,3.412-.212,156.206,156.206,0,0,1,3.256-20.157,188.585,188.585,0,0,1,9.744-30.882c.946-2.235,4.849-12.819,5.511-15.49,2-8.07-.008-7.2-.008-7.2l-17.5-2.054s-2.156,1.108-3.15,12.5c-.3,3.413-.334,18.149-.781,20.942a31.271,31.271,0,0,1-1.5,6.274C650.064,1650.387,651.691,1677.73,651.691,1677.73Z" transform="translate(-634.537 -1537.646)" fill="#415da5"/>
      <path id="Trazado_100564" data-name="Trazado 100564" d="M649.691,1899.18a1.337,1.337,0,0,0,.872,1.159.01.01,0,0,0,.008,0,10.291,10.291,0,0,0,4.165.078c.216-.025.41-.045.587-.058.046,0,.091-.008.136-.011l.1-.008c1.676-.11,1.545.406,4.747.39,3.651-.019,4.885-1.249,5.053-1.773.141-.444-1.458-.789-3.245-1.186a10.787,10.787,0,0,1-5.515.978c-2.458-.235-4.968-1.22-6.731-1.466q-.022.1-.04.2A6.38,6.38,0,0,0,649.691,1899.18Z" transform="translate(-633.383 -1749.176)" fill="#b84c42"/>
      <path id="Trazado_100565" data-name="Trazado 100565" d="M722.835,1899.18a1.337,1.337,0,0,0,.872,1.159.01.01,0,0,0,.008,0,10.293,10.293,0,0,0,4.166.078c.216-.025.41-.045.587-.058.045,0,.091-.008.135-.011l.1-.008c1.676-.11,1.545.406,4.747.39,3.651-.019,4.885-1.249,5.053-1.773.141-.444-1.458-.789-3.245-1.186a10.787,10.787,0,0,1-5.515.978c-2.458-.235-4.968-1.22-6.731-1.466-.015.067-.028.133-.04.2A6.365,6.365,0,0,0,722.835,1899.18Z" transform="translate(-685.902 -1749.176)" fill="#b84c42"/>
      <path id="Trazado_100566" data-name="Trazado 100566" d="M693.646,1439.236c-.126,0-.944-.149-2.388-.237a10.816,10.816,0,0,1-.525-2.22,14.528,14.528,0,0,1-.052-3.236c.035-.37.072-.584.072-.584l-7.171-2.184c-.086,1.9-.192,3.378-.305,4.538-.336,3.4-.735,4.03-.857,4.144a58.535,58.535,0,0,0-5.969,1.209s5.788,26.519,3.822,31.517a52.8,52.8,0,0,0-2.714,9.435l21.331.265s-.3-17.156.685-23.228S693.646,1439.236,693.646,1439.236Z" transform="translate(-652.607 -1414.211)" fill="#ffb48d"/>
      <path id="Trazado_100567" data-name="Trazado 100567" d="M708.891,1436.778c-5.421-.118-7.151-6-7.151-6l7.171,2.184s-.037.214-.072.584A14.54,14.54,0,0,0,708.891,1436.778Z" transform="translate(-670.766 -1414.211)" fill="#f6a071"/>
      <path id="Trazado_100568" data-name="Trazado 100568" d="M672.635,1490.36c-.312,3.51-3.592,11.531-2.882,13.24a4.928,4.928,0,0,0,4.037,3.222,41.823,41.823,0,0,0,6.728.683c6.427.319,13.313-.489,14.25-3.543.45-1.466.276-7.14.038-9.759-.492-5.42.539-13.2.69-18.23.124-4.2-2.407-13.751-2.407-13.751a16.026,16.026,0,0,0-4.727-1.442s-.377,4.962-2.966,5.389c-4.477.739-8.085-3.362-9.139-5.014,0,0-5.142,1.3-6.651,3.018-1.429,1.629.526,13.7.961,14.855.376.993.73,1.963,1.039,2.937A20.491,20.491,0,0,1,672.635,1490.36Z" transform="translate(-647.322 -1435.755)" fill="#e9f3fe"/>
      <path id="Trazado_100569" data-name="Trazado 100569" d="M598.9,1591.163a8.318,8.318,0,0,0-2.956-.459,13.823,13.823,0,0,0-4.018,1.876,1.075,1.075,0,0,0,0,.51H598.9s1.559-.3,1.825-1.211S598.9,1591.163,598.9,1591.163Z" transform="translate(-591.894 -1529.017)" fill="#ffb48d"/>
      <path id="Trazado_100570" data-name="Trazado 100570" d="M706.66,1404.165s-8.584,1.724-9.575-3.638-2.767-8.751,2.672-10.078,6.885.521,7.651,2.23S708.867,1403.579,706.66,1404.165Z" transform="translate(-666.643 -1384.931)" fill="#ffb48d"/>
      <path id="Trazado_100571" data-name="Trazado 100571" d="M724.326,1429.172s.229.636,1.846.347c0,0,1.357-.242,1.232-.956A4.425,4.425,0,0,0,724.326,1429.172Z" transform="translate(-686.983 -1412.576)" fill="#fff"/>
      <path id="Trazado_100572" data-name="Trazado 100572" d="M648.3,1491.652a52.34,52.34,0,0,0-4.334-13.248l-4.461-9.288c.184-1.5-1.526-5.616-1.6-7.122,0,0-5.074.175-7.426,2.09-2.661,2.165-4.441,9.32-7.689,21.85,0,0-5.37,8.95-7.079,12.5a3.043,3.043,0,0,0,.961.851,5.061,5.061,0,0,0,1.4.5s9.687-9.455,10.323-10.95c.275-.645,2.2-3.41,4.256-7.345l0,.027c.38,3.1.757,5.777,1.044,6.952.9,3.684-5.578,20.686-5.279,21.714.106.367,2.354.545,5.288.547,5.27.005,12.757-.551,14.036-1.574C648.8,1508.3,649.6,1499.587,648.3,1491.652Z" transform="translate(-608.989 -1436.627)" fill="#d8ccff"/>
      <path id="Trazado_100573" data-name="Trazado 100573" d="M687.478,1461.846l5.727,16.447-5.726-5.414.433-1.683a4.018,4.018,0,0,1-1.85-.228c-.534-.345-1.778-8.754-1.778-8.754a7.641,7.641,0,0,1,1.592-.332A14.551,14.551,0,0,1,687.478,1461.846Z" transform="translate(-658.232 -1436.515)" fill="#5038a1"/>
      <path id="Trazado_100574" data-name="Trazado 100574" d="M743.538,1484.932c-4.432-10.268-5.028-19.86-7.688-22.045-2.353-1.932-7.427-2.109-7.427-2.109v0l-.01,0,.009.043c.6,3.426,1.185,5.245,1.028,8.92a52.328,52.328,0,0,1-1.059,7.79s-4.065,31.187-3.459,31.24c4.6.4,11.053-4.246,11.053-4.246-1.394-3.754-.893-21.464-.893-21.467l.062.108c1.426,2.5,2.569,4.2,2.775,4.686.636,1.508,10.323,11.047,10.323,11.047a5.033,5.033,0,0,0,1.4-.5c.063-.037.123-.074.18-.111a2.977,2.977,0,0,0,.781-.748C748.908,1493.96,743.538,1484.932,743.538,1484.932Z" transform="translate(-687.374 -1435.755)" fill="#d8ccff"/>
      <path id="Trazado_100575" data-name="Trazado 100575" d="M737.388,1460.78s1.206,13-.032,16.753c0,0,3.544-5.611,2.88-6.773l-1.284-.847s2.48-.322,2.015-1.746l-2.38-7.292a2.519,2.519,0,0,0-.545-.094Z" transform="translate(-696.339 -1435.755)" fill="#5038a1"/>
      <path id="Trazado_100576" data-name="Trazado 100576" d="M670.711,1541.971c0,3.966-2.43,14.086-4.662,18.459-2.933,0-5.182-.18-5.288-.547-.3-1.027,6.176-18.029,5.279-21.714-.286-1.175-.664-3.853-1.044-6.952C666.982,1533.488,670.711,1538.253,670.711,1541.971Z" transform="translate(-641.335 -1486.331)" fill="#8c6df2"/>
      <path id="Trazado_100577" data-name="Trazado 100577" d="M775.065,1534.882c-.057.038-.117.074-.18.111a5.037,5.037,0,0,1-1.4.5s-9.688-9.539-10.323-11.047c-.206-.49-1.349-2.186-2.775-4.686-.234-1.853-.8-6.723.172-7.9,1.182-1.436,4.053,10.639,4.981,11.989C766.289,1524.947,773.057,1531.69,775.065,1534.882Z" transform="translate(-712.602 -1472.348)" fill="#8c6df2"/>
      <path id="Trazado_100578" data-name="Trazado 100578" d="M705.529,1379.176c-4.234-4.173-6.676-4.032-8.5-2.745-1.167.823-2.874,3.66-3.489,4.521-1.213,1.7,1.553,9.9,1.553,9.9a9.407,9.407,0,0,1-.089-2.191c.259,1.212.526,2.045.526,2.045a29.227,29.227,0,0,1,4.542-7,14.035,14.035,0,0,0,1.853-2.475c2.7,1,4.177,5.33,4.177,5.33C707.078,1384.508,707.353,1380.974,705.529,1379.176Z" transform="translate(-664.656 -1374.618)" fill="#3a2c69"/>
    </g>
    <g id="Grupo_53769" data-name="Grupo 53769" transform="translate(330.397 1084.657)">
      <path id="Trazado_100579" data-name="Trazado 100579" d="M993.055,1665.358a45.311,45.311,0,0,1-31.014-12.306l3.916-3.764L964,1651.17l1.953-1.887a36.207,36.207,0,0,0,8,5.728,39.616,39.616,0,0,0,21.482,4.846c18.139-1.058,26.244-10.693,26.324-10.79l4.2,3.445c-.387.472-9.719,11.571-30.206,12.767Q994.378,1665.359,993.055,1665.358Z" transform="translate(-962.041 -1649.067)" fill="#5038a1"/>
    </g>
    <g id="Grupo_53774" data-name="Grupo 53774" transform="translate(490.594 1016.294)">
      <path id="Trazado_100580" data-name="Trazado 100580" d="M1635.956,1535.281c-.1-2.438-3.388-3.641-3.388-3.641-1.6-.971-1.51-12.343-2.1-19.041a33.061,33.061,0,0,0-.494-3.808c-.941-4.233-1.226-19.208-4.048-21.559s-9.376-3.345-9.376-3.345,2.11,11.3,4.413,23.1c2.5,12.829,8.592,25.09,9.12,25.57l.006,0a10.463,10.463,0,0,0,2.765,3.289c.95.633.443,1.9,1.583,2.026C1635.948,1538.046,1636.005,1536.553,1635.956,1535.281Z" transform="translate(-1592.19 -1462.101)" fill="#ffb48d"/>
      <path id="Trazado_100581" data-name="Trazado 100581" d="M1592.693,1465.414l-.005.927s.253,2.9-3.316,3.322-6.272-1.13-6.176-3.367a26.209,26.209,0,0,0,.7-4.353,10.122,10.122,0,0,0-.127-1.735l6.915-.138,2.037.333Z" transform="translate(-1568.239 -1444.999)" fill="#ffb48d"/>
      <path id="Trazado_100582" data-name="Trazado 100582" d="M1594.181,1460.4l-.026,5.013a5.846,5.846,0,0,1-2.493.55c-3.178,0-5.233-2.331-6.306-4.022a10.1,10.1,0,0,0-.127-1.735l6.915-.138Z" transform="translate(-1569.701 -1444.999)" fill="#f6a071"/>
      <path id="Trazado_100583" data-name="Trazado 100583" d="M1590.358,1432.663s-8.857,1.789-9.886-3.744-2.866-9.028,2.745-10.4,7.106.53,7.9,2.293S1592.635,1432.056,1590.358,1432.663Z" transform="translate(-1565.474 -1414.825)" fill="#ffb48d"/>
      <path id="Trazado_100584" data-name="Trazado 100584" d="M1616.55,1483.887s1.216,6.512,2.81,14.812c.5,2.634,1.048,5.447,1.6,8.289,2.256,4.421,4.192,7.427,4.789,6.862,1.22-1.152,3.361-1.294,4.717-1.251a33.061,33.061,0,0,0-.494-3.808c-.074-.334-.144-.736-.212-1.193-.789-5.326-1.237-18.2-3.836-20.367C1623.1,1484.88,1616.55,1483.887,1616.55,1483.887Z" transform="translate(-1592.19 -1462.101)" fill="#ffdc72"/>
      <path id="Trazado_100585" data-name="Trazado 100585" d="M1642.175,1532.658c1.22-1.152,3.361-1.294,4.717-1.251a33.043,33.043,0,0,0-.494-3.808c-.074-.334-.144-.736-.212-1.192l-6.763-16.325S1641.577,1533.224,1642.175,1532.658Z" transform="translate(-1608.614 -1480.91)" fill="#ffb74d"/>
      <path id="Trazado_100586" data-name="Trazado 100586" d="M1575.1,1894.507a16.961,16.961,0,0,0-1.133-4.181c-.766-1.533-5.644-.558-5.644-.558s-.976.836-1.185,4.739Z" transform="translate(-1556.714 -1753.313)" fill="#2c3f4e"/>
      <path id="Trazado_100587" data-name="Trazado 100587" d="M1652.429,1886.955c-1.146-.7-.482-5.776-.482-5.776s5.34-4.272,6.075-1,5.073,4.74,7.543,5.141c1.7.276,1.816,1.078,1.979,1.637Z" transform="translate(-1617.469 -1745.761)" fill="#2c3f4e"/>
      <path id="Trazado_100588" data-name="Trazado 100588" d="M1594.965,1671.816a24.648,24.648,0,0,1,.392,2.885c.5,9.684,8.152,31.825,9.521,32.342,2.119.8,5.455-.9,7.2-1.456a1.5,1.5,0,0,0,1.05-1.7c-3.791-17.428-5.184-42.523-5.691-57.381a67.416,67.416,0,0,0-1.541-12.653s-18.671-4.981-18.781,1.32C1587.017,1640.748,1593.3,1662.617,1594.965,1671.816Z" transform="translate(-1571.054 -1568.438)" fill="#5038a1"/>
      <path id="Trazado_100589" data-name="Trazado 100589" d="M1594.965,1671.816l12.473-25.311a67.416,67.416,0,0,0-1.541-12.653s-18.671-4.981-18.781,1.32C1587.017,1640.748,1593.3,1662.617,1594.965,1671.816Z" transform="translate(-1571.054 -1568.438)" fill="#3a2c69"/>
      <path id="Trazado_100590" data-name="Trazado 100590" d="M1576.357,1637.577l-9.87,71.535a19.311,19.311,0,0,1-7.706.209s-2.89-38.046-2.649-47.243-2.074-24.612.528-26.312S1576.357,1637.577,1576.357,1637.577Z" transform="translate(-1548.293 -1570.82)" fill="#5038a1"/>
      <path id="Trazado_100591" data-name="Trazado 100591" d="M1554.714,1527.041a1.474,1.474,0,0,0,1.452,1.532l15.553.237,11.424.175c.535.009-1.156-4.271-1.191-32.178-.008-6.227-9.649-12.928-9.827-12.928l0,0c0,.9-1.413,2.552-3.59,2.694-2.584.169-5.754-1.116-5.754-2.6a6.889,6.889,0,0,0-.783,1.01c-1.29,1.879-3.888,6.462-5.547,14.438-1.31,6.3-.806,14.722-1.749,25.589C1554.632,1525.795,1554.734,1526.492,1554.714,1527.041Z" transform="translate(-1547.764 -1462.096)" fill="#fff"/>
      <path id="Trazado_100592" data-name="Trazado 100592" d="M1555.251,1528.66a31.638,31.638,0,0,0,5.935,1.728,58.475,58.475,0,0,0,11.5,1.155c7.56.048,10.423-2.557,10.423-2.557.535.009-1.156-4.271-1.191-32.178-.008-6.227-9.649-12.928-9.827-12.928l0,0s.248,8.293-2.261,10.731c0,0-3.518-2.717-8.083-10.452-1.29,1.88-3.672,7.283-5.331,15.26a43.3,43.3,0,0,0-.707,5.3c-.44,5.5-.342,12.225-1.042,20.293-.069.785.033,1.482.013,2.032C1554.644,1527.87,1554.422,1528.648,1555.251,1528.66Z" transform="translate(-1547.727 -1462.096)" fill="#ffdc72"/>
      <path id="Trazado_100593" data-name="Trazado 100593" d="M1555.251,1568.411a31.638,31.638,0,0,0,5.935,1.728,20.33,20.33,0,0,0,2.962-10.481c.359-8.924-8.118-20.416-8.118-20.416l-.323,5.226c-.44,5.5-.342,12.225-1.042,20.293-.069.785.033,1.482.013,2.032C1554.644,1567.621,1554.422,1568.4,1555.251,1568.411Z" transform="translate(-1547.727 -1501.847)" fill="#ffb74d"/>
      <path id="Trazado_100594" data-name="Trazado 100594" d="M1576.625,1530.547l-11.132-6.427a1.915,1.915,0,0,0-2.616.7l-9.529,16.5a1.916,1.916,0,0,0,.7,2.616l11.132,6.427a1.915,1.915,0,0,0,2.616-.7l9.528-16.5A1.915,1.915,0,0,0,1576.625,1530.547Z" transform="translate(-1546.625 -1490.805)" fill="#8c6df2"/>
      <path id="Trazado_100595" data-name="Trazado 100595" d="M1558.272,1510.943c-.254-.7-2.74-1.6-3.6-1.6s-3.042,2.041-3.093,2.088c-.627-.029-6.783-.324-11.359-.995a28.767,28.767,0,0,1-3.148-.606c-1.049-.281,4.159-13.481,6.787-21.244.627-1.852,1.107-3.395,1.32-4.378,0,0-.459.074-1.18.216-2.045.4-6.2,1.353-7.972,2.69-2.393,1.809-8.368,22.215-4.7,30.1a44.592,44.592,0,0,0,8.018-.231,77.078,77.078,0,0,0,13.8-2.768,1.987,1.987,0,0,0,.367,0,31.9,31.9,0,0,0,4.414-1.045C1558.627,1512.894,1558.525,1511.64,1558.272,1510.943Z" transform="translate(-1530.161 -1462.33)" fill="#ffb48d"/>
      <path id="Trazado_100596" data-name="Trazado 100596" d="M1531.321,1517.7a44.592,44.592,0,0,0,8.018-.231,9.578,9.578,0,0,1,.879-6.549,28.847,28.847,0,0,1-3.148-.606c-1.049-.281,4.159-13.481,6.787-21.244.21-2.509.321-4.189.321-4.189l-.181.027c-2.045.4-6.2,1.353-7.972,2.69C1533.631,1489.4,1527.657,1509.809,1531.321,1517.7Z" transform="translate(-1530.161 -1462.812)" fill="#ffdc72"/>
      <path id="Trazado_100597" data-name="Trazado 100597" d="M1582.628,1492.49s-7.038-3.1-7.142-3.344a5.575,5.575,0,0,1,.836-2.683s-3.38.314-3.589-.1a28.42,28.42,0,0,1-.278-3.9,5.389,5.389,0,0,1,3.066-1.533s1.525,3.782,2.09,4.913A34.883,34.883,0,0,0,1582.628,1492.49Z" transform="translate(-1560.529 -1459.973)" fill="#5038a1"/>
      <path id="Trazado_100598" data-name="Trazado 100598" d="M1610.205,1486.394a23.471,23.471,0,0,1-1.672,6.132s3.676-2.56,3.99-3.4-.889-2.456-.889-2.456,2.2-.053,2.247-.784a23.525,23.525,0,0,0-.679-3.606s-1.795-1.36-2.318-1.308Z" transform="translate(-1586.434 -1460.008)" fill="#5038a1"/>
      <path id="Trazado_100599" data-name="Trazado 100599" d="M1586.613,1408.5a18.559,18.559,0,0,1-5.383-1.456c-2.364-1.028-5.347.1-6.315.614a1.441,1.441,0,0,1,.236-.582,1.3,1.3,0,0,0-.5.739c-.045.033-.065.056-.053.063a1.665,1.665,0,0,0-.809.052s.222-.032.3.111a.132.132,0,0,0,.036.039c-3.688,1.782-4.029,7.611-2.842,8.96a29.6,29.6,0,0,1,3.14,5.277,3.131,3.131,0,0,0,.365-2.291c-.26-1.428.974-1.428,2.531-2.077s.26-2.466,1.623-3.57,6.361-.454,6.3-1.3C1587.094,1412.4,1586.613,1408.689,1586.613,1408.5Z" transform="translate(-1559.25 -1406.626)" fill="#3a2c69"/>
      <path id="Trazado_100600" data-name="Trazado 100600" d="M1594.07,1566.96a.929.929,0,1,0,.929.929A.929.929,0,0,0,1594.07,1566.96Z" transform="translate(-1575.382 -1521.749)" fill="#ffdc72"/>
      <g id="Grupo_53773" data-name="Grupo 53773" transform="translate(27.301 71.337)">
        <g id="Grupo_53770" data-name="Grupo 53770" transform="translate(29.273 65.006)">
          <path id="Trazado_100601" data-name="Trazado 100601" d="M1731.771,1891.621a2.425,2.425,0,1,0,3.183-1.275A2.425,2.425,0,0,0,1731.771,1891.621Z" transform="translate(-1731.354 -1890.15)" fill="#de8d64"/>
          <path id="Trazado_100602" data-name="Trazado 100602" d="M1730.987,1891.621a2.425,2.425,0,1,0,3.183-1.275A2.425,2.425,0,0,0,1730.987,1891.621Z" transform="translate(-1730.791 -1890.15)" fill="#e6ac8b"/>
        </g>
        <g id="Grupo_53771" data-name="Grupo 53771" transform="translate(9.809 65.006)">
          <path id="Trazado_100603" data-name="Trazado 100603" d="M1662.747,1891.621a2.425,2.425,0,1,0,3.183-1.275A2.425,2.425,0,0,0,1662.747,1891.621Z" transform="translate(-1662.329 -1890.15)" fill="#de8d64"/>
          <path id="Trazado_100604" data-name="Trazado 100604" d="M1661.963,1891.621a2.425,2.425,0,1,0,3.183-1.275A2.425,2.425,0,0,0,1661.963,1891.621Z" transform="translate(-1661.767 -1890.15)" fill="#e6ac8b"/>
        </g>
        <path id="Trazado_100605" data-name="Trazado 100605" d="M1683.247,1888.355l-3.448,1.238a3.119,3.119,0,0,1-1.087.184l-19.565-.2-2.136-3.541Z" transform="translate(-1648.543 -1822.189)" fill="#de8d64"/>
        <path id="Trazado_100606" data-name="Trazado 100606" d="M1648.666,1665.44c-.051-.461-.713-5.163-6.337-5.317l-4.088-.431a4.416,4.416,0,0,0-3.319.668,4.121,4.121,0,0,0-1.461,3.246c-.1,1.9,2.291,14.191,3.383,19.684l-7.316,1.463s-3.079,1.252-2.468,6.647c.537,4.747,2.893,31.384,2.893,31.384s.492,5.543,12.331,3.936l-1.559-31.266-.639-12.812-2.218.444c-1.427-7.167-3.445-17.816-3.363-19.426a3.144,3.144,0,0,1,1.046-2.463,3.421,3.421,0,0,1,2.5-.477l4.192.445.041,0c4.944.124,5.331,4.213,5.346,4.386l0,.027,3.489,19.137,1.028-.188Z" transform="translate(-1626.979 -1659.614)" fill="#debc56"/>
        <path id="Trazado_100607" data-name="Trazado 100607" d="M1652.622,1748.475l2.84,29.831a6.739,6.739,0,0,0,6.669,6.1l9.792.061.242,0,6.133.038a6.8,6.8,0,0,0,1.777-.224c.132-.035.262-.074.391-.116a6.735,6.735,0,0,0,4.535-7.438l-4.447-28.542a6.743,6.743,0,0,0-6.02-5.672l-1.73-.166-.412-.039h0l-.347-.033-5.782-.553-.709-.068-5.58-.533a6.743,6.743,0,0,0-2.511.231c-.051.015-.1.03-.155.047l-.322.11A6.744,6.744,0,0,0,1652.622,1748.475Z" transform="translate(-1645.369 -1718.119)" fill="#ffebad"/>
        <path id="Trazado_100608" data-name="Trazado 100608" d="M1667.031,1875.815a6.735,6.735,0,0,0,5.468,2.856l9.792.061.242,0,6.133.038a6.79,6.79,0,0,0,1.777-.224c.132-.035.262-.074.391-.116,2.123-.7,4.57-3.275,4.605-6,0,0-20.714-.271-25.044.4A4.168,4.168,0,0,0,1667.031,1875.815Z" transform="translate(-1655.737 -1812.382)" fill="#debc56"/>
        <g id="Grupo_53772" data-name="Grupo 53772" transform="translate(11.617 23.237)">
          <path id="Trazado_100609" data-name="Trazado 100609" d="M1731.883,1782.389c-.169-1.2-4.145-29.44-4.762-31.956-.541-2.205-3.743-4.4-4.781-5.066l-.412-.039h0l-.347-.033c.043.027,4.585,2.794,5.182,5.226.614,2.5,4.714,31.625,4.755,31.919a6.751,6.751,0,0,1-2.218,4.935l.311-.074c.132-.035.262-.073.391-.116A6.06,6.06,0,0,0,1731.883,1782.389Z" transform="translate(-1706.521 -1744.372)" fill="#debc56"/>
          <path id="Trazado_100610" data-name="Trazado 100610" d="M1702.6,1748.876a9.2,9.2,0,0,0-3.335-5.714l-.709-.068a8.841,8.841,0,0,1,3.679,5.837c.624,4.1,3.062,33.913,3.086,34.213l0,.022.006.02a3.316,3.316,0,0,1-.651,2.716l.246,0,.242,0a3.19,3.19,0,0,0,.521-2.812C1705.617,1782.172,1703.224,1752.947,1702.6,1748.876Z" transform="translate(-1689.992 -1742.792)" fill="#debc56"/>
          <path id="Trazado_100611" data-name="Trazado 100611" d="M1672.318,1747.939a8.425,8.425,0,0,0-3.665-5.917c-.051.015-.1.03-.155.047l-.322.111a7.685,7.685,0,0,1,1.776,1.467,8.421,8.421,0,0,1,2,4.348c.624,4.1,2.557,33.812,2.576,34.111v.023l.007.021a4.515,4.515,0,0,1-.913,2.926l.617,0a4.8,4.8,0,0,0,.655-3.019C1674.834,1781.111,1672.937,1752.01,1672.318,1747.939Z" transform="translate(-1668.176 -1742.023)" fill="#debc56"/>
        </g>
      </g>
    </g>
    <g id="Grupo_53777" data-name="Grupo 53777" transform="translate(399.847 1008.663)">
      <g id="man" transform="translate(0 0)">
        <g id="Grupo_53775" data-name="Grupo 53775" transform="translate(10.755 66.931)">
          <path id="Trazado_100612" data-name="Trazado 100612" d="M1381.263,1868.516c-.471,1.589-2.651,2.651-2.944,4.594a3.544,3.544,0,0,1-1.812,2.845h-5.846c-.139-.371-.315-1.294,1.175-1.621,1.886-.414,2.595-2.7,2.478-4.818a27.684,27.684,0,0,1,.018-2.78c.059-1.214.158-2.167.158-2.167l4.006-.943.42.541.4.519S1381.735,1866.925,1381.263,1868.516Z" transform="translate(-1335.58 -1794.062)" fill="#3a2c69"/>
          <path id="Trazado_100613" data-name="Trazado 100613" d="M1260.233,1889.176H1246.48a2.351,2.351,0,0,1,2.1-1.513c2.112-.341,5.771-1.572,6.587-4.269.026-.088.05-.175.069-.265.648-2.887,5.359.883,5.359.883s.014.115.034.309C1260.73,1885.33,1260.99,1888.5,1260.233,1889.176Z" transform="translate(-1246.48 -1807.284)" fill="#3a2c69"/>
          <path id="Trazado_100614" data-name="Trazado 100614" d="M1255.9,1630.7s.716,8.929,1.557,19.662c1.143,14.58,2.518,32.489,2.654,35.882.235,5.891,1.179,15.315,1.179,15.315s2.237,2.239,6.715,1.3a154.176,154.176,0,0,0,5.13-27.687c.017-.233.035-.468.053-.7,1.06-14.49,2.709-45,2.709-45Z" transform="translate(-1253.243 -1625.925)" fill="#5038a1"/>
          <path id="Trazado_100615" data-name="Trazado 100615" d="M1255.9,1630.7s.716,8.929,1.557,19.662l15.678,24.806c.017-.233.035-.468.053-.7,1.06-14.49,2.709-45,2.709-45Z" transform="translate(-1253.243 -1625.925)" fill="#3a2c69"/>
          <path id="Trazado_100616" data-name="Trazado 100616" d="M1267.49,1622.758s12.9,32.337,21.381,47.534S1300,1689.73,1300,1689.73s4.859-1.944,5.3-3.269c0,0-3.243-29.338-8.924-36.49-3.21-4.041-6.98-16.169-7.157-20.41s-1.148-12.634-1.148-12.634Z" transform="translate(-1261.566 -1616.927)" fill="#5038a1"/>
        </g>
        <path id="Trazado_100617" data-name="Trazado 100617" d="M1211.973,1605.947l-.737,1.469a3.3,3.3,0,0,0-2.717,4.433s.556,1.608,1.59,1.1.525-.466,2.006-1.15,2.339-2,2.008-3.207l.237-1.28Z" transform="translate(-1208.338 -1542.112)" fill="#994b2a"/>
        <path id="Trazado_100618" data-name="Trazado 100618" d="M1282.283,1433.42a37.9,37.9,0,0,1-.591-5.393l6.545-5.275a13.126,13.126,0,0,0,4.4,10.74s-8.722,4.293-13.763,2.7A12.074,12.074,0,0,1,1282.283,1433.42Z" transform="translate(-1258.987 -1410.574)" fill="#914024"/>
        <path id="Trazado_100619" data-name="Trazado 100619" d="M1279.252,1405.958s8.326,1.383,9.108-3.815,2.383-8.521-2.9-9.624-6.617.725-7.3,2.4S1277.106,1405.464,1279.252,1405.958Z" transform="translate(-1258.09 -1388.625)" fill="#994b2a"/>
        <path id="Trazado_100620" data-name="Trazado 100620" d="M1288.257,1393.44a8.617,8.617,0,0,0-7.755-8.081c-5.2-.766-2.049-5.107-1.455-5.8,0,0,3.972.758,8.038,1.65C1295.618,1383.088,1289.158,1392.405,1288.257,1393.44Z" transform="translate(-1258.041 -1379.564)" fill="#3a2c69"/>
        <path id="Trazado_100621" data-name="Trazado 100621" d="M1219.386,1513.084a14.247,14.247,0,0,1-1.939-2.629s9.46-11.753,10.229-12.972,6.514-20.769,6.514-20.769l14.53-2.943s-12.127,25.02-14.137,28.07c-3.32,5.04-13.252,12.542-13.252,12.542A5.981,5.981,0,0,1,1219.386,1513.084Z" transform="translate(-1214.879 -1447.206)" fill="#e8e8e8"/>
        <path id="Trazado_100622" data-name="Trazado 100622" d="M1253.5,1504.9a.813.813,0,0,0,.53.2c1.893-.026,7.413,1.026,12.083.546a34.8,34.8,0,0,0,11.165-3.222c.5-.223,1.641-.833,1.615-1.389-.017-.608-.077-1.49-.153-2.6a139.2,139.2,0,0,1-.276-18.173c.081-1.427.123-2.843.128-4.237.039-10.389-2-19.671-6.141-22.764-.354-.254-2.544.952-4.539,1.936a8.255,8.255,0,0,1-5.427.657l-1.741,1.54a17.4,17.4,0,0,0-5.452,8.709c-.859,3.458-1.363,9.694-1.641,16.156-.126,2.928-.228,5.882-.253,8.684v.1c-.024.277-.024.581-.024.859C1253.273,1499.1,1253.374,1504.8,1253.5,1504.9Z" transform="translate(-1240.645 -1432.459)" fill="#fff"/>
        <path id="Trazado_100623" data-name="Trazado 100623" d="M1322.9,1538.115a139.213,139.213,0,0,1-.276-18.173c.081-1.427.123-2.843.129-4.237-1.724-4.183-3.134-7.217-3.134-7.217h-4.347S1312.086,1530.255,1322.9,1538.115Z" transform="translate(-1284.805 -1472.134)" fill="#e8e8e8"/>
        <g id="Grupo_53776" data-name="Grupo 53776" transform="translate(31.236 68.854)">
          <path id="Trazado_100624" data-name="Trazado 100624" d="M1359.68,1645.646l-3.375-10.858a6.228,6.228,0,0,0-7.772-4.086l-25.056,7.787a6.227,6.227,0,0,0-4.086,7.772l3.374,10.858a6.227,6.227,0,0,0,7.772,4.086l25.056-7.787A6.227,6.227,0,0,0,1359.68,1645.646Z" transform="translate(-1319.113 -1628.541)" fill="#ce8d2e"/>
          <path id="Trazado_100625" data-name="Trazado 100625" d="M1371.421,1639.945l-3.413-10.985a6.25,6.25,0,0,0-7.8-4.1l-8.612,2.677-.727-2.342a2.062,2.062,0,0,0-2.575-1.355l-.492.153-4.481,1.393-2.51.781a2.061,2.061,0,0,0-1.353,2.575l.727,2.342-4.988,1.551a5.714,5.714,0,0,0-.559.2l-.006,0s0,0,0,0l-.026.012a6.249,6.249,0,0,0-3.506,7.58l3.413,10.985a6.256,6.256,0,0,0,6.47,4.359h0a6.153,6.153,0,0,0,1.326-.257l.012,0,25-7.77A6.247,6.247,0,0,0,1371.421,1639.945Zm-30.006-9.246-.727-2.342a.767.767,0,0,1,.505-.961l2.439-.758,4.169-1.3.875-.271a.753.753,0,0,1,.228-.036.769.769,0,0,1,.733.541l.729,2.342Z" transform="translate(-1327.516 -1623.746)" fill="#debc56"/>
        </g>
        <path id="Trazado_100626" data-name="Trazado 100626" d="M1373.43,1615.177l.825,1.422a3.3,3.3,0,0,0,2.219,4.7s1.65.417,1.791-.727-.1-.694.137-2.308-.391-3.053-1.582-3.438l-.94-.9Z" transform="translate(-1326.878 -1547.843)" fill="#994b2a"/>
        <path id="Trazado_100627" data-name="Trazado 100627" d="M1324.381,1502.395a14.245,14.245,0,0,1-3.262.182s-4.647-14.354-5.245-15.666-13.8-16.831-13.8-16.831l5.5-13.766s14.282,23.856,15.732,27.208c2.4,5.539,3.228,17.958,3.228,17.958A5.98,5.98,0,0,1,1324.381,1502.395Z" transform="translate(-1275.641 -1434.672)" fill="#fff"/>
      </g>
    </g>
    <g id="Grupo_53778" data-name="Grupo 53778" transform="translate(328.044 1073.264)">
      <path id="Trazado_100628" data-name="Trazado 100628" d="M960.069,1610.183V1692a1.6,1.6,0,0,1-1.663,1.52h-3.048a1.6,1.6,0,0,1-1.663-1.52v-81.819a1.6,1.6,0,0,1,1.663-1.52h3.048A1.6,1.6,0,0,1,960.069,1610.183Z" transform="translate(-953.695 -1608.663)" fill="#debc56"/>
      <path id="Trazado_100629" data-name="Trazado 100629" d="M957.367,1610.183V1692a1.6,1.6,0,0,1-1.663,1.52h-.346a1.6,1.6,0,0,1-1.663-1.52v-81.819a1.6,1.6,0,0,1,1.663-1.52h.346A1.6,1.6,0,0,1,957.367,1610.183Z" transform="translate(-953.695 -1608.663)" fill="#ce8d2e"/>
      <path id="Trazado_100630" data-name="Trazado 100630" d="M1178.247,1610.183V1692a1.6,1.6,0,0,1-1.663,1.52h-3.094a1.6,1.6,0,0,1-1.617-1.519v-81.819a1.6,1.6,0,0,1,1.617-1.518h3.094A1.6,1.6,0,0,1,1178.247,1610.183Z" transform="translate(-1110.352 -1608.663)" fill="#debc56"/>
      <path id="Trazado_100631" data-name="Trazado 100631" d="M1175.106,1610.186v81.819a1.62,1.62,0,0,1-3.233,0v-81.819a1.62,1.62,0,0,1,3.233,0Z" transform="translate(-1110.352 -1608.667)" fill="#ce8d2e"/>
    </g>
    <g id="Grupo_53779" data-name="Grupo 53779" transform="translate(135.89 1070.799)">
      <path id="Trazado_100632" data-name="Trazado 100632" d="M463.2,1663.11a2.38,2.38,0,0,0-2.305-1.817H393.243c-.054,0-.107-.007-.161-.007H318.62a2.591,2.591,0,0,0-2.506,1.836,1.873,1.873,0,0,0-.078.532v56.569c0,6.063,5.4,11.063,11.98,11.063h67.415a.178.178,0,0,0,.048-.011H452.2a11.1,11.1,0,0,0,11.063-11.063v-56.547A2.347,2.347,0,0,0,463.2,1663.11Z" transform="translate(-303.688 -1643.983)" fill="#ffebad"/>
      <path id="Trazado_100633" data-name="Trazado 100633" d="M463.256,1663.654v7.85l-73.55,12.343-73.67,12.391v-32.584a2.016,2.016,0,0,1,.072-.532,2.428,2.428,0,0,1,2.319-1.836H433.183l29.951,1.836A1.414,1.414,0,0,1,463.256,1663.654Z" transform="translate(-303.688 -1643.983)" fill="#ffcb80"/>
      <path id="Trazado_100634" data-name="Trazado 100634" d="M449.709,1599.921H276.872a4.639,4.639,0,0,0-4.626,4.625v12a4.755,4.755,0,0,0,4.741,4.741h172.6a4.946,4.946,0,0,0,4.931-4.931v-11.622A4.825,4.825,0,0,0,449.709,1599.921Z" transform="translate(-272.246 -1599.921)" fill="#ce8d2e"/>
    </g>
    <g id="Grupo_53780" data-name="Grupo 53780" transform="translate(457.452 1063.586)">
      <path id="Trazado_100635" data-name="Trazado 100635" d="M1461.641,1658.134s5.917-2.693,10.393-.337,1.74,21.8-4.662,23.687h0S1453.631,1698.188,1461.641,1658.134Z" transform="translate(-1446.019 -1633.571)" fill="#3a2c69"/>
      <path id="Trazado_100636" data-name="Trazado 100636" d="M1419.726,1653.147a32.737,32.737,0,0,1,.275-6.4s-2.01-.1-3.136,2.545c-2.332,5.49-1.319,17.341-1.178,19.037,0,0-.8,3.369.389,9.2a10.008,10.008,0,0,1-.554,1.165.625.625,0,0,0-.058.075h0a.687.687,0,0,0-.01.746l.771,1.222a.685.685,0,0,0,.291.255h0a.692.692,0,0,0,.119.042l.955.226.094-3.252s-.007,0-.011,0C1418,1674.821,1419.994,1655.237,1419.726,1653.147Zm-2.466,25.1-.02-.026.039.024C1417.271,1678.243,1417.263,1678.245,1417.26,1678.242Z" transform="translate(-1414.581 -1626.331)" fill="#914024"/>
      <path id="Trazado_100637" data-name="Trazado 100637" d="M1472.575,1897.34l-.76,2.745h-6.425S1463.477,1896.576,1472.575,1897.34Z" transform="translate(-1450.391 -1806.183)" fill="#2c3f4e"/>
      <path id="Trazado_100638" data-name="Trazado 100638" d="M1423.719,1897.34l-.761,2.745h-6.424S1414.621,1896.576,1423.719,1897.34Z" transform="translate(-1415.312 -1806.183)" fill="#2c3f4e"/>
      <path id="Trazado_100639" data-name="Trazado 100639" d="M1443.738,1578.328c-.8-1.241-1.926-1.295-3.008-2.346a6.964,6.964,0,0,0-4.427-1.64c-4.834,0-9.02,2.96-8.066,7.978.3,1.595.047,2.851,1.34,4.715,1.613,2.327,3.575,4.194,6.726,4.194a6.031,6.031,0,0,0,4.427-1.6c.7-.663,1.709-.745,2.327-1.468,1.249-1.459,1.155-3.383,1.614-5.37A5.414,5.414,0,0,0,1443.738,1578.328Z" transform="translate(-1423.737 -1574.342)" fill="#3a2c69"/>
      <path id="Trazado_100640" data-name="Trazado 100640" d="M1442.537,1618.962s1.06,4.1-1.084,5.843l6.025,3.08.794-3.986a19.636,19.636,0,0,1-.826-7.45Z" transform="translate(-1433.324 -1604.575)" fill="#914024"/>
      <path id="Trazado_100641" data-name="Trazado 100641" d="M1438.466,1605.385s6.167.752,6.3-3.594-2.439-7.159-4.154-7.127c-3.422.064-3.986,1.447-4.382,2.886S1435.626,1605.079,1438.466,1605.385Z" transform="translate(-1429.408 -1588.934)" fill="#994b2a"/>
      <path id="Trazado_100642" data-name="Trazado 100642" d="M1420.778,1749.135l12.188,1.008s1.432,21.375-6.577,41.19a11.759,11.759,0,0,1-3.652.381,9.706,9.706,0,0,1-3.177-.511Z" transform="translate(-1417.604 -1699.847)" fill="#3a2c69"/>
      <path id="Trazado_100643" data-name="Trazado 100643" d="M1456.12,1753.49s3.75,14.567.709,41.153a13.8,13.8,0,0,1-3.992.5,17.686,17.686,0,0,1-4.279-.494l-3.968-34.515c-.152-1.022-2.148-6.39-2.148-6.39Z" transform="translate(-1434.034 -1702.974)" fill="#5038a1"/>
      <path id="Trazado_100644" data-name="Trazado 100644" d="M1434.988,1652.433l.8-6.546c-.121-.169-.218-.314-.338-.459-1.4-1.715-6.787-2.464-7.874-2.584-.048.048-2.536,2.1-4.323,1.86-1.522-.193-1.783-1-1.735-1.87a16.577,16.577,0,0,0-4.988,1.545c-3.248,1.218-3.9,12.009-3.9,12.009a17.585,17.585,0,0,1,3.587.436l-.4,16c7.753,3.381,18.913,1.208,18.913,1.208l-.024-.1-.749-12.8.7-5.846Z" transform="translate(-1412.625 -1623.521)" fill="#ffebad"/>
      <path id="Trazado_100645" data-name="Trazado 100645" d="M1444.031,1622.868s-.135.542-1.485.442c0,0-1.134-.084-1.092-.68A3.65,3.65,0,0,1,1444.031,1622.868Z" transform="translate(-1433.324 -1608.922)" fill="#fff"/>
      <path id="Trazado_100646" data-name="Trazado 100646" d="M1473.776,1696.781c.528.661,3.126.892,4.686.414l-.761-12.783,1.046-8.7-1.011-.469s-4.437,3.56-3.919,6.4S1473.1,1695.933,1473.776,1696.781Z" transform="translate(-1456.383 -1646.794)" fill="#ffcb80"/>
      <path id="Trazado_100647" data-name="Trazado 100647" d="M1477.615,1653.111s-3.74,1.186-5.071,2.3a2.541,2.541,0,0,1-.322.238l-4.8-9.2-.894-1.763-.821-1.666-.073-.145a1.091,1.091,0,0,1,.193.024,27.581,27.581,0,0,1,2.9.483,18.61,18.61,0,0,1,2.512.725h.024a5.667,5.667,0,0,1,2.246,1.353c.121.145.217.29.338.459A59.127,59.127,0,0,1,1477.615,1653.111Z" transform="translate(-1450.687 -1623.547)" fill="#ffebad"/>
      <path id="Trazado_100648" data-name="Trazado 100648" d="M1465.795,1671.721s-16.69-17.85-6.039-25.748a11.258,11.258,0,0,1,2.2-1.3,18.653,18.653,0,0,1,2.512.725,8.056,8.056,0,0,0-3.816,2.343c-2.585,2.874-3.792,8.985,5,21.715Z" transform="translate(-1443.915 -1624.838)" fill="#3a2c69"/>
      <path id="Trazado_100649" data-name="Trazado 100649" d="M1446.938,1593.254s5.27,0,4.059,3.615c-.763,2.281,1.775,2.635,1.775,2.635a25.522,25.522,0,0,0,1.222-3.655c.092-.731-.171-2.411-.765-2.848C1451.96,1592.069,1446.938,1593.254,1446.938,1593.254Z" transform="translate(-1437.262 -1587.483)" fill="#3a2c69"/>
      <path id="Trazado_100650" data-name="Trazado 100650" d="M1469.991,1679.311c-1.629.5-4.232,1.53-4.981,2.266.828,1.9,1.374,3.232,1.374,3.232a36.029,36.029,0,0,0-5.511-.658h0c-.189-.014-1.716-.514-1.716-.514a2.929,2.929,0,0,0-2.994-2.812s-1.242.007-.987.855.281.479.614,1.684a2.72,2.72,0,0,0,2.12,2.175c4.426,3.721,10.521,3.751,12.358,3.666a.732.732,0,0,0,.682-.563A15.666,15.666,0,0,0,1469.991,1679.311Z" transform="translate(-1443.154 -1649.712)" fill="#914024"/>
    </g>
    <g id="Grupo_53783" data-name="Grupo 53783" transform="translate(144.529 983.257)">
      <path id="Trazado_100652" data-name="Trazado 100652" d="M0,0H57.668V73.747H0Z" transform="translate(0 0.63)" fill="#ffebad"/>
      <rect id="Rectángulo_5167" data-name="Rectángulo 5167" width="57.668" height="17.295" transform="translate(0)" fill="#ffdc72"/>
      <g id="Grupo_53781" data-name="Grupo 53781" transform="translate(4.73 24.103)">
        <path id="Rectángulo_5168" data-name="Rectángulo 5168" d="M2.509,0H19.23a2.509,2.509,0,0,1,2.509,2.509v0a2.509,2.509,0,0,1-2.509,2.509H2.509A2.509,2.509,0,0,1,0,2.509v0A2.509,2.509,0,0,1,2.509,0Z" fill="#ffcb80"/>
        <path id="Rectángulo_5169" data-name="Rectángulo 5169" d="M2.509,0H19.23a2.509,2.509,0,0,1,2.509,2.509v0a2.509,2.509,0,0,1-2.509,2.509H2.509A2.509,2.509,0,0,1,0,2.509v0A2.509,2.509,0,0,1,2.509,0Z" transform="translate(0 11.855)" fill="#ffcb80"/>
        <rect id="Rectángulo_5170" data-name="Rectángulo 5170" width="21.739" height="5.018" rx="2.509" transform="translate(0 23.71)" fill="#ffcb80"/>
        <rect id="Rectángulo_5171" data-name="Rectángulo 5171" width="21.739" height="5.018" rx="2.509" transform="translate(0 35.564)" fill="#ffcb80"/>
        <path id="Rectángulo_5172" data-name="Rectángulo 5172" d="M2.509,0H19.23a2.509,2.509,0,0,1,2.509,2.509v0a2.509,2.509,0,0,1-2.509,2.509H2.509A2.509,2.509,0,0,1,0,2.509v0A2.509,2.509,0,0,1,2.509,0Z" transform="translate(25.463)" fill="#ffcb80"/>
        <path id="Rectángulo_5173" data-name="Rectángulo 5173" d="M2.509,0h16.72a2.509,2.509,0,0,1,2.509,2.509v0A2.509,2.509,0,0,1,19.23,5.019H2.509A2.509,2.509,0,0,1,0,2.509v0A2.509,2.509,0,0,1,2.509,0Z" transform="translate(25.463 11.855)" fill="#ffcb80"/>
        <rect id="Rectángulo_5174" data-name="Rectángulo 5174" width="21.739" height="5.018" rx="2.509" transform="translate(25.463 23.71)" fill="#ffcb80"/>
        <rect id="Rectángulo_5175" data-name="Rectángulo 5175" width="21.739" height="5.018" rx="2.509" transform="translate(25.463 35.564)" fill="#ffcb80"/>
      </g>
      <g id="Grupo_53782" data-name="Grupo 53782" transform="translate(4.579 5.83)">
        <path id="Rectángulo_5176" data-name="Rectángulo 5176" d="M2.955,0h15.83a2.955,2.955,0,0,1,2.955,2.955v0a2.955,2.955,0,0,1-2.955,2.955H2.955A2.955,2.955,0,0,1,0,2.955v0A2.955,2.955,0,0,1,2.955,0Z" fill="#8c6df2"/>
        <path id="Rectángulo_5177" data-name="Rectángulo 5177" d="M2.955,0h15.83a2.955,2.955,0,0,1,2.955,2.955v0a2.955,2.955,0,0,1-2.955,2.955H2.955A2.955,2.955,0,0,1,0,2.955v0A2.955,2.955,0,0,1,2.955,0Z" transform="translate(25.764)" fill="#8c6df2"/>
      </g>
    </g>
    <path id="Trazado_100651" data-name="Trazado 100651" d="M1088.445,1301.854a12.057,12.057,0,0,1,2.909-.607l-4.529-8.059,1.182-.292c1.182-.292,8.358,4.671,8.991,5.055.514.312,4.254.23,5.647.189.993-.269,2.067-.557,3.2-.86-.583-.686-1.186-1.41-1.186-1.41a1.9,1.9,0,0,1,.557-.019.4.4,0,0,1,.2.082l1.681,1.011c4.013-1.071,8.563-2.272,12.583-3.329,6.073-1.6,10.941-2.864,10.941-2.864a10.129,10.129,0,0,1,5.869-.073c.257.089.438.172.548.222l.02.009c.469.214,1.917.064,2.443.765s-2.956,2.65-4.673,3.339c-.574.23-3.718,1.1-7.771,2.181-1.084.29-2.234.6-3.417.909l.2.74a2.732,2.732,0,0,1-.34.217,8.142,8.142,0,0,1-2.082.77,10.218,10.218,0,0,1-2.841.326l-.063-.235a6.68,6.68,0,0,1-1.132-.006.48.48,0,0,1-.251-.1c-5.584,1.46-10.66,2.77-12.041,3.124-2.464.631-8.252.618-11.516.543h-.022c-.917-.021-1.633-.048-2.015-.066l-.206-.011a.875.875,0,0,1-.368-.1,1.136,1.136,0,0,1-.5-.919Z" transform="translate(-721.242 -306.804)" fill="#d8ccff"/>
    <path id="Rectángulo_5178" data-name="Rectángulo 5178" d="M.425,0H519.739a.425.425,0,0,1,.425.425v0a.425.425,0,0,1-.425.425H.425A.425.425,0,0,1,0,.425v0A.425.425,0,0,1,.425,0Z" transform="translate(82.341 1157.487)" fill="#5038a1"/>
  </g>
</svg>
