<svg xmlns="http://www.w3.org/2000/svg" width="325.904" height="269.657" viewBox="0 0 325.904 269.657">
  <g id="Grupo_53854" data-name="Grupo 53854" transform="translate(-1328.58 -930.796)">
    <g id="Background" transform="translate(1341.835 930.796)">
      <path id="Trazado_100654" data-name="Trazado 100654" d="M1461.008,955.371c-6.116-.5-12.876,1.58-18.058-1.709-2.436-1.546-4.079-4.064-6.294-5.913-4.457-3.72-10.717-4.353-16.513-4.028a62.148,62.148,0,0,0-23.107,6,67.829,67.829,0,0,0-31.163,30.18c-3.5,7.026-.911,11.146,4.054,16.537,2.369,2.572,4.9,5.079,5.495,8.684.652,3.946-1.473,7.759-1.068,11.713.556,5.435,5.84,9.4,11.225,10.327s10.862-.491,16.157-1.836,10.828-2.636,16.167-1.476c7.541,1.638,13.273,7.831,20.5,10.528a24.1,24.1,0,0,0,27.233-8.33c3.026-4.239,4.546-9.34,6.016-14.337l5.267-17.9c2.3-7.817,4.6-16.194,2.17-23.971A21.257,21.257,0,0,0,1461.008,955.371Z" transform="translate(-1363.074 -938.445)" fill="#fff"/>
      <g id="Grupo_53802" data-name="Grupo 53802" transform="translate(58.097 27.786)">
        <path id="Trazado_100752" data-name="Trazado 100752" d="M0,0H34.513V19.2H0Z" fill="#d8ccff"/>
        <g id="Grupo_53785" data-name="Grupo 53785" transform="translate(1.569 2.157)">
          <path id="Trazado_100655" data-name="Trazado 100655" d="M1515.376,1004.766H1509.3a.608.608,0,0,0,0,1.214h6.072A.608.608,0,0,0,1515.376,1004.766Z" transform="translate(-1508.717 -1004.766)" fill="#fff"/>
        </g>
        <g id="Grupo_53786" data-name="Grupo 53786" transform="translate(14.261 2.157)">
          <path id="Trazado_100656" data-name="Trazado 100656" d="M1544.127,1004.766h-3.469a.608.608,0,0,0,0,1.214h3.469A.608.608,0,0,0,1544.127,1004.766Z" transform="translate(-1540.071 -1004.766)" fill="#fff"/>
        </g>
        <g id="Grupo_53787" data-name="Grupo 53787" transform="translate(1.569 4.075)">
          <path id="Trazado_100657" data-name="Trazado 100657" d="M1518.069,1009.5H1509.3a.608.608,0,0,0,0,1.214h8.766A.608.608,0,0,0,1518.069,1009.5Z" transform="translate(-1508.717 -1009.503)" fill="#fff"/>
        </g>
        <g id="Grupo_53788" data-name="Grupo 53788" transform="translate(14.261 4.075)">
          <path id="Trazado_100658" data-name="Trazado 100658" d="M1544.127,1009.5h-3.469a.608.608,0,0,0,0,1.214h3.469A.608.608,0,0,0,1544.127,1009.5Z" transform="translate(-1540.071 -1009.503)" fill="#fff"/>
        </g>
        <g id="Grupo_53789" data-name="Grupo 53789" transform="translate(1.569 5.992)">
          <path id="Trazado_100659" data-name="Trazado 100659" d="M1516.289,1014.24H1509.3a.608.608,0,0,0,0,1.214h6.985A.608.608,0,0,0,1516.289,1014.24Z" transform="translate(-1508.717 -1014.24)" fill="#fff"/>
        </g>
        <g id="Grupo_53790" data-name="Grupo 53790" transform="translate(15.585 5.992)">
          <path id="Trazado_100660" data-name="Trazado 100660" d="M1546.073,1014.24h-2.146a.608.608,0,0,0,0,1.214h2.146A.608.608,0,0,0,1546.073,1014.24Z" transform="translate(-1543.341 -1014.24)" fill="#fff"/>
        </g>
        <g id="Grupo_53791" data-name="Grupo 53791" transform="translate(15.585 15.717)">
          <path id="Trazado_100661" data-name="Trazado 100661" d="M1546.073,1038.262h-2.146a.608.608,0,0,0,0,1.214h2.146A.608.608,0,0,0,1546.073,1038.262Z" transform="translate(-1543.341 -1038.262)" fill="#fff"/>
        </g>
        <g id="Grupo_53792" data-name="Grupo 53792" transform="translate(26.507 13.79)">
          <path id="Trazado_100662" data-name="Trazado 100662" d="M1570.322,1037.2a.072.072,0,0,0,.006.023h.262a.072.072,0,0,0,.006-.023v-3.7h-.275Z" transform="translate(-1570.322 -1033.503)" fill="#fff"/>
        </g>
        <g id="Grupo_53793" data-name="Grupo 53793" transform="translate(29.651 13.79)">
          <path id="Trazado_100663" data-name="Trazado 100663" d="M1578.09,1037.2a.083.083,0,0,0,.006.023h.262a.068.068,0,0,0,.006-.023v-3.7h-.274Z" transform="translate(-1578.09 -1033.503)" fill="#fff"/>
        </g>
        <g id="Grupo_53794" data-name="Grupo 53794" transform="translate(27.758 13.79)">
          <path id="Trazado_100664" data-name="Trazado 100664" d="M1573.414,1037.2a.083.083,0,0,0,.006.023h.262a.072.072,0,0,0,.006-.023v-3.7h-.274Z" transform="translate(-1573.414 -1033.503)" fill="#fff"/>
        </g>
        <g id="Grupo_53795" data-name="Grupo 53795" transform="translate(28.155 13.79)">
          <path id="Trazado_100665" data-name="Trazado 100665" d="M1574.394,1037.2a.072.072,0,0,0,.006.023h.262a.083.083,0,0,0,.006-.023v-3.7h-.275Z" transform="translate(-1574.394 -1033.503)" fill="#fff"/>
        </g>
        <g id="Grupo_53796" data-name="Grupo 53796" transform="translate(29.163 13.79)">
          <path id="Trazado_100666" data-name="Trazado 100666" d="M1576.883,1037.2a.083.083,0,0,0,.006.023h.262a.072.072,0,0,0,.006-.023v-3.7h-.275Z" transform="translate(-1576.883 -1033.503)" fill="#fff"/>
        </g>
        <g id="Grupo_53797" data-name="Grupo 53797" transform="translate(26.949 13.79)">
          <path id="Trazado_100667" data-name="Trazado 100667" d="M1571.415,1037.2c0,.009.005.015.007.023h.537c0-.008.006-.014.006-.023v-3.7h-.55Z" transform="translate(-1571.415 -1033.503)" fill="#fff"/>
        </g>
        <g id="Grupo_53798" data-name="Grupo 53798" transform="translate(28.506 13.79)">
          <path id="Trazado_100668" data-name="Trazado 100668" d="M1575.262,1037.2c0,.009,0,.015.006.023h.537c0-.008.006-.014.006-.023v-3.7h-.549Z" transform="translate(-1575.262 -1033.503)" fill="#fff"/>
        </g>
        <g id="Grupo_53799" data-name="Grupo 53799" transform="translate(31.208 13.79)">
          <path id="Trazado_100669" data-name="Trazado 100669" d="M1581.936,1037.2a.079.079,0,0,0,.006.023h.263a.078.078,0,0,0,.006-.023v-3.7h-.275Z" transform="translate(-1581.936 -1033.503)" fill="#fff"/>
        </g>
        <g id="Grupo_53800" data-name="Grupo 53800" transform="translate(30.705 13.79)">
          <path id="Trazado_100670" data-name="Trazado 100670" d="M1580.692,1037.2a.083.083,0,0,0,.006.023h.262a.072.072,0,0,0,.006-.023v-3.7h-.274Z" transform="translate(-1580.692 -1033.503)" fill="#fff"/>
        </g>
        <g id="Grupo_53801" data-name="Grupo 53801" transform="translate(30.063 13.79)">
          <path id="Trazado_100671" data-name="Trazado 100671" d="M1579.108,1037.2a.135.135,0,0,0,.006.023h.537c0-.008.006-.014.006-.023v-3.7h-.549Z" transform="translate(-1579.108 -1033.503)" fill="#fff"/>
        </g>
      </g>
      <g id="Grupo_53820" data-name="Grupo 53820" transform="translate(51.567 31.976)">
        <path id="Trazado_100753" data-name="Trazado 100753" d="M0,0H34.513V19.2H0Z" fill="#ffebad"/>
        <g id="Grupo_53803" data-name="Grupo 53803" transform="translate(1.569 2.157)">
          <path id="Trazado_100672" data-name="Trazado 100672" d="M1499.245,1015.117h-6.072a.608.608,0,0,0,0,1.214h6.072A.608.608,0,0,0,1499.245,1015.117Z" transform="translate(-1492.587 -1015.117)" fill="#fff"/>
        </g>
        <g id="Grupo_53804" data-name="Grupo 53804" transform="translate(14.261 2.157)">
          <path id="Trazado_100673" data-name="Trazado 100673" d="M1528,1015.117h-3.47a.608.608,0,0,0,0,1.214H1528A.608.608,0,0,0,1528,1015.117Z" transform="translate(-1523.94 -1015.117)" fill="#fff"/>
        </g>
        <g id="Grupo_53805" data-name="Grupo 53805" transform="translate(1.569 4.075)">
          <path id="Trazado_100674" data-name="Trazado 100674" d="M1501.939,1019.853h-8.766a.608.608,0,0,0,0,1.214h8.766A.608.608,0,0,0,1501.939,1019.853Z" transform="translate(-1492.587 -1019.853)" fill="#fff"/>
        </g>
        <g id="Grupo_53806" data-name="Grupo 53806" transform="translate(14.261 4.075)">
          <path id="Trazado_100675" data-name="Trazado 100675" d="M1528,1019.853h-3.47a.608.608,0,0,0,0,1.214H1528A.608.608,0,0,0,1528,1019.853Z" transform="translate(-1523.94 -1019.853)" fill="#fff"/>
        </g>
        <g id="Grupo_53807" data-name="Grupo 53807" transform="translate(1.569 5.992)">
          <path id="Trazado_100676" data-name="Trazado 100676" d="M1500.158,1024.59h-6.985a.608.608,0,0,0,0,1.214h6.985A.608.608,0,0,0,1500.158,1024.59Z" transform="translate(-1492.587 -1024.59)" fill="#fff"/>
        </g>
        <g id="Grupo_53808" data-name="Grupo 53808" transform="translate(15.585 5.992)">
          <path id="Trazado_100677" data-name="Trazado 100677" d="M1529.943,1024.59H1527.8a.608.608,0,0,0,0,1.214h2.146A.608.608,0,0,0,1529.943,1024.59Z" transform="translate(-1527.211 -1024.59)" fill="#fff"/>
        </g>
        <g id="Grupo_53809" data-name="Grupo 53809" transform="translate(15.585 15.717)">
          <path id="Trazado_100678" data-name="Trazado 100678" d="M1529.943,1048.613H1527.8a.608.608,0,0,0,0,1.214h2.146A.608.608,0,0,0,1529.943,1048.613Z" transform="translate(-1527.211 -1048.613)" fill="#fff"/>
        </g>
        <g id="Grupo_53810" data-name="Grupo 53810" transform="translate(26.507 13.79)">
          <path id="Trazado_100679" data-name="Trazado 100679" d="M1554.191,1047.551a.084.084,0,0,0,.006.023h.263a.085.085,0,0,0,.006-.023v-3.7h-.275Z" transform="translate(-1554.191 -1043.853)" fill="#fff"/>
        </g>
        <g id="Grupo_53811" data-name="Grupo 53811" transform="translate(29.651 13.79)">
          <path id="Trazado_100680" data-name="Trazado 100680" d="M1561.959,1047.551a.071.071,0,0,0,.007.023h.262a.084.084,0,0,0,.006-.023v-3.7h-.275Z" transform="translate(-1561.959 -1043.853)" fill="#fff"/>
        </g>
        <g id="Grupo_53812" data-name="Grupo 53812" transform="translate(27.758 13.79)">
          <path id="Trazado_100681" data-name="Trazado 100681" d="M1557.283,1047.551a.07.07,0,0,0,.006.023h.262a.08.08,0,0,0,.006-.023v-3.7h-.275Z" transform="translate(-1557.283 -1043.853)" fill="#fff"/>
        </g>
        <g id="Grupo_53813" data-name="Grupo 53813" transform="translate(28.155 13.79)">
          <path id="Trazado_100682" data-name="Trazado 100682" d="M1558.264,1047.551a.094.094,0,0,0,.006.023h.262a.073.073,0,0,0,.006-.023v-3.7h-.274Z" transform="translate(-1558.264 -1043.853)" fill="#fff"/>
        </g>
        <g id="Grupo_53814" data-name="Grupo 53814" transform="translate(29.162 13.79)">
          <path id="Trazado_100683" data-name="Trazado 100683" d="M1560.752,1047.551a.077.077,0,0,0,.006.023h.262a.085.085,0,0,0,.006-.023v-3.7h-.275Z" transform="translate(-1560.752 -1043.853)" fill="#fff"/>
        </g>
        <g id="Grupo_53815" data-name="Grupo 53815" transform="translate(26.949 13.79)">
          <path id="Trazado_100684" data-name="Trazado 100684" d="M1555.285,1047.551c0,.009.005.015.006.023h.537c0-.008.006-.014.006-.023v-3.7h-.55Z" transform="translate(-1555.285 -1043.853)" fill="#fff"/>
        </g>
        <g id="Grupo_53816" data-name="Grupo 53816" transform="translate(28.506 13.79)">
          <path id="Trazado_100685" data-name="Trazado 100685" d="M1559.131,1047.551c0,.009.005.015.006.023h.537c0-.008.006-.014.006-.023v-3.7h-.55Z" transform="translate(-1559.131 -1043.853)" fill="#fff"/>
        </g>
        <g id="Grupo_53817" data-name="Grupo 53817" transform="translate(31.208 13.79)">
          <path id="Trazado_100686" data-name="Trazado 100686" d="M1565.806,1047.551a.067.067,0,0,0,.006.023h.262a.07.07,0,0,0,.006-.023v-3.7h-.274Z" transform="translate(-1565.806 -1043.853)" fill="#fff"/>
        </g>
        <g id="Grupo_53818" data-name="Grupo 53818" transform="translate(30.704 13.79)">
          <path id="Trazado_100687" data-name="Trazado 100687" d="M1564.561,1047.551a.073.073,0,0,0,.006.023h.262a.084.084,0,0,0,.006-.023v-3.7h-.275Z" transform="translate(-1564.561 -1043.853)" fill="#fff"/>
        </g>
        <g id="Grupo_53819" data-name="Grupo 53819" transform="translate(30.063 13.79)">
          <path id="Trazado_100688" data-name="Trazado 100688" d="M1562.977,1047.551c0,.009.005.015.007.023h.537c0-.008.006-.014.006-.023v-3.7h-.55Z" transform="translate(-1562.977 -1043.853)" fill="#fff"/>
        </g>
      </g>
      <g id="Grupo_53821" data-name="Grupo 53821" transform="translate(21.684 36.266)">
        <path id="Trazado_100689" data-name="Trazado 100689" d="M1477.633,1040.844l-51.126-18.952s-8.963-2.614-11.18-.955c-1.975,3.166,3.408,6.579,3.408,6.579l56.408,20.91,2.36,3.356,2.535.939.475-7.62.164.061,9.092-6.375-3.662-1.357Z" transform="translate(-1414.891 -1020.385)" fill="#e8e8e8"/>
        <path id="Trazado_100690" data-name="Trazado 100690" d="M1484.177,1058.318s11.717,26.244,13.223,26.354,2.662-1.921,2.662-1.921l-4.921-20.368S1490.165,1057.671,1484.177,1058.318Z" transform="translate(-1456.13 -1042.926)" fill="#8c6df2"/>
        <path id="Trazado_100691" data-name="Trazado 100691" d="M1453.08,1036.229a1.11,1.11,0,1,0,.655,1.426A1.11,1.11,0,0,0,1453.08,1036.229Z" transform="translate(-1436.731 -1029.774)" fill="#5038a1"/>
        <path id="Trazado_100692" data-name="Trazado 100692" d="M1441.037,1031.765a1.11,1.11,0,1,0,.655,1.426A1.11,1.11,0,0,0,1441.037,1031.765Z" transform="translate(-1429.563 -1027.117)" fill="#5038a1"/>
        <path id="Trazado_100693" data-name="Trazado 100693" d="M1428.381,1027.074a1.11,1.11,0,1,0,.655,1.426A1.11,1.11,0,0,0,1428.381,1027.074Z" transform="translate(-1422.03 -1024.325)" fill="#5038a1"/>
        <path id="Trazado_100694" data-name="Trazado 100694" d="M1465.119,1040.692a1.11,1.11,0,1,0,.655,1.426A1.11,1.11,0,0,0,1465.119,1040.692Z" transform="translate(-1443.896 -1032.43)" fill="#5038a1"/>
        <path id="Trazado_100695" data-name="Trazado 100695" d="M1478.916,1045.807a1.109,1.109,0,1,0,.655,1.426A1.11,1.11,0,0,0,1478.916,1045.807Z" transform="translate(-1452.109 -1035.475)" fill="#5038a1"/>
        <path id="Trazado_100696" data-name="Trazado 100696" d="M1491.5,1050.47a1.11,1.11,0,1,0,.655,1.426A1.11,1.11,0,0,0,1491.5,1050.47Z" transform="translate(-1459.596 -1038.25)" fill="#5038a1"/>
        <path id="Trazado_100697" data-name="Trazado 100697" d="M1505.293,1055.585a1.11,1.11,0,1,0,.655,1.426A1.11,1.11,0,0,0,1505.293,1055.585Z" transform="translate(-1467.808 -1041.294)" fill="#5038a1"/>
        <path id="Trazado_100698" data-name="Trazado 100698" d="M1520.006,1061.039a1.11,1.11,0,1,0,.655,1.426A1.11,1.11,0,0,0,1520.006,1061.039Z" transform="translate(-1476.565 -1044.54)" fill="#5038a1"/>
        <path id="Trazado_100699" data-name="Trazado 100699" d="M1533.8,1066.153a1.11,1.11,0,1,0,.654,1.426A1.109,1.109,0,0,0,1533.8,1066.153Z" transform="translate(-1484.777 -1047.584)" fill="#5038a1"/>
        <path id="Trazado_100700" data-name="Trazado 100700" d="M1546.383,1070.817a1.11,1.11,0,1,0,.655,1.426A1.109,1.109,0,0,0,1546.383,1070.817Z" transform="translate(-1492.265 -1050.36)" fill="#5038a1"/>
      </g>
      <g id="Grupo_53822" data-name="Grupo 53822" transform="translate(5.113 83.797)">
        <path id="Trazado_100701" data-name="Trazado 100701" d="M1393.617,1150.1a20.427,20.427,0,0,1-18.553-11.978c-.321-.711-1.368-.094-1.049.613a21.618,21.618,0,0,0,19.6,12.58A.608.608,0,0,0,1393.617,1150.1Z" transform="translate(-1373.955 -1137.802)" fill="#fff"/>
      </g>
      <g id="Grupo_53823" data-name="Grupo 53823" transform="translate(66.252 0)">
        <path id="Trazado_100702" data-name="Trazado 100702" d="M1525.738,930.822a.608.608,0,0,0-.323,1.171,19.572,19.572,0,0,1,10.9,7.868c.437.642,1.49.036,1.049-.613A20.888,20.888,0,0,0,1525.738,930.822Z" transform="translate(-1524.987 -930.796)" fill="#fff"/>
      </g>
      <g id="Grupo_53824" data-name="Grupo 53824" transform="translate(18.888 3.349)">
        <path id="Trazado_100703" data-name="Trazado 100703" d="M1430.68,939.07c-8.689.642-17.513,3.521-22.592,11.043-.438.649.613,1.258,1.049.613,4.82-7.139,13.317-9.834,21.543-10.442C1431.455,940.227,1431.461,939.012,1430.68,939.07Z" transform="translate(-1407.983 -939.068)" fill="#fff"/>
      </g>
      <g id="Grupo_53825" data-name="Grupo 53825" transform="translate(96.64 13.19)">
        <path id="Trazado_100704" data-name="Trazado 100704" d="M1600.637,963.456c-.772.068-.78,1.283,0,1.214a18.48,18.48,0,0,1,13.495,4.138c.6.493,1.463-.362.859-.859A19.681,19.681,0,0,0,1600.637,963.456Z" transform="translate(-1600.055 -963.379)" fill="#fff"/>
      </g>
      <g id="Grupo_53826" data-name="Grupo 53826" transform="translate(117.798 42.865)">
        <path id="Trazado_100705" data-name="Trazado 100705" d="M1654.182,1037.265a16.5,16.5,0,0,1-1.784,9.766c-.362.691.685,1.306,1.048.613a17.635,17.635,0,0,0,1.95-10.379C1655.307,1036.5,1654.091,1036.489,1654.182,1037.265Z" transform="translate(-1652.323 -1036.686)" fill="#fff"/>
      </g>
      <g id="Grupo_53827" data-name="Grupo 53827" transform="translate(96.705 82.638)">
        <path id="Trazado_100706" data-name="Trazado 100706" d="M1612.142,1135.255a33.235,33.235,0,0,1-11.654,14.2c-.639.441-.033,1.494.613,1.048a34.335,34.335,0,0,0,12.09-14.64C1613.5,1135.158,1612.453,1134.539,1612.142,1135.255Z" transform="translate(-1600.216 -1134.937)" fill="#fff"/>
      </g>
      <g id="Grupo_53828" data-name="Grupo 53828" transform="translate(2.798 22.448)">
        <path id="Trazado_100707" data-name="Trazado 100707" d="M1375.3,986.452l-6.913,8.273c-.5.6.357,1.459.859.859l6.913-8.273C1376.656,986.715,1375.8,985.852,1375.3,986.452Z" transform="translate(-1368.236 -986.249)" fill="#fff"/>
      </g>
      <g id="Grupo_53829" data-name="Grupo 53829" transform="translate(3.479 59.246)">
        <path id="Trazado_100708" data-name="Trazado 100708" d="M1374.233,1080.655c-.936-1.194-2.335-1.959-3.165-3.224-.427-.65-1.479-.043-1.048.613,1.4,2.129,3.637,3.211,4.624,5.741a9.522,9.522,0,0,1-1.2,8.891c-.441.648.611,1.256,1.049.613a10.758,10.758,0,0,0,1.689-8.655A10.621,10.621,0,0,0,1374.233,1080.655Z" transform="translate(-1369.918 -1077.153)" fill="#fff"/>
      </g>
      <g id="Grupo_53830" data-name="Grupo 53830" transform="translate(31.543 90.827)">
        <path id="Trazado_100709" data-name="Trazado 100709" d="M1450.265,1155.2a42.79,42.79,0,0,0-10.747,5.386c-.639.442-.032,1.5.613,1.049a41.644,41.644,0,0,1,10.457-5.264C1451.324,1156.124,1451.008,1154.951,1450.265,1155.2Z" transform="translate(-1439.246 -1155.167)" fill="#fff"/>
      </g>
      <g id="Grupo_53831" data-name="Grupo 53831" transform="translate(102.919 9.559)">
        <path id="Trazado_100710" data-name="Trazado 100710" d="M1616.146,954.487c-.766.093-.775,1.308,0,1.214a9.3,9.3,0,0,1,8.41,3.317c.5.6,1.358-.263.859-.859A10.4,10.4,0,0,0,1616.146,954.487Z" transform="translate(-1615.568 -954.411)" fill="#fff"/>
      </g>
      <g id="Grupo_53832" data-name="Grupo 53832" transform="translate(76.536 1.398)">
        <path id="Trazado_100711" data-name="Trazado 100711" d="M1551.411,934.447c-.517-.588-1.373.274-.859.859l1.988,2.259c.517.588,1.373-.274.859-.859Z" transform="translate(-1550.393 -934.25)" fill="#fff"/>
      </g>
      <g id="Grupo_53833" data-name="Grupo 53833" transform="translate(122.998 48.722)">
        <path id="Trazado_100712" data-name="Trazado 100712" d="M1666.856,1051.231a.611.611,0,0,0-.831.218l-.787,1.831a.627.627,0,0,0,.218.831.611.611,0,0,0,.831-.218l.787-1.831A.627.627,0,0,0,1666.856,1051.231Z" transform="translate(-1665.168 -1051.154)" fill="#fff"/>
      </g>
      <g id="Grupo_53834" data-name="Grupo 53834" transform="translate(0 66.06)">
        <path id="Trazado_100713" data-name="Trazado 100713" d="M1361.326,1094.57q.123,2.564.246,5.128c.037.778,1.252.783,1.214,0q-.123-2.564-.246-5.128C1362.5,1093.792,1361.288,1093.787,1361.326,1094.57Z" transform="translate(-1361.325 -1093.984)" fill="#fff"/>
      </g>
      <g id="Grupo_53835" data-name="Grupo 53835" transform="translate(1.25 21.821)">
        <path id="Trazado_100714" data-name="Trazado 100714" d="M1367.053,984.84l-2.429,1.889c-.616.479.249,1.333.859.859l2.429-1.889C1368.529,985.219,1367.663,984.365,1367.053,984.84Z" transform="translate(-1364.413 -984.701)" fill="#fff"/>
      </g>
      <g id="Grupo_53836" data-name="Grupo 53836" transform="translate(84.425 100.08)">
        <path id="Trazado_100715" data-name="Trazado 100715" d="M1575.054,1178.286l-4.589-.259c-.781-.044-.778,1.171,0,1.214l4.589.259C1575.835,1179.545,1575.832,1178.33,1575.054,1178.286Z" transform="translate(-1569.88 -1178.026)" fill="#fff"/>
      </g>
    </g>
    <g id="Bags_second_plan" data-name="Bags second plan" transform="translate(1363.251 1011.705)">
      <g id="Grupo_53837" data-name="Grupo 53837" transform="translate(76.596 133.533)">
        <path id="Trazado_100716" data-name="Trazado 100716" d="M1627.281,1460.536a31.235,31.235,0,0,0-23.524,10.641c-1.016,1.179.7,2.9,1.718,1.718a28.844,28.844,0,0,1,21.217-9.925c8.2-.152,17.127,3.442,20.687,11.265.647,1.421,2.74.187,2.1-1.226C1645.665,1464.634,1636.076,1460.55,1627.281,1460.536Z" transform="translate(-1603.446 -1460.536)" fill="#5038a1"/>
      </g>
      <path id="Trazado_100717" data-name="Trazado 100717" d="M1624.164,1504.2c-7.686-6.24-10.48-4.018-16.07-14.529s-10.131-11.473-10.131-11.473H1550.67s-4.542.962-10.131,11.473-8.384,8.289-16.07,14.529-8.734,20.349-8.734,20.349H1632.9S1631.85,1510.44,1624.164,1504.2Z" transform="translate(-1474.646 -1337.515)" fill="#8c6df2"/>
      <g id="Grupo_53842" data-name="Grupo 53842" transform="translate(0 60.493)">
        <g id="Grupo_53840" data-name="Grupo 53840" transform="translate(14.594)">
          <g id="Grupo_53838" data-name="Grupo 53838" transform="translate(4.088 1.526)">
            <path id="Trazado_100718" data-name="Trazado 100718" d="M1460.38,1285.046v30.226a1.215,1.215,0,0,0,2.429,0v-30.226A1.215,1.215,0,0,0,1460.38,1285.046Z" transform="translate(-1460.38 -1283.873)" fill="#ce8d2e"/>
          </g>
          <g id="Grupo_53839" data-name="Grupo 53839" transform="translate(34.313 1.526)">
            <path id="Trazado_100719" data-name="Trazado 100719" d="M1535.046,1285.046v30.226a1.215,1.215,0,0,0,2.429,0v-30.226A1.215,1.215,0,0,0,1535.046,1285.046Z" transform="translate(-1535.046 -1283.873)" fill="#ce8d2e"/>
          </g>
          <path id="Trazado_100720" data-name="Trazado 100720" d="M1487.677,1280.1h-34.7a2.7,2.7,0,0,0,0,5.4h34.7a2.7,2.7,0,1,0,0-5.4Z" transform="translate(-1450.281 -1280.104)" fill="#ce8d2e"/>
        </g>
        <path id="Trazado_100721" data-name="Trazado 100721" d="M1463.341,1347.951c-2.465-1.623-6.991-2.323-10.893-2.619v-.186s-1.457-.049-3.578.008c-2.117-.057-3.574-.008-3.574-.008v.186c-3.9.3-8.428,1-10.893,2.619a53.775,53.775,0,0,1-12.832,6.275,23.544,23.544,0,0,0-7.339,4.25v77.047h69.283v-77.047a23.541,23.541,0,0,0-7.339-4.25A53.781,53.781,0,0,1,1463.341,1347.951Z" transform="translate(-1414.23 -1318.805)" fill="#debc56"/>
        <g id="Grupo_53841" data-name="Grupo 53841" transform="translate(3.76 114.74)">
          <circle id="Elipse_4052" data-name="Elipse 4052" cx="4.778" cy="4.778" r="4.778" transform="matrix(0.592, -0.806, 0.806, 0.592, 0, 7.78)" fill="#0b1b58"/>
          <circle id="Elipse_4053" data-name="Elipse 4053" cx="4.778" cy="4.778" r="4.778" transform="translate(48.324 6.758) rotate(-45)" fill="#0b1b58"/>
        </g>
        <path id="Trazado_100722" data-name="Trazado 100722" d="M1448.566,1387.961c-2.445-.028-19.249.109-34.336,8.78v64.275h69.283V1397.1C1468.272,1388.07,1451.043,1387.932,1448.566,1387.961Z" transform="translate(-1414.23 -1344.298)" fill="#ffebad"/>
      </g>
      <g id="Grupo_53846" data-name="Grupo 53846" transform="translate(133.491 0)">
        <g id="Grupo_53843" data-name="Grupo 53843" transform="translate(25.706 4.365)">
          <path id="Trazado_100723" data-name="Trazado 100723" d="M1807.5,1142.623v53.618a1.215,1.215,0,0,0,2.429,0v-53.618A1.215,1.215,0,0,0,1807.5,1142.623Z" transform="translate(-1807.497 -1141.449)" fill="#5038a1"/>
        </g>
        <g id="Grupo_53844" data-name="Grupo 53844" transform="translate(52.539 4.365)">
          <path id="Trazado_100724" data-name="Trazado 100724" d="M1873.784,1142.623v53.618a1.215,1.215,0,0,0,2.429,0v-53.618A1.215,1.215,0,0,0,1873.784,1142.623Z" transform="translate(-1873.784 -1141.449)" fill="#5038a1"/>
        </g>
        <path id="Trazado_100725" data-name="Trazado 100725" d="M1815.891,1266.044h-62.912s-8.156,4.873-8.729,13.623,0,102.644,0,102.644,3.522,8.977,16.1,9.4c10.973.373,21.56.1,24.085.018,2.524.077,13.112.354,24.085-.018,12.578-.427,16.1-9.4,16.1-9.4s.573-93.895,0-102.644S1815.891,1266.044,1815.891,1266.044Z" transform="translate(-1743.996 -1211.242)" fill="#8c6df2"/>
        <ellipse id="Elipse_4054" data-name="Elipse 4054" cx="6.763" cy="5.727" rx="6.763" ry="5.727" transform="translate(59.779 174.935)" fill="#060e2c"/>
        <path id="Trazado_100726" data-name="Trazado 100726" d="M1904.121,1570.908a2.484,2.484,0,1,0,2.893,2.45A2.7,2.7,0,0,0,1904.121,1570.908Z" transform="translate(-1837.579 -1392.695)" fill="#9ae2fb"/>
        <ellipse id="Elipse_4055" data-name="Elipse 4055" cx="6.763" cy="5.727" rx="6.763" ry="5.727" transform="translate(6.845 174.935)" fill="#060e2c"/>
        <path id="Trazado_100727" data-name="Trazado 100727" d="M1773.357,1570.908a2.484,2.484,0,1,0,2.893,2.45A2.7,2.7,0,0,0,1773.357,1570.908Z" transform="translate(-1759.749 -1392.695)" fill="#9ae2fb"/>
        <path id="Trazado_100750" data-name="Trazado 100750" d="M12,0H53.729a12,12,0,0,1,12,12V89.41a12,12,0,0,1-12,12H12a12,12,0,0,1-12-12V12A12,12,0,0,1,12,0Z" transform="translate(7.575 69.24)" fill="#5038a1"/>
        <path id="Trazado_100751" data-name="Trazado 100751" d="M2.769,0H33.922a2.769,2.769,0,0,1,0,5.538H2.769A2.769,2.769,0,0,1,2.769,0Z" transform="translate(22.094)" fill="#8c6df2"/>
        <g id="Grupo_53845" data-name="Grupo 53845" transform="translate(6.988 63.182)">
          <path id="Trazado_100728" data-name="Trazado 100728" d="M1827.575,1286.747h-65.729a.608.608,0,0,0,0,1.214h65.729A.608.608,0,0,0,1827.575,1286.747Z" transform="translate(-1761.259 -1286.747)" fill="#2736ad"/>
        </g>
      </g>
      <g id="Grupo_53848" data-name="Grupo 53848" transform="translate(180.315 123.508)">
        <path id="Trazado_100729" data-name="Trazado 100729" d="M1947.1,1455.718c-5.292-14.231-9.591-15.534-9.591-15.534h-44.772s-4.3,1.3-9.591,15.534-7.938,11.222-15.214,19.672-8.268,27.551-8.268,27.551h110.917s-.992-19.1-8.268-27.551S1952.391,1469.949,1947.1,1455.718Z" transform="translate(-1859.664 -1438.398)" fill="#d8ccff"/>
        <g id="Grupo_53847" data-name="Grupo 53847" transform="translate(32.207)">
          <path id="Trazado_100730" data-name="Trazado 100730" d="M1983,1437.556c-1.355-1.889-4.516-.072-3.146,1.839a33.983,33.983,0,0,1,4.681,8.986c.675,2.047,1.284,4.479.564,6.6-.929,2.734-3.91,3.477-6.466,3.894-12.2,1.992-23.091-6.31-30.6-15.013a54.175,54.175,0,0,1-5.387-7.223c-1.214-2-4.365-.173-3.146,1.839a58.345,58.345,0,0,0,19.489,19.607,30.569,30.569,0,0,0,20.119,4.381c3.2-.485,6.576-1.514,8.474-4.342a10.645,10.645,0,0,0,1.2-7.865A32.287,32.287,0,0,0,1983,1437.556Z" transform="translate(-1939.226 -1435.771)" fill="#8c6df2"/>
        </g>
        <path id="Trazado_100731" data-name="Trazado 100731" d="M1938.919,1525.638c0,.018,0,.036,0,.054,0,13.045,11.214,23.619,25.047,23.619s25.046-10.574,25.046-23.619c0-.018,0-.036,0-.054Z" transform="translate(-1906.835 -1489.259)" fill="#8c6df2"/>
      </g>
    </g>
    <g id="Man" transform="translate(1328.58 990.967)">
      <path id="Trazado_100732" data-name="Trazado 100732" d="M1623.751,1432.142c-4.51-.28-16.035-.2-23.357,6.991-9.262,9.089-33.26,59.289-33.26,59.289h1.895c1.894,0,27.577-48.341,34.1-55.158,5.149-5.379,16.189-6.513,20.621-6.752,4.432.239,15.472,1.374,20.62,6.752,6.526,6.817,32.208,55.158,34.1,55.158h1.895s-24-50.2-33.26-59.289C1639.786,1431.947,1628.261,1431.862,1623.751,1432.142Z" transform="translate(-1470.566 -1289.318)" fill="#3a2c69"/>
      <path id="Trazado_100733" data-name="Trazado 100733" d="M1690.752,1279.21c-5.266,14.063-10.973,41.2-31.45,43.309a124.891,124.891,0,0,1-24.754-.228c-4.417-.427-8.992-2.1-13.471-1.583a12.851,12.851,0,0,0-1.614.29c-1.969.487-11.522,4.559-6.418,6.256,4.2,1.4,10.009.95,14.411,1.2,7.946.445,15.787.137,23.736.209,7.9.071,20.047,1.252,26.088-4.9,7.3-7.431,30.594-68.069,28.91-74.3S1696.019,1265.147,1690.752,1279.21Z" transform="translate(-1497.009 -1179.984)" fill="#3a2c69"/>
      <path id="Trazado_100734" data-name="Trazado 100734" d="M1509.335,1565.926s-6.882,4.394-11.638,6.845-5.364,3.065-3.643,4.393,11.638,1.124,13.257,0a1.663,1.663,0,0,1,2.53.51s3.846.715,4.655-.307-.034-8.037-.034-8.037S1513.08,1565.62,1509.335,1565.926Z" transform="translate(-1426.547 -1368.982)" fill="#3a2c69"/>
      <path id="Trazado_100735" data-name="Trazado 100735" d="M1494.245,1329.545c-4.082,11.851,15.324,64.025,10.682,94.947a9.817,9.817,0,0,1,9.525,0s15.049-41.925,11.505-63.941,32.7-21.2,35.09-22.016,18.983-11.852,18.983-11.852S1498.326,1317.694,1494.245,1329.545Z" transform="translate(-1426.844 -1224.653)" fill="#8c6df2"/>
      <path id="Trazado_100736" data-name="Trazado 100736" d="M1625.934,1160.667c-20.221-1.963-34.609,14.918-34.609,14.918-4.278,4.318-13.61,25.517-19.443,32.976s-29.975,12.1-29.975,12.1a24.445,24.445,0,0,1,1.977,5.173s29.943-.785,33.443-1.571,14.777-7.851,19.054-12.17,7-3.533,7-3.533c8.555,5.5,3.888,23.555,3.888,23.555,21.777,11.777,35,0,35,0s-1.555-1.57-1.944-10.207,7.389-30.621,8.555-39.258S1646.155,1162.63,1625.934,1160.667Z" transform="translate(-1455.55 -1127.69)" fill="#ffb74d"/>
      <path id="Trazado_100737" data-name="Trazado 100737" d="M1702.891,1101.942a10.171,10.171,0,0,0-8.522-.214,7.793,7.793,0,0,0-4.206,4.169c-2.384,5.822,1.418,13.459,5.706,17.348a7.434,7.434,0,0,0,2.374,1.463l1.166,4.946s5.36,2.1,7.743-2.405l-.8-5.139a11.163,11.163,0,0,0,.726-1.015C1711.092,1114.753,1709.878,1105.583,1702.891,1101.942Z" transform="translate(-1543.353 -1092.21)" fill="#ffa39a"/>
      <path id="Trazado_100738" data-name="Trazado 100738" d="M1620.053,1306.644c-4.509-1.4-10.406,5.6-10.406,5.6s6.59.35,9.018-.7,3.468,0,4.856.7,3.815,0,3.815,0c-1.387-2.8,0-4.2,0-4.2A27.269,27.269,0,0,1,1620.053,1306.644Z" transform="translate(-1495.87 -1214.559)" fill="#ffa39a"/>
      <path id="Trazado_100739" data-name="Trazado 100739" d="M1529.947,1308.876c-1.555-.785-8.133,1.639-8.133,1.639l1.167,3.534h8.944S1531.5,1309.661,1529.947,1308.876Z" transform="translate(-1443.591 -1215.905)" fill="#ffa39a"/>
      <path id="Trazado_100740" data-name="Trazado 100740" d="M1699.432,1085.317c-.5-.848-.121-1.9-.49-2.791a5.342,5.342,0,0,0-1.892-2.019c-3.275-2.4-4.168,0-6.847,0-1.638,0-3.207-1.386-4.885-.608s-2.354,2.836-4.036,3.621c-1.3.6-4.041.277-4.278,2.214q-.012.1-.02.195c-.115,1.353.309,2.3-1.077,3.3-2.084,1.5-2.68,3.307-2.382,6.313s3.276,2.706,4.169,3.006.6,3.307,1.787,4.209a22.825,22.825,0,0,1,3.913,4.245c-.351-1.08.149-2.287.062-3.4-.073-.936-.614-2.314.1-3.129a12.34,12.34,0,0,1,2.014-1.359,11.356,11.356,0,0,0,2.847-2.674c2.085-3.006,3.871-4.209,4.467-3.006s2.084,3.608,3.573,3.608a4.187,4.187,0,0,1,3.207,5.707c-1.122,3.612-1.64,4.8-1.64,4.8a7.8,7.8,0,0,0,4.39-6.3c.3-4.51-.6-5.111.893-6.914s.893-4.51,0-6.313S1700.325,1086.82,1699.432,1085.317Z" transform="translate(-1533.846 -1079.438)" fill="#3a2c69"/>
      <path id="Trazado_100741" data-name="Trazado 100741" d="M1689.018,1189.811c-5.25,10.011-4.472,27.677-4.472,32.388s-34.021,9-34.021,9a2.93,2.93,0,0,0,.578,4.737s43.942,4.122,48.414.785,20.416-47.305,11.279-55.568S1694.268,1179.8,1689.018,1189.811Z" transform="translate(-1519.606 -1137.795)" fill="#ffdc72"/>
      <path id="Trazado_100742" data-name="Trazado 100742" d="M1505.524,1326.413s-59.1-7.765-69.627,0-32.182,50.369-67.4,94.913a8.357,8.357,0,0,1,5.185,3.915s49.667-27.311,58.3-49.108,26.448-16.074,39.131-12.26,47.362,13.214,60.856-5.313,7.083-29.754,7.083-29.754S1524.55,1334.723,1505.524,1326.413Z" transform="translate(-1352.338 -1224.382)" fill="#d8ccff"/>
      <g id="Grupo_53849" data-name="Grupo 53849" transform="translate(57.087 41.144)">
        <path id="Trazado_100743" data-name="Trazado 100743" d="M1475.325,1188.973q-1.057-3.315-2.115-6.629c-.71-2.225-4.229-1.274-3.513.968l15.09,47.3,2.115,6.629c.71,2.225,4.229,1.274,3.513-.969Z" transform="translate(-1469.602 -1181.078)" fill="#3a2c69"/>
      </g>
      <g id="Grupo_53850" data-name="Grupo 53850" transform="translate(77.049 96.677)">
        <path id="Trazado_100744" data-name="Trazado 100744" d="M1576.21,1318.26l-49.1.188-7.021.027a1.215,1.215,0,0,0,0,2.429l49.1-.188,7.021-.027A1.215,1.215,0,0,0,1576.21,1318.26Z" transform="translate(-1518.916 -1318.26)" fill="#3a2c69"/>
      </g>
      <path id="Trazado_100745" data-name="Trazado 100745" d="M1344.738,1565.926s-6.882,4.394-11.638,6.845-5.364,3.065-3.643,4.393,11.638,1.124,13.258,0a1.663,1.663,0,0,1,2.53.51s3.846.715,4.655-.307-.033-8.037-.033-8.037S1348.483,1565.62,1344.738,1565.926Z" transform="translate(-1328.579 -1368.982)" fill="#3a2c69"/>
    </g>
    <g id="Bag_fisrt_plan" data-name="Bag fisrt plan" transform="translate(1481.765 1137.746)">
      <g id="Grupo_53853" data-name="Grupo 53853" transform="translate(0 0)">
        <path id="Trazado_100746" data-name="Trazado 100746" d="M1776.693,1469.253c-1.688-4.633-17.458-4.467-19.507-4.424-6.892.145-13.792.37-20.685.181s-13.724-.939-20.624-.341c-3.843.337-7.9.472-8.075,4.583,0,0-.257,6.051-.478,13.7-.374,12.712-.653,29.836.478,30.968a12.89,12.89,0,0,0,13.053,2.538c6.164-2.175,21.392-3.626,21.392-3.626s15.228,1.45,21.392,3.626a12.889,12.889,0,0,0,13.052-2.538c1.132-1.131.852-18.26.479-30.968C1776.95,1475.3,1776.693,1469.253,1776.693,1469.253Z" transform="translate(-1706.997 -1455.369)" fill="#ffb74d"/>
        <g id="Grupo_53851" data-name="Grupo 53851" transform="translate(20.63)">
          <path id="Trazado_100747" data-name="Trazado 100747" d="M1767.769,1443.05a22.984,22.984,0,0,0-9.447,7.31c-1.429,1.857,1.735,3.673,3.146,1.839-.567.736.128-.135.307-.339.431-.491.885-.962,1.355-1.416a19.938,19.938,0,0,1,4.964-3.574c6.167-3.057,11.753.282,15.6,5.329,1.4,1.84,4.568.027,3.146-1.839C1782.207,1444.283,1775.465,1439.967,1767.769,1443.05Z" transform="translate(-1757.96 -1442.029)" fill="#debc56"/>
        </g>
        <path id="Trazado_100748" data-name="Trazado 100748" d="M1757.667,1464.829c-6.892.145-13.792.37-20.685.181s-13.724-.939-20.624-.341c-3.843.337-7.9.472-8.075,4.583,0,0-.257,6.051-.479,13.7,7.513,8.9,20.352,14.771,34.924,14.771s27.411-5.866,34.924-14.771c-.222-7.651-.479-13.7-.479-13.7C1775.789,1464.442,1759.716,1464.786,1757.667,1464.829Z" transform="translate(-1707.478 -1455.369)" fill="#ffdc72"/>
        <g id="Grupo_53852" data-name="Grupo 53852" transform="translate(10.254 29.43)">
          <path id="Trazado_100749" data-name="Trazado 100749" d="M1781,1514.883c-14.367,7.623-32.23,6.376-46.816,0-1.418-.62-2.656,1.472-1.226,2.1,15.422,6.742,34.065,8.066,49.267,0C1783.612,1516.247,1782.385,1514.15,1781,1514.883Z" transform="translate(-1732.327 -1514.73)" fill="#ffb74d"/>
        </g>
      </g>
    </g>
  </g>
</svg>
