<svg id="pasajero-2" xmlns="http://www.w3.org/2000/svg" width="90.441" height="90.441" viewBox="0 0 90.441 90.441">
  <path id="Trazado_106123" data-name="Trazado 106123" d="M51.762,8A43.762,43.762,0,1,0,67.808,92.475V89.689h5.775A43.758,43.758,0,0,0,51.762,8Zm0,0" transform="translate(-6.541 -6.541)" fill="#d8ccff"/>
  <path id="Trazado_106124" data-name="Trazado 106124" d="M373.835,456v2.917a2.926,2.926,0,0,1-2.917,2.917A2.938,2.938,0,0,1,368,458.917V456Zm0,0" transform="translate(-300.898 -372.853)" fill="#5038a1"/>
  <path id="Trazado_106125" data-name="Trazado 106125" d="M309.835,456v2.917a2.926,2.926,0,0,1-2.917,2.917,2.856,2.856,0,0,1-2.057-.86,2.737,2.737,0,0,1-.379-.452,2.925,2.925,0,0,1-.482-1.6V456Zm0,0" transform="translate(-248.568 -372.853)" fill="#5038a1"/>
  <path id="Trazado_106126" data-name="Trazado 106126" d="M305.5,338.257H289.459A1.463,1.463,0,0,1,288,336.8v-23.34A1.463,1.463,0,0,1,289.459,312h20.422a1.463,1.463,0,0,1,1.459,1.459V336.8a1.463,1.463,0,0,1-1.459,1.459Zm0,0" transform="translate(-235.486 -255.11)" fill="#8c6df2"/>
  <path id="Trazado_106127" data-name="Trazado 106127" d="M321.5,233.459v2.917a1.463,1.463,0,0,1-1.459,1.459H305.459A1.463,1.463,0,0,1,304,236.376v-2.917A1.463,1.463,0,0,1,305.459,232h14.587A1.463,1.463,0,0,1,321.5,233.459Zm0,0" transform="translate(-248.568 -189.697)" fill="#ffdc72"/>
  <path id="Trazado_106128" data-name="Trazado 106128" d="M129.163,264H118.952v33.551l-.234.379a43.318,43.318,0,0,0,20.656,6.813V264Zm0,0" transform="translate(-97.071 -215.862)" fill="#5038a1"/>
  <path id="Trazado_106129" data-name="Trazado 106129" d="M87.294,136.046H80v-9.613a4.372,4.372,0,0,1,3.428-4.274l9.7-2.159s1.459,2.917,4.376,2.917S101.881,120,101.881,120l8.694,1.24a5.835,5.835,0,0,1,2.728,1.152l5.281,4.055-.657.846-3.968,5.295-6.243-3.836v17.5H87.294Zm0,0" transform="translate(-65.413 -98.119)" fill="#ffb74d"/>
  <g id="Grupo_83432" data-name="Grupo 83432" transform="translate(14.587 1.459)">
    <path id="Trazado_106130" data-name="Trazado 106130" d="M283.335,166.4a2.938,2.938,0,0,1-2.932,2.932h-.613a2.838,2.838,0,0,1-1.531-.437l-12.02-7.4,3.968-5.3.657-.846,11.334,8.723A2.945,2.945,0,0,1,283.335,166.4Zm0,0" transform="translate(-232.279 -128.49)" fill="#f5f7fa"/>
    <path id="Trazado_106131" data-name="Trazado 106131" d="M87.294,218.211v5.106a3.647,3.647,0,1,1-7.294,0V208h7.294Zm0,0" transform="translate(-80 -171.532)" fill="#f5f7fa"/>
    <path id="Trazado_106132" data-name="Trazado 106132" d="M160.752,96v4.376s-1.459,2.917-4.376,2.917S152,100.376,152,100.376V96a7.294,7.294,0,0,0,8.752,0Zm0,0" transform="translate(-138.871 -79.954)" fill="#f5f7fa"/>
    <path id="Trazado_106133" data-name="Trazado 106133" d="M150.587,15.294v2.917a7.308,7.308,0,0,1-2.917,5.835,7.294,7.294,0,0,1-8.752,0A7.308,7.308,0,0,1,136,18.211V15.294a7.6,7.6,0,0,1,.321-2.174,7.3,7.3,0,0,1,10.765-4.055l1.371,1.065A7.327,7.327,0,0,1,150.587,15.294Zm0,0" transform="translate(-125.789 -8)" fill="#f5f7fa"/>
  </g>
  <path id="Trazado_106134" data-name="Trazado 106134" d="M90.441,45.221A45.255,45.255,0,0,0,36.155.91l-.139.029a8.724,8.724,0,0,0-11.934,4.3A45.21,45.21,0,0,0,55.39,89.268a4.36,4.36,0,0,0,7.336-3.2V84.606h2.917v1.459a4.376,4.376,0,0,0,8.752,0V84.606a2.92,2.92,0,0,0,2.917-2.917V77.063A44.863,44.863,0,0,0,90.441,45.221Zm-2.917,0A41.938,41.938,0,0,1,77.313,72.772V58.349A2.92,2.92,0,0,0,74.4,55.432H71.478V49.6A2.92,2.92,0,0,0,74.4,46.679V43.762a2.92,2.92,0,0,0-2.917-2.917H66.829a4.342,4.342,0,0,0,.273-1.473,4.418,4.418,0,0,0-1.714-3.481l-16.6-12.772a7.3,7.3,0,0,0-3.415-1.439l-7.443-1.063v-2.44a8.722,8.722,0,0,0,2.917-6.506V8.752a8.7,8.7,0,0,0-1.86-5.376A42.32,42.32,0,0,1,87.524,45.221ZM16.046,39.386h4.376V53.244a2.188,2.188,0,1,1-4.376,0ZM23.34,49.6h7.294V84.93a42.177,42.177,0,0,1-7.294-3.517Zm10.211,0h7.294V87.3a42.064,42.064,0,0,1-7.294-1.424Zm7.294-20.422v17.5H23.34v-17.5H20.422v7.294H16.046V28.31a2.9,2.9,0,0,1,2.284-2.849l8.717-1.937a6.378,6.378,0,0,0,5.044,2.734,6.407,6.407,0,0,0,5.1-2.8l7.769,1.11A4.377,4.377,0,0,1,47,25.43L51.122,28.6l-2.951,3.934-4.41-2.714v-.643Zm-8.752-8.752a8.71,8.71,0,0,0,2.917-.511V21.48a3.729,3.729,0,0,1-2.917,1.86,3.733,3.733,0,0,1-2.917-1.86V19.912A8.71,8.71,0,0,0,32.092,20.422Zm21.344,9.955L63.609,38.2a1.474,1.474,0,0,1-.9,2.642H62.1a1.468,1.468,0,0,1-.771-.219L50.667,34.067Zm3.455,16.3V43.762H71.478v2.917ZM68.56,49.6v5.835H59.808V49.6ZM26.257,8.752a5.835,5.835,0,1,1,11.67,0V11.67a5.835,5.835,0,1,1-11.67,0ZM2.917,45.221A42.216,42.216,0,0,1,23.34,9.024V11.67a8.727,8.727,0,0,0,2.917,6.506v2.536l-8.56,1.9a5.8,5.8,0,0,0-4.569,5.7V53.244a5.111,5.111,0,0,0,5.106,5.106,5.048,5.048,0,0,0,2.188-.512V79.462A42.263,42.263,0,0,1,2.917,45.221ZM43.762,87.487V33.243l12.48,7.68a2.915,2.915,0,0,0-2.269,2.838v2.917A2.92,2.92,0,0,0,56.89,49.6v5.835H53.973a2.92,2.92,0,0,0-2.917,2.917v23.34a2.92,2.92,0,0,0,2.917,2.917v1.459a4.383,4.383,0,0,0,.053.525,42.561,42.561,0,0,1-8.805.934C44.732,87.524,44.248,87.5,43.762,87.487Zm16.046-1.422a1.459,1.459,0,0,1-2.917,0V84.606h2.917Zm11.67,0a1.459,1.459,0,0,1-2.917,0V84.606h2.917Zm0-4.376V62.725H68.56V81.689H65.643V62.725H62.725V81.689H59.808V62.725H56.89V81.689H53.973V58.349H74.4v23.34Zm0,0" transform="translate(0 0)" fill="#232323"/>
</svg>
