<svg id="prohibido" xmlns="http://www.w3.org/2000/svg" width="92.948" height="92.948" viewBox="0 0 92.948 92.948">
  <path id="Trazado_107526" data-name="Trazado 107526" d="M258.82,7.52V97.738a45.112,45.112,0,0,0,0-90.218Z" transform="translate(-211.834 -6.155)" fill="#5038a1"/>
  <path id="Trazado_107527" data-name="Trazado 107527" d="M53.125,7.5c18.333.264,33.67,14.674,38.02,34.352a50.467,50.467,0,0,1,1.135,10.757c0,24.72-17.484,44.8-39.154,45.109-.171,0-.341,0-.512,0a45.113,45.113,0,0,1,0-90.225C52.783,7.5,52.954,7.5,53.125,7.5Z" transform="translate(-6.138 -6.138)" fill="#8c6df2"/>
  <path id="Trazado_107528" data-name="Trazado 107528" d="M291.3,145.62l-2.854,2.854L265.24,199.82a34.2,34.2,0,0,0,26.064-54.2Z" transform="translate(-217.088 -119.184)" fill="#c6e8ff"/>
  <path id="Trazado_107529" data-name="Trazado 107529" d="M190.546,161.34a39.09,39.09,0,0,1,3.887,17.185c0,18.23-11.985,33.131-27.1,34.162a.2.2,0,0,1-.033,0,34.192,34.192,0,0,1-21.683-6.423Z" transform="translate(-119.184 -132.05)" fill="#fff"/>
  <path id="Trazado_107530" data-name="Trazado 107530" d="M283.748,74.249l-1.534,1.534L265.42,67.83A34.11,34.11,0,0,1,283.748,74.249Z" transform="translate(-217.236 -55.516)" fill="#c6e8ff"/>
  <path id="Trazado_107531" data-name="Trazado 107531" d="M120.3,75.59,74.054,121.836a34.2,34.2,0,0,1,29.451-54.2A26.355,26.355,0,0,1,120.3,75.59Z" transform="translate(-55.321 -55.323)" fill="#fff"/>
  <path id="Trazado_107532" data-name="Trazado 107532" d="M79.336,13.612A46.474,46.474,0,0,0,13.612,79.336,46.474,46.474,0,0,0,79.336,13.612ZM46.474,90.225A43.751,43.751,0,1,1,90.225,46.474,43.8,43.8,0,0,1,46.474,90.225Z"/>
  <path id="Trazado_107533" data-name="Trazado 107533" d="M188.362,138.682a1.361,1.361,0,0,0-2.066-.165L138.517,186.3a1.361,1.361,0,0,0,.165,2.066,35.587,35.587,0,0,0,49.68-49.68Zm-5.61,44.071a32.925,32.925,0,0,1-41.153,4.311L187.064,141.6A32.7,32.7,0,0,1,182.753,182.753Z" transform="translate(-113.044 -113.045)"/>
  <path id="Trazado_107534" data-name="Trazado 107534" d="M117.061,67.817a1.362,1.362,0,0,0-.559-.995,35.647,35.647,0,0,0-43.915,1.763,1.361,1.361,0,1,0,1.767,2.071,32.739,32.739,0,0,1,39.229-2.537L68.119,113.584a32.738,32.738,0,0,1,2.536-39.229,1.361,1.361,0,1,0-2.071-1.767A35.647,35.647,0,0,0,66.821,116.5a1.362,1.362,0,0,0,.995.559c.036,0,.072,0,.109,0a1.362,1.362,0,0,0,.963-.4l47.779-47.779A1.362,1.362,0,0,0,117.061,67.817Z" transform="translate(-49.191 -49.192)"/>
</svg>
