<svg xmlns="http://www.w3.org/2000/svg" width="51.415" height="54.139" viewBox="0 0 51.415 54.139">
  <g id="asterisco" transform="translate(-0.081 0.5)">
    <path id="Trazado_101954" data-name="Trazado 101954" d="M48.824,33.159l-11.413-6.59,11.413-6.59a2.325,2.325,0,0,0,.851-3.175l-3.487-6.039a2.325,2.325,0,0,0-3.175-.851L31.6,16.5V3.324A2.325,2.325,0,0,0,29.275,1H22.3a2.325,2.325,0,0,0-2.324,2.324V16.5L8.564,9.914a2.325,2.325,0,0,0-3.175.851L1.9,16.8a2.323,2.323,0,0,0,.851,3.175l11.413,6.59L2.753,33.159A2.325,2.325,0,0,0,1.9,36.334l3.487,6.039a2.325,2.325,0,0,0,3.175.851l11.413-6.59v13.18A2.325,2.325,0,0,0,22.3,52.139h6.973A2.325,2.325,0,0,0,31.6,49.814V36.634l11.413,6.59a2.325,2.325,0,0,0,3.175-.851l3.487-6.039a2.323,2.323,0,0,0-.851-3.175Z" fill="#8c6df2" stroke="#000" stroke-width="3"/>
  </g>
</svg>
