<svg xmlns="http://www.w3.org/2000/svg" width="77.756" height="92.806" viewBox="0 0 77.756 92.806">
  <g id="billete-de-avion" transform="translate(-35 -17)">
    <path id="Trazado_107537" data-name="Trazado 107537" d="M49.379,20H38v90.3H49.379a10.051,10.051,0,0,1,6.18-4.7V24.7A10.05,10.05,0,0,1,49.379,20Z" transform="translate(-1.746 -1.746)" fill="#d8ccff"/>
    <path id="Trazado_107538" data-name="Trazado 107538" d="M146.178,20A10.052,10.052,0,0,1,140,24.7V105.6a10.052,10.052,0,0,1,6.18,4.7h11.379V20Z" transform="translate(-61.104 -1.746)" fill="#d8ccff"/>
    <path id="Trazado_107539" data-name="Trazado 107539" d="M102.576,31.554H82.509A10.036,10.036,0,0,1,80,31.233v80.906a10.036,10.036,0,0,1,2.507-.321h20.066a10.042,10.042,0,0,1,2.508.321V31.233A10.042,10.042,0,0,1,102.576,31.554Z" transform="translate(-26.189 -8.283)" fill="#d8ccff"/>
    <path id="Trazado_107540" data-name="Trazado 107540" d="M38.762,187.51H36.254a1.254,1.254,0,1,1,0-2.508h2.508a1.254,1.254,0,1,1,0,2.508Z" transform="translate(0 -97.77)"/>
    <path id="Trazado_107541" data-name="Trazado 107541" d="M99.4,187.51H94.386a1.254,1.254,0,1,1,0-2.508H99.4a1.254,1.254,0,1,1,0,2.508Zm-10.033,0H84.353a1.254,1.254,0,1,1,0-2.508h5.017a1.254,1.254,0,1,1,0,2.508Zm-10.033,0H74.32a1.254,1.254,0,1,1,0-2.508h5.017a1.254,1.254,0,1,1,0,2.508Zm-10.033,0H64.287a1.254,1.254,0,1,1,0-2.508H69.3a1.254,1.254,0,0,1,0,2.508Zm-10.033,0H54.254a1.254,1.254,0,1,1,0-2.508h5.017a1.254,1.254,0,1,1,0,2.508Z" transform="translate(-10.475 -97.77)"/>
    <path id="Trazado_107542" data-name="Trazado 107542" d="M176.761,187.51h-2.508a1.254,1.254,0,0,1,0-2.508h2.508a1.254,1.254,0,0,1,0,2.508Z" transform="translate(-80.309 -97.77)" fill="#1c2d6b"/>
    <path id="Trazado_107543" data-name="Trazado 107543" d="M96.019,56.322h-3.4V44.27h1.764Z" transform="translate(-33.532 -15.87)" fill="#ffdc72"/>
    <path id="Trazado_107544" data-name="Trazado 107544" d="M105.949,56.322h-3.842L99.16,44.27h1.308Z" transform="translate(-37.338 -15.87)" fill="#ffdc72"/>
    <path id="Trazado_107545" data-name="Trazado 107545" d="M100.757,56.322H98.475L96.84,44.27h.97Z" transform="translate(-35.988 -15.87)" fill="#ffdc72"/>
    <path id="Trazado_107546" data-name="Trazado 107546" d="M67.083,67.037l-.723-7.068H62.626l-7.488-9.435H50.345l4.241,16.5A6.739,6.739,0,0,0,61.113,72.1h8.57c-1.225,0-2.3-2.083-2.6-5.062Z" transform="translate(-8.93 -19.515)" fill="#ffdc72"/>
    <path id="Trazado_107547" data-name="Trazado 107547" d="M138.574,73.1H127.58c1.482,0,2.684,3.017,2.684,6.739v3.145c0,1.24-.4,2.246-.894,2.246h13.7a2.247,2.247,0,0,0,2.247-2.247V79.842A6.74,6.74,0,0,0,138.574,73.1Z" transform="translate(-53.878 -32.65)" fill="#ffdc72"/>
    <path id="Trazado_107548" data-name="Trazado 107548" d="M119.239,102.121h0Z" transform="translate(-43.747 -49.537)" fill="#eee045"/>
    <path id="Trazado_107549" data-name="Trazado 107549" d="M107.611,82.988V79.843c0-3.722-1.2-6.739-2.684-6.739H88.655l.723,7.068c.3,2.979,1.375,5.062,2.6,5.062h14.739C107.211,85.234,107.611,84.228,107.611,82.988Z" transform="translate(-31.225 -32.65)" fill="#ffdc72"/>
    <g id="Grupo_84135" data-name="Grupo 84135" transform="translate(40.161 27.069)">
      <path id="Trazado_107550" data-name="Trazado 107550" d="M96.374,71.607H59.367a7.991,7.991,0,0,1-7.742-6L47.384,49.1A1.254,1.254,0,0,1,48.6,47.533h4.792a1.254,1.254,0,0,1,.982.474l7.111,8.961h30.4a8,8,0,0,1,7.993,7.993v3.145A3.5,3.5,0,0,1,96.374,71.607ZM50.216,50.041l3.838,14.937a5.483,5.483,0,0,0,5.312,4.12H96.374a.994.994,0,0,0,.992-.992V64.962a5.491,5.491,0,0,0-5.485-5.485h-31A1.254,1.254,0,0,1,59.9,59l-7.111-8.961Z" transform="translate(-47.345 -44.837)"/>
      <path id="Trazado_107551" data-name="Trazado 107551" d="M100.43,55.724H90.872a1.254,1.254,0,0,1-1.254-1.254V42.339a1.254,1.254,0,0,1,1.254-1.254h4.043a1.254,1.254,0,0,1,1.142.735l5.514,12.131a1.254,1.254,0,0,1-1.141,1.773Zm-8.3-2.508h6.356l-4.374-9.623H92.126Z" transform="translate(-71.946 -41.085)"/>
      <circle id="Elipse_7470" data-name="Elipse 7470" cx="1.685" cy="1.685" r="1.685" transform="translate(14.546 16.081)"/>
      <circle id="Elipse_7471" data-name="Elipse 7471" cx="1.685" cy="1.685" r="1.685" transform="translate(22.633 16.081)"/>
      <circle id="Elipse_7472" data-name="Elipse 7472" cx="1.685" cy="1.685" r="1.685" transform="translate(30.72 16.081)"/>
    </g>
    <path id="Trazado_107552" data-name="Trazado 107552" d="M145.147,77.6V73.1h-4.165V77.6a2.247,2.247,0,0,0,2.247,2.247h2.622C145.462,79.842,145.147,78.836,145.147,77.6Z" transform="translate(-61.677 -32.65)" fill="#5038a1"/>
    <path id="Trazado_107553" data-name="Trazado 107553" d="M155.491,73.185c1.067.338,1.9,3.211,1.9,6.705h4.165A6.74,6.74,0,0,0,155.491,73.185Z" transform="translate(-70.121 -32.697)" fill="#5038a1"/>
    <path id="Trazado_107554" data-name="Trazado 107554" d="M154.342,73.1h-.463c.227,0,.452.012.674.034A.693.693,0,0,0,154.342,73.1Z" transform="translate(-69.182 -32.65)" fill="#6287c5"/>
    <path id="Trazado_107555" data-name="Trazado 107555" d="M152.845,73.137c-.222-.022-.446-.034-.674-.034h-1.227V77.6c0,1.241.315,2.247.7,2.247h3.1C154.746,76.348,153.912,73.475,152.845,73.137Z" transform="translate(-67.475 -32.65)" fill="#5038a1"/>
    <path id="Trazado_107556" data-name="Trazado 107556" d="M151.366,79.352h-9.885a3.5,3.5,0,0,1-3.5-3.5V71.358a1.254,1.254,0,0,1,1.254-1.254h5.392A8,8,0,0,1,152.62,78.1,1.253,1.253,0,0,1,151.366,79.352ZM140.49,72.612v3.239a.994.994,0,0,0,.992.992h8.485a5.5,5.5,0,0,0-5.341-4.231Z" transform="translate(-59.93 -30.904)"/>
    <path id="Trazado_107557" data-name="Trazado 107557" d="M92.618,92.448v14.827h1.766l2.011-14.827Z" transform="translate(-33.531 -43.907)" fill="#ffdc72"/>
    <path id="Trazado_107558" data-name="Trazado 107558" d="M102.782,92.448l-3.624,14.827h1.309l6.74-14.827Z" transform="translate(-37.337 -43.907)" fill="#ffdc72"/>
    <path id="Trazado_107559" data-name="Trazado 107559" d="M98.853,92.448l-2.011,14.827h.968l3.624-14.827Z" transform="translate(-35.989 -43.907)" fill="#ffdc72"/>
    <path id="Trazado_107560" data-name="Trazado 107560" d="M94.916,106.783H90.873a1.254,1.254,0,0,1-1.254-1.254V90.7a1.254,1.254,0,0,1,1.254-1.254h10.783a1.254,1.254,0,0,1,1.141,1.773l-6.74,14.827A1.253,1.253,0,0,1,94.916,106.783Zm-2.79-2.508h1.982l5.6-12.318H92.127Z" transform="translate(-31.786 -42.162)"/>
    <path id="Trazado_107561" data-name="Trazado 107561" d="M96.452,109.806H85.074a1.254,1.254,0,0,1-1.086-.626,8.811,8.811,0,0,0-7.6-4.391H56.32a8.812,8.812,0,0,0-7.6,4.391,1.253,1.253,0,0,1-1.085.626H36.254A1.254,1.254,0,0,1,35,108.552v-90.3A1.254,1.254,0,0,1,36.254,17H47.633a1.254,1.254,0,0,1,1.086.626,8.811,8.811,0,0,0,7.6,4.391H76.386a8.812,8.812,0,0,0,7.6-4.391A1.253,1.253,0,0,1,85.074,17H96.452a1.254,1.254,0,0,1,1.254,1.254v90.3a1.254,1.254,0,0,1-1.254,1.254ZM85.769,107.3H95.2V19.508H85.769a11.33,11.33,0,0,1-9.383,5.017H56.32a11.33,11.33,0,0,1-9.383-5.017H37.508V107.3h9.429a11.33,11.33,0,0,1,9.383-5.017H76.386A11.33,11.33,0,0,1,85.769,107.3Z"/>
    <path id="Trazado_107562" data-name="Trazado 107562" d="M80,140H95.048v30.1H80Z" transform="translate(-26.187 -71.581)" fill="#ffb74d"/>
    <path id="Trazado_107563" data-name="Trazado 107563" d="M164,140h15.049v30.1H164Z" transform="translate(-75.072 -71.581)" fill="#ffb74d"/>
    <path id="Trazado_107564" data-name="Trazado 107564" d="M116,140h20.066v30.1H116Z" transform="translate(-47.137 -71.581)" fill="#ffb74d"/>
    <path id="Trazado_107565" data-name="Trazado 107565" d="M128.418,169.607H78.253A1.254,1.254,0,0,1,77,168.353v-30.1A1.254,1.254,0,0,1,78.253,137h50.165a1.254,1.254,0,0,1,1.254,1.254v30.1A1.254,1.254,0,0,1,128.418,169.607ZM79.507,167.1h47.657V139.508H79.507Z" transform="translate(-24.442 -69.835)"/>
    <path id="Trazado_107566" data-name="Trazado 107566" d="M104.036,169.8V154.267A2.268,2.268,0,0,0,106.3,152H95.584A3.585,3.585,0,0,1,92,155.585v12.9a3.585,3.585,0,0,1,3.585,3.585H106.3A2.268,2.268,0,0,0,104.036,169.8Z" transform="translate(-33.171 -78.564)" fill="#ffdc72"/>
    <path id="Trazado_107567" data-name="Trazado 107567" d="M164.5,152H153.78a2.268,2.268,0,0,0,2.268,2.267V169.8a2.268,2.268,0,0,0-2.268,2.267H164.5a3.585,3.585,0,0,1,3.585-3.585v-12.9A3.584,3.584,0,0,1,164.5,152Z" transform="translate(-69.125 -78.564)" fill="#ffdc72"/>
    <path id="Trazado_107568" data-name="Trazado 107568" d="M136.85,169.8V154.267A2.268,2.268,0,0,1,134.582,152H123.06a2.268,2.268,0,0,1-2.268,2.267V169.8a2.268,2.268,0,0,1,2.268,2.267h11.522A2.268,2.268,0,0,1,136.85,169.8Z" transform="translate(-49.927 -78.564)" fill="#ffdc72"/>
    <path id="Trazado_107569" data-name="Trazado 107569" d="M126.8,171.574H93.837a1.254,1.254,0,0,1-1.254-1.254,2.333,2.333,0,0,0-2.331-2.331A1.254,1.254,0,0,1,89,166.736v-12.9a1.254,1.254,0,0,1,1.254-1.254,2.334,2.334,0,0,0,2.331-2.331A1.254,1.254,0,0,1,93.837,149H126.8a1.254,1.254,0,0,1,1.254,1.254,2.333,2.333,0,0,0,2.331,2.331,1.254,1.254,0,0,1,1.254,1.254v12.9a1.254,1.254,0,0,1-1.254,1.254,2.334,2.334,0,0,0-2.331,2.331A1.254,1.254,0,0,1,126.8,171.574Zm-31.873-2.508H125.71a4.857,4.857,0,0,1,3.42-3.42V154.928a4.856,4.856,0,0,1-3.42-3.42H94.927a4.857,4.857,0,0,1-3.42,3.42v10.718A4.857,4.857,0,0,1,94.927,169.066Z" transform="translate(-31.424 -76.818)"/>
    <path id="Trazado_107570" data-name="Trazado 107570" d="M134.3,173.624a3.859,3.859,0,0,1-4.091-3.562,1.021,1.021,0,0,1,2.043,0c0,.824.939,1.52,2.049,1.52s2.049-.7,2.049-1.52-.939-1.52-2.049-1.52a3.6,3.6,0,1,1,0-7.125,4.313,4.313,0,0,1,3.337,1.5,1.021,1.021,0,1,1-1.582,1.291,2.257,2.257,0,0,0-1.755-.745c-1.111,0-2.049.7-2.049,1.52s.938,1.52,2.049,1.52a3.6,3.6,0,1,1,0,7.125Z" transform="translate(-55.409 -84.044)"/>
    <path id="Trazado_107571" data-name="Trazado 107571" d="M139.052,173.168a.681.681,0,0,1-.681-.681V159.312a.681.681,0,0,1,1.361,0v13.176A.681.681,0,0,1,139.052,173.168Z" transform="translate(-60.157 -82.423)"/>
    <path id="Trazado_107572" data-name="Trazado 107572" d="M206.662,181.356a3.386,3.386,0,0,0-3.386-3.386,3.386,3.386,0,1,0,0-6.772h-4.759c.744,0,1.347,1.516,1.347,3.386s-.6,3.386-1.347,3.386c.744,0,1.347,1.516,1.347,3.386s-.6,3.386-1.347,3.386c.744,0,1.347,1.516,1.347,3.386s-.6,3.386-1.347,3.386c.744,0,1.347,1.516,1.347,3.386s-.6,3.386-1.347,3.386h4.759a3.386,3.386,0,1,0,0-6.772,3.386,3.386,0,1,0,0-6.772A3.386,3.386,0,0,0,206.662,181.356Z" transform="translate(-95.16 -89.737)" fill="#ffebad"/>
    <path id="Trazado_107573" data-name="Trazado 107573" d="M170.8,194.9c0-1.87.6-3.386,1.347-3.386-.744,0-1.347-1.516-1.347-3.386s.6-3.386,1.347-3.386c-.744,0-1.347-1.516-1.347-3.386s.6-3.386,1.347-3.386c-.744,0-1.347-1.516-1.347-3.386s.6-3.386,1.347-3.386h-4.759a3.386,3.386,0,0,0,0,6.772,3.386,3.386,0,0,0,0,6.772,3.386,3.386,0,1,0,0,6.772,3.386,3.386,0,1,0,0,6.772h4.759C171.4,198.288,170.8,196.771,170.8,194.9Z" transform="translate(-75.072 -89.736)" fill="#ffebad"/>
    <path id="Trazado_107574" data-name="Trazado 107574" d="M189.239,194.9c0-1.87-.6-3.386-1.347-3.386.744,0,1.347-1.516,1.347-3.386s-.6-3.386-1.347-3.386c.744,0,1.347-1.516,1.347-3.386s-.6-3.386-1.347-3.386c.744,0,1.347-1.516,1.347-3.386s-.6-3.386-1.347-3.386h-6.285c-.744,0-1.347,1.516-1.347,3.386s.6,3.386,1.347,3.386c-.744,0-1.347,1.516-1.347,3.386s.6,3.386,1.347,3.386c-.744,0-1.347,1.516-1.347,3.386s.6,3.386,1.347,3.386c-.744,0-1.347,1.516-1.347,3.386s.6,3.386,1.347,3.386h6.285C188.636,198.288,189.239,196.771,189.239,194.9Z" transform="translate(-84.535 -89.736)" fill="#ffebad"/>
    <path id="Trazado_107575" data-name="Trazado 107575" d="M181.442,226.079h-15.8a4.64,4.64,0,0,1,0-9.281h15.8a4.64,4.64,0,0,1,0,9.281Zm-15.8-6.772a2.132,2.132,0,0,0,0,4.264h15.8a2.132,2.132,0,0,0,0-4.264Z" transform="translate(-73.326 -116.274)"/>
    <path id="Trazado_107576" data-name="Trazado 107576" d="M181.442,209.879h-15.8a4.64,4.64,0,0,1,0-9.281h15.8a4.64,4.64,0,0,1,0,9.281Zm-15.8-6.772a2.132,2.132,0,0,0,0,4.264h15.8a2.132,2.132,0,0,0,0-4.264Z" transform="translate(-73.326 -106.846)"/>
    <path id="Trazado_107577" data-name="Trazado 107577" d="M181.442,193.679h-15.8a4.64,4.64,0,0,1,0-9.281h15.8a4.64,4.64,0,0,1,0,9.281Zm-15.8-6.773a2.132,2.132,0,0,0,0,4.264h15.8a2.132,2.132,0,0,0,0-4.264Z" transform="translate(-73.326 -97.418)"/>
    <path id="Trazado_107578" data-name="Trazado 107578" d="M181.442,177.478h-15.8a4.64,4.64,0,0,1,0-9.281h15.8a4.64,4.64,0,0,1,0,9.281Zm-15.8-6.772a2.132,2.132,0,0,0,0,4.264h15.8a2.132,2.132,0,0,0,0-4.264Z" transform="translate(-73.326 -87.99)"/>
  </g>
</svg>
