<svg xmlns="http://www.w3.org/2000/svg" xmlns:xlink="http://www.w3.org/1999/xlink" width="227.777" height="226.68" viewBox="0 0 227.777 226.68">
  <defs>
    <linearGradient id="linear-gradient" x1="0.846" y1="0.131" x2="0.142" y2="0.634" gradientUnits="objectBoundingBox">
      <stop offset="0.004" stop-color="#e38ddd"/>
      <stop offset="1" stop-color="#9571f6"/>
    </linearGradient>
    <linearGradient id="linear-gradient-2" x1="0.644" y1="0.09" x2="0.34" y2="1.042" gradientUnits="objectBoundingBox">
      <stop offset="0" stop-color="#aa80f9"/>
      <stop offset="0.996" stop-color="#6165d7"/>
    </linearGradient>
    <clipPath id="clip-path">
      <path id="Trazado_107706" data-name="Trazado 107706" d="M2178.187,1098.036c-2.986-8.2-6.16-20.772-3.367-34.928,3.206-16.255,11.349-19.747,18.2-37.232,9.781-24.959-2.75-42.412,7.95-50.287,5.218-3.84,13.608-4.111,18.9-.593,15.094,10.04,12.512,55.954-10.332,74.569-10.332,8.419-19.6,7.756-27.215,18.466C2175.6,1077.5,2176.537,1089.667,2178.187,1098.036Z" transform="translate(-2173.742 -972.523)" fill="url(#linear-gradient)"/>
    </clipPath>
    <clipPath id="clip-path-2">
      <path id="Trazado_107712" data-name="Trazado 107712" d="M1880.564,1464.473c-1.522-7.676-2.641-19.7,3.3-30.681,10.356-19.152,30.529-13.554,49-34.308,14.9-16.739,9.637-29.211,26.377-40.554,2.8-1.9,17.595-12.327,29.024-6.7,6.44,3.173,8.956,10.029,9.428,11.316,7.138,19.453-11.9,50.876-37.556,65.789-14.738,8.568-19.661,6.079-45.751,16.357A148.576,148.576,0,0,0,1880.564,1464.473Z" transform="translate(-1879.352 -1350.583)" fill="url(#linear-gradient-2)"/>
    </clipPath>
    <linearGradient id="linear-gradient-3" x1="0.636" y1="1.231" x2="0.531" y2="0.666" gradientUnits="objectBoundingBox">
      <stop offset="0" stop-color="#fcb148"/>
      <stop offset="0.052" stop-color="#fdb946"/>
      <stop offset="0.142" stop-color="#fec144"/>
      <stop offset="0.318" stop-color="#ffc444"/>
      <stop offset="0.485" stop-color="#fdb946"/>
      <stop offset="0.775" stop-color="#f99c4c"/>
      <stop offset="0.866" stop-color="#f8924f"/>
      <stop offset="1" stop-color="#f8924f"/>
    </linearGradient>
    <linearGradient id="linear-gradient-4" x1="0.464" y1="0.369" x2="1.215" y2="1.306" xlink:href="#linear-gradient-3"/>
    <linearGradient id="linear-gradient-5" x1="-30.122" y1="0.268" x2="-29.86" y2="1.66" gradientUnits="objectBoundingBox">
      <stop offset="0" stop-color="#ffc444"/>
      <stop offset="0.996" stop-color="#f36f56"/>
    </linearGradient>
    <linearGradient id="linear-gradient-6" x1="12.129" y1="-8.998" x2="12.344" y2="-7.192" xlink:href="#linear-gradient-5"/>
    <linearGradient id="linear-gradient-7" x1="-23.874" y1="2.261" x2="-23.874" y2="-7.281" xlink:href="#linear-gradient-5"/>
    <linearGradient id="linear-gradient-8" x1="-10.778" y1="1.366" x2="-11.767" y2="-2.607" gradientUnits="objectBoundingBox">
      <stop offset="0" stop-color="#ff9085"/>
      <stop offset="1" stop-color="#fb6fbb"/>
    </linearGradient>
    <linearGradient id="linear-gradient-9" x1="47.182" y1="-57.255" x2="47.182" y2="-67.358" xlink:href="#linear-gradient-5"/>
    <linearGradient id="linear-gradient-10" x1="67.261" y1="-25.302" x2="65.225" y2="-28.083" xlink:href="#linear-gradient-8"/>
    <linearGradient id="linear-gradient-11" x1="-1.165" y1="1.03" x2="-0.631" y2="-0.052" gradientUnits="objectBoundingBox">
      <stop offset="0" stop-color="#444b8c"/>
      <stop offset="0.996" stop-color="#26264f"/>
    </linearGradient>
  </defs>
  <g id="Grupo_84329" data-name="Grupo 84329" transform="translate(-1020 -2150.03)">
    <g id="Grupo_84218" data-name="Grupo 84218" transform="translate(520.474 1724.967)">
      <path id="Trazado_107700" data-name="Trazado 107700" d="M609.169,428.307c-23.027,9.156-25.233,32.561-45.967,34.57-18.066,1.75-24.933-15.192-37.609-12.156-19.31,4.624-31.45,50.661-23.695,88.514,8.008,39.086,41.653,91.047,97.393,94.593,62.58,3.981,109.932-55.8,112.823-108.269.313-5.674,2.159-53.213-34.186-81.3C676.113,442.859,640.3,415.93,609.169,428.307Z" transform="translate(0)" fill="#ffdc72"/>
      <g id="Grupo_84208" data-name="Grupo 84208" transform="translate(598.861 467.883)">
        <g id="Grupo_84201" data-name="Grupo 84201" transform="translate(31.617)">
          <g id="Grupo_84200" data-name="Grupo 84200">
            <path id="Trazado_107701" data-name="Trazado 107701" d="M2178.187,1098.036c-2.986-8.2-6.16-20.772-3.367-34.928,3.206-16.255,11.349-19.747,18.2-37.232,9.781-24.959-2.75-42.412,7.95-50.287,5.218-3.84,13.608-4.111,18.9-.593,15.094,10.04,12.512,55.954-10.332,74.569-10.332,8.419-19.6,7.756-27.215,18.466C2175.6,1077.5,2176.537,1089.667,2178.187,1098.036Z" transform="translate(-2173.742 -972.523)" fill="#d8ccff"/>
            <g id="Grupo_84199" data-name="Grupo 84199" clip-path="url(#clip-path)">
              <g id="Grupo_84198" data-name="Grupo 84198" transform="translate(1.849 -4.261)" style="mix-blend-mode: soft-light;isolation: isolate">
                <path id="Trazado_107702" data-name="Trazado 107702" d="M2197.656,1027.009l-.271-.06a63.207,63.207,0,0,1,3.234-10.342c3.144-7.664,6.74-11.932,11.294-17.336a146.454,146.454,0,0,0,10.147-13.156c7.177-10.6,9.39-14.316,11.284-20.232a57.856,57.856,0,0,0,1.877-27.22,56.408,56.408,0,0,0-7.962-20.472l.235-.149a56.692,56.692,0,0,1,8,20.572,58.141,58.141,0,0,1-1.886,27.353c-1.905,5.95-4.124,9.674-11.319,20.3a146.647,146.647,0,0,1-10.164,13.18c-4.538,5.385-8.123,9.638-11.249,17.262A62.963,62.963,0,0,0,2197.656,1027.009Z" transform="translate(-2197.385 -918.042)" fill="#fff"/>
                <path id="Trazado_107703" data-name="Trazado 107703" d="M2437.592,1063.41l-.011-.229c-.424-8.522-6.052-13.868-10.7-16.852a37.344,37.344,0,0,0-10.1-4.485l.065-.271a37.651,37.651,0,0,1,10.186,4.521c4.659,2.991,10.293,8.334,10.813,16.838a31.076,31.076,0,0,0,7.793-7.4,27.852,27.852,0,0,0,4.9-22.749l.273-.055a28.122,28.122,0,0,1-4.953,22.979,30.773,30.773,0,0,1-8.066,7.582Z" transform="translate(-2399.621 -1023.762)" fill="#fff"/>
                <path id="Trazado_107704" data-name="Trazado 107704" d="M2461.547,1465.989a28.751,28.751,0,0,1-10-1.772l-.108-.045.026-.114c1.93-8.449-.176-14.559-2.282-18.2a19.967,19.967,0,0,0-5.073-5.923l.16-.228a20.288,20.288,0,0,1,5.154,6.012c2.122,3.665,4.243,9.806,2.339,18.282,1.315.51,14.257,5.186,24.739-3.524l.178.214A23.2,23.2,0,0,1,2461.547,1465.989Z" transform="translate(-2424.813 -1398.907)" fill="#fff"/>
                <path id="Trazado_107705" data-name="Trazado 107705" d="M2382.316,1676.527a23.528,23.528,0,0,1-5.453-.612,15.959,15.959,0,0,1-6.207-2.774l-.075-.065.036-.093c3.441-8.623-2.187-22.379-2.244-22.517l.257-.107c.058.138,5.686,13.9,2.283,22.631.875.677,9.154,6.58,24.07.583l.1.258A34.2,34.2,0,0,1,2382.316,1676.527Z" transform="translate(-2354.999 -1593.079)" fill="#fff"/>
              </g>
            </g>
          </g>
        </g>
        <g id="Grupo_84205" data-name="Grupo 84205" transform="translate(8.591 29.571)">
          <g id="Grupo_84204" data-name="Grupo 84204">
            <path id="Trazado_107707" data-name="Trazado 107707" d="M1880.564,1464.473c-1.522-7.676-2.641-19.7,3.3-30.681,10.356-19.152,30.529-13.554,49-34.308,14.9-16.739,9.637-29.211,26.377-40.554,2.8-1.9,17.595-12.327,29.024-6.7,6.44,3.173,8.956,10.029,9.428,11.316,7.138,19.453-11.9,50.876-37.556,65.789-14.738,8.568-19.661,6.079-45.751,16.357A148.576,148.576,0,0,0,1880.564,1464.473Z" transform="translate(-1879.352 -1350.583)" fill="#8c6df2"/>
            <g id="Grupo_84203" data-name="Grupo 84203" clip-path="url(#clip-path-2)">
              <g id="Grupo_84202" data-name="Grupo 84202" transform="translate(-1.022 -7.294)" style="mix-blend-mode: soft-light;isolation: isolate">
                <path id="Trazado_107708" data-name="Trazado 107708" d="M1866.554,1387.869l-.274-.048c3.25-18.566,10.136-31.19,20.468-37.521,5.058-3.1,9.144-3.695,13.471-4.325,4.653-.678,9.465-1.379,15.717-5.438,6.076-3.944,8.181-7.623,10.848-12.28a72.713,72.713,0,0,1,12.229-16.437,77.5,77.5,0,0,1,14.321-11.7c4.225-2.807,7.561-5.025,11.338-10.316,6.169-8.643,9.188-19.568,8.973-32.472l.278,0c.216,12.965-2.821,23.947-9.024,32.639-3.807,5.333-7.162,7.563-11.41,10.386a77.269,77.269,0,0,0-14.276,11.658,72.477,72.477,0,0,0-12.187,16.381c-2.685,4.69-4.806,8.394-10.938,12.375-6.3,4.092-11.145,4.8-15.828,5.48-4.3.626-8.357,1.218-13.365,4.287C1876.633,1356.825,1869.79,1369.385,1866.554,1387.869Z" transform="translate(-1866.28 -1257.332)" fill="#fff"/>
                <path id="Trazado_107709" data-name="Trazado 107709" d="M2930.5,1388.774l.053-.179c.076-.26,7.538-26.126-2.232-36.407l.2-.192c2.853,3,6.019,9.31,4.9,22.3a83.427,83.427,0,0,1-2.549,14.2,49.939,49.939,0,0,0,30.448-10.443,47.177,47.177,0,0,0,10.116-10.421l.234.151a47.463,47.463,0,0,1-10.171,10.484,50.222,50.222,0,0,1-30.812,10.509Z" transform="translate(-2845.255 -1344.592)" fill="#fff"/>
                <path id="Trazado_107710" data-name="Trazado 107710" d="M2723.666,1673.283c-1.414,0-2.754-.048-4.006-.128a58.6,58.6,0,0,1-16.655-3.377l-.111-.045.028-.116c3.26-13.466-.6-32.356-.639-32.545l.273-.056c.039.189,3.889,19.03.665,32.549a60.977,60.977,0,0,0,52.492-5.858l.151.234A59.049,59.049,0,0,1,2723.666,1673.283Z" transform="translate(-2636.894 -1607.317)" fill="#fff"/>
                <path id="Trazado_107711" data-name="Trazado 107711" d="M2388.635,1999.783c-23.392,0-37.049-9.189-37.194-9.288l-.121-.083.089-.116c9.739-12.695,5.138-33.013,5.09-33.217l.271-.063c.047.2,4.65,20.523-5.05,33.331,1.508.976,16.744,10.369,41.764,9.028l.015.278Q2391,1999.786,2388.635,1999.783Z" transform="translate(-2313.382 -1902.289)" fill="#fff"/>
              </g>
            </g>
          </g>
        </g>
        <g id="Grupo_84207" data-name="Grupo 84207" transform="translate(0 91.018)">
          <g id="Grupo_84206" data-name="Grupo 84206">
            <path id="Trazado_107713" data-name="Trazado 107713" d="M1769.521,2188.748a83.345,83.345,0,0,1,20.415-11.561c16.614-6.495,24.427-3.227,31.314-10.558,7.129-7.589,2.128-14.68,10.681-23.174.719-.714,9.911-9.606,18.577-6.682,6.063,2.046,8.613,8.777,9.809,11.935,4.644,12.257,2.778,31.219-10.145,40.956-12.252,9.231-28.257,5.53-33.339,4.32-8.916-2.124-11.121-5.5-20.177-7.394C1785.643,2184.29,1775.883,2186.567,1769.521,2188.748Z" transform="translate(-1769.521 -2136.185)" fill="#ffb74d"/>
          </g>
        </g>
      </g>
      <g id="Grupo_84213" data-name="Grupo 84213" transform="translate(503.499 514.485)">
        <g id="Grupo_84211" data-name="Grupo 84211" transform="translate(0 0)">
          <g id="Grupo_84210" data-name="Grupo 84210">
            <path id="Trazado_107714" data-name="Trazado 107714" d="M836.272,2966.6l-218.389-1.888v5.585a2.966,2.966,0,0,0,2.243,3.035l61.754,11a8.533,8.533,0,0,0,2.216.1l149.8-12.54a2.826,2.826,0,0,0,2.373-2.963Z" transform="translate(-612.597 -2855.49)" fill="#5038a1"/>
            <g id="Grupo_84209" data-name="Grupo 84209">
              <path id="Trazado_107715" data-name="Trazado 107715" d="M693.614,1670.487,554.81,1680.7a4.207,4.207,0,0,1-4.5-4.34V1573a4.592,4.592,0,0,1,4.5-4.671h138.8a3.986,3.986,0,0,1,3.7,4.223v93.438A4.359,4.359,0,0,1,693.614,1670.487Z" transform="translate(-550.307 -1568.33)" fill="#5038a1"/>
              <path id="Trazado_107716" data-name="Trazado 107716" d="M721.91,1670.487l-138.8,10.218a4.207,4.207,0,0,1-4.5-4.34V1573a4.592,4.592,0,0,1,4.5-4.671h138.8a3.986,3.986,0,0,1,3.7,4.223v93.438A4.359,4.359,0,0,1,721.91,1670.487Z" transform="translate(-576.39 -1568.33)" fill="#8c6df2"/>
              <path id="Trazado_107717" data-name="Trazado 107717" d="M788.743,1734.624,659.462,1743.5a3.449,3.449,0,0,1-3.664-3.562v-90.495a3.762,3.762,0,0,1,3.664-3.829l129.281-.557a3.266,3.266,0,0,1,3.054,3.46v82.425A3.568,3.568,0,0,1,788.743,1734.624Z" transform="translate(-647.547 -1639.054)" fill="#d8ccff"/>
              <path id="Trazado_107718" data-name="Trazado 107718" d="M1548.484,1583.994a1.6,1.6,0,1,1-1.6-1.738A1.679,1.679,0,0,1,1548.484,1583.994Z" transform="translate(-1467.463 -1581.167)" fill="#fff"/>
              <path id="Trazado_107719" data-name="Trazado 107719" d="M583.106,1680.7l138.1-10.166.7-.052a3.727,3.727,0,0,0,2.445-1.237c-9.938-.544-16.111-4.071-20.092-7.715-8-7.318-6.609-14.535-15.232-19.346-10.755-6-19.212,1.6-27.374-5.9-4.948-4.549-2.519-7.941-8.607-14.739-6.743-7.529-11.134-5-17.911-11.774-8.569-8.568-4.283-15.234-11.665-21.386-8.954-7.463-18.611-.555-27.135-7.712-3.677-3.087-5.694-7.574-6.747-12.347h-6.485a4.592,4.592,0,0,0-4.5,4.672v103.363A4.207,4.207,0,0,0,583.106,1680.7Z" transform="translate(-576.39 -1568.329)" fill="#ffdc72" opacity="0.48" style="mix-blend-mode: soft-light;isolation: isolate"/>
            </g>
            <path id="Trazado_107720" data-name="Trazado 107720" d="M764.658,2866.807l-146.775,10.755,64,11.4a8.555,8.555,0,0,0,2.216.1l152.177-12.739-69.28-9.445A11.214,11.214,0,0,0,764.658,2866.807Z" transform="translate(-612.597 -2765.217)" fill="#d8ccff"/>
            <path id="Trazado_107721" data-name="Trazado 107721" d="M891.7,2898.753l122.194-9.087,37.818,5.114-121.142,9.714Z" transform="translate(-864.994 -2786.315)" fill="#8c6df2"/>
          </g>
        </g>
        <g id="Grupo_84212" data-name="Grupo 84212" transform="translate(53.146 16.154)">
          <path id="Trazado_107722" data-name="Trazado 107722" d="M1288.483,1793.2c-4.188-13.446-17.655-21.21-30.08-17.34s-19.1,17.907-14.913,31.354,17.655,21.21,30.08,17.341S1292.672,1806.645,1288.483,1793.2Zm-19.476,16.418.085,3.669-3.526.082-.08-3.418a14.461,14.461,0,0,1-6.152-1.4l.981-4.234a12.713,12.713,0,0,0,6.009,1.444c2.051-.047,3.435-.872,3.4-2.311-.032-1.368-1.2-2.2-3.886-3.042-3.88-1.206-6.548-2.944-6.629-6.434-.073-3.166,2.1-5.7,5.931-6.545l-.079-3.418,3.526-.082.073,3.166a12.953,12.953,0,0,1,5.245,1.066l-.949,4.09a11.931,11.931,0,0,0-5.209-1.1c-2.339.054-3.07,1.08-3.047,2.087.028,1.187,1.3,1.914,4.389,2.994,4.316,1.412,6.089,3.35,6.164,6.587C1275.331,1806.013,1273.128,1808.8,1269.008,1809.616Z" transform="translate(-1241.266 -1774.863)" fill="#d8ccff" opacity="0.3" style="mix-blend-mode: multiply;isolation: isolate"/>
          <path id="Trazado_107723" data-name="Trazado 107723" d="M1279.044,2529.356a3.269,3.269,0,0,1-3.062,3.251l-42.492,2.335a3.346,3.346,0,0,1-3.71-3.173v-7.033a3.722,3.722,0,0,1,3.729-3.488l42.447-1.294a2.967,2.967,0,0,1,3.089,2.986Z" transform="translate(-1229.78 -2461.674)" fill="#3a2c69" opacity="0.3" style="mix-blend-mode: multiply;isolation: isolate"/>
        </g>
      </g>
      <g id="Grupo_84215" data-name="Grupo 84215" transform="translate(560.789 461.687)">
        <path id="Trazado_107724" data-name="Trazado 107724" d="M1387.6,981.473c0,28.365-22.179,50.678-50.528,49.808-29.5-.906-54.314-26.385-54.314-56.876s24.812-52.624,54.314-49.552C1365.423,927.8,1387.6,953.108,1387.6,981.473Z" transform="translate(-1282.761 -922.122)" fill="#ffb74d"/>
        <path id="Trazado_107725" data-name="Trazado 107725" d="M1485.538,950.2c0,28.365-22.179,50.678-50.528,49.807-29.5-.906-54.314-26.385-54.314-56.875s24.812-52.624,54.314-49.552C1463.359,896.535,1485.538,921.839,1485.538,950.2Z" transform="translate(-1373.037 -893.299)" fill="#ffdc72"/>
        <path id="Trazado_107726" data-name="Trazado 107726" d="M1513.513,978.877c0,27.116-21.222,48.41-48.3,47.533-28.132-.911-51.751-25.227-51.751-54.279s23.619-50.183,51.751-47.3C1492.291,927.606,1513.513,951.762,1513.513,978.877Z" transform="translate(-1403.236 -922.122)" fill="url(#linear-gradient-3)"/>
        <path id="Trazado_107727" data-name="Trazado 107727" d="M1533.426,999.351c0,26.221-20.535,46.788-46.709,45.909-27.155-.912-49.926-24.4-49.926-52.424s22.771-48.442,49.926-45.693C1512.891,949.794,1533.426,973.13,1533.426,999.351Z" transform="translate(-1424.743 -942.703)" fill="#ffebad"/>
        <g id="Grupo_84214" data-name="Grupo 84214" transform="translate(37.746 13.349)">
          <path id="Trazado_107728" data-name="Trazado 107728" d="M1789.306,1063.982h0a2.855,2.855,0,0,1,2.52,2.8v4.828a70.968,70.968,0,0,1,8.367,1.451q3.089.726,6.137,1.728a2.822,2.822,0,0,1,1.923,2.9l-.593,6.054a2.269,2.269,0,0,1-3.24,1.883,34.967,34.967,0,0,0-4.117-1.533,37.322,37.322,0,0,0-7.765-1.451l-.712-.059v13.826c7.266,2.033,12.6,4.767,16.05,8.207a17.351,17.351,0,0,1,5.142,12.812q0,8.308-5.686,13.319-5.724,5.044-16.085,5.664v5.328a2.424,2.424,0,0,1-2.522,2.462h-.045a2.679,2.679,0,0,1-2.531-2.672v-5.256l-1.123-.051a73.8,73.8,0,0,1-9.319-.994,60.587,60.587,0,0,1-6.439-1.481,2.775,2.775,0,0,1-2.02-2.869l.7-7.782a2.461,2.461,0,0,1,3.44-2.03,50.607,50.607,0,0,0,5.663,1.859,49.647,49.647,0,0,0,9.055,1.513l.045-15.38q-10.462-2.589-15.627-7.668a17.558,17.558,0,0,1-5.176-13.048q0-8.216,5.612-12.674c3.717-2.952,9-4.421,15.819-4.417v-4.936A2.28,2.28,0,0,1,1789.306,1063.982Zm-2.529,18.456a8.519,8.519,0,0,0-5.039,1.777,5.182,5.182,0,0,0-1.808,4.15,5.571,5.571,0,0,0,1.673,4.125,11.853,11.853,0,0,0,5.175,2.64Zm4.47,27.849v14.1a7.8,7.8,0,0,0,5.394-1.677,6.037,6.037,0,0,0,1.877-4.748,6.486,6.486,0,0,0-1.745-4.642A12.808,12.808,0,0,0,1791.247,1110.287Z" transform="translate(-1765.346 -1063.971)" fill="#ffb74d"/>
        </g>
        <path id="Trazado_107729" data-name="Trazado 107729" d="M1478.264,1008.789c1.578-15.587,15.9-22.185,14.033-36.522-1.152-8.837-7.85-16.284-15.321-22.1-22.662,2.377-40.186,21.141-40.186,45.685,0,28.027,22.771,51.512,49.926,52.424a47.152,47.152,0,0,0,7.715-.377C1483.647,1037.17,1476.908,1022.18,1478.264,1008.789Z" transform="translate(-1424.742 -945.721)" opacity="0.3" fill="url(#linear-gradient-4)" style="mix-blend-mode: multiply;isolation: isolate"/>
      </g>
      <g id="Grupo_84216" data-name="Grupo 84216" transform="translate(516.652 427.9)">
        <path id="Trazado_107730" data-name="Trazado 107730" d="M865.02,519.393v.221a94.666,94.666,0,0,0-7.486-8.45c-.039-.094-.1-.188-.143-.282a49.872,49.872,0,0,0-4.767-8.8,48.558,48.558,0,0,0-7.613-8.713c-.36-.354-.776-.667-1.161-1-.2-.163-.395-.332-.594-.5l-.291-.249c-.1-.083-.208-.158-.311-.238q-.619-.469-1.24-.947l-.31-.238-.327-.221c-.216-.149-.432-.3-.648-.446-.852-.617-1.771-1.151-2.668-1.716-.457-.274-.936-.526-1.4-.786-.23-.13-.465-.263-.7-.39l-.722-.36a45.2,45.2,0,0,0-12.33-4.115l-1.616-.266c-.54-.075-1.088-.122-1.625-.185l-.814-.091-.816-.044-.817-.05c-.271-.014-.54-.042-.814-.036l-1.63-.011c-.133,0-.277-.008-.4,0l-.362.019-.725.039-.72.036c-.064,0-.108,0-.191.008l-.739.055-.988.069-.739.055-.124.008-.044,0s-.257,0,.174.008l-1.6.235c-.263.041-.528.066-.792.125l-.783.158-.783.155-.39.078c-.13.025-.257.064-.385.094-.512.13-1.024.257-1.533.39-.257.055-.506.144-.755.219l-.747.235-.747.224-.731.268c-.487.183-.974.343-1.448.537s-.944.4-1.412.6a40.561,40.561,0,0,0-9.916,6.238l-.537.448-.509.479c-.338.315-.686.617-1.007.941-.014.011-.025.028-.039.039-.626.648-1.259,1.257-1.821,1.926-.149.163-.3.329-.44.5l-.222.244-.2.26c-.274.338-.545.678-.817,1.013-.066.083-.138.163-.2.249l-.185.26c-.127.174-.252.349-.376.518-.244.349-.509.67-.728,1.03a38.5,38.5,0,0,0-4.215,8.176,37.373,37.373,0,0,0-1.868,7.29c-.036.274-.072.543-.108.808s-.083.52-.094.778c-.042.515-.083,1-.125,1.472s-.028.933-.047,1.362c-.008.216-.022.426-.025.628s.014.41.017.6c.005.39.011.758.016,1.1a1.386,1.386,0,0,0,.019.213c.008.064.017.127.025.188.011.122.028.105.039.216.008.094.019.138.028.138h18.22l-11.071,12.274L755.282,562.64l-36.81-40.422h19.354a3,3,0,0,0,.089-.592c.075-.562.155-1.11.244-1.777.05-.332.094-.642.147-1,.027-.174.052-.34.08-.523s.05-.374.086-.531c.136-.67.277-1.376.426-2.128.08-.374.158-.756.241-1.149s.194-.791.3-1.2c.21-.817.415-1.674.67-2.557q.407-1.316.844-2.734c.141-.476.327-.944.5-1.428l.537-1.464a69.924,69.924,0,0,1,6.3-12.557,68.949,68.949,0,0,1,10.34-12.615c.5-.512,1.055-.98,1.589-1.47.271-.241.54-.484.811-.728l.412-.365.421-.349c.567-.462,1.14-.93,1.711-1.4L764,475.3l.448-.332c.3-.224.6-.446.9-.667,1.182-.905,2.452-1.721,3.714-2.563.637-.41,1.3-.792,1.951-1.187.324-.194.653-.387.983-.587l1.013-.548a65.548,65.548,0,0,1,17.514-6.529l2.325-.459c.775-.144,1.564-.244,2.344-.362l1.173-.166,1.182-.116,1.179-.113c.393-.036.783-.08,1.179-.094.786-.036,1.575-.13,2.364-.166.193-.008.393-.083.589-.083h.592l1.176.066,1.176.039c.393,0,.786.053,1.176.072l2.339.141c.531.008.183.014.318.017l.061.008.125.014.244.033.492.061.98.122.493.061.244.03.3.042,1.24.183,1.24.188.615.1c.2.033.382.078.576.116.755.161,1.511.324,2.267.482.376.075.747.183,1.118.28l1.115.3,1.107.3,1.093.346c.725.235,1.453.457,2.164.711s1.417.531,2.123.8a60.8,60.8,0,0,1,15.1,8.652c.277.213.551.429.825.642s.531.445.794.672c.526.448,1.054.88,1.561,1.34,1,.938,2,1.838,2.906,2.812.233.238.459.479.692.714l.34.354.327.368q.652.739,1.287,1.467l.318.365.3.376c.2.252.4.5.6.75.393.5.805.977,1.16,1.495A60.971,60.971,0,0,1,858.554,494c.686,1.315,1.3,2.624,1.838,3.916a57.71,57.71,0,0,1,3.415,11.048c.075.421.155.833.23,1.24s.158.8.2,1.2c.105.789.21,1.544.307,2.272s.127,1.434.188,2.1c.025.332.058.656.077.977s.078.625.091.93C864.923,518.28,865.02,518.859,865.02,519.393Z" transform="translate(-718.472 -461.33)" fill="#3a2c69"/>
        <path id="Trazado_107731" data-name="Trazado 107731" d="M1651.481,698.688v.221a94.675,94.675,0,0,0-7.487-8.45c-.039-.094-.1-.188-.143-.282a49.9,49.9,0,0,0-4.766-8.8,48.572,48.572,0,0,0-7.613-8.713c-.36-.354-.776-.667-1.161-1-.2-.163-.395-.332-.594-.5l-.292-.249c-.1-.083-.208-.158-.311-.238q-.618-.469-1.24-.947l-.31-.238-.327-.221c-.216-.15-.432-.3-.648-.446-.852-.617-1.771-1.151-2.668-1.716-.457-.274-.936-.526-1.4-.786-.23-.13-.465-.263-.7-.39l-.722-.36a45.2,45.2,0,0,0-12.33-4.116l-1.616-.266c-.54-.075-1.087-.122-1.625-.185l-.814-.091-.816-.044-.816-.05c-.271-.014-.54-.042-.814-.036l-1.63-.011c-.133,0-.277-.008-.4,0l-.363.019-.725.039-.72.036c-.063,0-.108,0-.191.008l-.739.055-.988.069-.739.055-.125.008-.044,0s-.257,0,.174.008l-1.6.235c-.263.041-.529.066-.792.125l-.783.158-.783.155-.39.078c-.13.025-.257.064-.385.094-.512.13-1.024.257-1.533.39-.257.055-.506.144-.756.219l-.747.235-.747.224-.731.268c-.487.183-.974.343-1.447.537s-.944.4-1.412.6a40.558,40.558,0,0,0-9.916,6.238l-.537.448-.509.479c-.338.315-.686.617-1.007.941-.014.011-.025.028-.039.039,8.178-10.127,21.427-16.706,36.378-16.706,15.319,0,28.85,6.905,36.97,17.453.686,1.315,1.3,2.624,1.838,3.916a57.728,57.728,0,0,1,3.415,11.049c.074.421.155.833.229,1.24s.158.8.2,1.2c.105.789.21,1.544.307,2.272s.127,1.434.188,2.1c.025.332.058.656.077.977s.078.625.092.93C1651.384,697.575,1651.481,698.154,1651.481,698.688Z" transform="translate(-1504.933 -640.625)" fill="#8c6df2" opacity="0.4" style="mix-blend-mode: multiply;isolation: isolate"/>
      </g>
      <g id="Grupo_84217" data-name="Grupo 84217" transform="translate(499.761 533.721)">
        <path id="Trazado_107732" data-name="Trazado 107732" d="M1135.954,1858.825a4,4,0,0,1-1.255-1.654c-.331-.851-.1-1.229-.513-1.761a2.11,2.11,0,0,0-2.343-.635.949.949,0,0,0-.465.368c-.329.555.4,1.516.983,2.027a8.816,8.816,0,0,0,1.084.684,4.474,4.474,0,0,1,1.483,1.882Z" transform="translate(-1082.116 -1851.482)" fill="url(#linear-gradient-5)"/>
        <path id="Trazado_107733" data-name="Trazado 107733" d="M879.27,1816.953a4,4,0,0,0,1.8-1.033c.637-.654.57-1.094,1.16-1.421a2.109,2.109,0,0,1,2.4.33.946.946,0,0,1,.285.52c.086.639-.961,1.239-1.7,1.483a8.74,8.74,0,0,1-1.265.207,4.479,4.479,0,0,0-2.1,1.154Z" transform="translate(-849.802 -1814.265)" fill="url(#linear-gradient-6)"/>
        <path id="Trazado_107734" data-name="Trazado 107734" d="M713.84,1836.223c.324,1.541-1.342,2.912-2.544,4.258-2.411,2.7-4.934,7.518-4.007,11.652a8.984,8.984,0,0,0,4.419,5.858c2.465,1.246,3.942.113,6.506,1.592.189.109,3.432,2.031,3.526,4.626.116,3.2-4.59,6.606-8.618,6.867-7.368.477-16.245-9.321-15.832-19.044.45-10.584,11.823-18.986,15.095-17.561A2.7,2.7,0,0,1,713.84,1836.223Z" transform="translate(-682.043 -1832.745)" fill="#ffdc72"/>
        <path id="Trazado_107735" data-name="Trazado 107735" d="M929.47,3259.183l.264,2.682-1.249-.227-.839-2.519Z" transform="translate(-894.394 -3146.107)" fill="url(#linear-gradient-7)"/>
        <path id="Trazado_107736" data-name="Trazado 107736" d="M853.675,2626.473a67.489,67.489,0,0,0,1.427,12.163c.757,3.579,1.2,4.2,1.434,6.671.514,5.385-1.222,6.156-1.54,12.242a37.072,37.072,0,0,0,2.138,14.1,38.5,38.5,0,0,0,1.741,4.219c.616.537,1.558.331,2.552.128.366-6.1.822-11.832,1.188-17.928q1.77-13.756,3.541-27.511Z" transform="translate(-826.209 -2562.945)" fill="#8c6df2"/>
        <path id="Trazado_107737" data-name="Trazado 107737" d="M861.426,2676c.366-6.1.822-11.832,1.188-17.928q1.77-13.756,3.541-27.511l-12.48-4.085c.009.315.025.619.037.928,5.836,5.068,6.979,9.084,6.922,11.823-.069,3.321-1.885,4.968-1.531,9.784.254,3.444,1.289,4.05,1.288,7.157,0,4-1.718,6.251-2.554,8.563-.808,2.235-1.1,5.4.466,9.9.2.465.4.88.572,1.238C859.491,2676.406,860.433,2676.2,861.426,2676Z" transform="translate(-826.209 -2562.945)" fill="#5038a1" opacity="0.3" style="mix-blend-mode: multiply;isolation: isolate"/>
        <path id="Trazado_107738" data-name="Trazado 107738" d="M930.286,3278.959c-.591-.732-1.134-.679-1.233-1.176a1.013,1.013,0,0,1,.534-1.036,1.377,1.377,0,0,1,1.249.26c.925.629.649,1.578,1.525,2.01a2.375,2.375,0,0,1,.748.467c.124.121.43.421.353.621-.09.232-.647.212-1.177.193a2.309,2.309,0,0,1-1.256-.232C930.609,3279.793,930.742,3279.524,930.286,3278.959Z" transform="translate(-895.679 -3162.287)" fill="url(#linear-gradient-8)"/>
        <path id="Trazado_107739" data-name="Trazado 107739" d="M925.485,2996.312l-2.336.914-.681-1.071,1.826-1.227Z" transform="translate(-889.623 -2902.58)" fill="url(#linear-gradient-9)"/>
        <path id="Trazado_107740" data-name="Trazado 107740" d="M911.613,3007.116c.137-.931-.271-1.294.028-1.7a1.013,1.013,0,0,1,1.123-.31c.525.209.632.931.657,1.093.165,1.107-.719,1.548-.443,2.485a2.364,2.364,0,0,1,.165.866c-.005.173-.017.6-.217.681-.231.091-.595-.332-.94-.734-.415-.483-.622-.724-.682-1.08C911.22,3007.919,911.507,3007.835,911.613,3007.116Z" transform="translate(-879.316 -2911.904)" fill="url(#linear-gradient-10)"/>
        <path id="Trazado_107741" data-name="Trazado 107741" d="M949.5,2572.355a64.493,64.493,0,0,1,6.387,21.1c.359,3.106.325,5.027-.57,6.958-3.2,6.909-14.383,7.365-16.082,7.413l-1.677-3.434a17.168,17.168,0,0,1,5.9-6.489c2.363-1.486,3.288-1.168,3.878-2.167,2.368-4.007-10.413-12.687-8.5-18.465C939.486,2575.272,942.028,2573.246,949.5,2572.355Z" transform="translate(-903.529 -2513.06)" fill="#5038a1"/>
        <path id="Trazado_107742" data-name="Trazado 107742" d="M539.066,2161.017c4.7.807,8.281,1.648,9.879,4.11,1.688,2.6-1,4.559-1.725,10.265-1.117,8.737,3.906,12,2.461,20.8a22.281,22.281,0,0,1-.979,3.8,9,9,0,0,1-3.715,4.617,23.29,23.29,0,0,1-4.7,2.273c-4.767,1.668-7.119.7-13.533,1.065-10.491.6-12.062,3.643-16.8,1.771-4.791-1.891-8.258-7-7.242-9.185.609-1.308,2.528-.491,5.281-2.1,3.548-2.069,2.952-4.893,5.83-7.315,4.135-3.48,8.112.034,11.648-2.991,3.577-3.061,4-10.5,2.484-14.936-.993-2.894-1.012-6.042-1.749-9.011a1.91,1.91,0,0,1,.044-1.087c.586-1.707,3.71-2.034,6.07-2.26A26.923,26.923,0,0,1,539.066,2161.017Z" transform="translate(-502.527 -2133.613)" fill="#ffdc72"/>
        <path id="Trazado_107743" data-name="Trazado 107743" d="M518.6,2493.883c1.453-.968.666-3.713,2.817-5.169,2-1.352,3.554.416,6.5-.486,3.774-1.157,3.577-4.792,7.194-5.951,2.6-.834,3.386.826,7.137.9a14.917,14.917,0,0,0,11.764-5.444,13.365,13.365,0,0,0,2.461-5.15c1,3.235,2.089,6.363,1.313,11.084a22.444,22.444,0,0,1-1.367,4.826,6.686,6.686,0,0,1-2.373,2.964,23.491,23.491,0,0,1-5.658,2.905c-4.767,1.667-7.119.7-13.533,1.064-10.492.6-12.062,3.643-16.8,1.771a13.606,13.606,0,0,1-6.732-5.965C515.465,2494.248,517.547,2494.585,518.6,2493.883Z" transform="translate(-510.631 -2421.089)" fill="#ffb74d" opacity="0.3" style="mix-blend-mode: multiply;isolation: isolate"/>
        <path id="Trazado_107744" data-name="Trazado 107744" d="M936.281,2060.582a12.748,12.748,0,0,1,1.377,4.139c.082,1.707-1.844,1.582-1.844,1.582l.072,1.077a2.334,2.334,0,0,0,1.523,2.034l.76.28s-4.96,1.062-7.669-.852l.781-.076a2.333,2.333,0,0,0,2.094-2.085l.047-.461S932.561,2060.9,936.281,2060.582Z" transform="translate(-897.025 -2041.316)" fill="#ec8976"/>
        <path id="Trazado_107745" data-name="Trazado 107745" d="M978.153,1899.056c-.736,1.392.487,3.169,1.271,4.794,1.572,3.26,2.669,8.587.638,12.305a8.984,8.984,0,0,1-5.863,4.412c-2.713.518-3.82-.979-6.693-.264-.212.053-3.859,1.006-4.665,3.474-.994,3.045,2.59,7.616,6.39,8.977,6.951,2.49,18.186-4.479,20.47-13.939,2.486-10.3-6.128-21.51-9.666-21.043A2.7,2.7,0,0,0,978.153,1899.056Z" transform="translate(-926.682 -1891.228)" fill="#ffdc72"/>
        <path id="Trazado_107746" data-name="Trazado 107746" d="M570.217,2018.307c-.256-.021-.468-.346-.644-.25s-.164.575,0,.908a1.2,1.2,0,0,0,.465.5,3.148,3.148,0,0,0-.555,1.257,4.352,4.352,0,0,0,.7,2.805c1.229,2.616-.683,6.751-2.78,8.84-1.7,1.7-2.5,1.015-3.518,2.4-1.981,2.7.753,5.665-.271,9.3-1.558,5.523-10.279,7.166-10.64,7.23-.142.025-.238.041-.386.064-3.912.621-9.841,1.563-14.017-1.647a12.178,12.178,0,0,1-4.321-10.266,11.9,11.9,0,0,1,3.352-7.647c.476-.476,3.292-3.291,7.1-3.325,2.016-.018,2.422.692,3.964.253,2.11-.6,3.41-2.52,4.217-3.71,1.483-2.189.881-2.657,1.948-3.733,2.091-2.11,4.545-.453,6.778-2.315,2.2-1.835.873-4.324,3-5.913,2.192-1.638,6.386-1.066,7.28.885C572.643,2015.615,571,2018.372,570.217,2018.307Z" transform="translate(-531.737 -1996.622)" fill="url(#linear-gradient-11)"/>
      </g>
    </g>
    <g id="Grupo_83493" data-name="Grupo 83493" transform="translate(1052 2153.09)">
      <path id="Trazado_106248" data-name="Trazado 106248" d="M915.839,570.83l-14.433,31.957-.4-.08-43.085-8.673s20.22-1,22.4-2.6c2.054-1.51,23.956-19.681,30.162-21.205a2.533,2.533,0,0,1,.957-.085Z" transform="translate(-723.417 -570.128)" fill="#8c6df2"/>
      <path id="Trazado_106249" data-name="Trazado 106249" d="M1075.219,702.7c-1.007.151-4.017.54-8.142,1-11.86,1.321-32.932,3.223-42.106,1.714-8.23-1.353-51.752-8.6-81.843-13.875a48.69,48.69,0,0,1,25.71-15.4c35.066,5.991,80.92,13.922,86.729,15.413,9.555,2.454,22.27,4.984,22.27,4.984s.071.306.128.785C1078.155,698.881,1078.206,702.248,1075.219,702.7Z" transform="translate(-895.897 -663.35)" fill="#e58638"/>
      <path id="Trazado_106250" data-name="Trazado 106250" d="M1122.448,646.8c-1.007.151-4.017.54-8.142,1-11.86,1.321-32.932,3.222-42.106,1.714-8.23-1.353-51.752-8.6-81.843-13.875-15.109-2.647-26.832-4.8-29-5.452-6.472-1.959-19.773-7.944-18.086-10.66s7.01-2.639,8.65-3.566l.069-.04c.384-.217,1.017-.578,1.923-.984,3.241-1.451,9.987-3.479,21.392-1.616,0,0,18.134,3.057,40.758,6.922,35.066,5.992,80.92,13.922,86.729,15.413,9.555,2.454,22.27,4.984,22.27,4.984s.071.306.128.785C1125.385,642.983,1125.436,646.35,1122.448,646.8Z" transform="translate(-943.127 -607.452)" fill="#fff"/>
      <path id="Trazado_106251" data-name="Trazado 106251" d="M956.69,854.319c-1.007.152-4.017.541-8.141,1-1.133-4.473-5.424-6.754-5.424-6.754l16.311.378C959.626,850.5,959.679,853.87,956.69,854.319Z" transform="translate(-777.369 -814.97)" fill="#e8e8e8"/>
      <g id="Grupo_83491" data-name="Grupo 83491" transform="translate(8.866 7.486)">
        <g id="Grupo_83489" data-name="Grupo 83489" transform="translate(0)">
          <g id="Grupo_83486" data-name="Grupo 83486" transform="translate(24.674 4.969)">
            <path id="Trazado_106252" data-name="Trazado 106252" d="M1936.259,713.4a.5.5,0,0,0-.576.4l-.09.519a.5.5,0,1,0,.98.171l.09-.519A.5.5,0,0,0,1936.259,713.4Z" transform="translate(-1907.816 -708.557)" fill="#5038a1"/>
            <path id="Trazado_106253" data-name="Trazado 106253" d="M1895.272,720.525a.5.5,0,0,0-.576.405l-.09.519a.5.5,0,0,0,.981.171l.09-.519A.5.5,0,0,0,1895.272,720.525Z" transform="translate(-1861.884 -714.826)" fill="#5038a1"/>
            <path id="Trazado_106254" data-name="Trazado 106254" d="M1957.22,709.748a.5.5,0,0,0-.576.405l-.09.519a.5.5,0,0,0,.981.171l.09-.519A.5.5,0,0,0,1957.22,709.748Z" transform="translate(-1931.306 -705.35)" fill="#5038a1"/>
            <path id="Trazado_106255" data-name="Trazado 106255" d="M1978.182,706.1a.5.5,0,0,0-.576.4l-.09.519a.5.5,0,0,0,.981.17l.09-.519A.5.5,0,0,0,1978.182,706.1Z" transform="translate(-1954.797 -702.143)" fill="#5038a1"/>
            <path id="Trazado_106256" data-name="Trazado 106256" d="M1999.144,702.455a.5.5,0,0,0-.576.405l-.09.519a.5.5,0,1,0,.98.171l.09-.519A.5.5,0,0,0,1999.144,702.455Z" transform="translate(-1978.288 -698.936)" fill="#5038a1"/>
            <path id="Trazado_106257" data-name="Trazado 106257" d="M2020.105,698.808h0a.5.5,0,0,0-.575.405l-.09.519a.5.5,0,0,0,.405.576h0a.5.5,0,0,0,.575-.405l.091-.519A.5.5,0,0,0,2020.105,698.808Z" transform="translate(-2001.778 -695.73)" fill="#5038a1"/>
            <path id="Trazado_106258" data-name="Trazado 106258" d="M2041.068,695.162a.5.5,0,0,0-.575.405l-.09.519a.5.5,0,1,0,.98.171l.09-.519A.5.5,0,0,0,2041.068,695.162Z" transform="translate(-2025.27 -692.523)" fill="#5038a1"/>
            <path id="Trazado_106259" data-name="Trazado 106259" d="M2062.029,691.516a.5.5,0,0,0-.575.4l-.09.519a.5.5,0,0,0,.981.171l.09-.519A.5.5,0,0,0,2062.029,691.516Z" transform="translate(-2048.76 -689.317)" fill="#5038a1"/>
            <path id="Trazado_106260" data-name="Trazado 106260" d="M2082.991,687.869a.5.5,0,0,0-.575.4l-.09.519a.5.5,0,1,0,.98.171l.09-.519A.5.5,0,0,0,2082.991,687.869Z" transform="translate(-2072.251 -686.111)" fill="#5038a1"/>
            <path id="Trazado_106261" data-name="Trazado 106261" d="M2103.952,684.223a.5.5,0,0,0-.576.405l-.09.519a.5.5,0,1,0,.98.171l.091-.519A.5.5,0,0,0,2103.952,684.223Z" transform="translate(-2095.742 -682.904)" fill="#5038a1"/>
            <path id="Trazado_106262" data-name="Trazado 106262" d="M2124.5,680.649a.5.5,0,0,0-.576.4l-.09.519a.5.5,0,1,0,.98.171l.09-.519A.5.5,0,0,0,2124.5,680.649Z" transform="translate(-2118.764 -679.762)" fill="#5038a1"/>
            <path id="Trazado_106263" data-name="Trazado 106263" d="M2145.458,677a.5.5,0,0,0-.576.405l-.091.519a.5.5,0,0,0,.981.171l.09-.519A.5.5,0,0,0,2145.458,677Z" transform="translate(-2142.255 -676.555)" fill="#5038a1"/>
            <path id="Trazado_106264" data-name="Trazado 106264" d="M2166.419,673.356a.5.5,0,0,0-.576.4l-.09.519a.5.5,0,0,0,.981.171l.09-.519A.5.5,0,0,0,2166.419,673.356Z" transform="translate(-2165.745 -673.349)" fill="#5038a1"/>
          </g>
          <path id="Trazado_106265" data-name="Trazado 106265" d="M2340.79,633.043l-2.75-.874c-.906.407-1.54.767-1.923.984l4.21,1.341a.755.755,0,0,0,.242.035.761.761,0,0,0,.221-1.486Z" transform="translate(-2336.117 -632.169)" fill="#5038a1"/>
          <g id="Grupo_83487" data-name="Grupo 83487" transform="translate(68.638 11.368)">
            <path id="Trazado_106266" data-name="Trazado 106266" d="M1784.943,731.679a.979.979,0,0,1-.167-.014l-.769-.134a.979.979,0,0,1-.794-1.128l.557-3.2a.976.976,0,0,1,1.129-.794l.769.134a.978.978,0,0,1,.794,1.128l-.557,3.2A.978.978,0,0,1,1784.943,731.679Zm-.154-.091a.9.9,0,0,0,1.038-.731l.558-3.2a.9.9,0,0,0-.731-1.038l-.769-.134a.9.9,0,0,0-1.039.731l-.557,3.2a.9.9,0,0,0,.731,1.038Z" transform="translate(-1783.198 -726.389)" fill="#5038a1"/>
          </g>
          <g id="Grupo_83488" data-name="Grupo 83488" transform="translate(73.662 12.242)">
            <path id="Trazado_106267" data-name="Trazado 106267" d="M1743.3,738.923a.982.982,0,0,1-.168-.015l-.769-.134a.977.977,0,0,1-.794-1.129l.557-3.2a.976.976,0,0,1,1.129-.794l.769.134a.977.977,0,0,1,.794,1.128l-.558,3.2A.978.978,0,0,1,1743.3,738.923Zm-.155-.091a.9.9,0,0,0,1.038-.731l.558-3.2a.9.9,0,0,0-.73-1.038l-.769-.134a.9.9,0,0,0-1.038.731l-.557,3.2a.9.9,0,0,0,.73,1.038Z" transform="translate(-1741.552 -733.632)" fill="#5038a1"/>
          </g>
        </g>
        <g id="Grupo_83490" data-name="Grupo 83490" transform="translate(62.231 11.502)">
          <path id="Trazado_106268" data-name="Trazado 106268" d="M1272.757,828.817a.5.5,0,0,0-.576.4l-.09.519a.5.5,0,0,0,.98.171l.09-.519A.5.5,0,0,0,1272.757,828.817Z" transform="translate(-1201.815 -816.586)" fill="#5038a1"/>
          <path id="Trazado_106269" data-name="Trazado 106269" d="M1293.719,825.171a.5.5,0,0,0-.576.4l-.09.519a.5.5,0,1,0,.98.171l.09-.519A.5.5,0,0,0,1293.719,825.171Z" transform="translate(-1225.307 -813.38)" fill="#5038a1"/>
          <path id="Trazado_106270" data-name="Trazado 106270" d="M1314.68,821.524a.5.5,0,0,0-.576.405l-.09.519a.5.5,0,1,0,.98.171l.09-.519A.5.5,0,0,0,1314.68,821.524Z" transform="translate(-1248.797 -810.173)" fill="#5038a1"/>
          <path id="Trazado_106271" data-name="Trazado 106271" d="M1335.642,817.877a.5.5,0,0,0-.575.405l-.09.519a.5.5,0,0,0,.981.171l.09-.519A.5.5,0,0,0,1335.642,817.877Z" transform="translate(-1272.288 -806.965)" fill="#5038a1"/>
          <path id="Trazado_106272" data-name="Trazado 106272" d="M1356.6,814.231a.5.5,0,0,0-.575.405l-.09.519a.5.5,0,1,0,.981.171l.09-.519A.5.5,0,0,0,1356.6,814.231Z" transform="translate(-1295.779 -803.759)" fill="#5038a1"/>
          <path id="Trazado_106273" data-name="Trazado 106273" d="M1377.565,810.584a.5.5,0,0,0-.576.405l-.091.519a.5.5,0,0,0,.981.171l.09-.519A.5.5,0,0,0,1377.565,810.584Z" transform="translate(-1319.269 -800.553)" fill="#5038a1"/>
          <path id="Trazado_106274" data-name="Trazado 106274" d="M1398.527,806.938a.5.5,0,0,0-.576.405l-.09.519a.5.5,0,1,0,.98.171l.09-.519A.5.5,0,0,0,1398.527,806.938Z" transform="translate(-1342.761 -797.346)" fill="#5038a1"/>
          <path id="Trazado_106275" data-name="Trazado 106275" d="M1419.488,803.292a.5.5,0,0,0-.576.4l-.09.519a.5.5,0,0,0,.981.171l.09-.519A.5.5,0,0,0,1419.488,803.292Z" transform="translate(-1366.25 -794.14)" fill="#5038a1"/>
          <path id="Trazado_106276" data-name="Trazado 106276" d="M1440.45,799.645a.5.5,0,0,0-.576.4l-.09.519a.5.5,0,1,0,.98.171l.091-.519A.5.5,0,0,0,1440.45,799.645Z" transform="translate(-1389.742 -790.934)" fill="#5038a1"/>
          <path id="Trazado_106277" data-name="Trazado 106277" d="M1687.448,756.677a.5.5,0,0,0-.575.405l-.09.519a.5.5,0,1,0,.98.171l.09-.519A.5.5,0,0,0,1687.448,756.677Z" transform="translate(-1666.542 -753.15)" fill="#5038a1"/>
          <path id="Trazado_106278" data-name="Trazado 106278" d="M1708.41,753.031a.5.5,0,0,0-.576.405l-.09.519a.5.5,0,0,0,.405.575h0a.5.5,0,0,0,.576-.4l.09-.519A.5.5,0,0,0,1708.41,753.031Z" transform="translate(-1690.033 -749.943)" fill="#5038a1"/>
          <path id="Trazado_106279" data-name="Trazado 106279" d="M1729.372,749.385a.5.5,0,0,0-.576.4l-.09.519a.5.5,0,0,0,.981.171l.09-.519A.5.5,0,0,0,1729.372,749.385Z" transform="translate(-1713.524 -746.738)" fill="#5038a1"/>
          <path id="Trazado_106280" data-name="Trazado 106280" d="M1750.332,745.738a.5.5,0,0,0-.575.405l-.09.519a.5.5,0,0,0,.981.171l.09-.519A.5.5,0,0,0,1750.332,745.738Z" transform="translate(-1737.013 -743.531)" fill="#5038a1"/>
          <path id="Trazado_106281" data-name="Trazado 106281" d="M1771.295,742.091a.5.5,0,0,0-.575.405l-.09.519a.5.5,0,0,0,.981.17l.09-.519A.5.5,0,0,0,1771.295,742.091Z" transform="translate(-1760.505 -740.324)" fill="#5038a1"/>
          <path id="Trazado_106282" data-name="Trazado 106282" d="M1792.257,738.445a.5.5,0,0,0-.576.405l-.09.519a.5.5,0,0,0,.981.171l.09-.519A.5.5,0,0,0,1792.257,738.445Z" transform="translate(-1783.996 -737.117)" fill="#5038a1"/>
          <path id="Trazado_106283" data-name="Trazado 106283" d="M1813.218,734.8a.5.5,0,0,0-.576.405l-.09.519a.5.5,0,1,0,.981.171l.09-.519A.5.5,0,0,0,1813.218,734.8Z" transform="translate(-1807.487 -733.911)" fill="#5038a1"/>
          <path id="Trazado_106284" data-name="Trazado 106284" d="M1834.18,731.152a.5.5,0,0,0-.576.405l-.09.519a.5.5,0,1,0,.981.171l.09-.519A.5.5,0,0,0,1834.18,731.152Z" transform="translate(-1830.978 -730.705)" fill="#5038a1"/>
          <path id="Trazado_106285" data-name="Trazado 106285" d="M1855.141,727.506a.5.5,0,0,0-.575.405l-.09.519a.5.5,0,0,0,.98.171l.09-.519A.5.5,0,0,0,1855.141,727.506Z" transform="translate(-1854.468 -727.498)" fill="#5038a1"/>
          <path id="Trazado_106286" data-name="Trazado 106286" d="M1502.067,788.926a.5.5,0,0,0-.576.405l-.091.519a.5.5,0,0,0,.981.17l.09-.519A.5.5,0,0,0,1502.067,788.926Z" transform="translate(-1458.793 -781.508)" fill="#5038a1"/>
          <path id="Trazado_106287" data-name="Trazado 106287" d="M1523.029,785.28a.5.5,0,0,0-.576.405l-.09.519a.5.5,0,1,0,.98.17l.09-.519A.5.5,0,0,0,1523.029,785.28Z" transform="translate(-1482.284 -778.301)" fill="#5038a1"/>
          <path id="Trazado_106288" data-name="Trazado 106288" d="M1543.989,781.633a.5.5,0,0,0-.576.405l-.09.519a.5.5,0,1,0,.98.171l.09-.519A.5.5,0,0,0,1543.989,781.633Z" transform="translate(-1505.774 -775.095)" fill="#5038a1"/>
          <path id="Trazado_106289" data-name="Trazado 106289" d="M1564.951,777.987a.5.5,0,0,0-.576.405l-.09.519a.5.5,0,1,0,.98.171l.09-.519A.5.5,0,0,0,1564.951,777.987Z" transform="translate(-1529.265 -771.889)" fill="#5038a1"/>
          <path id="Trazado_106290" data-name="Trazado 106290" d="M1585.913,774.34a.5.5,0,0,0-.576.405l-.09.519a.5.5,0,0,0,.98.171l.09-.519A.5.5,0,0,0,1585.913,774.34Z" transform="translate(-1552.756 -768.682)" fill="#5038a1"/>
          <path id="Trazado_106291" data-name="Trazado 106291" d="M1606.875,770.694a.5.5,0,0,0-.575.4l-.09.519a.5.5,0,0,0,.981.171l.09-.519A.5.5,0,0,0,1606.875,770.694Z" transform="translate(-1576.247 -765.476)" fill="#5038a1"/>
          <path id="Trazado_106292" data-name="Trazado 106292" d="M1627.837,767.047a.5.5,0,0,0-.575.405l-.09.519a.5.5,0,0,0,.981.171l.09-.519A.5.5,0,0,0,1627.837,767.047Z" transform="translate(-1599.738 -762.269)" fill="#5038a1"/>
          <path id="Trazado_106293" data-name="Trazado 106293" d="M1648.8,763.4a.5.5,0,0,0-.575.405l-.091.519a.5.5,0,0,0,.981.171l.09-.519A.5.5,0,0,0,1648.8,763.4Z" transform="translate(-1623.229 -759.062)" fill="#5038a1"/>
          <path id="Trazado_106294" data-name="Trazado 106294" d="M1669.76,759.755a.5.5,0,0,0-.576.4l-.09.519a.5.5,0,1,0,.98.171l.09-.519A.5.5,0,0,0,1669.76,759.755Z" transform="translate(-1646.719 -755.856)" fill="#5038a1"/>
        </g>
      </g>
      <path id="Trazado_106295" data-name="Trazado 106295" d="M1767.062,817.717a1.78,1.78,0,0,0,.8-3.123,10.085,10.085,0,0,0-4.63-2.272c-3.814-.624-2.573,5.455-1.311,5.715A19.373,19.373,0,0,0,1767.062,817.717Z" transform="translate(-1685.016 -783.06)" fill="#739af0"/>
      <path id="Trazado_106296" data-name="Trazado 106296" d="M1817.612,773.669l-1.385,7.96a37.343,37.343,0,0,1-10.451-.273,29.814,29.814,0,0,1-7.829-2.135,10.018,10.018,0,0,1-1.308-.682l1.451-8.344a4.07,4.07,0,0,1,1.489-.358c5.069-.434,17.272,3.424,17.272,3.424Z" transform="translate(-1738.452 -745.709)" fill="#8c6df2"/>
      <path id="Trazado_106297" data-name="Trazado 106297" d="M1949.034,770.084l-1.633,9.385a10.018,10.018,0,0,1-1.308-.682l1.452-8.345A4.066,4.066,0,0,1,1949.034,770.084Z" transform="translate(-1887.907 -745.958)" fill="#2b478b"/>
      <g id="Grupo_83492" data-name="Grupo 83492" transform="translate(77.898 16.152)">
        <path id="Trazado_106298" data-name="Trazado 106298" d="M1439.32,704.027s-6.081,8.767-7.22,10.075a8.5,8.5,0,0,1-3.511,1.964l-.014,0-15.042,2.965s-18.4-3.1-22.4-3.872h0c-.363-.07-.607-.122-.708-.148-1.21-.329-1.759-.821-1.506-1.134s28.772.172,31.929.245l.09,0c3.073.057,3.4-.7,3.4-.7l12.249-8.923a1.462,1.462,0,0,1,.7-.364A6.947,6.947,0,0,1,1439.32,704.027Z" transform="translate(-1388.856 -703.998)" fill="#8c6df2"/>
        <path id="Trazado_106299" data-name="Trazado 106299" d="M1454.151,705.164c-3.3,2.563-12.444,9.628-13.3,10.083-.921.49-26.554.845-32.853.94h0c-.363-.07-.607-.122-.708-.149-1.21-.329-1.759-.821-1.506-1.134s28.772.172,31.928.246,3.49-.7,3.49-.7l12.249-8.923A1.465,1.465,0,0,1,1454.151,705.164Z" transform="translate(-1405.722 -705.023)" fill="#5038a1"/>
        <path id="Trazado_106300" data-name="Trazado 106300" d="M1407.241,704.027s-6.081,8.767-7.22,10.075a8.5,8.5,0,0,1-3.511,1.964l-.014,0a32.7,32.7,0,0,1-7.64-1.942c3.073.057,3.4-.7,3.4-.7L1404.5,704.5a1.462,1.462,0,0,1,.7-.364A6.947,6.947,0,0,1,1407.241,704.027Z" transform="translate(-1356.777 -703.998)" fill="#5038a1"/>
      </g>
      <path id="Trazado_106301" data-name="Trazado 106301" d="M945.381,603.446,902.3,594.773s20.221-1,22.4-2.6c2.054-1.509,23.957-19.681,30.162-21.205-5.707,5.361-18.96,18.3-18.649,22.507C936.505,597.485,942.418,601.617,945.381,603.446Z" transform="translate(-767.79 -570.867)" fill="#5038a1"/>
      <path id="Trazado_106302" data-name="Trazado 106302" d="M884.111,832.042c.162-.141,14.586-2.164,23.808.391l-9.187,3.314-14.356-2.5S883.3,832.746,884.111,832.042Z" transform="translate(-718.62 -799.654)" fill="#5038a1"/>
    </g>
  </g>
</svg>
