<svg id="boarding-pass" xmlns="http://www.w3.org/2000/svg" width="87.26" height="87.26" viewBox="0 0 87.26 87.26">
  <g id="Grupo_84176" data-name="Grupo 84176" transform="translate(1.278 1.278)">
    <path id="Trazado_107658" data-name="Trazado 107658" d="M306.125,35.378l-11.931,11.13a3.429,3.429,0,0,1-4.85,0L268.106,25.131c-1.334-1.334-.995-4.487-.995-4.487l.014-.015L279.251,8.5a3.429,3.429,0,0,1,4.85,0l1.818,1.818,7.285,11.1,11.51,7.693,1.818,1.818.015.014S307.459,34.044,306.125,35.378Z" transform="translate(-222.833 -7.5)" fill="#8c6df2"/>
    <path id="Trazado_107659" data-name="Trazado 107659" d="M301.9,99.765l-12.126,12.126a3.429,3.429,0,0,1-4.849,0l-13.211-8.637-9.221-13.8a3.43,3.43,0,0,1-.014-4.835l23.064,23.064a2.555,2.555,0,0,0,3.615,0L301.919,94.93a3.43,3.43,0,0,1-.014,4.835Z" transform="translate(-218.205 -71.48)" fill="#8c6df2"/>
    <path id="Trazado_107660" data-name="Trazado 107660" d="M0,0H24.008V26.58H0Z" transform="translate(46.103 19.804) rotate(-45)" fill="#f3f0f3"/>
    <path id="Trazado_107661" data-name="Trazado 107661" d="M299.26,128.318l-2.41,2.41-11.5-8.159-7.293-10.636,2.41-2.41Z" transform="translate(-231.944 -92.135)" fill="#e5e3e5"/>
    <path id="Trazado_107662" data-name="Trazado 107662" d="M78.12,134.613,40.919,172.3a3.43,3.43,0,0,1-4.85,0L13.961,150.967c-1.334-1.334-.932-4.406-.932-4.406l.015-.015,38.437-38.437a3.429,3.429,0,0,1,4.85,0l1.818,1.818,7.816,11.487,10.979,7.308,1.818,1.818.014.015s.676,2.724-.659,4.058Z" transform="translate(-12.04 -90.128)" fill="#8c6df2"/>
    <path id="Trazado_107663" data-name="Trazado 107663" d="M74.223,249.536,35.785,287.973a3.43,3.43,0,0,1-4.849,0L8.5,265.541a3.43,3.43,0,0,1-.014-4.835L31.553,283.77a2.556,2.556,0,0,0,3.615,0l39.07-39.07a3.43,3.43,0,0,1-.016,4.836Z" transform="translate(-7.5 -204.274)" fill="#8c6df2"/>
    <g id="Grupo_84175" data-name="Grupo 84175" transform="translate(8.699 19.799)">
      <path id="Trazado_107664" data-name="Trazado 107664" d="M214.139,142.465l-16.491,16.489a1.715,1.715,0,0,1-2.425,0l-16.368-16.368a1.715,1.715,0,0,1,0-2.425l16.489-16.491Z" transform="translate(-157.934 -123.67)" fill="#f3f0f3"/>
      <path id="Trazado_107665" data-name="Trazado 107665" d="M89.229,287.026A4.293,4.293,0,0,0,87.7,282.86l-9.317-7.48a.341.341,0,0,1-.121-.331l.927-4.77a2.575,2.575,0,0,0-5.056-.983l-.927,4.77a.341.341,0,0,1-.236.261l-11.441,3.445a4.292,4.292,0,0,0-2.976,3.291.649.649,0,0,0,.68.772l12.182-.8a.341.341,0,0,1,.357.405l-1.146,5.894a.341.341,0,0,1-.176.237l-2.411,1.264a.857.857,0,0,0-.444.6l-.607,3.123a.857.857,0,0,0,1.153.962l4.027-1.571a.341.341,0,0,1,.358.07l3.145,2.965a.857.857,0,0,0,1.43-.46l.607-3.123a.857.857,0,0,0-.188-.719l-1.762-2.075a.341.341,0,0,1-.075-.286l1.146-5.894a.341.341,0,0,1,.483-.242l11,5.3A.65.65,0,0,0,89.229,287.026Z" transform="translate(-58.543 -242.749)" fill="#f3f0f3"/>
    </g>
  </g>
  <g id="Grupo_84177" data-name="Grupo 84177" transform="translate(0 0)">
    <path id="Trazado_107666" data-name="Trazado 107666" d="M85.881,23.811l-1.819-1.818h0l-4.549-4.549a1.278,1.278,0,1,0-1.808,1.808L81.351,22.9,66.183,38.063,49.2,21.077,64.364,5.909l9.126,9.126A1.278,1.278,0,0,0,75.3,13.228L63.449,1.379a4.708,4.708,0,0,0-6.658,0L44.666,13.5a4.941,4.941,0,0,0-1.375,3.475,4.914,4.914,0,0,0-3.475,1.375L1.379,56.791a4.708,4.708,0,0,0,0,6.658L23.811,85.881a4.708,4.708,0,0,0,6.658,0L47.626,68.723a1.278,1.278,0,0,0-1.808-1.808L28.661,84.073a2.152,2.152,0,0,1-3.043,0L3.187,61.642a2.154,2.154,0,0,1,0-3.043L41.624,20.162a2.151,2.151,0,0,1,3.042,0l.915.915-5.366,5.366a1.278,1.278,0,0,0,1.808,1.808l5.366-5.366L64.375,39.871,48.789,55.458a.437.437,0,0,1-.617,0L31.8,39.089a.437.437,0,0,1,0-.617l6-6a1.278,1.278,0,1,0-1.808-1.808l-6,6a3,3,0,0,0,0,4.233L46.364,57.265a2.993,2.993,0,0,0,4.233,0L66.183,41.679l.915.915a2.151,2.151,0,0,1,0,3.042L50.039,62.695A1.278,1.278,0,1,0,51.847,64.5L68.905,47.444a4.941,4.941,0,0,0,1.376-3.477,4.923,4.923,0,0,0,3.475-1.373L85.881,30.468a4.708,4.708,0,0,0,0-6.658ZM46.474,18.354a2.151,2.151,0,0,1,0-3.043L58.6,3.187a2.151,2.151,0,0,1,3.043,0l.915.915L47.389,19.269Zm37.6,10.307L71.948,40.786a2.154,2.154,0,0,1-3.042,0h0l-.915-.915L83.158,24.7l.915.915A2.153,2.153,0,0,1,84.073,28.661Z" transform="translate(0 0)"/>
    <path id="Trazado_107667" data-name="Trazado 107667" d="M322.053,89.865a1.278,1.278,0,0,0-1.808,0l-4.85,4.85a1.278,1.278,0,0,0,1.808,1.808l4.85-4.85a1.278,1.278,0,0,0,0-1.808Z" transform="translate(-261.332 -74.238)"/>
    <path id="Trazado_107668" data-name="Trazado 107668" d="M337.642,94.633a1.274,1.274,0,0,0,.9-.374l9.7-9.7a1.278,1.278,0,0,0-1.808-1.808l-9.7,9.7a1.278,1.278,0,0,0,.9,2.182Z" transform="translate(-279.038 -68.337)"/>
    <path id="Trazado_107669" data-name="Trazado 107669" d="M358.986,145.485a1.274,1.274,0,0,0,.9-.374l3.638-3.638a1.278,1.278,0,0,0-1.808-1.808l-3.638,3.638a1.278,1.278,0,0,0,.9,2.182Z" transform="translate(-296.744 -115.552)"/>
    <path id="Trazado_107670" data-name="Trazado 107670" d="M380.33,166.829a1.274,1.274,0,0,0,.9-.374l3.638-3.638a1.278,1.278,0,1,0-1.808-1.808l-3.638,3.638a1.278,1.278,0,0,0,.9,2.182Z" transform="translate(-314.451 -133.258)"/>
    <path id="Trazado_107671" data-name="Trazado 107671" d="M213.939,210.456l-2.061,2.061a1.278,1.278,0,0,0,1.808,1.808l2.061-2.061a1.278,1.278,0,0,0-1.808-1.808Z" transform="translate(-175.457 -174.278)"/>
    <path id="Trazado_107672" data-name="Trazado 107672" d="M233.222,235.669a1.278,1.278,0,0,0,1.808,0l2.061-2.061a1.278,1.278,0,1,0-1.808-1.808l-2.061,2.061A1.278,1.278,0,0,0,233.222,235.669Z" transform="translate(-193.163 -191.984)"/>
    <path id="Trazado_107673" data-name="Trazado 107673" d="M249.456,161.366l-4.85,4.85a1.278,1.278,0,0,0,1.808,1.808l4.85-4.85a1.278,1.278,0,1,0-1.808-1.808Z" transform="translate(-202.607 -133.554)"/>
    <path id="Trazado_107674" data-name="Trazado 107674" d="M270.8,182.709l-4.85,4.85a1.278,1.278,0,0,0,1.808,1.808l4.85-4.85a1.278,1.278,0,0,0-1.808-1.808Z" transform="translate(-220.313 -151.26)"/>
    <path id="Trazado_107675" data-name="Trazado 107675" d="M264.993,204.053,254.565,214.48a1.278,1.278,0,0,0,1.808,1.808L266.8,205.86a1.278,1.278,0,0,0-1.808-1.808Z" transform="translate(-210.869 -168.965)"/>
    <path id="Trazado_107676" data-name="Trazado 107676" d="M275.909,237.632a1.278,1.278,0,0,0,1.808,0L288.145,227.2a1.278,1.278,0,1,0-1.808-1.808L275.91,235.824A1.278,1.278,0,0,0,275.909,237.632Z" transform="translate(-228.576 -186.672)"/>
    <path id="Trazado_107677" data-name="Trazado 107677" d="M81.529,282.417a1.928,1.928,0,0,0,2.729-1.369,5.556,5.556,0,0,0-1.981-5.407L73.4,268.516l.819-4.214a3.854,3.854,0,0,0-7.566-1.47l-.819,4.214-3.327,1a1.278,1.278,0,1,0,.737,2.448l4.066-1.225a1.278,1.278,0,0,0,.886-.98l.966-4.972a1.3,1.3,0,0,1,2.547.495l-.967,4.972a1.279,1.279,0,0,0,.455,1.241l9.478,7.609a3.007,3.007,0,0,1,1.115,2.071L71.245,274.62a1.278,1.278,0,0,0-1.81.907l-1.261,6.489a1.278,1.278,0,0,0,.281,1.071l1.737,2.046-.423,2.175-2.746-2.589a1.278,1.278,0,0,0-1.341-.261l-3.515,1.372.423-2.175,2.377-1.246a1.278,1.278,0,0,0,.661-.888l1.261-6.489a1.278,1.278,0,0,0-1.338-1.519l-11.685.765a3.005,3.005,0,0,1,1.809-1.5l1.884-.567a1.278,1.278,0,1,0-.737-2.448l-1.884.567a5.556,5.556,0,0,0-3.862,4.271,1.928,1.928,0,0,0,2.018,2.291l10.969-.718-.828,4.258-2.012,1.055a2.124,2.124,0,0,0-1.1,1.484l-.607,3.123a2.136,2.136,0,0,0,2.873,2.4l3.474-1.355,2.714,2.558a2.136,2.136,0,0,0,3.561-1.146l.607-3.124a2.125,2.125,0,0,0-.469-1.789L70.8,281.9l.828-4.258Z" transform="translate(-42.341 -215.45)"/>
  </g>
</svg>
