<svg xmlns="http://www.w3.org/2000/svg" width="348.3" height="189.221" viewBox="0 0 348.3 189.221">
  <g id="Grupo_83776" data-name="Grupo 83776" transform="translate(-185.58 -136.323)">
    <g id="Grupo_83774" data-name="Grupo 83774" transform="translate(185.58 136.323)">
      <path id="Trazado_107210" data-name="Trazado 107210" d="M675.557,816.957c2.951-7.62-4.41-8.308-11.022-9.683a66.933,66.933,0,0,1-6.571-3.426c-.724-.683-.686-3.409-1.407-4.089-5.069-2.712-7.205-5.413-12.256-7.432-.727,0-2.2.672-2.926.672-4.916-6.028-9.459,0-13.193,2.7-5.262,4.064-5.61,12.954-3.355,20.545l2.307,4.63c5.915,5.908,11.823,8.031,8.836,16.725l1.126,4.533-.077,2.784-.142,5.09-.164,5.9-.072,2.58,1.208,2.33-2.613,2.338-1.631,3.39,3.024,1.57.931,3.413,3.4,7.939,3.564,2.132h3.875l1.569-1.067-.734-2.129-4.862-1.592.071-3.174.1-4.474,2.838-1.048-2.751-2.876,1.56-1.3,1.355-3.9-1.234-1.811,1.3-1.291,2.845-2.832,1.3-1.8.044-2.558.053-3.057h4.538l2.849-6.082a5.258,5.258,0,0,1,1.321-6.016c6.772-3.562,7.558-9.93,11.3-15.542C672.591,818.351,674.815,818.351,675.557,816.957Z" transform="translate(-557.869 -692.371)" fill="#ffb74d"/>
      <path id="Trazado_107211" data-name="Trazado 107211" d="M255.187,279.529l-.753.675c.729,0,1.482-.675,2.232-.711l-3.184-1.819c-.43.508-.506,2.531-4.416.053,0,0,.431-1.671.081-2s.134-3.328.134-3.328l-1.766-1.106-3.838-.552a7.009,7.009,0,0,1,1.048-1.874A30.439,30.439,0,0,0,247,266.444l.795-1.753-2.576-1.53a21.075,21.075,0,0,0-2.95,1.53c-.255.329-1.319,2.521-1.319,2.521l-3.726-.11-.934-2.958-.648-1.42,1.841-3.265a19.044,19.044,0,0,0,1.074-2.385,13.151,13.151,0,0,1,1.055-2.052l4.109-1.185,1.432,1.293,2.569-.108s.888-1.293,1.242-1.185,3.32.431,3.32.431a17.764,17.764,0,0,0,.74,2.482c.226.324,1.085,2.926,1.085,2.926a6.818,6.818,0,0,0,1.954-1.085c.5-.542.647-4.76.647-4.76l1.879-2.68,3.069-3a47.05,47.05,0,0,1,2.527-5.1c.361-.212,3.973-2.643,3.973-2.643l2.984-1.37,2.889-2.627,2.319,1.575s-.62,1.474-.031,1.474a45.5,45.5,0,0,0,4.863-1.684l1.671-1.365h-2.117l-2.221-.734.632-2.3-.8-1.043H276.11l2.267-1.978,3.845,1.145a8.261,8.261,0,0,0,2.469-.521,17.94,17.94,0,0,1,2.245-1.455l1.043.831-2.617,2.917-.491,1.463,3.045.733,2.108.734.859-2.72L289.72,231.6l-.211-2.079.374-2.073a27.469,27.469,0,0,0-2.434-1.55c-.349-.1-2.062-2.679-1.825-2.987s-.647-3.473-.647-3.473l-.667-1.95-1.771,1.95-2.891-.624s-1-2.243-.755-2.955-1.919-2.35-1.919-2.35-2.324.523-2.331.827a15.431,15.431,0,0,1-1.442,2.28l-2.146,2.4.876,2.149-1.694,2.567-1.642.412-.52,1.959-1.343,2.068-1.046-.207.133-4.54-1.476-1.13-2.282-1.538-2.47-2.555-.608-2.545,2.64-2.839s2.706-1.314,3.051-1.415a15.562,15.562,0,0,0,2.01-1.815l3.031-1.308s-1.7-1-1.233-1.2,5.1-1.6,5.1-1.6,1.721.1,1.741-.8a3.821,3.821,0,0,0-.533-1.8l-2.724-1.095-1.544,2.092-1.306-2.589s-1.789-1.489-1.413-2.678a8.04,8.04,0,0,0-.024-3.159s-2.973.591-2.659,1.38-.195,2.77-.1,3.265-1.316,1.689-1.316,1.689-1.289.889-2.2.594a15.536,15.536,0,0,1-2.476-1.29l-4.057-1.687-.587.4-.867,1.688-2.478-.994-3.728-1.091-.018-2.176-2.543-1.775-1.786-.787-1.634-1.523h-.569l-2.442,1.031-3.474-1.031-3.474-.932-2.7-2.445a32.783,32.783,0,0,1-3.636-1.755,16.534,16.534,0,0,1-2.349-2.252,10.576,10.576,0,0,0-2.6-1.727h-4.858a16.306,16.306,0,0,0-3.113.871,7.522,7.522,0,0,1-1.193.856l-1.746-.856s-.508.742-.629.856a13.8,13.8,0,0,0-.162,2.154l2,2.145-.995,1.173-2.425-.978-1.4-.977s-2.186.391-2.338.879-.155,1.957.391,2.251,2.98,1.177,2.98,1.177l-1.472,1.376a21.365,21.365,0,0,1-2.357.493c-.88.1-2.646.789-2.67,1.084a9.1,9.1,0,0,1-1.025,2.769c-.368.3-1.928,1.19-1.928,1.19s1.71,1.484,2.021,1.886a41.81,41.81,0,0,0,3.93,2.5l-3.435,1.3s-5.376,2.408-6.315,2.609-1.754.3-3.872.8-3.895,1.007-3.895,1.007.148.908.609.908,3.782.3,5.22-.3,5.045-1.008,5.548-1.512a12.7,12.7,0,0,1,2.4-1.207c.723-.4,2.958-1,3.326-1.306a15.276,15.276,0,0,1,2.6-.9l-1.5,1.6,1.128.3s1.227-1,1.38-1.505.007-1.6.87-2.4a10.357,10.357,0,0,1,2.054-1.4l.305,2.1s3.393-.9,3.752-1.1,1.889.9,1.935,1.9.937,3.11,1.94,3.613,3.327,2.016,3.327,2.016l-.216,3.34.809,1.829.165,2.867.174,2.754s-1.405,1.953-1.1,2.571a14.5,14.5,0,0,1,1.438,3.1,22.5,22.5,0,0,1-1.972,3.426l-2.377,2.293-1.578,4.3.316,4.112,1.112,2.862,2.114,2.128.993,1.173-.96,2.031s.518,3.113.695,4.081a15.371,15.371,0,0,0,.4,3.131,16.952,16.952,0,0,0,1.967,3.037l1.538.327-.01-1.847a9.562,9.562,0,0,1-1.656-2.274c-.305-.864-1.14-2.8-1.14-2.8a23.835,23.835,0,0,0,.391-2.472,4.405,4.405,0,0,1,.456-1.607,12.331,12.331,0,0,1,.457,2.251,16.374,16.374,0,0,0,1.328,3.661c.219.324.846,1.838,1.059,2.271s1.183,2.278,1.183,2.278l1.251,3.269a14.5,14.5,0,0,0,1.408,2.736c.342.329,3.412,1.427,4.117,1.757a14.613,14.613,0,0,1,2.46,2.644,5,5,0,0,0,1.729.331,8.839,8.839,0,0,0,1.737-.993l.881,1.767,1.261,1.439s2.312-.332,2.776.111a16.554,16.554,0,0,1,1.485,2,26.349,26.349,0,0,1,.986,2.449,11.229,11.229,0,0,0,1.251,2.011C249.952,282.911,252.3,278.855,255.187,279.529Z" transform="translate(-185.58 -176.88)" fill="#ffb74d"/>
      <path id="Trazado_107212" data-name="Trazado 107212" d="M570.538,200.869l1.486,1.48-1.123,1.387,2.5,2.754,1.589,1.6,1.328-1.519,3.6.168,1.251,1.35,2.923-.928s.117-.59.023-.674a15.63,15.63,0,0,1-.42-1.935c-.083-.42.284-2.6.1-2.933s-1.635-.376-1.635-.376l-.8,1.464-.465-1.464-1.885,1.1a34.381,34.381,0,0,1-2.11-3.065c-.357-.749-2.8-2.578-3.076-2.807s-2.638-1.615-2.638-1.615-1.817,1.443-2.022,1.692-2.728,2.771-2.728,2.771l1.995,3.024Z" transform="translate(-509.353 -186.089)" fill="#ffb74d"/>
      <path id="Trazado_107213" data-name="Trazado 107213" d="M694.822,234.307s2.207-2.265,2.606-2.626.058-1.981.058-1.981l-1.4,1.42-1.594-1.754H692.6l.514,3.513-.03.923Z" transform="translate(-616.608 -215.421)" fill="#ffb74d"/>
      <path id="Trazado_107214" data-name="Trazado 107214" d="M619.194,171.221c1.509.826,3.143.992,3.674,2.234a3.98,3.98,0,0,0,1.752,2.242c.759.416,2.489.749,2.788.5a13.3,13.3,0,0,1,2.727-.5l.758.5h1.441s-.933-1.081-1.065-1.33-.72,0-1.071-1.079a16.5,16.5,0,0,0-.8-1.987s-1.313-1.074-1.625-.413a4.98,4.98,0,0,1-1.593,1.406l-2.415-2.479s3.284-.248,1.957-.824-2.353-1.4-3.613-1.152-3,.411-3.3.741S617.686,170.4,619.194,171.221Z" transform="translate(-553.45 -163.5)" fill="#ffb74d"/>
      <path id="Trazado_107215" data-name="Trazado 107215" d="M685.959,170.515a5.329,5.329,0,0,0,1.006-1.327s-1.705-.823-2.179-1.032-.377,1.032-.377,1.032l-.625.134S685.566,170.755,685.959,170.515Z" transform="translate(-609.11 -163.365)" fill="#ffb74d"/>
      <path id="Trazado_107216" data-name="Trazado 107216" d="M715.158,205.306a5.225,5.225,0,0,0,2.7.835s.211-.668.022-.835-1.031-1.25-1.218-1.5a17.712,17.712,0,0,0-1.993-2.077,3.442,3.442,0,0,0-2.19-.663s.623,2.075.706,2.532S713.55,204.39,715.158,205.306Z" transform="translate(-633.505 -191.36)" fill="#ffb74d"/>
      <path id="Trazado_107217" data-name="Trazado 107217" d="M753.333,212.1a25.378,25.378,0,0,0,2.893.879,9.849,9.849,0,0,0,3.409-.5c.2-.251-.658-1.172-1.126-2.006s-2.9-.336-3.472-.837-1.155-.333-2.3-1.163-2.083-1.832-2.845-2.247-1.191,1.163-.918,1.412a5.605,5.605,0,0,1,1.217,2c-.011.418,1.7,2.005,1.7,2.005Z" transform="translate(-664.461 -195.686)" fill="#ffb74d"/>
      <path id="Trazado_107218" data-name="Trazado 107218" d="M740.648,248.289H742s.89-.336,1.48-.588.025-.994.025-.994a14.1,14.1,0,0,0-2.793-.893C739.941,245.772,740.567,247.7,740.648,248.289Z" transform="translate(-657.182 -229.402)" fill="#ffb74d"/>
      <path id="Trazado_107219" data-name="Trazado 107219" d="M764.092,267.193a7.829,7.829,0,0,0-2.05-1.421s-2.557-.391-2.647-.814,1.275-2.323-1.309-1.519c-.763.238-1.32-1.626-1.32-1.626a36.4,36.4,0,0,0-4.113.014,4.373,4.373,0,0,1-2.054.013c-.288-.168-1.785,1.346-2.092,1.852a3.094,3.094,0,0,1-1.389.843l2.7,1.521a22.126,22.126,0,0,1,1.721,1.525c.956.934,1.529,1.528,1.529,1.528l2.281-1.528a2.182,2.182,0,0,1,.182.679,9.753,9.753,0,0,0,.548,1.955c.279.767,1.55.852,1.866,1.193s1.028,1.281,1.028,1.281-1.394,1.112-1.6,1.712-1.412-.263-1.622.423-1.845.95-2.433.865-1.8,1.2-1.8,1.2,3.138.516,4.024.516.878.431,1.32,1.121a17.775,17.775,0,0,1,1.378,2.16,2.709,2.709,0,0,0,2.155.952c.4-.173-.146-3.112-.146-3.112s.388.345,1.067,1.036,2.071,0,2.071,0-.178-1.381-.269-1.9-1.163-1.2-1.353-1.635.511-1.288.711-1.545,1.548,1.717,1.933,2.4.7-.6.7-.6A10.111,10.111,0,0,0,766.983,275c.2-.343-.671-1.457-.671-1.457l-1.259-1.283.025-1.962A8.311,8.311,0,0,0,764.092,267.193Z" transform="translate(-662.95 -242.955)" fill="#ffb74d"/>
      <path id="Trazado_107220" data-name="Trazado 107220" d="M722.717,171.747a33.44,33.44,0,0,1,3.258.827h.933l.056-2.225a6.816,6.816,0,0,1-2.734-1.013,8.671,8.671,0,0,0-2.19-1.2,9.169,9.169,0,0,0-1.564,1.2,1.053,1.053,0,0,0-.036,1.206A3.966,3.966,0,0,0,722.717,171.747Z" transform="translate(-640.12 -163.364)" fill="#ffb74d"/>
      <path id="Trazado_107221" data-name="Trazado 107221" d="M770.415,165.407l1.329.494,2.543-1.652,1.59-1.067,3.727.193.7,1.6-2.547-.557-1.285,1.738-1.559-1.181-1.236.929s1.04,1.164,1.194,1.33-.023,1.2-.023,1.2-2.536-1.869-2.828-1.772-1,1.315-1,1.315l1.344.457s3.164,1.541,3.382,1.708a18.561,18.561,0,0,0,2.769.837,9.515,9.515,0,0,0,1.714-1.17c.05-.083,1.029-.83,1.029-.83s1.292-2.579,1.391-2.827,1.612-3.3,2.192-3.489,4.474-.495,4.474-.495l2.6-2.468h-4.731a1.675,1.675,0,0,1-2.318.757,3.269,3.269,0,0,0-2.911-.082,52.811,52.811,0,0,1-6.02-.493c-2.463-.41-2.238,0-2.238,0s-.026,1.315-.033,1.644-.022,1.112-.022,1.112l-1.808-1.029-1.3-1.727-1.369.74-.909,1.546-.507,1.013.647,1.149Z" transform="translate(-680.495 -156.197)" fill="#ffb74d"/>
      <path id="Trazado_107222" data-name="Trazado 107222" d="M903.26,199.359a9.21,9.21,0,0,1,1.648-1.541s1.439-2.134,1.533-2.39a13.409,13.409,0,0,0-.224-1.871,3.846,3.846,0,0,0-.309-1.019l2.431-.678.182-.762a6.171,6.171,0,0,0-.607-1.268c-.2-.169-1.585-1.656-1.585-1.656l.858-1.125s1.775,1.347,1.965,1.094-.308-.926-.317-1.431-.7-1.239-.7-1.239l-.88-.343s.273-1.1.568-.894.866-.459.866-.459l-.116-3.066,2.006-1.416,3.354-3.249L909.936,175l-2.7,1.136-1.335,1.247a5.679,5.679,0,0,1-1.173-.979c-.4-.466-.409-.509-.4-.51l-1.83-.25s-1.465-1.648-1.856-2.142-1.052.623-1.052.623h-5.971l-2.3,1.77-1.351-.251-.388-.926-1.155.926-3.951-1.483s-3.274-.082-3.563,0-1.255.556-1.255.556h-1.542s-2.222.764-2.513.926a1.845,1.845,0,0,1-.964,0l-.4,1.906-1.4,1.306-1.465,2.5-.811,1.753,1.557,2.022,1.044-.348a21.3,21.3,0,0,0,2.23.348,11.77,11.77,0,0,1,2.326.742s.579.672.383.84.283,1.431.279,2.021.969,1.013,1.358,1.1,0,.592-.1.93a12.092,12.092,0,0,1-.887,1.524,5.6,5.6,0,0,0,1.464.254c.684,0,1.561.679,2.244.934s-.394.765-.784.68a6.511,6.511,0,0,0-2.058.681,15.7,15.7,0,0,0-1.864.6c-.394.256.09,1.11.09,1.11s2.353-.172,2.354-.428,1.765-.426,1.765-.426-.1.6-.4,1.792-.592.855-1.384,2.141-.006,1.288-.006,1.288-.692.688-1.285,1.2-.111,2.069-.112,2.328.383,1.99.383,2.107.583,1.792.583,1.792.885,1.218,1.081,1.48a13.654,13.654,0,0,0,3.958,1.221c.5-.087.5-.262.694-.611a10.154,10.154,0,0,1,1.089-1.393,7.846,7.846,0,0,0,.791-.956c.3-.434,1.183-1.909,1.38-2.255s1.178-2.334,1.178-2.334a4.136,4.136,0,0,0,2.217,0,15.948,15.948,0,0,1,1.624-.431s2.261-.517,2.553-1.033a5.466,5.466,0,0,0,.379-1.891c.093-.687,2.356-.257,2.941-.687s1.973.687,1.973.687A2.526,2.526,0,0,0,903.26,199.359Z" transform="translate(-767.891 -167.825)" fill="#ffb74d"/>
      <path id="Trazado_107223" data-name="Trazado 107223" d="M1095.888,190.176h0Z" transform="translate(-959.445 -182.104)" fill="#ffb74d"/>
      <path id="Trazado_107224" data-name="Trazado 107224" d="M1078.5,378.629a9.3,9.3,0,0,0,2.849-.954c.785-.26-.035-1.905-.044-2.424s-.8-.863-1.2-.928-.884.151-1.182.011-1.264,1.09-2.262.312-2.463.087-3.936.518-.484.778-.468,2.193,2.582,1.1,3.672,1.271A21.756,21.756,0,0,0,1078.5,378.629Z" transform="translate(-939.064 -338.64)" fill="#ffb74d"/>
      <path id="Trazado_107225" data-name="Trazado 107225" d="M1256.87,225.827a18.088,18.088,0,0,0,2.141,0l.265-.757a19.3,19.3,0,0,0,3.245-1.582s.791.335,1,.79,1.8,1.326,1.975.764-.816-3.326-.816-3.326-1.872-.749-.515-.75,2.9-.169,3.221.5a3.178,3.178,0,0,0,1.407,1.129,1.653,1.653,0,0,0-.886-2.534c-1.976-.93-2.377-1.263-2.958-1.263s-2.735-.666-3.677,0-1.517.859-1.793,1.263-2.057-.654-2.906,0-1.246.408-1.423.907a16.451,16.451,0,0,1-.431,1.628c-.271.629-.54,1.3.059,1.8A12.048,12.048,0,0,0,1256.87,225.827Z" transform="translate(-1094.214 -206.184)" fill="#ffb74d"/>
      <path id="Trazado_107226" data-name="Trazado 107226" d="M1428.272,208c.366-.379.054-.785-.061-1.117s-.813-.734-.813-.734l-1.108.983,1.254,1.747A9.361,9.361,0,0,1,1428.272,208Z" transform="translate(-1240.325 -195.685)" fill="#ffb74d"/>
      <path id="Trazado_107227" data-name="Trazado 107227" d="M1450.388,188.739c.575-.083,4.642-1.577,6.242-2.239s-.051-.827-.051-.827a2.126,2.126,0,0,0-.83-.953c-.495-.209-1.708.457-2.459.787s-.651.413-1.147,1.821c-.124.353-.235.524-.334.578-.3.164-.495-.724-.651-.912-.208-.251.01-1.487-.132-2.274s-.914.87-1.639,1.689-1.07,1.583-1.346,1.832l.8.5A8.913,8.913,0,0,0,1450.388,188.739Z" transform="translate(-1258.814 -177.29)" fill="#ffb74d"/>
      <path id="Trazado_107228" data-name="Trazado 107228" d="M1143.736,478.916s1.205.267,1.4.008a11.717,11.717,0,0,1,1.476-1.077c.491-.358.769-1.326,1.156-1.857s.083-.707-.024-1.06-1.011-.618-1.487.353-2.573.973-3.85,2.036S1143.438,479,1143.736,478.916Z" transform="translate(-998.665 -423.904)" fill="#ffb74d"/>
      <path id="Trazado_107229" data-name="Trazado 107229" d="M1172.289,444.313l.132,1.355.02.822a4.4,4.4,0,0,1,.433,1.389c.12.83-.179.854-.275,1.028a4.066,4.066,0,0,1-1.06,1.6,2,2,0,0,0-.357,1.959,20.931,20.931,0,0,1,2.169-1.425c.987-.534,0,0,1.189-.445s2.279-.8,2.674-.978.777-.8.567-1.154a1.81,1.81,0,0,1-.03-1.063,14.322,14.322,0,0,1-1.444-1.735c-.416-.673-1.308-.474-1.658-.65s-.052-1.057-.052-1.057a8.126,8.126,0,0,0-.068-1.524c-.109-.38.064-1.375-.044-1.726s-1.191,0-1.779.35-.78.614-1.372.7-1.111-.7-1.111-.7a3.234,3.234,0,0,0-.571,1.141c.008.351.411.615.923,1.23A3.678,3.678,0,0,0,1172.289,444.313Z" transform="translate(-1022.154 -394.964)" fill="#ffb74d"/>
      <path id="Trazado_107230" data-name="Trazado 107230" d="M1894.874,174.133h3.387l-.065-.579c-.349-.1-4.115-.483-4.115-.483S1894.535,174.133,1894.874,174.133Z" transform="translate(-1637.999 -167.563)" fill="#ffb74d"/>
      <path id="Trazado_107231" data-name="Trazado 107231" d="M1869.2,146.405l.84-.579c.839-.578,0,0,.87-.289s1.24,0,1.24,0a3.24,3.24,0,0,0,1.155-.77c.4-.48.735-.48.735-.48h2.928c1.576,0,.981-.289,1.274-.673s-.165-1.439-.739-1.535,0,0-.417.288a19.53,19.53,0,0,1-2.141.959,14.076,14.076,0,0,0-3.112-.672c-1.82-.192-.316.192-.889.1a5.059,5.059,0,0,1-1.166-.383h-.675l-3.059,1.92.112,1.058s.471.193,1.3.578A6.275,6.275,0,0,0,1869.2,146.405Z" transform="translate(-1614.166 -141.186)" fill="#ffb74d"/>
      <path id="Trazado_107232" data-name="Trazado 107232" d="M2117.53,137.888h.723s.705.576,1.189,0,.353-.707.353-.707a7.988,7.988,0,0,0-1-.73,3.2,3.2,0,0,0-1.685,0l-.463.73C2116.184,137.911,2117.53,137.888,2117.53,137.888Z" transform="translate(-1827.123 -136.323)" fill="#ffb74d"/>
      <path id="Trazado_107233" data-name="Trazado 107233" d="M2090.475,418.341c.758-.319.731-1.2.855-1.6a2.3,2.3,0,0,1,1.073-1.274c.656-.4.944-.238,1.554-.318s0,0,1.532-.477.367-.556.367-.556a10.814,10.814,0,0,0-.747-1.586c-.461-.792-.306-.95-.306-.95s-.709-1.975-.971-2.605-.844-1.023-1.172-1.5a13.67,13.67,0,0,0-1.258-1.492,9.976,9.976,0,0,1-1.321-1.645c-.077-.234-.193-.469.677-.547s0,0,.992-.469.967,0,1.607-.469,0,0-.053-.39-.074-.546-.074-.546a3.64,3.64,0,0,1,.94-1.479c.837-.932.378-1.088.611-1.941s.09-.62,1.132-1.317a1.037,1.037,0,0,0,.213-1.623s-1.488.618-1.817.772-.72,1.78-1.613,2.943-1.586,1.243-1.586,1.243a6.738,6.738,0,0,1-2.188-.622c-1.124-.544,0,0-.257-.621a1.761,1.761,0,0,1-.066-1.164.953.953,0,0,0,1,.31c.68-.155-.611-.852-.611-.852l-1.022-.232a21.624,21.624,0,0,1-1.663-4.013c-.141-1.076,0,0,.282.154a4.46,4.46,0,0,0,1.722.924c.739.077-.342-.385-.48-.77s-.615-.693-1.2-1.154-.738-.307-1.264-1-1.281-1.15-1.6-1.609a19.541,19.541,0,0,0-1.491-1.453,4.241,4.241,0,0,1-.949-1.982c-.184-.76-1.073-.609-1.073-.609l.106.837s.206,1.3.207,1.6.4.764.822,1.376,1.2,1.225,2.113,2.223.545.845,1.2,1.536a6.555,6.555,0,0,1,1.024,1.464,4.677,4.677,0,0,1-.613,1.7c-.6,1.161.249,1.548.231,1.781a12.319,12.319,0,0,0,2.57,1.863c.959.622.309,1.011.06,1.791a10.6,10.6,0,0,1-.684,1.483c-.27.625.831,1.643.831,1.643l.631.784s1.2,1.728,1.317,1.964.094.708-.342,1.417.51,1.183.292,2.211.146,1.108.146,1.108a8.993,8.993,0,0,0-.233,1.586c-.109,1.192-2.071,1.113-2.651,1.431a2.132,2.132,0,0,0-1.087,1.354c-.2.638-.807.479-1.563,1.517s1.368.96,1.368.96a3.545,3.545,0,0,1,1,.881c.528.641,1.257.08,1.6,0a11.786,11.786,0,0,0,.555-1.2C2089.215,418.9,2089.717,418.66,2090.475,418.341Z" transform="translate(-1796.268 -348.425)" fill="#ffb74d"/>
      <path id="Trazado_107234" data-name="Trazado 107234" d="M1946.687,851.279l.4-1.373c.4-1.37.62-1.028.62-1.028l1.847-1.538-.157-1.365h-3.673c-.918,0,0,0-1.121-.17l-2.062-2.042-.827-.849a11.561,11.561,0,0,0-2.566-1.695l-1.9-2.366-1.969-1.348H1934l.159,1.517,1.2,1.013a21.57,21.57,0,0,1,1.625,1.522,3.225,3.225,0,0,0,1.94,1.017c.751.17.88,1.358,1.118,1.859a15.272,15.272,0,0,0,1.179,2.394c.664,1.024,1.272,1.538,1.293,2.564s2.1,1.543,2.512,1.887S1946.687,851.279,1946.687,851.279Z" transform="translate(-1671.933 -732.408)" fill="#ffb74d"/>
      <path id="Trazado_107235" data-name="Trazado 107235" d="M2041.011,867.942v-.009S2041,867.944,2041.011,867.942Z" transform="translate(-1762.902 -758.274)" fill="#ffb74d"/>
      <path id="Trazado_107236" data-name="Trazado 107236" d="M2049.3,834.13c1.19.687,0,0,.572.152s-.043-1.868-.187-3.043.035-1.22.561-2.925.976-1.021,1.745-2.21,0,0-1.021-.848-.251-2.032-.4-3.214l-.291-2.359-.692-1.176c-.691-1.174-1.055-1.174-1.055-1.174a19.394,19.394,0,0,1-1.942,2.014,3.333,3.333,0,0,0-1.055,1.852c-.264.844-1.606,1.857-3.133,2.871a10.94,10.94,0,0,1-1.365.856l.274,2.358a2.872,2.872,0,0,1,.973,2.053,4.394,4.394,0,0,0,1.3,1.708c.8.513,2.187-.171,3.127,0A10.887,10.887,0,0,0,2049.3,834.13Z" transform="translate(-1762.931 -715.259)" fill="#ffb74d"/>
      <path id="Trazado_107237" data-name="Trazado 107237" d="M2103.024,729.037c-1.261-.331-1.036-.662-1.662-1.323a12.252,12.252,0,0,1-1.416-2.639,18.992,18.992,0,0,1-.894-1.808l-.438,1.15a21.45,21.45,0,0,0,.451,3.627c.359,1.324,3.163,3.647,3.163,3.647a5.518,5.518,0,0,0,2.324-1.66C2105.148,729.037,2104.286,729.368,2103.024,729.037Z" transform="translate(-1811.875 -635.292)" fill="#ffb74d"/>
      <path id="Trazado_107238" data-name="Trazado 107238" d="M2133.454,787.5c.481-.5.051-1.008-.2-1.512s-1.354-2.011-1.354-2.011a5.43,5.43,0,0,1-1.125-1.671c-.289-.834-1.195-2.832-1.195-2.832s-1.241.831-1.471,1.5a1.315,1.315,0,0,0,.148,1.167l-.756,3.01s2.4,1.678,3.109,2.35.281,2.19.281,2.19S2132.972,788,2133.454,787.5Z" transform="translate(-1836.435 -683.073)" fill="#ffb74d"/>
      <path id="Trazado_107239" data-name="Trazado 107239" d="M2125.535,862.125a3.029,3.029,0,0,1-.275-2.1,19.335,19.335,0,0,0-2.869,2.1c-.711.78-2.243.239-2.825,0s-1.2-.779-1.651,0-1.31-.427-.906,1.451.935,2.907.423,4.1,1.024,1.713,1.024,1.713.021.171.4-1.2l.381-1.368a3.89,3.89,0,0,0,1.094,1.368,9.957,9.957,0,0,0,2.991,1.2c-1.065-.514-1.392-2.4-2.079-3.08a1.609,1.609,0,0,1-.217-1.705l3.122-1.03S2126.107,862.873,2125.535,862.125Z" transform="translate(-1827.424 -751.55)" fill="#ffb74d"/>
      <path id="Trazado_107240" data-name="Trazado 107240" d="M2146.643,946.983c-1.548.779-2.263,1.151-2.263,1.151l-.826,2.126,1.836-.626s3.117-.469,2.98-1.561l-.136-1.091S2148.19,946.205,2146.643,946.983Z" transform="translate(-1850.079 -825.182)" fill="#ffb74d"/>
      <path id="Trazado_107241" data-name="Trazado 107241" d="M2099.836,955.76h1.292l.149-1.126,1.653-1.02a3.737,3.737,0,0,0-1.925,0c-1.416.234-1.168-.1-2.312,0a8.8,8.8,0,0,0-2.244.558l.466.265C2097.381,954.7,2098.3,955.1,2099.836,955.76Z" transform="translate(-1810.036 -831.024)" fill="#ffb74d"/>
      <path id="Trazado_107242" data-name="Trazado 107242" d="M2026.4,933.685a24,24,0,0,0,6.36,2.217s1.556-.954.474-1.47a1.962,1.962,0,0,1-.941-1.893h-4.18a4.459,4.459,0,0,1-3.074-1.064l-1.519,1.236,1.4.974S2024.016,932.248,2026.4,933.685Z" transform="translate(-1748.033 -812.292)" fill="#ffb74d"/>
      <path id="Trazado_107243" data-name="Trazado 107243" d="M2224.469,895.31c-.434-.434-.8-1.64-1.252-2.217s-1.477,0-1.477,0l-.876-2.21a3.245,3.245,0,0,0-1.3-1.335,2.99,2.99,0,0,1-1.488-1.377c-.466-.684-1.57-.684-4.62-1.88a13.024,13.024,0,0,1-1.428-.631.886.886,0,0,1,.311.973c-.384,1.2,0,0-.871.342A19.623,19.623,0,0,0,2209.4,888l-1.071-1.026a8.817,8.817,0,0,1-.292-2.129c.115-.422-2.345-1.119-2.345-1.119h-1.834l-.951,1.119a5.65,5.65,0,0,0,.261,1.958c.344,1.2,2.39,0,2.39,0a9.515,9.515,0,0,0,.371,2.745c.464,2.068,1.658,0,1.658,0s.853.852,4.988,2.743.112.8.112.8.274,1.959.4,2.891l1.743-.759,1.516.759c1.517.76.346.626,1.667.8s1.481,0,1.481,0l.343-1.472s2.1.433,2.688.674.092.626.615,1.666,0,0,2.848,1.911,1.329,0,2.443,0S2228.2,898,2228.2,898l-1.108-1.214-1.631-.8A3.613,3.613,0,0,1,2224.469,895.31Z" transform="translate(-1900.531 -771.7)" fill="#ffb74d"/>
      <path id="Trazado_107244" data-name="Trazado 107244" d="M2262.84,896.008c-.168-.141-.274-.151,0,0Z" transform="translate(-1951.343 -782.048)" fill="#ffb74d"/>
      <path id="Trazado_107245" data-name="Trazado 107245" d="M2348.371,907.368l.978,1.408,2.006-.271c2.005-.271.9-.074,2.2,0s-.088-1.791-.376-2.47a9.672,9.672,0,0,0-1.023-1.89,3.382,3.382,0,0,0-1.5-1.025s-1.307.683-1.173,1.881.753,1.035.753,1.035h.86l-1.212,1.335Z" transform="translate(-2024.197 -788.186)" fill="#ffb74d"/>
      <path id="Trazado_107246" data-name="Trazado 107246" d="M2083.265,1003.311c.3-.752.066-.939-.017-1.5s-.1-2.061-.1-2.061-.165-1.122.416-1.322-.3-2.038-.3-2.038a5.949,5.949,0,0,0-1.575-2.417c-.893-.556-.272-1.854-.272-1.854l-1.635-1.479a3.524,3.524,0,0,0-.431-2.949,2.7,2.7,0,0,0-1.8-1.1s-.164-1.285-.292-2.018-.794-1.463-.55-2.559a3.662,3.662,0,0,0-.316-2.186l-2.139-.909a3.451,3.451,0,0,0-.39-2.719,3.429,3.429,0,0,1-.388-2.709s-1.893,2.166-1.939,3.252a7.832,7.832,0,0,1-.243,2.54c-.372,1.637-.295,2.184-1.122,3.462s-1.964-1.1-2.574-1.46a8.9,8.9,0,0,1-2.228-2.729c-.3-.726.679-2.356.6-2.9s-.9-.743-.9-.743-1.1.743-3.141-2.5-2.942,1.081-2.942,1.081a5.535,5.535,0,0,1,.384,2.89,3.744,3.744,0,0,1-3.836,2.175,2.02,2.02,0,0,1-1.485-2.175l-1.89,1.994-2.037-.182a12.366,12.366,0,0,0-.89,2.91c-.218,1.459-1.966,2.007-2.548,2.739s-.894.366-4.5.549-2.966,2.2-4.856,3.3-.67,2.949-1.017,4.058.583.926.37,3.214.364,2.545.616,5.348-1.41,1.312-2.1,2.439-2.958.94-2.958.94a47.543,47.543,0,0,1,4.819,2.828c2.882,1.892,0,0,.887-.566a4.039,4.039,0,0,0,1.329-1.508,8.134,8.134,0,0,1,4.036.754c1.607.943,2.051.566,3.642.189s-.115-.942-.115-.942a11.826,11.826,0,0,1,3.47-1.693c1.971-.563,1.406-.188,1.406-.188l3.58.376c3.581.376,1.718,1.128,1.718,1.128a8.561,8.561,0,0,1,2.024,2.074c.906,1.323.221,1.7.221,1.7l3.161-1.135-2.705,3.979a5.016,5.016,0,0,1,3.031-1.519,1.143,1.143,0,0,1,1.19,1.519l.481,3.619s2.1,1.147,4.727,2.3,1.443,0,1.443,0a7.588,7.588,0,0,0,2.96-.957c1.926-.956,1.729.574,1.854,0s1.074-1.147,2.245-2.483.794-.762,1.028-1.524a5.1,5.1,0,0,1,1.383-2.279,5.481,5.481,0,0,0,1.378-3.217C2081.646,1004.817,2082.967,1004.064,2083.265,1003.311Z" transform="translate(-1755.448 -846.067)" fill="#ffb74d"/>
      <path id="Trazado_107247" data-name="Trazado 107247" d="M2265.931,1289.1c-.821-.192-2.478.77-3.1.577s-1.6-1.539-2-1.539-1.662,3.081-1.662,3.081l2.826,4.064,1.377-.388a5.652,5.652,0,0,1,1.894-1.937,1.592,1.592,0,0,0,.981-1.546S2266.752,1289.293,2265.931,1289.1Z" transform="translate(-1948.369 -1115.497)" fill="#ffb74d"/>
      <path id="Trazado_107248" data-name="Trazado 107248" d="M2396.693,1266.319s.52,5.805-.545,6.364-2.26,2.8-3.464,3.733-1.262.562-2.554.936-5.42,2.44-5.42,2.44a4.448,4.448,0,0,0,2.51,2.637c2.073.944,0,0,1.872-.188s.749-.377,3.909-.943,1.274-.753,1.612-1.506.59-.751,1.515-2.253,5.939-2.764,6.455-3.006C2406.156,1272.855,2396.693,1266.319,2396.693,1266.319Z" transform="translate(-2055.089 -1096.948)" fill="#ffb74d"/>
      <path id="Trazado_107249" data-name="Trazado 107249" d="M1561.069,968.133s-1.17,1.909-2.355,3.63-1.67.019-1.67.019l-1.023,4.369c-1.03,4.4,0,0-.322,2.459s.346.88-.9,1.938.1,1.59.154,2.474,2.688,1.063,2.688,1.063l1.528-1.063s2.65-.863,2.79-1.57a10.989,10.989,0,0,0-.166-2.468,8.591,8.591,0,0,1,.9-3.161c.487-1.05-1.121-2.82-.091-4.059s.206-2.415-.244-3.576S1561.069,968.133,1561.069,968.133Z" transform="translate(-1349.128 -843.051)" fill="#ffb74d"/>
      <path id="Trazado_107250" data-name="Trazado 107250" d="M824.321,1307.182c-2.118.373-1.725-.186-2.112,0s-.024,1.492-.024,1.492l2.384,1.308c2.388,1.311.483-.187,1.837-.748s.591-1.12.032-2.425S826.438,1306.81,824.321,1307.182Z" transform="translate(-726.635 -1130.888)" fill="#ffb74d"/>
      <path id="Trazado_107251" data-name="Trazado 107251" d="M962.644,1310.362c-1.023-.745-1.09,1.375-1.09,1.375l1.089.3h1.025A2.257,2.257,0,0,0,962.644,1310.362Z" transform="translate(-845.246 -1134.254)" fill="#ffb74d"/>
      <path id="Trazado_107252" data-name="Trazado 107252" d="M1824.238,814.155c-.293-1.172-.562-.168-1.457,0a3.375,3.375,0,0,1-1.457,0s1.636,3.866,1.883,4.54l1.436-.674a2.945,2.945,0,0,0-.217-1.881C1823.963,815.1,1824.531,815.329,1824.238,814.155Z" transform="translate(-1576.148 -712.081)" fill="#ffb74d"/>
      <path id="Trazado_107253" data-name="Trazado 107253" d="M1216.695,245.888a6.083,6.083,0,0,1,.969,2.316c-.039.774,1.735,1.548,1.735,1.548l.831,2.107c.834,2.113.058,1.668.094,2a30.646,30.646,0,0,0,1.526,4.022c.462.9.438.673,1.339,2.245s.513,1.35.575,1.914,3.591,1.58,3.591,1.58l-.2-1.805a21.6,21.6,0,0,0-.767-3.6c-.6-2.127-1.523-1.68-1.851-2.445s-1.544-.8-2.344-1.468-.726-2.226-.762-2.559a9.809,9.809,0,0,1,.3-1.664s3.389,2.219,3.427,2.552a7.845,7.845,0,0,0,2.36,2.674c1.474,1.229.933-.335,1.38-.669a8.747,8.747,0,0,0,1.723-1.893c.516-.778.127-1,.037-1.777a2.439,2.439,0,0,1,.209-1.33l.728-3.092s-4.743-1.431-5.651-3.079-1.179.219-1.925,0,1.33-2.081,2.491-3.5,2.135-.218,3.669-.436.366-.981.7-1.2a22.661,22.661,0,0,1,3.145-.761c1.4-.327,1.146-.435,1.759-1.3a8.488,8.488,0,0,0,1.319-1.951c.067-.433.772-2.485.917-3.239a5.686,5.686,0,0,0,.266-1.721l-.185-1.5-2.4-3.1a12.935,12.935,0,0,1-2.052-1.279,18.453,18.453,0,0,1-1.282-1.808,25.533,25.533,0,0,0,.136-3.812c-.139-1.16-1.092.739-1.589.528s-2.428-1.583-2.5-2.215,1.47-2.523,1.47-2.523,1.569,2.312,2.562,2.733.37-.842,1.237-1.473.783.631.783.631.966,1.159,1.815,2.319.378,1.163,1.86,3.6,1.1.319,2.012,0,2.256-1.8,2.084-2.226a10.3,10.3,0,0,0-2.627-2.112c-.367-.105-.237-1.9.286-2.421,0,0-.458-.84-1.256-2.517s-.482-1.986.026-2.612,0,0,2.673.731.4-.522.4-.522a19.309,19.309,0,0,1-.161-2.186,11.827,11.827,0,0,0-.121-1.869l-.119-.932a4.991,4.991,0,0,1,.113-1.86,5.517,5.517,0,0,0,.2-2.062c-.04-.308-1.027-2.568-1.092-3.08s-2.517-2.453-2.517-2.453l-1.106-2.343a6.428,6.428,0,0,0-2.466-1.219c-1.554-.406-.913.1-.913.1a4.14,4.14,0,0,1-1.421-1.217,9.442,9.442,0,0,1-.661-3.536,6.352,6.352,0,0,1,1.613-2.815c.6-.7.681-1,1.026-1a8.192,8.192,0,0,0,2.53-.9c.307-.3,1.519-1.6,1.519-1.6s1.377.9,3.6,2.1.676-.1,1.212-.4,2.293-.9,2.112-1.4-1.879-1.2-2.517-1.694-.258-1.094-.058-2.187-.057-2.179.631-1.289,0,0,3.351,1.984.061-.4.021-.695-.09-2.377-.162-3.76.276-.493,2.006.493.39,1.186,1,2.275a1.987,1.987,0,0,1-.281,2.133,29.3,29.3,0,0,1-.734,3.039c-.487,1.5.074,1.4.081,2.3a14.207,14.207,0,0,0,.081,2.309c.136,1.006.272,2.015.313,2.317s1.965,1.718,2.394,2.326,1.152.811,2.073,1.623.6,1.016.572,1.627a12.945,12.945,0,0,0,.845,2.754,7.986,7.986,0,0,0,.659-1.939c.031-.611.669-1.019.816-1.629a6.953,6.953,0,0,0-.2-2.233,16.7,16.7,0,0,0-1.232-3.033c-.343-.807-.025-1.008.467-1.612a2.282,2.282,0,0,0,.521-1.206,15.89,15.89,0,0,0-.683-2.406c-.328-.7-1.706-.7-2.321-1a9.368,9.368,0,0,1-1.807-2.294l.166-1.292.847-.5c.846-.5,0,0,.476-.694s.832-.595,1.591-.892,1.115-.2,1.187-.495a6.729,6.729,0,0,0,.7-1.483,11.943,11.943,0,0,0,.392-2.856c-.07-.491,1.04-.688,2.633-.688s.668-.1,1.081-.392-.086-1.372-.512-1.959-2.3-.977-2.582-1.368-1.045-1.755-1.045-1.755a8.139,8.139,0,0,1-.6-2.623c.115-.775,0,0,1.3.388a20.85,20.85,0,0,1,2.771,1.165c.481.195,3.806-.291,3.73-.612a4.144,4.144,0,0,1-.282-1.329,7.576,7.576,0,0,0-.331-2.224,2.778,2.778,0,0,0-.58-.868h-5.638a13.167,13.167,0,0,1-5.3-.771c-1.684-.77-2.4-1.059-2.4-1.059h-2.365a20.278,20.278,0,0,0-2.533,1.264c-.51.4-1.718-.2-2.218,0s-.11,1.144.217,1.917-.652.193-.916-.1-1.242-.869-1.458-1.659-.925,1.562-1.238,1.755a3.326,3.326,0,0,0-.515.387s-3.479,1.064-3.818,1.064-.5-.387-.629-.509a15.5,15.5,0,0,0-1.533-1.425c-.749-.579-1.467,0-1.794.1s-2.623,1.644-2.939,1.837a2.364,2.364,0,0,1-1.982-.509c-.625-.509-1.048-.266-1.658-.652s-.35.871-.519,1.354-1.345.1-1.345.1-2.9-.678-3.482-.8a16.822,16.822,0,0,0-3.322.606s-.911.969-.963,1.522,1.255,1.116,1.255,1.116-1.573,1.15-2,1.363-1.426-.6-1.911-.895-1.3.551-1.3.551a6.042,6.042,0,0,0,.933,1.3c.506.488-.793,1.075-.793,1.075l-1.774-.665a4.679,4.679,0,0,1-1.567-.879,4.087,4.087,0,0,0-1.107-.831,6.688,6.688,0,0,0-.157-1.524c-.153-.389-3.264.195-3.8.5s.185,1.851.185,1.851h-5.671s-1.78.372-2.268,0a1.3,1.3,0,0,1-.531-.831,2.008,2.008,0,0,0-1.462.13c-.531.39,0,0-.207.213s-2.031,1.367-2.031,1.367a4.863,4.863,0,0,1,.185-1.71c.266-.812.7-1.038.872-1.621s.2-1.553-.169-1.844a13.03,13.03,0,0,1-1.315-.8c-.611-.509-.893.121-1.9.207s-1.391.883-1.94,1.077a1.3,1.3,0,0,1-1.026-.1l.2-1.6s-.781.108-1.971-1.92-.677,0-1.144-.193-1.8,0-2.166-.289a8.273,8.273,0,0,0-3.758-.481c-1.683.1-1.171.867-1.7,1.349s1.137,1.534,1.137,1.534a11.377,11.377,0,0,0,2.823,0c1.338-.2,1.025.108,2.806-.207s1.181.6,2.222.9-1.055,2.168-1.1,2.963-1.11.274-1.878.566a9.859,9.859,0,0,0-2.389,1.285,31.23,31.23,0,0,1-3.153,1.74l.223,2.842-.523.59s-2.522,1.279-2.63,1.37-.875.5-.85.821a6.125,6.125,0,0,1-.355,1.357l-2.048.1-.106-1.457c-.049-.665-1.115-.821-1.115-.821l-.6.821.2,2.842c.036.5.279.694.665,1.29s-.322,1.889-.322,1.889-.494-.5-1.117-1.194-.313-1.191-.877-1.489-.2-.793-.591-1.486a16.643,16.643,0,0,0-.929-1.852c-.375-.467-.867.666-1.182,1.061a2.315,2.315,0,0,0-.362,1.384c.02.3-.942,1.289-.942,1.289a5.76,5.76,0,0,0-.263,1.192c.02.3.269.6,1.935,1.493a17.05,17.05,0,0,1,2.635,1.6c.366.3-2.39.3-2.39.3a2.982,2.982,0,0,1-1.182-.5,6.45,6.45,0,0,0-1.517-.8s-1.444-.6-1.794-.7-3.114-.2-3.114-.2l-2.331-.727-.071-1.163s.053-.992.017-1.587a7.364,7.364,0,0,1,.011-1.682c.09-.4.636-.79,1.937-1.784s1-.485,1.894-.78a7.407,7.407,0,0,0,2.678-2.553c.195-.49-1.072-.742-1.072-.742l-2.082,1.205s-1.535.911-2.415,1.4-.838,1.181-1.391,1.469-1.2.9-1.661.821-.519,2.149-.519,2.149a14.592,14.592,0,0,0-1.222,3.245c.039.667,1.5,1.447,1.5,1.447a5.4,5.4,0,0,0,2.028.043c.559-.234,2.327.533,3.5.933a3.683,3.683,0,0,1,1.915,1.216c.493.517-1.807.484-1.807.484l-2.274.4a2.935,2.935,0,0,1-1.778-.884,19.477,19.477,0,0,1-3.4,2.791c-1.232.6-.058-1-.058-1l-.132-2.3-1.794.517a8.122,8.122,0,0,1-.779,1.285c-.458.6-.84.9-1.1,1.3s.648.3,1.78,2.013-.391,1.816-.391,1.816a12.61,12.61,0,0,0-2.783,1.348,16.208,16.208,0,0,0-1.894,1.366c-.327.387-2.1-.386-2.117-.691s-.843-.676-.843-.676l-3.754-3.668a46.365,46.365,0,0,0,5.163,1.815c3.637,1.112,1.847,0,2.838-.3s.632-1.714.954-2.417-1.789-.9-1.789-.9a65.3,65.3,0,0,1-6.544-2.1c-1.411-.7,0,0-1.687-1.7s-1.584.5-2.663,1-4.838.8-5.971,1.2-2.851.6-3.3.8a12.966,12.966,0,0,0-1.874,2.31l1.706-.6c1.7-.6.821.4.821.4l-1.072,2.217s-.664.808-.882,1.146a20.067,20.067,0,0,1-1.311,2.175,14.906,14.906,0,0,1-2.633,1.849c-.258.2-2.015,1.222-2.015,1.222l.041,1.327-.5,2.559,2.7,1.746.5.1s1.387-.309,1.377-.617a.732.732,0,0,1,1.033-.433c.359.286.582,0,.582,0a7.844,7.844,0,0,1,.915,2.8c.172,1.549.365.413.639,1.549,0,0-.274-1.136,3.588-.827s.8-.412,1.355-1.134a2.121,2.121,0,0,0,.4-1.544,20.942,20.942,0,0,1-2.193.514c-.35,0-.987-1.439-.7-1.849s.492-.615,1.988-1.025-.035-.869-.035-.869-.495-.768-.739-1.075a9.453,9.453,0,0,1-.852-1.021c-.248-.408.2-.815.949-2.4s1.623.061,2.084,0-.039-.955-.188-1.766a1.917,1.917,0,0,1,.969-1.721c.338-.2,1.168.3,1.866.439s.325,2.175.325,2.175-1.13.628-1.467.873-.538.976-.988,1.31.419,1.7.432,2.011a.782.782,0,0,0,.253.511l1.422.666a5.969,5.969,0,0,0,1.859,0c1.155-.152,1.252-.564,1.94-.768s2.85,1.33,2.85,1.33l-1.6.513s-1.586.923-1.939.82-2.219-.205-2.573-.308-.68.411-1.129.8-.327.536-.512,1.667a4.546,4.546,0,0,0,.082,1.959,3.481,3.481,0,0,1-1.133.826c-.576.207-1.122,1.138-1.459,1.472s-2.222-.023-2.689,0a5.3,5.3,0,0,0-2.171,1.389c-.564.582-1.195-.686-1.57-1.389s-.558-2.608-.943-3.64-.58.1-.58.1-.775,1.238-1.242,1.238-.687.413-.586.93.17.621.03.931,1.14,1.659.912,1.826a2.926,2.926,0,0,1-2.089.56c-1.174-.1-1.508.468-1.508.468s-.278,2.449-.75,2.344-.583.1-1.155.626-1.709,1.883-2.056,2.093-1.523.21-2.221.524a8.406,8.406,0,0,0-2.209,1.049c-.81.631,1.295,0,1.617,0a17.786,17.786,0,0,1,2.413,1.051l-.516,2.741-1.78.846A11.14,11.14,0,0,1,1104,218.6a2.758,2.758,0,0,0-2.7.634,16.6,16.6,0,0,0-.2,1.907c-.09,1.381.011.531.011.531s.636,2.127.815,3.086-.371,1.175-.371,1.175l1.723.641c1.725.642,1.861.321,1.725,0s.963.107,2.35-.214.732-.427.732-.427a7.4,7.4,0,0,0,.094-.961c-.008-.32,2.83-.64,3.175-1.386s-.032-.745-.042-1.489.815-.106,1.513-.531.339-.531.321-1.167.91-1.165.91-1.165l.834.212,1.661.212c1.661.212,1.3,0,1.3,0l.215-.635.093-.74,1.542.212.985,1.163.259.636a6.277,6.277,0,0,0,1.939,1.273c.959.318.489.425,1.081.425s1.094.744,1.094.744l-.094.639a3.265,3.265,0,0,0,.045,1.172l-.589.106a4.7,4.7,0,0,0-1.779,0c-.585.213,0,0,.6.32s.028.748.028.748a3.139,3.139,0,0,0,1.453.748,1.58,1.58,0,0,0,1.048-.534l1.035-.855s.445-.746.313-1.066a4.471,4.471,0,0,1-.161-1.065l1.514-.638-.846-.425-1.09-.637s-.984-.954-1.473-1.378l-.855-.741a21.48,21.48,0,0,1-2.519-1.057c-.723-.422,0,0-.495-.633s.8-.633,1.754-.422a2.683,2.683,0,0,1,1.448.844l1.213.845s1.1.952,1.464,1.164a7,7,0,0,0,2.145.424c.473,0,.517,1.06.54,1.591a2.846,2.846,0,0,1-.306,1.17s1,1.278,1.376,1.7,2.359,2.351,2.359,2.351l.591-.059c.592-.059.672-.9.657-1.224a12.874,12.874,0,0,0-1.041-2.027l-.346-2.446c-.345-2.437,1.562.531,1.922.637s1.125,1.276,1.125,1.276a18.276,18.276,0,0,0,1.441,2.88c1.167,2.035,1.469.9,1.469.9s1.445.381,1.782,0,.948-.048,3.523-.8,2.262.107,2.894.8-.176,1.131-.718,2.1a3.4,3.4,0,0,0-.52,1.4,11.2,11.2,0,0,0-.021,1.832s-.728-.216-1.329-.324a10.058,10.058,0,0,0-2.6.539h-1.671a8.982,8.982,0,0,1-3.521-1.294c-2.443-1.291-2.851.215-3.209.215a18.646,18.646,0,0,0-2.912,1.619c-.933.54-.6-.108-1.225-.756s-.853-.432-.853-.432-4.059-.108-4.774-.108a1.507,1.507,0,0,1-1.463-.862,13.429,13.429,0,0,1-.855-3.925c-.189-1.983-.707.167-1.426,0a18.593,18.593,0,0,0-3.09,0s-2.117.7-2.733,0-2.509-.476-2.854-.476-.483.107-1.424.476-2.622.917-2.622.917-1.875-.107-2.363-.215a5.792,5.792,0,0,0-1.722.215l-.142,1.072a25.679,25.679,0,0,0-2.462,1.828,7.808,7.808,0,0,0-1.241,3.67,1.259,1.259,0,0,1-1.291,1.3,5.289,5.289,0,0,0-2.026.434s-1.4,2.61-1.748,3.046-.712.545-2.615,1.747-.092,2.08.055,4.167a6.923,6.923,0,0,0,.886,3.086c.127.442.008.553.008.553s.023,1.66.048,3.437,1.848,2.114,2.713,3.119a9.475,9.475,0,0,0,2.343,2.125,6.962,6.962,0,0,1,2.27,4.269c.129.338,3.165-.225,3.775-.225h2.316c2.316,0,1.956.225,2.667-.563s2.169-.9,3.259-1.125a19.373,19.373,0,0,1,3.406-.112,4.6,4.6,0,0,0,.288,1.462c.261.563,0,0,4.037.451s1.982.9,2.982,1.579,0,0-.082,1.13-.685,1.359-1.621,2.607,0,0,.885.8.882.682,1.286,1.707a8.385,8.385,0,0,1,.361,3.2c.058,1.6,0,0,.55,1.6s.522.8,1.325,2.53.391.576,1.206,2.539-.455,1.041-1.644,2.316-.341.812-.5,3.255.184,1.634.209,2.335.27.585.72,2.694.542,1.175,1.458,2.351a20.465,20.465,0,0,0,2.082,2.241c2.089,2.248.94,1.656,2.157,3.909s.925,1.189,1.381,3.1a17.436,17.436,0,0,0,.723,2.271c.3,1.078.413.838.931,1.2s.513.24,1.886,0,.629,0,2.515,0a4.308,4.308,0,0,0,2.612-.6l.366-.239c.366-.24,1.2-1.077,1.809-1.555a6.458,6.458,0,0,1,1.829-1.075c.86-.358.829-.954.912-1.787a13.25,13.25,0,0,1,.848-2.969c.332-.829,1.181-1.3,3.01-2.13s.46-.709.428-1.3-.228-1.885-.266-2.59.506-2.112,2.409-3.633a7.836,7.836,0,0,0,2.638-3.731,42.721,42.721,0,0,1,1.985-4.058c1.108-2.078.143-1.732.094-2.539a12.119,12.119,0,0,0-1.157-2.873,27.252,27.252,0,0,1-.62-4.231c-.027-.456.43-1.025,1.947-2.276a34.031,34.031,0,0,0,3.371-2.835c.682-.792.9-1.244,1.686-2.26a15.883,15.883,0,0,1,3.371-2.477s1.792-4.033,2.307-5.373-.941-1.337-.941-1.337a6.99,6.99,0,0,0-1.713,1.56c-.782,1-2.5.67-3.709.782s-2.376-1.116-2.64-1.45a15.343,15.343,0,0,0-2.049-1.78,8.086,8.086,0,0,1-1.795-1.665l-.939-1.55c-.268-.442-2.391-1.657-3.292-2.65a14.627,14.627,0,0,1-1.866-3.187c-.536-.986-1.022-1.1-1.93-2.3a8.311,8.311,0,0,1-1.6-3.053c-.828-2.064.266-1.738,1.205-2.064a17.242,17.242,0,0,0,3.8,3.7c1.736.982,1.4,1.31,1.706,2.513s0,0,.323,1.424.393.549,1.89,1.427c1.234.725,1.189.554,1.134.472a12.807,12.807,0,0,1,1.591,2.724c.437,1.216.317,1.216.741,2.213s2.787,2,2.787,2a8.689,8.689,0,0,1,1.487-1.332c.469-.222,2.51-.444,3.319-1a14.512,14.512,0,0,1,1.978-1.106c1.048-.553,1.539-.442,3.552-.994s.773-.993.862-1.434a5.884,5.884,0,0,1,1.044-2.2c.657-.878,1.442-1.645,1.417-1.974s-.13-1.75-.507-1.968-1.2,0-1.832-.437-.663-.872-1.19-1.526a2.509,2.509,0,0,0-2.907-.435,1.5,1.5,0,0,1-1.932-.217c-.5-.326-1.122-.652-1.623-.978s-1.24-.652-1.614-.868-.8-3.138-.8-3.138a26.309,26.309,0,0,1,2.811.972c1.6.649,0,0,1.022.974s1.278,1.192,1.278,1.192a6.787,6.787,0,0,1,1.809.217c.494.217.741.326,3.086,1.3a7.572,7.572,0,0,1,1.551.76c-.025-.032-.06-.113.046-.216a22.964,22.964,0,0,1,3.622-1.2c.351-.109,3.061.869,5.261,1.413s.625.327,1.95,1.853,0,0-.067.655,1.132,2.079,1.132,2.079,2.9-1.2,3.661-.767,0,0,1.075,1.315,0,0,.262,1.647-.2.44-.905,2.092.319,2.32.319,2.32l4.484,2.883c4.5,2.9,1.325,1.446,1.325,1.446l1.753,3.125,1.264-.783a2.6,2.6,0,0,0,.636-1,4.2,4.2,0,0,1,.483-1.338,6.438,6.438,0,0,0,.2-1.779c.07-.555.2-1.775.2-1.775s-.024-1.549-.075-2.1l-.134-1.434s.059-.661,3.029-3.627,1.432-.109,1.432-.109l.954-1.314s2.1-1.857,3.712-1.312.742.218,3.292,2.844.782,1.756.839,2.306.928,1.983,1.991,1.762A1.51,1.51,0,0,0,1216.695,245.888Zm-65.221-26.259c-1.754.32-3.73,1.942-5.154.81s-.542-2.223-2.281-1.129.059,1.118.059,1.118-6.574.32-6.7-2.394-.036-4.445,1.728-4.445,2.777,2.536,3.788,1.584-.105-1.426,1.889-2.375,2.158-1.105,2.272.949a4.133,4.133,0,0,0,2.856,3.651C1151.194,217.875,1153.227,219.31,1151.474,219.629Z" transform="translate(-955.222 -153.906)" fill="#ffb74d"/>
    </g>
    <g id="Grupo_83775" data-name="Grupo 83775" transform="translate(233.066 151.994)">
      <path id="Trazado_107254" data-name="Trazado 107254" d="M516.954,436.129A14.137,14.137,0,0,0,502.4,449.834c-.235,7.8,13.282,28.6,13.282,28.6s14.745-19.947,14.98-27.751A14.137,14.137,0,0,0,516.954,436.129Zm-.648,21.5a7.64,7.64,0,1,1,7.867-7.406A7.64,7.64,0,0,1,516.306,457.633Z" transform="translate(-502.395 -406.857)" fill="#8c6df2"/>
      <path id="Trazado_107255" data-name="Trazado 107255" d="M600.573,435.935l108.862-55.169a15.728,15.728,0,0,1,21.125,6.9h0a15.728,15.728,0,0,1-6.891,21.149l-76.709,39.007a15.747,15.747,0,0,0-6.9,21.174h0a15.747,15.747,0,0,0,21.174,6.9l114.058-58" transform="translate(-585.857 -358.353)" fill="none" stroke="#5038a1" stroke-linecap="round" stroke-miterlimit="10" stroke-width="4" stroke-dasharray="4 10"/>
      <path id="Trazado_107256" data-name="Trazado 107256" d="M1783.623,471.577l-1.517,1.658a24.292,24.292,0,0,1-6.187,4.872l-6.922,3.82a.234.234,0,0,0-.121.2l-.033,4.969a.233.233,0,0,0,.355.2c.094-.058.19-.114.287-.168l1.113-.614a.252.252,0,0,1,.347.058l1.073,1.944a.253.253,0,0,1-.136.325l-1.113.614a8.126,8.126,0,0,1-1.775.722.234.234,0,0,0-.174.223l-.035,5.218a.234.234,0,0,0,.368.192c.214-.148.436-.286.667-.414l1.113-.614a.253.253,0,0,1,.348.059l1.073,1.944a.252.252,0,0,1-.136.325l-1.113.614a8.057,8.057,0,0,1-2.155.814.234.234,0,0,0-.186.226l-.035,5.2a.275.275,0,0,1-.106.216l-2.377,1.859a.276.276,0,0,1-.442-.169l-2.286-12.833a15.569,15.569,0,0,0-1.63-4.669l-.936-1.732a.234.234,0,0,0-.319-.094l-2.824,1.559a29.633,29.633,0,0,1-6.221,2.556.232.232,0,0,0-.168.25l.534,4.7a2.147,2.147,0,0,1-.666,1.81l-1.4,1.307a.057.057,0,0,1-.094-.026l-2.019-6.767a.234.234,0,0,0-.285-.159h0a.764.764,0,0,1-.718-1.3h0a.234.234,0,0,0,.018-.326l-4.649-5.316a.057.057,0,0,1,.029-.093l1.85-.485a2.147,2.147,0,0,1,1.887.4l3.69,2.956a.233.233,0,0,0,.3-.009,29.649,29.649,0,0,1,5.479-3.9l2.824-1.559a.234.234,0,0,0,.091-.32l-.967-1.715a15.561,15.561,0,0,0-3.082-3.868l-9.64-8.775a.276.276,0,0,1,.093-.464l2.84-1.02a.276.276,0,0,1,.239.025l4.414,2.74a.234.234,0,0,0,.291-.036,8.068,8.068,0,0,1,1.837-1.39l1.113-.614a.252.252,0,0,1,.347.058l1.073,1.944a.253.253,0,0,1-.136.325l-1.113.614c-.23.127-.466.241-.705.344a.234.234,0,0,0-.034.414l4.433,2.752a.234.234,0,0,0,.282-.028,8.122,8.122,0,0,1,1.557-1.117l1.113-.614a.252.252,0,0,1,.347.058l1.073,1.944a.253.253,0,0,1-.136.325l-1.113.614q-.146.08-.3.153a.233.233,0,0,0-.019.408l4.222,2.621a.234.234,0,0,0,.236.006l6.921-3.82a24.3,24.3,0,0,1,7.42-2.637l2.212-.4A.547.547,0,0,1,1783.623,471.577Z" transform="translate(-1556.314 -432.224)" fill="#8c6df2"/>
      <path id="Trazado_107257" data-name="Trazado 107257" d="M769.862,797.506A9.579,9.579,0,0,0,760,806.792c-.159,5.288,9,19.38,9,19.38s9.99-13.515,10.15-18.8A9.579,9.579,0,0,0,769.862,797.506Zm-.439,14.57a5.177,5.177,0,1,1,5.33-5.018A5.177,5.177,0,0,1,769.423,812.076Z" transform="translate(-721.386 -714.07)" fill="#8c6df2"/>
      <path id="Trazado_107258" data-name="Trazado 107258" d="M1455.372,240.877a9.579,9.579,0,0,0-9.863,9.286c-.159,5.288,9,19.38,9,19.38s9.99-13.515,10.15-18.8A9.579,9.579,0,0,0,1455.372,240.877Zm-.439,14.57a5.177,5.177,0,1,1,5.33-5.018A5.176,5.176,0,0,1,1454.933,255.447Z" transform="translate(-1304.147 -240.872)" fill="#8c6df2"/>
    </g>
  </g>
</svg>
