<svg xmlns="http://www.w3.org/2000/svg" width="89.86" height="92.806" viewBox="0 0 89.86 92.806">
  <g id="boarding-pass-2" transform="translate(-28 -24)">
    <path id="Trazado_107696" data-name="Trazado 107696" d="M33.928,0A33.928,33.928,0,1,1,0,33.928,33.928,33.928,0,0,1,33.928,0Z" transform="translate(32.648 46.161)" fill="#d8ccff"/>
    <path id="Trazado_107678" data-name="Trazado 107678" d="M112,48h41.247v61.871H112Z" transform="translate(-53.065 -15.161)" fill="#ffebad"/>
    <path id="Trazado_107679" data-name="Trazado 107679" d="M150.72,108.817H109.473A1.473,1.473,0,0,1,108,107.344V45.473A1.473,1.473,0,0,1,109.473,44H150.72a1.473,1.473,0,0,1,1.473,1.473v61.871A1.473,1.473,0,0,1,150.72,108.817Zm-39.774-2.946h38.3V46.946h-38.3Z" transform="translate(-50.538 -12.634)"/>
    <path id="Trazado_107680" data-name="Trazado 107680" d="M112,184h41.247v11.785H112Z" transform="translate(-53.065 -101.076)" fill="#8c6df2"/>
    <path id="Trazado_107681" data-name="Trazado 107681" d="M150.72,194.731H109.473A1.473,1.473,0,0,1,108,193.258V181.473A1.473,1.473,0,0,1,109.473,180H150.72a1.473,1.473,0,0,1,1.473,1.473v11.785A1.473,1.473,0,0,1,150.72,194.731Zm-39.774-2.946h38.3v-8.839h-38.3Z" transform="translate(-50.538 -98.549)"/>
    <circle id="Elipse_7474" data-name="Elipse 7474" cx="2.38" cy="2.38" r="2.38" transform="translate(77.632 86.777)"/>
    <path id="Trazado_107682" data-name="Trazado 107682" d="M156.184,99.28V95.587a5.023,5.023,0,0,0-2.19-4.148l-7.1-4.85a17.542,17.542,0,0,0-2.405-8.866,2.6,2.6,0,0,0-4.481,0,17.542,17.542,0,0,0-2.405,8.866l-7.1,4.85a5.023,5.023,0,0,0-2.19,4.148V99.28l9.292-4.759,1.549,6.346-6.535,4.759v6.346l9.632-4.759,9.518,4.759v-6.346l-6.421-4.759,1.549-6.346Z" transform="translate(-63.367 -33.127)" fill="#ffb74d"/>
    <path id="Trazado_107683" data-name="Trazado 107683" d="M130.088,110.917a1.473,1.473,0,0,1-1.473-1.473V103.1a1.475,1.475,0,0,1,.606-1.191l5.737-4.178-.872-3.573-7.631,3.907a1.472,1.472,0,0,1-2.145-1.311V93.06a6.5,6.5,0,0,1,2.832-5.366l6.476-4.422a19.028,19.028,0,0,1,2.591-8.821,4.07,4.07,0,0,1,7.023,0,19.023,19.023,0,0,1,2.591,8.821l6.476,4.422a6.5,6.5,0,0,1,2.832,5.366v3.693a1.472,1.472,0,0,1-2.145,1.311l-7.631-3.907-.875,3.582,5.635,4.176a1.473,1.473,0,0,1,.6,1.184v6.345a1.473,1.473,0,0,1-2.132,1.318l-8.863-4.431-8.976,4.434a1.474,1.474,0,0,1-.652.152Zm1.473-7.069v3.225l7.507-3.709a1.479,1.479,0,0,1,1.311,0l7.386,3.692v-3.219l-5.825-4.317a1.475,1.475,0,0,1-.555-1.534l1.549-6.345a1.474,1.474,0,0,1,2.1-.961l7.147,3.66V93.06a3.552,3.552,0,0,0-1.549-2.933l-7.1-4.848a1.474,1.474,0,0,1-.642-1.217,16.078,16.078,0,0,0-2.2-8.121,1.123,1.123,0,0,0-1.939,0,16.078,16.078,0,0,0-2.2,8.121,1.475,1.475,0,0,1-.642,1.217l-7.1,4.849a3.548,3.548,0,0,0-1.548,2.932v1.283l7.147-3.66a1.474,1.474,0,0,1,2.1.961l1.549,6.345a1.476,1.476,0,0,1-.564,1.541Z" transform="translate(-60.841 -30.599)"/>
    <path id="Trazado_107684" data-name="Trazado 107684" d="M68,178.505l2.709-7.781a30.745,30.745,0,0,0,1.71-10.109V145.873a22.659,22.659,0,0,1,5.723-15.054L84.2,124v22.1l8.839.68v11.281a9.544,9.544,0,0,1-7.592,9.342l-3.173,11.105Z" transform="translate(-25.269 -63.172)" fill="#e7d1c4"/>
    <path id="Trazado_107685" data-name="Trazado 107685" d="M79.751,177.451H65.473a1.474,1.474,0,0,1-1.391-1.958l2.709-7.781a29.186,29.186,0,0,0,1.628-9.624V143.345a24.105,24.105,0,0,1,6.1-16.031l6.061-6.819a1.473,1.473,0,0,1,2.574.978v20.733l7.479.575a1.473,1.473,0,0,1,1.36,1.469v11.28a11.072,11.072,0,0,1-7.881,10.562l-2.94,10.29A1.472,1.472,0,0,1,79.751,177.451ZM67.546,174.5H78.64l2.868-10.036a1.471,1.471,0,0,1,1.115-1.037,8.108,8.108,0,0,0,6.421-7.9v-9.916l-7.479-.575a1.474,1.474,0,0,1-1.36-1.469V125.347l-3.487,3.923a21.163,21.163,0,0,0-5.351,14.075v14.742a32.148,32.148,0,0,1-1.792,10.594Z" transform="translate(-22.742 -60.645)" fill="#0f0f0f"/>
    <path id="Trazado_107686" data-name="Trazado 107686" d="M106.769,168.359l6.806-13.612a2.9,2.9,0,0,1,5.459,1.795l-1.5,8.643v8.831" transform="translate(-49.76 -81.582)" fill="#e7d1c4"/>
    <path id="Trazado_107687" data-name="Trazado 107687" d="M115.007,172.967a1.473,1.473,0,0,1-1.473-1.473v-8.83a1.483,1.483,0,0,1,.022-.252l1.5-8.645a1.431,1.431,0,0,0-2.69-.885l-6.806,13.612a1.473,1.473,0,1,1-2.635-1.318l6.806-13.612a4.4,4.4,0,0,1,5.3-2.194,4.351,4.351,0,0,1,2.929,4.9l-1.478,8.52v8.7A1.473,1.473,0,0,1,115.007,172.967Z" transform="translate(-47.233 -79.059)"/>
    <path id="Trazado_107688" data-name="Trazado 107688" d="M76.306,74.312a3.671,3.671,0,0,0-.887.12,8.836,8.836,0,1,0-17.527-1.593c0,.093.011.183.014.275a4.373,4.373,0,0,0-1.487-.275,4.419,4.419,0,1,0,0,8.839H76.306a3.683,3.683,0,1,0,0-7.366Z" transform="translate(-15.161 -25.269)" fill="#fff"/>
    <path id="Trazado_107689" data-name="Trazado 107689" d="M73.779,80.624H53.892A5.892,5.892,0,1,1,54,68.84a10.312,10.312,0,0,1,20.519,1.472v.052a5.156,5.156,0,0,1-.737,10.26ZM53.892,71.785a2.946,2.946,0,1,0,0,5.892H73.779a2.21,2.21,0,1,0,0-4.419,2.254,2.254,0,0,0-.535.076,1.473,1.473,0,0,1-1.8-1.7,7.363,7.363,0,1,0-14.6-1.326c0,.02.013.208.014.229a1.472,1.472,0,0,1-1.967,1.433A2.953,2.953,0,0,0,53.892,71.785Z" transform="translate(-12.634 -22.742)"/>
    <path id="Trazado_107690" data-name="Trazado 107690" d="M216.306,38.312a3.671,3.671,0,0,0-.887.12,8.836,8.836,0,1,0-17.527-1.593c0,.093.011.183.014.275a4.373,4.373,0,0,0-1.487-.275,4.419,4.419,0,1,0,0,8.839h19.887a3.683,3.683,0,0,0,0-7.366Z" transform="translate(-103.603 -2.527)" fill="#fff"/>
    <g id="Grupo_84178" data-name="Grupo 84178" transform="translate(28 24)">
      <path id="Trazado_107691" data-name="Trazado 107691" d="M213.779,44.624H193.892A5.892,5.892,0,1,1,194,32.84a10.312,10.312,0,0,1,20.519,1.472v.052a5.156,5.156,0,0,1-.737,10.26Zm-19.887-8.839a2.946,2.946,0,0,0,0,5.892h19.887a2.21,2.21,0,0,0,0-4.419,2.254,2.254,0,0,0-.535.076,1.473,1.473,0,0,1-1.8-1.7,7.363,7.363,0,1,0-14.6-1.326c0,.02.013.208.014.229a1.472,1.472,0,0,1-1.967,1.433A2.953,2.953,0,0,0,193.892,35.785Z" transform="translate(-129.076 -24)"/>
      <path id="Trazado_107692" data-name="Trazado 107692" d="M33.157,142.312h-.011A5.156,5.156,0,0,1,33.154,132h.011a5.156,5.156,0,0,1-.008,10.312Zm0-7.366a2.21,2.21,0,0,0-2.208,2.205,2.213,2.213,0,0,0,2.206,2.214h.005a2.21,2.21,0,0,0,2.208-2.205,2.213,2.213,0,0,0-2.206-2.214Z" transform="translate(-28 -92.226)"/>
      <path id="Trazado_107693" data-name="Trazado 107693" d="M145.157,254.312h-.011A5.156,5.156,0,0,1,145.154,244h.011a5.156,5.156,0,0,1-.008,10.312Zm0-7.366a2.21,2.21,0,0,0-2.208,2.205,2.213,2.213,0,0,0,2.206,2.214h.005a2.21,2.21,0,0,0,2.208-2.205,2.213,2.213,0,0,0-2.206-2.214Z" transform="translate(-98.753 -162.979)"/>
      <circle id="Elipse_7475" data-name="Elipse 7475" cx="1.668" cy="1.668" r="1.668" transform="translate(5.028 9.371)"/>
      <circle id="Elipse_7476" data-name="Elipse 7476" cx="1.668" cy="1.668" r="1.668" transform="translate(59.533 80.08)" fill="#4c241d"/>
      <circle id="Elipse_7477" data-name="Elipse 7477" cx="1.668" cy="1.668" r="1.668" transform="translate(81.629 57.984)"/>
      <circle id="Elipse_7478" data-name="Elipse 7478" cx="1.668" cy="1.668" r="1.668" transform="translate(10.92 59.457)" fill="#4c241d"/>
      <path id="Trazado_107694" data-name="Trazado 107694" d="M234.286,246.9a1.473,1.473,0,0,1-1.04-2.516l5.422-5.4a1.473,1.473,0,1,1,2.08,2.086l-5.422,5.4A1.472,1.472,0,0,1,234.286,246.9Z" transform="translate(-157.385 -159.534)"/>
      <path id="Trazado_107695" data-name="Trazado 107695" d="M239.715,246.891a1.468,1.468,0,0,1-1.044-.433l-5.4-5.422a1.473,1.473,0,0,1,2.087-2.08l5.4,5.422a1.474,1.474,0,0,1-1.044,2.513Z" transform="translate(-157.402 -159.519)"/>
    </g>
  </g>
</svg>
