<svg xmlns="http://www.w3.org/2000/svg" width="89.17" height="100" viewBox="0 0 89.17 100">
  <g id="pasajero" transform="translate(-27.725 0)">
    <path id="Trazado_101988" data-name="Trazado 101988" d="M221.948,424.791H191.819l7.806-18.74h14.518Z" transform="translate(-132.044 -326.744)" fill="#afafaf"/>
    <path id="Trazado_101989" data-name="Trazado 101989" d="M178.43,87.358H138.755a7.1,7.1,0,0,1-7.123-7.123,6.987,6.987,0,0,1,6.985-6.851h27.766a7.812,7.812,0,0,0,7.65-6.227l10.689-51.582A6.987,6.987,0,1,1,198.4,18.411L185.271,81.789A6.987,6.987,0,0,1,178.43,87.358Z" transform="translate(-83.611 -8.051)" fill="#d8ccff"/>
    <path id="Trazado_101990" data-name="Trazado 101990" d="M95.24,117.092a10.48,10.48,0,0,0-12.388,8.135l-1.709,8.516h0l-4.649,4.676H60.436a4.367,4.367,0,0,0-4.367,4.367h0a4.367,4.367,0,0,0,4.367,4.367H53.013a6.114,6.114,0,0,0-5.916,4.572l-9.239,35.462a3.919,3.919,0,0,0,3.792,4.907h4.536a3.918,3.918,0,0,0,3.792-2.931l7.76-29.783H90.821a7.812,7.812,0,0,0,7.65-6.228l4.9-23.67A10.479,10.479,0,0,0,95.24,117.092Z" transform="translate(-8.05 -94.046)" fill="#ffb74d"/>
    <path id="Trazado_101991" data-name="Trazado 101991" d="M299.325,12.375h0a9.347,9.347,0,0,0-9.347,9.347v1.7a9.347,9.347,0,0,0,9.347,9.347h0a9.347,9.347,0,0,0,9.347-9.347v-1.7A9.347,9.347,0,0,0,299.325,12.375Z" transform="translate(-211.031 -9.958)" fill="#feda9b"/>
    <path id="Trazado_101992" data-name="Trazado 101992" d="M428.259,222.583a1.954,1.954,0,1,0,1.381.572A1.963,1.963,0,0,0,428.259,222.583Z" transform="translate(-320.731 -179.11)"/>
    <path id="Trazado_101993" data-name="Trazado 101993" d="M115.425,4.035A8.94,8.94,0,0,0,99.2,7.128l-.208,1a11.3,11.3,0,0,0-22,3.632v1.7a11.268,11.268,0,0,0,3.587,8.247,12.534,12.534,0,0,0-2.341,1.205A12.36,12.36,0,0,0,72.886,30.8l-1.594,7.939L67.631,42.42H52.386a6.318,6.318,0,0,0-5.84,8.733H44.963a8.068,8.068,0,0,0-7.806,6.033l-2.305,8.847a1.953,1.953,0,1,0,3.78.985l2.305-8.847a4.162,4.162,0,0,1,4.026-3.112H73.574a1.952,1.952,0,0,0,1.388-.579l9.887-9.989a1.953,1.953,0,0,0-2.776-2.748l-9.314,9.41H52.386a2.413,2.413,0,0,1,0-4.827H68.443a1.954,1.954,0,0,0,1.385-.576l11.18-11.244a1.953,1.953,0,1,0-2.77-2.754l-1.954,1.965.429-2.138a8.527,8.527,0,1,1,16.7,3.46c0,.015,0,.029-.007.044L88.51,58.71a5.883,5.883,0,0,1-5.738,4.67H55.006a8.99,8.99,0,0,0-8.888,8.006,1.958,1.958,0,0,0-.1.276L40.038,94.623a1.966,1.966,0,0,1-1.9,1.47H33.6a1.966,1.966,0,0,1-1.9-2.461l3.262-12.52a1.953,1.953,0,1,0-3.78-.985l-3.262,12.52A5.872,5.872,0,0,0,33.6,100h4.536a5.873,5.873,0,0,0,5.682-4.391l4.53-17.389c.09.1.181.2.275.295a9.193,9.193,0,0,0,6.52,2.745h9.507L57.972,97.3a1.953,1.953,0,0,0,1.8,2.7H89.9a1.953,1.953,0,0,0,1.8-2.7L85.028,81.26h9.791a8.975,8.975,0,0,0,8.754-7.126L107.848,53.5a1.953,1.953,0,1,0-3.825-.793L99.747,73.342a5.053,5.053,0,0,1-4.929,4.012H55.144a5.262,5.262,0,0,1-3.732-1.575,4.921,4.921,0,0,1-1.439-3.558,5.058,5.058,0,0,1,5.033-4.935H82.772A9.8,9.8,0,0,0,92.335,59.5L103.024,7.921a5.033,5.033,0,1,1,9.857,2.043l-5.8,28a1.953,1.953,0,0,0,3.825.793l5.8-28A8.881,8.881,0,0,0,115.425,4.035ZM80.8,81.259l6.179,14.834H62.7l6.179-14.834Zm.1-69.5a7.394,7.394,0,0,1,14.787,0v1.7a7.394,7.394,0,0,1-14.787,0ZM93,23.732a11.347,11.347,0,0,0,3.219-2.224l-.97,4.678A12.451,12.451,0,0,0,93,23.732Z" transform="translate(0 0)"/>
    <path id="Trazado_101994" data-name="Trazado 101994" d="M56.83,369.117a1.954,1.954,0,1,0-1.381-.572A1.964,1.964,0,0,0,56.83,369.117Z" transform="translate(-21.849 -293.881)"/>
  </g>
</svg>
