<svg xmlns="http://www.w3.org/2000/svg" xmlns:xlink="http://www.w3.org/1999/xlink" width="259.677" height="263.247" viewBox="0 0 259.677 263.247">
  <defs>
    <linearGradient id="linear-gradient" x1="14.565" y1="-20.583" x2="12.652" y2="-16.112" gradientUnits="objectBoundingBox">
      <stop offset="0" stop-color="#09005d"/>
      <stop offset="1" stop-color="#1a0f91"/>
    </linearGradient>
    <linearGradient id="linear-gradient-2" x1="14.336" y1="-20.056" x2="12.422" y2="-15.585" xlink:href="#linear-gradient"/>
    <linearGradient id="linear-gradient-3" x1="14.02" y1="-19.329" x2="12.107" y2="-14.858" xlink:href="#linear-gradient"/>
    <linearGradient id="linear-gradient-4" x1="13.762" y1="-18.735" x2="11.849" y2="-14.264" xlink:href="#linear-gradient"/>
    <linearGradient id="linear-gradient-5" x1="13.475" y1="-18.075" x2="11.562" y2="-13.604" xlink:href="#linear-gradient"/>
    <linearGradient id="linear-gradient-6" x1="13.203" y1="-17.449" x2="11.29" y2="-12.978" xlink:href="#linear-gradient"/>
    <linearGradient id="linear-gradient-7" x1="12.887" y1="-16.722" x2="10.974" y2="-12.251" xlink:href="#linear-gradient"/>
    <linearGradient id="linear-gradient-8" x1="12.673" y1="-16.228" x2="10.759" y2="-11.757" xlink:href="#linear-gradient"/>
    <linearGradient id="linear-gradient-9" x1="12.4" y1="-15.601" x2="10.487" y2="-11.13" xlink:href="#linear-gradient"/>
    <linearGradient id="linear-gradient-10" x1="12.085" y1="-14.874" x2="10.171" y2="-10.403" xlink:href="#linear-gradient"/>
    <linearGradient id="linear-gradient-11" x1="11.87" y1="-14.38" x2="9.956" y2="-9.91" xlink:href="#linear-gradient"/>
    <linearGradient id="linear-gradient-12" x1="2.467" y1="-7.624" x2="2.11" y2="-4.83" xlink:href="#linear-gradient"/>
    <linearGradient id="linear-gradient-13" x1="11.46" y1="1.601" x2="11.992" y2="2.72" gradientUnits="objectBoundingBox">
      <stop offset="0" stop-color="#febbba"/>
      <stop offset="1" stop-color="#ff928e"/>
    </linearGradient>
    <linearGradient id="linear-gradient-14" x1="35.82" y1="1.602" x2="36.854" y2="-1.187" xlink:href="#linear-gradient-13"/>
    <linearGradient id="linear-gradient-15" x1="18.223" y1="1.698" x2="18.687" y2="-1.193" xlink:href="#linear-gradient-13"/>
    <linearGradient id="linear-gradient-16" x1="46.325" y1="1.857" x2="46.58" y2="0.807" xlink:href="#linear-gradient-13"/>
    <linearGradient id="linear-gradient-17" x1="29.156" y1="0.5" x2="30.156" y2="0.5" xlink:href="#linear-gradient-13"/>
    <linearGradient id="linear-gradient-18" x1="30.036" y1="1.328" x2="31.497" y2="-1.033" xlink:href="#linear-gradient-13"/>
    <linearGradient id="linear-gradient-19" x1="110.578" y1="3.259" x2="115.894" y2="-4.349" xlink:href="#linear-gradient-13"/>
    <linearGradient id="linear-gradient-20" x1="29.726" y1="5.209" x2="31.238" y2="8.334" xlink:href="#linear-gradient-13"/>
    <linearGradient id="linear-gradient-21" x1="76.278" y1="8.013" x2="77.105" y2="8.013" xlink:href="#linear-gradient-13"/>
  </defs>
  <g id="Grupo_83476" data-name="Grupo 83476" transform="translate(1876.499 -1097.247)">
    <path id="Trazado_106135" data-name="Trazado 106135" d="M-1644.925,1359.11a93.388,93.388,0,0,1-14.292,12.017c-46.622,33.408-101.788,23.67-113.513,21.291-17.313-3.512-50.779-10.3-74.975-38.716-36.606-42.991-30.906-110.722-2.512-155.432,5.194-8.178,32.628-53.569,88.389-60.849,33.746-4.405,73.082,4.48,101.569,28.314C-1600.464,1215.767-1604.72,1316.839-1644.925,1359.11Z" transform="translate(-2.855 -35.432)" fill="#ffebad"/>
    <g id="Grupo_83435" data-name="Grupo 83435" transform="translate(-1876.499 1097.247)">
      <path id="Trazado_106221" data-name="Trazado 106221" d="M115.7,0c63.9,0,115.7,55.913,115.7,124.885S179.6,249.769,115.7,249.769,0,193.856,0,124.885,51.8,0,115.7,0Z" transform="matrix(0.044, -0.999, 0.999, 0.044, 0, 231.173)" fill="#ffdc72"/>
      <g id="Grupo_83433" data-name="Grupo 83433" transform="translate(25.084 20.142)" opacity="0.24">
        <ellipse id="Elipse_7138" data-name="Elipse 7138" cx="97.996" cy="92.575" rx="97.996" ry="92.575" fill="#ffebad"/>
      </g>
      <g id="Grupo_83434" data-name="Grupo 83434" transform="translate(16.238 8.332)">
        <path id="Trazado_106136" data-name="Trazado 106136" d="M-767.544,1305.778c-.01,10.209-.383,20.419-1.177,30.6-.813,10.178-2.057,20.327-3.863,30.384-.913,5.026-1.971,10.028-3.232,14.983a144.392,144.392,0,0,1-4.51,14.664,69.538,69.538,0,0,1-6.727,13.825,27.654,27.654,0,0,1-5.052,5.887,14.425,14.425,0,0,1-3.311,2.132,9.933,9.933,0,0,1-3.871.91,9.774,9.774,0,0,1-3.913-.718,13.542,13.542,0,0,1-3.389-2.015,26.245,26.245,0,0,1-5.162-5.8,67.289,67.289,0,0,1-6.824-13.777,141.154,141.154,0,0,1-4.557-14.649c-1.273-4.952-2.342-9.952-3.262-14.976-1.837-10.051-3.092-20.2-3.94-30.375s-1.266-20.388-1.323-30.6c-.027-5.105.12-10.209.3-15.31s.479-10.2.858-15.289c.762-10.18,1.9-20.337,3.579-30.411.844-5.036,1.829-10.05,3.012-15.02a144.449,144.449,0,0,1,4.273-14.72,66.658,66.658,0,0,1,6.539-13.875,25.2,25.2,0,0,1,5.047-5.827,12.887,12.887,0,0,1,3.339-2,9.424,9.424,0,0,1,3.84-.68,10.194,10.194,0,0,1,3.794.887,14.806,14.806,0,0,1,3.3,2.054,28.091,28.091,0,0,1,5.155,5.726,68.935,68.935,0,0,1,7.069,13.611,139.649,139.649,0,0,1,4.847,14.542c1.366,4.924,2.522,9.9,3.524,14.911a289.594,289.594,0,0,1,4.284,30.324C-768,1285.356-767.571,1295.567-767.544,1305.778Zm-1.691,0c.021-10.165-.363-20.333-1.2-30.463a293.649,293.649,0,0,0-3.958-30.221c-.935-4.994-2.025-9.96-3.323-14.871a138.693,138.693,0,0,0-4.637-14.5,68.194,68.194,0,0,0-6.822-13.543,27.479,27.479,0,0,0-4.967-5.659,14.258,14.258,0,0,0-3.145-2.016,9.4,9.4,0,0,0-3.59-.878,8.81,8.81,0,0,0-3.621.684,12.33,12.33,0,0,0-3.169,1.95,24.593,24.593,0,0,0-4.846,5.741,65.921,65.921,0,0,0-6.291,13.79,143.485,143.485,0,0,0-4.065,14.672c-1.116,4.956-2.034,9.957-2.814,14.979a392.9,392.9,0,0,0-4.028,60.81q-.048,15.247,1.054,30.47c.757,10.136,1.918,20.246,3.659,30.257.872,5,1.892,9.983,3.113,14.911a139.946,139.946,0,0,0,4.392,14.561,66.259,66.259,0,0,0,6.591,13.61,25.288,25.288,0,0,0,4.913,5.621,12.617,12.617,0,0,0,3.138,1.906,8.636,8.636,0,0,0,3.544.675,9.016,9.016,0,0,0,3.509-.861,13.485,13.485,0,0,0,3.074-2.021,26.684,26.684,0,0,0,4.813-5.718,68.491,68.491,0,0,0,6.493-13.662,143.192,143.192,0,0,0,4.34-14.577c1.208-4.931,2.215-9.912,3.078-14.917,1.73-10.013,2.877-20.125,3.641-30.26S-769.23,1315.946-769.235,1305.778Z" transform="translate(913.138 -1192.487)" fill="#fff" style="mix-blend-mode: soft-light;isolation: isolate"/>
        <path id="Trazado_106137" data-name="Trazado 106137" d="M-1278.956,1299.623a148.855,148.855,0,0,1-5.288,38.986,125.476,125.476,0,0,1-16.329,35.742,94.788,94.788,0,0,1-27.808,27.588,73.929,73.929,0,0,1-17.9,8.178,67.677,67.677,0,0,1-19.453,2.9,67.7,67.7,0,0,1-19.459-2.876,73.956,73.956,0,0,1-17.911-8.164,94.861,94.861,0,0,1-27.859-27.574,125.682,125.682,0,0,1-16.377-35.757,141.442,141.442,0,0,1-3.966-19.331,154.776,154.776,0,0,1-1.335-19.688,154.765,154.765,0,0,1,1.349-19.686,141.349,141.349,0,0,1,3.981-19.325,125.628,125.628,0,0,1,16.4-35.73,94.71,94.71,0,0,1,27.855-27.53,74.294,74.294,0,0,1,17.9-8.13,67.6,67.6,0,0,1,19.425-2.89,67.574,67.574,0,0,1,19.419,2.908,74.228,74.228,0,0,1,17.88,8.146,94.641,94.641,0,0,1,27.8,27.545,125.418,125.418,0,0,1,16.354,35.715A148.845,148.845,0,0,1-1278.956,1299.623Zm-1.938,0a147.011,147.011,0,0,0-5.051-38.513,124.853,124.853,0,0,0-15.75-35.469,101.725,101.725,0,0,0-12.151-15.2,84.913,84.913,0,0,0-15.036-12.343,72.642,72.642,0,0,0-17.641-8.161,66.865,66.865,0,0,0-19.208-2.909,66.854,66.854,0,0,0-19.2,2.927,72.587,72.587,0,0,0-17.625,8.177,84.842,84.842,0,0,0-15.012,12.353,101.657,101.657,0,0,0-12.124,15.2,124.64,124.64,0,0,0-15.7,35.454,142.535,142.535,0,0,0-3.773,19.075,152.575,152.575,0,0,0-1.265,19.4,152.571,152.571,0,0,0,1.279,19.4,142.465,142.465,0,0,0,3.788,19.069,124.6,124.6,0,0,0,15.727,35.426,101.592,101.592,0,0,0,12.126,15.184,84.5,84.5,0,0,0,15.007,12.329,72.9,72.9,0,0,0,17.609,8.144,66.743,66.743,0,0,0,19.169,2.941,66.753,66.753,0,0,0,19.174-2.922,72.942,72.942,0,0,0,17.625-8.129,84.618,84.618,0,0,0,15.031-12.318,101.668,101.668,0,0,0,12.153-15.18,124.8,124.8,0,0,0,15.774-35.441A147,147,0,0,0-1280.895,1299.623Z" transform="translate(1476.042 -1186.332)" fill="#fff" style="mix-blend-mode: soft-light;isolation: isolate"/>
        <path id="Trazado_106138" data-name="Trazado 106138" d="M-1606.028,1913.376l26.029-.235,26.029-.133c8.676-.057,17.352-.051,26.029-.068l26.029-.039,52.057.118,26.029.146,26.028.254a.085.085,0,0,1,.085.086.086.086,0,0,1-.085.085l-26.028.254-26.029.146-52.057.119-26.029-.04c-8.676-.017-17.352-.011-26.029-.068l-26.029-.133-26.029-.235a.127.127,0,0,1-.126-.129A.128.128,0,0,1-1606.028,1913.376Z" transform="translate(1615.199 -1844.949)" fill="#fff" style="mix-blend-mode: soft-light;isolation: isolate"/>
        <path id="Trazado_106139" data-name="Trazado 106139" d="M-1283.144,1447.232c6.16-.109,12.32-.156,18.48-.236l18.479-.133c6.16-.057,12.32-.051,18.479-.068l18.479-.039,18.479.045c6.16.027,12.32.012,18.479.074l18.48.146c6.16.087,12.319.137,18.479.254a.086.086,0,0,1,.084.087.086.086,0,0,1-.084.084c-6.16.117-12.32.168-18.479.254l-18.48.146c-6.16.061-12.32.047-18.479.074l-18.479.045-18.479-.039c-6.16-.018-12.32-.012-18.479-.068l-18.479-.134c-6.16-.079-12.32-.126-18.48-.235a.128.128,0,0,1-.125-.13A.128.128,0,0,1-1283.144,1447.232Z" transform="translate(1322.512 -1422.4)" fill="#fff" style="mix-blend-mode: soft-light;isolation: isolate"/>
        <path id="Trazado_106140" data-name="Trazado 106140" d="M-1702.745,2379.522l28.29-.235,28.29-.134,56.58-.107,56.58.118,28.29.146,28.29.254a.086.086,0,0,1,.085.086.086.086,0,0,1-.085.084l-28.29.254-28.29.146-56.58.118-56.58-.108-28.29-.133-28.29-.236a.127.127,0,0,1-.126-.128A.128.128,0,0,1-1702.745,2379.522Z" transform="translate(1702.871 -2267.499)" fill="#fff" style="mix-blend-mode: soft-light;isolation: isolate"/>
        <path id="Trazado_106141" data-name="Trazado 106141" d="M-1606.028,2845.669l26.029-.235,26.029-.134c8.676-.057,17.352-.051,26.029-.068l26.029-.039,52.057.118,26.029.146,26.028.254a.086.086,0,0,1,.085.086.086.086,0,0,1-.085.085l-26.028.254-26.029.146-52.057.118-26.029-.039c-8.676-.018-17.352-.012-26.029-.068l-26.029-.133-26.029-.235a.128.128,0,0,1-.126-.129A.128.128,0,0,1-1606.028,2845.669Z" transform="translate(1615.199 -2690.051)" fill="#fff" style="mix-blend-mode: soft-light;isolation: isolate"/>
        <path id="Trazado_106142" data-name="Trazado 106142" d="M-1098.6,3313.909h-147.836a.447.447,0,0,1-.447-.447.447.447,0,0,1,.447-.447H-1098.6a.447.447,0,0,1,.447.447A.447.447,0,0,1-1098.6,3313.909Z" transform="translate(1289.529 -3114.121)" fill="#fff" style="mix-blend-mode: soft-light;isolation: isolate"/>
      </g>
    </g>
    <g id="Grupo_83437" data-name="Grupo 83437" transform="translate(-1807.369 1116.009)">
      <g id="Grupo_83436" data-name="Grupo 83436" transform="translate(0 0)">
        <path id="Trazado_106143" data-name="Trazado 106143" d="M-995.8,1526.78a8.757,8.757,0,0,1-8.922,8.428l-117.986.257a8.922,8.922,0,0,1-9.114-8.423l-5.5-219.756a9.132,9.132,0,0,1,9.215-9.426l125.24.6a9.346,9.346,0,0,1,9.282,9.474Z" transform="translate(1137.326 -1297.861)" fill="#3a2c69"/>
        <path id="Trazado_106144" data-name="Trazado 106144" d="M-878.941,1448.344a9.159,9.159,0,0,0-9.2-9.141l-99.4-.437a8.947,8.947,0,0,0-9.126,9.092l4.086,186.845c.1,4.576,4.148,8.272,9.039,8.265l94.436-.15a8.628,8.628,0,0,0,8.863-8.266Z" transform="translate(1009.829 -1425.588)" fill="#d8ccff"/>
        <path id="Trazado_106145" data-name="Trazado 106145" d="M-492.45,1349.052a1.744,1.744,0,0,1-1.75,1.756l-25.869-.117a1.8,1.8,0,0,1-1.78-1.774h0a1.729,1.729,0,0,1,1.739-1.76l25.9.121a1.777,1.777,0,0,1,1.761,1.774Z" transform="translate(579.411 -1342.546)" fill="#d8ccff" opacity="0.52"/>
      </g>
    </g>
    <g id="Grupo_83451" data-name="Grupo 83451" transform="translate(-1807.432 1307.646)">
      <g id="Grupo_83439" data-name="Grupo 83439" transform="translate(18.992 0)">
        <g id="Grupo_83438" data-name="Grupo 83438" transform="translate(1.557)">
          <path id="Trazado_106146" data-name="Trazado 106146" d="M-903.043,3346.94h-10.164c-2.675,0-5.069,1.734-5.069,4.409v5.865h2.8v-5.865a2.161,2.161,0,0,1,2.267-2.23h10.164a2.109,2.109,0,0,1,2.2,2.23v5.865h2.8v-5.865C-898.038,3348.674-900.368,3346.94-903.043,3346.94Z" transform="translate(918.276 -3346.94)" fill="#5038a1"/>
        </g>
        <path id="Trazado_106147" data-name="Trazado 106147" d="M-929.006,3431.162v.04c0,.585-.422,1.456-.965,1.456h-3.887c-.544,0-1.063-.871-1.063-1.456v-.04a1.034,1.034,0,0,1,1.063-.995h3.887A.952.952,0,0,1-929.006,3431.162Z" transform="translate(934.922 -3422.383)" fill="#5038a1"/>
        <path id="Trazado_106148" data-name="Trazado 106148" d="M-739.559,3431.162v.04c0,.585-.455,1.456-1,1.456h-3.887c-.544,0-.719-.871-.719-1.456v-.04c0-.585.175-.995.719-.995h3.887A.979.979,0,0,1-739.559,3431.162Z" transform="translate(762.91 -3422.383)" fill="#5038a1"/>
      </g>
      <rect id="Rectángulo_31332" data-name="Rectángulo 31332" width="59.779" height="42.343" rx="21.172" transform="translate(0 9.029)" fill="#debc56"/>
      <path id="Trazado_106149" data-name="Trazado 106149" d="M-1062.277,3468.737a6.483,6.483,0,0,0-6.69-6.315H-1111.8a6.483,6.483,0,0,0-6.69,6.315v25.177a6.546,6.546,0,0,0,6.69,6.392h42.831a6.546,6.546,0,0,0,6.69-6.392Z" transform="translate(1120.313 -3451.622)" fill="#ce8d2e"/>
      <g id="Grupo_83446" data-name="Grupo 83446" transform="translate(6.85 7.472)">
        <g id="Grupo_83442" data-name="Grupo 83442">
          <path id="Trazado_106150" data-name="Trazado 106150" d="M-1038.866,3469.788a2.356,2.356,0,0,1-2.029,2.2h-2a2.227,2.227,0,0,1-1.885-2.2v-41.513c0-1,.864-1.437,1.885-1.437h2c1.021,0,2.029.44,2.029,1.437Z" transform="translate(1046.65 -3426.838)" fill="#5038a1"/>
          <g id="Grupo_83440" data-name="Grupo 83440" transform="translate(0 7.472)">
            <path id="Trazado_106151" data-name="Trazado 106151" d="M-1057.824,3514.208h-4.125c-1.424,0-2.807-1.831-2.807-3.14v-2.541c0-1.256,1.308-1.791,2.807-1.791h4.125c1.415,0,2.408.494,2.408,1.791v2.541C-1055.416,3512.423-1056.477,3514.208-1057.824,3514.208Zm-4.125-6.538c-.781,0-1.25.311-1.25.857v2.541c0,.555.452.961,1.25.961h4.125c.747,0,1.163-.371,1.163-.961v-2.541c0-.612-.428-.857-1.163-.857Z" transform="translate(1064.756 -3506.736)" fill="#d8ccff"/>
          </g>
          <g id="Grupo_83441" data-name="Grupo 83441" transform="translate(2.802 11.52)">
            <rect id="Rectángulo_31333" data-name="Rectángulo 31333" width="1.245" height="4.359" rx="0.623" fill="#d8ccff"/>
            <rect id="Rectángulo_31334" data-name="Rectángulo 31334" width="1.245" height="4.359" rx="0.623" transform="translate(2.802)" fill="#d8ccff"/>
          </g>
        </g>
        <g id="Grupo_83445" data-name="Grupo 83445" transform="translate(36.428)">
          <path id="Trazado_106152" data-name="Trazado 106152" d="M-646.656,3469.788c0,1-.471,2.2-1.492,2.2h-2c-1.021,0-1.8-1.2-1.8-2.2v-41.513c0-1,.778-1.437,1.8-1.437h2c1.021,0,1.492.44,1.492,1.437v41.513Z" transform="translate(654.128 -3426.838)" fill="#5038a1"/>
          <g id="Grupo_83443" data-name="Grupo 83443" transform="translate(0 7.472)">
            <path id="Trazado_106153" data-name="Trazado 106153" d="M-668.095,3514.208h-4.125a3.647,3.647,0,0,1-3.032-3.14v-2.541c0-1.256,1.533-1.791,3.032-1.791h4.125c1.415,0,2.495.494,2.495,1.791v2.541C-665.6,3512.423-666.748,3514.208-668.095,3514.208Zm-4.125-6.538c-.781,0-1.475.311-1.475.857v2.541c0,.555.677.961,1.475.961h4.125c.747,0,1.56-.371,1.56-.961v-2.541c0-.612-.825-.857-1.56-.857Z" transform="translate(675.252 -3506.736)" fill="#d8ccff"/>
          </g>
          <g id="Grupo_83444" data-name="Grupo 83444" transform="translate(3.113 11.52)">
            <rect id="Rectángulo_31335" data-name="Rectángulo 31335" width="1.245" height="4.359" rx="0.623" fill="#d8ccff"/>
            <rect id="Rectángulo_31336" data-name="Rectángulo 31336" width="1.245" height="4.359" rx="0.623" transform="translate(2.802)" fill="#d8ccff"/>
          </g>
        </g>
      </g>
      <g id="Grupo_83447" data-name="Grupo 83447" transform="translate(1.245 39.06)" style="mix-blend-mode: soft-light;isolation: isolate">
        <path id="Trazado_106154" data-name="Trazado 106154" d="M-1121.194,3774.056c-.034,0,.027-.008-.006-.024a6.24,6.24,0,0,1-3.48-5.723v-3.491c0-.128.028-.231.156-.231s.156.1.156.231v3.491a5.849,5.849,0,0,0,3.3,5.308.227.227,0,0,1,.1.309A.246.246,0,0,1-1121.194,3774.056Z" transform="translate(1124.68 -3764.588)" fill="#fff"/>
      </g>
      <g id="Grupo_83450" data-name="Grupo 83450" transform="translate(58.222 19.039)" style="mix-blend-mode: soft-light;isolation: isolate">
        <g id="Grupo_83448" data-name="Grupo 83448" transform="translate(0 9.548)">
          <path id="Trazado_106155" data-name="Trazado 106155" d="M-515.145,3666.165c-.128,0-.311-.1-.311-.231v-13.09c0-.127.184-.231.311-.231s.311.1.311.231v13.09C-514.833,3666.062-515.017,3666.165-515.145,3666.165Z" transform="translate(515.456 -3652.613)" fill="#fff"/>
        </g>
        <g id="Grupo_83449" data-name="Grupo 83449">
          <path id="Trazado_106156" data-name="Trazado 106156" d="M-515.145,3556.987c-.128,0-.311-.1-.311-.231v-6.006c0-.127.184-.231.311-.231s.311.1.311.231v6.006C-514.833,3556.884-515.017,3556.987-515.145,3556.987Z" transform="translate(515.456 -3550.519)" fill="#fff"/>
        </g>
      </g>
    </g>
    <g id="Grupo_83455" data-name="Grupo 83455" transform="translate(-1875.822 1124.07)">
      <g id="Grupo_83454" data-name="Grupo 83454" transform="translate(0)">
        <path id="Trazado_106157" data-name="Trazado 106157" d="M-1103.718,1547.228l-10.16-6.305a.962.962,0,0,0-.7-.125l-13.222,2.7a.963.963,0,0,0-.737.691.963.963,0,0,0,.285.969l7.917,7.125Z" transform="translate(1197.842 -1526.12)" fill="#d8ccff"/>
        <path id="Trazado_106158" data-name="Trazado 106158" d="M-1860.475,1535.414s123.225-22,128.031-20.463,13.4,6.646,15.932,6.657,11.394,1.57,9.086,7.894-104.493,25.634-116.382,21.528-42-11.839-42-11.839S-1868.58,1534.871-1860.475,1535.414Z" transform="translate(1866.547 -1502.638)" fill="#fff"/>
        <path id="Trazado_106159" data-name="Trazado 106159" d="M-1827.513,1410.911l-17.718-9.872a6.8,6.8,0,0,1-2.641-2.651l-7.157-12.957a2.672,2.672,0,0,0-2.887-1.323c-3.675.773-11.3,2.48-11.337,3.345-.049,1.14,3.648,29.761,3.648,29.761Z" transform="translate(1869.252 -1384.051)" fill="#d8ccff"/>
        <path id="Trazado_106160" data-name="Trazado 106160" d="M-1807.367,1743.257l-1.481,6.033a3.336,3.336,0,0,0,.626,2.88,3.383,3.383,0,0,0,2.681,1.275l6.262.028a3.383,3.383,0,0,0,2.584-1.122l11.194-12.714Z" transform="translate(1814.586 -1706.381)" fill="#5038a1"/>
        <path id="Trazado_106161" data-name="Trazado 106161" d="M-1134.581,1845.59a13.869,13.869,0,0,0,9.955,4.7c6.175.027,13.783-1.649,15.218-3.828s4.545-18.307-8.005-16.039S-1144.626,1839.94-1134.581,1845.59Z" transform="translate(1206.315 -1788.478)" fill="#5038a1"/>
        <path id="Trazado_106162" data-name="Trazado 106162" d="M-1336.771,1767.178l29.284-5.053-24.681,31.5a2.008,2.008,0,0,1-1.42.763l-17.537,1.408a2.009,2.009,0,0,1-1.881-.965,2.008,2.008,0,0,1,.024-2.114Z" transform="translate(1401.548 -1726.766)" fill="#d8ccff"/>
        <path id="Trazado_106163" data-name="Trazado 106163" d="M-896.65,1866.279a.649.649,0,0,0,.22.01c.392-.051.785-.455,1.17-1.2,1.238-2.4,2.035-7.557-.069-11.484h0a3.807,3.807,0,0,0-3.1-2.008,2.544,2.544,0,0,0-2.9,2.191c-.693,3.057,2.222,10.115,3.879,11.938A1.638,1.638,0,0,0-896.65,1866.279Zm-1.37-14.09a3.319,3.319,0,0,1,2.221,1.665h0c1.991,3.716,1.215,8.753.065,10.988-.333.648-.62.9-.764.918-.019,0-.184.01-.554-.4-1.724-1.9-4.366-8.76-3.753-11.461a2.016,2.016,0,0,1,2.343-1.776A3.194,3.194,0,0,1-898.02,1852.189Z" transform="translate(991.945 -1807.858)" fill="#d8ccff"/>
        <path id="Trazado_106164" data-name="Trazado 106164" d="M-1861.912,1493.035l3.04.013,2.765,19.42-3.2.733Z" transform="translate(1862.599 -1482.842)" fill="#5038a1"/>
        <g id="Grupo_83453" data-name="Grupo 83453" transform="translate(50.55 16.157)">
          <g id="Grupo_83452" data-name="Grupo 83452" transform="translate(0 5.418)">
            <path id="Trazado_106165" data-name="Trazado 106165" d="M-1328.744,1727.489a1.811,1.811,0,0,1,1.819-1.8h.115a1.811,1.811,0,0,1,1.8,1.819l-.005,1.183a1.811,1.811,0,0,1-1.819,1.8h-.115a1.811,1.811,0,0,1-1.8-1.819Z" transform="translate(1328.749 -1715.31)" fill="url(#linear-gradient)"/>
            <path id="Trazado_106166" data-name="Trazado 106166" d="M-1254.515,1722.108a1.811,1.811,0,0,1,1.819-1.8h.115a1.811,1.811,0,0,1,1.8,1.819l-.005,1.183a1.811,1.811,0,0,1-1.819,1.8h-.115a1.811,1.811,0,0,1-1.8-1.819Z" transform="translate(1261.462 -1710.433)" fill="url(#linear-gradient-2)"/>
            <path id="Trazado_106167" data-name="Trazado 106167" d="M-1180.236,1705.311a1.811,1.811,0,0,1,1.819-1.8h.115a1.811,1.811,0,0,1,1.8,1.819l-.005,1.183a1.811,1.811,0,0,1-1.819,1.8h-.115a1.811,1.811,0,0,1-1.8-1.819Z" transform="translate(1194.13 -1695.207)" fill="url(#linear-gradient-3)"/>
            <path id="Trazado_106168" data-name="Trazado 106168" d="M-1111.69,1694.2a1.811,1.811,0,0,1,1.819-1.8h.115a1.811,1.811,0,0,1,1.8,1.819l-.005,1.183a1.811,1.811,0,0,1-1.819,1.8h-.115a1.811,1.811,0,0,1-1.8-1.819Z" transform="translate(1131.995 -1685.132)" fill="url(#linear-gradient-4)"/>
            <path id="Trazado_106169" data-name="Trazado 106169" d="M-1031.728,1683.133a1.811,1.811,0,0,1,1.819-1.8h.115a1.811,1.811,0,0,1,1.8,1.819l-.005,1.183a1.811,1.811,0,0,1-1.819,1.8h-.115a1.811,1.811,0,0,1-1.8-1.819Z" transform="translate(1059.511 -1675.103)" fill="url(#linear-gradient-5)"/>
            <path id="Trazado_106170" data-name="Trazado 106170" d="M-957.474,1672.045a1.811,1.811,0,0,1,1.819-1.8h.115a1.811,1.811,0,0,1,1.8,1.819l-.005,1.183a1.811,1.811,0,0,1-1.819,1.8h-.115a1.811,1.811,0,0,1-1.8-1.819Z" transform="translate(992.202 -1665.052)" fill="url(#linear-gradient-6)"/>
            <path id="Trazado_106171" data-name="Trazado 106171" d="M-883.195,1655.248a1.811,1.811,0,0,1,1.819-1.8h.115a1.811,1.811,0,0,1,1.8,1.819l-.005,1.183a1.811,1.811,0,0,1-1.819,1.8h-.115a1.811,1.811,0,0,1-1.8-1.819Z" transform="translate(924.87 -1649.826)" fill="url(#linear-gradient-7)"/>
            <path id="Trazado_106172" data-name="Trazado 106172" d="M-814.674,1649.842a1.811,1.811,0,0,1,1.819-1.8h.115a1.811,1.811,0,0,1,1.8,1.819l-.005,1.183a1.811,1.811,0,0,1-1.819,1.8h-.115a1.811,1.811,0,0,1-1.8-1.819Z" transform="translate(862.757 -1644.925)" fill="url(#linear-gradient-8)"/>
            <path id="Trazado_106173" data-name="Trazado 106173" d="M-740.42,1638.753a1.811,1.811,0,0,1,1.819-1.8h.115a1.811,1.811,0,0,1,1.8,1.819l-.005,1.183a1.811,1.811,0,0,1-1.819,1.8h-.115a1.811,1.811,0,0,1-1.8-1.819Z" transform="translate(795.447 -1634.873)" fill="url(#linear-gradient-9)"/>
            <path id="Trazado_106174" data-name="Trazado 106174" d="M-666.141,1621.957a1.811,1.811,0,0,1,1.819-1.8h.115a1.811,1.811,0,0,1,1.8,1.819l-.005,1.183a1.811,1.811,0,0,1-1.819,1.8h-.115a1.811,1.811,0,0,1-1.8-1.819Z" transform="translate(728.115 -1619.648)" fill="url(#linear-gradient-10)"/>
            <path id="Trazado_106175" data-name="Trazado 106175" d="M-597.62,1616.551a1.811,1.811,0,0,1,1.819-1.8h.115a1.811,1.811,0,0,1,1.8,1.819l-.005,1.183a1.811,1.811,0,0,1-1.819,1.8h-.115a1.811,1.811,0,0,1-1.8-1.819Z" transform="translate(666.002 -1614.748)" fill="url(#linear-gradient-11)"/>
          </g>
          <path id="Trazado_106176" data-name="Trazado 106176" d="M-475.8,1556.814l-12.191,3.328a1.971,1.971,0,0,0-1.444,2.065c.1,1.124.259,2.4.51,2.289.444-.188,19.554-4.952,19.554-4.952Z" transform="translate(567.937 -1556.814)" fill="url(#linear-gradient-12)"/>
        </g>
      </g>
    </g>
    <g id="Grupo_83458" data-name="Grupo 83458" transform="translate(-1697.305 1261.139)">
      <g id="Grupo_83456" data-name="Grupo 83456" transform="translate(0 0)">
        <path id="Trazado_106177" data-name="Trazado 106177" d="M40.862,2902.391a35.274,35.274,0,0,1,13.018-19.685A25.014,25.014,0,0,0,64,2866.87q.183-1.007.452-2.023c2.728-10.243,11.216-16.876,18.958-14.815s11.808,12.037,9.08,22.281a24.829,24.829,0,0,1-2.341,5.786,25.13,25.13,0,0,0-2.621,18.355,36.87,36.87,0,0,1-.328,18.275c-2.536,9.524-8.282,17.073-15.158,21.07a24.627,24.627,0,0,0-6.8,5.828c-3.133,3.89-7.712,5.873-12.059,4.715-4.689-1.249-7.8-5.8-8.26-11.27a26.278,26.278,0,0,0-2.45-8.912C39.356,2919.518,38.569,2911,40.862,2902.391Z" transform="translate(-39.54 -2849.657)" fill="#ffb74d"/>
        <path id="Trazado_106178" data-name="Trazado 106178" d="M191.489,2962.473c-2.814,6.5-5.417,13.087-7.952,19.7-.634,1.653-1.242,3.316-1.855,4.977l-.919,2.492-.9,2.5c-.592,1.669-1.208,3.329-1.781,5l-1.721,5.026c-1.1,3.365-2.237,6.72-3.279,10.106-.523,1.692-1.079,3.373-1.568,5.076l-1.49,5.1c-1.918,6.819-3.665,13.69-5.062,20.636l.3.063,1.243-5.157.308-1.29.34-1.282.685-2.562.68-2.563c.225-.854.482-1.7.721-2.552.49-1.7.967-3.4,1.468-5.1,2.048-6.769,4.186-13.51,6.463-20.207,1.164-3.34,2.3-6.689,3.487-10.021l.884-2.5.9-2.494c.6-1.663,1.2-3.326,1.823-4.983q1.814-4.986,3.7-9.945,1.864-4.968,3.8-9.909Z" transform="translate(-153.234 -2951.922)" fill="#fff" opacity="0.57"/>
      </g>
      <g id="Grupo_83457" data-name="Grupo 83457" transform="translate(16.791 43.198)">
        <path id="Trazado_106179" data-name="Trazado 106179" d="M228.227,3333.377A25.655,25.655,0,0,1,243.176,3325a18.2,18.2,0,0,0,11.8-6.854q.454-.589.966-1.155c5.173-5.7,12.852-7.161,17.15-3.261s3.59,11.684-1.583,17.385a18.073,18.073,0,0,1-3.437,2.955,18.289,18.289,0,0,0-7.81,10.968,26.828,26.828,0,0,1-6.306,11.678c-4.81,5.3-11.028,8.262-16.789,8.557a17.883,17.883,0,0,0-6.324,1.5c-3.315,1.469-6.925,1.227-9.339-.963-2.6-2.362-3.086-6.33-1.561-10.011a19.093,19.093,0,0,0,1.394-6.561A25.6,25.6,0,0,1,228.227,3333.377Z" transform="translate(-219.077 -3311.547)" fill="#ffdc72"/>
        <path id="Trazado_106180" data-name="Trazado 106180" d="M295.5,3385.167c-3.98,3.258-7.853,6.642-11.691,10.066-.96.856-1.906,1.727-2.854,2.594l-1.423,1.3-1.412,1.314c-.938.879-1.888,1.746-2.816,2.636l-2.784,2.67c-1.834,1.8-3.682,3.592-5.482,5.429-.9.917-1.82,1.817-2.7,2.753l-2.66,2.794c-3.51,3.762-6.926,7.613-10.142,11.63l.171.14,2.52-2.914.628-.729.647-.714,1.3-1.425,1.293-1.427c.43-.477.878-.937,1.315-1.406.882-.933,1.757-1.873,2.645-2.8q5.365-5.529,10.9-10.887c1.863-1.768,3.712-3.551,5.587-5.306l1.4-1.32,1.414-1.308c.942-.873,1.885-1.745,2.836-2.608q2.831-2.614,5.7-5.185t5.753-5.129Z" transform="translate(-248.492 -3378.282)" fill="#fff" opacity="0.57"/>
      </g>
    </g>
    <g id="Grupo_83461" data-name="Grupo 83461" transform="translate(-1780.985 1247.827)">
      <path id="Trazado_106181" data-name="Trazado 106181" d="M-768.728,2708.838l-63.424-1.146-.026,3.762a.9.9,0,0,1-.944.879.921.921,0,0,1-.933-.909l.024-3.766-18.77-.339a2.387,2.387,0,0,0-2.362,2.391l-.049,45.379a2.076,2.076,0,0,0,2.328,1.989l18.54-.146.021-3.315a.91.91,0,0,1,.935-.881.883.883,0,0,1,.923.87l-.023,3.312,62.68-.5a2.074,2.074,0,0,0,2.232-1.933l1.006-43.29A2.315,2.315,0,0,0-768.728,2708.838Zm-63.707,40.387a.909.909,0,0,1-.935.881.886.886,0,0,1-.924-.874l.032-4.98a.907.907,0,0,1,.937-.881.89.89,0,0,1,.925.878Zm.064-9.376a.907.907,0,0,1-.937.88.9.9,0,0,1-.927-.882l.032-5a.905.905,0,0,1,.939-.88.9.9,0,0,1,.927.887Zm.064-9.42a.9.9,0,0,1-.94.88.9.9,0,0,1-.929-.891l.032-5.028a.9.9,0,0,1,.942-.88.908.908,0,0,1,.929.9Zm.065-9.465a.9.9,0,0,1-.942.879.912.912,0,0,1-.931-.9l.032-5.052a.9.9,0,0,1,.944-.879.916.916,0,0,1,.931.905Z" transform="translate(855.212 -2707.319)" fill="#fff"/>
      <g id="Grupo_83459" data-name="Grupo 83459" transform="translate(40.76 4.771)">
        <path id="Trazado_106182" data-name="Trazado 106182" d="M-391.605,2760.717a1.869,1.869,0,0,1-1.935,1.787l-23.916-.332a1.907,1.907,0,0,1-1.935-1.868l0-.161a1.893,1.893,0,0,1,1.978-1.812l23.938.381a1.856,1.856,0,0,1,1.87,1.846Z" transform="translate(419.39 -2758.331)" fill="#5038a1"/>
        <path id="Trazado_106183" data-name="Trazado 106183" d="M-66.072,2765.812a1.927,1.927,0,0,1-1.986,1.843l-7.859-.109a1.913,1.913,0,0,1-1.929-1.909v-.013a1.935,1.935,0,0,1,2-1.853l7.866.125a1.9,1.9,0,0,1,1.9,1.9Z" transform="translate(109.788 -2763.261)" fill="#5038a1"/>
      </g>
      <path id="Trazado_106184" data-name="Trazado 106184" d="M-368.169,3057.524a1.171,1.171,0,0,1-1.19,1.113l-36.9.006a1.161,1.161,0,0,1-1.2-1.137h0a1.194,1.194,0,0,1,1.229-1.136l36.924.039a1.113,1.113,0,0,1,1.143,1.115Z" transform="translate(449.34 -3023.726)" fill="#5038a1"/>
      <path id="Trazado_106185" data-name="Trazado 106185" d="M-240.1,3101.552a1.172,1.172,0,0,1-1.189,1.114l-23.617.056a1.139,1.139,0,0,1-1.18-1.124h0a1.187,1.187,0,0,1,1.214-1.128l23.63-.027a1.109,1.109,0,0,1,1.142,1.11Z" transform="translate(321.187 -3063.676)" fill="#5038a1"/>
      <path id="Trazado_106186" data-name="Trazado 106186" d="M-240.822,3147.09a1.174,1.174,0,0,1-1.188,1.114l-23.592.111a1.134,1.134,0,0,1-1.179-1.118h0a1.188,1.188,0,0,1,1.213-1.129l23.605-.082a1.1,1.1,0,0,1,1.141,1.1Z" transform="translate(321.813 -3104.959)" fill="#5038a1"/>
      <g id="Grupo_83460" data-name="Grupo 83460" transform="translate(3.796 36.763)">
        <path id="Trazado_106187" data-name="Trazado 106187" d="M-813.358,3110.238a.611.611,0,0,1-.632.58h0a.6.6,0,0,1-.63-.573l.017-8.282a.61.61,0,0,1,.634-.58h0a.6.6,0,0,1,.631.578Z" transform="translate(814.619 -3101.292)" fill="#5038a1"/>
        <path id="Trazado_106188" data-name="Trazado 106188" d="M-788.224,3109.251c0,.325-.374.59-.84.593h0c-.466,0-.838-.258-.837-.583l.022-8.258c0-.326.375-.592.843-.592h0c.467,0,.839.264.838.59Z" transform="translate(792.214 -3100.41)" fill="#5038a1"/>
        <path id="Trazado_106189" data-name="Trazado 106189" d="M-757.282,3110.147a.61.61,0,0,1-.629.579h0a.6.6,0,0,1-.625-.571l.028-8.259a.608.608,0,0,1,.631-.578h0a.6.6,0,0,1,.626.576Z" transform="translate(763.782 -3101.232)" fill="#5038a1"/>
        <path id="Trazado_106190" data-name="Trazado 106190" d="M-692.618,3110.044a.608.608,0,0,1-.626.577h0a.592.592,0,0,1-.621-.57l.04-8.233a.606.606,0,0,1,.628-.576h0a.6.6,0,0,1,.621.574Z" transform="translate(705.158 -3101.164)" fill="#5038a1"/>
        <path id="Trazado_106191" data-name="Trazado 106191" d="M-732.707,3110.108a.609.609,0,0,1-.628.578h0a.594.594,0,0,1-.624-.571l.033-8.249a.608.608,0,0,1,.63-.578h0a.6.6,0,0,1,.624.576Z" transform="translate(741.502 -3101.206)" fill="#5038a1"/>
        <path id="Trazado_106192" data-name="Trazado 106192" d="M-711.053,3110.366a.3.3,0,0,1-.314.289h0a.3.3,0,0,1-.311-.285l.039-8.815a.3.3,0,0,1,.314-.289h0a.3.3,0,0,1,.312.288Z" transform="translate(721.305 -3101.186)" fill="#5038a1"/>
      </g>
    </g>
    <g id="Grupo_83468" data-name="Grupo 83468" transform="translate(-1671.345 1178.668)">
      <g id="Grupo_83465" data-name="Grupo 83465" transform="translate(0 0)">
        <g id="Grupo_83462" data-name="Grupo 83462">
          <circle id="Elipse_7139" data-name="Elipse 7139" cx="15.702" cy="15.702" r="15.702" transform="translate(0 22.206) rotate(-45)" fill="#8c6df2"/>
          <path id="Trazado_106193" data-name="Trazado 106193" d="M417.755,2188.415H386.379s-1.25,9.083,12.764,32.955a3.572,3.572,0,0,0,2.936,1.848,3.66,3.66,0,0,0,2.938-1.929C419.031,2197.416,417.755,2188.415,417.755,2188.415Z" transform="translate(-379.875 -2167.786)" fill="#5038a1"/>
        </g>
        <g id="Grupo_83463" data-name="Grupo 83463" transform="translate(6.02 6.225)">
          <path id="Trazado_106194" data-name="Trazado 106194" d="M397.848,2084.3v0h-.185a3.851,3.851,0,0,1-3.329-1.876c-8.192-13.954-11.193-22.754-12.268-27.691a15.728,15.728,0,0,1-.538-3.379,7.819,7.819,0,0,1-.014-1.706l.041-.248a16.157,16.157,0,0,1,32.242.162,7.115,7.115,0,0,1,.026.866v.058a16.183,16.183,0,0,1-.648,4.541c-1.112,4.933-4.037,13.669-12.089,27.387A3.854,3.854,0,0,1,397.848,2084.3Zm-15.457-34.563s0,.826.045,1.332v.125a15.374,15.374,0,0,0,.511,3.264l.005.05c1.059,4.87,4.03,13.6,12.166,27.459a3.118,3.118,0,0,0,2.635,1.454l.093.463v-.456a3.585,3.585,0,0,0,2.541-1.459c8-13.631,11.159-22.293,12.093-27.16v-.028a10.156,10.156,0,0,0,.619-4.3l0-.064v-.005a2.583,2.583,0,0,0-.118-.765l-.051-.026a15.273,15.273,0,0,0-30.478-.1l-.037.21Z" transform="translate(-381.478 -2034.401)" fill="#fff"/>
        </g>
        <circle id="Elipse_7140" data-name="Elipse 7140" cx="9.067" cy="9.067" r="9.067" transform="translate(13.19 13.089)" fill="#ffdc72" opacity="0.8"/>
        <g id="Grupo_83464" data-name="Grupo 83464" transform="translate(12.684 12.582)">
          <path id="Trazado_106195" data-name="Trazado 106195" d="M462.305,2121.526a9.573,9.573,0,1,1,9.573-9.573A9.584,9.584,0,0,1,462.305,2121.526Zm0-18.134a8.56,8.56,0,1,0,8.56,8.56A8.57,8.57,0,0,0,462.305,2103.392Z" transform="translate(-452.732 -2102.379)" fill="#3a2c69"/>
        </g>
      </g>
      <g id="Grupo_83466" data-name="Grupo 83466" transform="translate(13.504 9.056)">
        <path id="Trazado_106196" data-name="Trazado 106196" d="M461.658,2068.336a.152.152,0,0,1-.1-.267,14.071,14.071,0,0,1,9.163-3.392.152.152,0,0,1,0,.3,13.767,13.767,0,0,0-8.965,3.319A.151.151,0,0,1,461.658,2068.336Z" transform="translate(-461.506 -2064.677)" fill="#fff"/>
      </g>
      <g id="Grupo_83467" data-name="Grupo 83467" transform="translate(8.649 15.649)">
        <path id="Trazado_106197" data-name="Trazado 106197" d="M409.745,2142.8a.152.152,0,0,1-.152-.152,14.038,14.038,0,0,1,2.1-7.407.152.152,0,0,1,.258.16,13.733,13.733,0,0,0-2.059,7.247A.152.152,0,0,1,409.745,2142.8Z" transform="translate(-409.593 -2135.165)" fill="#fff"/>
      </g>
    </g>
    <g id="Grupo_83472" data-name="Grupo 83472" transform="translate(-1764.366 1170.658)">
      <g id="Grupo_83470" data-name="Grupo 83470" transform="translate(7.663 47.184)">
        <path id="Trazado_106222" data-name="Trazado 106222" d="M7.767,0H33.354a7.767,7.767,0,1,1,0,15.535H7.767A7.767,7.767,0,0,1,7.767,0Z" fill="#5038a1"/>
        <g id="Grupo_83469" data-name="Grupo 83469" transform="translate(9.02 3.212)">
          <path id="Trazado_106198" data-name="Trazado 106198" d="M-499.135,2421.24a13.583,13.583,0,0,1,2.365-.185,4.221,4.221,0,0,1,2.55.568,1.878,1.878,0,0,1,.925,1.665,2.072,2.072,0,0,1-1.48,1.929v.026a2.245,2.245,0,0,1,1.8,2.206,2.31,2.31,0,0,1-.859,1.837,4.95,4.95,0,0,1-3.3.832,15.78,15.78,0,0,1-2-.119Zm1.612,3.514h.832c1.123,0,1.758-.529,1.758-1.281,0-.833-.634-1.216-1.665-1.216a4.444,4.444,0,0,0-.925.066Zm0,4.1a7.142,7.142,0,0,0,.859.04c1.043,0,1.969-.4,1.969-1.493,0-1.031-.9-1.453-2.022-1.453h-.806Z" transform="translate(499.135 -2421.055)" fill="#fff"/>
          <path id="Trazado_106199" data-name="Trazado 106199" d="M-416.291,2421.761v5.192c0,1.744.727,2.55,1.824,2.55,1.176,0,1.876-.806,1.876-2.55v-5.192h1.625v5.087c0,2.748-1.414,3.964-3.554,3.964-2.061,0-3.4-1.149-3.4-3.95v-5.1Z" transform="translate(425.512 -2421.695)" fill="#fff"/>
          <path id="Trazado_106200" data-name="Trazado 106200" d="M-329.363,2430.666v-3.713l-2.814-5.192h1.849l1.07,2.286c.3.661.529,1.163.767,1.77h.027c.225-.568.475-1.123.779-1.77l1.07-2.286h1.837l-2.959,5.153v3.752Z" transform="translate(347.792 -2421.695)" fill="#fff"/>
        </g>
      </g>
      <g id="Grupo_83471" data-name="Grupo 83471" transform="translate(0 0)">
        <path id="Trazado_106201" data-name="Trazado 106201" d="M-628.545,1885.68a1.339,1.339,0,0,0-1.1-.443l-39.4.826-1-3.161a1.025,1.025,0,0,0-1.021-.71l-5.409.142a1.016,1.016,0,0,0-1.05,1,.958.958,0,0,0,1.05.945l4.622-.109,8.364,26.726a1.1,1.1,0,0,0,1.042.766l27.651.371a1.063,1.063,0,0,0,1.176-1.012,1.094,1.094,0,0,0-1.176-1.041l-26.845-.289-2.155-6.939,29.5.045a1.366,1.366,0,0,0,1.306-.943l4.656-15.054A1.185,1.185,0,0,0-628.545,1885.68Z" transform="translate(677.516 -1882.192)" fill="#8c6df2"/>
        <path id="Trazado_106202" data-name="Trazado 106202" d="M-512.937,2214.9a3.99,3.99,0,0,0-4.116,3.947,4.2,4.2,0,0,0,4.116,4.119,3.99,3.99,0,0,0,4.161-3.946A4.2,4.2,0,0,0-512.937,2214.9Zm0,5.915a1.959,1.959,0,0,1-1.926-1.922,1.862,1.862,0,0,1,1.926-1.842,1.958,1.958,0,0,1,1.936,1.923A1.862,1.862,0,0,1-512.937,2220.812Z" transform="translate(532.06 -2183.781)" fill="#8c6df2"/>
        <path id="Trazado_106203" data-name="Trazado 106203" d="M-317.819,2217.96a4.141,4.141,0,0,0-4.319,4.042,4.356,4.356,0,0,0,4.319,4.222,4.142,4.142,0,0,0,4.368-4.041A4.356,4.356,0,0,0-317.819,2217.96Zm0,6.061a2.033,2.033,0,0,1-2.022-1.971,1.933,1.933,0,0,1,2.022-1.886,2.033,2.033,0,0,1,2.032,1.971A1.933,1.933,0,0,1-317.819,2224.021Z" transform="translate(355.374 -2186.558)" fill="#8c6df2"/>
      </g>
    </g>
    <g id="Grupo_83475" data-name="Grupo 83475" transform="translate(-1871.337 1197.525)">
      <path id="Trazado_106204" data-name="Trazado 106204" d="M-1756.872,2220.107s4.249-10.411-11.777-8.312-12.131,8.149-13.4,12.877-7.99,10.086-26.7,17.382-13.163,27.183-4.759,33.785,12.987,2.213,14.942,13.607,9.752,20.646,19.481,10.988,20.786-21.079,17.694-36.054.41-12.143,6.447-19.013S-1761.7,2231.846-1756.872,2220.107Z" transform="translate(1821.298 -2207.583)" fill="#12263f"/>
      <path id="Trazado_106205" data-name="Trazado 106205" d="M-1179.086,2258.253s-16.151,22.771-34.109,26.38c0,0,2.929,10.015,5.533,11.282,0,0,22.762-17.025,29.3-34.266Z" transform="translate(1270.067 -2249.95)" fill="url(#linear-gradient-13)"/>
      <path id="Trazado_106206" data-name="Trazado 106206" d="M-1712.1,3821.1l-.484,3.975a5.328,5.328,0,0,1-2.635,2.755,12.137,12.137,0,0,1-3.827.223c-.878-.093-1.745-2.44-1.478-3.282a14.478,14.478,0,0,1,2.666-5.193h4.409A1.358,1.358,0,0,1-1712.1,3821.1Z" transform="translate(1729.996 -3665.252)" fill="#5038a1"/>
      <path id="Trazado_106207" data-name="Trazado 106207" d="M-1343.169,3337.977l.744,4.378s-2.492,25.245-2.936,35.343a7.911,7.911,0,0,0,1.171,4.5l4.333,7.037-11.014-6.5-.219-1.344,1.8-2.479-2.362-28.281a8.677,8.677,0,0,1,.987-4.8l2.278-4.28Z" transform="translate(1395.598 -3228.694)" fill="url(#linear-gradient-14)"/>
      <path id="Trazado_106208" data-name="Trazado 106208" d="M-1341.827,3795.641h-3.515a2.116,2.116,0,0,1-1.68-.823c-1.1-1.424-3.366-4.2-4.451-4.274-1.461-.1-1.274,5.1-1.274,5.1h-.819l-1.038-6.455a3.821,3.821,0,0,1,2.005-3.994h0a5.4,5.4,0,0,0,2.146,3.563c1.811,1.093,7.37,5.006,7.37,5.006a5.022,5.022,0,0,1,1.428.038A.93.93,0,0,1-1341.827,3795.641Z" transform="translate(1398.294 -3634.083)" fill="#5038a1"/>
      <path id="Trazado_106209" data-name="Trazado 106209" d="M-1677.851,3342.576s-14.6,27.7-16.922,34.019a60.743,60.743,0,0,0-3.165,12.1c-.049.781-1.02,1.529-3.7,1.529a2.568,2.568,0,0,1-2.389-1.09,1.56,1.56,0,0,1-.059-1.511c.845-1.709,3.525-7.172,4.517-9.649,1.185-2.958,3.734-16.363,5.133-21.024s2.979-9.716,9.067-14.373C-1685.364,3342.576-1681.184,3338.483-1677.851,3342.576Z" transform="translate(1715.195 -3231.214)" fill="url(#linear-gradient-15)"/>
      <path id="Trazado_106210" data-name="Trazado 106210" d="M-1379.351,2551.3c3.766-15.959-5.775-24.986-5.775-24.986,6.02-5.779,16.989-8.408,16.989-8.408s10.467,7.652,9.225,13.642c-.728,3.51-7.357,21.027-7.357,21.027A14.566,14.566,0,0,1-1379.351,2551.3Z" transform="translate(1425.918 -2485.319)" fill="#5038a1"/>
      <path id="Trazado_106211" data-name="Trazado 106211" d="M-1498.439,2882.874c1.533-4.617,8.35-7.9,8.35-7.9a14.566,14.566,0,0,0,13.082,1.274,26.238,26.238,0,0,1,.426,10.138c-.949,4.883-6.9,36.267-6.9,36.267-9.38,1.9-23.806-1.912-23.806-1.912C-1501.314,2910.133-1499.972,2887.491-1498.439,2882.874Z" transform="translate(1536.656 -2808.992)" fill="#8c6df2"/>
      <path id="Trazado_106212" data-name="Trazado 106212" d="M-1306.775,2392.427l-3.062,13.754c-.293,1.211.811,1.013,2.036.782,2.006-.378,4.591-1.157,5.456-2.718a1.481,1.481,0,0,0,.157-.518l1.315-9.537a1.713,1.713,0,0,0-1-1.8l-2.539-1.126A1.714,1.714,0,0,0-1306.775,2392.427Z" transform="translate(1357.714 -2370.387)" fill="url(#linear-gradient-16)"/>
      <path id="Trazado_106213" data-name="Trazado 106213" d="M-1485.573,2607.813s-21.372,15.291-2.733,31.357a4.816,4.816,0,0,0,2.109,1.222,23.2,23.2,0,0,1,3.852,2.615.725.725,0,0,0,1.061-.191h0a.991.991,0,0,0,.056-.95l-2.646-5.595a2.041,2.041,0,0,0-2.651-.115h0a1.007,1.007,0,0,1-1.527-.346c-1.441-2.935-4.161-11.565,6.974-21.318a1.206,1.206,0,0,0,.268-1.467C-1481.592,2611.524-1483.382,2608.539-1485.573,2607.813Z" transform="translate(1526.365 -2566.818)" fill="url(#linear-gradient-17)"/>
      <path id="Trazado_106214" data-name="Trazado 106214" d="M-1300.811,2263.01s3.627,1.531,6.092,6.772.624,7.66-1.689,7.992a10.826,10.826,0,0,1-9.431-3.1C-1309.5,2271.285-1305.525,2261.195-1300.811,2263.01Z" transform="translate(1355.342 -2254.066)" fill="url(#linear-gradient-18)"/>
      <path id="Trazado_106215" data-name="Trazado 106215" d="M-1342.073,2226.6s-2.736-7.667,4.062-7.758l1.6,1.118s2.494-4.251-1.6-6.28-8.885-.353-10.627,5.162-2.039,9.207.859,11.845,4.093-.353,4.093-.353-1.578-2.468-.936-3.788,2.125.273,2.125.273Z" transform="translate(1394.037 -2208.791)" fill="#12263f"/>
      <path id="Trazado_106216" data-name="Trazado 106216" d="M-1310.382,2342.382s-1.383-3.949-3.229-2.377,1.5,3.648,2.81,4.321Z" transform="translate(1361.583 -2323.721)" fill="url(#linear-gradient-19)"/>
      <g id="Grupo_83473" data-name="Grupo 83473" transform="translate(88.349 0)">
        <path id="Trazado_106217" data-name="Trazado 106217" d="M-874.357,2182.621c.019.489-1.806.728-2.271-1.375.206-.891.7-4.816,1.419-5.391a72.941,72.941,0,0,1,10.594-6.383,1.342,1.342,0,0,1-.327,1.843l-3.388,2.033a13.25,13.25,0,0,1,.713,3.467,3.834,3.834,0,0,1-1.109,2.623c-.69.709-1.618,1.622-2.446,2.309A3.785,3.785,0,0,1-874.357,2182.621Z" transform="translate(876.628 -2169.472)" fill="url(#linear-gradient-20)"/>
        <path id="Trazado_106218" data-name="Trazado 106218" d="M-851.067,2229.856l1.307-1.825,2.96-1.386c.43.391.593.888-.18,1.614a28.689,28.689,0,0,0-2.589,4.56Z" transform="translate(853.458 -2221.298)" fill="url(#linear-gradient-21)"/>
      </g>
      <g id="Grupo_83474" data-name="Grupo 83474" transform="translate(4.657 9.553)" opacity="0.7">
        <path id="Trazado_106219" data-name="Trazado 106219" d="M-1474.432,2290.32a.078.078,0,0,1-.074-.052.078.078,0,0,1,.048-.1c6.741-2.345,10.068-6.617,9.367-12.029-.725-5.6,2.776-6.511,2.812-6.52a.079.079,0,0,1,.094.057.078.078,0,0,1-.057.094c-.034.008-3.4.9-2.694,6.349.712,5.493-2.651,9.824-9.47,12.2A.077.077,0,0,1-1474.432,2290.32Z" transform="translate(1502.285 -2271.618)" fill="#fff"/>
        <path id="Trazado_106220" data-name="Trazado 106220" d="M-1757.7,2637.949a.077.077,0,0,1-.038-.01c-7.668-4.259-12.183-9.4-13.421-15.291-1.616-7.682,3.062-13.958,3.109-14.021a.078.078,0,0,1,.109-.015.078.078,0,0,1,.015.109c-.047.062-4.682,6.284-3.081,13.9,1.229,5.841,5.719,10.95,13.344,15.185a.078.078,0,0,1,.03.106A.078.078,0,0,1-1757.7,2637.949Z" transform="translate(1771.5 -2577.081)" fill="#fff"/>
      </g>
    </g>
  </g>
</svg>
