<svg xmlns="http://www.w3.org/2000/svg" xmlns:xlink="http://www.w3.org/1999/xlink" width="397.323" height="210.042" viewBox="0 0 397.323 210.042">
  <defs>
    <clipPath id="clip-path">
      <path id="Trazado_106303" data-name="Trazado 106303" d="M757.2,571.48H943.343l85.623-12.656,12.633,38.941-85.253,19.012,17.763,67.913H784.655Z" transform="translate(-757.202 -558.824)" fill="none"/>
    </clipPath>
  </defs>
  <g id="Grupo_83501" data-name="Grupo 83501" transform="translate(-273.231 -403.906)">
    <path id="Trazado_106223" data-name="Trazado 106223" d="M396.366,470.558c16.082-13.718,35.471-96.45,101.888-53.361,34.315,22.262,92.178-19.112,140.071-4.821,43.984,13.124,53.881,56.043,49.626,70.132-8.6,28.461,12.5,33.018,37.315,45.247,38.928,19.182,10.3,86.593-26.473,86.915s-259.573-.642-259.573-.642S398,610.894,375.779,581.408C351.871,549.677,354.826,505.992,396.366,470.558Z" transform="translate(-73.327 -0.817)" fill="#ffdc72"/>
    <g id="Grupo_83478" data-name="Grupo 83478" transform="translate(273.231 403.906)">
      <path id="Trazado_106224" data-name="Trazado 106224" d="M443.375,488.037l-5.422-.125c1.742,2.258,2.133,4.337,1.049,6.1-1.084,1.8-3.679,3.271-7.554,4.39a70.073,70.073,0,0,0-92.876-89c-1.031.444-2.062.907-3.057,1.386l-.009,0c-3.011-.919-5.945-1.672-8.775-2.245-14.286-2.9-24.424-.9-28.542,5.642-3.919,6.217-1.786,15.577,5.991,26.492l0,.005c-1.049,1.938-1.991,3.928-2.862,5.99-.658,1.547-1.244,3.093-1.778,4.675-14.611.871-22.432,3.442-25.276,8.1-3.306,5.422,1.209,12.7,15.66,19.772,1.991.978,4.124,1.938,6.364,2.9a68.471,68.471,0,0,0,5.03,19.055,70.038,70.038,0,0,0,128.747.658c7.128-1.475,11.821-3.786,13.687-6.844C445.046,492.871,444.885,490.525,443.375,488.037ZM426.648,499.5a107.987,107.987,0,0,1-17.58,1.422A257.538,257.538,0,0,1,373.03,498.5q1.639-3.568,3.209-7.323a99.077,99.077,0,0,0,11.67,3.173,59.112,59.112,0,0,0,11.652,1.3c8.158,0,14-2.355,16.89-6.937a11.984,11.984,0,0,0,1.161-2.4h-4.159c-.069.127-.142.252-.219.374-2.144,3.4-6.936,5.162-13.664,5.161a55.486,55.486,0,0,1-10.907-1.219,95.059,95.059,0,0,1-10.983-2.971q1.5-3.758,2.915-7.651c2.535-6.99,4.705-13.919,6.461-20.572a176.666,176.666,0,0,0,25.713,1.772q8.522,0,17.656-.688a66.316,66.316,0,0,1,1.36,13.415A65.542,65.542,0,0,1,426.648,499.5Zm-86.643,34.711c-2.023-.734-3.049-3.637-3.554-5.943a52.083,52.083,0,0,1-.417-14.8c.266-3.055.693-6.3,1.268-9.7a180.153,180.153,0,0,1,24.495,8.476c-1.8,3.105-3.622,5.984-5.442,8.594a52.087,52.087,0,0,1-9.81,11.094C344.677,533.376,342.028,534.946,340.005,534.213Zm23.622-25.221a183.841,183.841,0,0,0-25.66-8.886q.459-2.365,1.007-4.81,3.624.824,7.348,1.593c7.261,1.485,14.5,2.746,21.594,3.766Q365.809,505.013,363.627,508.992Zm-15.705-14.734q-4.208-.866-8.287-1.807c1.279-5.322,2.85-10.871,4.685-16.525a162.169,162.169,0,0,0,28.415,14.014q-1.728,4.125-3.543,8.027C362.216,496.967,355.08,495.726,347.921,494.258Zm-23.29-71.845a43.541,43.541,0,0,0,2.578,4.536,61.563,61.563,0,0,0,15.68,16.069,76.767,76.767,0,0,0,8.25,5.137c-2.663,5.8-5.2,12-7.532,18.427q-.652,1.8-1.271,3.59c-13.931-9.068-25.725-19.473-33.462-29.542l0,0a66.237,66.237,0,0,1,6.645-9.363c1.031-1.209,2.1-2.382,3.217-3.52l.462-.462A66.555,66.555,0,0,1,324.632,422.413ZM384.2,412.365c2.023.734,3.049,3.636,3.555,5.943a52.1,52.1,0,0,1,.417,14.8,147.689,147.689,0,0,1-3.869,22.116q-3.569-.614-6.967-1.393a100.174,100.174,0,0,1-21.316-7.348,150.462,150.462,0,0,1,11.832-20.745,52.1,52.1,0,0,1,9.81-11.094c1.539-1.193,3.609-2.469,5.423-2.469A3.247,3.247,0,0,1,384.2,412.365Zm-7.95,45.026q3.476.807,7.13,1.439c-1.71,6.434-3.816,13.135-6.27,19.9q-1.419,3.912-2.933,7.692a158.795,158.795,0,0,1-28.621-14.2q.746-2.18,1.54-4.373c2.28-6.286,4.754-12.336,7.349-18A103.706,103.706,0,0,0,376.248,457.391Zm36.215-30.11a65.706,65.706,0,0,1,17.1,29.57,193.568,193.568,0,0,1-41.586-1.04,150.864,150.864,0,0,0,3.89-22.378c.644-7.408.566-16.184-2.438-21.122q1.044.4,2.079.838A65.482,65.482,0,0,1,412.463,427.281Zm-46.625-19.322a66.074,66.074,0,0,1,13.455,1.372c-5.181,2.255-10.471,8.533-14.486,14.289a154.064,154.064,0,0,0-12.089,21.171,73.181,73.181,0,0,1-7.412-4.6,57.132,57.132,0,0,1-14.842-15.035,38.963,38.963,0,0,1-2.811-5.023,65.889,65.889,0,0,1,8.525-5.143h0q1.817-.917,3.7-1.72l.272-.117.063-.027q.4-.169.8-.332l.216-.086A65.506,65.506,0,0,1,365.839,407.959ZM301.4,416.213c2.144-3.4,6.936-5.161,13.664-5.161a55.488,55.488,0,0,1,10.907,1.219q2.293.464,4.678,1.092h0a68.847,68.847,0,0,0-14.34,11.054c-.906.889-1.777,1.813-2.631,2.773-1.066,1.173-2.08,2.4-3.057,3.644a70.559,70.559,0,0,0-4.337,6.2l0,.005C300.343,428.217,298.556,420.732,301.4,416.213Zm3.643,32.042c.587-1.351,1.191-2.684,1.849-3.982l0,0c8.147,10.183,20.155,20.592,34.185,29.621-1.989,6.055-3.687,12.005-5.057,17.708a271.229,271.229,0,0,1-27.957-8.255c-1.742-.622-3.431-1.262-5.048-1.9-.96-.373-1.9-.764-2.826-1.155-.142-1.422-.249-2.862-.284-4.3-.018-.693-.036-1.369-.036-2.062,0-.8.018-1.618.036-2.417a66.71,66.71,0,0,1,3.022-17.491c.3-.96.622-1.9.978-2.844C304.265,450.193,304.638,449.215,305.047,448.255Zm-11.892,28.867c-12.6-6.15-18.362-12.087-15.785-16.3,2.08-3.413,9.652-5.724,21.241-6.577a68.1,68.1,0,0,0-2.631,14.789c-.107,1.493-.16,2.986-.178,4.5v.391c0,1.511.053,3.022.142,4.515C294.986,478.011,294.062,477.567,293.155,477.123Zm9.563,7.554c1.706.64,3.448,1.28,5.244,1.9,8.253,2.86,17.5,5.518,27.4,7.876q-.539,2.4-1,4.739-1.213-.294-2.427-.572a147.434,147.434,0,0,0-28.706-3.855,64.462,64.462,0,0,1-2.594-10.889Zm2.329,14.914q-.226-.537-.442-1.077a152.211,152.211,0,0,1,26.649,3.756q1.221.279,2.44.578c-.619,3.608-1.075,7.056-1.357,10.3-.534,6.14-.572,13.219,1.141,18.274a66.342,66.342,0,0,1-28.431-31.829ZM391.506,534.7a66.185,66.185,0,0,1-45.668,2.1c4.879-2.557,9.782-8.431,13.557-13.843,1.947-2.791,3.893-5.88,5.814-9.215A186.411,186.411,0,0,1,396.941,532.1Q394.293,533.516,391.506,534.7Zm20.957-14.131a65.462,65.462,0,0,1-12,9.509A190.3,190.3,0,0,0,367.031,510.5c1.608-2.947,3.193-6.059,4.741-9.309a285,285,0,0,0,30.4,2.491c2.453.071,4.835.071,7.146.053a127.2,127.2,0,0,0,15.891-1.067A65.53,65.53,0,0,1,412.463,520.565Z" transform="translate(-273.231 -403.906)" fill="#d8ccff"/>
    </g>
    <g id="Grupo_83485" data-name="Grupo 83485" transform="translate(319.675 505.986)">
      <g id="Grupo_83480" data-name="Grupo 83480" transform="translate(8.95 42.708)">
        <path id="Trazado_106225" data-name="Trazado 106225" d="M656.683,1316.1s7.483-8.731.461-14.277c0,0-5.129-3.105-9.312-2.853,0,0,5.926,9.937,4.009,10.926s-5.805-11.55-5.805-11.55-11.673-1.132-15.427.673c0,0,9.979,8.166,7.877,8.652s-12.88-7.529-12.88-7.529-10.864,1.849-10.285,8.476,4.323,8.674,5.968,8.5,11.269-3.85,11.479-2.5-5.583,5.754-9.64,5.96c0,0,7.659,8.447,12.75,6.009s5.525-6.3,8.7-7.751,5.882-1.446,4.572.032-7.053,2.915-8.867,6.125-3.443,5.375,1.824,4.582,13.828-4.646,14.2-9.059Z" transform="translate(-615.299 -1297.997)" fill="#ffebad"/>
        <g id="Grupo_83479" data-name="Grupo 83479" transform="translate(5.36 10.75)">
          <path id="Trazado_106226" data-name="Trazado 106226" d="M648.4,1364.434s29.507-1.137,36.024,7.3a21.338,21.338,0,0,0,5.875,8.246l.691,1.884s-5.113-5.392-6.943-5.717C684.047,1376.149,686.908,1365.694,648.4,1364.434Z" transform="translate(-648.399 -1364.383)" fill="#ffebad"/>
          <path id="Trazado_106227" data-name="Trazado 106227" d="M898.512,1456.868a18.528,18.528,0,0,1,6.773,13.053l-1.149.1s-2.023-8.654-5.679-12.038S898.512,1456.868,898.512,1456.868Z" transform="translate(-856.613 -1441.269)" fill="#ffebad"/>
        </g>
      </g>
      <g id="Grupo_83482" data-name="Grupo 83482" transform="translate(68.673 19.003)">
        <path id="Trazado_106228" data-name="Trazado 106228" d="M991.924,1182.445s-11.9-6.666-6.349-15.714c0,0,4.444-5.555,9.206-6.984,0,0-2.54,13.492,0,13.809s1.746-15.238,1.746-15.238,12.539-6.032,17.46-5.556c0,0-7.778,13.174-5.238,12.857s11.27-13.651,11.27-13.651,12.857-2.381,14.92,5.238-1.27,11.428-3.175,11.9-14.127.317-13.809,1.9,8.571,4.127,13.175,2.7c0,0-5.079,12.539-11.746,11.9s-8.73-4.762-12.857-5.079-7.143.794-5.079,1.9,9.047.364,12.381,3.2,6.032,4.58-.159,5.849-17.3.476-19.524-4.286Z" transform="translate(-984.098 -1151.618)" fill="#a8d29f"/>
        <g id="Grupo_83481" data-name="Grupo 83481" transform="translate(1.539 7.971)">
          <path id="Trazado_106229" data-name="Trazado 106229" d="M1053.14,1200.84s-33.333,10.794-37.142,22.857a25.321,25.321,0,0,1-3.174,11.587v2.381s3.492-8.1,5.4-9.206C1018.22,1228.459,1010.76,1217.983,1053.14,1200.84Z" transform="translate(-1009.71 -1200.84)" fill="#82b378"/>
          <path id="Trazado_106230" data-name="Trazado 106230" d="M996.713,1405.87a21.985,21.985,0,0,0-2.21,17.308l1.323-.355s-1.284-10.466,1.406-15.73S996.713,1405.87,996.713,1405.87Z" transform="translate(-993.6 -1371.426)" fill="#82b378"/>
        </g>
      </g>
      <g id="Grupo_83484" data-name="Grupo 83484" transform="translate(0 0)">
        <path id="Trazado_106231" data-name="Trazado 106231" d="M617.588,1074.907s15.692-8.788,8.369-20.714c0,0-5.859-7.323-12.135-9.206,0,0,3.348,17.785,0,18.2s-2.3-20.086-2.3-20.086-16.529-7.951-23.015-7.323c0,0,10.252,17.366,6.9,16.948s-14.856-17.994-14.856-17.994-16.948-3.138-19.668,6.9,1.674,15.065,4.185,15.693,18.622.418,18.2,2.511-11.3,5.44-17.366,3.557c0,0,6.7,16.529,15.483,15.693s11.508-6.277,16.948-6.7,9.415,1.046,6.7,2.511-11.927.48-16.32,4.215-7.951,6.037.209,7.711,22.806.628,25.736-5.649Z" transform="translate(-560.028 -1034.27)" fill="#ffb74d"/>
        <g id="Grupo_83483" data-name="Grupo 83483" transform="translate(8.6 10.508)">
          <path id="Trazado_106232" data-name="Trazado 106232" d="M613.133,1099.156s43.939,14.228,48.961,30.13a33.377,33.377,0,0,0,4.185,15.274v3.139s-4.6-10.671-7.114-12.136C659.164,1135.562,669,1121.753,613.133,1099.156Z" transform="translate(-613.133 -1099.156)" fill="#ce8d2e"/>
          <path id="Trazado_106233" data-name="Trazado 106233" d="M930.45,1369.421s6.776,10.29,2.913,22.816l-1.743-.468s1.692-13.8-1.853-20.735S930.45,1369.421,930.45,1369.421Z" transform="translate(-877.305 -1324.018)" fill="#ce8d2e"/>
        </g>
      </g>
      <path id="Trazado_106234" data-name="Trazado 106234" d="M759.658,1529.072a30.739,30.739,0,0,1-30.739-30.739H790.4A30.739,30.739,0,0,1,759.658,1529.072Z" transform="translate(-701.569 -1423.183)" fill="#5038a1"/>
      <path id="Trazado_106235" data-name="Trazado 106235" d="M872.029,1528.836a30.761,30.761,0,0,0,34.557-30.5h-7.637A30.744,30.744,0,0,1,872.029,1528.836Z" transform="translate(-821.504 -1423.182)" fill="#fff" opacity="0.4"/>
      <path id="Trazado_106236" data-name="Trazado 106236" d="M726.3,1678.185h62.327a3.792,3.792,0,0,0-3.792-3.792H730.09a3.793,3.793,0,0,0-3.793,3.792Z" transform="translate(-699.372 -1570.732)" fill="#5038a1"/>
      <rect id="Rect치ngulo_31343" data-name="Rect치ngulo 31343" width="63.188" height="0.943" transform="translate(89.839 76.093) rotate(180)" fill="#8c6df2"/>
    </g>
    <path id="Trazado_106237" data-name="Trazado 106237" d="M1293.962,984.878l-9.133,108.595s-.954,6.382,3.943,6.394c8.051.019,40.069.11,40.069.11s-6.06-1.279-5.987-4.363c.086-3.634,10.675-111.764,10.675-111.764Z" transform="translate(-847.718 -486.029)" fill="#5038a1"/>
    <path id="Trazado_106238" data-name="Trazado 106238" d="M1305.05,1087.9c7.841.1,38.423,0,40.008,0-.6,0-5.2-.114-5.846-3.575a4.65,4.65,0,0,1-.077-.879c0-.677.375-4.974.979-11.521.54-5.872,1.267-13.551,2.081-22.052,3.155-32.94,7.614-78.191,7.614-78.191l-39.567,1.027-6.49,77.163-1.266,15.061-1.139,13.549-.238,2.822S1299.993,1087.838,1305.05,1087.9Z" transform="translate(-861.338 -475.834)" fill="#5038a1"/>
    <path id="Trazado_106239" data-name="Trazado 106239" d="M748.239,625.285l22.247,89.36,3.046,12.238L783.893,768.5h192.5L938.2,625.285Z" transform="translate(-398.086 -185.529)" fill="#8c6df2"/>
    <path id="Trazado_106240" data-name="Trazado 106240" d="M732.281,625.284l-3.083,1.028,34.639,145.3,4.1-3.108Z" transform="translate(-382.128 -185.528)" fill="#5038a1"/>
    <path id="Trazado_106241" data-name="Trazado 106241" d="M943.1,1512.8h191.314l5.283-3.108H947.2Z" transform="translate(-561.389 -926.719)" fill="#3a2c69"/>
    <rect id="Rect치ngulo_31344" data-name="Rect치ngulo 31344" width="41.422" height="1.696" transform="translate(490.314 613.686) rotate(180)" fill="#5038a1"/>
    <path id="Trazado_106242" data-name="Trazado 106242" d="M1308.556,1528.5l.259,3.081.01.113s26.907,2.58,37.619,6.878c.27-2.944.588-6.343.941-10.072Z" transform="translate(-867.666 -942.48)" fill="#8c6df2"/>
    <path id="Trazado_106243" data-name="Trazado 106243" d="M1305.05,1640.614c7.841.1,38.423,0,40.008,0-.6,0-5.2-.114-5.846-3.575-3.15.163-20.663.722-37.864-5.841l-.238,2.822S1299.993,1640.55,1305.05,1640.614Z" transform="translate(-861.338 -1028.546)" fill="#8c6df2" opacity="0.4"/>
    <path id="Trazado_106244" data-name="Trazado 106244" d="M926.727,1336.073l7,28.116h64.81c-27.4-8.706-40.375-21.442-45.6-28.116Z" transform="translate(-547.67 -781.213)" fill="#5038a1" opacity="0.4"/>
    <path id="Trazado_106245" data-name="Trazado 106245" d="M757.2,636.976l27.453,113.211H974.107L943.343,636.976Z" transform="translate(-405.597 -195.327)" fill="#afcdfb"/>
    <path id="Trazado_106246" data-name="Trazado 106246" d="M796.213,713.395c32.69-5.432,39.835-32.921,99.7-15.781,26.462,7.577,45.675-3.64,58.878-18.514l-11.447-42.125H757.2l21.59,89.032C782.952,719.435,788.587,714.662,796.213,713.395Z" transform="translate(-405.597 -195.327)" fill="#d4ebf9"/>
    <path id="Trazado_106247" data-name="Trazado 106247" d="M2098.973,1336.073h-2.342l.469,1.725,2.266-.257Z" transform="translate(-1528.121 -781.213)" fill="#f1a34f"/>
    <g id="Grupo_83495" data-name="Grupo 83495" transform="translate(351.605 428.993)">
      <g id="Grupo_83494" data-name="Grupo 83494" transform="translate(0 0)" clip-path="url(#clip-path)">
        <g id="Grupo_83493" data-name="Grupo 83493" transform="translate(16.311 1.831)">
          <path id="Trazado_106248" data-name="Trazado 106248" d="M857.923,571.07l19.372,42.891.534-.108,57.826-11.64s-27.139-1.34-30.065-3.49c-2.757-2.026-32.153-26.414-40.482-28.46a3.4,3.4,0,0,0-1.284-.113Z" transform="translate(-857.923 -570.128)" fill="#8c6df2"/>
          <path id="Trazado_106249" data-name="Trazado 106249" d="M946.913,711.786c1.352.2,5.391.725,10.928,1.342,15.917,1.773,44.2,4.325,56.513,2.3,11.046-1.815,69.459-11.545,109.846-18.623a65.35,65.35,0,0,0-34.507-20.665c-47.064,8.041-108.607,18.685-116.4,20.687-12.825,3.294-29.889,6.689-29.889,6.689s-.095.411-.172,1.054C942.972,706.661,942.9,711.181,946.913,711.786Z" transform="translate(-929.329 -658.973)" fill="#e58638"/>
          <path id="Trazado_106250" data-name="Trazado 106250" d="M946.913,658.512c1.352.2,5.391.725,10.928,1.342,15.917,1.773,44.2,4.325,56.513,2.3,11.046-1.815,69.459-11.545,109.846-18.623,20.279-3.553,36.013-6.439,38.919-7.318,8.686-2.629,26.538-10.662,24.274-14.307s-9.409-3.541-11.61-4.787l-.093-.054c-.515-.291-1.365-.775-2.582-1.321-4.35-1.947-13.4-4.67-28.711-2.169,0,0-24.338,4.1-54.7,9.29-47.064,8.041-108.607,18.685-116.4,20.687-12.825,3.294-29.889,6.689-29.889,6.689s-.095.411-.172,1.054C942.972,653.387,942.9,657.907,946.913,658.512Z" transform="translate(-929.329 -605.7)" fill="#fff"/>
          <path id="Trazado_106251" data-name="Trazado 106251" d="M946.911,856.288c1.352.2,5.392.727,10.927,1.343,1.521-6,7.28-9.065,7.28-9.065l-21.892.507C942.971,851.163,942.9,855.684,946.911,856.288Z" transform="translate(-929.328 -803.476)" fill="#e8e8e8"/>
          <g id="Grupo_83491" data-name="Grupo 83491" transform="translate(67.069 10.047)">
            <g id="Grupo_83489" data-name="Grupo 83489" transform="translate(76.025)">
              <g id="Grupo_83486" data-name="Grupo 83486" transform="translate(24.784 6.669)">
                <path id="Trazado_106252" data-name="Trazado 106252" d="M1936.139,713.4a.67.67,0,0,1,.773.543l.121.7a.668.668,0,1,1-1.316.229l-.121-.7A.67.67,0,0,1,1936.139,713.4Z" transform="translate(-1928.948 -706.904)" fill="#5038a1"/>
                <path id="Trazado_106253" data-name="Trazado 106253" d="M1895.152,720.527a.67.67,0,0,1,.773.544l.121.7a.668.668,0,0,1-1.316.229l-.121-.7A.67.67,0,0,1,1895.152,720.527Z" transform="translate(-1894.599 -712.879)" fill="#5038a1"/>
                <path id="Trazado_106254" data-name="Trazado 106254" d="M1957.1,709.751a.67.67,0,0,1,.773.544l.121.7a.668.668,0,0,1-1.316.229l-.121-.7A.67.67,0,0,1,1957.1,709.751Z" transform="translate(-1946.515 -703.847)" fill="#5038a1"/>
                <path id="Trazado_106255" data-name="Trazado 106255" d="M1978.063,706.1a.67.67,0,0,1,.772.544l.121.7a.668.668,0,1,1-1.316.229l-.121-.7A.67.67,0,0,1,1978.063,706.1Z" transform="translate(-1964.083 -700.791)" fill="#5038a1"/>
                <path id="Trazado_106256" data-name="Trazado 106256" d="M1999.024,702.457a.67.67,0,0,1,.772.544l.121.7a.668.668,0,1,1-1.316.229l-.121-.7A.67.67,0,0,1,1999.024,702.457Z" transform="translate(-1981.65 -697.735)" fill="#5038a1"/>
                <path id="Trazado_106257" data-name="Trazado 106257" d="M2019.985,698.811h0a.67.67,0,0,1,.772.544l.121.7a.67.67,0,0,1-.544.772h0a.67.67,0,0,1-.772-.544l-.121-.7A.67.67,0,0,1,2019.985,698.811Z" transform="translate(-1999.217 -694.679)" fill="#5038a1"/>
                <path id="Trazado_106258" data-name="Trazado 106258" d="M2040.948,695.164a.67.67,0,0,1,.772.544l.121.7a.668.668,0,1,1-1.316.229l-.121-.7A.67.67,0,0,1,2040.948,695.164Z" transform="translate(-2016.784 -691.623)" fill="#5038a1"/>
                <path id="Trazado_106259" data-name="Trazado 106259" d="M2061.909,691.518a.67.67,0,0,1,.772.544l.121.7a.668.668,0,0,1-1.316.229l-.121-.7A.67.67,0,0,1,2061.909,691.518Z" transform="translate(-2034.351 -688.568)" fill="#5038a1"/>
                <path id="Trazado_106260" data-name="Trazado 106260" d="M2082.871,687.872a.67.67,0,0,1,.772.543l.121.7a.668.668,0,1,1-1.316.229l-.121-.7A.669.669,0,0,1,2082.871,687.872Z" transform="translate(-2051.919 -685.512)" fill="#5038a1"/>
                <path id="Trazado_106261" data-name="Trazado 106261" d="M2103.832,684.225a.67.67,0,0,1,.772.544l.121.7a.668.668,0,1,1-1.316.229l-.122-.7A.67.67,0,0,1,2103.832,684.225Z" transform="translate(-2069.485 -682.456)" fill="#5038a1"/>
                <path id="Trazado_106262" data-name="Trazado 106262" d="M2124.375,680.652a.67.67,0,0,1,.772.543l.121.7a.668.668,0,1,1-1.316.229l-.121-.7A.67.67,0,0,1,2124.375,680.652Z" transform="translate(-2086.702 -679.461)" fill="#5038a1"/>
                <path id="Trazado_106263" data-name="Trazado 106263" d="M2145.337,677.005a.67.67,0,0,1,.773.544l.122.7a.668.668,0,0,1-1.316.229l-.121-.7A.67.67,0,0,1,2145.337,677.005Z" transform="translate(-2104.269 -676.405)" fill="#5038a1"/>
                <path id="Trazado_106264" data-name="Trazado 106264" d="M2166.3,673.359a.67.67,0,0,1,.773.543l.121.7a.668.668,0,0,1-1.316.229l-.121-.7A.67.67,0,0,1,2166.3,673.359Z" transform="translate(-2121.836 -673.349)" fill="#5038a1"/>
              </g>
              <path id="Trazado_106265" data-name="Trazado 106265" d="M2336.828,633.342l3.691-1.173c1.217.546,2.066,1.03,2.582,1.321l-5.651,1.8a1.016,1.016,0,0,1-.325.047,1.021,1.021,0,0,1-.3-1.994Z" transform="translate(-2239.834 -632.169)" fill="#5038a1"/>
              <g id="Grupo_83487" data-name="Grupo 83487" transform="translate(6.744 15.258)">
                <path id="Trazado_106266" data-name="Trazado 106266" d="M1785.255,733.489a1.313,1.313,0,0,0,.225-.019l1.032-.18a1.313,1.313,0,0,0,1.066-1.514l-.748-4.3a1.31,1.31,0,0,0-1.515-1.066l-1.032.18a1.313,1.313,0,0,0-1.066,1.515l.748,4.3A1.312,1.312,0,0,0,1785.255,733.489Zm.207-.123a1.207,1.207,0,0,1-1.394-.981l-.748-4.3a1.209,1.209,0,0,1,.981-1.394l1.032-.18a1.207,1.207,0,0,1,1.394.981l.748,4.3a1.208,1.208,0,0,1-.981,1.393Z" transform="translate(-1783.198 -726.389)" fill="#5038a1"/>
              </g>
              <g id="Grupo_83488" data-name="Grupo 83488" transform="translate(0 16.431)">
                <path id="Trazado_106267" data-name="Trazado 106267" d="M1743.61,740.733a1.314,1.314,0,0,0,.225-.02l1.032-.18a1.312,1.312,0,0,0,1.066-1.515l-.748-4.3a1.309,1.309,0,0,0-1.515-1.066l-1.032.18a1.312,1.312,0,0,0-1.066,1.514l.748,4.3A1.312,1.312,0,0,0,1743.61,740.733Zm.207-.123a1.206,1.206,0,0,1-1.394-.981l-.748-4.3a1.206,1.206,0,0,1,.98-1.393l1.032-.18a1.206,1.206,0,0,1,1.393.981l.748,4.3a1.206,1.206,0,0,1-.98,1.394Z" transform="translate(-1741.552 -733.632)" fill="#5038a1"/>
              </g>
            </g>
            <g id="Grupo_83490" data-name="Grupo 83490" transform="translate(0 15.437)">
              <path id="Trazado_106268" data-name="Trazado 106268" d="M1272.637,828.82a.67.67,0,0,1,.773.544l.121.7a.668.668,0,0,1-1.316.229l-.121-.7A.67.67,0,0,1,1272.637,828.82Z" transform="translate(-1272.083 -812.404)" fill="#5038a1"/>
              <path id="Trazado_106269" data-name="Trazado 106269" d="M1293.6,825.174a.67.67,0,0,1,.773.543l.121.7a.668.668,0,1,1-1.316.229l-.121-.7A.67.67,0,0,1,1293.6,825.174Z" transform="translate(-1289.651 -809.348)" fill="#5038a1"/>
              <path id="Trazado_106270" data-name="Trazado 106270" d="M1314.56,821.527a.67.67,0,0,1,.773.544l.121.7a.668.668,0,1,1-1.316.229l-.121-.7A.67.67,0,0,1,1314.56,821.527Z" transform="translate(-1307.218 -806.291)" fill="#5038a1"/>
              <path id="Trazado_106271" data-name="Trazado 106271" d="M1335.522,817.879a.67.67,0,0,1,.772.544l.121.7a.668.668,0,0,1-1.316.229l-.121-.7A.67.67,0,0,1,1335.522,817.879Z" transform="translate(-1324.785 -803.235)" fill="#5038a1"/>
              <path id="Trazado_106272" data-name="Trazado 106272" d="M1356.484,814.233a.67.67,0,0,1,.772.544l.121.7a.668.668,0,1,1-1.316.229l-.121-.7A.67.67,0,0,1,1356.484,814.233Z" transform="translate(-1342.353 -800.179)" fill="#5038a1"/>
              <path id="Trazado_106273" data-name="Trazado 106273" d="M1377.445,810.587a.67.67,0,0,1,.773.544l.121.7a.668.668,0,1,1-1.316.229l-.121-.7A.67.67,0,0,1,1377.445,810.587Z" transform="translate(-1359.919 -797.123)" fill="#5038a1"/>
              <path id="Trazado_106274" data-name="Trazado 106274" d="M1398.407,806.94a.67.67,0,0,1,.773.544l.121.7a.668.668,0,1,1-1.316.229l-.121-.7A.67.67,0,0,1,1398.407,806.94Z" transform="translate(-1377.487 -794.067)" fill="#5038a1"/>
              <path id="Trazado_106275" data-name="Trazado 106275" d="M1419.368,803.294a.67.67,0,0,1,.773.544l.121.7a.668.668,0,1,1-1.316.229l-.121-.7A.67.67,0,0,1,1419.368,803.294Z" transform="translate(-1395.053 -791.012)" fill="#5038a1"/>
              <path id="Trazado_106276" data-name="Trazado 106276" d="M1440.33,799.648a.67.67,0,0,1,.773.543l.121.7a.668.668,0,1,1-1.316.229l-.121-.7A.67.67,0,0,1,1440.33,799.648Z" transform="translate(-1412.621 -787.956)" fill="#5038a1"/>
              <path id="Trazado_106277" data-name="Trazado 106277" d="M1687.329,756.68a.67.67,0,0,1,.772.544l.121.7a.668.668,0,1,1-1.316.229l-.121-.7A.67.67,0,0,1,1687.329,756.68Z" transform="translate(-1619.62 -751.946)" fill="#5038a1"/>
              <path id="Trazado_106278" data-name="Trazado 106278" d="M1708.29,753.033a.67.67,0,0,1,.773.544l.121.7a.67.67,0,0,1-.544.772h0a.67.67,0,0,1-.773-.543l-.121-.7A.67.67,0,0,1,1708.29,753.033Z" transform="translate(-1637.188 -748.89)" fill="#5038a1"/>
              <path id="Trazado_106279" data-name="Trazado 106279" d="M1729.252,749.388a.67.67,0,0,1,.773.543l.121.7a.668.668,0,0,1-1.316.229l-.121-.7A.669.669,0,0,1,1729.252,749.388Z" transform="translate(-1654.755 -745.835)" fill="#5038a1"/>
              <path id="Trazado_106280" data-name="Trazado 106280" d="M1750.213,745.741a.67.67,0,0,1,.772.544l.121.7a.668.668,0,0,1-1.316.229l-.121-.7A.67.67,0,0,1,1750.213,745.741Z" transform="translate(-1672.321 -742.778)" fill="#5038a1"/>
              <path id="Trazado_106281" data-name="Trazado 106281" d="M1771.175,742.094a.67.67,0,0,1,.772.544l.121.7a.668.668,0,0,1-1.316.229l-.121-.7A.67.67,0,0,1,1771.175,742.094Z" transform="translate(-1689.889 -739.722)" fill="#5038a1"/>
              <path id="Trazado_106282" data-name="Trazado 106282" d="M1792.136,738.447a.67.67,0,0,1,.772.544l.121.7a.668.668,0,1,1-1.316.229l-.121-.7A.67.67,0,0,1,1792.136,738.447Z" transform="translate(-1707.456 -736.666)" fill="#5038a1"/>
              <path id="Trazado_106283" data-name="Trazado 106283" d="M1813.1,734.8a.67.67,0,0,1,.773.544l.121.7a.668.668,0,1,1-1.316.229l-.121-.7A.67.67,0,0,1,1813.1,734.8Z" transform="translate(-1725.023 -733.61)" fill="#5038a1"/>
              <path id="Trazado_106284" data-name="Trazado 106284" d="M1834.06,731.155a.67.67,0,0,1,.772.544l.121.7a.668.668,0,1,1-1.316.229l-.121-.7A.67.67,0,0,1,1834.06,731.155Z" transform="translate(-1742.591 -730.555)" fill="#5038a1"/>
              <path id="Trazado_106285" data-name="Trazado 106285" d="M1855.022,727.508a.67.67,0,0,1,.772.544l.121.7a.668.668,0,0,1-1.316.229l-.121-.7A.67.67,0,0,1,1855.022,727.508Z" transform="translate(-1760.157 -727.498)" fill="#5038a1"/>
              <path id="Trazado_106286" data-name="Trazado 106286" d="M1501.947,788.929a.67.67,0,0,1,.773.544l.121.7a.668.668,0,0,1-1.316.229l-.121-.7A.67.67,0,0,1,1501.947,788.929Z" transform="translate(-1464.26 -778.973)" fill="#5038a1"/>
              <path id="Trazado_106287" data-name="Trazado 106287" d="M1522.909,785.282a.67.67,0,0,1,.773.544l.121.7a.668.668,0,1,1-1.316.229l-.121-.7A.67.67,0,0,1,1522.909,785.282Z" transform="translate(-1481.827 -775.916)" fill="#5038a1"/>
              <path id="Trazado_106288" data-name="Trazado 106288" d="M1543.87,781.636a.67.67,0,0,1,.772.544l.121.7a.668.668,0,1,1-1.316.229l-.121-.7A.67.67,0,0,1,1543.87,781.636Z" transform="translate(-1499.393 -772.861)" fill="#5038a1"/>
              <path id="Trazado_106289" data-name="Trazado 106289" d="M1564.832,777.99a.67.67,0,0,1,.773.544l.121.7a.668.668,0,1,1-1.316.229l-.121-.7A.67.67,0,0,1,1564.832,777.99Z" transform="translate(-1516.961 -769.805)" fill="#5038a1"/>
              <path id="Trazado_106290" data-name="Trazado 106290" d="M1585.793,774.343a.67.67,0,0,1,.773.544l.121.7a.668.668,0,0,1-1.316.229l-.121-.7A.67.67,0,0,1,1585.793,774.343Z" transform="translate(-1534.528 -766.749)" fill="#5038a1"/>
              <path id="Trazado_106291" data-name="Trazado 106291" d="M1606.755,770.7a.67.67,0,0,1,.772.543l.121.7a.668.668,0,0,1-1.316.229l-.121-.7A.67.67,0,0,1,1606.755,770.7Z" transform="translate(-1552.095 -763.693)" fill="#5038a1"/>
              <path id="Trazado_106292" data-name="Trazado 106292" d="M1627.717,767.05a.67.67,0,0,1,.772.544l.121.7a.668.668,0,0,1-1.316.229l-.121-.7A.67.67,0,0,1,1627.717,767.05Z" transform="translate(-1569.662 -760.637)" fill="#5038a1"/>
              <path id="Trazado_106293" data-name="Trazado 106293" d="M1648.679,763.4a.67.67,0,0,1,.773.544l.121.7a.668.668,0,0,1-1.316.229l-.121-.7A.67.67,0,0,1,1648.679,763.4Z" transform="translate(-1587.23 -757.58)" fill="#5038a1"/>
              <path id="Trazado_106294" data-name="Trazado 106294" d="M1669.64,759.757a.67.67,0,0,1,.773.543l.121.7a.668.668,0,1,1-1.316.229l-.121-.7A.67.67,0,0,1,1669.64,759.757Z" transform="translate(-1604.797 -754.525)" fill="#5038a1"/>
            </g>
          </g>
          <path id="Trazado_106295" data-name="Trazado 106295" d="M1762.627,819.579a2.39,2.39,0,0,1-1.079-4.192,13.535,13.535,0,0,1,6.214-3.049c5.118-.837,3.454,7.322,1.76,7.67A26,26,0,0,1,1762.627,819.579Z" transform="translate(-1614.486 -773.064)" fill="#739af0"/>
          <path id="Trazado_106296" data-name="Trazado 106296" d="M1796.639,774.992l1.859,10.684a50.121,50.121,0,0,0,14.027-.366,40.019,40.019,0,0,0,10.508-2.866,13.449,13.449,0,0,0,1.755-.916l-1.948-11.2a5.464,5.464,0,0,0-2-.481c-6.8-.583-23.182,4.595-23.182,4.595Z" transform="translate(-1644.625 -737.466)" fill="#8c6df2"/>
          <path id="Trazado_106297" data-name="Trazado 106297" d="M1946.094,770.084l2.191,12.6a13.447,13.447,0,0,0,1.755-.916l-1.948-11.2A5.46,5.46,0,0,0,1946.094,770.084Z" transform="translate(-1769.877 -737.703)" fill="#2b478b"/>
          <g id="Grupo_83492" data-name="Grupo 83492" transform="translate(85.979 21.679)">
            <path id="Trazado_106298" data-name="Trazado 106298" d="M1388.856,704.037s8.162,11.767,9.69,13.522,4.712,2.636,4.712,2.636l.019,0,20.189,3.979s24.7-4.163,30.067-5.2h0c.487-.094.815-.163.95-.2,1.625-.442,2.36-1.1,2.022-1.522s-38.617.231-42.853.33l-.121,0c-4.125.076-4.562-.943-4.562-.943l-16.44-11.975a1.964,1.964,0,0,0-.942-.488A9.326,9.326,0,0,0,1388.856,704.037Z" transform="translate(-1388.856 -703.998)" fill="#8c6df2"/>
            <path id="Trazado_106299" data-name="Trazado 106299" d="M1405.722,705.164c4.436,3.44,16.7,12.922,17.852,13.533,1.236.658,35.64,1.134,44.094,1.261h0c.487-.094.815-.163.95-.2,1.625-.442,2.361-1.1,2.022-1.522s-38.617.231-42.853.33-4.684-.94-4.684-.94l-16.44-11.975A1.966,1.966,0,0,0,1405.722,705.164Z" transform="translate(-1402.991 -704.975)" fill="#5038a1"/>
            <path id="Trazado_106300" data-name="Trazado 106300" d="M1388.856,704.037s8.162,11.767,9.69,13.522,4.712,2.636,4.712,2.636l.019,0a43.894,43.894,0,0,0,10.255-2.606c-4.125.076-4.562-.943-4.562-.943l-16.44-11.975a1.964,1.964,0,0,0-.942-.488A9.326,9.326,0,0,0,1388.856,704.037Z" transform="translate(-1388.856 -703.998)" fill="#5038a1"/>
          </g>
          <path id="Trazado_106301" data-name="Trazado 106301" d="M915.016,614.558l57.826-11.64s-27.139-1.34-30.065-3.49c-2.757-2.026-32.153-26.414-40.482-28.46,7.659,7.2,25.447,24.555,25.03,30.207C926.929,606.557,918.993,612.1,915.016,614.558Z" transform="translate(-895.11 -570.832)" fill="#5038a1"/>
          <path id="Trazado_106302" data-name="Trazado 106302" d="M915.763,832.347c-.217-.189-19.576-2.9-31.954.525l12.33,4.448,19.268-3.352S916.849,833.292,915.763,832.347Z" transform="translate(-879.617 -788.879)" fill="#5038a1"/>
        </g>
      </g>
    </g>
    <path id="Trazado_106304" data-name="Trazado 106304" d="M1487.215,1080.2h-98.621l-11.049-38.854h98.62Z" transform="translate(-925.484 -534.21)" fill="#fff"/>
    <path id="Trazado_106305" data-name="Trazado 106305" d="M1614.281,1065.321H1544.4l-.652-2.051h69.881Z" transform="translate(-1064.771 -552.587)" fill="#afcdfb"/>
    <path id="Trazado_106306" data-name="Trazado 106306" d="M1621.526,1092.321h-69.881l-.652-2.051h69.881Z" transform="translate(-1070.843 -575.215)" fill="#afcdfb"/>
    <path id="Trazado_106307" data-name="Trazado 106307" d="M1629.026,1119.321h-69.881l-.652-2.051h69.881Z" transform="translate(-1077.129 -597.843)" fill="#afcdfb"/>
    <path id="Trazado_106308" data-name="Trazado 106308" d="M1525.594,1146.321h-91.606l-.652-2.051h91.606Z" transform="translate(-972.239 -620.47)" fill="#afcdfb"/>
    <path id="Trazado_106309" data-name="Trazado 106309" d="M1535.094,1173.321h-91.606l-.652-2.051h91.606Z" transform="translate(-980.201 -643.098)" fill="#afcdfb"/>
    <path id="Trazado_106310" data-name="Trazado 106310" d="M1925.578,1197.458a6.032,6.032,0,1,0,6.032,6.032A6.032,6.032,0,0,0,1925.578,1197.458Zm0,11.538a5.506,5.506,0,1,1,5.506-5.506A5.506,5.506,0,0,1,1925.578,1209Z" transform="translate(-1379.713 -665.045)" fill="#afcdfb"/>
    <path id="Trazado_106311" data-name="Trazado 106311" d="M1922.424,1211.594l-.968.348a2.238,2.238,0,0,0-1.516-.081.349.349,0,0,0-.279-.285,4.689,4.689,0,0,0-2.591.6c-.821.333-1.625.7-2.425,1.082q.361-.441.709-.893c.288-.372.571-.749.854-1.125a.907.907,0,0,1,.421.06.457.457,0,0,0,.277.251l.064.02a.413.413,0,0,0,.457-.186l.031-.046a.358.358,0,0,0,.009-.375,10.022,10.022,0,0,1,.625-1.177c.222-.45.436-.906.676-1.347a7.5,7.5,0,0,1,2.192-2.357.405.405,0,0,0-.409-.7c-1.839,1-3.212,2.942-4.466,4.667a.4.4,0,0,0-.385-.285c-1.372.084-2.65.635-4,.833.1-.3.2-.592.327-.883a.411.411,0,0,0-.457-.595,7.744,7.744,0,0,0-5.4,3.614c-.274.445.426.852.7.409a6.939,6.939,0,0,1,4.162-3.084c-.106.294-.2.591-.287.9a.408.408,0,0,0,.39.513,32.655,32.655,0,0,0,3.735-.79.4.4,0,0,0,.494.322l.016,0a36.027,36.027,0,0,1-2.328,2.864q-.152.163-.307.323a13.242,13.242,0,0,0-3.3,2.284.409.409,0,0,0,.286.691c1.126-.051,2.131-1.029,2.92-1.755.2-.184.394-.375.584-.568q.446-.228.9-.445c.751-.36,1.5-.719,2.264-1.057.453-.2,1.1-.558,1.744-.788-.105.273.148.685.486.56a7.627,7.627,0,0,1,1.22-.357,5.541,5.541,0,0,1,1.167-.147.413.413,0,0,0,.457.186l1.156-.416C1923.126,1212.2,1922.916,1211.417,1922.424,1211.594Z" transform="translate(-1368.456 -671.641)" fill="#afcdfb"/>
    <g id="Grupo_83496" data-name="Grupo 83496" transform="translate(457.867 513.813)">
      <path id="Trazado_106312" data-name="Trazado 106312" d="M1432.933,1083.091a1.1,1.1,0,0,0-.911-.488h-18.631l1.525.983a3.606,3.606,0,0,0,1.979.575l13.956.006a.494.494,0,0,1,.477.625l-1.311,4.4,2.954-4.944A1.1,1.1,0,0,0,1432.933,1083.091Z" transform="translate(-1413.391 -1082.603)" fill="#afcdfb"/>
      <path id="Trazado_106313" data-name="Trazado 106313" d="M1452.243,1097.5l.323-1.248a.254.254,0,0,0-.246-.317h-12.762l1.349.889a4.1,4.1,0,0,0,2.255.676Z" transform="translate(-1435.321 -1093.778)" fill="#afcdfb"/>
      <path id="Trazado_106314" data-name="Trazado 106314" d="M1461.558,1108.707l.821.731a3.258,3.258,0,0,0,2.166.824h5.592l.425-1.664Z" transform="translate(-1453.758 -1104.389)" fill="#afcdfb"/>
    </g>
    <path id="Trazado_106315" data-name="Trazado 106315" d="M1462.654,1224.561h-3.617l-1.96-6.693h3.617Z" transform="translate(-992.135 -682.15)" fill="#afcdfb"/>
    <path id="Trazado_106316" data-name="Trazado 106316" d="M1491.074,1224.561h-3.617l-1.96-6.693h3.617Z" transform="translate(-1015.953 -682.15)" fill="#afcdfb"/>
    <path id="Trazado_106317" data-name="Trazado 106317" d="M1540.778,1224.561h-3.617l-1.96-6.693h3.617Z" transform="translate(-1057.608 -682.15)" fill="#afcdfb"/>
    <path id="Trazado_106318" data-name="Trazado 106318" d="M1569.2,1224.561h-3.617l-1.96-6.693h3.617Z" transform="translate(-1081.426 -682.15)" fill="#afcdfb"/>
    <path id="Trazado_106319" data-name="Trazado 106319" d="M1617.444,1224.561h-3.617l-1.96-6.693h3.617Z" transform="translate(-1121.859 -682.15)" fill="#afcdfb"/>
    <path id="Trazado_106320" data-name="Trazado 106320" d="M1645.865,1224.561h-3.617l-1.96-6.693h3.617Z" transform="translate(-1145.677 -682.15)" fill="#afcdfb"/>
    <path id="Trazado_106321" data-name="Trazado 106321" d="M1674.778,1224.561h-3.617l-1.96-6.693h3.617Z" transform="translate(-1169.908 -682.15)" fill="#afcdfb"/>
    <path id="Trazado_106322" data-name="Trazado 106322" d="M1703.2,1224.561h-3.617l-1.96-6.693h3.617Z" transform="translate(-1193.726 -682.15)" fill="#afcdfb"/>
    <g id="Grupo_83497" data-name="Grupo 83497" transform="translate(378.584 511.829)">
      <path id="Trazado_106323" data-name="Trazado 106323" d="M923.917,1075.732a6.636,6.636,0,0,1-.056-2.1,3.637,3.637,0,0,1,.689-1.71,3.73,3.73,0,0,1,1.521-1.15,6.093,6.093,0,0,1,2.442-.422,7.76,7.76,0,0,1,2.617.422,6.744,6.744,0,0,1,2.055,1.156,7.048,7.048,0,0,1,1.492,1.712,8.343,8.343,0,0,1,.931,2.112q.108.379.226.837t.232.948q.115.489.212.948t.167.839a6.688,6.688,0,0,1,.066,2.109,3.472,3.472,0,0,1-2.217,2.872,6.245,6.245,0,0,1-2.445.419,7.819,7.819,0,0,1-2.651-.424,6.832,6.832,0,0,1-2.061-1.155,6.7,6.7,0,0,1-1.484-1.725,8.639,8.639,0,0,1-.914-2.112q-.107-.38-.223-.84t-.228-.949q-.112-.489-.208-.949T923.917,1075.732Zm9.031.114a4.154,4.154,0,0,0-1.442-2.223,3.871,3.871,0,0,0-2.417-.79,2.532,2.532,0,0,0-2.053.782,2.607,2.607,0,0,0-.411,2.221q.135.758.35,1.686t.43,1.688a4.111,4.111,0,0,0,1.44,2.222,3.9,3.9,0,0,0,2.423.784,2.556,2.556,0,0,0,2.06-.778,2.588,2.588,0,0,0,.408-2.219q-.137-.759-.354-1.688T932.949,1075.845Z" transform="translate(-923.802 -1070.348)" fill="#2b478b"/>
      <path id="Trazado_106324" data-name="Trazado 106324" d="M1018.257,1085.654a.86.86,0,0,1-.56-.181c-.148-.12-.257-.214-.326-.281l-7.537-8.32,1.945,8.234a.435.435,0,0,1-.069.381.4.4,0,0,1-.34.16l-1.614,0a.649.649,0,0,1-.416-.161.689.689,0,0,1-.249-.381l-3.031-12.891a.429.429,0,0,1,.07-.377.4.4,0,0,1,.339-.158l1.387,0a.861.861,0,0,1,.558.18q.22.179.323.279l7.521,8.293-1.954-8.2a.428.428,0,0,1,.069-.377.4.4,0,0,1,.339-.158l1.6,0a.651.651,0,0,1,.414.16.686.686,0,0,1,.249.377l3.081,12.882a.434.434,0,0,1-.068.38.4.4,0,0,1-.34.16Z" transform="translate(-992.725 -1071.463)" fill="#2b478b"/>
      <path id="Trazado_106325" data-name="Trazado 106325" d="M1104.41,1083.3a.655.655,0,0,1,.416.16.7.7,0,0,1,.252.38l.346,1.421a.434.434,0,0,1-.066.38.4.4,0,0,1-.339.16l-8.706-.009a.652.652,0,0,1-.417-.161.693.693,0,0,1-.25-.381l-3.1-12.88a.428.428,0,0,1,.068-.376.4.4,0,0,1,.338-.158l1.6,0a.651.651,0,0,1,.414.159.689.689,0,0,1,.249.377l2.634,10.916Z" transform="translate(-1065.211 -1071.597)" fill="#2b478b"/>
      <path id="Trazado_106326" data-name="Trazado 106326" d="M1168.192,1085.918a.653.653,0,0,1-.417-.161.7.7,0,0,1-.252-.381l-3.148-12.871a.426.426,0,0,1,.066-.376.4.4,0,0,1,.337-.158l1.6,0a.655.655,0,0,1,.414.159.693.693,0,0,1,.251.377l3.16,12.869a.433.433,0,0,1-.066.38.4.4,0,0,1-.338.16Z" transform="translate(-1125.403 -1071.709)" fill="#2b478b"/>
      <path id="Trazado_106327" data-name="Trazado 106327" d="M1212.2,1085.988a.864.864,0,0,1-.56-.181q-.223-.18-.328-.28l-7.608-8.3,2.036,8.218a.432.432,0,0,1-.064.38.4.4,0,0,1-.338.16l-1.607,0a.654.654,0,0,1-.417-.161.7.7,0,0,1-.253-.38l-3.174-12.866a.426.426,0,0,1,.065-.376.394.394,0,0,1,.336-.158l1.382,0a.864.864,0,0,1,.558.179q.222.179.325.278l7.591,8.277-2.044-8.188a.426.426,0,0,1,.064-.376.392.392,0,0,1,.335-.158l1.6,0a.657.657,0,0,1,.415.159.7.7,0,0,1,.252.377l3.223,12.858a.432.432,0,0,1-.063.38.393.393,0,0,1-.337.16Z" transform="translate(-1155.16 -1071.764)" fill="#2b478b"/>
      <path id="Trazado_106328" data-name="Trazado 106328" d="M1298.009,1083.64a.66.66,0,0,1,.417.16.708.708,0,0,1,.255.379l.362,1.418a.431.431,0,0,1-.061.38.392.392,0,0,1-.335.159l-8.693-.009a.656.656,0,0,1-.417-.16.7.7,0,0,1-.254-.38l-3.237-12.855a.425.425,0,0,1,.063-.376.392.392,0,0,1,.335-.158l8.493.016a.657.657,0,0,1,.415.159.7.7,0,0,1,.253.376l.359,1.406a.424.424,0,0,1-.062.376.389.389,0,0,1-.334.158l-6.37-.011.8,3.157,5.942.009a.658.658,0,0,1,.416.159.7.7,0,0,1,.254.378l.36,1.412a.428.428,0,0,1-.062.378.391.391,0,0,1-.335.159l-5.947-.008.837,3.309Z" transform="translate(-1227.37 -1071.898)" fill="#2b478b"/>
      <path id="Trazado_106329" data-name="Trazado 106329" d="M961.065,1171.621a.651.651,0,0,1,.417.161.692.692,0,0,1,.249.382l.335,1.428a.437.437,0,0,1-.07.382.4.4,0,0,1-.341.161l-3.594,0,2.581,11.077a.443.443,0,0,1-.07.386.405.405,0,0,1-.343.162H958.6a.65.65,0,0,1-.419-.162.693.693,0,0,1-.25-.386l-2.571-11.079-3.6,0a.646.646,0,0,1-.417-.162.685.685,0,0,1-.248-.383l-.329-1.429a.438.438,0,0,1,.072-.382.4.4,0,0,1,.342-.16Z" transform="translate(-946.393 -1155.214)" fill="#2b478b"/>
      <path id="Trazado_106330" data-name="Trazado 106330" d="M1034.492,1185.816a.651.651,0,0,1-.419-.162.7.7,0,0,1-.251-.385l-3.069-13.045a.436.436,0,0,1,.07-.381.4.4,0,0,1,.341-.16h1.615a.652.652,0,0,1,.417.161.694.694,0,0,1,.25.382l3.081,13.043a.441.441,0,0,1-.069.385.4.4,0,0,1-.342.162Z" transform="translate(-1013.421 -1155.272)" fill="#2b478b"/>
      <path id="Trazado_106331" data-name="Trazado 106331" d="M1080.135,1180.331a.459.459,0,0,1,.115-.394.471.471,0,0,1,.338-.131h1.617a.712.712,0,0,1,.426.152.59.59,0,0,1,.245.394,4.789,4.789,0,0,1-.009,1.658,3.182,3.182,0,0,1-.708,1.5,4.058,4.058,0,0,1-1.556,1.094,6.577,6.577,0,0,1-2.559.426,7.485,7.485,0,0,1-2.541-.416,7.07,7.07,0,0,1-2.076-1.156,7.241,7.241,0,0,1-1.571-1.772,9.07,9.07,0,0,1-1.023-2.246q-.222-.768-.443-1.7t-.362-1.694a6.8,6.8,0,0,1-.042-2.236,3.835,3.835,0,0,1,.728-1.759,3.717,3.717,0,0,1,1.521-1.144,5.894,5.894,0,0,1,2.331-.41,8.257,8.257,0,0,1,2.749.424,7.6,7.6,0,0,1,2.073,1.086,6.081,6.081,0,0,1,1.427,1.5,6.64,6.64,0,0,1,.8,1.64.382.382,0,0,1-.055.393.447.447,0,0,1-.352.151H1079.6a.807.807,0,0,1-.724-.524,2.939,2.939,0,0,0-.468-.785,3.458,3.458,0,0,0-.762-.685,4.076,4.076,0,0,0-1.075-.493,4.784,4.784,0,0,0-1.4-.192,3.081,3.081,0,0,0-1.3.24,2.04,2.04,0,0,0-.813.643,2.079,2.079,0,0,0-.368.966,3.9,3.9,0,0,0,.034,1.189q.142.766.364,1.694t.444,1.7a5.041,5.041,0,0,0,.536,1.2,3.831,3.831,0,0,0,1.953,1.609,3.956,3.956,0,0,0,1.418.243,3.9,3.9,0,0,0,1.313-.192,2.377,2.377,0,0,0,.85-.5,1.677,1.677,0,0,0,.444-.688A1.915,1.915,0,0,0,1080.135,1180.331Z" transform="translate(-1046.252 -1154.281)" fill="#2b478b"/>
      <path id="Trazado_106332" data-name="Trazado 106332" d="M1164.361,1185.053a.613.613,0,0,1,.165.182.719.719,0,0,1,.05.121.44.44,0,0,1-.065.385.4.4,0,0,1-.339.162h-1.9a1.141,1.141,0,0,1-.691-.213q-.292-.213-.342-.253l-6-5.359,1.284,5.278a.44.44,0,0,1-.066.385.4.4,0,0,1-.34.162H1154.5a.653.653,0,0,1-.419-.162.7.7,0,0,1-.253-.385l-3.157-13.029a.434.434,0,0,1,.067-.381.4.4,0,0,1,.339-.16h1.611a.654.654,0,0,1,.417.161.7.7,0,0,1,.252.381l1.149,4.724,3.161-4.821a1.164,1.164,0,0,1,.3-.321.834.834,0,0,1,.487-.12l1.828,0a.654.654,0,0,1,.417.161.7.7,0,0,1,.253.381.383.383,0,0,1-.045.3l-3.909,5.889Z" transform="translate(-1113.92 -1155.359)" fill="#2b478b"/>
      <path id="Trazado_106333" data-name="Trazado 106333" d="M1239.775,1183.432a.658.658,0,0,1,.419.162.712.712,0,0,1,.256.384l.36,1.436a.439.439,0,0,1-.063.385.4.4,0,0,1-.338.162h-8.757a.655.655,0,0,1-.419-.162.708.708,0,0,1-.255-.385l-3.214-13.019a.433.433,0,0,1,.065-.381.4.4,0,0,1,.338-.16l8.555.008a.658.658,0,0,1,.417.161.706.706,0,0,1,.254.381l.357,1.424a.433.433,0,0,1-.063.381.394.394,0,0,1-.337.16l-6.416,0,.792,3.2,5.986,0a.659.659,0,0,1,.418.161.709.709,0,0,1,.255.383l.358,1.43a.436.436,0,0,1-.063.383.394.394,0,0,1-.338.161l-5.991,0,.831,3.352Z" transform="translate(-1178.526 -1155.415)" fill="#2b478b"/>
      <path id="Trazado_106334" data-name="Trazado 106334" d="M1306.741,1171.922a.658.658,0,0,1,.417.16.711.711,0,0,1,.256.381l.363,1.423a.432.432,0,0,1-.062.381.391.391,0,0,1-.336.16l-3.57,0,2.8,11.04a.438.438,0,0,1-.062.385.393.393,0,0,1-.337.162h-1.613a.658.658,0,0,1-.419-.162.712.712,0,0,1-.256-.385l-2.787-11.042-3.572,0a.655.655,0,0,1-.417-.161.706.706,0,0,1-.255-.381l-.357-1.424a.431.431,0,0,1,.063-.38.393.393,0,0,1,.336-.16Z" transform="translate(-1236.156 -1155.466)" fill="#2b478b"/>
    </g>
    <g id="man_2" data-name="man 2" transform="translate(508.202 469.471)">
      <path id="Trazado_106335" data-name="Trazado 106335" d="M1844.672,1635.009s.464,7.673-.934,7.784c-.186.015-7.089.015-7.089.015l-8.812-.055a3.012,3.012,0,0,1,2.634-2.763c2.576-.482,7.1-2.25,7.867-6.187S1844.672,1635.009,1844.672,1635.009Z" transform="translate(-1811.056 -1498.957)" fill="#163560"/>
      <path id="Trazado_106336" data-name="Trazado 106336" d="M1741.054,1635.009s.463,7.673-.934,7.784c-.186.015-7.089.015-7.089.015l-8.812-.055a3.012,3.012,0,0,1,2.634-2.763c2.576-.482,7.1-2.25,7.867-6.187S1741.054,1635.009,1741.054,1635.009Z" transform="translate(-1724.218 -1498.957)" fill="#163560"/>
      <path id="Trazado_106337" data-name="Trazado 106337" d="M2055.512,1041.8l7.723,2.663s4.914-10,6.111-11.362c1.365-1.55,2.347-13.476,2.965-24.264.54-9.434.8-18,.8-18s-2.628.6-4.344,5.036c-2.942,7.608-2.92,22.463-4.557,30.123C2063.269,1030.407,2057.1,1041.172,2055.512,1041.8Z" transform="translate(-2001.863 -961.356)" fill="#f6f6f6"/>
      <path id="Trazado_106338" data-name="Trazado 106338" d="M2103.2,1137.9c2.944-3.425,4.915-10,6.111-11.362,1.365-1.55,7.826-10.357,1.79-24.205-2.959,8.759-.49,13.531-1.42,18.7C2108.76,1126.164,2103.472,1134.477,2103.2,1137.9Z" transform="translate(-2041.831 -1054.798)" fill="#e8e8e8"/>
      <path id="Trazado_106339" data-name="Trazado 106339" d="M2240.892,1535.168a3.8,3.8,0,0,0,2.433.641c1.939,0,2.433-.641,2.433-.641v-27.229h-4.866Z" transform="translate(-2157.222 -1394.719)" fill="#5038a1"/>
      <path id="Trazado_106340" data-name="Trazado 106340" d="M2074.333,1236.883c0,.019.005.041.008.061a25.473,25.473,0,0,0,.7,3.373,20.024,20.024,0,0,0,1.966,4.783c2.635,4.445,7.633,9.391,19.617,11.006.58.077,1.179.15,1.794.212q1.677.172,3.528.256l.236.008c.078.005.157.007.237.009a58.1,58.1,0,0,0,11.737-1.758c8.929-2.118,14.746-6.479,18.424-11.784a0,0,0,0,0,0,0q.469-.676.893-1.371a29.324,29.324,0,0,0,1.913-3.724,39.015,39.015,0,0,0,2.9-14.688,48.51,48.51,0,0,0-1.552-11.521,20.919,20.919,0,0,0-2.839-6.319,17.1,17.1,0,0,0-1.085-1.442,16.044,16.044,0,0,0-4.4-3.709c-4.266-2.431-18.295-4.853-30.178,1.418C2076.354,1213.231,2073.062,1227.488,2074.333,1236.883Z" transform="translate(-2017.438 -1134.726)" fill="#8c6df2"/>
      <path id="Trazado_106341" data-name="Trazado 106341" d="M2082.8,1455.745c3.489,4.06,6.63,8.22,18.614,9.553.58.063,1.18.123,1.794.172q1.677.144,3.528.212c.078,0,.157.007.235.007s.157.007.237.009a58.089,58.089,0,0,0,11.737-1.758c8.929-2.118,14.746-6.479,18.424-11.784a0,0,0,0,0,0,0q.468-.676.893-1.371c-6.775-1.616-21.244-4.45-35.619-3.292-7.8.628-15.888,1.323-22.814,1.934C2079.592,1449.444,2081.646,1454.407,2082.8,1455.745Z" transform="translate(-2022.224 -1343.832)" fill="#5038a1"/>
      <path id="Trazado_106342" data-name="Trazado 106342" d="M2181.38,995.4q-.168-.69-.357-1.357c-1.713-6.058-4.5-10.45-8.889-11.169-.551,1.5-5.919,3.988-10.617,3.744a3.078,3.078,0,0,1-1.292-.733c-3.711-.524-5.476-2.512-5.3-2.78-.156.012-3.9,1.06-3.9,1.06-3.246,14.193-3.635,22.079.271,42.319,1.426,7.393-.754,11.409-.271,11.894.845.847,10.194,1.09,17.711,1.381.9.034,1.793.066,2.66.094,5.495.179,10.021.243,10.021.243.373-.465,1.06-4.755,1.529-10.794C2183.7,1019.653,2183.9,1005.546,2181.38,995.4Z" transform="translate(-2079.777 -954.679)" fill="#f6f6f6"/>
      <path id="Trazado_106343" data-name="Trazado 106343" d="M2220.253,933.789l-4.469,3.7-6.805-1.051c.064-.655.4-3.5.694-5.919.24-1.979.448-3.679.448-3.679l8.129-3.253.245-.1c0,.041-.005.082-.007.122-.023.325-.037.643-.044.955A20.159,20.159,0,0,0,2220.253,933.789Z" transform="translate(-2130.478 -904.916)" fill="#e49963"/>
      <path id="Trazado_106344" data-name="Trazado 106344" d="M1831.692,1345.857c-22.749,1.634-29.832,1.339-30.63,2.432-5.022,6.881-5.53,8.069-15.717,21.859-1.944,2.631-4.239,5.72-6.986,9.4h-10.637s11.475-21.9,20.65-36.73c3.62-5.855,6.884-10.61,8.942-12.485,7.11-6.48,35.436-6.329,35.436-6.329s24.594-.595,26.53,3.048C1859.7,1327.84,1848.82,1344.625,1831.692,1345.857Z" transform="translate(-1760.677 -1240.536)" fill="#debc56"/>
      <path id="Trazado_106345" data-name="Trazado 106345" d="M1922.893,1345.857c-22.749,1.634-29.832,1.339-30.63,2.432-5.022,6.881-5.53,8.069-15.717,21.859l3.027-27.334c3.621-5.855,6.884-10.61,8.942-12.485,7.11-6.48,35.436-6.329,35.436-6.329s24.594-.595,26.53,3.048C1950.9,1327.84,1940.022,1344.625,1922.893,1345.857Z" transform="translate(-1851.878 -1240.536)" fill="#debc56"/>
      <path id="Trazado_106346" data-name="Trazado 106346" d="M1946.51,1330.524s-.759,13.776-17.888,15.007c-22.749,1.635-27.443,1.095-28.93,2.486-7.313,6.835-2.48,8.285-19.623,31.225H1869.3s13.143-43.535,19.094-48.743c7.229-6.326,36.2-6.384,36.2-6.384s20.237-1.934,22.172,1.708C1947.191,1326.616,1946.51,1330.524,1946.51,1330.524Z" transform="translate(-1845.806 -1240.233)" fill="#ce8d2e"/>
      <g id="Grupo_83498" data-name="Grupo 83498" transform="translate(79.185 69.255)">
        <path id="Trazado_106347" data-name="Trazado 106347" d="M2213.2,1288.57a24.3,24.3,0,0,0,3.647.464c.521.024,1.05.032,1.591.027.046,0,.092,0,.138,0l.418-.009a58.069,58.069,0,0,0,11.737-1.758c11.663-2.767,18.016-9.362,21.232-16.881a39.016,39.016,0,0,0,2.9-14.688,48.509,48.509,0,0,0-1.552-11.521,20.948,20.948,0,0,0-2.839-6.319c-.253-.375-.521-.742-.806-1.1-.09-.116-.184-.23-.28-.345C2241.349,1244.848,2217.065,1271.567,2213.2,1288.57Z" transform="translate(-2213.199 -1236.443)" fill="#5038a1"/>
        <path id="Trazado_106348" data-name="Trazado 106348" d="M2216.961,1290.354a24.293,24.293,0,0,0,3.648.464c.324.016.65.024.982.027.046,0,.092,0,.138,0l.418-.009a58.089,58.089,0,0,0,11.737-1.758c11.663-2.767,18.016-9.362,21.232-16.881a39.012,39.012,0,0,0,2.9-14.688,48.511,48.511,0,0,0-1.551-11.521,20.947,20.947,0,0,0-2.839-6.319c-.253-.375-.521-.742-.806-1.1C2244.469,1247.34,2220.776,1273.577,2216.961,1290.354Z" transform="translate(-2216.352 -1238.227)" fill="#8c6df2"/>
      </g>
      <g id="Grupo_83499" data-name="Grupo 83499" transform="translate(75.145 26.824)">
        <path id="Trazado_106349" data-name="Trazado 106349" d="M2192.136,975.513s.568,3.387,2.532,5l-2.911,3.328s-3.2-3.714-3.5-6.9A24.515,24.515,0,0,1,2192.136,975.513Z" transform="translate(-2188.253 -975.337)" fill="#8c6df2"/>
        <path id="Trazado_106350" data-name="Trazado 106350" d="M2235.206,974.428s-4.3,4.823-7.334,5.172l1.68,4.516s9.091-5.118,9.118-8.321A13.47,13.47,0,0,0,2235.206,974.428Z" transform="translate(-2221.455 -974.428)" fill="#8c6df2"/>
      </g>
      <path id="Trazado_106351" data-name="Trazado 106351" d="M2274.723,1131.1c-.469,6.04-.343,9.2-2.207,10.972,0,0-3.773,1.42-9.342-.421a8.2,8.2,0,0,1-4.121-4.137c-3.67-9.113,3.313-16.688,3.668-22.725s5.888-10.445,5.888-10.445S2275.474,1121.458,2274.723,1131.1Z" transform="translate(-2171.552 -1056.483)" fill="#e8e8e8"/>
      <path id="Trazado_106352" data-name="Trazado 106352" d="M2150.517,1646.692h-53.224c2.533-5.539,13.484-9.706,26.612-9.706S2147.983,1641.153,2150.517,1646.692Z" transform="translate(-2036.878 -1502.868)" fill="#5038a1"/>
      <path id="Trazado_106353" data-name="Trazado 106353" d="M2216.012,1277.021a33.679,33.679,0,0,0-4.793,1.6c-1.184.651-3.559,3.773-3.026,4.261,2.673,2.45,3.085-.266,6.369-1.154.6-.161,3.344-3.226,3.344-3.226Z" transform="translate(-2129.755 -1201.195)" fill="#e49963"/>
      <path id="Trazado_106354" data-name="Trazado 106354" d="M2050.424,1226.691l-5.42-18.74h-30.971l5.592,19.5h40.657v-.76Z" transform="translate(-1967.101 -1143.31)" fill="#739af0"/>
      <path id="Trazado_106355" data-name="Trazado 106355" d="M2258.994,982.869s6.15,1,9.228,4.2,8.285,29.354,6.983,33.023-11.718,11.126-19.175,14.2c0,0-3.669-1.657-3.906-4.5,0,0,12.665-10.652,13.257-13.493S2258.994,982.869,2258.994,982.869Z" transform="translate(-2166.636 -954.678)" fill="#f6f6f6"/>
      <path id="Trazado_106356" data-name="Trazado 106356" d="M2222.081,924.119c-.023.325-.037.642-.044.955-1.573,1.7-5.271,5.31-8.771,5.951.24-1.98.448-3.679.448-3.679l8.129-3.253Z" transform="translate(-2134.07 -905.421)" fill="#d68d5d"/>
      <path id="Trazado_106357" data-name="Trazado 106357" d="M2195.593,863.546s9.75.446,9.933-5.63,1.566-10.11-4.65-10.651-7.5,1.74-8.052,3.753S2193.061,863.274,2195.593,863.546Z" transform="translate(-2116.797 -840.966)" fill="#e49963"/>
      <path id="Trazado_106358" data-name="Trazado 106358" d="M2197.486,825.734s-.729-8.107-9.414-7.817-4.928-7.924,2.535-9.134c0,0-.779,2.894,3.915,3.352C2204.376,813.095,2198.362,824.447,2197.486,825.734Z" transform="translate(-2108.757 -808.783)" fill="#1c468a"/>
    </g>
    <g id="Grupo_83500" data-name="Grupo 83500" transform="translate(594.728 570.671)">
      <path id="Trazado_106359" data-name="Trazado 106359" d="M2316.385,1501.927l-.01-17.015a9.318,9.318,0,0,0-9.3-9.285l-39.261.023a9.318,9.318,0,0,0-9.285,9.3l.01,17.014a9.552,9.552,0,0,0,9.35,9.5l39.208-.241A9.317,9.317,0,0,0,2316.385,1501.927Z" transform="translate(-2258.533 -1468.84)" fill="#ce8d2e"/>
      <path id="Trazado_106360" data-name="Trazado 106360" d="M2348.349,1466.98l-.01-17.213a9.351,9.351,0,0,0-9.329-9.318l-13.495.008v-3.669a3.085,3.085,0,0,0-3.08-3.078h-.77l-7.022,0-3.933,0a3.084,3.084,0,0,0-3.075,3.081v3.669l-7.817.006a8.381,8.381,0,0,0-.889.044s-.006,0-.009,0,0,0-.007,0l-.042.006a9.351,9.351,0,0,0-8.372,9.279l.009,17.214a9.36,9.36,0,0,0,7.316,9.1l.006,0a9.171,9.171,0,0,0,2.008.219h.019l39.174-.023A9.349,9.349,0,0,0,2348.349,1466.98Zm-38.787-26.515V1436.8a1.148,1.148,0,0,1,1.148-1.149l3.822,0,6.532,0h1.372a1.133,1.133,0,0,1,.341.05,1.15,1.15,0,0,1,.808,1.1l0,3.67Z" transform="translate(-2285.323 -1433.709)" fill="#debc56"/>
    </g>
  </g>
</svg>
