<svg xmlns="http://www.w3.org/2000/svg" width="1240" height="660" viewBox="0 0 1240 660">
  <g id="Grupo_84329" data-name="Grupo 84329" transform="translate(-179.541 -2509)">
    <path id="Trazado_108070" data-name="Trazado 108070" d="M0,0H400V46a46,46,0,0,1-46,46H46A46,46,0,0,1,0,46Z" transform="translate(599.541 2509)" fill="#5038a1"/>
    <path id="Trazado_108071" data-name="Trazado 108071" d="M-115.09-16.584h-6.1V0h-4.1V-16.584H-131.3v-3.322h16.215ZM-108.842,0h-3.965V-14.793h3.965Zm-4.2-18.621a1.946,1.946,0,0,1,.595-1.463,2.234,2.234,0,0,1,1.62-.574,2.239,2.239,0,0,1,1.613.574,1.935,1.935,0,0,1,.6,1.463,1.94,1.94,0,0,1-.608,1.477,2.245,2.245,0,0,1-1.606.574,2.245,2.245,0,0,1-1.606-.574A1.94,1.94,0,0,1-113.039-18.621ZM-92.271-7.26a8.872,8.872,0,0,1-1.552,5.476A4.975,4.975,0,0,1-98.014.273a4.609,4.609,0,0,1-3.623-1.559V5.688h-3.951v-20.48h3.664l.137,1.449a4.644,4.644,0,0,1,3.746-1.723,5.009,5.009,0,0,1,4.252,2.023,9.112,9.112,0,0,1,1.518,5.578Zm-3.951-.3a5.854,5.854,0,0,0-.731-3.2,2.381,2.381,0,0,0-2.126-1.125,2.586,2.586,0,0,0-2.557,1.426v6.075a2.63,2.63,0,0,0,2.584,1.467Q-96.223-2.912-96.223-7.561Zm5.783.028a8.773,8.773,0,0,1,.848-3.924,6.205,6.205,0,0,1,2.44-2.666,7.12,7.12,0,0,1,3.7-.943,6.736,6.736,0,0,1,4.888,1.832,7.353,7.353,0,0,1,2.112,4.977l.027,1.012a7.732,7.732,0,0,1-1.9,5.462,6.606,6.606,0,0,1-5.1,2.058,6.639,6.639,0,0,1-5.106-2.051,7.868,7.868,0,0,1-1.907-5.578Zm3.951.28A5.53,5.53,0,0,0-85.7-4.028a2.616,2.616,0,0,0,2.27,1.116,2.622,2.622,0,0,0,2.242-1.1,6.051,6.051,0,0,0,.807-3.526,5.474,5.474,0,0,0-.807-3.2,2.622,2.622,0,0,0-2.27-1.136,2.579,2.579,0,0,0-2.242,1.13A6.153,6.153,0,0,0-86.488-7.253ZM-65.98-4.088A1.273,1.273,0,0,0-66.7-5.229,8.153,8.153,0,0,0-69-5.975q-5.277-1.107-5.277-4.484a4.065,4.065,0,0,1,1.634-3.288,6.591,6.591,0,0,1,4.272-1.319,7.093,7.093,0,0,1,4.5,1.326,4.179,4.179,0,0,1,1.688,3.445h-3.951a1.912,1.912,0,0,0-.547-1.4,2.314,2.314,0,0,0-1.709-.554,2.365,2.365,0,0,0-1.545.451,1.424,1.424,0,0,0-.547,1.148,1.217,1.217,0,0,0,.622,1.06,6.4,6.4,0,0,0,2.1.7,17.141,17.141,0,0,1,2.488.663q3.131,1.148,3.131,3.979A3.859,3.859,0,0,1-63.875-.978,7.49,7.49,0,0,1-68.359.273a7.823,7.823,0,0,1-3.3-.663,5.54,5.54,0,0,1-2.263-1.818,4.225,4.225,0,0,1-.82-2.5H-71a2.063,2.063,0,0,0,.779,1.613,3.091,3.091,0,0,0,1.941.561,2.861,2.861,0,0,0,1.716-.431A1.34,1.34,0,0,0-65.98-4.088Zm12.742-3.418a8.915,8.915,0,0,1,1.552-5.51,5.035,5.035,0,0,1,4.245-2.051,4.531,4.531,0,0,1,3.568,1.613V-21h3.965V0h-3.568l-.191-1.572a4.65,4.65,0,0,1-3.8,1.846,5.021,5.021,0,0,1-4.19-2.058A9.2,9.2,0,0,1-53.238-7.506Zm3.951.281a5.872,5.872,0,0,0,.725,3.2,2.359,2.359,0,0,0,2.105,1.113,2.643,2.643,0,0,0,2.584-1.552v-5.865a2.605,2.605,0,0,0-2.557-1.552Q-49.287-11.881-49.287-7.225Zm19.25,7.5a7.262,7.262,0,0,1-5.3-2,7.1,7.1,0,0,1-2.044-5.318v-.383a8.936,8.936,0,0,1,.861-3.985,6.321,6.321,0,0,1,2.44-2.707,6.85,6.85,0,0,1,3.6-.95A6.139,6.139,0,0,1-25.7-13.152a7.778,7.778,0,0,1,1.743,5.428v1.613h-9.42a3.671,3.671,0,0,0,1.155,2.324,3.492,3.492,0,0,0,2.44.875,4.265,4.265,0,0,0,3.568-1.654l1.941,2.174A5.931,5.931,0,0,1-26.674-.431,7.9,7.9,0,0,1-30.037.273Zm-.451-12.154a2.469,2.469,0,0,0-1.907.8,4.124,4.124,0,0,0-.937,2.28h5.5v-.316a2.942,2.942,0,0,0-.711-2.039A2.547,2.547,0,0,0-30.488-11.881Zm24.063.793A10.735,10.735,0,0,0-7.848-11.2,2.894,2.894,0,0,0-10.787-9.68V0h-3.951V-14.793h3.732l.109,1.764A3.661,3.661,0,0,1-7.6-15.066a4.14,4.14,0,0,1,1.23.178ZM2.023.273a7.262,7.262,0,0,1-5.3-2A7.1,7.1,0,0,1-5.318-7.041v-.383a8.936,8.936,0,0,1,.861-3.985,6.321,6.321,0,0,1,2.44-2.707,6.85,6.85,0,0,1,3.6-.95,6.139,6.139,0,0,1,4.778,1.914A7.778,7.778,0,0,1,8.107-7.725v1.613h-9.42A3.671,3.671,0,0,0-.157-3.787a3.492,3.492,0,0,0,2.44.875A4.265,4.265,0,0,0,5.852-4.566L7.793-2.393A5.931,5.931,0,0,1,5.387-.431,7.9,7.9,0,0,1,2.023.273ZM1.572-11.881a2.469,2.469,0,0,0-1.907.8A4.124,4.124,0,0,0-1.271-8.8h5.5v-.316a2.942,2.942,0,0,0-.711-2.039A2.547,2.547,0,0,0,1.572-11.881ZM17.158.273a7.262,7.262,0,0,1-5.3-2A7.1,7.1,0,0,1,9.816-7.041v-.383a8.936,8.936,0,0,1,.861-3.985,6.321,6.321,0,0,1,2.44-2.707,6.85,6.85,0,0,1,3.6-.95A6.139,6.139,0,0,1,21.5-13.152a7.778,7.778,0,0,1,1.743,5.428v1.613h-9.42a3.671,3.671,0,0,0,1.155,2.324,3.492,3.492,0,0,0,2.44.875,4.265,4.265,0,0,0,3.568-1.654l1.941,2.174A5.931,5.931,0,0,1,20.521-.431,7.9,7.9,0,0,1,17.158.273Zm-.451-12.154a2.469,2.469,0,0,0-1.907.8,4.124,4.124,0,0,0-.937,2.28h5.5v-.316a2.942,2.942,0,0,0-.711-2.039A2.547,2.547,0,0,0,16.707-11.881Zm12.482-2.912.123,1.654a5.2,5.2,0,0,1,4.252-1.928,3.945,3.945,0,0,1,3.924,2.256,5.079,5.079,0,0,1,4.443-2.256,4.412,4.412,0,0,1,3.582,1.4,6.441,6.441,0,0,1,1.176,4.218V0H42.725V-9.455a2.828,2.828,0,0,0-.492-1.843,2.178,2.178,0,0,0-1.736-.582,2.466,2.466,0,0,0-2.461,1.7L38.049,0H34.1V-9.442a2.793,2.793,0,0,0-.506-1.864,2.2,2.2,0,0,0-1.723-.576,2.56,2.56,0,0,0-2.434,1.4V0H25.484V-14.793ZM63.055-7.26a8.958,8.958,0,0,1-1.518,5.544A5.027,5.027,0,0,1,57.3.273a4.619,4.619,0,0,1-3.842-1.846L53.279,0H49.725V-21h3.951v7.533a4.5,4.5,0,0,1,3.6-1.6,5.068,5.068,0,0,1,4.245,1.989,8.971,8.971,0,0,1,1.538,5.6Zm-3.951-.3a5.918,5.918,0,0,0-.711-3.284,2.4,2.4,0,0,0-2.119-1.035,2.606,2.606,0,0,0-2.6,1.55v5.856A2.641,2.641,0,0,0,56.3-2.912,2.44,2.44,0,0,0,58.816-4.8,9.791,9.791,0,0,0,59.1-7.561Zm5.77.028a8.773,8.773,0,0,1,.848-3.924,6.205,6.205,0,0,1,2.44-2.666,7.12,7.12,0,0,1,3.7-.943,6.736,6.736,0,0,1,4.888,1.832,7.353,7.353,0,0,1,2.112,4.977l.027,1.012a7.732,7.732,0,0,1-1.9,5.462,6.606,6.606,0,0,1-5.1,2.058A6.639,6.639,0,0,1,66.78-1.777a7.868,7.868,0,0,1-1.907-5.578Zm3.951.28a5.53,5.53,0,0,0,.793,3.225,2.616,2.616,0,0,0,2.27,1.116,2.622,2.622,0,0,0,2.242-1.1,6.051,6.051,0,0,0,.807-3.526,5.474,5.474,0,0,0-.807-3.2,2.622,2.622,0,0,0-2.27-1.136,2.579,2.579,0,0,0-2.242,1.13A6.153,6.153,0,0,0,68.824-7.253ZM85.49,0H81.525V-21H85.49ZM96.756-4.088a1.273,1.273,0,0,0-.718-1.142,8.153,8.153,0,0,0-2.3-.745q-5.277-1.107-5.277-4.484a4.065,4.065,0,0,1,1.634-3.288,6.591,6.591,0,0,1,4.272-1.319,7.093,7.093,0,0,1,4.5,1.326,4.179,4.179,0,0,1,1.688,3.445H96.605a1.912,1.912,0,0,0-.547-1.4,2.314,2.314,0,0,0-1.709-.554A2.365,2.365,0,0,0,92.8-11.8a1.424,1.424,0,0,0-.547,1.148,1.217,1.217,0,0,0,.622,1.06,6.4,6.4,0,0,0,2.1.7,17.141,17.141,0,0,1,2.488.663Q100.6-7.082,100.6-4.252A3.859,3.859,0,0,1,98.861-.978,7.49,7.49,0,0,1,94.377.273a7.823,7.823,0,0,1-3.3-.663,5.54,5.54,0,0,1-2.263-1.818,4.225,4.225,0,0,1-.82-2.5h3.746a2.063,2.063,0,0,0,.779,1.613,3.091,3.091,0,0,0,1.941.561,2.861,2.861,0,0,0,1.716-.431A1.34,1.34,0,0,0,96.756-4.088Zm5.77-3.445a8.773,8.773,0,0,1,.848-3.924,6.205,6.205,0,0,1,2.44-2.666,7.12,7.12,0,0,1,3.7-.943,6.736,6.736,0,0,1,4.888,1.832,7.353,7.353,0,0,1,2.112,4.977l.027,1.012a7.732,7.732,0,0,1-1.9,5.462,6.606,6.606,0,0,1-5.1,2.058,6.639,6.639,0,0,1-5.106-2.051,7.868,7.868,0,0,1-1.907-5.578Zm3.951.28a5.53,5.53,0,0,0,.793,3.225,2.616,2.616,0,0,0,2.27,1.116,2.622,2.622,0,0,0,2.242-1.1,6.051,6.051,0,0,0,.807-3.526,5.474,5.474,0,0,0-.807-3.2,2.622,2.622,0,0,0-2.27-1.136,2.579,2.579,0,0,0-2.242,1.13A6.153,6.153,0,0,0,106.477-7.253Zm20.508,3.165a1.273,1.273,0,0,0-.718-1.142,8.153,8.153,0,0,0-2.3-.745q-5.277-1.107-5.277-4.484a4.065,4.065,0,0,1,1.634-3.288,6.591,6.591,0,0,1,4.272-1.319,7.093,7.093,0,0,1,4.5,1.326,4.179,4.179,0,0,1,1.688,3.445h-3.951a1.912,1.912,0,0,0-.547-1.4,2.314,2.314,0,0,0-1.709-.554,2.365,2.365,0,0,0-1.545.451,1.424,1.424,0,0,0-.547,1.148,1.217,1.217,0,0,0,.622,1.06,6.4,6.4,0,0,0,2.1.7,17.141,17.141,0,0,1,2.488.663q3.131,1.148,3.131,3.979A3.859,3.859,0,0,1,129.09-.978,7.49,7.49,0,0,1,124.605.273a7.823,7.823,0,0,1-3.3-.663,5.54,5.54,0,0,1-2.263-1.818,4.225,4.225,0,0,1-.82-2.5h3.746a2.063,2.063,0,0,0,.779,1.613,3.091,3.091,0,0,0,1.941.561A2.861,2.861,0,0,0,126.4-2.96,1.34,1.34,0,0,0,126.984-4.088Z" transform="translate(799.541 2562)" fill="#fff"/>
    <path id="Trazado_108072" data-name="Trazado 108072" d="M0,0V60" transform="translate(799.541 2601)" fill="none" stroke="#ffb74d" stroke-width="4" stroke-dasharray="6"/>
    <path id="Trazado_108059" data-name="Trazado 108059" d="M0,0V230" transform="translate(853.541 2836)" fill="none" stroke="#ffb74d" stroke-width="4" stroke-dasharray="8"/>
    <path id="Trazado_108047" data-name="Trazado 108047" d="M0,0V230" transform="translate(1272.541 2836)" fill="none" stroke="#ffb74d" stroke-width="4" stroke-dasharray="8"/>
    <path id="Trazado_108084" data-name="Trazado 108084" d="M0,0V283" transform="translate(327.541 2659)" fill="none" stroke="#ffb74d" stroke-width="4" stroke-dasharray="8"/>
    <path id="Trazado_108060" data-name="Trazado 108060" d="M0,0V179" transform="translate(1062.541 2659)" fill="none" stroke="#ffb74d" stroke-width="4" stroke-dasharray="8"/>
    <path id="Trazado_108073" data-name="Trazado 108073" d="M735,0H0" transform="translate(327.041 2661)" fill="none" stroke="#ffb74d" stroke-width="4" stroke-dasharray="8"/>
    <path id="Trazado_108061" data-name="Trazado 108061" d="M422,0H0" transform="translate(852.041 2838)" fill="none" stroke="#ffb74d" stroke-width="4" stroke-dasharray="8"/>
    <path id="Trazado_108074" data-name="Trazado 108074" d="M0,0H295V14a46,46,0,0,1-46,46H46A46,46,0,0,1,0,14Z" transform="translate(179.541 2721)" fill="#8c6df2"/>
    <path id="Trazado_108075" data-name="Trazado 108075" d="M0,0H294V151a46,46,0,0,1-46,46H46A46,46,0,0,1,0,151Z" transform="translate(180.541 2841)" fill="#ffebad"/>
    <path id="Trazado_108048" data-name="Trazado 108048" d="M0,0H294V105a46,46,0,0,1-46,46H46A46,46,0,0,1,0,105Z" transform="translate(705.541 3018)" fill="#ffebad"/>
    <path id="Trazado_108049" data-name="Trazado 108049" d="M0,0H294V105a46,46,0,0,1-46,46H46A46,46,0,0,1,0,105Z" transform="translate(1125.541 3018)" fill="#ffebad"/>
    <path id="Trazado_108062" data-name="Trazado 108062" d="M0,0H295V14a46,46,0,0,1-46,46H46A46,46,0,0,1,0,14Z" transform="translate(914.541 2721)" fill="#8c6df2"/>
    <path id="Trazado_108055" data-name="Trazado 108055" d="M0,0H295V14a46,46,0,0,1-46,46H46A46,46,0,0,1,0,14Z" transform="translate(704.541 2898)" fill="#d8ccff"/>
    <path id="Trazado_108056" data-name="Trazado 108056" d="M0,0H295V14a46,46,0,0,1-46,46H46A46,46,0,0,1,0,14Z" transform="translate(1124.541 2898)" fill="#d8ccff"/>
    <path id="Trazado_108079" data-name="Trazado 108079" d="M-65.338,0h-3.516V-17.062h3.516Zm6.152-12.68.105,1.465a4.427,4.427,0,0,1,3.645-1.7,3.679,3.679,0,0,1,3,1.184,5.522,5.522,0,0,1,1.008,3.539V0h-3.387V-8.128A2.206,2.206,0,0,0-55.283-9.7a2.1,2.1,0,0,0-1.559-.487,2.329,2.329,0,0,0-2.145,1.221V0h-3.387V-12.68Zm15.07,8.543,2.355-8.543h3.539L-42.5,0h-3.234L-50.01-12.68h3.539Zm6.68-2.32a7.52,7.52,0,0,1,.727-3.363,5.319,5.319,0,0,1,2.092-2.285,6.1,6.1,0,0,1,3.17-.809,5.774,5.774,0,0,1,4.189,1.57,6.3,6.3,0,0,1,1.811,4.266l.023.867a6.627,6.627,0,0,1-1.629,4.682A5.662,5.662,0,0,1-31.424.234,5.69,5.69,0,0,1-35.8-1.523,6.744,6.744,0,0,1-37.436-6.3Zm3.387.24a4.74,4.74,0,0,0,.68,2.764,2.242,2.242,0,0,0,1.945.957A2.247,2.247,0,0,0-29.5-3.441a5.186,5.186,0,0,0,.691-3.022A4.692,4.692,0,0,0-29.5-9.209a2.248,2.248,0,0,0-1.945-.974,2.211,2.211,0,0,0-1.922.968A5.274,5.274,0,0,0-34.049-6.217ZM-19.764,0h-3.4V-18h3.4ZM-9.381-1.289A4.247,4.247,0,0,1-12.85.234,4.005,4.005,0,0,1-15.961-.937a5,5,0,0,1-1.1-3.434V-12.68h3.387v8.2q0,1.983,1.8,1.983A2.445,2.445,0,0,0-9.5-3.693V-12.68h3.4V0H-9.287ZM-.428-12.68l.105,1.465a4.427,4.427,0,0,1,3.645-1.7,3.679,3.679,0,0,1,3,1.184A5.522,5.522,0,0,1,7.33-8.191V0H3.943V-8.128A2.206,2.206,0,0,0,3.475-9.7a2.1,2.1,0,0,0-1.559-.487A2.329,2.329,0,0,0-.229-8.962V0H-3.615V-12.68ZM13.951-15.8v3.117h2.168V-10.2H13.951v6.328a1.511,1.511,0,0,0,.27,1.008,1.354,1.354,0,0,0,1.031.3,5.4,5.4,0,0,0,1-.082V-.07a6.972,6.972,0,0,1-2.051.3q-3.562,0-3.633-3.6V-10.2H8.713V-12.68h1.852V-15.8ZM25.354,0a3.761,3.761,0,0,1-.34-1.137,4.1,4.1,0,0,1-3.2,1.371A4.5,4.5,0,0,1,18.727-.844,3.467,3.467,0,0,1,17.5-3.562,3.583,3.583,0,0,1,19-6.656a7.373,7.373,0,0,1,4.318-1.09h1.559v-.727a2.089,2.089,0,0,0-.451-1.406A1.775,1.775,0,0,0,23-10.406a2.018,2.018,0,0,0-1.342.41,1.393,1.393,0,0,0-.486,1.125H17.783a3.4,3.4,0,0,1,.68-2.039,4.493,4.493,0,0,1,1.922-1.471,7,7,0,0,1,2.789-.533,5.534,5.534,0,0,1,3.721,1.178,4.12,4.12,0,0,1,1.377,3.311v5.5a6.062,6.062,0,0,0,.5,2.73V0Zm-2.8-2.355a2.917,2.917,0,0,0,1.383-.334,2.194,2.194,0,0,0,.938-.9v-2.18H23.607q-2.543,0-2.707,1.758l-.012.2a1.356,1.356,0,0,0,.445,1.043A1.73,1.73,0,0,0,22.553-2.355ZM38-9.5A9.2,9.2,0,0,0,36.779-9.6a2.481,2.481,0,0,0-2.52,1.3V0H30.873V-12.68h3.2l.094,1.512a3.138,3.138,0,0,1,2.824-1.746,3.549,3.549,0,0,1,1.055.152ZM43.2,0H39.8V-12.68h3.4ZM39.6-15.961a1.668,1.668,0,0,1,.51-1.254,1.915,1.915,0,0,1,1.389-.492,1.919,1.919,0,0,1,1.383.492,1.658,1.658,0,0,1,.516,1.254,1.663,1.663,0,0,1-.521,1.266A1.924,1.924,0,0,1,41.5-14.2a1.924,1.924,0,0,1-1.377-.492A1.663,1.663,0,0,1,39.6-15.961Zm5.859,9.5a7.52,7.52,0,0,1,.727-3.363,5.319,5.319,0,0,1,2.092-2.285,6.1,6.1,0,0,1,3.17-.809,5.774,5.774,0,0,1,4.189,1.57,6.3,6.3,0,0,1,1.811,4.266l.023.867a6.627,6.627,0,0,1-1.629,4.682A5.662,5.662,0,0,1,51.475.234,5.69,5.69,0,0,1,47.1-1.523,6.744,6.744,0,0,1,45.463-6.3Zm3.387.24a4.74,4.74,0,0,0,.68,2.764,2.242,2.242,0,0,0,1.945.957A2.247,2.247,0,0,0,53.4-3.441a5.186,5.186,0,0,0,.691-3.022A4.692,4.692,0,0,0,53.4-9.209a2.248,2.248,0,0,0-1.945-.974,2.211,2.211,0,0,0-1.922.968A5.274,5.274,0,0,0,48.85-6.217ZM66.428-3.5a1.091,1.091,0,0,0-.615-.979,6.989,6.989,0,0,0-1.975-.639q-4.523-.949-4.523-3.844a3.484,3.484,0,0,1,1.4-2.818,5.649,5.649,0,0,1,3.662-1.131,6.08,6.08,0,0,1,3.861,1.137,3.582,3.582,0,0,1,1.447,2.953H66.3a1.639,1.639,0,0,0-.469-1.2,1.984,1.984,0,0,0-1.465-.475,2.027,2.027,0,0,0-1.324.387,1.221,1.221,0,0,0-.469.984,1.044,1.044,0,0,0,.533.908,5.485,5.485,0,0,0,1.8.6,14.693,14.693,0,0,1,2.133.568q2.684.984,2.684,3.41A3.307,3.307,0,0,1,68.232-.838,6.42,6.42,0,0,1,64.389.234a6.706,6.706,0,0,1-2.83-.568,4.748,4.748,0,0,1-1.939-1.559,3.621,3.621,0,0,1-.7-2.139h3.211a1.768,1.768,0,0,0,.668,1.383,2.649,2.649,0,0,0,1.664.48,2.452,2.452,0,0,0,1.471-.369A1.149,1.149,0,0,0,66.428-3.5Z" transform="translate(327.541 2759)" fill="#fff"/>
    <path id="Trazado_108080" data-name="Trazado 108080" d="M-65.848-3.609A4.185,4.185,0,0,1-67.18-.824a4.365,4.365,0,0,1-2.98.98,4.008,4.008,0,0,1-3.23-1.445,5.815,5.815,0,0,1-1.215-3.867V-6.25a6.481,6.481,0,0,1,.566-2.789,4.231,4.231,0,0,1,1.605-1.848,4.47,4.47,0,0,1,2.406-.645,4.11,4.11,0,0,1,2.906,1.012,4.235,4.235,0,0,1,1.273,2.8h-1.508A3.268,3.268,0,0,0-68.2-9.693a2.565,2.565,0,0,0-1.824-.611,2.684,2.684,0,0,0-2.254,1.063A4.882,4.882,0,0,0-73.1-6.215v1.1a5.018,5.018,0,0,0,.773,2.948A2.5,2.5,0,0,0-70.16-1.07a2.886,2.886,0,0,0,1.918-.566,3.143,3.143,0,0,0,.887-1.973ZM-58.809,0a3.036,3.036,0,0,1-.2-.891A3.225,3.225,0,0,1-61.418.156a2.984,2.984,0,0,1-2.051-.707,2.288,2.288,0,0,1-.8-1.793,2.39,2.39,0,0,1,1-2.051,4.733,4.733,0,0,1,2.824-.73h1.406v-.664A1.623,1.623,0,0,0-59.488-7a1.821,1.821,0,0,0-1.336-.449,2.107,2.107,0,0,0-1.3.391,1.151,1.151,0,0,0-.523.945H-64.1a2,2,0,0,1,.449-1.223,3.066,3.066,0,0,1,1.219-.934,4.1,4.1,0,0,1,1.691-.344,3.342,3.342,0,0,1,2.289.73,2.635,2.635,0,0,1,.859,2.012v3.891a4.757,4.757,0,0,0,.3,1.852V0Zm-2.4-1.1a2.54,2.54,0,0,0,1.289-.352,2.127,2.127,0,0,0,.883-.914V-4.1h-1.133q-2.656,0-2.656,1.555a1.316,1.316,0,0,0,.453,1.063A1.742,1.742,0,0,0-61.207-1.1Zm7.25-7.352.047,1.063a3.08,3.08,0,0,1,2.531-1.219q2.68,0,2.7,3.023V0h-1.445V-5.594a1.946,1.946,0,0,0-.418-1.352,1.675,1.675,0,0,0-1.277-.437,2.086,2.086,0,0,0-1.234.375,2.546,2.546,0,0,0-.828.984V0h-1.445V-8.453Zm10.852,7.43a2.082,2.082,0,0,0,1.352-.469,1.649,1.649,0,0,0,.641-1.172h1.367a2.621,2.621,0,0,1-.5,1.383,3.293,3.293,0,0,1-1.23,1.047,3.55,3.55,0,0,1-1.629.391A3.482,3.482,0,0,1-45.852-1a4.59,4.59,0,0,1-1.02-3.152v-.242a5.089,5.089,0,0,1,.453-2.2,3.451,3.451,0,0,1,1.3-1.492,3.7,3.7,0,0,1,2-.531,3.39,3.39,0,0,1,2.363.852,3.043,3.043,0,0,1,1,2.211h-1.367a1.992,1.992,0,0,0-.621-1.348,1.932,1.932,0,0,0-1.379-.527,2.023,2.023,0,0,0-1.707.793,3.724,3.724,0,0,0-.605,2.293v.273a3.65,3.65,0,0,0,.6,2.25A2.033,2.033,0,0,0-43.105-1.023Zm8.492,1.18a3.693,3.693,0,0,1-2.8-1.129,4.19,4.19,0,0,1-1.078-3.02v-.266a5.073,5.073,0,0,1,.48-2.246,3.748,3.748,0,0,1,1.344-1.547,3.378,3.378,0,0,1,1.871-.559A3.166,3.166,0,0,1-32.23-7.523a4.7,4.7,0,0,1,.914,3.109v.6h-5.727a3,3,0,0,0,.73,2.02,2.3,2.3,0,0,0,1.777.77,2.517,2.517,0,0,0,1.3-.312,3.259,3.259,0,0,0,.93-.828l.883.688A3.55,3.55,0,0,1-34.613.156Zm-.18-7.578a1.928,1.928,0,0,0-1.469.637A3.1,3.1,0,0,0-37-5h4.234v-.109a2.753,2.753,0,0,0-.594-1.707A1.815,1.815,0,0,0-34.793-7.422ZM-28.074,0H-29.52V-12h1.445Zm7.531,0a3.036,3.036,0,0,1-.2-.891A3.225,3.225,0,0,1-23.152.156,2.984,2.984,0,0,1-25.2-.551,2.287,2.287,0,0,1-26-2.344a2.39,2.39,0,0,1,1-2.051,4.733,4.733,0,0,1,2.824-.73h1.406v-.664A1.623,1.623,0,0,0-21.223-7a1.821,1.821,0,0,0-1.336-.449,2.108,2.108,0,0,0-1.3.391,1.151,1.151,0,0,0-.523.945h-1.453a2,2,0,0,1,.449-1.223,3.066,3.066,0,0,1,1.219-.934,4.1,4.1,0,0,1,1.691-.344,3.342,3.342,0,0,1,2.289.73,2.635,2.635,0,0,1,.859,2.012v3.891a4.757,4.757,0,0,0,.3,1.852V0Zm-2.4-1.1a2.54,2.54,0,0,0,1.289-.352,2.127,2.127,0,0,0,.883-.914V-4.1H-21.9q-2.656,0-2.656,1.555a1.316,1.316,0,0,0,.453,1.063A1.742,1.742,0,0,0-22.941-1.1Zm9.273.078a2.082,2.082,0,0,0,1.352-.469,1.649,1.649,0,0,0,.641-1.172h1.367a2.621,2.621,0,0,1-.5,1.383,3.293,3.293,0,0,1-1.23,1.047,3.55,3.55,0,0,1-1.629.391A3.482,3.482,0,0,1-16.414-1a4.59,4.59,0,0,1-1.02-3.152v-.242a5.089,5.089,0,0,1,.453-2.2,3.451,3.451,0,0,1,1.3-1.492,3.7,3.7,0,0,1,2-.531,3.39,3.39,0,0,1,2.363.852,3.043,3.043,0,0,1,1,2.211h-1.367A1.992,1.992,0,0,0-12.3-6.895a1.932,1.932,0,0,0-1.379-.527,2.023,2.023,0,0,0-1.707.793,3.724,3.724,0,0,0-.605,2.293v.273a3.65,3.65,0,0,0,.6,2.25A2.033,2.033,0,0,0-13.668-1.023ZM-7.113,0H-8.559V-8.453h1.445ZM-8.676-10.7a.863.863,0,0,1,.215-.594.807.807,0,0,1,.637-.242.819.819,0,0,1,.641.242.854.854,0,0,1,.219.594.826.826,0,0,1-.219.586.834.834,0,0,1-.641.234.821.821,0,0,1-.637-.234A.834.834,0,0,1-8.676-10.7ZM-5.184-4.3A4.993,4.993,0,0,1-4.7-6.539,3.643,3.643,0,0,1-3.336-8.07a3.7,3.7,0,0,1,1.988-.539,3.565,3.565,0,0,1,2.793,1.2,4.6,4.6,0,0,1,1.066,3.18v.1a5.036,5.036,0,0,1-.473,2.215A3.589,3.589,0,0,1,.688-.391a3.743,3.743,0,0,1-2.02.547,3.556,3.556,0,0,1-2.785-1.2A4.575,4.575,0,0,1-5.184-4.2Zm1.453.172a3.616,3.616,0,0,0,.652,2.258,2.088,2.088,0,0,0,1.746.852,2.075,2.075,0,0,0,1.75-.863A3.955,3.955,0,0,0,1.066-4.3a3.61,3.61,0,0,0-.66-2.254,2.1,2.1,0,0,0-1.754-.863,2.075,2.075,0,0,0-1.727.852A3.925,3.925,0,0,0-3.73-4.133Zm3.039-7.852h1.75l-2.094,2.3-1.164,0ZM5.691-8.453l.047,1.063A3.08,3.08,0,0,1,8.27-8.609q2.68,0,2.7,3.023V0H9.527V-5.594a1.946,1.946,0,0,0-.418-1.352,1.675,1.675,0,0,0-1.277-.437A2.086,2.086,0,0,0,6.6-7.008a2.546,2.546,0,0,0-.828.984V0H4.324V-8.453ZM16.762-4.3a4.952,4.952,0,0,1,.922-3.129A2.915,2.915,0,0,1,20.1-8.609a2.932,2.932,0,0,1,2.352,1.016V-12h1.445V0H22.566L22.5-.906A2.943,2.943,0,0,1,20.082.156a2.887,2.887,0,0,1-2.395-1.2,5.008,5.008,0,0,1-.926-3.141Zm1.445.164a3.749,3.749,0,0,0,.594,2.25,1.92,1.92,0,0,0,1.641.813A2.108,2.108,0,0,0,22.449-2.3V-6.187a2.125,2.125,0,0,0-1.992-1.2,1.929,1.929,0,0,0-1.656.82A4.128,4.128,0,0,0,18.207-4.133ZM29.645.156a3.693,3.693,0,0,1-2.8-1.129,4.19,4.19,0,0,1-1.078-3.02v-.266A5.073,5.073,0,0,1,26.25-6.5a3.748,3.748,0,0,1,1.344-1.547,3.378,3.378,0,0,1,1.871-.559,3.166,3.166,0,0,1,2.563,1.086,4.7,4.7,0,0,1,.914,3.109v.6H27.215a3,3,0,0,0,.73,2.02,2.3,2.3,0,0,0,1.777.77,2.517,2.517,0,0,0,1.3-.312,3.259,3.259,0,0,0,.93-.828l.883.688A3.55,3.55,0,0,1,29.645.156Zm-.18-7.578A1.928,1.928,0,0,0,28-6.785,3.1,3.1,0,0,0,27.262-5H31.5v-.109A2.753,2.753,0,0,0,30.9-6.816,1.815,1.815,0,0,0,29.465-7.422Zm11.9,5.461,2.094-6.492h1.477L41.9,0H40.8L37.738-8.453h1.477ZM51.543-.836a3.07,3.07,0,0,1-2.477.992,2.628,2.628,0,0,1-2.059-.785,3.4,3.4,0,0,1-.715-2.324v-5.5h1.445v5.461q0,1.922,1.563,1.922A2.163,2.163,0,0,0,51.5-2.3V-8.453h1.445V0H51.574Zm7.109.992a3.693,3.693,0,0,1-2.8-1.129,4.19,4.19,0,0,1-1.078-3.02v-.266a5.073,5.073,0,0,1,.48-2.246A3.748,3.748,0,0,1,56.6-8.051a3.378,3.378,0,0,1,1.871-.559,3.166,3.166,0,0,1,2.563,1.086,4.7,4.7,0,0,1,.914,3.109v.6H56.223a3,3,0,0,0,.73,2.02,2.3,2.3,0,0,0,1.777.77,2.517,2.517,0,0,0,1.3-.312,3.259,3.259,0,0,0,.93-.828l.883.688A3.55,3.55,0,0,1,58.652.156Zm-.18-7.578A1.928,1.928,0,0,0,57-6.785,3.1,3.1,0,0,0,56.27-5H60.5v-.109a2.753,2.753,0,0,0-.594-1.707A1.815,1.815,0,0,0,58.473-7.422ZM65.191,0H63.746V-12h1.445Zm1.93-4.3a4.993,4.993,0,0,1,.488-2.234A3.643,3.643,0,0,1,68.969-8.07a3.7,3.7,0,0,1,1.988-.539,3.565,3.565,0,0,1,2.793,1.2,4.6,4.6,0,0,1,1.066,3.18v.1a5.036,5.036,0,0,1-.473,2.215A3.589,3.589,0,0,1,72.992-.391a3.743,3.743,0,0,1-2.02.547,3.556,3.556,0,0,1-2.785-1.2A4.575,4.575,0,0,1,67.121-4.2Zm1.453.172a3.616,3.616,0,0,0,.652,2.258,2.088,2.088,0,0,0,1.746.852,2.075,2.075,0,0,0,1.75-.863A3.955,3.955,0,0,0,73.371-4.3a3.61,3.61,0,0,0-.66-2.254,2.1,2.1,0,0,0-1.754-.863,2.075,2.075,0,0,0-1.727.852A3.925,3.925,0,0,0,68.574-4.133Z" transform="translate(327.541 2878)" fill="#12263f"/>
    <path id="Trazado_108063" data-name="Trazado 108063" d="M-35.465-5.258h-4.93v4.031h5.727V0h-7.227V-11.375h7.148v1.227h-5.648v3.664h4.93Zm3.8-3.2.047,1.063a3.08,3.08,0,0,1,2.531-1.219q2.68,0,2.7,3.023V0h-1.445V-5.594a1.946,1.946,0,0,0-.418-1.352,1.675,1.675,0,0,0-1.277-.437,2.086,2.086,0,0,0-1.234.375,2.546,2.546,0,0,0-.828.984V0h-1.445V-8.453ZM-23.488,0V-7.336h-1.336V-8.453h1.336V-9.32a2.878,2.878,0,0,1,.727-2.1,2.745,2.745,0,0,1,2.055-.742,3.816,3.816,0,0,1,.992.132l-.078,1.165a4.151,4.151,0,0,0-.781-.07,1.41,1.41,0,0,0-1.086.411,1.669,1.669,0,0,0-.383,1.18v.893h1.8v1.117h-1.8V0Zm8.164.156a3.693,3.693,0,0,1-2.8-1.129A4.19,4.19,0,0,1-19.2-3.992v-.266a5.073,5.073,0,0,1,.48-2.246,3.748,3.748,0,0,1,1.344-1.547A3.378,3.378,0,0,1-15.5-8.609a3.166,3.166,0,0,1,2.563,1.086,4.7,4.7,0,0,1,.914,3.109v.6h-5.727a3,3,0,0,0,.73,2.02,2.3,2.3,0,0,0,1.777.77,2.517,2.517,0,0,0,1.3-.312,3.259,3.259,0,0,0,.93-.828l.883.688A3.55,3.55,0,0,1-15.324.156Zm-.18-7.578a1.928,1.928,0,0,0-1.469.637A3.1,3.1,0,0,0-17.707-5h4.234v-.109a2.753,2.753,0,0,0-.594-1.707A1.815,1.815,0,0,0-15.5-7.422Zm9.234.266a4.331,4.331,0,0,0-.711-.055A1.9,1.9,0,0,0-8.91-6V0h-1.445V-8.453h1.406l.023.977A2.251,2.251,0,0,1-6.91-8.609,1.477,1.477,0,0,1-6.27-8.5Zm2.688-1.3.039.938A3.122,3.122,0,0,1-1.035-8.609,2.417,2.417,0,0,1,1.379-7.25a3.2,3.2,0,0,1,1.1-.984,3.242,3.242,0,0,1,1.6-.375q2.781,0,2.828,2.945V0H5.457V-5.578a1.941,1.941,0,0,0-.414-1.355,1.823,1.823,0,0,0-1.391-.449,1.916,1.916,0,0,0-1.336.48A1.949,1.949,0,0,0,1.7-5.609V0H.246V-5.539a1.613,1.613,0,0,0-1.8-1.844A1.934,1.934,0,0,0-3.5-6.172V0H-4.949V-8.453ZM12.59.156a3.693,3.693,0,0,1-2.8-1.129,4.19,4.19,0,0,1-1.078-3.02v-.266A5.073,5.073,0,0,1,9.2-6.5a3.748,3.748,0,0,1,1.344-1.547,3.378,3.378,0,0,1,1.871-.559,3.166,3.166,0,0,1,2.563,1.086,4.7,4.7,0,0,1,.914,3.109v.6H10.16a3,3,0,0,0,.73,2.02,2.3,2.3,0,0,0,1.777.77,2.517,2.517,0,0,0,1.3-.312,3.259,3.259,0,0,0,.93-.828l.883.688A3.55,3.55,0,0,1,12.59.156Zm-.18-7.578a1.928,1.928,0,0,0-1.469.637A3.1,3.1,0,0,0,10.207-5h4.234v-.109a2.753,2.753,0,0,0-.594-1.707A1.815,1.815,0,0,0,12.41-7.422Zm4.8,3.125a4.952,4.952,0,0,1,.922-3.129,2.915,2.915,0,0,1,2.414-1.184,2.932,2.932,0,0,1,2.352,1.016V-12H24.34V0H23.012l-.07-.906A2.943,2.943,0,0,1,20.527.156a2.887,2.887,0,0,1-2.395-1.2,5.008,5.008,0,0,1-.926-3.141Zm1.445.164a3.749,3.749,0,0,0,.594,2.25,1.92,1.92,0,0,0,1.641.813A2.108,2.108,0,0,0,22.895-2.3V-6.187a2.125,2.125,0,0,0-1.992-1.2,1.929,1.929,0,0,0-1.656.82A4.128,4.128,0,0,0,18.652-4.133ZM31.8,0a3.036,3.036,0,0,1-.2-.891A3.225,3.225,0,0,1,29.191.156a2.984,2.984,0,0,1-2.051-.707,2.287,2.287,0,0,1-.8-1.793,2.39,2.39,0,0,1,1-2.051,4.733,4.733,0,0,1,2.824-.73h1.406v-.664A1.623,1.623,0,0,0,31.121-7a1.821,1.821,0,0,0-1.336-.449,2.108,2.108,0,0,0-1.3.391,1.151,1.151,0,0,0-.523.945H26.512a2,2,0,0,1,.449-1.223,3.066,3.066,0,0,1,1.219-.934,4.1,4.1,0,0,1,1.691-.344,3.342,3.342,0,0,1,2.289.73,2.635,2.635,0,0,1,.859,2.012v3.891a4.757,4.757,0,0,0,.3,1.852V0ZM29.4-1.1a2.54,2.54,0,0,0,1.289-.352,2.127,2.127,0,0,0,.883-.914V-4.1H30.441q-2.656,0-2.656,1.555a1.316,1.316,0,0,0,.453,1.063A1.742,1.742,0,0,0,29.4-1.1Zm5.531-3.2a4.952,4.952,0,0,1,.922-3.129A2.915,2.915,0,0,1,38.27-8.609a2.932,2.932,0,0,1,2.352,1.016V-12h1.445V0H40.738l-.07-.906A2.943,2.943,0,0,1,38.254.156a2.887,2.887,0,0,1-2.395-1.2,5.008,5.008,0,0,1-.926-3.141Zm1.445.164a3.749,3.749,0,0,0,.594,2.25,1.92,1.92,0,0,0,1.641.813A2.108,2.108,0,0,0,40.621-2.3V-6.187a2.125,2.125,0,0,0-1.992-1.2,1.929,1.929,0,0,0-1.656.82A4.128,4.128,0,0,0,36.379-4.133Z" transform="translate(852.541 3055)" fill="#12263f"/>
    <path id="Trazado_108050" data-name="Trazado 108050" d="M-24.473-4.6h-2.672V0h-1.508V-11.375h3.766a4.457,4.457,0,0,1,2.957.875,3.148,3.148,0,0,1,1.035,2.547A3.062,3.062,0,0,1-21.469-6.1a3.428,3.428,0,0,1-1.6,1.18l2.672,4.828V0H-22Zm-2.672-1.227h2.3a2.6,2.6,0,0,0,1.777-.579,1.959,1.959,0,0,0,.66-1.55,2.062,2.062,0,0,0-.629-1.62,2.663,2.663,0,0,0-1.816-.571h-2.3ZM-15.512.156a3.693,3.693,0,0,1-2.8-1.129,4.19,4.19,0,0,1-1.078-3.02v-.266a5.073,5.073,0,0,1,.48-2.246,3.748,3.748,0,0,1,1.344-1.547,3.378,3.378,0,0,1,1.871-.559,3.166,3.166,0,0,1,2.563,1.086,4.7,4.7,0,0,1,.914,3.109v.6h-5.727a3,3,0,0,0,.73,2.02,2.3,2.3,0,0,0,1.777.77,2.517,2.517,0,0,0,1.3-.312,3.259,3.259,0,0,0,.93-.828l.883.688A3.55,3.55,0,0,1-15.512.156Zm-.18-7.578a1.928,1.928,0,0,0-1.469.637A3.1,3.1,0,0,0-17.895-5h4.234v-.109a2.753,2.753,0,0,0-.594-1.707A1.815,1.815,0,0,0-15.691-7.422ZM-8.582-10.5v2.047H-7v1.117H-8.582v5.249a1.173,1.173,0,0,0,.211.763.888.888,0,0,0,.719.254,3.5,3.5,0,0,0,.688-.094V0A4.215,4.215,0,0,1-8.074.156,1.8,1.8,0,0,1-9.535-.43a2.517,2.517,0,0,1-.492-1.664V-7.336h-1.539V-8.453h1.539V-10.5ZM-1.23-7.156a4.331,4.331,0,0,0-.711-.055A1.9,1.9,0,0,0-3.871-6V0H-5.316V-8.453H-3.91l.023.977A2.251,2.251,0,0,1-1.871-8.609,1.477,1.477,0,0,1-1.23-8.5ZM5,0a3.036,3.036,0,0,1-.2-.891A3.225,3.225,0,0,1,2.395.156,2.984,2.984,0,0,1,.344-.551a2.287,2.287,0,0,1-.8-1.793,2.39,2.39,0,0,1,1-2.051,4.733,4.733,0,0,1,2.824-.73H4.777v-.664A1.623,1.623,0,0,0,4.324-7a1.821,1.821,0,0,0-1.336-.449,2.107,2.107,0,0,0-1.3.391,1.151,1.151,0,0,0-.523.945H-.285A2,2,0,0,1,.164-7.332a3.066,3.066,0,0,1,1.219-.934,4.1,4.1,0,0,1,1.691-.344,3.342,3.342,0,0,1,2.289.73,2.635,2.635,0,0,1,.859,2.012v3.891a4.757,4.757,0,0,0,.3,1.852V0Zm-2.4-1.1a2.54,2.54,0,0,0,1.289-.352,2.127,2.127,0,0,0,.883-.914V-4.1H3.645Q.988-4.1.988-2.547a1.316,1.316,0,0,0,.453,1.063A1.742,1.742,0,0,0,2.605-1.1Zm9.273.078a2.082,2.082,0,0,0,1.352-.469,1.649,1.649,0,0,0,.641-1.172h1.367a2.621,2.621,0,0,1-.5,1.383,3.293,3.293,0,0,1-1.23,1.047,3.55,3.55,0,0,1-1.629.391A3.482,3.482,0,0,1,9.133-1a4.59,4.59,0,0,1-1.02-3.152v-.242a5.089,5.089,0,0,1,.453-2.2,3.451,3.451,0,0,1,1.3-1.492,3.7,3.7,0,0,1,2-.531,3.39,3.39,0,0,1,2.363.852,3.043,3.043,0,0,1,1,2.211H13.871a1.992,1.992,0,0,0-.621-1.348,1.932,1.932,0,0,0-1.379-.527,2.023,2.023,0,0,0-1.707.793,3.724,3.724,0,0,0-.605,2.293v.273a3.65,3.65,0,0,0,.6,2.25A2.033,2.033,0,0,0,11.879-1.023ZM18.824-10.5v2.047H20.4v1.117H18.824v5.249a1.173,1.173,0,0,0,.211.763.888.888,0,0,0,.719.254,3.5,3.5,0,0,0,.688-.094V0a4.215,4.215,0,0,1-1.109.155A1.8,1.8,0,0,1,17.871-.43a2.517,2.517,0,0,1-.492-1.664V-7.336H15.84V-8.453h1.539V-10.5Zm2.727,6.2a4.993,4.993,0,0,1,.488-2.234A3.643,3.643,0,0,1,23.4-8.07a3.7,3.7,0,0,1,1.988-.539,3.565,3.565,0,0,1,2.793,1.2,4.6,4.6,0,0,1,1.066,3.18v.1a5.036,5.036,0,0,1-.473,2.215A3.589,3.589,0,0,1,27.422-.391,3.743,3.743,0,0,1,25.4.156a3.556,3.556,0,0,1-2.785-1.2A4.575,4.575,0,0,1,21.551-4.2ZM23-4.133a3.616,3.616,0,0,0,.652,2.258,2.088,2.088,0,0,0,1.746.852,2.075,2.075,0,0,0,1.75-.863A3.955,3.955,0,0,0,27.8-4.3a3.61,3.61,0,0,0-.66-2.254,2.1,2.1,0,0,0-1.754-.863,2.075,2.075,0,0,0-1.727.852A3.925,3.925,0,0,0,23-4.133Z" transform="translate(1272.541 3055)" fill="#12263f"/>
    <path id="Trazado_108081" data-name="Trazado 108081" d="M-61.848-3.609A4.185,4.185,0,0,1-63.18-.824a4.365,4.365,0,0,1-2.98.98,4.008,4.008,0,0,1-3.23-1.445,5.815,5.815,0,0,1-1.215-3.867V-6.25a6.481,6.481,0,0,1,.566-2.789,4.231,4.231,0,0,1,1.605-1.848,4.47,4.47,0,0,1,2.406-.645,4.11,4.11,0,0,1,2.906,1.012,4.235,4.235,0,0,1,1.273,2.8h-1.508A3.268,3.268,0,0,0-64.2-9.693a2.565,2.565,0,0,0-1.824-.611,2.684,2.684,0,0,0-2.254,1.063A4.882,4.882,0,0,0-69.1-6.215v1.1a5.018,5.018,0,0,0,.773,2.948A2.5,2.5,0,0,0-66.16-1.07a2.886,2.886,0,0,0,1.918-.566,3.143,3.143,0,0,0,.887-1.973ZM-54.809,0a3.036,3.036,0,0,1-.2-.891A3.225,3.225,0,0,1-57.418.156a2.984,2.984,0,0,1-2.051-.707,2.287,2.287,0,0,1-.8-1.793,2.39,2.39,0,0,1,1-2.051,4.733,4.733,0,0,1,2.824-.73h1.406v-.664A1.623,1.623,0,0,0-55.488-7a1.821,1.821,0,0,0-1.336-.449,2.107,2.107,0,0,0-1.3.391,1.151,1.151,0,0,0-.523.945H-60.1a2,2,0,0,1,.449-1.223,3.066,3.066,0,0,1,1.219-.934,4.1,4.1,0,0,1,1.691-.344,3.342,3.342,0,0,1,2.289.73,2.635,2.635,0,0,1,.859,2.012v3.891a4.757,4.757,0,0,0,.3,1.852V0Zm-2.4-1.1a2.54,2.54,0,0,0,1.289-.352,2.127,2.127,0,0,0,.883-.914V-4.1h-1.133q-2.656,0-2.656,1.555a1.316,1.316,0,0,0,.453,1.063A1.742,1.742,0,0,0-57.207-1.1Zm7.242-7.352.039.938a3.122,3.122,0,0,1,2.508-1.094A2.417,2.417,0,0,1-45-7.25a3.2,3.2,0,0,1,1.1-.984,3.242,3.242,0,0,1,1.6-.375q2.781,0,2.828,2.945V0h-1.445V-5.578a1.941,1.941,0,0,0-.414-1.355,1.823,1.823,0,0,0-1.391-.449,1.917,1.917,0,0,0-1.336.48,1.949,1.949,0,0,0-.617,1.293V0h-1.453V-5.539a1.613,1.613,0,0,0-1.8-1.844,1.934,1.934,0,0,0-1.945,1.211V0h-1.445V-8.453Zm19.82,4.32a5.026,5.026,0,0,1-.891,3.113A2.846,2.846,0,0,1-33.426.156,2.947,2.947,0,0,1-35.9-.977l-.07.977H-37.3V-12h1.445v4.477a2.93,2.93,0,0,1,2.414-1.086,2.863,2.863,0,0,1,2.418,1.164,5.177,5.177,0,0,1,.879,3.188ZM-31.59-4.3a3.906,3.906,0,0,0-.57-2.281,1.888,1.888,0,0,0-1.641-.8,2.122,2.122,0,0,0-2.055,1.328V-2.4a2.181,2.181,0,0,0,2.07,1.328,1.878,1.878,0,0,0,1.617-.8A4.153,4.153,0,0,0-31.59-4.3ZM-26.754,0H-28.2V-8.453h1.445Zm-1.562-10.7a.863.863,0,0,1,.215-.594.807.807,0,0,1,.637-.242.819.819,0,0,1,.641.242.854.854,0,0,1,.219.594.826.826,0,0,1-.219.586.834.834,0,0,1-.641.234.821.821,0,0,1-.637-.234A.834.834,0,0,1-28.316-10.7ZM-24.824-4.3a4.993,4.993,0,0,1,.488-2.234A3.643,3.643,0,0,1-22.977-8.07a3.7,3.7,0,0,1,1.988-.539,3.565,3.565,0,0,1,2.793,1.2,4.6,4.6,0,0,1,1.066,3.18v.1A5.036,5.036,0,0,1-17.6-1.918,3.589,3.589,0,0,1-18.953-.391a3.743,3.743,0,0,1-2.02.547,3.556,3.556,0,0,1-2.785-1.2A4.575,4.575,0,0,1-24.824-4.2Zm1.453.172a3.616,3.616,0,0,0,.652,2.258,2.088,2.088,0,0,0,1.746.852,2.075,2.075,0,0,0,1.75-.863A3.955,3.955,0,0,0-18.574-4.3a3.61,3.61,0,0,0-.66-2.254,2.1,2.1,0,0,0-1.754-.863,2.075,2.075,0,0,0-1.727.852A3.925,3.925,0,0,0-23.371-4.133ZM-11.707-4.3a4.952,4.952,0,0,1,.922-3.129A2.915,2.915,0,0,1-8.371-8.609,2.932,2.932,0,0,1-6.02-7.594V-12h1.445V0H-5.9l-.07-.906A2.943,2.943,0,0,1-8.387.156a2.887,2.887,0,0,1-2.395-1.2,5.008,5.008,0,0,1-.926-3.141Zm1.445.164a3.749,3.749,0,0,0,.594,2.25,1.92,1.92,0,0,0,1.641.813A2.108,2.108,0,0,0-6.02-2.3V-6.187a2.125,2.125,0,0,0-1.992-1.2,1.929,1.929,0,0,0-1.656.82A4.128,4.128,0,0,0-10.262-4.133ZM1.176.156a3.693,3.693,0,0,1-2.8-1.129A4.19,4.19,0,0,1-2.7-3.992v-.266A5.073,5.073,0,0,1-2.219-6.5,3.748,3.748,0,0,1-.875-8.051,3.378,3.378,0,0,1,1-8.609,3.166,3.166,0,0,1,3.559-7.523a4.7,4.7,0,0,1,.914,3.109v.6H-1.254a3,3,0,0,0,.73,2.02,2.3,2.3,0,0,0,1.777.77,2.517,2.517,0,0,0,1.3-.312,3.259,3.259,0,0,0,.93-.828l.883.688A3.55,3.55,0,0,1,1.176.156ZM1-7.422a1.928,1.928,0,0,0-1.469.637A3.1,3.1,0,0,0-1.207-5H3.027v-.109a2.753,2.753,0,0,0-.594-1.707A1.815,1.815,0,0,0,1-7.422ZM11.676,0H10.23V-8.453h1.445ZM10.113-10.7a.863.863,0,0,1,.215-.594.807.807,0,0,1,.637-.242.819.819,0,0,1,.641.242.854.854,0,0,1,.219.594.826.826,0,0,1-.219.586.834.834,0,0,1-.641.234.821.821,0,0,1-.637-.234A.834.834,0,0,1,10.113-10.7Zm5.836.2v2.047h1.578v1.117H15.949v5.249a1.173,1.173,0,0,0,.211.763.888.888,0,0,0,.719.254,3.5,3.5,0,0,0,.688-.094V0a4.215,4.215,0,0,1-1.109.155A1.8,1.8,0,0,1,15-.43,2.517,2.517,0,0,1,14.5-2.094V-7.336H12.965V-8.453H14.5V-10.5ZM20.785,0H19.34V-8.453h1.445ZM19.223-10.7a.863.863,0,0,1,.215-.594.807.807,0,0,1,.637-.242.819.819,0,0,1,.641.242.854.854,0,0,1,.219.594.826.826,0,0,1-.219.586.834.834,0,0,1-.641.234.821.821,0,0,1-.637-.234A.834.834,0,0,1,19.223-10.7Zm5.242,2.242.047,1.063a3.08,3.08,0,0,1,2.531-1.219q2.68,0,2.7,3.023V0H28.3V-5.594a1.946,1.946,0,0,0-.418-1.352,1.675,1.675,0,0,0-1.277-.437,2.086,2.086,0,0,0-1.234.375,2.546,2.546,0,0,0-.828.984V0H23.1V-8.453ZM35.434.156a3.693,3.693,0,0,1-2.8-1.129,4.19,4.19,0,0,1-1.078-3.02v-.266a5.073,5.073,0,0,1,.48-2.246,3.748,3.748,0,0,1,1.344-1.547,3.378,3.378,0,0,1,1.871-.559,3.166,3.166,0,0,1,2.563,1.086,4.7,4.7,0,0,1,.914,3.109v.6H33a3,3,0,0,0,.73,2.02,2.3,2.3,0,0,0,1.777.77,2.517,2.517,0,0,0,1.3-.312,3.259,3.259,0,0,0,.93-.828l.883.688A3.55,3.55,0,0,1,35.434.156Zm-.18-7.578a1.928,1.928,0,0,0-1.469.637A3.1,3.1,0,0,0,33.051-5h4.234v-.109a2.753,2.753,0,0,0-.594-1.707A1.815,1.815,0,0,0,35.254-7.422Zm9.234.266a4.331,4.331,0,0,0-.711-.055A1.9,1.9,0,0,0,41.848-6V0H40.4V-8.453h1.406l.023.977a2.251,2.251,0,0,1,2.016-1.133,1.477,1.477,0,0,1,.641.109ZM50.723,0a3.036,3.036,0,0,1-.2-.891A3.225,3.225,0,0,1,48.113.156a2.984,2.984,0,0,1-2.051-.707,2.287,2.287,0,0,1-.8-1.793,2.39,2.39,0,0,1,1-2.051,4.733,4.733,0,0,1,2.824-.73H50.5v-.664A1.623,1.623,0,0,0,50.043-7a1.821,1.821,0,0,0-1.336-.449,2.107,2.107,0,0,0-1.3.391,1.151,1.151,0,0,0-.523.945H45.434a2,2,0,0,1,.449-1.223A3.066,3.066,0,0,1,47.1-8.266a4.1,4.1,0,0,1,1.691-.344,3.342,3.342,0,0,1,2.289.73,2.635,2.635,0,0,1,.859,2.012v3.891a4.757,4.757,0,0,0,.3,1.852V0Zm-2.4-1.1a2.54,2.54,0,0,0,1.289-.352,2.127,2.127,0,0,0,.883-.914V-4.1H49.363q-2.656,0-2.656,1.555a1.316,1.316,0,0,0,.453,1.063A1.742,1.742,0,0,0,48.324-1.1Zm9.969-6.055a4.331,4.331,0,0,0-.711-.055A1.9,1.9,0,0,0,55.652-6V0H54.207V-8.453h1.406l.023.977a2.251,2.251,0,0,1,2.016-1.133,1.477,1.477,0,0,1,.641.109ZM61.191,0H59.746V-8.453h1.445ZM59.629-10.7a.863.863,0,0,1,.215-.594.807.807,0,0,1,.637-.242.819.819,0,0,1,.641.242.854.854,0,0,1,.219.594.826.826,0,0,1-.219.586.834.834,0,0,1-.641.234.821.821,0,0,1-.637-.234A.834.834,0,0,1,59.629-10.7ZM63.121-4.3a4.993,4.993,0,0,1,.488-2.234A3.643,3.643,0,0,1,64.969-8.07a3.7,3.7,0,0,1,1.988-.539,3.565,3.565,0,0,1,2.793,1.2,4.6,4.6,0,0,1,1.066,3.18v.1a5.036,5.036,0,0,1-.473,2.215A3.589,3.589,0,0,1,68.992-.391a3.743,3.743,0,0,1-2.02.547,3.556,3.556,0,0,1-2.785-1.2A4.575,4.575,0,0,1,63.121-4.2Zm1.453.172a3.616,3.616,0,0,0,.652,2.258,2.088,2.088,0,0,0,1.746.852,2.075,2.075,0,0,0,1.75-.863A3.955,3.955,0,0,0,69.371-4.3a3.61,3.61,0,0,0-.66-2.254,2.1,2.1,0,0,0-1.754-.863,2.075,2.075,0,0,0-1.727.852A3.925,3.925,0,0,0,64.574-4.133Z" transform="translate(327.541 2922)" fill="#12263f"/>
    <path id="Trazado_108057" data-name="Trazado 108057" d="M-40-5.023h-4.773V0h-1.5V-11.375h7.047v1.227h-5.547v3.9H-40ZM-32.7,0a3.036,3.036,0,0,1-.2-.891A3.225,3.225,0,0,1-35.312.156a2.984,2.984,0,0,1-2.051-.707,2.287,2.287,0,0,1-.8-1.793,2.39,2.39,0,0,1,1-2.051,4.733,4.733,0,0,1,2.824-.73h1.406v-.664A1.623,1.623,0,0,0-33.383-7a1.821,1.821,0,0,0-1.336-.449,2.107,2.107,0,0,0-1.3.391,1.151,1.151,0,0,0-.523.945h-1.453a2,2,0,0,1,.449-1.223,3.066,3.066,0,0,1,1.219-.934,4.1,4.1,0,0,1,1.691-.344,3.342,3.342,0,0,1,2.289.73,2.635,2.635,0,0,1,.859,2.012v3.891a4.757,4.757,0,0,0,.3,1.852V0Zm-2.4-1.1a2.54,2.54,0,0,0,1.289-.352,2.127,2.127,0,0,0,.883-.914V-4.1h-1.133q-2.656,0-2.656,1.555a1.316,1.316,0,0,0,.453,1.063A1.742,1.742,0,0,0-35.1-1.1ZM-27.648,0h-1.445V-12h1.445Zm3.883,0h-1.445V-12h1.445Zm5.82.156a3.693,3.693,0,0,1-2.8-1.129,4.19,4.19,0,0,1-1.078-3.02v-.266A5.073,5.073,0,0,1-21.34-6.5,3.748,3.748,0,0,1-20-8.051a3.378,3.378,0,0,1,1.871-.559,3.166,3.166,0,0,1,2.563,1.086,4.7,4.7,0,0,1,.914,3.109v.6h-5.727a3,3,0,0,0,.73,2.02,2.3,2.3,0,0,0,1.777.77,2.517,2.517,0,0,0,1.3-.312,3.259,3.259,0,0,0,.93-.828l.883.688A3.55,3.55,0,0,1-17.945.156Zm-.18-7.578a1.928,1.928,0,0,0-1.469.637A3.1,3.1,0,0,0-20.328-5h4.234v-.109a2.753,2.753,0,0,0-.594-1.707A1.815,1.815,0,0,0-18.125-7.422Zm8.539,6.4a2.082,2.082,0,0,0,1.352-.469,1.649,1.649,0,0,0,.641-1.172h1.367a2.621,2.621,0,0,1-.5,1.383A3.293,3.293,0,0,1-7.957-.234,3.55,3.55,0,0,1-9.586.156,3.482,3.482,0,0,1-12.332-1a4.59,4.59,0,0,1-1.02-3.152v-.242a5.089,5.089,0,0,1,.453-2.2,3.451,3.451,0,0,1,1.3-1.492,3.7,3.7,0,0,1,2-.531,3.39,3.39,0,0,1,2.363.852,3.043,3.043,0,0,1,1,2.211H-7.594a1.992,1.992,0,0,0-.621-1.348,1.932,1.932,0,0,0-1.379-.527,2.023,2.023,0,0,0-1.707.793,3.724,3.724,0,0,0-.605,2.293v.273a3.65,3.65,0,0,0,.6,2.25A2.033,2.033,0,0,0-9.586-1.023ZM-3.031,0H-4.477V-8.453h1.445ZM-4.594-10.7a.863.863,0,0,1,.215-.594.807.807,0,0,1,.637-.242.819.819,0,0,1,.641.242.854.854,0,0,1,.219.594.826.826,0,0,1-.219.586.834.834,0,0,1-.641.234.821.821,0,0,1-.637-.234A.834.834,0,0,1-4.594-10.7ZM.641-8.453l.039.938A3.122,3.122,0,0,1,3.188-8.609,2.417,2.417,0,0,1,5.6-7.25a3.2,3.2,0,0,1,1.1-.984,3.242,3.242,0,0,1,1.6-.375q2.781,0,2.828,2.945V0H9.68V-5.578a1.941,1.941,0,0,0-.414-1.355,1.823,1.823,0,0,0-1.391-.449,1.916,1.916,0,0,0-1.336.48,1.949,1.949,0,0,0-.617,1.293V0H4.469V-5.539a1.613,1.613,0,0,0-1.8-1.844A1.934,1.934,0,0,0,.719-6.172V0H-.727V-8.453ZM14.875,0H13.43V-8.453h1.445ZM13.313-10.7a.863.863,0,0,1,.215-.594.807.807,0,0,1,.637-.242.819.819,0,0,1,.641.242.854.854,0,0,1,.219.594.826.826,0,0,1-.219.586.834.834,0,0,1-.641.234.821.821,0,0,1-.637-.234A.834.834,0,0,1,13.313-10.7ZM20.7.156A3.693,3.693,0,0,1,17.9-.973a4.19,4.19,0,0,1-1.078-3.02v-.266A5.073,5.073,0,0,1,17.3-6.5a3.748,3.748,0,0,1,1.344-1.547,3.378,3.378,0,0,1,1.871-.559,3.166,3.166,0,0,1,2.563,1.086,4.7,4.7,0,0,1,.914,3.109v.6H18.266A3,3,0,0,0,19-1.793a2.3,2.3,0,0,0,1.777.77,2.517,2.517,0,0,0,1.3-.312A3.259,3.259,0,0,0,23-2.164l.883.688A3.55,3.55,0,0,1,20.7.156Zm-.18-7.578a1.928,1.928,0,0,0-1.469.637A3.1,3.1,0,0,0,18.313-5h4.234v-.109a2.753,2.753,0,0,0-.594-1.707A1.815,1.815,0,0,0,20.516-7.422Zm6.516-1.031.047,1.063a3.08,3.08,0,0,1,2.531-1.219q2.68,0,2.7,3.023V0H30.867V-5.594a1.946,1.946,0,0,0-.418-1.352,1.675,1.675,0,0,0-1.277-.437,2.086,2.086,0,0,0-1.234.375,2.546,2.546,0,0,0-.828.984V0H25.664V-8.453ZM36.453-10.5v2.047h1.578v1.117H36.453v5.249a1.173,1.173,0,0,0,.211.763.888.888,0,0,0,.719.254,3.5,3.5,0,0,0,.688-.094V0a4.215,4.215,0,0,1-1.109.155A1.8,1.8,0,0,1,35.5-.43a2.517,2.517,0,0,1-.492-1.664V-7.336H33.469V-8.453h1.539V-10.5ZM39.18-4.3a4.993,4.993,0,0,1,.488-2.234A3.643,3.643,0,0,1,41.027-8.07a3.7,3.7,0,0,1,1.988-.539,3.565,3.565,0,0,1,2.793,1.2,4.6,4.6,0,0,1,1.066,3.18v.1A5.036,5.036,0,0,1,46.4-1.918,3.589,3.589,0,0,1,45.051-.391a3.743,3.743,0,0,1-2.02.547,3.556,3.556,0,0,1-2.785-1.2A4.575,4.575,0,0,1,39.18-4.2Zm1.453.172a3.616,3.616,0,0,0,.652,2.258,2.088,2.088,0,0,0,1.746.852,2.075,2.075,0,0,0,1.75-.863A3.955,3.955,0,0,0,45.43-4.3a3.61,3.61,0,0,0-.66-2.254,2.1,2.1,0,0,0-1.754-.863,2.075,2.075,0,0,0-1.727.852A3.925,3.925,0,0,0,40.633-4.133Z" transform="translate(852.541 3099)" fill="#12263f"/>
    <path id="Trazado_108051" data-name="Trazado 108051" d="M-47.613,0V-11.375H-44.4a5.169,5.169,0,0,1,2.625.656,4.438,4.438,0,0,1,1.762,1.867,6.078,6.078,0,0,1,.629,2.781v.727a6.1,6.1,0,0,1-.621,2.82A4.369,4.369,0,0,1-41.781-.664,5.5,5.5,0,0,1-44.465,0Zm1.5-10.148v8.922h1.578a3.434,3.434,0,0,0,2.7-1.079,4.458,4.458,0,0,0,.965-3.073v-.665a4.529,4.529,0,0,0-.91-3.014,3.239,3.239,0,0,0-2.582-1.091ZM-33.84.156a3.693,3.693,0,0,1-2.8-1.129,4.19,4.19,0,0,1-1.078-3.02v-.266a5.073,5.073,0,0,1,.48-2.246,3.748,3.748,0,0,1,1.344-1.547,3.378,3.378,0,0,1,1.871-.559,3.166,3.166,0,0,1,2.563,1.086,4.7,4.7,0,0,1,.914,3.109v.6H-36.27a3,3,0,0,0,.73,2.02,2.3,2.3,0,0,0,1.777.77,2.517,2.517,0,0,0,1.3-.312,3.259,3.259,0,0,0,.93-.828l.883.688A3.55,3.55,0,0,1-33.84.156Zm-.18-7.578a1.928,1.928,0,0,0-1.469.637A3.1,3.1,0,0,0-36.223-5h4.234v-.109a2.753,2.753,0,0,0-.594-1.707A1.815,1.815,0,0,0-34.02-7.422Zm10.07,5.18a1.064,1.064,0,0,0-.441-.91,4.249,4.249,0,0,0-1.539-.559,7.277,7.277,0,0,1-1.742-.562,2.479,2.479,0,0,1-.953-.781,1.869,1.869,0,0,1-.309-1.078,2.193,2.193,0,0,1,.879-1.758,3.432,3.432,0,0,1,2.246-.719,3.532,3.532,0,0,1,2.332.742,2.357,2.357,0,0,1,.895,1.9h-1.453a1.3,1.3,0,0,0-.5-1.023,1.888,1.888,0,0,0-1.27-.43,1.976,1.976,0,0,0-1.234.344,1.082,1.082,0,0,0-.445.9.877.877,0,0,0,.414.789,5.1,5.1,0,0,0,1.5.508,7.8,7.8,0,0,1,1.754.578,2.558,2.558,0,0,1,1,.809A1.988,1.988,0,0,1-22.5-2.344,2.163,2.163,0,0,1-23.41-.527a3.8,3.8,0,0,1-2.352.684,4.257,4.257,0,0,1-1.8-.359,2.922,2.922,0,0,1-1.223-1A2.42,2.42,0,0,1-29.223-2.6h1.445A1.5,1.5,0,0,0-27.2-1.449a2.258,2.258,0,0,0,1.434.426,2.331,2.331,0,0,0,1.316-.332A1.02,1.02,0,0,0-23.949-2.242ZM-19.051,0H-20.5V-8.453h1.445Zm-1.562-10.7a.863.863,0,0,1,.215-.594.807.807,0,0,1,.637-.242.819.819,0,0,1,.641.242.854.854,0,0,1,.219.594.826.826,0,0,1-.219.586.834.834,0,0,1-.641.234.821.821,0,0,1-.637-.234A.834.834,0,0,1-20.613-10.7Zm8.8,8.453a1.064,1.064,0,0,0-.441-.91A4.249,4.249,0,0,0-13.8-3.711a7.277,7.277,0,0,1-1.742-.562,2.479,2.479,0,0,1-.953-.781A1.869,1.869,0,0,1-16.8-6.133a2.193,2.193,0,0,1,.879-1.758,3.432,3.432,0,0,1,2.246-.719,3.532,3.532,0,0,1,2.332.742,2.357,2.357,0,0,1,.895,1.9H-11.9a1.3,1.3,0,0,0-.5-1.023,1.888,1.888,0,0,0-1.27-.43,1.976,1.976,0,0,0-1.234.344,1.082,1.082,0,0,0-.445.9.877.877,0,0,0,.414.789,5.1,5.1,0,0,0,1.5.508,7.8,7.8,0,0,1,1.754.578,2.558,2.558,0,0,1,1,.809,1.988,1.988,0,0,1,.324,1.152,2.163,2.163,0,0,1-.906,1.816,3.8,3.8,0,0,1-2.352.684,4.257,4.257,0,0,1-1.8-.359,2.922,2.922,0,0,1-1.223-1A2.42,2.42,0,0,1-17.09-2.6h1.445a1.5,1.5,0,0,0,.582,1.152,2.258,2.258,0,0,0,1.434.426,2.331,2.331,0,0,0,1.316-.332A1.02,1.02,0,0,0-11.816-2.242ZM-6.527-10.5v2.047h1.578v1.117H-6.527v5.249a1.173,1.173,0,0,0,.211.763A.888.888,0,0,0-5.6-1.07a3.5,3.5,0,0,0,.688-.094V0A4.215,4.215,0,0,1-6.02.156,1.8,1.8,0,0,1-7.48-.43a2.517,2.517,0,0,1-.492-1.664V-7.336H-9.512V-8.453h1.539V-10.5ZM-1.691,0H-3.137V-8.453h1.445ZM-3.254-10.7a.863.863,0,0,1,.215-.594.807.807,0,0,1,.637-.242.819.819,0,0,1,.641.242.854.854,0,0,1,.219.594.826.826,0,0,1-.219.586.834.834,0,0,1-.641.234.821.821,0,0,1-.637-.234A.834.834,0,0,1-3.254-10.7ZM1.98-8.453l.039.938A3.122,3.122,0,0,1,4.527-8.609,2.417,2.417,0,0,1,6.941-7.25a3.2,3.2,0,0,1,1.1-.984,3.242,3.242,0,0,1,1.6-.375q2.781,0,2.828,2.945V0H11.02V-5.578a1.941,1.941,0,0,0-.414-1.355,1.823,1.823,0,0,0-1.391-.449,1.916,1.916,0,0,0-1.336.48,1.949,1.949,0,0,0-.617,1.293V0H5.809V-5.539A1.613,1.613,0,0,0,4-7.383,1.934,1.934,0,0,0,2.059-6.172V0H.613V-8.453ZM16.215,0H14.77V-8.453h1.445ZM14.652-10.7a.863.863,0,0,1,.215-.594.807.807,0,0,1,.637-.242.819.819,0,0,1,.641.242.854.854,0,0,1,.219.594.826.826,0,0,1-.219.586.834.834,0,0,1-.641.234.821.821,0,0,1-.637-.234A.834.834,0,0,1,14.652-10.7ZM22.035.156a3.693,3.693,0,0,1-2.8-1.129,4.19,4.19,0,0,1-1.078-3.02v-.266a5.073,5.073,0,0,1,.48-2.246,3.748,3.748,0,0,1,1.344-1.547,3.378,3.378,0,0,1,1.871-.559,3.166,3.166,0,0,1,2.563,1.086,4.7,4.7,0,0,1,.914,3.109v.6H19.605a3,3,0,0,0,.73,2.02,2.3,2.3,0,0,0,1.777.77,2.517,2.517,0,0,0,1.3-.312,3.259,3.259,0,0,0,.93-.828l.883.688A3.55,3.55,0,0,1,22.035.156Zm-.18-7.578a1.928,1.928,0,0,0-1.469.637A3.1,3.1,0,0,0,19.652-5h4.234v-.109a2.753,2.753,0,0,0-.594-1.707A1.815,1.815,0,0,0,21.855-7.422Zm6.516-1.031.047,1.063a3.08,3.08,0,0,1,2.531-1.219q2.68,0,2.7,3.023V0H32.207V-5.594a1.946,1.946,0,0,0-.418-1.352,1.675,1.675,0,0,0-1.277-.437,2.086,2.086,0,0,0-1.234.375,2.546,2.546,0,0,0-.828.984V0H27V-8.453ZM37.793-10.5v2.047h1.578v1.117H37.793v5.249A1.173,1.173,0,0,0,38-1.325a.888.888,0,0,0,.719.254,3.5,3.5,0,0,0,.688-.094V0A4.215,4.215,0,0,1,38.3.156,1.8,1.8,0,0,1,36.84-.43a2.517,2.517,0,0,1-.492-1.664V-7.336H34.809V-8.453h1.539V-10.5ZM40.52-4.3a4.993,4.993,0,0,1,.488-2.234A3.643,3.643,0,0,1,42.367-8.07a3.7,3.7,0,0,1,1.988-.539,3.565,3.565,0,0,1,2.793,1.2,4.6,4.6,0,0,1,1.066,3.18v.1a5.036,5.036,0,0,1-.473,2.215A3.589,3.589,0,0,1,46.391-.391a3.743,3.743,0,0,1-2.02.547,3.556,3.556,0,0,1-2.785-1.2A4.575,4.575,0,0,1,40.52-4.2Zm1.453.172a3.616,3.616,0,0,0,.652,2.258,2.088,2.088,0,0,0,1.746.852,2.075,2.075,0,0,0,1.75-.863A3.955,3.955,0,0,0,46.77-4.3a3.61,3.61,0,0,0-.66-2.254,2.1,2.1,0,0,0-1.754-.863,2.075,2.075,0,0,0-1.727.852A3.925,3.925,0,0,0,41.973-4.133Z" transform="translate(1272.541 3099)" fill="#12263f"/>
    <path id="Trazado_108082" data-name="Trazado 108082" d="M-62.719-10.148h-3.656V0h-1.492V-10.148h-3.648v-1.227h8.8ZM-59.687,0h-1.445V-8.453h1.445ZM-61.25-10.7a.863.863,0,0,1,.215-.594.807.807,0,0,1,.637-.242.819.819,0,0,1,.641.242.854.854,0,0,1,.219.594.826.826,0,0,1-.219.586.834.834,0,0,1-.641.234.821.821,0,0,1-.637-.234A.834.834,0,0,1-61.25-10.7Zm3.523,6.4a4.961,4.961,0,0,1,.914-3.152,2.962,2.962,0,0,1,2.453-1.16A2.96,2.96,0,0,1-51.992-7.6l.063-.852H-50.6V3.25h-1.445V-.781a3.033,3.033,0,0,1-2.328.938,2.915,2.915,0,0,1-2.441-1.191,5.072,5.072,0,0,1-.91-3.16Zm1.445.164a3.761,3.761,0,0,0,.613,2.281,1.951,1.951,0,0,0,1.652.828,2.164,2.164,0,0,0,1.969-1.141V-6.3A2.171,2.171,0,0,0-54-7.422a1.965,1.965,0,0,0-1.664.832A4.094,4.094,0,0,0-56.281-4.133Zm13.219,3.3a3.07,3.07,0,0,1-2.477.992A2.628,2.628,0,0,1-47.6-.629a3.4,3.4,0,0,1-.715-2.324v-5.5h1.445v5.461q0,1.922,1.563,1.922A2.163,2.163,0,0,0-43.1-2.3V-8.453h1.445V0h-1.375Zm7.109.992a3.693,3.693,0,0,1-2.8-1.129,4.19,4.19,0,0,1-1.078-3.02v-.266a5.073,5.073,0,0,1,.48-2.246A3.748,3.748,0,0,1-38-8.051a3.378,3.378,0,0,1,1.871-.559A3.166,3.166,0,0,1-33.57-7.523a4.7,4.7,0,0,1,.914,3.109v.6h-5.727a3,3,0,0,0,.73,2.02,2.3,2.3,0,0,0,1.777.77,2.517,2.517,0,0,0,1.3-.312,3.259,3.259,0,0,0,.93-.828l.883.688A3.55,3.55,0,0,1-35.953.156Zm-.18-7.578a1.928,1.928,0,0,0-1.469.637A3.1,3.1,0,0,0-38.336-5H-34.1v-.109A2.753,2.753,0,0,0-34.7-6.816,1.815,1.815,0,0,0-36.133-7.422Zm7.109-3.078v2.047h1.578v1.117h-1.578v5.249a1.173,1.173,0,0,0,.211.763.888.888,0,0,0,.719.254,3.5,3.5,0,0,0,.688-.094V0a4.215,4.215,0,0,1-1.109.155A1.8,1.8,0,0,1-29.977-.43a2.517,2.517,0,0,1-.492-1.664V-7.336h-1.539V-8.453h1.539V-10.5ZM-22.25.156a3.693,3.693,0,0,1-2.8-1.129,4.19,4.19,0,0,1-1.078-3.02v-.266a5.073,5.073,0,0,1,.48-2.246A3.748,3.748,0,0,1-24.3-8.051a3.378,3.378,0,0,1,1.871-.559,3.166,3.166,0,0,1,2.563,1.086,4.7,4.7,0,0,1,.914,3.109v.6H-24.68a3,3,0,0,0,.73,2.02,2.3,2.3,0,0,0,1.777.77,2.517,2.517,0,0,0,1.3-.312,3.259,3.259,0,0,0,.93-.828l.883.688A3.55,3.55,0,0,1-22.25.156Zm-.18-7.578a1.928,1.928,0,0,0-1.469.637A3.1,3.1,0,0,0-24.633-5H-20.4v-.109a2.753,2.753,0,0,0-.594-1.707A1.815,1.815,0,0,0-22.43-7.422Zm10.07,5.18a1.064,1.064,0,0,0-.441-.91,4.249,4.249,0,0,0-1.539-.559,7.277,7.277,0,0,1-1.742-.562,2.479,2.479,0,0,1-.953-.781,1.869,1.869,0,0,1-.309-1.078,2.193,2.193,0,0,1,.879-1.758,3.432,3.432,0,0,1,2.246-.719,3.532,3.532,0,0,1,2.332.742,2.357,2.357,0,0,1,.895,1.9h-1.453a1.3,1.3,0,0,0-.5-1.023,1.888,1.888,0,0,0-1.27-.43,1.976,1.976,0,0,0-1.234.344,1.082,1.082,0,0,0-.445.9.877.877,0,0,0,.414.789,5.1,5.1,0,0,0,1.5.508,7.8,7.8,0,0,1,1.754.578,2.558,2.558,0,0,1,1,.809,1.988,1.988,0,0,1,.324,1.152A2.163,2.163,0,0,1-11.82-.527a3.8,3.8,0,0,1-2.352.684,4.257,4.257,0,0,1-1.8-.359,2.922,2.922,0,0,1-1.223-1A2.42,2.42,0,0,1-17.633-2.6h1.445a1.5,1.5,0,0,0,.582,1.152,2.258,2.258,0,0,0,1.434.426,2.331,2.331,0,0,0,1.316-.332A1.02,1.02,0,0,0-12.359-2.242ZM-5.422-4.3A4.952,4.952,0,0,1-4.5-7.426,2.915,2.915,0,0,1-2.086-8.609,2.932,2.932,0,0,1,.266-7.594V-12H1.711V0H.383L.313-.906A2.943,2.943,0,0,1-2.1.156,2.887,2.887,0,0,1-4.5-1.047a5.008,5.008,0,0,1-.926-3.141Zm1.445.164a3.749,3.749,0,0,0,.594,2.25,1.92,1.92,0,0,0,1.641.813A2.108,2.108,0,0,0,.266-2.3V-6.187a2.125,2.125,0,0,0-1.992-1.2,1.929,1.929,0,0,0-1.656.82A4.128,4.128,0,0,0-3.977-4.133ZM9.172-.836A3.07,3.07,0,0,1,6.7.156,2.628,2.628,0,0,1,4.637-.629a3.4,3.4,0,0,1-.715-2.324v-5.5H5.367v5.461q0,1.922,1.563,1.922A2.163,2.163,0,0,0,9.133-2.3V-8.453h1.445V0H9.2Zm10.742-3.3a5.062,5.062,0,0,1-.883,3.109A2.829,2.829,0,0,1,16.641.156,3.1,3.1,0,0,1,14.219-.82V3.25H12.773v-11.7h1.32l.07.938a2.977,2.977,0,0,1,2.453-1.094,2.882,2.882,0,0,1,2.41,1.148,5.117,5.117,0,0,1,.887,3.2ZM18.469-4.3a3.735,3.735,0,0,0-.609-2.258,1.963,1.963,0,0,0-1.672-.828,2.125,2.125,0,0,0-1.969,1.164V-2.18A2.129,2.129,0,0,0,16.2-1.023a1.954,1.954,0,0,0,1.652-.824A4.077,4.077,0,0,0,18.469-4.3ZM23.32,0H21.875V-12H23.32ZM27.2,0H25.758V-8.453H27.2ZM25.641-10.7a.863.863,0,0,1,.215-.594.807.807,0,0,1,.637-.242.819.819,0,0,1,.641.242.854.854,0,0,1,.219.594.826.826,0,0,1-.219.586.834.834,0,0,1-.641.234.821.821,0,0,1-.637-.234A.834.834,0,0,1,25.641-10.7Zm7.266,9.672a2.082,2.082,0,0,0,1.352-.469A1.649,1.649,0,0,0,34.9-2.664h1.367a2.621,2.621,0,0,1-.5,1.383,3.293,3.293,0,0,1-1.23,1.047,3.55,3.55,0,0,1-1.629.391A3.482,3.482,0,0,1,30.16-1a4.59,4.59,0,0,1-1.02-3.152v-.242a5.089,5.089,0,0,1,.453-2.2,3.451,3.451,0,0,1,1.3-1.492,3.7,3.7,0,0,1,2-.531,3.39,3.39,0,0,1,2.363.852,3.043,3.043,0,0,1,1,2.211H34.9a1.992,1.992,0,0,0-.621-1.348A1.932,1.932,0,0,0,32.9-7.422a2.023,2.023,0,0,0-1.707.793,3.724,3.724,0,0,0-.605,2.293v.273a3.65,3.65,0,0,0,.6,2.25A2.033,2.033,0,0,0,32.906-1.023ZM43.109,0a3.036,3.036,0,0,1-.2-.891A3.225,3.225,0,0,1,40.5.156a2.984,2.984,0,0,1-2.051-.707,2.287,2.287,0,0,1-.8-1.793,2.39,2.39,0,0,1,1-2.051,4.733,4.733,0,0,1,2.824-.73h1.406v-.664A1.623,1.623,0,0,0,42.43-7a1.821,1.821,0,0,0-1.336-.449,2.107,2.107,0,0,0-1.3.391,1.151,1.151,0,0,0-.523.945H37.82a2,2,0,0,1,.449-1.223,3.066,3.066,0,0,1,1.219-.934,4.1,4.1,0,0,1,1.691-.344,3.342,3.342,0,0,1,2.289.73,2.635,2.635,0,0,1,.859,2.012v3.891a4.757,4.757,0,0,0,.3,1.852V0Zm-2.4-1.1A2.54,2.54,0,0,0,42-1.453a2.127,2.127,0,0,0,.883-.914V-4.1H41.75q-2.656,0-2.656,1.555a1.316,1.316,0,0,0,.453,1.063A1.742,1.742,0,0,0,40.711-1.1Zm5.531-3.2a4.952,4.952,0,0,1,.922-3.129,2.915,2.915,0,0,1,2.414-1.184A2.932,2.932,0,0,1,51.93-7.594V-12h1.445V0H52.047l-.07-.906A2.943,2.943,0,0,1,49.563.156a2.887,2.887,0,0,1-2.395-1.2,5.008,5.008,0,0,1-.926-3.141Zm1.445.164a3.749,3.749,0,0,0,.594,2.25,1.92,1.92,0,0,0,1.641.813A2.108,2.108,0,0,0,51.93-2.3V-6.187a2.125,2.125,0,0,0-1.992-1.2,1.929,1.929,0,0,0-1.656.82A4.128,4.128,0,0,0,47.688-4.133ZM55.234-4.3a4.993,4.993,0,0,1,.488-2.234A3.643,3.643,0,0,1,57.082-8.07a3.7,3.7,0,0,1,1.988-.539,3.565,3.565,0,0,1,2.793,1.2,4.6,4.6,0,0,1,1.066,3.18v.1a5.036,5.036,0,0,1-.473,2.215A3.589,3.589,0,0,1,61.105-.391a3.743,3.743,0,0,1-2.02.547,3.556,3.556,0,0,1-2.785-1.2A4.575,4.575,0,0,1,55.234-4.2Zm1.453.172a3.616,3.616,0,0,0,.652,2.258,2.088,2.088,0,0,0,1.746.852,2.075,2.075,0,0,0,1.75-.863A3.955,3.955,0,0,0,61.484-4.3a3.61,3.61,0,0,0-.66-2.254,2.1,2.1,0,0,0-1.754-.863,2.075,2.075,0,0,0-1.727.852A3.925,3.925,0,0,0,56.688-4.133ZM69.664-2.242a1.064,1.064,0,0,0-.441-.91,4.249,4.249,0,0,0-1.539-.559,7.277,7.277,0,0,1-1.742-.562,2.479,2.479,0,0,1-.953-.781,1.869,1.869,0,0,1-.309-1.078,2.193,2.193,0,0,1,.879-1.758A3.432,3.432,0,0,1,67.8-8.609a3.532,3.532,0,0,1,2.332.742,2.357,2.357,0,0,1,.895,1.9H69.578a1.3,1.3,0,0,0-.5-1.023,1.888,1.888,0,0,0-1.27-.43,1.976,1.976,0,0,0-1.234.344,1.082,1.082,0,0,0-.445.9.877.877,0,0,0,.414.789,5.1,5.1,0,0,0,1.5.508,7.8,7.8,0,0,1,1.754.578,2.558,2.558,0,0,1,1,.809,1.988,1.988,0,0,1,.324,1.152A2.163,2.163,0,0,1,70.2-.527a3.8,3.8,0,0,1-2.352.684,4.257,4.257,0,0,1-1.8-.359,2.922,2.922,0,0,1-1.223-1A2.42,2.42,0,0,1,64.391-2.6h1.445a1.5,1.5,0,0,0,.582,1.152,2.258,2.258,0,0,0,1.434.426,2.331,2.331,0,0,0,1.316-.332A1.02,1.02,0,0,0,69.664-2.242Z" transform="translate(327.541 2966)" fill="#12263f"/>
    <path id="Trazado_108058" data-name="Trazado 108058" d="M-50.828,0h-1.508l-5.727-8.766V0H-59.57V-11.375h1.508l5.742,8.8v-8.8h1.492Zm5.945.156a3.693,3.693,0,0,1-2.8-1.129,4.19,4.19,0,0,1-1.078-3.02v-.266a5.073,5.073,0,0,1,.48-2.246,3.748,3.748,0,0,1,1.344-1.547,3.378,3.378,0,0,1,1.871-.559A3.166,3.166,0,0,1-42.5-7.523a4.7,4.7,0,0,1,.914,3.109v.6h-5.727a3,3,0,0,0,.73,2.02,2.3,2.3,0,0,0,1.777.77,2.517,2.517,0,0,0,1.3-.312,3.259,3.259,0,0,0,.93-.828l.883.688A3.55,3.55,0,0,1-44.883.156Zm-.18-7.578a1.928,1.928,0,0,0-1.469.637A3.1,3.1,0,0,0-47.266-5h4.234v-.109a2.753,2.753,0,0,0-.594-1.707A1.815,1.815,0,0,0-45.062-7.422Zm4.8,3.125a4.968,4.968,0,0,1,.914-3.145,2.923,2.923,0,0,1,2.422-1.168,2.908,2.908,0,0,1,2.414,1.094l.07-.937h1.32V-.2a3.439,3.439,0,0,1-.973,2.586,3.589,3.589,0,0,1-2.613.945,4.348,4.348,0,0,1-1.789-.391,3.08,3.08,0,0,1-1.336-1.07l.75-.867A2.826,2.826,0,0,0-36.8,2.148a2.214,2.214,0,0,0,1.645-.594,2.269,2.269,0,0,0,.59-1.672V-.844a2.971,2.971,0,0,1-2.367,1,2.887,2.887,0,0,1-2.4-1.2A5.224,5.224,0,0,1-40.258-4.3Zm1.453.164a3.79,3.79,0,0,0,.586,2.246,1.9,1.9,0,0,0,1.641.816A2.117,2.117,0,0,0-34.57-2.312V-6.172a2.142,2.142,0,0,0-1.992-1.211,1.921,1.921,0,0,0-1.648.82A4.128,4.128,0,0,0-38.8-4.133ZM-25.719,0a3.036,3.036,0,0,1-.2-.891A3.225,3.225,0,0,1-28.328.156a2.984,2.984,0,0,1-2.051-.707,2.287,2.287,0,0,1-.8-1.793,2.39,2.39,0,0,1,1-2.051,4.733,4.733,0,0,1,2.824-.73h1.406v-.664A1.623,1.623,0,0,0-26.4-7a1.821,1.821,0,0,0-1.336-.449,2.108,2.108,0,0,0-1.3.391,1.151,1.151,0,0,0-.523.945h-1.453a2,2,0,0,1,.449-1.223,3.066,3.066,0,0,1,1.219-.934,4.1,4.1,0,0,1,1.691-.344,3.342,3.342,0,0,1,2.289.73A2.635,2.635,0,0,1-24.5-5.867v3.891a4.757,4.757,0,0,0,.3,1.852V0Zm-2.4-1.1a2.54,2.54,0,0,0,1.289-.352,2.127,2.127,0,0,0,.883-.914V-4.1h-1.133q-2.656,0-2.656,1.555a1.316,1.316,0,0,0,.453,1.063A1.742,1.742,0,0,0-28.117-1.1Zm9.273.078a2.082,2.082,0,0,0,1.352-.469,1.649,1.649,0,0,0,.641-1.172h1.367a2.621,2.621,0,0,1-.5,1.383,3.293,3.293,0,0,1-1.23,1.047,3.55,3.55,0,0,1-1.629.391A3.482,3.482,0,0,1-21.59-1a4.59,4.59,0,0,1-1.02-3.152v-.242a5.089,5.089,0,0,1,.453-2.2,3.451,3.451,0,0,1,1.3-1.492,3.7,3.7,0,0,1,2-.531,3.39,3.39,0,0,1,2.363.852,3.043,3.043,0,0,1,1,2.211h-1.367a1.992,1.992,0,0,0-.621-1.348,1.932,1.932,0,0,0-1.379-.527,2.023,2.023,0,0,0-1.707.793,3.724,3.724,0,0,0-.605,2.293v.273a3.65,3.65,0,0,0,.6,2.25A2.033,2.033,0,0,0-18.844-1.023ZM-12.289,0h-1.445V-8.453h1.445Zm-1.562-10.7a.863.863,0,0,1,.215-.594A.807.807,0,0,1-13-11.531a.819.819,0,0,1,.641.242.854.854,0,0,1,.219.594.826.826,0,0,1-.219.586A.834.834,0,0,1-13-9.875a.821.821,0,0,1-.637-.234A.834.834,0,0,1-13.852-10.7ZM-10.359-4.3a4.993,4.993,0,0,1,.488-2.234A3.643,3.643,0,0,1-8.512-8.07a3.7,3.7,0,0,1,1.988-.539,3.565,3.565,0,0,1,2.793,1.2,4.6,4.6,0,0,1,1.066,3.18v.1a5.036,5.036,0,0,1-.473,2.215A3.589,3.589,0,0,1-4.488-.391a3.743,3.743,0,0,1-2.02.547,3.556,3.556,0,0,1-2.785-1.2A4.575,4.575,0,0,1-10.359-4.2Zm1.453.172a3.616,3.616,0,0,0,.652,2.258,2.088,2.088,0,0,0,1.746.852,2.075,2.075,0,0,0,1.75-.863A3.955,3.955,0,0,0-4.109-4.3a3.61,3.61,0,0,0-.66-2.254,2.1,2.1,0,0,0-1.754-.863A2.075,2.075,0,0,0-8.25-6.57,3.925,3.925,0,0,0-8.906-4.133Zm3.039-7.852h1.75l-2.094,2.3-1.164,0ZM.516-8.453.563-7.391A3.08,3.08,0,0,1,3.094-8.609q2.68,0,2.7,3.023V0H4.352V-5.594a1.946,1.946,0,0,0-.418-1.352,1.675,1.675,0,0,0-1.277-.437,2.086,2.086,0,0,0-1.234.375,2.546,2.546,0,0,0-.828.984V0H-.852V-8.453ZM11.586-4.3a4.952,4.952,0,0,1,.922-3.129,2.915,2.915,0,0,1,2.414-1.184,2.932,2.932,0,0,1,2.352,1.016V-12h1.445V0H17.391l-.07-.906A2.943,2.943,0,0,1,14.906.156a2.887,2.887,0,0,1-2.395-1.2,5.008,5.008,0,0,1-.926-3.141Zm1.445.164a3.749,3.749,0,0,0,.594,2.25,1.92,1.92,0,0,0,1.641.813A2.108,2.108,0,0,0,17.273-2.3V-6.187a2.125,2.125,0,0,0-1.992-1.2,1.929,1.929,0,0,0-1.656.82A4.128,4.128,0,0,0,13.031-4.133ZM24.469.156a3.693,3.693,0,0,1-2.8-1.129,4.19,4.19,0,0,1-1.078-3.02v-.266a5.073,5.073,0,0,1,.48-2.246,3.748,3.748,0,0,1,1.344-1.547,3.378,3.378,0,0,1,1.871-.559,3.166,3.166,0,0,1,2.563,1.086,4.7,4.7,0,0,1,.914,3.109v.6H22.039a3,3,0,0,0,.73,2.02,2.3,2.3,0,0,0,1.777.77,2.517,2.517,0,0,0,1.3-.312,3.259,3.259,0,0,0,.93-.828l.883.688A3.55,3.55,0,0,1,24.469.156Zm-.18-7.578a1.928,1.928,0,0,0-1.469.637A3.1,3.1,0,0,0,22.086-5H26.32v-.109a2.753,2.753,0,0,0-.594-1.707A1.815,1.815,0,0,0,24.289-7.422Zm11.9,5.461,2.094-6.492h1.477L36.727,0h-1.1L32.563-8.453h1.477ZM42.719,0H41.273V-8.453h1.445ZM41.156-10.7a.863.863,0,0,1,.215-.594.807.807,0,0,1,.637-.242.819.819,0,0,1,.641.242.854.854,0,0,1,.219.594.826.826,0,0,1-.219.586.834.834,0,0,1-.641.234.821.821,0,0,1-.637-.234A.834.834,0,0,1,41.156-10.7Zm8.8,8.453a1.064,1.064,0,0,0-.441-.91,4.249,4.249,0,0,0-1.539-.559,7.277,7.277,0,0,1-1.742-.562,2.479,2.479,0,0,1-.953-.781,1.869,1.869,0,0,1-.309-1.078,2.193,2.193,0,0,1,.879-1.758,3.432,3.432,0,0,1,2.246-.719,3.532,3.532,0,0,1,2.332.742,2.357,2.357,0,0,1,.895,1.9H49.867a1.3,1.3,0,0,0-.5-1.023,1.888,1.888,0,0,0-1.27-.43,1.976,1.976,0,0,0-1.234.344,1.082,1.082,0,0,0-.445.9.877.877,0,0,0,.414.789,5.1,5.1,0,0,0,1.5.508,7.8,7.8,0,0,1,1.754.578,2.558,2.558,0,0,1,1,.809A1.988,1.988,0,0,1,51.4-2.344a2.163,2.163,0,0,1-.906,1.816,3.8,3.8,0,0,1-2.352.684,4.257,4.257,0,0,1-1.8-.359,2.922,2.922,0,0,1-1.223-1A2.42,2.42,0,0,1,44.68-2.6h1.445a1.5,1.5,0,0,0,.582,1.152,2.258,2.258,0,0,0,1.434.426,2.331,2.331,0,0,0,1.316-.332A1.02,1.02,0,0,0,49.953-2.242ZM58.5,0a3.036,3.036,0,0,1-.2-.891A3.225,3.225,0,0,1,55.891.156,2.984,2.984,0,0,1,53.84-.551a2.287,2.287,0,0,1-.8-1.793,2.39,2.39,0,0,1,1-2.051,4.733,4.733,0,0,1,2.824-.73h1.406v-.664A1.623,1.623,0,0,0,57.82-7a1.821,1.821,0,0,0-1.336-.449,2.107,2.107,0,0,0-1.3.391,1.151,1.151,0,0,0-.523.945H53.211a2,2,0,0,1,.449-1.223,3.066,3.066,0,0,1,1.219-.934,4.1,4.1,0,0,1,1.691-.344,3.342,3.342,0,0,1,2.289.73,2.635,2.635,0,0,1,.859,2.012v3.891a4.757,4.757,0,0,0,.3,1.852V0ZM56.1-1.1a2.54,2.54,0,0,0,1.289-.352,2.127,2.127,0,0,0,.883-.914V-4.1H57.141q-2.656,0-2.656,1.555a1.316,1.316,0,0,0,.453,1.063A1.742,1.742,0,0,0,56.1-1.1Z" transform="translate(852.541 3143)" fill="#12263f"/>
    <path id="Trazado_108052" data-name="Trazado 108052" d="M-9.359-5.32A7.037,7.037,0,0,1-9.922-2.4,4.261,4.261,0,0,1-11.516-.5a4.385,4.385,0,0,1-2.406.656A4.347,4.347,0,0,1-16.3-.5a4.363,4.363,0,0,1-1.613-1.883,6.752,6.752,0,0,1-.59-2.832v-.82a6.953,6.953,0,0,1,.57-2.9,4.347,4.347,0,0,1,1.613-1.926,4.329,4.329,0,0,1,2.387-.668,4.41,4.41,0,0,1,2.41.66A4.253,4.253,0,0,1-9.922-8.957a7.071,7.071,0,0,1,.563,2.918Zm-1.492-.734a5.1,5.1,0,0,0-.812-3.105,2.68,2.68,0,0,0-2.273-1.082A2.651,2.651,0,0,0-16.176-9.16a5,5,0,0,0-.84,3v.836a5.107,5.107,0,0,0,.824,3.082,2.662,2.662,0,0,0,2.27,1.121,2.652,2.652,0,0,0,2.25-1.059,5.079,5.079,0,0,0,.82-3.035ZM-5.375-10.5v2.047H-3.8v1.117H-5.375v5.249a1.173,1.173,0,0,0,.211.763.888.888,0,0,0,.719.254,3.5,3.5,0,0,0,.688-.094V0A4.215,4.215,0,0,1-4.867.156,1.8,1.8,0,0,1-6.328-.43,2.517,2.517,0,0,1-6.82-2.094V-7.336H-8.359V-8.453H-6.82V-10.5ZM1.977-7.156a4.331,4.331,0,0,0-.711-.055A1.9,1.9,0,0,0-.664-6V0H-2.109V-8.453H-.7l.023.977A2.251,2.251,0,0,1,1.336-8.609a1.477,1.477,0,0,1,.641.109ZM2.766-4.3a4.993,4.993,0,0,1,.488-2.234A3.643,3.643,0,0,1,4.613-8.07,3.7,3.7,0,0,1,6.6-8.609a3.565,3.565,0,0,1,2.793,1.2,4.6,4.6,0,0,1,1.066,3.18v.1a5.036,5.036,0,0,1-.473,2.215A3.589,3.589,0,0,1,8.637-.391a3.743,3.743,0,0,1-2.02.547,3.556,3.556,0,0,1-2.785-1.2A4.575,4.575,0,0,1,2.766-4.2Zm1.453.172a3.616,3.616,0,0,0,.652,2.258,2.088,2.088,0,0,0,1.746.852,2.075,2.075,0,0,0,1.75-.863A3.955,3.955,0,0,0,9.016-4.3a3.61,3.61,0,0,0-.66-2.254A2.1,2.1,0,0,0,6.6-7.422a2.075,2.075,0,0,0-1.727.852A3.925,3.925,0,0,0,4.219-4.133ZM17.2-2.242a1.064,1.064,0,0,0-.441-.91,4.249,4.249,0,0,0-1.539-.559,7.277,7.277,0,0,1-1.742-.562,2.479,2.479,0,0,1-.953-.781,1.869,1.869,0,0,1-.309-1.078,2.193,2.193,0,0,1,.879-1.758,3.432,3.432,0,0,1,2.246-.719,3.532,3.532,0,0,1,2.332.742,2.357,2.357,0,0,1,.895,1.9H17.109a1.3,1.3,0,0,0-.5-1.023,1.888,1.888,0,0,0-1.27-.43,1.976,1.976,0,0,0-1.234.344,1.082,1.082,0,0,0-.445.9.877.877,0,0,0,.414.789,5.1,5.1,0,0,0,1.5.508A7.8,7.8,0,0,1,17.32-4.3a2.558,2.558,0,0,1,1,.809,1.988,1.988,0,0,1,.324,1.152,2.163,2.163,0,0,1-.906,1.816,3.8,3.8,0,0,1-2.352.684,4.257,4.257,0,0,1-1.8-.359,2.922,2.922,0,0,1-1.223-1A2.42,2.42,0,0,1,11.922-2.6h1.445a1.5,1.5,0,0,0,.582,1.152,2.258,2.258,0,0,0,1.434.426A2.331,2.331,0,0,0,16.7-1.355,1.02,1.02,0,0,0,17.2-2.242Z" transform="translate(1272.541 3143)" fill="#12263f"/>
    <path id="Trazado_108083" data-name="Trazado 108083" d="M-94.02,0h-1.5V-11.375h1.5Zm3.875-8.453.039.938A3.122,3.122,0,0,1-87.6-8.609,2.417,2.417,0,0,1-85.184-7.25a3.2,3.2,0,0,1,1.1-.984,3.242,3.242,0,0,1,1.6-.375q2.781,0,2.828,2.945V0h-1.445V-5.578a1.941,1.941,0,0,0-.414-1.355,1.823,1.823,0,0,0-1.391-.449,1.916,1.916,0,0,0-1.336.48,1.949,1.949,0,0,0-.617,1.293V0h-1.453V-5.539a1.613,1.613,0,0,0-1.8-1.844,1.934,1.934,0,0,0-1.945,1.211V0h-1.445V-8.453Zm19.8,4.32a5.062,5.062,0,0,1-.883,3.109A2.829,2.829,0,0,1-73.613.156,3.1,3.1,0,0,1-76.035-.82V3.25H-77.48v-11.7h1.32l.07.938a2.977,2.977,0,0,1,2.453-1.094,2.882,2.882,0,0,1,2.41,1.148,5.117,5.117,0,0,1,.887,3.2ZM-71.785-4.3a3.735,3.735,0,0,0-.609-2.258,1.963,1.963,0,0,0-1.672-.828,2.125,2.125,0,0,0-1.969,1.164V-2.18a2.129,2.129,0,0,0,1.984,1.156A1.954,1.954,0,0,0-72.4-1.848,4.077,4.077,0,0,0-71.785-4.3Zm8.5,3.461a3.07,3.07,0,0,1-2.477.992A2.628,2.628,0,0,1-67.82-.629a3.4,3.4,0,0,1-.715-2.324v-5.5h1.445v5.461q0,1.922,1.563,1.922a2.163,2.163,0,0,0,2.2-1.234V-8.453h1.445V0h-1.375Zm7.109.992a3.693,3.693,0,0,1-2.8-1.129,4.19,4.19,0,0,1-1.078-3.02v-.266A5.073,5.073,0,0,1-59.57-6.5a3.748,3.748,0,0,1,1.344-1.547,3.378,3.378,0,0,1,1.871-.559,3.166,3.166,0,0,1,2.563,1.086,4.7,4.7,0,0,1,.914,3.109v.6h-5.727a3,3,0,0,0,.73,2.02,2.3,2.3,0,0,0,1.777.77,2.517,2.517,0,0,0,1.3-.312,3.259,3.259,0,0,0,.93-.828l.883.688A3.55,3.55,0,0,1-56.176.156Zm-.18-7.578a1.928,1.928,0,0,0-1.469.637A3.1,3.1,0,0,0-58.559-5h4.234v-.109a2.753,2.753,0,0,0-.594-1.707A1.815,1.815,0,0,0-56.355-7.422Zm10.07,5.18a1.064,1.064,0,0,0-.441-.91,4.249,4.249,0,0,0-1.539-.559,7.277,7.277,0,0,1-1.742-.562,2.479,2.479,0,0,1-.953-.781,1.869,1.869,0,0,1-.309-1.078,2.193,2.193,0,0,1,.879-1.758,3.432,3.432,0,0,1,2.246-.719,3.532,3.532,0,0,1,2.332.742,2.357,2.357,0,0,1,.895,1.9h-1.453a1.3,1.3,0,0,0-.5-1.023,1.888,1.888,0,0,0-1.27-.43,1.976,1.976,0,0,0-1.234.344,1.082,1.082,0,0,0-.445.9.877.877,0,0,0,.414.789,5.1,5.1,0,0,0,1.5.508A7.8,7.8,0,0,1-46.16-4.3a2.558,2.558,0,0,1,1,.809,1.988,1.988,0,0,1,.324,1.152,2.163,2.163,0,0,1-.906,1.816A3.8,3.8,0,0,1-48.1.156a4.257,4.257,0,0,1-1.8-.359,2.922,2.922,0,0,1-1.223-1A2.42,2.42,0,0,1-51.559-2.6h1.445a1.5,1.5,0,0,0,.582,1.152,2.258,2.258,0,0,0,1.434.426,2.331,2.331,0,0,0,1.316-.332A1.02,1.02,0,0,0-46.285-2.242ZM-41-10.5v2.047h1.578v1.117H-41v5.249a1.173,1.173,0,0,0,.211.763.888.888,0,0,0,.719.254,3.5,3.5,0,0,0,.688-.094V0a4.215,4.215,0,0,1-1.109.155A1.8,1.8,0,0,1-41.949-.43a2.517,2.517,0,0,1-.492-1.664V-7.336H-43.98V-8.453h1.539V-10.5Zm2.727,6.2a4.993,4.993,0,0,1,.488-2.234A3.643,3.643,0,0,1-36.422-8.07a3.7,3.7,0,0,1,1.988-.539,3.565,3.565,0,0,1,2.793,1.2,4.6,4.6,0,0,1,1.066,3.18v.1a5.036,5.036,0,0,1-.473,2.215A3.589,3.589,0,0,1-32.4-.391a3.743,3.743,0,0,1-2.02.547,3.556,3.556,0,0,1-2.785-1.2A4.575,4.575,0,0,1-38.27-4.2Zm1.453.172a3.616,3.616,0,0,0,.652,2.258,2.088,2.088,0,0,0,1.746.852,2.075,2.075,0,0,0,1.75-.863A3.955,3.955,0,0,0-32.02-4.3a3.61,3.61,0,0,0-.66-2.254,2.1,2.1,0,0,0-1.754-.863,2.075,2.075,0,0,0-1.727.852A3.925,3.925,0,0,0-36.816-4.133ZM-23.84-2.242a1.064,1.064,0,0,0-.441-.91,4.249,4.249,0,0,0-1.539-.559,7.277,7.277,0,0,1-1.742-.562,2.479,2.479,0,0,1-.953-.781,1.869,1.869,0,0,1-.309-1.078,2.193,2.193,0,0,1,.879-1.758A3.432,3.432,0,0,1-25.7-8.609a3.532,3.532,0,0,1,2.332.742,2.357,2.357,0,0,1,.895,1.9h-1.453a1.3,1.3,0,0,0-.5-1.023,1.888,1.888,0,0,0-1.27-.43,1.976,1.976,0,0,0-1.234.344,1.082,1.082,0,0,0-.445.9.877.877,0,0,0,.414.789,5.1,5.1,0,0,0,1.5.508,7.8,7.8,0,0,1,1.754.578,2.558,2.558,0,0,1,1,.809,1.988,1.988,0,0,1,.324,1.152A2.163,2.163,0,0,1-23.3-.527a3.8,3.8,0,0,1-2.352.684,4.257,4.257,0,0,1-1.8-.359,2.922,2.922,0,0,1-1.223-1A2.42,2.42,0,0,1-29.113-2.6h1.445a1.5,1.5,0,0,0,.582,1.152,2.258,2.258,0,0,0,1.434.426,2.331,2.331,0,0,0,1.316-.332A1.02,1.02,0,0,0-23.84-2.242Zm10.68,1.219a2.082,2.082,0,0,0,1.352-.469,1.649,1.649,0,0,0,.641-1.172H-9.8a2.621,2.621,0,0,1-.5,1.383,3.293,3.293,0,0,1-1.23,1.047A3.55,3.55,0,0,1-13.16.156,3.482,3.482,0,0,1-15.906-1a4.59,4.59,0,0,1-1.02-3.152v-.242a5.089,5.089,0,0,1,.453-2.2,3.451,3.451,0,0,1,1.3-1.492,3.7,3.7,0,0,1,2-.531,3.39,3.39,0,0,1,2.363.852,3.043,3.043,0,0,1,1,2.211h-1.367a1.992,1.992,0,0,0-.621-1.348,1.932,1.932,0,0,0-1.379-.527,2.023,2.023,0,0,0-1.707.793,3.724,3.724,0,0,0-.605,2.293v.273a3.65,3.65,0,0,0,.6,2.25A2.033,2.033,0,0,0-13.16-1.023Zm4.6-3.281A4.993,4.993,0,0,1-8.07-6.539,3.643,3.643,0,0,1-6.711-8.07a3.7,3.7,0,0,1,1.988-.539,3.565,3.565,0,0,1,2.793,1.2A4.6,4.6,0,0,1-.863-4.234v.1a5.036,5.036,0,0,1-.473,2.215A3.589,3.589,0,0,1-2.687-.391a3.743,3.743,0,0,1-2.02.547,3.556,3.556,0,0,1-2.785-1.2A4.575,4.575,0,0,1-8.559-4.2Zm1.453.172a3.616,3.616,0,0,0,.652,2.258,2.088,2.088,0,0,0,1.746.852,2.075,2.075,0,0,0,1.75-.863A3.955,3.955,0,0,0-2.309-4.3a3.61,3.61,0,0,0-.66-2.254,2.1,2.1,0,0,0-1.754-.863,2.075,2.075,0,0,0-1.727.852A3.925,3.925,0,0,0-7.105-4.133Zm9.422-4.32.047,1.063A3.08,3.08,0,0,1,4.895-8.609q2.68,0,2.7,3.023V0H6.152V-5.594a1.946,1.946,0,0,0-.418-1.352,1.675,1.675,0,0,0-1.277-.437,2.086,2.086,0,0,0-1.234.375,2.546,2.546,0,0,0-.828.984V0H.949V-8.453ZM13.387-4.3a4.952,4.952,0,0,1,.922-3.129,2.915,2.915,0,0,1,2.414-1.184,2.932,2.932,0,0,1,2.352,1.016V-12H20.52V0H19.191l-.07-.906A2.943,2.943,0,0,1,16.707.156a2.887,2.887,0,0,1-2.395-1.2,5.008,5.008,0,0,1-.926-3.141Zm1.445.164a3.749,3.749,0,0,0,.594,2.25,1.92,1.92,0,0,0,1.641.813A2.108,2.108,0,0,0,19.074-2.3V-6.187a2.125,2.125,0,0,0-1.992-1.2,1.929,1.929,0,0,0-1.656.82A4.128,4.128,0,0,0,14.832-4.133ZM22.379-4.3a4.993,4.993,0,0,1,.488-2.234A3.643,3.643,0,0,1,24.227-8.07a3.7,3.7,0,0,1,1.988-.539,3.565,3.565,0,0,1,2.793,1.2,4.6,4.6,0,0,1,1.066,3.18v.1A5.036,5.036,0,0,1,29.6-1.918,3.589,3.589,0,0,1,28.25-.391a3.743,3.743,0,0,1-2.02.547,3.556,3.556,0,0,1-2.785-1.2A4.575,4.575,0,0,1,22.379-4.2Zm1.453.172a3.616,3.616,0,0,0,.652,2.258,2.088,2.088,0,0,0,1.746.852,2.075,2.075,0,0,0,1.75-.863A3.955,3.955,0,0,0,28.629-4.3a3.61,3.61,0,0,0-.66-2.254,2.1,2.1,0,0,0-1.754-.863,2.075,2.075,0,0,0-1.727.852A3.925,3.925,0,0,0,23.832-4.133Zm15.211,0a5.026,5.026,0,0,1-.891,3.113A2.846,2.846,0,0,1,35.762.156,2.947,2.947,0,0,1,33.285-.977L33.215,0H31.887V-12h1.445v4.477a2.93,2.93,0,0,1,2.414-1.086,2.863,2.863,0,0,1,2.418,1.164,5.177,5.177,0,0,1,.879,3.188ZM37.6-4.3a3.906,3.906,0,0,0-.57-2.281,1.888,1.888,0,0,0-1.641-.8,2.122,2.122,0,0,0-2.055,1.328V-2.4A2.181,2.181,0,0,0,35.4-1.07a1.878,1.878,0,0,0,1.617-.8A4.153,4.153,0,0,0,37.6-4.3ZM42.434,0H40.988V-12h1.445Zm5.82.156a3.693,3.693,0,0,1-2.8-1.129,4.19,4.19,0,0,1-1.078-3.02v-.266a5.073,5.073,0,0,1,.48-2.246A3.748,3.748,0,0,1,46.2-8.051a3.378,3.378,0,0,1,1.871-.559,3.166,3.166,0,0,1,2.563,1.086,4.7,4.7,0,0,1,.914,3.109v.6H45.824a3,3,0,0,0,.73,2.02,2.3,2.3,0,0,0,1.777.77,2.517,2.517,0,0,0,1.3-.312,3.259,3.259,0,0,0,.93-.828l.883.688A3.55,3.55,0,0,1,48.254.156Zm-.18-7.578a1.928,1.928,0,0,0-1.469.637A3.1,3.1,0,0,0,45.871-5h4.234v-.109a2.753,2.753,0,0,0-.594-1.707A1.815,1.815,0,0,0,48.074-7.422Zm12.5,6.4a2.082,2.082,0,0,0,1.352-.469,1.649,1.649,0,0,0,.641-1.172h1.367a2.621,2.621,0,0,1-.5,1.383A3.293,3.293,0,0,1,62.2-.234a3.55,3.55,0,0,1-1.629.391A3.482,3.482,0,0,1,57.828-1a4.59,4.59,0,0,1-1.02-3.152v-.242a5.089,5.089,0,0,1,.453-2.2,3.451,3.451,0,0,1,1.3-1.492,3.7,3.7,0,0,1,2-.531,3.39,3.39,0,0,1,2.363.852,3.043,3.043,0,0,1,1,2.211H62.566a1.992,1.992,0,0,0-.621-1.348,1.932,1.932,0,0,0-1.379-.527,2.023,2.023,0,0,0-1.707.793,3.724,3.724,0,0,0-.605,2.293v.273a3.65,3.65,0,0,0,.6,2.25A2.033,2.033,0,0,0,60.574-1.023Zm4.6-3.281a4.993,4.993,0,0,1,.488-2.234A3.643,3.643,0,0,1,67.023-8.07a3.7,3.7,0,0,1,1.988-.539,3.565,3.565,0,0,1,2.793,1.2,4.6,4.6,0,0,1,1.066,3.18v.1A5.036,5.036,0,0,1,72.4-1.918,3.589,3.589,0,0,1,71.047-.391a3.743,3.743,0,0,1-2.02.547,3.556,3.556,0,0,1-2.785-1.2A4.575,4.575,0,0,1,65.176-4.2Zm1.453.172a3.616,3.616,0,0,0,.652,2.258,2.088,2.088,0,0,0,1.746.852,2.075,2.075,0,0,0,1.75-.863A3.955,3.955,0,0,0,71.426-4.3a3.61,3.61,0,0,0-.66-2.254,2.1,2.1,0,0,0-1.754-.863,2.075,2.075,0,0,0-1.727.852A3.925,3.925,0,0,0,66.629-4.133Zm15.211,0a5.026,5.026,0,0,1-.891,3.113A2.846,2.846,0,0,1,78.559.156,2.947,2.947,0,0,1,76.082-.977L76.012,0H74.684V-12h1.445v4.477a2.93,2.93,0,0,1,2.414-1.086,2.863,2.863,0,0,1,2.418,1.164,5.177,5.177,0,0,1,.879,3.188ZM80.395-4.3a3.906,3.906,0,0,0-.57-2.281,1.888,1.888,0,0,0-1.641-.8,2.122,2.122,0,0,0-2.055,1.328V-2.4A2.181,2.181,0,0,0,78.2-1.07a1.878,1.878,0,0,0,1.617-.8A4.153,4.153,0,0,0,80.395-4.3Zm7.352-2.859a4.331,4.331,0,0,0-.711-.055A1.9,1.9,0,0,0,85.105-6V0H83.66V-8.453h1.406l.023.977a2.251,2.251,0,0,1,2.016-1.133,1.477,1.477,0,0,1,.641.109ZM88.535-4.3a4.993,4.993,0,0,1,.488-2.234A3.643,3.643,0,0,1,90.383-8.07a3.7,3.7,0,0,1,1.988-.539,3.565,3.565,0,0,1,2.793,1.2,4.6,4.6,0,0,1,1.066,3.18v.1a5.036,5.036,0,0,1-.473,2.215A3.589,3.589,0,0,1,94.406-.391a3.743,3.743,0,0,1-2.02.547,3.556,3.556,0,0,1-2.785-1.2A4.575,4.575,0,0,1,88.535-4.2Zm1.453.172a3.616,3.616,0,0,0,.652,2.258,2.088,2.088,0,0,0,1.746.852,2.075,2.075,0,0,0,1.75-.863A3.955,3.955,0,0,0,94.785-4.3a3.61,3.61,0,0,0-.66-2.254,2.1,2.1,0,0,0-1.754-.863,2.075,2.075,0,0,0-1.727.852A3.925,3.925,0,0,0,89.988-4.133Z" transform="translate(327.541 3010)" fill="#12263f"/>
    <path id="Trazado_108064" data-name="Trazado 108064" d="M-54.152-4.23l3.867-12.832h3.914L-52.312,0H-55.98L-61.9-17.062H-58Zm8.1-2.227a7.52,7.52,0,0,1,.727-3.363,5.319,5.319,0,0,1,2.092-2.285,6.1,6.1,0,0,1,3.17-.809,5.774,5.774,0,0,1,4.189,1.57,6.3,6.3,0,0,1,1.811,4.266l.023.867a6.627,6.627,0,0,1-1.629,4.682A5.662,5.662,0,0,1-40.043.234,5.69,5.69,0,0,1-44.42-1.523,6.744,6.744,0,0,1-46.055-6.3Zm3.387.24a4.74,4.74,0,0,0,.68,2.764,2.242,2.242,0,0,0,1.945.957,2.247,2.247,0,0,0,1.922-.945,5.186,5.186,0,0,0,.691-3.022,4.692,4.692,0,0,0-.691-2.746,2.248,2.248,0,0,0-1.945-.974,2.211,2.211,0,0,0-1.922.968A5.274,5.274,0,0,0-42.668-6.217ZM-28.383,0h-3.4V-18h3.4ZM-18-1.289A4.247,4.247,0,0,1-21.469.234,4.005,4.005,0,0,1-24.58-.937a5,5,0,0,1-1.1-3.434V-12.68h3.387v8.2q0,1.983,1.8,1.983a2.445,2.445,0,0,0,2.367-1.2V-12.68h3.4V0h-3.187ZM-9.047-12.68l.105,1.465a4.427,4.427,0,0,1,3.645-1.7,3.679,3.679,0,0,1,3,1.184A5.522,5.522,0,0,1-1.289-8.191V0H-4.676V-8.128A2.206,2.206,0,0,0-5.145-9.7,2.1,2.1,0,0,0-6.7-10.184,2.329,2.329,0,0,0-8.848-8.962V0h-3.387V-12.68ZM5.332-15.8v3.117H7.5V-10.2H5.332v6.328A1.511,1.511,0,0,0,5.6-2.859a1.354,1.354,0,0,0,1.031.3,5.4,5.4,0,0,0,1-.082V-.07a6.972,6.972,0,0,1-2.051.3q-3.562,0-3.633-3.6V-10.2H.094V-12.68H1.945V-15.8ZM16.734,0a3.761,3.761,0,0,1-.34-1.137A4.1,4.1,0,0,1,13.2.234,4.5,4.5,0,0,1,10.107-.844,3.467,3.467,0,0,1,8.883-3.562a3.583,3.583,0,0,1,1.494-3.094A7.373,7.373,0,0,1,14.7-7.746h1.559v-.727A2.089,2.089,0,0,0,15.8-9.879a1.775,1.775,0,0,0-1.424-.527,2.018,2.018,0,0,0-1.342.41,1.393,1.393,0,0,0-.486,1.125H9.164a3.4,3.4,0,0,1,.68-2.039,4.493,4.493,0,0,1,1.922-1.471,7,7,0,0,1,2.789-.533,5.534,5.534,0,0,1,3.721,1.178,4.12,4.12,0,0,1,1.377,3.311v5.5a6.062,6.062,0,0,0,.5,2.73V0Zm-2.8-2.355a2.917,2.917,0,0,0,1.383-.334,2.194,2.194,0,0,0,.938-.9v-2.18H14.988q-2.543,0-2.707,1.758l-.012.2a1.356,1.356,0,0,0,.445,1.043A1.73,1.73,0,0,0,13.934-2.355ZM29.379-9.5A9.2,9.2,0,0,0,28.16-9.6a2.481,2.481,0,0,0-2.52,1.3V0H22.254V-12.68h3.2l.094,1.512a3.138,3.138,0,0,1,2.824-1.746,3.549,3.549,0,0,1,1.055.152Zm5.2,9.5h-3.4V-12.68h3.4Zm-3.6-15.961a1.668,1.668,0,0,1,.51-1.254,1.915,1.915,0,0,1,1.389-.492,1.919,1.919,0,0,1,1.383.492,1.658,1.658,0,0,1,.516,1.254A1.663,1.663,0,0,1,34.26-14.7a1.924,1.924,0,0,1-1.377.492,1.924,1.924,0,0,1-1.377-.492A1.663,1.663,0,0,1,30.984-15.961Zm5.859,9.5A7.52,7.52,0,0,1,37.57-9.82a5.319,5.319,0,0,1,2.092-2.285,6.1,6.1,0,0,1,3.17-.809,5.774,5.774,0,0,1,4.189,1.57,6.3,6.3,0,0,1,1.811,4.266l.023.867a6.627,6.627,0,0,1-1.629,4.682A5.662,5.662,0,0,1,42.855.234a5.69,5.69,0,0,1-4.377-1.758A6.744,6.744,0,0,1,36.844-6.3Zm3.387.24a4.74,4.74,0,0,0,.68,2.764,2.242,2.242,0,0,0,1.945.957,2.247,2.247,0,0,0,1.922-.945,5.186,5.186,0,0,0,.691-3.022,4.692,4.692,0,0,0-.691-2.746,2.248,2.248,0,0,0-1.945-.974,2.211,2.211,0,0,0-1.922.968A5.274,5.274,0,0,0,40.23-6.217ZM57.809-3.5a1.091,1.091,0,0,0-.615-.979,6.989,6.989,0,0,0-1.975-.639Q50.7-6.07,50.7-8.965a3.484,3.484,0,0,1,1.4-2.818,5.649,5.649,0,0,1,3.662-1.131,6.08,6.08,0,0,1,3.861,1.137,3.582,3.582,0,0,1,1.447,2.953H57.68a1.639,1.639,0,0,0-.469-1.2,1.984,1.984,0,0,0-1.465-.475,2.027,2.027,0,0,0-1.324.387,1.221,1.221,0,0,0-.469.984,1.044,1.044,0,0,0,.533.908,5.485,5.485,0,0,0,1.8.6,14.693,14.693,0,0,1,2.133.568Q61.1-6.07,61.1-3.645A3.307,3.307,0,0,1,59.613-.838,6.42,6.42,0,0,1,55.77.234a6.706,6.706,0,0,1-2.83-.568A4.748,4.748,0,0,1,51-1.893a3.621,3.621,0,0,1-.7-2.139h3.211a1.768,1.768,0,0,0,.668,1.383,2.649,2.649,0,0,0,1.664.48,2.452,2.452,0,0,0,1.471-.369A1.149,1.149,0,0,0,57.809-3.5Z" transform="translate(1062.541 2759)" fill="#fff"/>
    <path id="Trazado_108065" data-name="Trazado 108065" d="M-73.345-5.01V0h-2.93V-14.219h5.547a6.417,6.417,0,0,1,2.817.586,4.318,4.318,0,0,1,1.87,1.665,4.643,4.643,0,0,1,.654,2.456,4.083,4.083,0,0,1-1.431,3.3,5.959,5.959,0,0,1-3.96,1.206Zm0-2.373h2.617a2.573,2.573,0,0,0,1.772-.547,1.989,1.989,0,0,0,.61-1.562,2.345,2.345,0,0,0-.615-1.689,2.3,2.3,0,0,0-1.7-.664h-2.686Zm9.219,2a6.267,6.267,0,0,1,.605-2.8,4.432,4.432,0,0,1,1.743-1.9,5.086,5.086,0,0,1,2.642-.674,4.812,4.812,0,0,1,3.491,1.309A5.252,5.252,0,0,1-54.136-5.9l.02.723a5.523,5.523,0,0,1-1.357,3.9A4.718,4.718,0,0,1-59.116.2,4.742,4.742,0,0,1-62.764-1.27a5.62,5.62,0,0,1-1.362-3.984Zm2.822.2a3.95,3.95,0,0,0,.566,2.3,1.868,1.868,0,0,0,1.621.8,1.873,1.873,0,0,0,1.6-.787,4.322,4.322,0,0,0,.576-2.518,3.91,3.91,0,0,0-.576-2.289,1.873,1.873,0,0,0-1.621-.812,1.842,1.842,0,0,0-1.6.807A4.395,4.395,0,0,0-61.3-5.181ZM-46.44-7.92A7.667,7.667,0,0,0-47.456-8a2.067,2.067,0,0,0-2.1,1.084V0h-2.822V-10.566h2.666l.078,1.26a2.615,2.615,0,0,1,2.354-1.455,2.957,2.957,0,0,1,.879.127ZM-39.331,0V-8.5H-40.9v-2.07h1.572v-.9a3.648,3.648,0,0,1,1.021-2.759,3.952,3.952,0,0,1,2.856-.981,6.652,6.652,0,0,1,1.436.194l-.029,2.17a3.6,3.6,0,0,0-.859-.088q-1.592,0-1.592,1.507v.857h2.1V-8.5h-2.1V0Zm12.725-1.074A3.539,3.539,0,0,1-29.5.2,3.338,3.338,0,0,1-32.09-.781,4.169,4.169,0,0,1-33-3.643v-6.924h2.822v6.834q0,1.652,1.5,1.652a2.038,2.038,0,0,0,1.973-1v-7.489h2.832V0h-2.656ZM-16.88.2A5.187,5.187,0,0,1-20.664-1.23a5.068,5.068,0,0,1-1.46-3.8V-5.3a6.383,6.383,0,0,1,.615-2.847,4.515,4.515,0,0,1,1.743-1.934,4.893,4.893,0,0,1,2.573-.679,4.385,4.385,0,0,1,3.413,1.367,5.555,5.555,0,0,1,1.245,3.877v1.152h-6.729a2.622,2.622,0,0,0,.825,1.66,2.5,2.5,0,0,0,1.743.625,3.046,3.046,0,0,0,2.549-1.182l1.387,1.553a4.237,4.237,0,0,1-1.719,1.4A5.639,5.639,0,0,1-16.88.2ZM-17.2-8.486a1.764,1.764,0,0,0-1.362.569,2.946,2.946,0,0,0-.669,1.628h3.926v-.226a2.1,2.1,0,0,0-.508-1.457A1.819,1.819,0,0,0-17.2-8.486ZM-5-7.92A7.667,7.667,0,0,0-6.011-8a2.067,2.067,0,0,0-2.1,1.084V0h-2.822V-10.566h2.666l.078,1.26a2.615,2.615,0,0,1,2.354-1.455,2.957,2.957,0,0,1,.879.127ZM-.4-2.275H4.771V0H-4V-1.719L.972-8.291H-3.853v-2.275H4.614V-8.9ZM12.661,0a3.134,3.134,0,0,1-.283-.947A3.415,3.415,0,0,1,9.712.2,3.752,3.752,0,0,1,7.139-.7,2.89,2.89,0,0,1,6.118-2.969,2.986,2.986,0,0,1,7.363-5.547a6.144,6.144,0,0,1,3.6-.908h1.3v-.605a1.741,1.741,0,0,0-.376-1.172A1.479,1.479,0,0,0,10.7-8.672,1.682,1.682,0,0,0,9.58-8.33a1.161,1.161,0,0,0-.405.938H6.353a2.835,2.835,0,0,1,.566-1.7,3.744,3.744,0,0,1,1.6-1.226,5.837,5.837,0,0,1,2.324-.444,4.611,4.611,0,0,1,3.1.981,3.433,3.433,0,0,1,1.147,2.759v4.58a5.052,5.052,0,0,0,.42,2.275V0ZM10.327-1.963a2.431,2.431,0,0,0,1.152-.278,1.828,1.828,0,0,0,.781-.747V-4.8H11.206Q9.087-4.8,8.95-3.34l-.01.166a1.13,1.13,0,0,0,.371.869A1.441,1.441,0,0,0,10.327-1.963Zm14.561-8.6.088,1.182a3.713,3.713,0,0,1,3.037-1.377,2.818,2.818,0,0,1,2.8,1.611,3.628,3.628,0,0,1,3.174-1.611,3.152,3.152,0,0,1,2.559,1,4.6,4.6,0,0,1,.84,3.013V0H34.556V-6.754A2.02,2.02,0,0,0,34.2-8.07a1.556,1.556,0,0,0-1.24-.416,1.762,1.762,0,0,0-1.758,1.214L31.216,0H28.394V-6.744a2,2,0,0,0-.361-1.331,1.571,1.571,0,0,0-1.23-.411,1.828,1.828,0,0,0-1.738,1V0H22.241V-10.566ZM45.679,0A3.134,3.134,0,0,1,45.4-.947,3.415,3.415,0,0,1,42.729.2a3.752,3.752,0,0,1-2.573-.9,2.89,2.89,0,0,1-1.021-2.266,2.986,2.986,0,0,1,1.245-2.578,6.144,6.144,0,0,1,3.6-.908h1.3v-.605A1.741,1.741,0,0,0,44.9-8.232a1.479,1.479,0,0,0-1.187-.439A1.682,1.682,0,0,0,42.6-8.33a1.161,1.161,0,0,0-.405.938H39.37a2.835,2.835,0,0,1,.566-1.7,3.744,3.744,0,0,1,1.6-1.226,5.837,5.837,0,0,1,2.324-.444,4.611,4.611,0,0,1,3.1.981A3.433,3.433,0,0,1,48.11-7.021v4.58a5.052,5.052,0,0,0,.42,2.275V0ZM43.345-1.963A2.431,2.431,0,0,0,44.5-2.241a1.828,1.828,0,0,0,.781-.747V-4.8H44.224Q42.1-4.8,41.968-3.34l-.01.166a1.13,1.13,0,0,0,.371.869A1.441,1.441,0,0,0,43.345-1.963ZM54.077-3.994l1.953-6.572h3.027L54.81,1.641l-.234.557a3.221,3.221,0,0,1-3.125,2.07,4.441,4.441,0,0,1-1.25-.186V1.943l.43.01a2.322,2.322,0,0,0,1.2-.244A1.6,1.6,0,0,0,52.446.9l.332-.869-3.7-10.6h3.037Zm5.508-1.387a6.267,6.267,0,0,1,.605-2.8,4.432,4.432,0,0,1,1.743-1.9,5.086,5.086,0,0,1,2.642-.674,4.812,4.812,0,0,1,3.491,1.309A5.252,5.252,0,0,1,69.575-5.9l.02.723a5.523,5.523,0,0,1-1.357,3.9A4.718,4.718,0,0,1,64.595.2,4.742,4.742,0,0,1,60.947-1.27a5.62,5.62,0,0,1-1.362-3.984Zm2.822.2a3.95,3.95,0,0,0,.566,2.3,1.868,1.868,0,0,0,1.621.8,1.873,1.873,0,0,0,1.6-.787,4.322,4.322,0,0,0,.576-2.518A3.91,3.91,0,0,0,66.2-7.675a1.873,1.873,0,0,0-1.621-.812,1.842,1.842,0,0,0-1.6.807A4.395,4.395,0,0,0,62.407-5.181ZM77.271-7.92A7.667,7.667,0,0,0,76.255-8a2.067,2.067,0,0,0-2.1,1.084V0H71.333V-10.566H74l.078,1.26a2.615,2.615,0,0,1,2.354-1.455,2.957,2.957,0,0,1,.879.127Z" transform="translate(852.541 2936)" fill="#12263f"/>
    <path id="Trazado_108066" data-name="Trazado 108066" d="M-100.913-5.01V0h-2.93V-14.219H-98.3a6.417,6.417,0,0,1,2.817.586,4.318,4.318,0,0,1,1.87,1.665,4.643,4.643,0,0,1,.654,2.456,4.083,4.083,0,0,1-1.431,3.3,5.959,5.959,0,0,1-3.96,1.206Zm0-2.373H-98.3a2.573,2.573,0,0,0,1.772-.547,1.989,1.989,0,0,0,.61-1.562,2.345,2.345,0,0,0-.615-1.689,2.3,2.3,0,0,0-1.7-.664h-2.686Zm9.219,2a6.266,6.266,0,0,1,.605-2.8,4.432,4.432,0,0,1,1.743-1.9,5.086,5.086,0,0,1,2.642-.674,4.812,4.812,0,0,1,3.491,1.309A5.252,5.252,0,0,1-81.7-5.9l.02.723a5.523,5.523,0,0,1-1.357,3.9A4.718,4.718,0,0,1-86.685.2,4.742,4.742,0,0,1-90.332-1.27a5.62,5.62,0,0,1-1.362-3.984Zm2.822.2a3.95,3.95,0,0,0,.566,2.3,1.868,1.868,0,0,0,1.621.8,1.873,1.873,0,0,0,1.6-.787,4.322,4.322,0,0,0,.576-2.518,3.91,3.91,0,0,0-.576-2.289A1.873,1.873,0,0,0-86.7-8.486a1.842,1.842,0,0,0-1.6.807A4.395,4.395,0,0,0-88.872-5.181ZM-74.009-7.92A7.667,7.667,0,0,0-75.024-8a2.067,2.067,0,0,0-2.1,1.084V0h-2.822V-10.566h2.666l.078,1.26a2.615,2.615,0,0,1,2.354-1.455,2.957,2.957,0,0,1,.879.127Zm5.9,2.559A6.368,6.368,0,0,1-67-9.3a3.6,3.6,0,0,1,3.032-1.465,3.236,3.236,0,0,1,2.549,1.152V-15h2.832V0h-2.549l-.137-1.123A3.321,3.321,0,0,1-63.989.2a3.587,3.587,0,0,1-2.993-1.47A6.573,6.573,0,0,1-68.11-5.361Zm2.822.2a4.194,4.194,0,0,0,.518,2.286,1.685,1.685,0,0,0,1.5.795,1.888,1.888,0,0,0,1.846-1.109V-7.378a1.861,1.861,0,0,0-1.826-1.109Q-65.288-8.486-65.288-5.161ZM-51.538.2A5.187,5.187,0,0,1-55.322-1.23a5.068,5.068,0,0,1-1.46-3.8V-5.3a6.383,6.383,0,0,1,.615-2.847,4.515,4.515,0,0,1,1.743-1.934,4.893,4.893,0,0,1,2.573-.679,4.385,4.385,0,0,1,3.413,1.367,5.555,5.555,0,0,1,1.245,3.877v1.152h-6.729a2.622,2.622,0,0,0,.825,1.66,2.5,2.5,0,0,0,1.743.625A3.046,3.046,0,0,0-48.8-3.262l1.387,1.553a4.237,4.237,0,0,1-1.719,1.4A5.639,5.639,0,0,1-51.538.2Zm-.322-8.682a1.764,1.764,0,0,0-1.362.569,2.946,2.946,0,0,0-.669,1.628h3.926v-.226a2.1,2.1,0,0,0-.508-1.457A1.819,1.819,0,0,0-51.86-8.486ZM-41.2-2.08a1.851,1.851,0,0,0,1.27-.43,1.506,1.506,0,0,0,.508-1.143h2.646a3.62,3.62,0,0,1-.586,1.968A3.866,3.866,0,0,1-38.936-.3,4.936,4.936,0,0,1-41.147.2a4.587,4.587,0,0,1-3.574-1.44A5.7,5.7,0,0,1-46.03-5.225V-5.41a5.635,5.635,0,0,1,1.3-3.9,4.534,4.534,0,0,1,3.564-1.455,4.444,4.444,0,0,1,3.179,1.128,3.994,3.994,0,0,1,1.216,3h-2.646a1.939,1.939,0,0,0-.508-1.34,1.693,1.693,0,0,0-1.289-.515,1.7,1.7,0,0,0-1.489.719,4.166,4.166,0,0,0-.5,2.333v.293a4.219,4.219,0,0,0,.5,2.347A1.721,1.721,0,0,0-41.2-2.08ZM-32.183,0h-2.832V-10.566h2.832Zm-3-13.3a1.39,1.39,0,0,1,.425-1.045,1.6,1.6,0,0,1,1.157-.41,1.6,1.6,0,0,1,1.152.41,1.382,1.382,0,0,1,.43,1.045,1.386,1.386,0,0,1-.435,1.055,1.6,1.6,0,0,1-1.147.41,1.6,1.6,0,0,1-1.147-.41A1.386,1.386,0,0,1-35.181-13.3ZM-24.136-2.92a.909.909,0,0,0-.513-.815,5.824,5.824,0,0,0-1.646-.532q-3.77-.791-3.77-3.2A2.9,2.9,0,0,1-28.9-9.819a4.708,4.708,0,0,1,3.052-.942,5.067,5.067,0,0,1,3.218.947,2.985,2.985,0,0,1,1.206,2.461h-2.822a1.366,1.366,0,0,0-.391-1,1.653,1.653,0,0,0-1.221-.4,1.689,1.689,0,0,0-1.1.322,1.017,1.017,0,0,0-.391.82.87.87,0,0,0,.444.757,4.571,4.571,0,0,0,1.5.5,12.244,12.244,0,0,1,1.777.474,2.92,2.92,0,0,1,2.236,2.842A2.756,2.756,0,0,1-22.632-.7a5.35,5.35,0,0,1-3.2.894,5.588,5.588,0,0,1-2.358-.474,3.957,3.957,0,0,1-1.616-1.3A3.018,3.018,0,0,1-30.4-3.359h2.676a1.473,1.473,0,0,0,.557,1.152,2.208,2.208,0,0,0,1.387.4,2.044,2.044,0,0,0,1.226-.308A.957.957,0,0,0-24.136-2.92ZM-16.6,0h-2.832V-10.566H-16.6Zm-3-13.3a1.39,1.39,0,0,1,.425-1.045,1.6,1.6,0,0,1,1.157-.41,1.6,1.6,0,0,1,1.152.41,1.382,1.382,0,0,1,.43,1.045,1.386,1.386,0,0,1-.435,1.055,1.6,1.6,0,0,1-1.147.41,1.6,1.6,0,0,1-1.147-.41A1.386,1.386,0,0,1-19.595-13.3Zm4.883,7.92a6.267,6.267,0,0,1,.605-2.8,4.432,4.432,0,0,1,1.743-1.9,5.086,5.086,0,0,1,2.642-.674A4.812,4.812,0,0,1-6.23-9.453,5.252,5.252,0,0,1-4.722-5.9l.02.723a5.523,5.523,0,0,1-1.357,3.9A4.718,4.718,0,0,1-9.7.2,4.742,4.742,0,0,1-13.35-1.27a5.62,5.62,0,0,1-1.362-3.984Zm2.822.2a3.95,3.95,0,0,0,.566,2.3,1.868,1.868,0,0,0,1.621.8,1.873,1.873,0,0,0,1.6-.787,4.322,4.322,0,0,0,.576-2.518A3.91,3.91,0,0,0-8.1-7.675a1.873,1.873,0,0,0-1.621-.812,1.842,1.842,0,0,0-1.6.807A4.395,4.395,0,0,0-11.89-5.181ZM-9.165-15h3.076l-2.705,3.027h-2.295Zm8.8,4.434.088,1.221a3.689,3.689,0,0,1,3.037-1.416,3.066,3.066,0,0,1,2.5.986A4.6,4.6,0,0,1,6.1-6.826V0H3.276V-6.773A1.838,1.838,0,0,0,2.886-8.08a1.746,1.746,0,0,0-1.3-.406A1.941,1.941,0,0,0-.2-7.468V0H-3.022V-10.566ZM12.778-5.361A6.368,6.368,0,0,1,13.887-9.3a3.6,3.6,0,0,1,3.032-1.465,3.236,3.236,0,0,1,2.549,1.152V-15H22.3V0H19.751l-.137-1.123A3.321,3.321,0,0,1,16.9.2a3.587,3.587,0,0,1-2.993-1.47A6.573,6.573,0,0,1,12.778-5.361Zm2.822.2a4.194,4.194,0,0,0,.518,2.286,1.685,1.685,0,0,0,1.5.795,1.888,1.888,0,0,0,1.846-1.109V-7.378a1.861,1.861,0,0,0-1.826-1.109Q15.6-8.486,15.6-5.161ZM29.351.2A5.187,5.187,0,0,1,25.566-1.23a5.068,5.068,0,0,1-1.46-3.8V-5.3a6.383,6.383,0,0,1,.615-2.847,4.515,4.515,0,0,1,1.743-1.934,4.893,4.893,0,0,1,2.573-.679,4.385,4.385,0,0,1,3.413,1.367A5.555,5.555,0,0,1,33.7-5.518v1.152H26.968a2.622,2.622,0,0,0,.825,1.66,2.5,2.5,0,0,0,1.743.625,3.046,3.046,0,0,0,2.549-1.182l1.387,1.553a4.237,4.237,0,0,1-1.719,1.4A5.639,5.639,0,0,1,29.351.2Zm-.322-8.682a1.764,1.764,0,0,0-1.362.569A2.946,2.946,0,0,0,27-6.289h3.926v-.226a2.1,2.1,0,0,0-.508-1.457A1.819,1.819,0,0,0,29.028-8.486ZM38.276,0H35.444V-15h2.832Zm11.7-2.08a1.851,1.851,0,0,0,1.27-.43,1.506,1.506,0,0,0,.508-1.143H54.4a3.62,3.62,0,0,1-.586,1.968A3.866,3.866,0,0,1,52.236-.3,4.936,4.936,0,0,1,50.024.2a4.587,4.587,0,0,1-3.574-1.44,5.7,5.7,0,0,1-1.309-3.979V-5.41a5.635,5.635,0,0,1,1.3-3.9A4.534,4.534,0,0,1,50-10.762a4.444,4.444,0,0,1,3.179,1.128,3.994,3.994,0,0,1,1.216,3H51.753a1.939,1.939,0,0,0-.508-1.34,1.693,1.693,0,0,0-1.289-.515,1.7,1.7,0,0,0-1.489.719,4.166,4.166,0,0,0-.5,2.333v.293a4.219,4.219,0,0,0,.5,2.347A1.721,1.721,0,0,0,49.976-2.08ZM58.989,0H56.157V-15h2.832Zm5.3,0H61.46V-10.566h2.832Zm-3-13.3a1.39,1.39,0,0,1,.425-1.045,1.6,1.6,0,0,1,1.157-.41,1.6,1.6,0,0,1,1.152.41,1.382,1.382,0,0,1,.43,1.045,1.386,1.386,0,0,1-.435,1.055,1.6,1.6,0,0,1-1.147.41,1.6,1.6,0,0,1-1.147-.41A1.386,1.386,0,0,1,61.294-13.3ZM71.479.2A5.187,5.187,0,0,1,67.7-1.23a5.068,5.068,0,0,1-1.46-3.8V-5.3a6.383,6.383,0,0,1,.615-2.847,4.515,4.515,0,0,1,1.743-1.934,4.893,4.893,0,0,1,2.573-.679A4.385,4.385,0,0,1,74.58-9.395a5.555,5.555,0,0,1,1.245,3.877v1.152H69.1a2.622,2.622,0,0,0,.825,1.66,2.5,2.5,0,0,0,1.743.625,3.046,3.046,0,0,0,2.549-1.182L75.6-1.709a4.237,4.237,0,0,1-1.719,1.4A5.639,5.639,0,0,1,71.479.2Zm-.322-8.682a1.764,1.764,0,0,0-1.362.569,2.946,2.946,0,0,0-.669,1.628h3.926v-.226a2.1,2.1,0,0,0-.508-1.457A1.819,1.819,0,0,0,71.157-8.486Zm8.867-2.08.088,1.221a3.689,3.689,0,0,1,3.037-1.416,3.066,3.066,0,0,1,2.5.986,4.6,4.6,0,0,1,.84,2.949V0H83.667V-6.773a1.838,1.838,0,0,0-.391-1.307,1.746,1.746,0,0,0-1.3-.406A1.941,1.941,0,0,0,80.19-7.468V0H77.368V-10.566Zm11.982-2.6v2.6h1.807V-8.5H92.007v5.273a1.259,1.259,0,0,0,.225.84,1.128,1.128,0,0,0,.859.254,4.5,4.5,0,0,0,.83-.068V-.059A5.81,5.81,0,0,1,92.212.2q-2.969,0-3.027-3V-8.5H87.642v-2.07h1.543v-2.6ZM100.249.2A5.187,5.187,0,0,1,96.465-1.23,5.068,5.068,0,0,1,95-5.029V-5.3a6.383,6.383,0,0,1,.615-2.847,4.515,4.515,0,0,1,1.743-1.934,4.893,4.893,0,0,1,2.573-.679,4.385,4.385,0,0,1,3.413,1.367,5.555,5.555,0,0,1,1.245,3.877v1.152H97.866a2.622,2.622,0,0,0,.825,1.66,2.5,2.5,0,0,0,1.743.625,3.046,3.046,0,0,0,2.549-1.182l1.387,1.553a4.237,4.237,0,0,1-1.719,1.4A5.639,5.639,0,0,1,100.249.2Zm-.322-8.682a1.764,1.764,0,0,0-1.362.569A2.946,2.946,0,0,0,97.9-6.289h3.926v-.226a2.1,2.1,0,0,0-.508-1.457A1.819,1.819,0,0,0,99.927-8.486Z" transform="translate(1281.541 2936)" fill="#12263f"/>
    <path id="Trazado_108078" data-name="Trazado 108078" d="M0,0H400V10H0Z" transform="translate(599.541 2509)" fill="#3a2c69"/>
    <path id="Trazado_108067" data-name="Trazado 108067" d="M0,0H295V10H0Z" transform="translate(914.541 2721)" fill="#5038a1"/>
    <path id="Trazado_108076" data-name="Trazado 108076" d="M0,0H295V10H0Z" transform="translate(179.541 2721)" fill="#5038a1"/>
    <path id="Trazado_108068" data-name="Trazado 108068" d="M0,0H295V10H0Z" transform="translate(704.541 2898)" fill="#8c6df2"/>
    <path id="Trazado_108069" data-name="Trazado 108069" d="M0,0H295V10H0Z" transform="translate(1124.541 2898)" fill="#8c6df2"/>
    <path id="Trazado_108053" data-name="Trazado 108053" d="M0,0H295V10H0Z" transform="translate(1124.541 3014)" fill="#ffb74d"/>
    <path id="Trazado_108054" data-name="Trazado 108054" d="M0,0H295V10H0Z" transform="translate(704.541 3014)" fill="#ffb74d"/>
    <path id="Trazado_108077" data-name="Trazado 108077" d="M0,0H295V10H0Z" transform="translate(179.541 2841)" fill="#ffb74d"/>
  </g>
</svg>
