<svg xmlns="http://www.w3.org/2000/svg" width="73" height="51.328" viewBox="0 0 73 51.328">
  <g id="laptop" transform="translate(0 -76)">
    <g id="Grupo_53872" data-name="Grupo 53872" transform="translate(1.426 77.426)">
      <path id="Trazado_101941" data-name="Trazado 101941" d="M40.278,90.277h54.18V124.5H40.278V90.277ZM36,88.852v39.922H58.813a.715.715,0,0,0,.713.713H75.21a.715.715,0,0,0,.713-.713H98.735V88.852A2.86,2.86,0,0,0,95.884,86H38.853A2.86,2.86,0,0,0,36,88.852Z" transform="translate(-32.294 -86)" fill="#8c6df2"/>
      <path id="Trazado_101942" data-name="Trazado 101942" d="M36.52,386H10v2.852a2.86,2.86,0,0,0,2.852,2.852H77.3a2.86,2.86,0,0,0,2.852-2.852V386H53.629a.715.715,0,0,1-.713.713H37.233A.715.715,0,0,1,36.52,386Z" transform="translate(-10 -343.227)" fill="#d8ccff"/>
      <path id="Trazado_101943" data-name="Trazado 101943" d="M66,150.217h54.18V116H66v34.219Zm34.227-18.439-8.1-6.007,2.418-2.418,10.243,3.686,2.567-2.661,1.661-1.776a2.618,2.618,0,0,1,3.7,3.7l-2.136,2.006-2.277,2.222,3.662,10.243-2.418,2.418-6.007-8.1-3.87,3.639.26,3.619L97.9,144.389l-2.283-4.683-4.683-2.283,2.035-2.035,3.619.26Z" transform="translate(-58.016 -111.721)" fill="#d8ccff"/>
      <path id="Trazado_101944" data-name="Trazado 101944" d="M242.076,160.822l8.1,6.007-3.639,3.87-3.619-.26-2.035,2.035,4.683,2.283,2.283,4.683,2.035-2.035-.26-3.619,3.87-3.639,6.007,8.1,2.418-2.418-3.662-10.243,2.277-2.222,2.136-2.005a2.618,2.618,0,1,0-3.7-3.7l-1.661,1.776-2.567,2.66L244.494,158.4Z" transform="translate(-207.962 -146.771)" fill="#ffb74d"/>
    </g>
    <path id="Trazado_101945" data-name="Trazado 101945" d="M113.031,141.643V107.424A1.426,1.426,0,0,0,111.606,106H57.426A1.426,1.426,0,0,0,56,107.424v34.219a1.426,1.426,0,0,0,1.426,1.426h54.18A1.426,1.426,0,0,0,113.031,141.643Zm-2.852-1.426H58.852V108.85H110.18Z" transform="translate(-48.016 -25.721)"/>
    <path id="Trazado_101946" data-name="Trazado 101946" d="M71.574,118.773H69.293v-38.5A4.282,4.282,0,0,0,65.016,76H7.985a4.282,4.282,0,0,0-4.277,4.278v38.5H1.426A1.426,1.426,0,0,0,0,120.2v2.852a4.282,4.282,0,0,0,4.277,4.277H68.723A4.282,4.282,0,0,0,73,123.051V120.2A1.426,1.426,0,0,0,71.574,118.773ZM6.559,80.278a1.427,1.427,0,0,1,1.426-1.426H65.016a1.427,1.427,0,0,1,1.426,1.426v38.5H45.055a1.425,1.425,0,0,0-1.235.713H29.18a1.425,1.425,0,0,0-1.235-.713H6.559Zm63.59,42.773a1.427,1.427,0,0,1-1.426,1.426H4.277a1.427,1.427,0,0,1-1.426-1.426v-1.426H27.066a2.134,2.134,0,0,0,1.593.713H44.342a2.134,2.134,0,0,0,1.593-.713H70.148Z"/>
    <path id="Trazado_101947" data-name="Trazado 101947" d="M97.939,146.754h5.908a1.426,1.426,0,0,0,0-2.852H97.939a1.426,1.426,0,0,0,0,2.852Z" transform="translate(-82.752 -58.221)"/>
    <path id="Trazado_101948" data-name="Trazado 101948" d="M168.461,146.754h.068a1.426,1.426,0,0,0,0-2.852h-.068a1.426,1.426,0,0,0,0,2.852Z" transform="translate(-143.219 -58.221)"/>
    <path id="Trazado_101949" data-name="Trazado 101949" d="M231.681,165.182l4.241,2.068,2.068,4.241a1.426,1.426,0,0,0,2.29.383l2.035-2.035a1.426,1.426,0,0,0,.414-1.11l-.212-2.943,2.209-2.077,5.052,6.811a1.426,1.426,0,0,0,2.153.159l2.418-2.418a1.426,1.426,0,0,0,.334-1.488l-3.354-9.382,1.612-1.574,2.126-2a3.886,3.886,0,0,0,1.225-2.8,4.074,4.074,0,0,0-4.081-4.144,3.875,3.875,0,0,0-2.863,1.228l-1.653,1.768-1.918,1.989-9.375-3.373a1.426,1.426,0,0,0-1.491.333l-2.418,2.418a1.426,1.426,0,0,0,.159,2.153l6.811,5.052-2.077,2.209-2.943-.212a1.434,1.434,0,0,0-1.11.414l-2.035,2.035a1.426,1.426,0,0,0,.383,2.29Zm3.207-1.848,2.969.214A1.434,1.434,0,0,0,239,163.1l3.639-3.871a1.426,1.426,0,0,0-.189-2.122l-6.77-5.022.61-.61,9.392,3.38a1.426,1.426,0,0,0,1.509-.352l2.567-2.66.015-.016,1.661-1.776a1.062,1.062,0,0,1,.78-.324,1.223,1.223,0,0,1,1.23,1.248,1.068,1.068,0,0,1-.325.765l-2.136,2.006-.02.019-2.277,2.222a1.426,1.426,0,0,0-.347,1.5l3.358,9.393-.611.611-5.022-6.77a1.426,1.426,0,0,0-2.122-.189l-3.87,3.639a1.426,1.426,0,0,0-.445,1.141l.214,2.969-.161.161-1.407-2.886a1.425,1.425,0,0,0-.657-.657l-2.885-1.407Z" transform="translate(-197.962 -60.772)"/>
    <path id="Trazado_101950" data-name="Trazado 101950" d="M97.939,230.95h11.938a1.426,1.426,0,0,0,0-2.852H97.939a1.426,1.426,0,1,0,0,2.852Z" transform="translate(-82.752 -130.412)"/>
    <path id="Trazado_101951" data-name="Trazado 101951" d="M97.939,270.95h11.938a1.426,1.426,0,0,0,0-2.852H97.939a1.426,1.426,0,0,0,0,2.852Z" transform="translate(-82.752 -164.709)"/>
    <path id="Trazado_101952" data-name="Trazado 101952" d="M97.939,310.95h5.908a1.426,1.426,0,0,0,0-2.852H97.939a1.426,1.426,0,0,0,0,2.852Z" transform="translate(-82.752 -199.006)"/>
    <path id="Trazado_101953" data-name="Trazado 101953" d="M168.528,308.1h-.068a1.426,1.426,0,0,0,0,2.852h.068a1.426,1.426,0,1,0,0-2.852Z" transform="translate(-143.219 -199.006)"/>
  </g>
</svg>
