<svg id="informacion-de-vuelo" xmlns="http://www.w3.org/2000/svg" width="80" height="75" viewBox="0 0 80 75">
  <path id="Trazado_107640" data-name="Trazado 107640" d="M80.625,65h-67.5A3.125,3.125,0,0,1,10,61.875V13.125A3.125,3.125,0,0,1,13.125,10H83.75a3.125,3.125,0,0,1,3.125,3.125V58.75A6.25,6.25,0,0,1,80.625,65Zm0,0" transform="translate(-8.438 -8.438)" fill="#ffebad"/>
  <path id="Trazado_107641" data-name="Trazado 107641" d="M10,298v6.875A3.125,3.125,0,0,0,13.125,308h67.5a6.25,6.25,0,0,0,6.25-6.25V298Zm0,0" transform="translate(-8.438 -251.438)" fill="#d8ccff"/>
  <path id="Trazado_107642" data-name="Trazado 107642" d="M184.17,429.5H151.52a7.5,7.5,0,0,1,7.5-7.5h17.65A7.5,7.5,0,0,1,184.17,429.5Zm0,0" transform="translate(-127.845 -356.063)" fill="#d8ccff"/>
  <path id="Trazado_107643" data-name="Trazado 107643" d="M212,362h13.75v9.375H212Zm0,0" transform="translate(-178.875 -305.438)" fill="#8c6df2"/>
  <path id="Trazado_107644" data-name="Trazado 107644" d="M295.537,83.315,282.8,80.047l-4.42,4.419,10.662,5.561,4.349,4.349,5.561,10.662,4.419-4.42L300.1,87.88Zm0,0" transform="translate(-234.882 -67.54)" fill="#d8ccff"/>
  <path id="Trazado_107645" data-name="Trazado 107645" d="M290.011,89.573l12.708-12.708a7.341,7.341,0,0,0,2.05-6.4,7.34,7.34,0,0,0-6.4,2.05l-12.7,12.7-3.677-.845L278.363,88l5.952,2.9,2.919,5.968,3.627-3.627Zm0,0" transform="translate(-234.869 -59.372)" fill="#d8ccff"/>
  <path id="Trazado_107646" data-name="Trazado 107646" d="M64,58H90.25v7.5H64Zm0,0" transform="translate(-54 -48.938)" fill="#ffb74d"/>
  <path id="Trazado_107647" data-name="Trazado 107647" d="M382.563,352a1.563,1.563,0,1,0,1.1.458A1.575,1.575,0,0,0,382.563,352Zm0,0" transform="translate(-321.469 -297)"/>
  <path id="Trazado_107648" data-name="Trazado 107648" d="M75.313,0H4.688A4.693,4.693,0,0,0,0,4.688v48.75a4.693,4.693,0,0,0,4.688,4.688H31.563v6.25h-.388a9.073,9.073,0,0,0-9.062,9.063A1.562,1.562,0,0,0,23.675,75h32.65a1.562,1.562,0,0,0,1.563-1.562,9.073,9.073,0,0,0-9.062-9.062h-.388v-6.25h6.354a1.563,1.563,0,0,0,0-3.125H4.688a1.564,1.564,0,0,1-1.562-1.562V4.688A1.564,1.564,0,0,1,4.688,3.125H75.313a1.564,1.564,0,0,1,1.563,1.563V45H14.16a1.563,1.563,0,0,0,0,3.125H76.875v5.313A1.564,1.564,0,0,1,75.313,55H67.344a1.563,1.563,0,0,0,0,3.125h7.969A4.693,4.693,0,0,0,80,53.438V4.688A4.693,4.693,0,0,0,75.313,0ZM54.554,71.875H25.446A5.948,5.948,0,0,1,31.175,67.5h17.65A5.948,5.948,0,0,1,54.554,71.875Zm-9.241-13.75v6.25H34.688v-6.25Zm0,0"/>
  <path id="Trazado_107649" data-name="Trazado 107649" d="M246.458,320.458a1.562,1.562,0,1,0,1.1-.458A1.575,1.575,0,0,0,246.458,320.458Zm0,0" transform="translate(-207.563 -270)"/>
  <path id="Trazado_107650" data-name="Trazado 107650" d="M40.458,288.458a1.562,1.562,0,1,0,1.1-.458A1.575,1.575,0,0,0,40.458,288.458Zm0,0" transform="translate(-33.75 -243)"/>
  <path id="Trazado_107651" data-name="Trazado 107651" d="M273.9,74.414a1.562,1.562,0,0,0-1.455.418l-3.627,3.627a1.563,1.563,0,0,0,.42,2.509l5.469,2.667,2.683,5.485a1.562,1.562,0,0,0,1.146.855A1.6,1.6,0,0,0,278.8,90a1.563,1.563,0,0,0,1.1-.458l3.627-3.627a1.564,1.564,0,0,0,.417-1.458l-.655-2.828,1.247-1.247,4.576,8.774a1.562,1.562,0,0,0,2.49.383l4.42-4.42a1.563,1.563,0,0,0,.408-1.493l-3.091-12.048,2.044-2.044a8.92,8.92,0,0,0,2.487-7.761,1.562,1.562,0,0,0-1.284-1.284,8.918,8.918,0,0,0-7.76,2.487l-2.045,2.044-12.048-3.091a1.564,1.564,0,0,0-1.494.409l-4.419,4.42a1.562,1.562,0,0,0,.382,2.49l8.774,4.576-1.243,1.243Zm19.282,9.124L290.9,85.822l-4.046-7.758,3.92-3.92ZM272.541,67.461l2.284-2.284,9.393,2.41-3.92,3.92Zm5.8,10.427,12.7-12.7a5.787,5.787,0,0,1,3.825-1.686,5.793,5.793,0,0,1-1.686,3.824l-9.335,9.334-.012.012-3.362,3.362a1.562,1.562,0,0,0-.417,1.457l.654,2.828-1.467,1.467-1.957-4a1.564,1.564,0,0,0-.719-.718l-3.983-1.942,1.466-1.466,2.834.651A1.564,1.564,0,0,0,278.337,77.887Zm0,0" transform="translate(-226.434 -50.935)"/>
  <path id="Trazado_107652" data-name="Trazado 107652" d="M55.563,149.254h26.25a1.563,1.563,0,0,0,0-3.125H55.563a1.563,1.563,0,0,0,0,3.125Zm0,0" transform="translate(-45.563 -123.296)"/>
  <path id="Trazado_107653" data-name="Trazado 107653" d="M55.563,191.254h26.25a1.563,1.563,0,0,0,0-3.125H55.563a1.563,1.563,0,0,0,0,3.125Zm0,0" transform="translate(-45.563 -158.734)"/>
  <path id="Trazado_107654" data-name="Trazado 107654" d="M81.813,233.254a1.563,1.563,0,0,0,0-3.125H55.563a1.563,1.563,0,0,0,0,3.125Zm0,0" transform="translate(-45.563 -194.171)"/>
  <path id="Trazado_107655" data-name="Trazado 107655" d="M55.563,58.625h26.25a1.562,1.562,0,0,0,1.563-1.562v-7.5A1.562,1.562,0,0,0,81.813,48H55.563A1.562,1.562,0,0,0,54,49.563v7.5A1.562,1.562,0,0,0,55.563,58.625Zm1.563-7.5H80.25V55.5H57.125Zm0,0" transform="translate(-45.563 -40.5)"/>
</svg>
