<svg xmlns="http://www.w3.org/2000/svg" width="100" height="100" viewBox="0 0 100 100">
  <g id="Filled_outline" data-name="Filled outline" transform="translate(-2 -2)">
    <path id="Trazado_101995" data-name="Trazado 101995" d="M94.666,58.333,26.333,45,3,26.667V20l8.333,1.647L83,35c8.3,1.878,16.667,9.833,16.667,18.333C99.666,55.895,97.166,58.9,94.666,58.333Z" transform="translate(0.667 12)" fill="#e8e8e8"/>
    <path id="Trazado_101996" data-name="Trazado 101996" d="M8,28.98V9c3.065,0,5.3.593,6.667,3.333l10,20Z" transform="translate(4 4.667)" fill="#ffb74d"/>
    <path id="Trazado_101997" data-name="Trazado 101997" d="M57,53,37,9.667A11.842,11.842,0,0,0,27,3V46.333Z" transform="translate(16.666 0.667)" fill="#ffb74d"/>
    <path id="Trazado_101998" data-name="Trazado 101998" d="M38.667,61l-10-20h-10l10,20H17L38.667,74.333,48.667,61Z" transform="translate(10 26)" fill="#8c6df2"/>
    <path id="Trazado_101999" data-name="Trazado 101999" d="M83.973,45.361l-13.462-2.51L55.178,9.628A13.44,13.44,0,0,0,43.666,2,1.667,1.667,0,0,0,42,3.667V37.543l-12.348-2.3L20.167,16.255a7.1,7.1,0,0,0-3.522-3.482A11.28,11.28,0,0,0,12,12a1.667,1.667,0,0,0-1.667,1.667V31.622L3.99,30.367a1.645,1.645,0,0,0-1.382.347A1.667,1.667,0,0,0,2,32v6.667a1.667,1.667,0,0,0,.636,1.31L25.97,58.31a1.667,1.667,0,0,0,.712.333L94.926,71.95a4.167,4.167,0,0,0,1.023.117c3.407,0,6.05-3.62,6.05-6.733,0-9.5-9.288-17.99-18.027-19.972ZM45.333,5.535a10.587,10.587,0,0,1,6.82,5.5L70.743,51.31l-25.41-5.643ZM13.667,15.42a5.747,5.747,0,0,1,1.62.4,3.78,3.78,0,0,1,1.888,1.923l8.367,16.733L13.667,32.267Zm85,49.913c0,1.558-1.473,3.4-2.717,3.4-.142,0-68.236-13.293-68.236-13.293L10.078,41.585,38.353,46.97l.625-3.273L5.333,37.287V34.03L42,40.933V47a1.667,1.667,0,0,0,1.3,1.628s30.242,6.7,30.362,6.7a1.667,1.667,0,0,0,1.513-2.365l-2.957-6.407L83.3,48.626A22.292,22.292,0,0,1,95,56.145L84.021,53.7,83.3,56.961,97.465,60.11a12.8,12.8,0,0,1,1.2,5.223Z" transform="translate(0 0)"/>
    <path id="Trazado_102000" data-name="Trazado 102000" d="M18,30h3.333v3.333H18Z" transform="translate(10.667 18.666)"/>
    <path id="Trazado_102001" data-name="Trazado 102001" d="M49.334,60h-8.97l-9.53-19.078a1.667,1.667,0,0,0-1.5-.922h-10a1.667,1.667,0,0,0-1.492,2.412L26.637,60h-8.97a1.667,1.667,0,0,0-.873,3.087L38.46,76.42A1.667,1.667,0,0,0,40.667,76l10-13.333A1.667,1.667,0,0,0,49.334,60ZM38.912,72.783l-15.357-9.45h5.778a1.667,1.667,0,0,0,1.492-2.412L22.03,43.333H28.3l9.538,19.078a1.667,1.667,0,0,0,1.492.922H46Z" transform="translate(9.333 25.333)"/>
    <path id="Trazado_102002" data-name="Trazado 102002" d="M0,0H3.335V24.267H0Z" transform="translate(74.914 38.57) rotate(-74.047)"/>
    <path id="Trazado_102003" data-name="Trazado 102003" d="M0,0H3.332V25.873H0Z" transform="translate(68.26 30.302) rotate(-75.046)"/>
  </g>
</svg>
