<svg xmlns="http://www.w3.org/2000/svg" width="54.846" height="57.84" viewBox="0 0 54.846 57.84">
  <g id="Grupo_82630" data-name="Grupo 82630" transform="translate(-537.509 -7557.129)">
    <g id="contrato" transform="translate(549.082 7566.226)">
      <g id="Grupo_53897" data-name="Grupo 53897" transform="translate(0.714 0.714)">
        <g id="Grupo_53896" data-name="Grupo 53896" transform="translate(0)">
          <g id="Grupo_53895" data-name="Grupo 53895">
            <g id="Grupo_53884" data-name="Grupo 53884">
              <g id="Grupo_53883" data-name="Grupo 53883">
                <g id="Grupo_53882" data-name="Grupo 53882">
                  <g id="Grupo_53881" data-name="Grupo 53881">
                    <g id="Grupo_53880" data-name="Grupo 53880">
                      <g id="Grupo_53879" data-name="Grupo 53879">
                        <g id="Grupo_53878" data-name="Grupo 53878">
                          <g id="Grupo_53877" data-name="Grupo 53877">
                            <g id="Grupo_53876" data-name="Grupo 53876">
                              <g id="Grupo_53875" data-name="Grupo 53875">
                                <path id="Trazado_101956" data-name="Trazado 101956" d="M39.175,7.5a2.941,2.941,0,0,0-2.941,2.941V48.326a2.941,2.941,0,0,0,2.941,2.941H66.827a2.941,2.941,0,0,0,2.941-2.941V16.569a2.228,2.228,0,0,0-.653-1.576L62.274,8.153A2.228,2.228,0,0,0,60.7,7.5Z" transform="translate(-36.234 -7.5)" fill="#f4f8f8"/>
                                <path id="Trazado_101957" data-name="Trazado 101957" d="M299.724,92.388a2.951,2.951,0,0,1-.644-.072v32.752a2.941,2.941,0,0,1-2.941,2.941h5.85a2.941,2.941,0,0,0,2.941-2.941V93.311a2.226,2.226,0,0,0-.2-.923Z" transform="translate(-271.394 -84.241)" fill="#e7ecf1"/>
                                <path id="Trazado_101958" data-name="Trazado 101958" d="M310.4,16.9,303.56,10.06a2.226,2.226,0,0,0-.653-.452v5a2.941,2.941,0,0,0,2.941,2.941h5a2.23,2.23,0,0,0-.452-.653Z" transform="translate(-277.519 -9.407)" fill="#d8ccff"/>
                              </g>
                            </g>
                          </g>
                        </g>
                      </g>
                    </g>
                  </g>
                </g>
              </g>
            </g>
            <g id="Grupo_53894" data-name="Grupo 53894" transform="translate(5.577 24.081)">
              <g id="Grupo_53892" data-name="Grupo 53892" transform="translate(1.631 1.915)">
                <g id="Grupo_53891" data-name="Grupo 53891">
                  <g id="Grupo_53886" data-name="Grupo 53886">
                    <g id="Grupo_53885" data-name="Grupo 53885">
                      <path id="Trazado_101959" data-name="Trazado 101959" d="M140.617,292.811l-10.505-6.221a1.134,1.134,0,0,1-.4-1.554l.537-.907-2.125-1.257c-1.4-.8-2.058-.953-3.322-.464l-1.379.533a2.935,2.935,0,0,1-2.554-.212l-3.69-2.176-5.241,8.846,4.725,2.789a2.935,2.935,0,0,1,.828.733l1.592,2.065a18.322,18.322,0,0,0,3.858,3.052l6.077,3.6a1.688,1.688,0,1,0,1.721-2.9l1.9,1.125a1.688,1.688,0,0,0,1.721-2.9l1.266.75a1.688,1.688,0,0,0,1.721-2.9l1.549.918a1.688,1.688,0,1,0,1.721-2.9Z" transform="translate(-111.941 -280.553)" fill="#ffece3"/>
                    </g>
                  </g>
                  <g id="Grupo_53887" data-name="Grupo 53887" transform="translate(15.029 0.528)">
                    <path id="Trazado_101961" data-name="Trazado 101961" d="M282.542,286.1l-2.834,1.647a2.935,2.935,0,0,1-2.554.212l-1.555-.611a2.5,2.5,0,0,0-1.527-.1l-2.382.6a2.5,2.5,0,0,0-1.886,2.422v3.18a.815.815,0,0,0,.814.816,2.453,2.453,0,0,0,2.455-2.453v-.135l10.2,6.038a2.934,2.934,0,0,1,.644-.516l3.869-2.26Z" transform="translate(-269.805 -286.104)" fill="#fcd0a3"/>
                  </g>
                  <g id="Grupo_53890" data-name="Grupo 53890" transform="translate(2.781 10.836)">
                    <g id="Grupo_53889" data-name="Grupo 53889">
                      <path id="Trazado_101963" data-name="Trazado 101963" d="M145.166,397.046l-.956,1.331a1.687,1.687,0,1,1-2.742-1.968l.956-1.332a1.688,1.688,0,1,1,2.742,1.968Z" transform="translate(-141.151 -394.374)" fill="#fcd0a3"/>
                      <path id="Trazado_101964" data-name="Trazado 101964" d="M175.019,402.285l-2.011,2.8a1.687,1.687,0,1,1-2.742-1.968l2.011-2.8a1.687,1.687,0,1,1,2.742,1.968Z" transform="translate(-167.208 -399.115)" fill="#fcd0a3"/>
                      <path id="Trazado_101965" data-name="Trazado 101965" d="M203.817,422.96l-2.011,2.8a1.688,1.688,0,1,1-2.742-1.968l2.011-2.8a1.687,1.687,0,1,1,2.742,1.968Z" transform="translate(-193.264 -417.821)" fill="#fcd0a3"/>
                    </g>
                    <path id="Trazado_101966" data-name="Trazado 101966" d="M235.986,456.707l-.669.931a1.688,1.688,0,1,1-2.742-1.968l.669-.931a1.687,1.687,0,1,1,2.742,1.968Z" transform="translate(-223.585 -448.356)" fill="#ffb983"/>
                  </g>
                </g>
              </g>
              <g id="Grupo_53893" data-name="Grupo 53893">
                <path id="Trazado_101967" data-name="Trazado 101967" d="M103.658,261.436l-1.478-.876a.856.856,0,0,0-1.172.3l-6.076,10.257a.856.856,0,0,0,.3,1.172l1.478.876a2.086,2.086,0,0,0,2.858-.732l4.822-8.139A2.086,2.086,0,0,0,103.658,261.436Z" transform="translate(-94.812 -260.441)" fill="#ffb74d"/>
                <path id="Trazado_101968" data-name="Trazado 101968" d="M374.6,260.56l-1.478.876a2.086,2.086,0,0,0-.732,2.858l4.822,8.139a2.087,2.087,0,0,0,2.858.732l1.478-.876a.856.856,0,0,0,.3-1.172l-6.077-10.257A.856.856,0,0,0,374.6,260.56Z" transform="translate(-345.696 -260.44)" fill="#8c6df2"/>
              </g>
            </g>
          </g>
        </g>
      </g>
      <g id="Grupo_53900" data-name="Grupo 53900" transform="translate(0 0)">
        <g id="Grupo_53899" data-name="Grupo 53899" transform="translate(0 0)">
          <g id="Grupo_53898" data-name="Grupo 53898">
            <path id="Trazado_101969" data-name="Trazado 101969" d="M106.293,137.8H82.95a.717.717,0,1,0,0,1.434h23.343a.717.717,0,1,0,0-1.434Z" transform="translate(-77.139 -124.685)"/>
            <path id="Trazado_101970" data-name="Trazado 101970" d="M82.95,86.991H94.621a.717.717,0,1,0,0-1.434H82.95a.717.717,0,1,0,0,1.434Z" transform="translate(-77.139 -77.412)"/>
            <path id="Trazado_101971" data-name="Trazado 101971" d="M106.293,184.1H82.95a.717.717,0,1,0,0,1.434h23.343a.717.717,0,1,0,0-1.434Z" transform="translate(-77.139 -166.57)"/>
            <path id="Trazado_101972" data-name="Trazado 101972" d="M39.858,43.762h-7.47a2.226,2.226,0,0,1-2.224-2.224V3.658a2.226,2.226,0,0,1,2.224-2.224H53.909a1.534,1.534,0,0,1,.206.016V5.922a3.662,3.662,0,0,0,3.658,3.658h4.472a1.521,1.521,0,0,1,.016.206V22a.717.717,0,0,0,1.434,0V9.785A2.926,2.926,0,0,0,62.831,7.7L55.991.863A2.925,2.925,0,0,0,53.909,0H32.388A3.662,3.662,0,0,0,28.73,3.658v37.88A3.662,3.662,0,0,0,32.388,45.2h7.47a.717.717,0,1,0,0-1.434ZM61.246,8.145H57.772a2.226,2.226,0,0,1-2.224-2.224V2.448Z" transform="translate(-28.73 0)"/>
            <path id="Trazado_101973" data-name="Trazado 101973" d="M124.773,263.929,118.7,253.674a1.572,1.572,0,0,0-2.155-.552l-1.478.876a2.807,2.807,0,0,0-1.238,3.273,2.2,2.2,0,0,1-1.546-.017c-1.167-.367-2.054-1.106-3.519-.735-2.488.633-2.412.6-2.637.679-1.457-.829-2.332-1.076-3.878-.478l-1.378.533a2.205,2.205,0,0,1-1.931-.161l-.376-.222A2.8,2.8,0,0,0,97.224,254h0l-1.478-.875a1.574,1.574,0,0,0-2.154.552l-6.076,10.255a1.572,1.572,0,0,0,.552,2.154l1.478.875a2.785,2.785,0,0,0,1.424.391A2.823,2.823,0,0,0,92.5,266.9l.308.182-.65.906a2.4,2.4,0,0,0,2.326,3.775,2.4,2.4,0,0,0,2.742,1.969,2.4,2.4,0,0,0,3.317,1.8,2.4,2.4,0,0,0,4.085.675l1.728,1.024a2.408,2.408,0,0,0,3.615-1.782l0,0a2.4,2.4,0,0,0,3.624-1.891,2.4,2.4,0,0,0,2.979-2.08,2.406,2.406,0,0,0,2.719-3.787l.952-.556a2.8,2.8,0,0,0,2.5-.179l1.478-.875A1.571,1.571,0,0,0,124.773,263.929Zm-34.5,1.8L88.8,264.85a.139.139,0,0,1-.049-.19L94.825,254.4a.139.139,0,0,1,.19-.049l1.478.875a1.369,1.369,0,0,1,.48,1.876l-4.821,8.138A1.371,1.371,0,0,1,90.276,265.725Zm3.27,4.45a.97.97,0,0,1-.222-1.354l.956-1.331a.97.97,0,0,1,1.576,1.132l-.956,1.331A.971.971,0,0,1,93.546,270.175Zm2.741,1.968a.971.971,0,0,1-.222-1.354l.956-1.331h0l1.055-1.469a.964.964,0,0,1,.631-.392.979.979,0,0,1,.159-.013.97.97,0,0,1,.786,1.536l-2.011,2.8A.97.97,0,0,1,96.287,272.143Zm2.741,1.968a.971.971,0,0,1-.223-1.353h0l2.011-2.8a.97.97,0,1,1,1.576,1.132l-.893,1.244h0l-1.117,1.556A.971.971,0,0,1,99.028,274.111Zm3.19,1.343A.971.971,0,0,1,102,274.1l.669-.932a.97.97,0,1,1,1.576,1.132l-.669.931A.971.971,0,0,1,102.218,275.454Zm16.072-5.717a.972.972,0,0,1-1.33.34l-6.347-3.76a.717.717,0,0,0-.731,1.234l4.8,2.843h0a.971.971,0,0,1-.99,1.67l-4.8-2.844a.717.717,0,1,0-.731,1.234l3.536,2.095h0a.971.971,0,0,1-.99,1.67l-1.9-1.124h0l-1.385-.82a.717.717,0,0,0-.731,1.234l1.385.821h0a.971.971,0,1,1-.99,1.67l-1.616-.957a2.4,2.4,0,0,0-1.615-3.676,2.4,2.4,0,0,0-2.623-3.217,2.4,2.4,0,0,0-4.079-1.285,2.4,2.4,0,0,0-3.343-.858l-.329-.194,4.51-7.612.215.127a3.631,3.631,0,0,0,3.178.264l1.378-.533a2.116,2.116,0,0,1,2,.043,3.21,3.21,0,0,0-.814,2.138v3.179a1.534,1.534,0,0,0,1.53,1.532h0a3.176,3.176,0,0,0,3-2.146l9.462,5.6a.97.97,0,0,1,.34,1.329Zm5.2-4.888-1.478.876a1.371,1.371,0,0,1-1.876-.48l-2.26-3.814a.717.717,0,0,0-1.234.731l2.26,3.814c.043.072.089.14.137.207l-.628.367a3.629,3.629,0,0,0-.366.248l-9.741-5.769a.717.717,0,0,0-1.082.617,1.831,1.831,0,0,1-.509,1.363,1.725,1.725,0,0,1-1.227.508h0a.1.1,0,0,1-.1-.1v-3.179a1.784,1.784,0,0,1,1.344-1.727l2.382-.6c.864-.218,1.353.243,2.647.681a3.625,3.625,0,0,0,2.742-.044l.433.731a.717.717,0,1,0,1.234-.731l-.852-1.439a1.369,1.369,0,0,1,.48-1.876l1.478-.875a.138.138,0,0,1,.19.049l6.076,10.255a.138.138,0,0,1-.048.19Z" transform="translate(-81.72 -228.825)"/>
          </g>
        </g>
      </g>
    </g>
    <g id="avion" transform="matrix(0.891, -0.454, 0.454, 0.891, 537.509, 7569.996)">
      <path id="Trazado_101974" data-name="Trazado 101974" d="M35.451,6.967l-1.373.643a15.8,15.8,0,0,1-6.7,1.492H12.082a6.06,6.06,0,0,1-2.445-.515L1.82,5.141A3.05,3.05,0,0,1,0,2.35V1.67A1.67,1.67,0,0,1,1.67,0H28.34A10.369,10.369,0,0,1,35.2,2.594l.779.687a2.226,2.226,0,0,1-.529,3.685Z" transform="translate(0.807 5.529)" fill="#d6e0f4"/>
      <path id="Trazado_101975" data-name="Trazado 101975" d="M35.773,4.589,34.4,5.232a15.8,15.8,0,0,1-6.7,1.492H12.4a6.06,6.06,0,0,1-2.445-.515L2.142,2.763A3.049,3.049,0,0,1,.323,0,1.662,1.662,0,0,0,0,.987v.681A3.05,3.05,0,0,0,1.82,4.458L9.637,7.9a6.06,6.06,0,0,0,2.445.515H27.376a15.8,15.8,0,0,0,6.7-1.492l1.373-.643A2.226,2.226,0,0,0,36.684,3.8a2.223,2.223,0,0,1-.91.787Z" transform="translate(0.807 6.212)" fill="#b8c9ea"/>
      <path id="Trazado_101976" data-name="Trazado 101976" d="M.234,1.033,1.3,1.816a1.919,1.919,0,0,0,1.137.373H7.78a2.226,2.226,0,0,0-.7-1.175L6.3.327Q6.112.158,5.914,0H.573A.572.572,0,0,0,.234,1.033Z" transform="translate(29.704 7.796)" fill="#6a61b2"/>
      <path id="Trazado_101977" data-name="Trazado 101977" d="M.561,6.321H2.486a4.4,4.4,0,0,0,1.966-.463L15.216.488A.258.258,0,0,0,15.1,0H5.541A.748.748,0,0,0,5,.235L.153,5.378a.56.56,0,0,0,.407.943Z" transform="translate(9.847 12.278)" fill="#ffb74d"/>
      <path id="Trazado_101978" data-name="Trazado 101978" d="M.442,2.949H1.506a2.012,2.012,0,0,0,.876-.2L6.07.964A.507.507,0,0,0,5.849,0H2.472a.932.932,0,0,0-.7.319L.11,2.218a.441.441,0,0,0,.332.731Z" transform="translate(0.559 8.51)" fill="#5038a1"/>
      <path id="Trazado_101979" data-name="Trazado 101979" d="M.367,0H1.692A2.779,2.779,0,0,1,3.681.839L7.712,4.971h-5.8L.029.509A.367.367,0,0,1,.367,0Z" transform="translate(2.183 0.558)" fill="#8c6df2"/>
      <g id="Grupo_53901" data-name="Grupo 53901" transform="translate(11.724 7.796)">
        <path id="Trazado_101980" data-name="Trazado 101980" d="M0,.992V1.2a.992.992,0,0,0,.992.992H2.043A.992.992,0,0,0,3.034,1.2V.992A.992.992,0,0,0,2.043,0H.992A.992.992,0,0,0,0,.992Z" transform="translate(11.886 0)" fill="#6a61b2"/>
        <path id="Trazado_101981" data-name="Trazado 101981" d="M0,.992V1.2a.992.992,0,0,0,.992.992H2.043A.992.992,0,0,0,3.034,1.2V.992A.992.992,0,0,0,2.043,0H.992A.992.992,0,0,0,0,.992Z" transform="translate(5.943 0)" fill="#6a61b2"/>
        <path id="Trazado_101982" data-name="Trazado 101982" d="M0,.992V1.2a.992.992,0,0,0,.992.992H2.043A.992.992,0,0,0,3.034,1.2V.992A.992.992,0,0,0,2.043,0H.992A.992.992,0,0,0,0,.992Z" transform="translate(0 0)" fill="#6a61b2"/>
      </g>
      <g id="Grupo_53902" data-name="Grupo 53902" transform="translate(0 0)">
        <path id="Trazado_101983" data-name="Trazado 101983" d="M29.64,4.9v0a2.787,2.787,0,0,0-.873-1.477l-.779-.688A10.919,10.919,0,0,0,20.757,0h-2.64a.558.558,0,1,0,0,1.116h2.64a9.8,9.8,0,0,1,4.611,1.151H21.887a1.13,1.13,0,0,0-.669,2.04l1.067.784a2.461,2.461,0,0,0,1.467.481h4.838a1.675,1.675,0,0,1-.958,1.447l-1.374.643A15.328,15.328,0,0,1,19.793,9.1H15.3l1.617-.807a.816.816,0,0,0-.364-1.546H7a1.311,1.311,0,0,0-.951.411L4.225,9.093a5.44,5.44,0,0,1-1.947-.459l-1.5-.659A.558.558,0,1,0,.333,9l1.5.659a6.57,6.57,0,0,0,1.445.449L1.2,12.3a1.118,1.118,0,0,0,.814,1.884H3.942a4.987,4.987,0,0,0,2.215-.522l6.909-3.446h6.726A16.453,16.453,0,0,0,26.73,8.673L28.1,8.03A2.782,2.782,0,0,0,29.64,4.9ZM5.659,12.665a3.865,3.865,0,0,1-1.717.4H2.017v0s0-.006,0-.006L6.86,7.925A.191.191,0,0,1,7,7.865h8.285ZM22.945,4.192l-1.067-.784L21.872,3.4a.071.071,0,0,1,0-.019h5.153c.074.061.147.123.219.187l.779.687a1.676,1.676,0,0,1,.19.2H23.751A1.353,1.353,0,0,1,22.945,4.192Z" transform="translate(8.39 4.971)"/>
        <path id="Trazado_101984" data-name="Trazado 101984" d="M6.408,7.953H3.031a1.489,1.489,0,0,0-1.122.509l-.343.393a2.5,2.5,0,0,1-.2-.975V7.2A1.113,1.113,0,0,1,2.477,6.087H23.9a.558.558,0,1,0,0-1.116H10.131L6.264,1.007A3.356,3.356,0,0,0,3.875,0H2.551A.925.925,0,0,0,1.7,1.284L3.254,4.971H2.477A2.23,2.23,0,0,0,.249,7.2v.681A3.622,3.622,0,0,0,.777,9.756l-.529.6A1,1,0,0,0,1,12.018H2.065a2.585,2.585,0,0,0,1.119-.256l.255-.124,2.9,1.279A.558.558,0,0,0,6.79,11.9L4.758,11,6.872,9.977a1.065,1.065,0,0,0-.464-2.024ZM2.839,1.116H3.875a2.234,2.234,0,0,1,1.59.67L8.571,4.971H4.466Zm.358,9.4-.031.015-.468.227a1.462,1.462,0,0,1-.633.145H1.259L2.749,9.2a.374.374,0,0,1,.281-.128H6.187Z" transform="translate(0)"/>
        <path id="Trazado_101985" data-name="Trazado 101985" d="M0,1.55v.206a1.551,1.551,0,0,0,1.55,1.55H2.6a1.551,1.551,0,0,0,1.55-1.55V1.55A1.551,1.551,0,0,0,2.6,0H1.549A1.551,1.551,0,0,0,0,1.55Zm1.116,0a.434.434,0,0,1,.433-.433H2.6a.434.434,0,0,1,.433.433v.206a.434.434,0,0,1-.433.433H1.549a.434.434,0,0,1-.433-.433Z" transform="translate(23.051 7.238)"/>
        <path id="Trazado_101986" data-name="Trazado 101986" d="M1.55,0A1.551,1.551,0,0,0,0,1.55v.206a1.551,1.551,0,0,0,1.55,1.55H2.6a1.551,1.551,0,0,0,1.55-1.55V1.55A1.551,1.551,0,0,0,2.6,0ZM3.034,1.549v.206a.434.434,0,0,1-.433.433H1.55a.434.434,0,0,1-.433-.433V1.549a.434.434,0,0,1,.433-.433H2.6A.434.434,0,0,1,3.034,1.549Z" transform="translate(17.108 7.238)"/>
        <path id="Trazado_101987" data-name="Trazado 101987" d="M1.55,0A1.551,1.551,0,0,0,0,1.55v.206a1.551,1.551,0,0,0,1.55,1.55H2.6a1.551,1.551,0,0,0,1.55-1.55V1.55A1.551,1.551,0,0,0,2.6,0ZM3.034,1.549v.206a.434.434,0,0,1-.433.433H1.55a.434.434,0,0,1-.433-.433V1.549a.434.434,0,0,1,.433-.433H2.6A.434.434,0,0,1,3.034,1.549Z" transform="translate(11.166 7.238)"/>
      </g>
    </g>
  </g>
</svg>
