<svg xmlns="http://www.w3.org/2000/svg" width="325.204" height="234.836" viewBox="0 0 325.204 234.836">
  <g id="Graphic_Elements" data-name="Graphic Elements" transform="translate(1709.592 422.943)">
    <path id="Trazado_102104" data-name="Trazado 102104" d="M-1398.079,148.648h-270.439c-7.53,0-13.691,3.733-13.691,8.3h0c0,3.159,2.955,5.92,7.272,7.32H-1695.9c-7.53,0-13.691,3.733-13.691,8.3h0c0,4.563,6.161,8.3,13.691,8.3h7.3c-2.04,1.45-3.278,3.325-3.278,5.368v3.318c0,4.563,6.161,8.3,13.691,8.3h266.9c7.53,0,13.691-3.733,13.691-8.3v-3.318c0-4.562-6.161-8.3-13.691-8.3l-15.947.184a7.582,7.582,0,0,0,4.51-1.748c2.32-2.047,2.423-5.162,1.289-7.74-.735-1.671-1.913-3-4.832-3.5l28.188.112c7.53,0,13.691-3.733,13.691-8.3h0C-1384.388,152.381-1390.549,148.648-1398.079,148.648Z" transform="translate(0 -385.941)" fill="#d8ccff" opacity="0.387"/>
    <g id="Grupo_54979" data-name="Grupo 54979" transform="translate(-1643.761 -375.038)">
      <path id="Trazado_102105" data-name="Trazado 102105" d="M-1412.175-267l1.917-2.422-.357-2.7.534-.366.478.639.345-2.327,1.42-1.276,2.48.55,1.671,2.024-.808,2.4-2.262,2-2.481,3.43Z" transform="translate(1442.943 275.448)" fill="#ffb74d"/>
      <path id="Trazado_102106" data-name="Trazado 102106" d="M-1475.862-258.085l-10.881,16.778-4.314-4.574a8.139,8.139,0,0,0-12.542.851l-3.307,4.627,16.261,14.852,6.148-.643,13.894-28.947Z" transform="translate(1506.907 263.724)" fill="#ffb74d"/>
    </g>
    <g id="Grupo_55061" data-name="Grupo 55061" transform="translate(-1615.376 -422.943)">
      <g id="Grupo_55001" data-name="Grupo 55001" transform="translate(166.822 102.275)">
        <g id="Grupo_54980" data-name="Grupo 54980" transform="translate(11.675 1.187)">
          <path id="Trazado_102107" data-name="Trazado 102107" d="M-844.811-53.737h-2.375V-102.02h-20.382v48.283h-2.375v-50.658h25.131Z" transform="translate(869.942 104.395)" fill="#3a2c69"/>
        </g>
        <g id="Grupo_54981" data-name="Grupo 54981" transform="translate(0 46.898)">
          <rect id="Rectángulo_31202" data-name="Rectángulo 31202" width="49.273" height="69.457" rx="6" transform="translate(0 0)" fill="#ffdc72"/>
        </g>
        <g id="Grupo_54982" data-name="Grupo 54982" transform="translate(6.53 116.355)">
          <rect id="Rectángulo_31203" data-name="Rectángulo 31203" width="6.728" height="1.187" transform="translate(0 0)" fill="#3a2c69"/>
        </g>
        <g id="Grupo_54983" data-name="Grupo 54983" transform="translate(9.498 45.711)">
          <rect id="Rectángulo_31204" data-name="Rectángulo 31204" width="6.728" height="1.187" transform="translate(0 0)" fill="#8c6df2"/>
        </g>
        <g id="Grupo_54984" data-name="Grupo 54984" transform="translate(20.778 0)">
          <rect id="Rectángulo_31205" data-name="Rectángulo 31205" width="6.728" height="1.187" fill="#5038a1"/>
        </g>
        <g id="Grupo_54986" data-name="Grupo 54986" transform="translate(7.586 117.542)">
          <g id="Grupo_54985" data-name="Grupo 54985">
            <path id="Trazado_102108" data-name="Trazado 102108" d="M-882.533,253.848l.726,4.353h1.583l1.945.005.726-4.353Z" transform="translate(882.533 -253.848)" fill="#12263f"/>
          </g>
        </g>
        <g id="Grupo_54987" data-name="Grupo 54987" transform="translate(35.025 116.355)">
          <rect id="Rectángulo_31206" data-name="Rectángulo 31206" width="6.728" height="1.187" transform="translate(6.728 1.187) rotate(180)" fill="#3a2c69"/>
        </g>
        <g id="Grupo_54988" data-name="Grupo 54988" transform="translate(32.453 45.711)">
          <rect id="Rectángulo_31207" data-name="Rectángulo 31207" width="6.728" height="1.187" transform="translate(6.728 1.187) rotate(180)" fill="#8c6df2"/>
        </g>
        <g id="Grupo_54990" data-name="Grupo 54990" transform="translate(36.081 117.542)">
          <g id="Grupo_54989" data-name="Grupo 54989">
            <path id="Trazado_102109" data-name="Trazado 102109" d="M-790.183,253.848l-.726,4.353h-3.166l-.726-4.353Z" transform="translate(794.8 -253.848)" fill="#12263f"/>
          </g>
        </g>
        <g id="Grupo_54991" data-name="Grupo 54991" transform="translate(10.686 1.187)">
          <rect id="Rectángulo_31208" data-name="Rectángulo 31208" width="27.11" height="4.156" fill="#ffb74d"/>
        </g>
        <g id="Grupo_54993" data-name="Grupo 54993" transform="translate(17.414 42.743)">
          <g id="Grupo_54992" data-name="Grupo 54992" transform="translate(0 0)">
            <path id="Trazado_102110" data-name="Trazado 102110" d="M-852.273,23.549V27.7h1.994V25.536h9.667V27.7h1.994V23.549Z" transform="translate(852.273 -23.549)" fill="#8c6df2"/>
          </g>
        </g>
        <g id="Grupo_54994" data-name="Grupo 54994" transform="translate(5.937 50.262)">
          <path id="Trazado_102111" data-name="Trazado 102111" d="M-885.253,47.69a1.187,1.187,0,0,0-1.17-.989,1.186,1.186,0,0,0-1.169.989h-.018v61.146a1.187,1.187,0,0,0,1.187,1.187,1.187,1.187,0,0,0,1.187-1.187V47.69Z" transform="translate(887.61 -46.701)" fill="#ffb74d"/>
        </g>
        <g id="Grupo_54995" data-name="Grupo 54995" transform="translate(11.675 50.262)">
          <path id="Trazado_102112" data-name="Trazado 102112" d="M-867.585,47.69a1.186,1.186,0,0,0-1.169-.989,1.187,1.187,0,0,0-1.17.989h-.018v61.146a1.188,1.188,0,0,0,1.187,1.187,1.187,1.187,0,0,0,1.187-1.187V47.69Z" transform="translate(869.942 -46.701)" fill="#ffb74d"/>
        </g>
        <g id="Grupo_54996" data-name="Grupo 54996" transform="translate(17.414 50.262)">
          <path id="Trazado_102113" data-name="Trazado 102113" d="M-849.916,47.69a1.187,1.187,0,0,0-1.17-.989,1.187,1.187,0,0,0-1.17.989h-.018v61.146a1.187,1.187,0,0,0,1.187,1.187,1.188,1.188,0,0,0,1.187-1.187V47.69Z" transform="translate(852.273 -46.701)" fill="#ffb74d"/>
        </g>
        <g id="Grupo_54997" data-name="Grupo 54997" transform="translate(23.152 50.262)">
          <path id="Trazado_102114" data-name="Trazado 102114" d="M-832.248,47.69a1.186,1.186,0,0,0-1.169-.989,1.187,1.187,0,0,0-1.17.989h-.018v61.146a1.188,1.188,0,0,0,1.187,1.187,1.187,1.187,0,0,0,1.187-1.187V47.69Z" transform="translate(834.605 -46.701)" fill="#ffb74d"/>
        </g>
        <g id="Grupo_54998" data-name="Grupo 54998" transform="translate(28.891 50.262)">
          <path id="Trazado_102115" data-name="Trazado 102115" d="M-814.58,47.69a1.187,1.187,0,0,0-1.17-.989,1.187,1.187,0,0,0-1.17.989h-.018v61.146a1.188,1.188,0,0,0,1.187,1.187,1.188,1.188,0,0,0,1.187-1.187V47.69Z" transform="translate(816.937 -46.701)" fill="#ffb74d"/>
        </g>
        <g id="Grupo_54999" data-name="Grupo 54999" transform="translate(34.63 50.262)">
          <path id="Trazado_102116" data-name="Trazado 102116" d="M-796.911,47.69a1.187,1.187,0,0,0-1.17-.989,1.186,1.186,0,0,0-1.169.989h-.018v61.146a1.187,1.187,0,0,0,1.187,1.187,1.188,1.188,0,0,0,1.187-1.187V47.69Z" transform="translate(799.268 -46.701)" fill="#ffb74d"/>
        </g>
        <g id="Grupo_55000" data-name="Grupo 55000" transform="translate(40.368 50.262)">
          <path id="Trazado_102117" data-name="Trazado 102117" d="M-779.243,47.69a1.187,1.187,0,0,0-1.17-.989,1.187,1.187,0,0,0-1.17.989h-.018v61.146a1.188,1.188,0,0,0,1.187,1.187,1.187,1.187,0,0,0,1.187-1.187V47.69Z" transform="translate(781.6 -46.701)" fill="#ffb74d"/>
        </g>
      </g>
      <g id="Grupo_55020" data-name="Grupo 55020" transform="translate(0)">
        <g id="Grupo_55002" data-name="Grupo 55002" transform="translate(0 14.141)">
          <rect id="Rectángulo_31209" data-name="Rectángulo 31209" width="95.111" height="126.923" transform="translate(95.111 126.923) rotate(180)" fill="#3a2c69"/>
        </g>
        <g id="Grupo_55003" data-name="Grupo 55003" transform="translate(2.599 18.183)" opacity="0.26">
          <path id="Trazado_102118" data-name="Trazado 102118" d="M-1326.093-249.532h-1.424l-83.992,2.605,2.2-120.034,3.9,1.123Z" transform="translate(1411.509 366.96)" fill="#000100"/>
        </g>
        <g id="Grupo_55006" data-name="Grupo 55006" transform="translate(4.797 18.183)">
          <g id="Grupo_55005" data-name="Grupo 55005">
            <g id="Grupo_55004" data-name="Grupo 55004">
              <rect id="Rectángulo_31210" data-name="Rectángulo 31210" width="85.518" height="117.428" fill="#fff"/>
            </g>
          </g>
        </g>
        <g id="Grupo_55011" data-name="Grupo 55011" transform="translate(14.903 61.098)">
          <g id="Grupo_55007" data-name="Grupo 55007" transform="translate(0 0)">
            <rect id="Rectángulo_31211" data-name="Rectángulo 31211" width="64.265" height="1.729" transform="translate(64.265 1.729) rotate(180)" fill="#cdced0"/>
          </g>
          <g id="Grupo_55008" data-name="Grupo 55008" transform="translate(0 12.745)">
            <rect id="Rectángulo_31212" data-name="Rectángulo 31212" width="64.265" height="1.729" transform="translate(64.265 1.729) rotate(180)" fill="#cdced0"/>
          </g>
          <g id="Grupo_55009" data-name="Grupo 55009" transform="translate(0 25.489)">
            <rect id="Rectángulo_31213" data-name="Rectángulo 31213" width="64.265" height="1.729" transform="translate(64.265 1.729) rotate(180)" fill="#cdced0"/>
          </g>
          <g id="Grupo_55010" data-name="Grupo 55010" transform="translate(0 38.234)">
            <rect id="Rectángulo_31214" data-name="Rectángulo 31214" width="64.265" height="1.729" transform="translate(64.265 1.729) rotate(180)" fill="#cdced0"/>
          </g>
        </g>
        <g id="Grupo_55012" data-name="Grupo 55012" transform="translate(55.602 125.176)">
          <rect id="Rectángulo_31215" data-name="Rectángulo 31215" width="23.624" height="0.61" transform="translate(23.624 0.61) rotate(180)" fill="#cdced0"/>
        </g>
        <g id="Grupo_55014" data-name="Grupo 55014" transform="translate(19.575 114.068)">
          <g id="Grupo_55013" data-name="Grupo 55013" transform="translate(0 0)">
            <path id="Trazado_102119" data-name="Trazado 102119" d="M-1359.243-67.445a4.35,4.35,0,0,0,3.49,4.223,4.377,4.377,0,0,0,2.776-.408,4.1,4.1,0,0,0,1.176.408,4.346,4.346,0,0,0,4.512-2.031,4.34,4.34,0,0,0-.356-4.894,4.335,4.335,0,0,0-4.833-1.334,4.243,4.243,0,0,0-.492.223,4.314,4.314,0,0,0-3.461-.223A4.365,4.365,0,0,0-1359.243-67.445Zm6.969,3.366a4.226,4.226,0,0,0,1.033-1.174,4.339,4.339,0,0,0-.356-4.894,4.2,4.2,0,0,0-.676-.666,3.583,3.583,0,0,1,.58-.169,3.635,3.635,0,0,1,3.8,1.7,3.635,3.635,0,0,1-.344,4.166,3.641,3.641,0,0,1-3.984,1.063Zm-.694-6.373a3.579,3.579,0,0,1,1.125,1.167,3.635,3.635,0,0,1-.344,4.166,3.549,3.549,0,0,1-.783.686,3.7,3.7,0,0,1-1.623-3.011A3.707,3.707,0,0,1-1352.968-70.453Zm-5.578,3.007a3.65,3.65,0,0,1,2.9-3.536,3.577,3.577,0,0,1,1.984.175,4.419,4.419,0,0,0-1.629,3.361,4.463,4.463,0,0,0,1.627,3.361,3.632,3.632,0,0,1-2.507.028A3.651,3.651,0,0,1-1358.545-67.445Z" transform="translate(1359.243 71.743)" fill="#cdced0"/>
          </g>
        </g>
        <g id="Grupo_55015" data-name="Grupo 55015" transform="translate(29.27 17.734)" opacity="0.05">
          <path id="Trazado_102120" data-name="Trazado 102120" d="M-1267.884-368.342h-61.51l61.612,51.782Z" transform="translate(1329.394 368.342)" fill="#000100"/>
        </g>
        <g id="Grupo_55019" data-name="Grupo 55019" transform="translate(28.985)">
          <g id="Grupo_55016" data-name="Grupo 55016" transform="translate(0 17.563)" opacity="0.12">
            <rect id="Rectángulo_31216" data-name="Rectángulo 31216" width="37.141" height="3.486" transform="translate(37.141 3.486) rotate(180)" fill="#d8ccff"/>
          </g>
          <g id="Grupo_55018" data-name="Grupo 55018" transform="translate(0)">
            <g id="Grupo_55017" data-name="Grupo 55017">
              <path id="Trazado_102121" data-name="Trazado 102121" d="M-1330.27-409.3v7.4h37.141v-7.4c0-3.66-3.408-6.628-7.613-6.628h-.576v-.388c0-3.66-3.408-6.628-7.613-6.628h-5.538c-4.2,0-7.613,2.968-7.613,6.628v.388h-.576C-1326.862-415.926-1330.27-412.959-1330.27-409.3Zm11.859-8.294a1.824,1.824,0,0,1,1.819-1.819h9.785a1.824,1.824,0,0,1,1.819,1.819,1.824,1.824,0,0,1-1.819,1.818h-9.785A1.824,1.824,0,0,1-1318.411-417.593Z" transform="translate(1330.27 422.943)" fill="#d8ccff"/>
            </g>
          </g>
        </g>
      </g>
      <g id="Grupo_55059" data-name="Grupo 55059" transform="translate(80.911 10.986)">
        <g id="Grupo_55021" data-name="Grupo 55021" transform="translate(13.455 38.452)">
          <path id="Trazado_102122" data-name="Trazado 102122" d="M-1102.553-229.4l-20.141-41.329-6.278,5.755,8.632,41.067,13.6,7.847Z" transform="translate(1128.972 270.732)" fill="#3a2c69"/>
        </g>
        <g id="Grupo_55022" data-name="Grupo 55022" transform="translate(72.146 46.239)">
          <path id="Trazado_102123" data-name="Trazado 102123" d="M-946.215-246.755l6.813,4.2,17.334,27.912-1.028,8.22-13.358-2.569-11.817-29.285Z" transform="translate(948.271 246.755)" fill="#3a2c69"/>
        </g>
        <g id="Grupo_55023" data-name="Grupo 55023" transform="translate(24.703 48.653)">
          <path id="Trazado_102124" data-name="Trazado 102124" d="M-1066.615-239.323l-6.322,4.848-21.405,27.326,3.773,10.881,12.4.737Z" transform="translate(1094.342 239.323)" fill="#3a2c69"/>
        </g>
        <g id="Grupo_55029" data-name="Grupo 55029" transform="translate(44.814 11.531)">
          <g id="Grupo_55024" data-name="Grupo 55024" transform="translate(11.15 13.163)">
            <path id="Trazado_102125" data-name="Trazado 102125" d="M-990.635-290.764l5.792-.251a28.914,28.914,0,0,0-.057-4.618,13.239,13.239,0,0,0,3.38-1.812c.787-1.064.879-2.85,1.206-4.116.7-2.7,1.352-5.731-.072-8.123-1.475-2.478-4.667-3.326-7.55-3.4-3.619-.095-7.66.96-9.521,4.066-1.681,2.8.44,6.942,1.045,9.908.3,1.463.754,3.132,2.113,3.749.721.328,1.6.292,2.241.754C-990.922-293.794-991.178-292.052-990.635-290.764Z" transform="translate(998.093 313.091)" fill="#f4cdaf"/>
          </g>
          <g id="Grupo_55028" data-name="Grupo 55028">
            <g id="Grupo_55025" data-name="Grupo 55025" transform="translate(14.199 0.205)">
              <path id="Trazado_102126" data-name="Trazado 102126" d="M-988.7-352.986h0Z" transform="translate(988.704 352.986)" fill="none"/>
            </g>
            <g id="Grupo_55026" data-name="Grupo 55026" transform="translate(14.2)">
              <path id="Trazado_102127" data-name="Trazado 102127" d="M-987.03-353.614a4.559,4.559,0,0,1,.878.129l-2.548.072A5.9,5.9,0,0,1-987.03-353.614Z" transform="translate(988.7 353.618)" fill="#3c2d25"/>
            </g>
            <g id="Grupo_55027" data-name="Grupo 55027" transform="translate(0 0.133)">
              <path id="Trazado_102128" data-name="Trazado 102128" d="M-1026.091-345.055l1.657-2.787,6.212-5.293h0l2.548-.072c2.11.513,3.868,2.366,6.062,2.717,3.449.551,6.616-1.029,8.7,3.03.383.746.489,1.6.826,2.371a16.657,16.657,0,0,0,1.849,2.66c2.727,3.9,1.845,9.825-1.46,13.132-1.6,1.6-2.258,3.054-4.466,3.568,1.011-2.055-.324-10.243-3.092-11.162-.733-.243-2.935.654-3.748.773a21.558,21.558,0,0,0-5.24,1.252,26.8,26.8,0,0,1-7,1.886h0c-.06,0-.283.035-.605.059-.117.011-.234.026-.351.035a2.19,2.19,0,0,1-.662-.023,4.078,4.078,0,0,1-2.689-1.023c-1.439-1.439-.959-3.118-4.077-3.358C-1034.186-337.485-1030.076-342.452-1026.091-345.055Z" transform="translate(1032.421 353.207)" fill="#12263f"/>
            </g>
          </g>
        </g>
        <g id="Grupo_55032" data-name="Grupo 55032" transform="translate(39.537 98.391)">
          <g id="Grupo_55030" data-name="Grupo 55030" transform="translate(0 0)">
            <path id="Trazado_102129" data-name="Trazado 102129" d="M-1048.138-82.059l-.53,45.831,4.941,60.262h6.641l7.89-55.695,9.087-54.525Z" transform="translate(1048.667 86.186)" fill="#3a2c69"/>
          </g>
          <g id="Grupo_55031" data-name="Grupo 55031" transform="translate(0.772 109.429)">
            <path id="Trazado_102130" data-name="Trazado 102130" d="M-1035.519,250.732v3.591l-7.181,3.591-3.591-3.591,3.591-3.591Z" transform="translate(1046.291 -250.732)" fill="#12263f"/>
          </g>
        </g>
        <g id="Grupo_55035" data-name="Grupo 55035" transform="translate(59.42 97.177)">
          <g id="Grupo_55033" data-name="Grupo 55033">
            <path id="Trazado_102131" data-name="Trazado 102131" d="M-987.45-81.673l6.295,45.4,18.561,58.856,6.567-.988-5.193-56.249.874-55.27Z" transform="translate(987.45 89.924)" fill="#3a2c69"/>
          </g>
          <g id="Grupo_55034" data-name="Grupo 55034" transform="translate(21.15 110.743)">
            <path id="Trazado_102132" data-name="Trazado 102132" d="M-912.215,251.039l.534,3.551-6.567,4.619-4.085-3.016,3.016-4.085Z" transform="translate(922.333 -251.039)" fill="#12263f"/>
          </g>
        </g>
        <g id="Grupo_55036" data-name="Grupo 55036" transform="translate(24.585 45.873)">
          <path id="Trazado_102133" data-name="Trazado 102133" d="M-1029.968-182.472c.092,4.181-.04,9.817-1.646,10.023a1.458,1.458,0,0,1-.853-.254c-2.778-1.516-4.743-3.651-7.481-5.116a31.546,31.546,0,0,0-9.373-2.923,90.533,90.533,0,0,0-14.641-1.511,115.62,115.62,0,0,0-11.571.581c-3.195.266-6.167,1.213-9.422.987a20.924,20.924,0,0,1-9.473-3.005.567.567,0,0,1-.258-.252.575.575,0,0,1,.045-.39,17.579,17.579,0,0,1,2.408-5.262,34.061,34.061,0,0,0,3.363-5.886,94.479,94.479,0,0,0,5.5-12.753c2.2-5.931,4.71-11.709,6.834-17.66a101.629,101.629,0,0,1,4.815-12.234c1.565-3.062,4.354-7.535,7.714-8.883a10.456,10.456,0,0,1,3.616-.533l11.146-.32a9.017,9.017,0,0,1,4,.491c1.85.836,2.9,2.779,3.81,4.592a88.945,88.945,0,0,1,8.178,25.932c.765,4.719,1.472,9.448,2.022,14.194.614,5.3,1.036,10.617,1.125,15.946C-1030.105-186.117-1030.012-184.459-1029.968-182.472Z" transform="translate(1094.705 247.883)" fill="#3a2c69"/>
        </g>
        <g id="Grupo_55037" data-name="Grupo 55037" transform="translate(39.931 43.099)">
          <path id="Trazado_102134" data-name="Trazado 102134" d="M-1014.886-186.2c-9.976-.087-22.594-.748-32.57-.835.361-4.768,1.327-11.362,1.689-16.13a67.484,67.484,0,0,1,1.11-9.123c1.041-4.838,3.129-9.392,5.2-13.9l11.493-25a4.549,4.549,0,0,1,.541-.959.742.742,0,0,1,.108-.358c1.027-1.8-.514-2.055.257-2.312s4.624.257,8.477-1.285c1.967-.787,1.8,0,1.8,1.285s.257,1.284.257,1.284l-.039.02c.705,2.611-1.931,7.136-2.909,9.559-1.425,3.531-3.126,7.037-3.382,10.883a30.362,30.362,0,0,0,.46,6.3C-1020.572-214.052-1016.71-198.925-1014.886-186.2Z" transform="translate(1047.456 256.423)" fill="#d8ecf2"/>
        </g>
        <g id="Grupo_55053" data-name="Grupo 55053" transform="translate(0 50.038)">
          <g id="Grupo_55043" data-name="Grupo 55043" transform="translate(0 0)">
            <g id="Grupo_55042" data-name="Grupo 55042">
              <circle id="Elipse_5893" data-name="Elipse 5893" cx="40.081" cy="40.081" r="40.081" transform="translate(0 56.683) rotate(-45)" fill="#ffb74d"/>
            </g>
          </g>
          <g id="Grupo_55045" data-name="Grupo 55045" transform="translate(16.614 16.743)">
            <g id="Grupo_55044" data-name="Grupo 55044">
              <path id="Trazado_102137" data-name="Trazado 102137" d="M-1083.023-183.509a39.891,39.891,0,0,0-15.134,16.639,40.081,40.081,0,0,0,18.448,53.6,39.89,39.89,0,0,0,21.442,3.875,40.049,40.049,0,0,1-38.463,1.81,40.081,40.081,0,0,1-18.449-53.6A40.055,40.055,0,0,1-1083.023-183.509Z" transform="translate(1119.246 183.509)" fill="#c7831d"/>
            </g>
          </g>
          <g id="Grupo_55051" data-name="Grupo 55051" transform="translate(29.702 16.596)">
            <g id="Grupo_55046" data-name="Grupo 55046" transform="translate(33.3 0.499)">
              <path id="Trazado_102138" data-name="Trazado 102138" d="M-974.263-182.018q-1.078-.234-2.161-.408Z" transform="translate(976.424 182.426)" fill="#8c6df2"/>
            </g>
            <g id="Grupo_55047" data-name="Grupo 55047">
              <path id="Trazado_102139" data-name="Trazado 102139" d="M-1048.169-183.784a11.666,11.666,0,0,1,3.037,1.538,4.784,4.784,0,0,1-.517-1.217q1.083.173,2.161.408c.04.037.078.075.116.112.722.73.834.824.423,1.3a7.113,7.113,0,0,0,1.192-.008l4.17,2.035c-4.067,1.633,1.148,3.939,3.016,4.857.342.168.755-.478.649-.753a12.137,12.137,0,0,0-1.753-.855c-1.759-.858-1.48-.87-.626-2.621,1.084,2.073,1.634.8,3.553,1.733a9.609,9.609,0,0,1,3.868,2.889l-2.184.562c.719.169,3.236.371,3.693.9.213.246-.067,1,.265,1.157,1.342.655,4.634,3.169,5.385,1.631,0-.007.031,0,.076.013a40.091,40.091,0,0,1,6.344,10.039,24.094,24.094,0,0,0-3.828-2.1,18.413,18.413,0,0,0-2.769,2.445c-.666,1.213-.058,2.117-.006,3.6a16.493,16.493,0,0,1-2.081,8.122c-.047.085-2.112.677-2.362,1.188-1.046,2.143-1.287,2.069-3.53,2.93l1.283-2.629c-2,1.873-3.494,2.242-5.386,4.107-2.147,2.116-4.745-1.581-6.774-.487-.894.482-1.72-.342-2.548.15l-2.244,1.336c-1.353.805-2.1-.066-3.484-.742-1.331-.649-1.032,5.189-1.221,5.577-.778,1.594-4.725,4.162-5.023,4.807-.883,1.913-3.376,1.025-5.229,1.565-1.486.439-2.053,3.46-2.6,4.657-1.268,2.789-3.992,3.908-5.711,6.286-.641.887-.779,2.113-1.447,2.937-.687.846-1.8,1.04-2.3,2.1-.776,1.637-5.5-.291-6.391-.723.005,0,4.188-.1,4.087.1.754-1.545-.094-1.826.366-2.769.546-1.12,2.012-1.546,2.15-3.44.15-2.048.2-1.958-1.655-2.864a12.327,12.327,0,0,1,1.495-2.15c-.4-3.395-3.043-7.765-3.724-8.961-.925-1.626,1.1-3.806,1.166-5.462.057-1.456-1-3.343-.36-4.856.49-1.154,1.618-.944,2.427-.515s1.557-.9,2.177-.6a9.124,9.124,0,0,0,5.688,1.043c.337-.062,1.687-2.127,2.375-2.466.986-.486,2.251,1.83,3.521,1.134.48-.263,1.92-1.509,2.379-1.285.625.3,4.393,1.314,4.8,2.322-.062-.155,1.414.082,1.6.171-.079-.038,3.285,4.49,3.876,3.279.766-1.57.99-3.972,2.852-3.063,2.992,1.46.826-.56,1.495-1.931.858-1.758,2.663,1.9,4.189,2.643-.04-.02,3.127-2.047,2.283-2.458-.605-.3-.1-1.575-.291-2.319-.508-1.959-2.455-3.088-4-3.521-.627-.175-3.892,1.226-4.142,1.722.059-.118-.526-1.078-.555-1.31-.1-.831.261-.99.467-1.671.689-2.287.806-2.749-.256-4.862a25.374,25.374,0,0,1-2.364-5.186,7.279,7.279,0,0,0-1.568-3.181,3.557,3.557,0,0,1-1.6.075c-.977-.477-.81-1.418-.984-2.42l1.7.828c-1.2-2.4,2.637-1.468-1.2-3.341-1.886-.92-2.073-.979-2.573-2.882,1.834.895,1.394.665,2.306-1.2.152-.311,1.227-1.2,1.485-.471.7,1.991,1.423.393,2.448-.2,1.324-.77,1.576.81,1.557,1.66-.023,1.053,2.576,3.987,2.021,5.106-.325.656.763,1.154,1.1.411.508-1.116,4.826-.311,5.1-.711.36-.527-.86-3.016-2.57-3.85-.786-.383.043-1.106-.2-1.224-1.629-.795-3.3-2.238-3.553-3.987.222.108,2.307,1.144,2.319,1.118.365-.747.906-1.047.05-1.464-2.01-.98-3.37.3-5.576-.78l1.527,2.873c-1.107-.54-3.663.49-4.236-.5-1.058-1.82.471-2.266-.729-3.121a1.727,1.727,0,0,1-.836.086c-.479-.055-2.078-.51-2.51-.259-.521.3-2.586,2.593-2.137,3.1.729.822,1.99,5.024-.408,4.749-1.853-.212-1.915-1.115-2.892-2.681-.908-1.456-1.411-1.329-3.137-1.527a10.124,10.124,0,0,0-2.17-.873c-1.456-.167-.983-.907-1.136-.924a3.8,3.8,0,0,1-2.182-1.026A40.152,40.152,0,0,1-1048.169-183.784Z" transform="translate(1078.949 183.963)" fill="#8c6df2"/>
            </g>
            <g id="Grupo_55048" data-name="Grupo 55048" transform="translate(27.847 30.931)">
              <path id="Trazado_102140" data-name="Trazado 102140" d="M-987.562-87.109l.373,1.088c-2.27-1.107-4.008-1.049-6.021-2.031C-990.827-89.511-990.087-88.341-987.562-87.109Z" transform="translate(993.211 88.73)" fill="#8c6df2"/>
            </g>
            <g id="Grupo_55049" data-name="Grupo 55049" transform="translate(24.183 30.698)">
              <path id="Trazado_102141" data-name="Trazado 102141" d="M-1003.563-89.415c1.848.834,1.8,1.151,2.306,2.943q-1.44-.7-2.882-1.4C-1004.972-88.279-1004.146-89.678-1003.563-89.415Z" transform="translate(1004.492 89.447)" fill="#8c6df2"/>
            </g>
            <g id="Grupo_55050" data-name="Grupo 55050" transform="translate(21.602 30.468)">
              <path id="Trazado_102142" data-name="Trazado 102142" d="M-1012.438-89.254c1.246-2.554,2.6,1.267,0,0Z" transform="translate(1012.438 90.155)" fill="#8c6df2"/>
            </g>
          </g>
          <g id="Grupo_55052" data-name="Grupo 55052" transform="translate(29.702 54.542)">
            <path id="Trazado_102143" data-name="Trazado 102143" d="M-1070.261-37.42c-.687.846-1.8,1.04-2.3,2.1-.776,1.637-5.5-.291-6.391-.723.005,0,4.188-.1,4.087.1.754-1.545-.094-1.826.366-2.769.546-1.12,2.012-1.546,2.15-3.44.15-2.048.2-1.958-1.655-2.864a12.327,12.327,0,0,1,1.495-2.15c-.4-3.395-3.043-7.766-3.724-8.961-.925-1.626,1.1-3.806,1.166-5.462.057-1.456-1-3.343-.36-4.856a1.384,1.384,0,0,1,.573-.69,40.233,40.233,0,0,0,9.917,23,31.155,31.155,0,0,0-3.879,3.778C-1069.455-39.471-1069.592-38.244-1070.261-37.42Z" transform="translate(1078.949 67.131)" fill="#5038a1"/>
          </g>
        </g>
        <g id="Grupo_55054" data-name="Grupo 55054" transform="translate(8.416 59.457)">
          <path id="Trazado_102144" data-name="Trazado 102144" d="M-1140.71-197.359a20.575,20.575,0,0,0,4.924,28.678c9.279,6.56,42.764,5.96,43.2,5.342.325-.46-10.167-32.385-19.446-38.944A20.575,20.575,0,0,0-1140.71-197.359Zm23.511,16.62a9.7,9.7,0,0,1-13.513,2.32,9.7,9.7,0,0,1-2.32-13.513,9.7,9.7,0,0,1,13.513-2.32A9.7,9.7,0,0,1-1117.2-180.738Z" transform="translate(1144.486 206.059)" fill="#d8ccff"/>
        </g>
        <g id="Grupo_55057" data-name="Grupo 55057" transform="translate(56.71 76.042)">
          <g id="Grupo_55055" data-name="Grupo 55055" transform="translate(7.108)">
            <path id="Trazado_102145" data-name="Trazado 102145" d="M-939.522-152.827s-13.269-2.646-13.864-2.093-20.523,18.936-20.523,18.936l3.408,4.375,22.842-8.728,6.818-4.241Z" transform="translate(973.909 154.995)" fill="#3a2c69"/>
          </g>
          <g id="Grupo_55056" data-name="Grupo 55056" transform="translate(0 19.494)">
            <path id="Trazado_102146" data-name="Trazado 102146" d="M-988.312-94.977c-.161-.014-4.922,1.311-4.922,1.311l-2.561,5.243,3.017,1.325,6.878-4.785Z" transform="translate(995.795 94.977)" fill="#f4cdaf"/>
          </g>
        </g>
        <g id="Grupo_55058" data-name="Grupo 55058" transform="translate(15.63 67.025)">
          <circle id="Elipse_5894" data-name="Elipse 5894" cx="9.695" cy="9.695" r="9.695" transform="translate(0 18.498) rotate(-72.553)" fill="#fff"/>
        </g>
      </g>
      <g id="Grupo_55060" data-name="Grupo 55060" transform="translate(90.863 41.328)">
        <path id="Trazado_102147" data-name="Trazado 102147" d="M-1130.813-286.786l-1.478-5.773-7.408-3.139-.058,2.293,2.757,1.63,1.53,3.139v6.118Z" transform="translate(1139.756 295.698)" fill="#f4cdaf"/>
      </g>
    </g>
    <g id="Grupo_55072" data-name="Grupo 55072" transform="translate(-1707.375 -388.547)">
      <path id="Trazado_102148" data-name="Trazado 102148" d="M-1599.994-179.565a5.506,5.506,0,0,1,.083-5.117,24.145,24.145,0,0,1,3.467-4.482,46.292,46.292,0,0,0,8.921-15.544c1.914-5.668-7.717-2.9-9.8-1.086-2.314,2.015-3.732,4.874-5.489,7.34q-3.538,4.968-6.674,10.207c-1.321,2.208-5,7.082-3.447,9.742a7.452,7.452,0,0,0,1.7,1.813c1,.848,13.2,10.493,13.8,9.965l5.3-4.655C-1594.536-173.607-1598.5-176.341-1599.994-179.565Z" transform="translate(1642.368 243.479)" fill="#ffb74d"/>
      <g id="Grupo_55062" data-name="Grupo 55062" transform="translate(48.864 98.773)">
        <path id="Trazado_102149" data-name="Trazado 102149" d="M-1550.712,237.52l-.272,2.691,4.888,3.355,2.853-2.358-2.308-3.023-4.888-3.355Z" transform="translate(1551.418 -154.358)" fill="#242449"/>
        <path id="Trazado_102150" data-name="Trazado 102150" d="M-1551.491-12.036l-.828,8.172,7.331,28.076-6.807,45.116,5.01,1.726,13.213-44.047,2.1-12.814-.076-27.127Z" transform="translate(1552.319 12.933)" fill="#fad3b8"/>
      </g>
      <g id="Grupo_55063" data-name="Grupo 55063" transform="translate(64.932 99.646)">
        <path id="Trazado_102151" data-name="Trazado 102151" d="M-1477.938-3.372l-10.539,75.6h-4.791l-.862-48.458-8.719-34.012Z" transform="translate(1502.849 10.244)" fill="#fad3b8"/>
        <path id="Trazado_102152" data-name="Trazado 102152" d="M-1473.265,241.832v2.715l5.18,2.716,2.59-2.716-2.59-2.715Z" transform="translate(1482.873 -159.959)" fill="#242449"/>
      </g>
      <path id="Trazado_102153" data-name="Trazado 102153" d="M-1545.607-225.8a4.307,4.307,0,0,0-1.581-1.541c-3.727-2.1-13.934.839-20.667,2.214a6.179,6.179,0,0,0-4.932,5.812c-.544,13.614,1.741,24.773-.684,38.815q-4.342,25.134-9.774,50.064c-.205.941,14.373.466,15.748.489,14.025.236,32.383.188,45.916-4.052-8.637-23.185-11.79-48.132-18.591-71.921-1.194-4.176-2.612-8.29-3.687-12.5C-1544.483-220.857-1544.387-223.8-1545.607-225.8Z" transform="translate(1622.066 256.97)" fill="#ffb74d"/>
      <g id="Grupo_55064" data-name="Grupo 55064" transform="translate(48.296)">
        <path id="Trazado_102154" data-name="Trazado 102154" d="M-1487.908-301.561a9.454,9.454,0,0,1,6.734,7.916,8.467,8.467,0,0,0,2.573-7.21,8.466,8.466,0,0,0-4.4-6.261,9.635,9.635,0,0,0-4.638,5.617Z" transform="translate(1509.396 310.34)" fill="#242449"/>
        <path id="Trazado_102155" data-name="Trazado 102155" d="M-1502.473-293.287c-1.834-9.685-13.934-8.011-17.4-.169-1.974,4.46.094,10.773,4.042,13.876.085.857.2,3.223.852,3.8.71.621,2.946.029,3.822-.173a1.353,1.353,0,0,0,.673-.3,2.523,2.523,0,0,0,.262-1.468,8.063,8.063,0,0,0,1.973-.389,9.374,9.374,0,0,0,5.7-6.369A18.773,18.773,0,0,0-1502.473-293.287Z" transform="translate(1531.495 305.506)" fill="#fad3b8"/>
        <path id="Trazado_102156" data-name="Trazado 102156" d="M-1542.713-271.337a40.619,40.619,0,0,0,6.863-.741c-1.554.3-2.07-16.335-2.125-17.486a16.711,16.711,0,0,1,2.748-9.37,52.564,52.564,0,0,1,6.209-7.707,7.821,7.821,0,0,0,2.165-3.448,5.1,5.1,0,0,0-1.263-4.219,7.146,7.146,0,0,0-5.581-2.73,16.719,16.719,0,0,0-12.608,5.2c-3.748,4.184-4.82,10.317-5,15.774a35.123,35.123,0,0,1-.239,4.385,29.977,29.977,0,0,1-1.278,4.519,20.542,20.542,0,0,0-1.248,6.8,9.044,9.044,0,0,0,2.488,6.3C-1549.257-271.824-1545.8-271.267-1542.713-271.337Z" transform="translate(1554.069 317.042)" fill="#12263f"/>
      </g>
      <g id="Grupo_55070" data-name="Grupo 55070" transform="translate(0 26.345)">
        <g id="Grupo_55065" data-name="Grupo 55065" transform="translate(84.636 43.87)">
          <path id="Trazado_102157" data-name="Trazado 102157" d="M-1436.433-100.291l-5.053,4.092a1.764,1.764,0,0,0-.39,2.389l1.072,1.488a1.742,1.742,0,0,0,2.379.373l5.546-3.618a1.822,1.822,0,0,0,.853-1.635,4.15,4.15,0,0,0-2.472-3.34A1.808,1.808,0,0,0-1436.433-100.291Z" transform="translate(1442.182 100.765)" fill="#ffebad"/>
          <path id="Trazado_102158" data-name="Trazado 102158" d="M-1430.759-94.623l.265,6.4,5.729-3.786s-3.624,2.167-5.543-2.978Z" transform="translate(1434.469 96.895)" fill="#ffebad" opacity="0.67" style="mix-blend-mode: multiply;isolation: isolate"/>
          <path id="Trazado_102159" data-name="Trazado 102159" d="M-1423.932-98.88a9.734,9.734,0,0,1,2.022,3.3c.017.047.026.094.042.141l.527-.338a1.634,1.634,0,0,0,.753-1.554,4.447,4.447,0,0,0-2.483-3.331,1.662,1.662,0,0,0-1.837.171l-.393.318A13.2,13.2,0,0,1-1423.932-98.88Z" transform="translate(1430.784 100.862)" fill="#ffebad"/>
        </g>
        <g id="Grupo_55066" data-name="Grupo 55066" transform="translate(85.718 57.899)">
          <path id="Trazado_102160" data-name="Trazado 102160" d="M-1433.1-56.439l-5.053,4.092a1.764,1.764,0,0,0-.389,2.389l1.072,1.488a1.743,1.743,0,0,0,2.379.373l5.546-3.618a1.824,1.824,0,0,0,.853-1.635,4.151,4.151,0,0,0-2.472-3.339A1.807,1.807,0,0,0-1433.1-56.439Z" transform="translate(1438.852 57.126)" fill="#ffebad"/>
          <path id="Trazado_102161" data-name="Trazado 102161" d="M-1419.79-55.684a9.734,9.734,0,0,1,2.022,3.3c.017.047.027.094.042.141l.527-.338a1.632,1.632,0,0,0,.753-1.554,4.446,4.446,0,0,0-2.482-3.331,1.662,1.662,0,0,0-1.837.171l-.393.319A13.188,13.188,0,0,1-1419.79-55.684Z" transform="translate(1426.905 57.666)" fill="#ffebad"/>
          <path id="Trazado_102162" data-name="Trazado 102162" d="M-1427.6-50.871l.265,6.4,5.729-3.786s-3.624,2.167-5.544-2.978Z" transform="translate(1431.253 53.323)" fill="#ffebad" opacity="0.67" style="mix-blend-mode: multiply;isolation: isolate"/>
        </g>
        <path id="Trazado_102163" data-name="Trazado 102163" d="M-1563.335-210.938l2.2-5.915a3.4,3.4,0,0,0-3.668-4.6l-6.161.815a38.535,38.535,0,0,0-20.326,9l-48.174,44.619-7.626,11.833,4.067,5.039,13.125-5.039,53.661-38.26A38.555,38.555,0,0,0-1563.335-210.938Z" transform="translate(1665.171 226.18)" fill="#ffebad"/>
        <path id="Trazado_102164" data-name="Trazado 102164" d="M-1480.633-139.475l3.583,55.378-8.38,6.365-18.453-51.19,22.694-11.512Z" transform="translate(1568.479 171.451)" fill="#ffebad"/>
        <path id="Trazado_102165" data-name="Trazado 102165" d="M-1426.619-209.756s5.547,3.107,6.914,8.568l2.831-2.285s-1.738-6.705-7.218-8.324Z" transform="translate(1516.31 219.635)" fill="#ffb74d" opacity="0.57"/>
        <path id="Trazado_102166" data-name="Trazado 102166" d="M-1476.033-132.97c-.521.312-21.178,15.1-21.178,15.1l1.244,3.452,20.031-17.048Z" transform="translate(1563.974 166.411)" fill="#f4f4f4" opacity="0.67" style="mix-blend-mode: multiply;isolation: isolate"/>
        <g id="Grupo_55069" data-name="Grupo 55069" transform="translate(13.495)">
          <g id="Grupo_55067" data-name="Grupo 55067" transform="translate(40.681 5.031)">
            <path id="Trazado_102167" data-name="Trazado 102167" d="M-1526.833-215.265l-5.067,4.074a1.764,1.764,0,0,1-2.417-.124l-1.228-1.362a1.742,1.742,0,0,1,.138-2.4l4.708-4.656a1.822,1.822,0,0,1,1.779-.488,4.149,4.149,0,0,1,2.742,3.122A1.807,1.807,0,0,1-1526.833-215.265Z" transform="translate(1535.962 220.341)" fill="#ffebad"/>
            <path id="Trazado_102168" data-name="Trazado 102168" d="M-1527.481-213.174l-6.2-1.612,4.911-4.8s-2.884,3.084,1.74,6.048Z" transform="translate(1534.422 219.863)" fill="#ffebad" opacity="0.67" style="mix-blend-mode: multiply;isolation: isolate"/>
            <path id="Trazado_102169" data-name="Trazado 102169" d="M-1517.76-216.76a9.738,9.738,0,0,0-2.8-2.674c-.043-.026-.086-.046-.129-.07l.441-.444a1.633,1.633,0,0,1,1.678-.408,4.447,4.447,0,0,1,2.731,3.13,1.663,1.663,0,0,1-.555,1.759l-.394.317A13.224,13.224,0,0,0-1517.76-216.76Z" transform="translate(1525.649 220.44)" fill="#ffebad"/>
          </g>
          <g id="Grupo_55068" data-name="Grupo 55068" transform="translate(26.988 0.752)">
            <path id="Trazado_102170" data-name="Trazado 102170" d="M-1568.991-227.784l-5.067,4.074a1.764,1.764,0,0,1-2.417-.124l-1.228-1.362a1.742,1.742,0,0,1,.138-2.4l4.708-4.656a1.823,1.823,0,0,1,1.779-.488,4.15,4.15,0,0,1,2.742,3.122A1.807,1.807,0,0,1-1568.991-227.784Z" transform="translate(1578.121 233.073)" fill="#ffebad"/>
            <path id="Trazado_102171" data-name="Trazado 102171" d="M-1559.106-229.935a9.74,9.74,0,0,0-2.8-2.674c-.043-.027-.086-.046-.129-.07l.441-.444a1.632,1.632,0,0,1,1.678-.408,4.447,4.447,0,0,1,2.732,3.13,1.662,1.662,0,0,1-.555,1.759l-.394.317A13.2,13.2,0,0,0-1559.106-229.935Z" transform="translate(1567.259 233.615)" fill="#ffebad"/>
            <path id="Trazado_102172" data-name="Trazado 102172" d="M-1569.578-225.507l-6.2-1.612,4.911-4.8s-2.884,3.084,1.74,6.047Z" transform="translate(1576.54 232.469)" fill="#ffebad" opacity="0.67" style="mix-blend-mode: multiply;isolation: isolate"/>
          </g>
          <path id="Trazado_102173" data-name="Trazado 102173" d="M-1599.853-220.729l-53.371-15.2-7.991,6.846,46.136,28.851,16.047-19.75Z" transform="translate(1661.215 235.931)" fill="#ffebad"/>
          <path id="Trazado_102174" data-name="Trazado 102174" d="M-1523.085-191.223c-.415.443-19.233,17.51-19.233,17.51l-3.111-1.946,20.9-15.977Z" transform="translate(1583.036 206.023)" fill="#ffebad" opacity="0.67" style="mix-blend-mode: multiply;isolation: isolate"/>
        </g>
        <path id="Trazado_102175" data-name="Trazado 102175" d="M-1670.457-23.653l-6.04-23.712-.332-.411-21.9-10.913-4.036,3.257,16.277,15.791,12,19.245Z" transform="translate(1702.765 116.256)" fill="#ffebad"/>
      </g>
      <g id="Grupo_55071" data-name="Grupo 55071" transform="translate(29.053 48.485)">
        <path id="Trazado_102176" data-name="Trazado 102176" d="M-1560.289-96.021l2.362,2.741,3.185.186.3.695-.84.408,2.6.911,1.153,1.915-1.181,2.73-2.7,1.474-2.586-1.46-1.794-3.043-3.4-3.612Z" transform="translate(1579.464 119.322)" fill="#fad3b8"/>
        <path id="Trazado_102177" data-name="Trazado 102177" d="M-1599.994-152.334a5.506,5.506,0,0,1,.083-5.117c.143-.274.3-.537.467-.8a17.294,17.294,0,0,1-2.616-4.125,17.382,17.382,0,0,0-1.9-3.862c-.405-.528-.847-1.01-1.241-1.528q-2.228,3.318-4.288,6.746c-1.321,2.208-5,7.082-3.447,9.742a7.453,7.453,0,0,0,1.7,1.813c1,.848,13.2,10.493,13.8,9.965l5.3-4.656C-1594.536-146.376-1598.5-149.11-1599.994-152.334Z" transform="translate(1613.316 167.763)" fill="#ffb74d"/>
      </g>
    </g>
  </g>
</svg>
