<svg xmlns="http://www.w3.org/2000/svg" width="340.287" height="206" viewBox="0 0 340.287 206">
  <g id="Grupo_84167" data-name="Grupo 84167" transform="translate(-22.233 -73.092)">
    <g id="Grupo_84142" data-name="Grupo 84142" transform="translate(22.233 73.092)">
      <g id="Grupo_84141" data-name="Grupo 84141">
        <g id="Grupo_84140" data-name="Grupo 84140">
          <path id="Rectángulo_31862" data-name="Rectángulo 31862" d="M8.2,0H239a8.2,8.2,0,0,1,8.2,8.2V157.954a8.2,8.2,0,0,1-8.2,8.2H8.2a8.2,8.2,0,0,1-8.2-8.2V8.2A8.2,8.2,0,0,1,8.2,0Z" transform="translate(32.419)" fill="#5038a1"/>
          <path id="Trazado_107579" data-name="Trazado 107579" d="M293.5,221.263a6.335,6.335,0,0,1-6.509,6.144H80.507A6.334,6.334,0,0,1,74,221.263V94.273a6.335,6.335,0,0,1,6.509-6.145H286.993a6.335,6.335,0,0,1,6.509,6.145Z" transform="translate(-27.732 -74.689)" fill="#ffdc72"/>
          <g id="Grupo_84139" data-name="Grupo 84139" transform="translate(0 166.156)">
            <path id="Trazado_107580" data-name="Trazado 107580" d="M23.5,291.575l-1.271,1.511v4.5c0,2.907,1.414,4.714,6.62,4.714h299c5.208,0,6.458-2.6,6.382-4.73V293.53l-1.794-1.955Z" transform="translate(-22.233 -262.456)" fill="#5038a1"/>
            <path id="Trazado_107581" data-name="Trazado 107581" d="M333.515,288.421c2.078,1.838-.449,3.329-5.657,3.329H28.885c-5.208,0-7.9-1.491-6.015-3.329l26.726-26.1c1.881-1.839,6.692-3.33,10.741-3.33H292.873c4.05,0,9.022,1.491,11.1,3.33Z" transform="translate(-22.237 -258.995)" fill="#3a2c69"/>
            <path id="Trazado_107582" data-name="Trazado 107582" d="M225.026,281.967c0-.678-1.628-1.23-4.226-1.23H165.161c-3.662,0-4.216.551-4.216,1.23v6.423c0,.679.4,1.231,4.319,1.231H220.8c3.972,0,4.226-.551,4.226-1.231Z" transform="translate(-36.967 -261.304)" fill="#5038a1"/>
          </g>
        </g>
      </g>
    </g>
    <g id="Grupo_84150" data-name="Grupo 84150" transform="translate(74.064 93.538)">
      <g id="Grupo_84149" data-name="Grupo 84149">
        <path id="Rectángulo_31863" data-name="Rectángulo 31863" d="M14.849,0h114.6a14.849,14.849,0,0,1,14.849,14.849V56.27a14.848,14.848,0,0,1-14.848,14.848H14.849A14.849,14.849,0,0,1,0,56.269V14.849A14.849,14.849,0,0,1,14.849,0Z" fill="#fff"/>
        <path id="Trazado_107583" data-name="Trazado 107583" d="M224.518,115.273v-6.034a13.271,13.271,0,0,0-13.272-13.271H93.495a13.271,13.271,0,0,0-13.271,13.271v6.034Z" transform="translate(-80.224 -95.968)" fill="#8c6df2"/>
        <path id="Trazado_107584" data-name="Trazado 107584" d="M135.3,164.5l-14.393-4.913H80.224v.983a13.27,13.27,0,0,0,13.271,13.272H211.247a13.28,13.28,0,0,0,12.681-9.342Z" transform="translate(-80.224 -102.726)" fill="#8c6df2"/>
        <g id="Grupo_84146" data-name="Grupo 84146" transform="translate(76.322 3.367)">
          <path id="Trazado_107585" data-name="Trazado 107585" d="M170.685,101.364c-1.933-1.274-4.674-.476-4.8-.435-.195.066-.3.159-.264.4.014.09.5,3.059,2.287,4.237.614.4,7.764,3.727,9.14,4.489l.677-1.025.678-1.026C177.165,107.039,171.3,101.769,170.685,101.364Z" transform="translate(-165.616 -99.832)" fill="#fff"/>
          <g id="Grupo_84143" data-name="Grupo 84143" transform="translate(3.301)">
            <path id="Trazado_107586" data-name="Trazado 107586" d="M169.415,104.437c-.021.638-.4,7.93.415,8.933.621.768,2.047-4.472,3.271-6.5Z" transform="translate(-169.31 -100.235)" fill="#fff"/>
            <path id="Trazado_107587" data-name="Trazado 107587" d="M170.2,102.892c.58-.269,7.137-3.48,8.377-3.13.95.268-3.308,3.639-4.693,5.563Z" transform="translate(-169.404 -99.735)" fill="#fff"/>
          </g>
          <g id="Grupo_84145" data-name="Grupo 84145" transform="translate(9.865 6.531)">
            <g id="Grupo_84144" data-name="Grupo 84144" transform="translate(1.118)">
              <path id="Trazado_107588" data-name="Trazado 107588" d="M177.964,109.713c-.012.364-.225,4.506.236,5.078.352.436,1.162-2.541,1.859-3.695Z" transform="translate(-177.905 -107.326)" fill="#fff"/>
              <path id="Trazado_107589" data-name="Trazado 107589" d="M178.408,108.837c.33-.154,4.057-1.979,4.762-1.779.539.152-1.879,2.069-2.668,3.16Z" transform="translate(-177.958 -107.043)" fill="#fff"/>
            </g>
            <path id="Trazado_107590" data-name="Trazado 107590" d="M180.132,110.036c.333.221.483.578.337.8h0c-.146.222-.536.224-.87,0l-2.553-1.686c-.333-.22-.483-.577-.338-.8h0c.147-.224.534-.225.867-.005Z" transform="translate(-176.653 -107.164)" fill="#fff"/>
          </g>
        </g>
        <path id="Trazado_107591" data-name="Trazado 107591" d="M183.547,110.316c.6.886,4.716,1.908,8.308,1.784a30.1,30.1,0,0,0,5.852-1.086c2.872-.708,5.766-1.828,7.763-4.117,1.644-1.886,2.038-5.426-.442-6.771a4.869,4.869,0,0,0-5.338.328c-1.337,1.048-1.668,3.4-1.731,5-.034.827,1.195,4.817,2.193,5.736,3.205,2.962,13.585,2.23,17.242,1.313,8.119-2.037,11.636-5.7,11.96-6.6" transform="translate(-91.199 -96.342)" fill="none" stroke="#fff" stroke-linecap="round" stroke-linejoin="round" stroke-width="1.412" stroke-dasharray="1.412 2.825"/>
        <g id="Grupo_84147" data-name="Grupo 84147" transform="translate(13.04 4.532)">
          <path id="Trazado_107592" data-name="Trazado 107592" d="M101.519,101.315v2.362H99.7v9.438H96.628v-9.438H94.814v-2.362Z" transform="translate(-94.814 -101.067)" fill="#fff"/>
          <path id="Trazado_107593" data-name="Trazado 107593" d="M107.838,101.315v11.8h-3.069v-11.8Z" transform="translate(-95.871 -101.067)" fill="#fff"/>
          <path id="Trazado_107594" data-name="Trazado 107594" d="M118.405,106.425h-3.068v-2.051a3.7,3.7,0,0,0-.1-1.117.423.423,0,0,0-.433-.221.452.452,0,0,0-.481.269,4.114,4.114,0,0,0-.1,1.166v5.481a3.831,3.831,0,0,0,.1,1.123.522.522,0,0,0,.906,0,4.241,4.241,0,0,0,.106-1.234v-1.484h3.068v.46a9.036,9.036,0,0,1-.259,2.6A2.647,2.647,0,0,1,117,112.757a3.919,3.919,0,0,1-2.184.576,4.523,4.523,0,0,1-2.222-.488,2.379,2.379,0,0,1-1.159-1.352,8.871,8.871,0,0,1-.284-2.6v-3.447a15.368,15.368,0,0,1,.088-1.914,2.672,2.672,0,0,1,.521-1.228,2.915,2.915,0,0,1,1.2-.93,4.926,4.926,0,0,1,4.006.185,2.516,2.516,0,0,1,1.158,1.307,7.846,7.846,0,0,1,.277,2.435Z" transform="translate(-96.55 -101.038)" fill="#fff"/>
          <path id="Trazado_107595" data-name="Trazado 107595" d="M129.482,101.315l-1.761,5.328,1.929,6.473h-3.17l-1.243-5.059v5.059h-3.068v-11.8h3.068V105.9l1.367-4.584Z" transform="translate(-97.72 -101.067)" fill="#fff"/>
          <path id="Trazado_107596" data-name="Trazado 107596" d="M132.8,101.315h5.117v2.362h-2.048v2.237h1.917v2.245h-1.917v2.595h2.252v2.361H132.8Z" transform="translate(-98.849 -101.067)" fill="#fff"/>
          <path id="Trazado_107597" data-name="Trazado 107597" d="M147.308,101.315v2.362h-1.822v9.438h-3.069v-9.438H140.6v-2.362Z" transform="translate(-99.678 -101.067)" fill="#fff"/>
        </g>
        <g id="Grupo_84148" data-name="Grupo 84148" transform="translate(15.487 61.894)">
          <path id="Trazado_107598" data-name="Trazado 107598" d="M101.115,165.218v1.255h-.969v5.016H98.515v-5.016h-.964v-1.255Z" transform="translate(-97.551 -165.218)" fill="#fff"/>
          <path id="Trazado_107599" data-name="Trazado 107599" d="M102.842,165.218H104a8.855,8.855,0,0,1,1.563.089,1.077,1.077,0,0,1,.667.455,2.075,2.075,0,0,1,.257,1.167,1.83,1.83,0,0,1-.182.984.954.954,0,0,1-.717.3,1.229,1.229,0,0,1,.651.322.968.968,0,0,1,.207.37,5.848,5.848,0,0,1,.041.928v1.653h-1.515V169.4a1.436,1.436,0,0,0-.08-.623q-.079-.121-.416-.121v2.828h-1.631Zm1.631,1.073v1.4a.715.715,0,0,0,.384-.076q.111-.075.111-.49v-.344a.524.524,0,0,0-.106-.391A.6.6,0,0,0,104.473,166.291Z" transform="translate(-98.113 -165.218)" fill="#fff"/>
          <path id="Trazado_107600" data-name="Trazado 107600" d="M111.284,165.218l.932,6.271h-1.667l-.087-1.127h-.584l-.1,1.127H108.1l.832-6.271Zm-.864,4.032q-.125-1.065-.248-2.633-.249,1.8-.313,2.633Z" transform="translate(-98.671 -165.218)" fill="#fff"/>
          <path id="Trazado_107601" data-name="Trazado 107601" d="M117.541,165.218l-.83,6.271h-2.478l-.941-6.271h1.719q.3,2.592.428,4.385.127-1.814.269-3.218l.113-1.166Z" transform="translate(-99.223 -165.218)" fill="#fff"/>
          <path id="Trazado_107602" data-name="Trazado 107602" d="M119.241,165.218h2.719v1.255h-1.089v1.19h1.019v1.192h-1.019v1.379h1.2v1.255h-2.827Z" transform="translate(-99.855 -165.218)" fill="#fff"/>
          <path id="Trazado_107603" data-name="Trazado 107603" d="M125.446,165.218v5.016h.992v1.255h-2.622v-6.271Z" transform="translate(-100.341 -165.218)" fill="#fff"/>
        </g>
        <rect id="Rectángulo_31864" data-name="Rectángulo 31864" width="11.264" height="5.792" transform="translate(4.18 22.464)" fill="#d2d1d1"/>
        <rect id="Rectángulo_31865" data-name="Rectángulo 31865" width="67.671" height="2.896" transform="translate(4.18 30.888)" fill="#d2d1d1"/>
        <rect id="Rectángulo_31866" data-name="Rectángulo 31866" width="67.671" height="2.896" transform="translate(4.18 37.646)" fill="#d2d1d1"/>
        <rect id="Rectángulo_31867" data-name="Rectángulo 31867" width="67.671" height="2.895" transform="translate(4.18 44.403)" fill="#d2d1d1"/>
        <rect id="Rectángulo_31868" data-name="Rectángulo 31868" width="48.086" height="2.896" transform="translate(87.307 22.684)" fill="#d2d1d1"/>
        <rect id="Rectángulo_31869" data-name="Rectángulo 31869" width="48.086" height="2.896" transform="translate(87.307 29.441)" fill="#d2d1d1"/>
        <rect id="Rectángulo_31870" data-name="Rectángulo 31870" width="48.086" height="2.896" transform="translate(87.307 36.198)" fill="#d2d1d1"/>
        <rect id="Rectángulo_31871" data-name="Rectángulo 31871" width="11.262" height="5.792" transform="translate(18.396 22.464)" fill="#d2d1d1"/>
        <rect id="Rectángulo_31872" data-name="Rectángulo 31872" width="11.265" height="5.792" transform="translate(32.61 22.464)" fill="#d2d1d1"/>
        <rect id="Rectángulo_31873" data-name="Rectángulo 31873" width="23.065" height="16.584" transform="translate(83.827 43.657)" fill="#d2d1d1"/>
        <rect id="Rectángulo_31874" data-name="Rectángulo 31874" width="23.064" height="16.584" transform="translate(111.35 43.657)" fill="#d2d1d1"/>
        <rect id="Rectángulo_31875" data-name="Rectángulo 31875" width="67.672" height="1.448" transform="translate(46.582 66.04)" fill="#fff"/>
      </g>
      <path id="Trazado_107604" data-name="Trazado 107604" d="M165.369,151.01a481.484,481.484,0,0,1-53.82-28.229c-9.9-6.129-20.493-11.864-29.6-19.278a13.2,13.2,0,0,0-1.729,6.536v44.575a13.27,13.27,0,0,0,13.271,13.272H206.275C192.467,162.907,178.872,157.168,165.369,151.01Z" transform="translate(-80.224 -96.768)" fill="#e8e8e8" style="mix-blend-mode: multiply;isolation: isolate"/>
    </g>
    <g id="Grupo_84166" data-name="Grupo 84166" transform="translate(72.701 103.999)">
      <g id="Grupo_84158" data-name="Grupo 84158" transform="translate(148.186)">
        <path id="Trazado_107605" data-name="Trazado 107605" d="M278.122,146.607c-.771-1.993-8.977-24.607-13.723-28.187-3.624-2.735-2.577,12.894-4.978,18.591Z" transform="translate(-246.081 -108.779)" fill="#ffb74d"/>
        <path id="Trazado_107606" data-name="Trazado 107606" d="M270.037,127.419c.109.294.184.586.26.867a28.634,28.634,0,0,0,1.082,3.543c.746,1.818,1.65,3.688,2.225,5.481a16.964,16.964,0,0,0,2.13,4.091,5.318,5.318,0,0,1,.874,2.353c.047.767-.739,1.09-1.844.426a12,12,0,0,1-3.18-3.36,23.4,23.4,0,0,1-3.561-7.092c-.562-1.959-1.354-3.97-1.817-5.908-.2-.829-.484-1.782.082-2.322a1.92,1.92,0,0,1,2.367.156A3.546,3.546,0,0,1,270.037,127.419Z" transform="translate(-246.775 -109.53)" fill="#fff" opacity="0.05"/>
        <path id="Trazado_107607" data-name="Trazado 107607" d="M266.219,121.59c-3.2-.441-3.134,3.7-3.171,5.321-.1,4.338,2.03,10.53,7.046,15.576l-10.673-5.475c2.4-5.7,1.354-21.326,4.978-18.591a13.048,13.048,0,0,1,2.721,3.37A6.559,6.559,0,0,0,266.219,121.59Z" transform="translate(-246.081 -108.779)" fill="#e8e8e8" style="mix-blend-mode: multiply;isolation: isolate"/>
        <g id="Grupo_84155" data-name="Grupo 84155" transform="translate(0)">
          <g id="Grupo_84151" data-name="Grupo 84151" transform="translate(54.956)">
            <path id="Trazado_107608" data-name="Trazado 107608" d="M355.16,133.5c-3.026-2-36.582-25.23-47-25.822-7.961-.454,8.377,19.732,10.2,29.585Z" transform="translate(-305.983 -107.672)" fill="#ffb74d"/>
          </g>
          <g id="Grupo_84152" data-name="Grupo 84152" transform="translate(54.956)">
            <path id="Trazado_107609" data-name="Trazado 107609" d="M322.779,118.751c3.115,1,7.42,3.194,10.8,2.666.56-.088.077-.674-.579-1.253-1.086-.656-2.181-1.3-3.275-1.944-.237-.1-.476-.2-.711-.31-1.454-.674-2.9-1.376-4.336-2.1-1.761-.886-3.43-1.928-5.176-2.839-.82-.429-3.53-2.328-4.559-1.184C314.136,115.489,319.735,117.77,322.779,118.751Z" transform="translate(-306.926 -108.071)" fill="#fff" opacity="0.05"/>
            <path id="Trazado_107610" data-name="Trazado 107610" d="M335.527,124.561c-5.144-.81-10.734-1.541-15.584-3.543-3.5-1.444-7.829-4.078-8.536-8.186-.329-1.914-.117-3.239.7-4.278a16.127,16.127,0,0,0-3.951-.875c-7.961-.454,8.377,19.732,10.2,29.585l36.8-3.763c-1.1-.731-6.258-4.277-12.868-8.518A38.843,38.843,0,0,1,335.527,124.561Z" transform="translate(-305.983 -107.672)" fill="#e8e8e8" style="mix-blend-mode: multiply;isolation: isolate"/>
          </g>
          <g id="Grupo_84154" data-name="Grupo 84154" transform="translate(0 4.025)">
            <g id="Grupo_84153" data-name="Grupo 84153">
              <path id="Trazado_107611" data-name="Trazado 107611" d="M274.1,143.877c-1.851-2.423-22.43-30.416-28.447-31.674-4.595-.961,5.928,22.641,7.537,33.812Z" transform="translate(-244.496 -112.175)" fill="#e8e8e8"/>
              <path id="Trazado_107612" data-name="Trazado 107612" d="M275.545,154.27c-1.323,2.747-15.808,34.325-21.446,36.776-4.305,1.871,1.223-23.371.536-34.637Z" transform="translate(-245.34 -116.647)" fill="#161615"/>
            </g>
            <path id="Trazado_107613" data-name="Trazado 107613" d="M257.286,156.493c-3.323.341-6.2-1.182-6.426-3.4h0c-.228-2.217,2.284-4.289,5.6-4.63l25.5-2.608c3.322-.341,6.2,1.182,6.427,3.4h0c.226,2.218-2.284,4.289-5.606,4.631Z" transform="translate(-245.17 -115.748)" fill="#e8e8e8"/>
          </g>
          <path id="Trazado_107614" data-name="Trazado 107614" d="M354.387,160.791c19.3-1.975,32.852-21.684,33.421-22.59.923-1.468,1.113-2.657-.41-4.01-.578-.514-19.5-17.176-37.3-15.356-6.126.627-70.126,16.992-83.075,19.35l1.047,10.238,1.047,10.237C282.274,158.349,348.262,161.418,354.387,160.791Z" transform="translate(-246.889 -108.843)" fill="#e8e8e8"/>
          <path id="Trazado_107615" data-name="Trazado 107615" d="M385.213,132.029c2.308-.442,4.374-1.444,3.39-4.157-6.758-4.354-16.665-9.324-26.491-9.159.011.337-.553.86-1.658,1.958a4.878,4.878,0,0,0-1.5,5.806,37.348,37.348,0,0,0,2.335,5.373c1.282,2.509,2.053,4.144,5.137,4.146,2.352,0,4.092-.963,6.259-1.679a44.1,44.1,0,0,1,8.7-1.85C382.337,132.357,383.82,132.3,385.213,132.029Z" transform="translate(-256.614 -108.844)" fill="#d8ccff" opacity="0.2"/>
          <path id="Trazado_107616" data-name="Trazado 107616" d="M365.558,121.28a9.077,9.077,0,0,0,.391,1.5,4.52,4.52,0,0,0,3.185,2.577c1.735.463,3.424.913,5.137,1.527,1.908.684,3.8,1.453,5.7,2.147a8.557,8.557,0,0,0,2.136.624c2.795.229,2.37-1.85,1.266-2.885-2.173-2.035-4.927-2.953-7.469-3.875C373.947,122.182,366.1,117.254,365.558,121.28Z" transform="translate(-257.355 -108.951)" fill="#fff" opacity="0.1"/>
          <path id="Trazado_107617" data-name="Trazado 107617" d="M388.6,128.063c-.29-.186-.592-.374-.893-.562a2.608,2.608,0,0,1-1.769,3.617c-2.375.829-5.348.812-7.841,1.053a43.807,43.807,0,0,0-8.527,2.369c-4.328,1.6-6.575-.512-8.245-4.64-2.083-5.15-1.69-6.371-.513-9.4l-.361.358a4.878,4.878,0,0,0-1.5,5.806,37.348,37.348,0,0,0,2.335,5.372c1.282,2.509,2.053,4.144,5.137,4.146,2.352,0,4.092-.963,6.259-1.679a44.1,44.1,0,0,1,8.7-1.85c.954-.11,2.436-.172,3.83-.438C387.521,131.778,389.587,130.775,388.6,128.063Z" transform="translate(-256.614 -109.035)" fill="#8c6df2" opacity="0.2"/>
        </g>
        <g id="Grupo_84156" data-name="Grupo 84156" transform="translate(34.301 21.213)">
          <rect id="Rectángulo_31876" data-name="Rectángulo 31876" width="5.52" height="5.519" rx="1.229" transform="translate(0 9.059) rotate(-7.925)" fill="#d8ccff" opacity="0.5"/>
          <path id="Rectángulo_31877" data-name="Rectángulo 31877" d="M1.229,0H4.29A1.23,1.23,0,0,1,5.52,1.23V4.291A1.228,1.228,0,0,1,4.291,5.52H1.228A1.228,1.228,0,0,1,0,4.292V1.229A1.229,1.229,0,0,1,1.229,0Z" transform="translate(7.461 8.021) rotate(-7.925)" fill="#d8ccff" opacity="0.5"/>
          <path id="Rectángulo_31878" data-name="Rectángulo 31878" d="M1.228,0H4.291A1.228,1.228,0,0,1,5.519,1.228V4.29A1.229,1.229,0,0,1,4.29,5.519H1.227A1.227,1.227,0,0,1,0,4.292V1.228A1.228,1.228,0,0,1,1.228,0Z" transform="matrix(0.99, -0.138, 0.138, 0.99, 14.923, 6.984)" fill="#d8ccff" opacity="0.5"/>
          <path id="Rectángulo_31879" data-name="Rectángulo 31879" d="M1.229,0H4.291A1.228,1.228,0,0,1,5.519,1.228V4.293A1.227,1.227,0,0,1,4.291,5.52H1.229A1.229,1.229,0,0,1,0,4.291V1.229A1.229,1.229,0,0,1,1.229,0Z" transform="translate(22.384 5.947) rotate(-7.924)" fill="#d8ccff" opacity="0.5"/>
          <rect id="Rectángulo_31880" data-name="Rectángulo 31880" width="5.519" height="5.519" rx="1.228" transform="translate(29.846 4.909) rotate(-7.911)" fill="#d8ccff" opacity="0.5"/>
          <path id="Rectángulo_31881" data-name="Rectángulo 31881" d="M1.227,0H4.293A1.226,1.226,0,0,1,5.519,1.226V4.29A1.228,1.228,0,0,1,4.291,5.519H1.229A1.229,1.229,0,0,1,0,4.29V1.227A1.227,1.227,0,0,1,1.227,0Z" transform="translate(37.307 3.872) rotate(-7.895)" fill="#d8ccff" opacity="0.5"/>
          <path id="Rectángulo_31882" data-name="Rectángulo 31882" d="M1.23,0H4.29A1.229,1.229,0,0,1,5.519,1.229V4.292A1.228,1.228,0,0,1,4.291,5.52H1.228A1.228,1.228,0,0,1,0,4.291V1.23A1.23,1.23,0,0,1,1.23,0Z" transform="translate(44.769 2.835) rotate(-7.894)" fill="#d8ccff" opacity="0.5"/>
          <path id="Rectángulo_31883" data-name="Rectángulo 31883" d="M1.229,0H4.291A1.229,1.229,0,0,1,5.52,1.229V4.292A1.227,1.227,0,0,1,4.292,5.519H1.229A1.229,1.229,0,0,1,0,4.29V1.229A1.229,1.229,0,0,1,1.229,0Z" transform="translate(52.229 1.798) rotate(-7.91)" fill="#d8ccff" opacity="0.5"/>
          <path id="Rectángulo_31884" data-name="Rectángulo 31884" d="M1.226,0H4.291A1.229,1.229,0,0,1,5.52,1.229V4.29A1.229,1.229,0,0,1,4.291,5.519H1.229A1.229,1.229,0,0,1,0,4.29V1.226A1.226,1.226,0,0,1,1.226,0Z" transform="translate(59.689 0.762) rotate(-7.938)" fill="#d8ccff" opacity="0.5"/>
        </g>
        <path id="Trazado_107618" data-name="Trazado 107618" d="M307.736,146.024c-6.617.677-13.357,1.806-20.012,1.918-5.6.095-11.6-.613-16.328-3.86a32.471,32.471,0,0,1-5.387-4.759c-.922-.991-1.84-2.029-2.822-3.092-3.783-4.1-8.936-5.224-14.2-5.238.677,2.1,1.367,4.249,2.007,6.344,3.8-.554,7.717-.427,10.929,2.012a30.437,30.437,0,0,1,4.555,4.378c1.326,1.535,2.478,3.238,3.906,4.683a9.156,9.156,0,0,0,2.738,1.99c2.718,1.206,5.471,1.081,8.377,1.191q5.171.194,10.344-.071c6.239-.327,12.447-1,18.664-1.592,22.64-2.167,45.414-.514,68.1-1.8a60.608,60.608,0,0,0,7.293-8.623,4.516,4.516,0,0,0,.675-1.545Z" transform="translate(-244.973 -110.149)" fill="#8c6df2"/>
        <g id="Grupo_84157" data-name="Grupo 84157" transform="translate(6.02 26.917)">
          <path id="Trazado_107619" data-name="Trazado 107619" d="M292.078,152.24q-5.167.269-10.344.071c-2.907-.109-5.659.015-8.377-1.191a9.156,9.156,0,0,1-2.738-1.99c-1.428-1.445-2.58-3.148-3.906-4.683a30.437,30.437,0,0,0-4.555-4.378c-3.211-2.439-7.128-2.566-10.928-2.012.2.641.389,1.28.574,1.909,3.682-.492,7.448-.3,10.555,2.064a30.3,30.3,0,0,1,4.555,4.376c1.326,1.536,2.477,3.239,3.906,4.682a9.164,9.164,0,0,0,2.739,1.993c2.717,1.2,5.471,1.079,8.376,1.189q5.171.2,10.344-.071c6.239-.327,12.446-1,18.664-1.591,21.848-2.091,43.821-.633,65.715-1.679q1.154-1.051,2.176-2.075c-22.68,1.28-45.452-.372-68.092,1.795C304.525,151.243,298.318,151.913,292.078,152.24Z" transform="translate(-251.231 -137.787)" fill="#ffdc72"/>
        </g>
        <path id="Trazado_107620" data-name="Trazado 107620" d="M349.811,153c-9.337,1.114-63.557,2.53-68.226.509-3.906-1.7-2.513-4.232-6.707-4.918-3.669-.6-13.382,1.073-17.069,1.245-1.79.083-2.653-2.185-1.766-3.58,1.12-1.758.582-3.793-.436-6.2-.763-1.805-1.576-3.546-2.458-5.3a58.509,58.509,0,0,1-4.422-11.316c-.681-2.587-1.666-6.243.078-8.661a4.76,4.76,0,0,1,.356-.431,9.6,9.6,0,0,0-3.513-2.142c-4.54-.948,5.675,22.074,7.474,33.4-1.89.862-3.1,2.352-2.937,3.917.227,2.217,3.1,3.739,6.426,3.4l9.5-.971.615,6.018c13.158-.311,79.146,2.757,85.271,2.131,10.679-1.092,19.59-7.611,25.524-13.372A134.655,134.655,0,0,1,349.811,153Z" transform="translate(-244.496 -108.15)" fill="#e8e8e8" style="mix-blend-mode: multiply;isolation: isolate"/>
        <path id="Trazado_107621" data-name="Trazado 107621" d="M275.545,154.27c-1.323,2.747-15.808,34.325-21.446,36.776-4.305,1.871,1.223-23.371.536-34.637Z" transform="translate(-245.34 -112.621)" fill="#ffb74d"/>
        <path id="Trazado_107622" data-name="Trazado 107622" d="M261.811,181.237c.191-.409.348-.838.5-1.25a50.827,50.827,0,0,1,2.072-5.1c1.249-2.477,2.663-4.92,3.739-7.48a22.252,22.252,0,0,1,3.246-5.238A8.653,8.653,0,0,0,272.9,158.9c.267-1.241-.4-2.362-1.666-2.073-1.572.361-3.05,2.087-4.055,3.241a31.422,31.422,0,0,0-5.5,9.176c-1.11,2.844-2.46,5.606-3.467,8.489-.43,1.233-.983,2.612-.592,3.93a1.866,1.866,0,0,0,2.342,1.49A3.352,3.352,0,0,0,261.811,181.237Z" transform="translate(-245.876 -112.888)" fill="#fff" opacity="0.05"/>
        <path id="Trazado_107623" data-name="Trazado 107623" d="M256.779,187.222c-3.231-1.632-1.972-8.469-1.54-11.2,1.157-7.3,5.007-16.027,11.33-20.722l-11.933,1.222c.686,11.266-4.842,36.507-.536,34.637.977-.424,2.218-1.724,3.613-3.6A4.446,4.446,0,0,1,256.779,187.222Z" transform="translate(-245.34 -112.73)" fill="#e8e8e8" style="mix-blend-mode: multiply;isolation: isolate"/>
        <path id="Trazado_107624" data-name="Trazado 107624" d="M357.092,147.575c-2.475,3.387-29.678,42.274-39.706,45.547-7.658,2.5,3.47-28.242,2.906-41.783,0,0,5.087-1.9,17.865-3.066S357.092,147.575,357.092,147.575Z" transform="translate(-251.952 -111.9)" fill="#ffb74d"/>
        <path id="Trazado_107625" data-name="Trazado 107625" d="M336.14,171.95c2.149-3.681,4.99-6.61,7.507-9.9,2.22-2.9,4.742-4.976,7.057-7.712,1.384-1.636,1.342-2.569.66-3.1-2.972-.155-5.952-.657-8.923-.447-1.922.136-4.111.4-5.771,1.712-2.324,1.837-2.593,4.035-2.612,7.139a22.456,22.456,0,0,1-3.052,10.9c-.863,1.623-1.681,3.3-2.688,4.8a31.1,31.1,0,0,0-2.07,3.219c-.948,1.875-.238,4.855,1.866,4.2C332.257,181.483,333.919,175.756,336.14,171.95Z" transform="translate(-253.136 -112.246)" fill="#fff" opacity="0.05"/>
        <path id="Trazado_107626" data-name="Trazado 107626" d="M322.3,186.5c-4.158-.043-4.019-4.207-3.388-7.368,1.124-5.634,3.361-11.025,5.216-16.439,1.455-4.246,2.318-9.294,4.933-13.072a51.589,51.589,0,0,0-8.764,1.949c.564,13.542-10.564,44.282-2.906,41.783,2.462-.8,5.961-3.757,9.874-7.8A12.182,12.182,0,0,1,322.3,186.5Z" transform="translate(-251.952 -112.127)" fill="#e8e8e8" style="mix-blend-mode: multiply;isolation: isolate"/>
        <path id="Trazado_107627" data-name="Trazado 107627" d="M285.128,146.277a1.1,1.1,0,0,1-1.239-.937l-.458-3.292a1.1,1.1,0,0,1,.025-.425,1.091,1.091,0,0,0-.415,1.012l.458,3.293a1.1,1.1,0,0,0,1.239.936l3.292-.459a1.1,1.1,0,0,0,.912-.812,1.1,1.1,0,0,1-.522.225Z" transform="translate(-248.589 -111.278)" fill="#8c6df2" opacity="0.5"/>
        <path id="Trazado_107628" data-name="Trazado 107628" d="M293.476,145.115a1.1,1.1,0,0,1-1.239-.935l-.458-3.292a1.12,1.12,0,0,1,.025-.427,1.1,1.1,0,0,0-.415,1.015l.458,3.291a1.1,1.1,0,0,0,1.239.938l3.292-.459a1.1,1.1,0,0,0,.911-.812,1.09,1.09,0,0,1-.521.224Z" transform="translate(-249.476 -111.155)" fill="#8c6df2" opacity="0.5"/>
        <path id="Trazado_107629" data-name="Trazado 107629" d="M301.823,143.955a1.1,1.1,0,0,1-1.238-.935l-.457-3.293a1.083,1.083,0,0,1,.024-.426,1.1,1.1,0,0,0-.415,1.014l.458,3.293a1.1,1.1,0,0,0,1.239.936l3.292-.459a1.1,1.1,0,0,0,.911-.812,1.112,1.112,0,0,1-.52.224Z" transform="translate(-250.363 -111.031)" fill="#8c6df2" opacity="0.5"/>
        <path id="Trazado_107630" data-name="Trazado 107630" d="M310.171,142.795a1.1,1.1,0,0,1-1.238-.936l-.458-3.291a1.1,1.1,0,0,1,.025-.427,1.1,1.1,0,0,0-.415,1.014l.458,3.293a1.1,1.1,0,0,0,1.238.937l3.293-.458a1.1,1.1,0,0,0,.911-.814,1.086,1.086,0,0,1-.521.225Z" transform="translate(-251.249 -110.908)" fill="#8c6df2" opacity="0.5"/>
        <path id="Trazado_107631" data-name="Trazado 107631" d="M318.519,141.634a1.1,1.1,0,0,1-1.239-.935l-.457-3.292a1.1,1.1,0,0,1,.025-.426,1.1,1.1,0,0,0-.415,1.014l.458,3.292a1.1,1.1,0,0,0,1.239.936l3.292-.458a1.1,1.1,0,0,0,.911-.812,1.085,1.085,0,0,1-.521.224Z" transform="translate(-252.136 -110.785)" fill="#8c6df2" opacity="0.5"/>
        <path id="Trazado_107632" data-name="Trazado 107632" d="M326.867,140.475a1.1,1.1,0,0,1-1.238-.937l-.458-3.292a1.127,1.127,0,0,1,.026-.425,1.093,1.093,0,0,0-.415,1.014l.458,3.293a1.1,1.1,0,0,0,1.239.934l3.292-.457a1.1,1.1,0,0,0,.911-.813,1.091,1.091,0,0,1-.521.226Z" transform="translate(-253.023 -110.662)" fill="#8c6df2" opacity="0.5"/>
        <path id="Trazado_107633" data-name="Trazado 107633" d="M335.215,139.314a1.1,1.1,0,0,1-1.238-.936l-.458-3.292a1.087,1.087,0,0,1,.025-.425,1.088,1.088,0,0,0-.415,1.011l.458,3.293a1.1,1.1,0,0,0,1.239.937l3.292-.457a1.1,1.1,0,0,0,.91-.813,1.068,1.068,0,0,1-.521.223Z" transform="translate(-253.909 -110.539)" fill="#8c6df2" opacity="0.5"/>
        <path id="Trazado_107634" data-name="Trazado 107634" d="M343.563,138.153a1.1,1.1,0,0,1-1.238-.935l-.458-3.292a1.082,1.082,0,0,1,.025-.425,1.086,1.086,0,0,0-.415,1.011l.458,3.293a1.1,1.1,0,0,0,1.238.937l3.293-.458a1.1,1.1,0,0,0,.911-.813,1.077,1.077,0,0,1-.521.224Z" transform="translate(-254.796 -110.415)" fill="#8c6df2" opacity="0.5"/>
        <path id="Trazado_107635" data-name="Trazado 107635" d="M351.911,136.992a1.1,1.1,0,0,1-1.238-.935l-.458-3.291a1.077,1.077,0,0,1,.025-.426,1.1,1.1,0,0,0-.416,1.014l.458,3.292a1.1,1.1,0,0,0,1.239.937l3.292-.459a1.092,1.092,0,0,0,.911-.812,1.1,1.1,0,0,1-.521.225Z" transform="translate(-255.683 -110.292)" fill="#8c6df2" opacity="0.5"/>
      </g>
      <g id="Grupo_84165" data-name="Grupo 84165" transform="translate(0 27.529)">
        <g id="Grupo_84160" data-name="Grupo 84160" transform="translate(11.646)">
          <g id="Grupo_84159" data-name="Grupo 84159" style="mix-blend-mode: multiply;isolation: isolate">
            <path id="Trazado_107636" data-name="Trazado 107636" d="M110.865,138.556s-.638.033-1.815.164a37.089,37.089,0,0,0-5.019.955,22.878,22.878,0,0,0-7.064,3.1A7.035,7.035,0,0,0,94.237,146a3.587,3.587,0,0,0,1.191,3.717,15.1,15.1,0,0,0,4.519,2.9,45.733,45.733,0,0,0,5.739,2.052,99.405,99.405,0,0,0,13.154,2.676c2.31.345,4.7.652,7.078.887l7.382.728,7.426.625c2.494.184,5.01.3,7.518.459l7.525.324c2.5.1,5,.105,7.469.163,2.474.038,4.927-.045,7.353-.017,2.425-.022,4.819-.1,7.177-.142,4.708-.2,9.261-.443,13.578-.75,4.312-.352,8.389-.741,12.154-1.142,3.759-.433,7.2-.88,10.263-1.276l7.911-1.153,6.905-1.045-1.745.541c-1.14.344-2.8.9-4.95,1.479l-3.553.988-4.211,1.071-4.815,1.129c-1.7.377-3.5.713-5.375,1.1s-3.842.7-5.874,1.069c-2.036.336-4.152.608-6.324.93-2.175.292-4.417.536-6.707.816l-7.033.587c-2.392.13-4.824.291-7.288.4-2.465.075-4.962.133-7.478.142-5.032-.009-10.145-.078-15.247-.39-2.549-.187-5.1-.338-7.636-.554l-7.582-.731-7.352-.986c-2.479-.332-4.874-.711-7.252-1.144a94.94,94.94,0,0,1-13.533-3.465,39.769,39.769,0,0,1-6.054-2.609,17.77,17.77,0,0,1-5.12-3.891,7.26,7.26,0,0,1-1.578-2.958,5.212,5.212,0,0,1,.307-3.333,7.138,7.138,0,0,1,1.743-2.369,11.567,11.567,0,0,1,2.1-1.524,18.436,18.436,0,0,1,4.16-1.725,28.512,28.512,0,0,1,3.667-.79,32,32,0,0,1,5.189-.309C110.234,138.5,110.865,138.556,110.865,138.556Z" transform="translate(-91.729 -138.472)" fill="#ffebad"/>
          </g>
        </g>
        <g id="Grupo_84162" data-name="Grupo 84162" transform="translate(3.868 1.657)">
          <g id="Grupo_84161" data-name="Grupo 84161" style="mix-blend-mode: multiply;isolation: isolate">
            <path id="Trazado_107637" data-name="Trazado 107637" d="M109.375,140.367l-.542.04c-.358.022-.889.066-1.575.149a34.088,34.088,0,0,0-5.828,1.216,28.573,28.573,0,0,0-8.2,3.923,20.885,20.885,0,0,0-4.068,3.673,14.9,14.9,0,0,0-2.886,5.1,10.11,10.11,0,0,0-.086,6.016,12.288,12.288,0,0,0,3.567,5.43c3.4,3.179,8.251,5.256,13.389,6.654a74.807,74.807,0,0,0,8.016,1.7c1.364.212,2.792.407,4.144.551,1.432.132,2.887.292,4.318.4a163.227,163.227,0,0,0,17.318.408c5.818-.208,11.635-.66,17.341-1.352,5.7-.71,11.293-1.653,16.691-2.67,5.395-1.038,10.579-2.241,15.5-3.395,4.917-1.177,9.544-2.409,13.834-3.508,4.282-1.125,8.208-2.185,11.708-3.066,3.493-.905,6.554-1.653,9.087-2.219,2.528-.584,4.535-.961,5.9-1.215l2.1-.37-2.028.648-5.686,1.933-8.791,3.12c-3.39,1.224-7.229,2.573-11.439,4-4.2,1.451-8.8,2.907-13.7,4.354-4.894,1.468-10.121,2.822-15.577,4.051-5.451,1.252-11.153,2.286-16.993,3.056a153.478,153.478,0,0,1-17.82,1.418,135.469,135.469,0,0,1-17.928-.72c-1.465-.163-2.886-.365-4.321-.543-1.51-.2-2.922-.433-4.37-.694a66.584,66.584,0,0,1-8.433-2.052,46.913,46.913,0,0,1-7.862-3.228,27.116,27.116,0,0,1-6.74-4.887,15.334,15.334,0,0,1-4.041-7.057,12.848,12.848,0,0,1,.527-7.593,16.543,16.543,0,0,1,3.728-5.667,22.779,22.779,0,0,1,4.708-3.668,28.783,28.783,0,0,1,8.89-3.357,32.171,32.171,0,0,1,6.021-.618c.7-.01,1.228,0,1.586.02Z" transform="translate(-83.026 -140.326)" fill="#ffebad"/>
          </g>
        </g>
        <g id="Grupo_84164" data-name="Grupo 84164" transform="translate(0 3.009)">
          <g id="Grupo_84163" data-name="Grupo 84163" style="mix-blend-mode: multiply;isolation: isolate">
            <path id="Trazado_107638" data-name="Trazado 107638" d="M108.405,141.856l-.6.046c-.4.02-.98.085-1.733.189a25.361,25.361,0,0,0-6.293,1.813,29,29,0,0,0-8.4,5.506,31.138,31.138,0,0,0-7.48,10.447,26.014,26.014,0,0,0-2.012,6.959,20.261,20.261,0,0,0,.361,7.546,17.588,17.588,0,0,0,3.5,6.973,21.861,21.861,0,0,0,6.407,5.219,45.092,45.092,0,0,0,17.219,4.815c1.593.139,3.227.33,4.77.373l2.347.114c.784.038,1.586.018,2.379.038l2.387.038,2.394-.048c1.6-.006,3.193-.122,4.791-.209a147.847,147.847,0,0,0,18.953-2.554c6.21-1.223,12.242-2.853,18.053-4.548s11.338-3.675,16.583-5.561c5.239-1.9,10.129-3.9,14.662-5.707,9.04-3.691,16.544-6.921,21.865-9.027,2.652-1.075,4.762-1.86,6.2-2.391l2.21-.8-2.091,1.072-5.87,3.088c-2.522,1.342-5.587,2.968-9.123,4.8-3.526,1.855-7.542,3.875-11.961,6.024-4.41,2.168-9.273,4.35-14.472,6.553-5.194,2.218-10.793,4.285-16.662,6.233a167.015,167.015,0,0,1-18.442,4.952c-3.192.666-6.434,1.239-9.709,1.695-1.645.181-3.287.4-4.941.55-1.657.118-3.308.313-4.972.366-1.662.076-3.322.179-4.987.171l-2.493.025-2.491-.064c-1.652-.029-3.323-.163-4.99-.3-1.69-.1-3.256-.338-4.858-.524-6.567-.818-13.087-2.431-18.7-5.821a25.557,25.557,0,0,1-7.25-6.371,20.319,20.319,0,0,1-3.85-8.475,23.274,23.274,0,0,1,0-8.693,28.651,28.651,0,0,1,2.587-7.55A33.122,33.122,0,0,1,90.34,148.2a29.846,29.846,0,0,1,9.152-5.063,25.232,25.232,0,0,1,6.561-1.265c.771-.036,1.357-.046,1.753-.03Z" transform="translate(-78.698 -141.839)" fill="#ffebad"/>
          </g>
        </g>
      </g>
    </g>
  </g>
</svg>
